<svg width="1181" height="1181" version="1.1" xmlns="http://www.w3.org/2000/svg" desc="Created with imagetracer.js version 1.2.6" ><path fill="rgb(0,0,0)" stroke="rgb(0,0,0)" stroke-width="1" opacity="0.9058823529411765" d="M 565.5 370 L 606.5 370 Q 608.3 372.8 614.5 371 L 631.5 374 L 659.5 382 Q 712.6 401.9 747 440.5 Q 774.8 470.7 791 512.5 L 797 533.5 L 800 549.5 L 801 567.5 L 802 568.5 L 802 594.5 L 801 595.5 L 801 606.5 L 800 607.5 L 799 621.5 L 793.5 645 L 793 641.5 L 795 635.5 L 796 620.5 L 797 619.5 L 797 587.5 L 796 586.5 L 794 565.5 L 789 543.5 L 774 503.5 Q 753.8 460.2 719.5 431 Q 687.7 402.8 641.5 389 L 624.5 385 L 619.5 385 L 612.5 383 L 604.5 383 L 603.5 382 L 568.5 382 L 567.5 383 L 552.5 384 L 530.5 389 Q 509.9 394.9 492.5 404 Q 456.5 423 431 452.5 Q 412.1 474.1 399 501.5 Q 420.3 510.2 436.5 524 L 474.5 559 L 497.5 576 Q 509 583 523.5 587 L 546 590.5 L 528.5 591 L 503.5 586 L 478.5 574 L 453.5 556 L 421.5 528 Q 410.3 518.7 394.5 514 L 388 529.5 L 381 560.5 L 380 576.5 L 379 577.5 L 379 608.5 L 380 609.5 L 380 618.5 L 381 619.5 L 382 631.5 L 386 649.5 Q 393.3 675.2 405 696.5 Q 423.9 730.6 452.5 755 Q 484.3 783.2 530.5 797 L 567.5 804 L 604.5 804 L 641.5 797 L 674.5 785 L 694.5 775 Q 727.1 756.6 751 729.5 L 767.5 707 L 767 708.5 Q 749 741 722.5 765 Q 695.5 790.5 657.5 805 L 632.5 812 L 615.5 815 L 581.5 817 L 580.5 816 L 556.5 815 L 535.5 811 L 497.5 798 Q 454.6 778.4 425 745.5 Q 397.2 715.3 381 673.5 L 375 655.5 L 368 621.5 L 368 612.5 L 367 611.5 L 367 574.5 L 368 573.5 L 368 564.5 L 369 563.5 L 371 546.5 L 382 510 L 373.5 508 L 353.5 508 L 333.5 513 Q 319 519 309 529.5 Q 300.9 537.9 296 549.5 L 292 564.5 L 292 574 L 280 574 L 280 562.5 Q 285.8 531.3 306.5 515 Q 318.9 504.4 336.5 499 L 351.5 496 L 375.5 496 L 388 498 Q 405.6 456.5 437.5 428 Q 463.3 403.8 497.5 388 L 531.5 376 L 565.5 370 Z " /><path fill="rgb(0,0,0)" stroke="rgb(0,0,0)" stroke-width="1" opacity="0.9058823529411765" d="M 333.5 530 Q 347.5 528.5 352 536.5 Q 356.5 541 355 551.5 L 348.5 561 Q 344.1 565 334.5 564 L 325 558.5 Q 319.7 553.8 321 542.5 L 327.5 533 L 333.5 530 Z " /><path fill="rgb(0,0,0)" stroke="rgb(0,0,0)" stroke-width="1" opacity="0.9058823529411765" d="M 581.5 549 Q 601.7 548.8 610 560.5 L 617 574.5 L 617 586.5 Q 614 599.5 604.5 606 Q 596.2 614.2 577.5 612 Q 564.8 608.7 558 599.5 Q 551 591.5 552 575.5 Q 555.3 561.8 565.5 555 L 570.5 552 L 581.5 549 Z " /><path fill="rgb(0,0,0)" stroke="rgb(0,0,0)" stroke-width="1" opacity="0.9058823529411765" d="M 624.5 592 L 650.5 593 L 674.5 600 L 703.5 617 L 743.5 651 L 762.5 664 Q 774.3 670.7 789.5 674 Q 795 672.5 796.5 675 L 817.5 675 L 831.5 672 L 843.5 667 Q 855.6 660.6 864 650.5 Q 871.1 642.6 875 631.5 L 878 619.5 L 878 610.5 L 879.5 609 L 891 610 L 889 627.5 L 885 639.5 Q 876.8 658.3 861.5 670 Q 848.7 680.2 830.5 685 L 819.5 687 L 793.5 687 L 772.5 682 L 753.5 673 L 726.5 653 L 688.5 618 L 667.5 604 L 646.5 596 L 630.5 593 L 624.5 593 L 624.5 592 Z " /><path fill="rgb(0,0,0)" stroke="rgb(0,0,0)" stroke-width="1" opacity="0.9058823529411765" d="M 834.5 607 L 846.5 608 L 854 614.5 Q 857.3 619.2 856 628.5 Q 854.5 635 849.5 638 Q 845 642.5 834.5 641 L 826 635.5 Q 820.8 631.2 822 620.5 L 827.5 611 L 834.5 607 Z " /><path fill="rgb(0,0,0)" stroke="rgb(0,0,0)" stroke-width="1" opacity="0" d="M 0 0 L 1181 0 L 1181 1181 L 0 1181 L 0 0 Z M 566 370 L 532 376 L 498 388 Q 463 404 438 428 Q 406 457 388 498 L 376 496 L 352 496 L 337 499 Q 319 504 307 515 Q 286 531 280 563 L 280 574 L 292 574 L 292 565 L 296 550 Q 301 538 309 530 Q 319 519 334 513 L 354 508 L 374 508 L 382 510 L 371 547 L 369 564 L 368 565 L 368 574 L 367 575 L 367 612 L 368 613 L 368 622 L 375 656 L 381 674 Q 397 715 425 746 Q 455 778 498 798 L 536 811 L 557 815 L 581 816 L 582 817 L 616 815 L 633 812 L 658 805 Q 695 790 723 765 Q 745 744 762 718 L 762 716 L 751 730 Q 727 757 695 775 L 675 785 L 642 797 L 605 804 L 568 804 L 531 797 Q 484 783 453 755 Q 424 731 405 697 Q 393 675 386 650 L 382 632 L 381 620 L 380 619 L 380 610 L 379 609 L 379 578 L 380 577 L 381 561 L 388 530 L 395 514 Q 410 519 422 528 L 454 556 L 479 574 L 504 586 L 529 591 L 546 591 L 524 587 Q 509 583 498 576 L 475 559 L 437 524 Q 420 510 399 502 Q 412 474 431 453 Q 456 423 493 404 Q 510 395 531 389 L 553 384 L 568 383 L 569 382 L 604 382 L 605 383 L 613 383 L 620 385 L 625 385 L 642 389 Q 688 403 720 431 Q 754 460 774 504 L 789 544 L 794 566 L 796 587 L 797 588 L 797 620 L 794 637 L 795 641 L 799 622 L 800 608 L 801 607 L 801 596 L 802 595 L 802 569 L 801 568 L 800 550 L 797 534 L 791 513 Q 775 471 747 441 Q 713 402 660 382 L 632 374 L 615 371 Q 608 373 607 370 L 566 370 Z M 334 530 L 328 533 L 321 543 Q 320 554 325 559 L 335 564 Q 344 565 349 561 L 355 552 Q 357 541 352 537 Q 348 528 334 530 Z M 582 549 L 571 552 L 566 555 Q 555 562 552 576 Q 551 592 558 600 Q 565 609 578 612 Q 596 614 605 606 Q 614 600 617 587 L 617 575 L 610 561 Q 602 549 582 549 Z M 625 592 L 625 593 L 631 593 L 647 596 L 668 604 L 689 618 L 727 653 L 754 673 L 773 682 L 794 687 L 820 687 L 831 685 Q 849 680 862 670 Q 877 658 885 640 L 889 628 L 891 610 L 880 609 L 878 611 L 878 620 L 875 632 Q 871 643 864 651 Q 856 661 844 667 L 832 672 L 818 675 L 797 675 Q 795 673 790 674 Q 774 671 763 664 L 744 651 L 704 617 L 675 600 L 651 593 L 625 592 Z M 835 607 L 828 611 L 822 621 Q 821 631 826 636 L 835 641 Q 845 643 850 638 Q 854 635 856 629 Q 857 619 854 615 L 847 608 L 835 607 Z M 794 641 L 793 645 L 794 645 L 794 641 Z " /></svg>