<svg width="1181" height="1181" version="1.1" xmlns="http://www.w3.org/2000/svg" desc="Created with imagetracer.js version 1.2.6" ><path fill="rgb(0,0,0)" stroke="rgb(0,0,0)" stroke-width="1" opacity="0.8941176470588236" d="M 588.5 303 L 605.5 304 Q 617.1 307.9 624 316.5 L 630 327.5 L 632 340.5 Q 629.5 342 631 347.5 L 628 354.5 L 618.5 365 L 605.5 370 L 596.5 370 Q 585.6 367.4 580 359.5 L 576 351.5 Q 577.5 346 575 344.5 L 577 335.5 L 582.5 329 L 591.5 325 L 597.5 325 Q 604.5 326.5 608 331.5 L 610 339.5 L 609 339.5 L 605.5 334 Q 602.8 331.2 596.5 332 L 590 336.5 Q 587 340.5 588 348.5 L 592.5 355 L 599.5 358 L 603.5 358 Q 611.8 356.3 616 350.5 Q 620.8 345.3 619 333.5 Q 616.2 323.7 608.5 319 L 598.5 315 L 590.5 315 Q 578 317.5 571 325.5 L 564 337.5 L 563 353.5 L 567 370.5 L 571 380.5 L 602 440.5 L 607 456.5 L 607 470.5 L 602.5 478 L 603 476.5 L 605 467.5 L 599 450.5 L 573 411.5 L 558 381.5 L 551 356.5 L 551 339.5 Q 554.9 321.4 567.5 312 Q 575.8 305.3 588.5 303 Z " /><path fill="rgb(0,0,0)" stroke="rgb(0,0,0)" stroke-width="1" opacity="0.8941176470588236" d="M 430.5 357 Q 432.3 359.8 438.5 358 L 448.5 362 L 461 373.5 L 465 382.5 L 466 392.5 L 462 405.5 L 453.5 415 Q 447 420.5 434.5 420 Q 423.5 418 418 410.5 Q 412.2 405.8 414 393.5 L 420.5 383 Q 424.5 379 432.5 379 Q 439.1 379.9 442 384.5 L 440.5 385 L 439.5 384 L 431.5 384 L 427 387.5 Q 424 390.5 425 397.5 L 431.5 406 L 438.5 408 Q 445.3 406.8 449 402.5 Q 454.8 397.8 453 385.5 Q 450.4 378.1 444.5 374 Q 438.2 368.3 424.5 370 Q 416 372.5 411 378.5 L 404 390.5 L 403 405.5 L 406 414.5 L 418.5 429 L 432.5 439 L 496.5 469 Q 509.2 475.8 518 486.5 L 521 492.5 L 521 496.5 L 520 496.5 L 519 492.5 L 511.5 485 L 490.5 475 L 460.5 466 L 430.5 452 Q 412.5 442.5 400 427.5 L 392 412.5 Q 389.4 404.6 391 392.5 Q 394.9 374.4 407.5 365 L 418.5 359 L 429.5 358 L 430.5 357 Z " /><path fill="rgb(0,0,0)" stroke="rgb(0,0,0)" stroke-width="1" opacity="0.8941176470588236" d="M 746.5 369 L 761.5 369 L 769.5 371 Q 781.8 375.8 789 385.5 Q 796.4 394.1 796 410.5 Q 793.3 427.8 781.5 436 L 770.5 441 L 757.5 441 Q 744.9 438.1 739 428.5 L 736 422.5 L 735 411.5 Q 737 399.5 745.5 394 L 748.5 392 L 757.5 391 Q 767.5 392.5 772 399.5 Q 774.9 403.1 774 410.5 L 770.5 417 L 770 415.5 Q 772.2 414.3 771 409.5 L 766.5 403 L 759.5 401 L 750 406.5 Q 746.5 410.5 748 419.5 L 753.5 426 Q 758 430.1 767.5 429 Q 775.1 427.2 779 421.5 Q 785.2 415.2 783 400.5 Q 780.2 391.8 773.5 387 L 759.5 381 L 748.5 381 Q 734.8 384.3 728 394.5 L 720 408.5 L 714 426.5 L 710 445.5 L 709 458.5 L 699 497.5 L 695 506.5 L 686.5 517 L 678.5 520 L 678.5 519 Q 684.6 517.6 687 512.5 L 693 495.5 L 694 481.5 L 695 480.5 L 696 455.5 L 700 432.5 L 705 413.5 Q 711.6 392.6 725.5 379 Q 733.5 371.5 746.5 369 Z " /><path fill="rgb(0,0,0)" stroke="rgb(0,0,0)" stroke-width="1" opacity="0.8941176470588236" d="M 576.5 483 L 593.5 483 L 594.5 484 L 607.5 485 L 629.5 492 Q 654.6 503.4 671 523.5 Q 683 537.5 690 556.5 L 694 578.5 L 694 593.5 L 693 594.5 L 692 608.5 L 688.5 621 L 688 615.5 L 689 614.5 L 689 598.5 L 684 574.5 L 676 554.5 Q 666.3 533.2 649.5 519 Q 637.4 508.6 621.5 502 L 599.5 496 L 581.5 495 L 580.5 496 L 571.5 496 L 557.5 499 L 536.5 508 Q 519.8 517.8 508 532.5 L 500 546.5 L 495 563.5 Q 496.5 569 494 570.5 L 494 591.5 L 497 607.5 L 506 628.5 Q 513.7 640.8 524.5 650 Q 534.9 658.6 549.5 663 L 559.5 665 L 578.5 665 Q 607.6 660.1 623 641.5 Q 630.1 633.1 634 621.5 L 636 612.5 L 636 598.5 Q 631.8 575.8 616.5 564 L 600.5 556 L 583.5 555 Q 563.6 558.6 554 572.5 L 549 582.5 L 548 596.5 Q 550.8 609.7 559.5 617 Q 566.1 622.9 578.5 623 L 590.5 619 L 597 613.5 Q 603 608.5 601 595.5 Q 598.9 588.1 593.5 584 L 586.5 581 L 581.5 581 Q 574.8 582.3 571 586.5 Q 566.5 590 568 599.5 L 573.5 607 L 581 609.5 L 576.5 610 Q 570 608.5 567 603.5 Q 563.3 599.2 565 589.5 L 571.5 580 L 578.5 576 L 588.5 575 Q 600.9 577.1 606 586.5 Q 609.8 592.2 610 601.5 Q 607.8 602.8 609 607.5 L 605 616.5 L 596.5 625 Q 588.1 631.6 572.5 631 Q 555.8 628.2 548 616.5 L 541 602.5 L 540 586.5 Q 543.4 567.4 556.5 558 L 573.5 549 L 582.5 547 L 596.5 547 Q 617.7 550.8 629 564.5 Q 638.7 575.3 643 591.5 L 644 613.5 Q 639.1 642.1 619.5 656 Q 608.6 665.1 593.5 670 L 580.5 673 L 558.5 673 L 544.5 670 L 530.5 664 L 511 648.5 Q 492.1 629.4 486.5 597 L 486 608.5 L 489 624.5 L 498 646.5 Q 507.9 664.5 523.5 677 Q 539 690 561.5 696 L 571.5 698 L 598.5 698 L 618.5 693 L 645.5 681 Q 659 673 669 661.5 L 674.5 654 L 674 655.5 Q 665.2 674.2 650.5 687 Q 639.5 697.5 624.5 704 L 601.5 710 L 578.5 711 L 577.5 710 L 563.5 709 L 543.5 703 Q 519.2 692.8 503 674.5 Q 486.4 656.6 478 630.5 L 474 611.5 L 474 582.5 L 478 563.5 L 482 552 Q 477.9 550.1 469.5 551 L 452.5 559 L 419.5 584 L 385.5 603 L 363.5 610 L 347.5 611 Q 329 608 319 596.5 Q 312.5 589 309 578.5 L 308 560.5 Q 311.3 545.8 321.5 538 Q 330.2 530.2 346.5 530 L 357.5 533 L 369 542.5 Q 374.8 549.7 375 562.5 L 371 574.5 L 363.5 582 Q 357.2 587.7 343.5 586 L 335 580.5 L 330 570.5 L 330 563.5 Q 331.5 557 336.5 554 L 343.5 552 L 343.5 553 L 338 557.5 L 337 565.5 L 341.5 572 L 347.5 574 L 352.5 574 L 360 568.5 Q 363.5 564.5 362 555.5 L 353.5 545 Q 348.8 541.2 338.5 543 Q 328.8 545.8 324 553.5 L 320 563.5 L 320 570.5 Q 322.7 585.8 333.5 593 L 344.5 598 L 360.5 598 Q 376.1 594.6 388.5 588 L 418.5 569 L 449.5 553 Q 459 548 473.5 548 L 482.5 552 Q 492.6 527.1 511.5 511 Q 522.5 501 536.5 494 L 558.5 486 L 568.5 484 L 575.5 484 L 576.5 483 Z " /><path fill="rgb(0,0,0)" stroke="rgb(0,0,0)" stroke-width="1" opacity="0.8941176470588236" d="M 818.5 555 Q 852.7 552.8 865 572.5 Q 870.7 579.8 873 590.5 L 873 606.5 Q 870 619.5 861.5 627 Q 851.8 637.3 830.5 636 Q 818.5 633 812 624.5 L 806 611.5 L 806 600.5 Q 808.4 590.4 815.5 585 Q 822 578 837.5 580 Q 844.7 581.8 848 587.5 Q 852.4 592.6 851 603.5 L 845.5 612 Q 843.2 614.7 837.5 614 L 837.5 613 L 843 608.5 L 844 601.5 L 838.5 594 Q 835.5 591 828.5 592 L 821 596.5 L 818 602.5 L 818 608.5 Q 819.9 618.1 827.5 622 Q 832.1 624.9 840.5 624 Q 851.6 621.6 857 613.5 Q 862.7 607.2 861 593.5 Q 858.4 580.6 849.5 574 L 838.5 568 L 821.5 567 L 806.5 570 L 791.5 575 L 765.5 588 L 731.5 601 L 717.5 604 L 709.5 604 Q 701.2 602.8 697 597.5 L 698.5 598 L 708.5 601 L 721.5 598 Q 740.6 589.6 756.5 578 L 788.5 563 L 803.5 558 L 818.5 555 Z " /><path fill="rgb(0,0,0)" stroke="rgb(0,0,0)" stroke-width="1" opacity="0.8941176470588236" d="M 687.5 622 L 688 624.5 L 687 624.5 L 687.5 622 Z " /><path fill="rgb(0,0,0)" stroke="rgb(0,0,0)" stroke-width="1" opacity="0.8941176470588236" d="M 476.5 649 L 480 649.5 L 471 655.5 L 463 670.5 L 455 700.5 L 454 708.5 L 440 745.5 Q 431.1 765.1 415.5 778 Q 408.2 783.7 397.5 786 L 380.5 786 Q 363.1 781.9 354 769.5 Q 345.7 760.3 347 741.5 L 350 731.5 L 357 721 L 368.5 714 L 376.5 712 L 382.5 712 Q 397 714.5 404 724.5 Q 409.1 730.4 409 741.5 L 406 751.5 L 397.5 761 L 390.5 764 L 386.5 764 Q 377 762.4 372 756.5 Q 367.7 752.3 369 742.5 L 373.5 736 L 374 737.5 L 373 738.5 L 373 746.5 Q 375.5 753 384.5 753 L 394 747.5 Q 397.3 743.8 396 735.5 L 390.5 728 Q 385.7 723.3 374.5 725 Q 366.6 727.1 363 733.5 L 359 743.5 L 359 750.5 Q 361 761.5 368.5 767 Q 377 775.5 395.5 774 Q 409 770.5 416 760.5 Q 425.1 749.6 431 735.5 Q 438 720.5 442 702.5 L 457 668.5 Q 462.3 658.8 470.5 652 L 476.5 649 Z " /><path fill="rgb(0,0,0)" stroke="rgb(0,0,0)" stroke-width="1" opacity="0.8941176470588236" d="M 646.5 696 L 653.5 705 L 666.5 711 L 689.5 716 L 706.5 718 L 743.5 729 L 766.5 741 L 781 754.5 L 788 768.5 L 789 787.5 Q 785 806.5 771.5 816 L 757.5 822 L 742.5 822 Q 729.4 818.6 722 809.5 L 716 797.5 L 716 783.5 Q 719.3 771.3 728.5 765 L 738.5 761 L 746.5 761 Q 756.2 763.3 762 769.5 Q 768 774.5 766 787.5 Q 763.8 794.3 758.5 798 L 748.5 801 L 742.5 799 L 740 796.5 L 741.5 796 Q 743 798.5 748.5 797 L 754 792.5 Q 756.7 790.2 756 784.5 L 749.5 775 L 741.5 773 Q 734.1 774.1 731 779.5 Q 726.5 784 728 794.5 Q 730.1 802.4 736.5 806 L 745.5 810 L 755.5 810 Q 765.1 807.6 770 800.5 L 776 789.5 L 777 776.5 Q 774.3 761.2 763.5 754 Q 752.4 745.1 737.5 740 L 715.5 733 L 697.5 729 L 667.5 718 Q 655.5 713 648 703.5 Q 645 700.8 646.5 696 Z " /><path fill="rgb(0,0,0)" stroke="rgb(0,0,0)" stroke-width="1" opacity="0.8941176470588236" d="M 551.5 711 L 551 712.5 Q 548.7 715.7 550 722.5 L 558 738.5 L 586 770.5 L 608 803.5 L 617 825.5 L 619 834.5 L 619 847.5 Q 615.5 863.5 605.5 873 Q 594.5 885 571.5 885 Q 555.1 882.4 547 871.5 L 540 857.5 L 539 845.5 Q 541.5 831 551.5 824 L 562.5 819 L 575.5 819 Q 584 821.5 589 827.5 Q 595.3 833.7 595 846.5 Q 593.5 854 588.5 858 Q 583.8 862.8 574.5 863 Q 566.7 861.8 563 856.5 L 561 850.5 L 563 851.5 L 564.5 854 Q 567.5 857 574.5 856 L 581 850.5 Q 583.5 847 582 839.5 L 575.5 832 L 565.5 831 L 556 836.5 L 552 843.5 L 551 848.5 L 555 861.5 L 562.5 869 L 569.5 872 L 576.5 873 L 585.5 871 L 593.5 867 L 601 859.5 Q 607.6 852.1 607 837.5 L 604 824.5 L 595 805.5 L 564 761.5 L 552 740.5 L 548 728.5 L 548 716.5 L 551.5 711 Z " /><path fill="rgb(0,0,0)" stroke="rgb(0,0,0)" stroke-width="1" opacity="0" d="M 0 0 L 1181 0 L 1181 1181 L 0 1181 L 0 0 Z M 589 303 Q 576 305 568 312 Q 555 321 551 340 L 551 357 L 558 382 L 573 412 L 599 451 L 605 468 L 603 476 L 604 477 L 607 471 L 607 457 L 602 441 L 571 381 L 567 371 L 563 354 L 564 338 L 571 326 Q 578 318 591 315 L 599 315 L 609 319 Q 616 324 619 334 Q 621 345 616 351 Q 612 356 604 358 L 600 358 L 593 355 L 588 349 Q 587 341 590 337 L 597 332 Q 603 331 606 334 L 609 340 L 610 340 L 608 332 Q 604 327 598 325 L 592 325 L 583 329 L 577 336 L 575 345 Q 578 346 576 352 L 580 360 Q 586 367 597 370 L 606 370 L 619 365 L 628 355 L 631 348 Q 630 342 632 341 L 630 328 L 624 317 Q 617 308 606 304 L 589 303 Z M 431 357 L 430 358 L 419 359 L 408 365 Q 395 374 391 393 Q 389 405 392 413 L 400 428 Q 413 443 431 452 L 461 466 L 491 475 L 512 485 L 519 493 L 520 497 L 521 497 L 521 493 L 518 487 Q 509 476 497 469 L 433 439 L 419 429 L 406 415 L 403 406 L 404 391 L 411 379 Q 416 373 425 370 Q 438 368 445 374 Q 450 378 453 386 Q 455 398 449 403 Q 445 407 439 408 L 432 406 L 425 398 Q 424 391 427 388 L 432 384 L 440 384 L 441 385 L 442 385 Q 439 380 433 379 Q 425 379 421 383 L 414 394 Q 412 406 418 411 Q 423 418 435 420 Q 447 421 454 415 L 462 406 L 466 393 L 465 383 L 461 374 L 449 362 L 439 358 Q 432 360 431 357 Z M 747 369 Q 734 372 726 379 Q 712 393 705 414 L 700 433 L 696 456 L 695 481 L 694 482 L 693 496 L 687 513 Q 685 518 679 519 L 679 520 L 687 517 L 695 507 L 699 498 L 709 459 L 710 446 L 714 427 L 720 409 L 728 395 Q 735 384 749 381 L 760 381 L 774 387 Q 780 392 783 401 Q 785 415 779 422 Q 775 427 768 429 Q 758 430 754 426 L 748 420 Q 747 410 750 407 L 760 401 L 767 403 Q 772 406 772 415 L 774 411 Q 775 403 772 400 Q 768 392 758 391 L 749 392 L 746 394 Q 737 399 735 412 L 736 423 L 739 429 Q 745 438 758 441 L 771 441 L 782 436 Q 793 428 796 411 Q 796 394 789 386 Q 782 376 770 371 L 762 369 L 747 369 Z M 577 483 L 576 484 L 569 484 L 559 486 L 537 494 Q 523 501 512 511 Q 482 536 474 583 L 474 612 L 478 631 Q 486 657 503 675 Q 519 693 544 703 L 564 709 L 578 710 L 579 711 L 602 710 L 625 704 Q 640 698 651 687 Q 664 675 673 659 L 673 657 L 669 662 Q 659 673 646 681 L 619 693 L 599 698 L 572 698 L 562 696 Q 539 690 524 677 Q 508 665 498 647 L 489 625 L 486 609 L 487 597 Q 492 629 511 649 L 531 664 L 545 670 L 559 673 L 581 673 L 594 670 Q 609 665 620 656 Q 639 642 644 614 L 643 592 Q 639 575 629 565 Q 618 551 597 547 L 583 547 L 574 549 L 557 558 Q 543 567 540 587 L 541 603 L 548 617 Q 556 628 573 631 Q 588 632 597 625 L 605 617 L 609 608 Q 608 603 610 602 Q 610 592 606 587 Q 601 577 589 575 L 579 576 L 572 580 L 565 590 Q 563 599 567 604 Q 570 608 577 610 L 581 610 L 574 607 L 568 600 Q 567 590 571 587 Q 575 582 582 581 L 587 581 L 594 584 Q 599 588 601 596 Q 603 609 597 614 L 591 619 L 579 623 Q 566 623 560 617 Q 551 610 548 597 L 549 583 L 554 573 Q 564 559 584 555 L 601 556 L 617 564 Q 632 576 636 599 L 636 613 L 634 622 Q 630 633 623 642 Q 608 660 579 665 L 560 665 L 550 663 Q 535 659 525 650 Q 514 641 506 629 L 497 608 L 494 592 L 494 571 Q 497 569 495 564 L 500 547 L 508 533 Q 520 518 537 508 L 558 499 L 572 496 L 581 496 L 582 495 L 600 496 L 622 502 Q 637 509 650 519 Q 666 533 676 555 L 684 575 L 689 599 L 689 615 L 688 616 L 689 621 L 692 609 L 693 595 L 694 594 L 694 579 L 690 557 Q 683 538 671 524 Q 655 503 630 492 L 608 485 L 595 484 L 594 483 L 577 483 Z M 343 530 L 333 532 L 322 538 Q 311 546 308 561 L 309 579 Q 313 589 319 597 Q 329 608 348 611 L 364 610 L 386 603 L 420 584 L 453 559 L 470 551 L 479 551 L 480 552 L 482 552 L 474 548 Q 459 548 450 553 L 419 569 L 389 588 Q 376 595 361 598 L 345 598 L 334 593 Q 323 586 320 571 L 320 564 L 324 554 Q 329 546 339 543 Q 349 541 354 545 L 362 556 Q 364 565 360 569 L 353 574 L 348 574 L 342 572 L 337 566 L 338 558 L 344 553 L 344 552 L 337 554 Q 332 557 330 564 L 330 571 L 335 581 L 344 586 Q 357 588 364 582 L 371 575 L 375 563 Q 375 550 369 543 L 358 533 L 343 530 Z M 819 555 L 804 558 L 789 563 L 757 578 Q 741 590 722 598 L 709 601 L 703 600 L 700 598 L 698 599 L 710 604 L 718 604 L 732 601 L 766 588 L 792 575 L 807 570 L 822 567 L 839 568 L 850 574 Q 858 581 861 594 Q 863 607 857 614 Q 852 622 841 624 Q 832 625 828 622 Q 820 618 818 609 L 818 603 L 821 597 L 829 592 Q 836 591 839 594 L 844 602 L 843 609 L 838 613 L 838 614 Q 843 615 846 612 L 851 604 Q 852 593 848 588 Q 845 582 838 580 Q 822 578 816 585 Q 808 590 806 601 L 806 612 L 812 625 Q 819 633 831 636 Q 852 637 862 627 Q 870 620 873 607 L 873 591 Q 871 580 865 573 Q 853 553 819 555 Z M 688 622 L 687 625 L 688 625 L 688 622 Z M 477 649 L 471 652 Q 462 659 457 669 L 442 703 Q 438 721 431 736 Q 425 750 416 761 Q 409 770 396 774 Q 377 776 369 767 Q 361 762 359 751 L 359 744 L 363 734 Q 367 727 375 725 Q 386 723 391 728 L 396 736 Q 397 744 394 748 L 385 753 Q 376 753 373 747 L 373 739 L 374 738 L 374 736 L 369 743 Q 368 752 372 757 Q 377 762 387 764 L 391 764 L 398 761 L 406 752 L 409 742 Q 409 730 404 725 Q 397 714 383 712 L 377 712 L 369 714 L 357 721 L 350 732 L 347 742 Q 346 760 354 770 Q 363 782 381 786 L 398 786 Q 408 784 416 778 Q 431 765 440 746 L 454 709 L 455 701 L 463 671 L 471 656 L 480 650 L 477 649 Z M 647 696 Q 645 701 648 704 Q 656 713 668 718 L 698 729 L 716 733 L 738 740 Q 752 745 764 754 Q 774 761 777 777 L 776 790 L 770 801 Q 765 808 756 810 L 746 810 L 737 806 Q 730 802 728 795 Q 727 784 731 780 Q 734 774 742 773 L 750 775 L 756 785 Q 757 790 754 793 L 749 797 Q 743 799 742 796 L 740 797 L 743 799 L 749 801 L 759 798 Q 764 794 766 788 Q 768 775 762 770 Q 756 763 747 761 L 739 761 L 729 765 Q 719 771 716 784 L 716 798 L 722 810 Q 729 819 743 822 L 758 822 L 772 816 Q 785 806 789 788 L 788 769 L 781 755 L 767 741 L 744 729 L 707 718 L 690 716 L 667 711 L 654 705 L 647 696 Z M 550 714 L 548 717 L 548 729 L 552 741 L 564 762 L 595 806 L 604 825 L 607 838 Q 608 852 601 860 L 594 867 L 586 871 L 577 873 L 570 872 L 563 869 L 555 862 L 551 849 L 552 844 L 556 837 L 566 831 L 576 832 L 582 840 Q 584 847 581 851 L 575 856 Q 568 857 565 854 L 563 852 L 561 851 L 563 857 Q 567 862 575 863 Q 584 863 589 858 Q 594 854 595 847 Q 595 834 589 828 Q 584 822 576 819 L 563 819 L 552 824 Q 541 831 539 846 L 540 858 L 547 872 Q 555 882 572 885 Q 595 885 606 873 Q 616 864 619 848 L 619 835 L 617 826 L 608 804 L 586 771 L 556 736 L 550 723 L 550 714 Z " /></svg>