<svg width="1181" height="1181" version="1.1" xmlns="http://www.w3.org/2000/svg" desc="Created with imagetracer.js version 1.2.6" ><path fill="rgb(0,0,0)" stroke="rgb(0,0,0)" stroke-width="1" opacity="0.8549019607843137" d="M 623.5 306 Q 627.3 312.3 626 323.5 L 621 341.5 L 610 364.5 L 570 429.5 L 556 457.5 L 547 486.5 Q 548.3 491.3 546 492.5 L 546 512.5 Q 550.9 535.6 567.5 547 L 582.5 555 L 601.5 558 L 612.5 556 L 623.5 551 L 634 541.5 L 642 525.5 Q 644.3 518.8 643 508.5 Q 639.9 496.1 631.5 489 Q 623.5 480.5 606.5 481 Q 593.8 483.3 588 492.5 L 584 501.5 L 584 511.5 Q 585.9 520.6 592.5 525 Q 597.6 529.9 608.5 529 L 619 522.5 L 621.5 518 L 622 520.5 L 614.5 530 Q 608.3 534.8 595.5 533 Q 585.6 529.9 580 522.5 Q 573.5 515.5 576 499.5 Q 579.3 486.8 588.5 480 Q 597.4 471.9 615.5 473 Q 634.5 477 644 490.5 Q 649.1 497.4 651 507.5 L 651 522.5 Q 647.4 540.9 636 551.5 L 637.5 552 L 642.5 548 L 657.5 542 L 674.5 540 L 675.5 541 L 686.5 541 L 697.5 543 L 724.5 552 L 770.5 576 L 817.5 607 L 840.5 619 L 853.5 623 L 868.5 623 L 870.5 622 L 870.5 623 L 865.5 625 L 850.5 625 L 835.5 621 L 811.5 610 L 752.5 575 L 722.5 560 L 703.5 553 L 690.5 550 Q 685.8 551.3 684.5 549 L 663.5 549 Q 641.5 554 630 569.5 L 621 586.5 L 619 594.5 L 619 610.5 Q 622.7 627.8 634.5 637 Q 645.5 647.5 668.5 646 Q 682.6 642.1 690 631.5 L 695 619.5 L 695 606.5 Q 692.2 597.3 685.5 592 Q 679.3 585.2 664.5 587 Q 656.8 589.3 652 594.5 Q 647 599.5 647 609.5 Q 649 619.5 656.5 624 L 658 624.5 L 655.5 625 L 647 618.5 Q 641.5 612.5 643 599.5 Q 645.9 589.9 652.5 584 Q 659.7 576.7 676.5 579 Q 690 582.5 697 592.5 Q 705.4 601.1 703 620.5 Q 699.1 637.1 687.5 646 Q 680.2 651.7 669.5 654 L 652.5 654 Q 630.9 649.1 620 633.5 Q 613.7 624.8 611 612.5 L 611 593.5 Q 615.7 569.7 631 556.5 L 629.5 556 Q 618.3 566.3 596.5 566 L 595.5 565 L 584.5 564 L 569.5 558 Q 558.5 551.9 551 542.5 L 542 527.5 L 538 514.5 L 538 505.5 L 537 504.5 L 538 503.5 L 539 484.5 Q 543.3 464.8 551 448.5 L 573 408.5 L 613 348.5 L 623 325.5 L 624 309.5 L 623.5 306 Z " /><path fill="rgb(0,0,0)" stroke="rgb(0,0,0)" stroke-width="1" opacity="0.8549019607843137" d="M 503.5 528 L 518.5 528 L 529.5 531 Q 541.8 536.2 550 545.5 Q 556.5 553 560 563.5 L 562 572.5 L 562 586.5 Q 557.7 611.7 542 625.5 L 543.5 626 Q 555.6 613.6 582.5 616 Q 606.5 620.5 620 635.5 Q 630.4 646.1 635 662.5 L 636 667.5 L 636 691.5 Q 632.9 709.4 627 724.5 L 611 757.5 Q 593.7 788.7 573 816.5 L 558 843.5 L 553 858.5 L 553 873.5 L 556 879.5 L 554 878.5 Q 549 870.5 551 855.5 L 558 833.5 L 569 811.5 L 605 751.5 L 619 722.5 L 627 695.5 Q 625.7 690.8 628 689.5 L 628 669.5 Q 623.4 647.6 608.5 636 Q 599.7 628.3 586.5 625 L 581.5 624 L 566.5 624 Q 550 627.5 541 638.5 Q 534.8 645.3 532 655.5 Q 529.6 662.6 531 673.5 Q 534.5 688 545.5 695 L 557.5 700 L 570.5 700 Q 579.7 697.2 585 690.5 Q 591.8 684.3 590 669.5 Q 587.3 659.8 579.5 655 L 568.5 652 Q 557.6 653.6 553 661.5 L 552.5 663 L 552 660.5 L 557.5 653 L 567.5 648 L 576.5 648 Q 589.1 650.9 595 660.5 Q 600.1 667.4 598 681.5 Q 594.5 696 583.5 703 L 575.5 707 L 564.5 708 L 563.5 709 L 562.5 708 L 551.5 707 L 544.5 704 L 531 692.5 Q 525.3 685.7 523 675.5 L 523 657.5 Q 527 640 538 629.5 L 535.5 631 Q 526 638 512.5 641 L 490.5 642 L 465.5 637 L 443.5 629 L 413.5 614 L 352.5 576 L 332.5 566 L 319.5 562 L 304.5 562 L 298.5 565 L 299.5 563 Q 307.5 558 322.5 560 L 347.5 568 Q 385.5 586 419.5 608 L 450.5 623 L 474.5 631 L 484.5 633 L 491.5 633 L 492.5 634 L 504.5 634 L 514.5 632 L 526.5 627 L 543 612.5 L 552 594.5 L 554 584.5 L 554 574.5 Q 550.6 553.9 536.5 544 L 521.5 537 L 505.5 536 Q 492.3 538.8 485 547.5 Q 476.3 555.8 477 573.5 Q 479.5 584 486.5 590 Q 493 595.5 504.5 596 Q 516.5 594 522 585.5 Q 526.2 580.7 525 570.5 L 518.5 560 L 511 556.5 L 512.5 556 Q 521.6 557.9 526 564.5 Q 530.2 569.8 530 579.5 L 526 591.5 L 520.5 598 Q 513.8 604.8 499.5 604 Q 482.8 601.2 475 589.5 L 470 579.5 L 469 563.5 Q 472.8 545.3 485.5 536 Q 492.5 530 503.5 528 Z " /><path fill="rgb(0,0,0)" stroke="rgb(0,0,0)" stroke-width="1" opacity="0.8549019607843137" d="M 583.5 571 Q 598.2 570.3 603 579.5 Q 607 584 606 593.5 Q 604.2 601.1 598.5 605 Q 593.5 609 584.5 609 Q 574.5 607.5 570 600.5 Q 566 596 567 586.5 Q 569.2 578.2 575.5 574 L 583.5 571 Z " /><path fill="rgb(0,0,0)" stroke="rgb(0,0,0)" stroke-width="1" opacity="0" d="M 0 0 L 1181 0 L 1181 1181 L 0 1181 L 0 0 Z M 624 306 L 624 310 L 623 326 L 613 349 L 573 409 L 551 449 Q 543 465 539 485 L 538 504 L 537 505 L 538 506 L 538 515 L 542 528 L 551 543 Q 559 552 570 558 L 585 564 L 596 565 L 597 566 L 615 564 L 631 556 L 632 556 Q 616 569 611 594 L 611 613 Q 614 625 620 634 Q 631 649 653 654 L 670 654 Q 680 652 688 646 Q 699 637 703 621 Q 705 601 697 593 Q 690 583 677 579 Q 660 577 653 584 Q 646 590 643 600 Q 641 613 647 619 L 656 625 L 658 625 L 657 624 Q 649 619 647 610 Q 647 599 652 595 Q 657 589 665 587 Q 679 585 686 592 Q 692 597 695 607 L 695 620 L 690 632 Q 683 642 669 646 Q 645 648 635 637 Q 623 628 619 611 L 619 595 L 621 587 L 630 570 Q 641 554 664 549 L 685 549 Q 686 551 691 550 L 704 553 L 723 560 L 753 575 L 812 610 L 836 621 L 851 625 L 866 625 L 869 624 L 854 623 L 841 619 L 818 607 L 771 576 L 732 555 L 702 544 L 687 541 L 676 541 L 675 540 L 658 542 Q 645 545 637 552 L 635 553 Q 647 542 651 523 L 651 508 Q 649 497 644 491 Q 634 477 616 473 Q 597 472 589 480 Q 579 487 576 500 Q 574 516 580 523 Q 586 530 596 533 Q 608 535 615 530 L 622 521 L 622 518 L 619 523 L 609 529 Q 598 530 593 525 Q 586 521 584 512 L 584 502 L 588 493 Q 594 483 607 481 Q 624 480 632 489 Q 640 496 643 509 Q 644 519 642 526 L 634 542 L 624 551 L 613 556 L 602 558 L 583 555 L 568 547 Q 551 536 546 513 L 546 493 Q 548 491 547 487 L 556 458 L 570 430 L 610 365 L 621 342 L 626 324 Q 627 312 624 306 Z M 504 528 Q 493 530 486 536 Q 473 545 469 564 L 470 580 L 475 590 Q 483 601 500 604 Q 514 605 521 598 L 526 592 L 530 580 Q 530 570 526 565 L 519 558 L 516 559 L 519 560 L 525 571 Q 526 581 522 586 Q 517 594 505 596 Q 493 596 487 590 Q 480 584 477 574 Q 476 556 485 548 Q 492 539 506 536 L 522 537 L 537 544 Q 551 554 554 575 L 554 585 L 552 595 L 543 613 L 527 627 L 515 632 L 505 634 L 493 634 L 492 633 L 485 633 L 475 631 L 451 623 L 420 608 Q 386 586 348 568 L 323 560 L 308 560 L 304 562 L 320 562 L 333 566 L 353 576 L 414 614 L 444 629 L 466 637 L 491 642 L 513 641 Q 526 638 536 631 L 538 630 Q 527 640 523 658 L 523 676 Q 525 686 531 693 L 545 704 L 552 707 L 563 708 L 564 709 L 565 708 L 576 707 L 584 703 Q 594 696 598 682 Q 600 667 595 661 Q 589 651 577 648 L 568 648 L 558 653 L 552 661 L 553 663 L 553 662 Q 558 654 569 652 L 580 655 Q 587 660 590 670 Q 592 684 585 691 Q 580 697 571 700 L 558 700 L 546 695 Q 535 688 531 674 Q 530 663 532 656 Q 535 645 541 639 Q 550 627 567 624 L 582 624 L 587 625 Q 600 628 609 636 Q 623 648 628 670 L 628 690 Q 626 691 627 696 L 619 723 L 605 752 L 569 812 L 558 834 L 551 856 L 551 871 L 553 874 L 553 859 L 558 844 L 573 817 Q 594 789 611 758 L 627 725 Q 633 709 636 692 L 636 668 L 635 663 Q 630 646 620 636 Q 607 620 583 616 L 566 616 L 561 617 L 543 626 L 540 628 Q 557 613 562 587 L 562 573 L 560 564 Q 556 553 550 546 Q 542 536 530 531 L 519 528 L 504 528 Z M 514 557 L 514 558 L 516 558 L 514 557 Z M 302 562 L 302 563 L 304 563 L 302 562 Z M 584 571 L 576 574 Q 569 578 567 587 Q 566 596 570 601 Q 574 608 585 609 Q 594 609 599 605 Q 604 601 606 594 Q 607 584 603 580 Q 598 570 584 571 Z M 554 874 L 553 877 L 554 877 L 554 874 Z " /></svg>