<svg width="1181" height="1181" version="1.1" xmlns="http://www.w3.org/2000/svg" desc="Created with imagetracer.js version 1.2.6" ><path fill="rgb(0,0,0)" stroke="rgb(0,0,0)" stroke-width="1" opacity="0" d="M 0 0 L 1181 0 L 1181 1181 L 0 1181 L 0 0 Z M 583 326 L 580 327 L 575 334 L 577 340 L 583 344 L 582 346 L 582 362 L 581 363 L 581 380 L 580 381 L 580 466 L 577 467 L 567 467 L 566 468 L 555 469 L 533 476 Q 512 485 497 500 L 452 455 L 407 417 L 409 414 L 408 407 L 404 403 L 398 404 L 393 411 L 395 417 L 399 419 L 407 418 L 436 452 L 491 506 Q 475 523 466 547 L 461 566 L 459 589 L 428 589 L 427 590 L 382 590 L 381 591 L 339 593 L 338 594 L 331 594 L 331 592 L 325 587 L 319 589 L 316 593 Q 315 602 321 603 L 329 602 L 332 595 L 342 595 L 343 596 L 358 596 L 359 597 L 378 597 L 379 598 L 460 598 L 462 623 L 468 648 L 478 672 L 487 686 L 443 732 L 411 770 L 410 772 L 451 736 L 493 693 L 496 698 Q 510 713 530 723 L 543 727 L 553 729 L 562 729 L 563 730 L 575 730 L 576 729 L 582 729 L 582 778 L 583 779 L 583 800 L 584 801 L 584 814 L 585 815 L 585 828 L 586 829 Q 585 839 587 846 L 583 848 L 580 852 L 581 859 L 586 862 L 593 861 L 596 856 L 594 848 L 588 846 L 589 814 L 590 813 L 590 795 L 591 794 L 591 729 L 598 729 L 599 730 L 619 729 L 642 723 Q 656 716 667 706 L 680 691 L 724 734 L 762 766 L 766 770 L 731 730 L 685 685 Q 697 666 704 642 L 709 617 L 710 596 L 739 596 L 740 595 L 789 595 L 790 594 L 818 593 L 819 592 L 831 592 L 836 591 L 837 596 L 841 598 L 849 597 L 851 594 L 850 586 L 847 583 L 839 584 L 836 590 L 830 590 L 829 589 L 812 589 L 811 588 L 793 588 L 792 587 L 711 587 L 709 565 L 703 543 Q 694 520 678 504 Q 723 463 761 415 L 764 416 L 771 415 L 774 411 L 773 404 L 769 400 L 763 401 L 758 407 L 760 414 L 727 443 L 673 498 Q 657 483 636 474 L 611 467 L 590 466 L 588 465 L 588 393 L 587 392 L 585 350 L 584 349 L 584 342 L 587 342 L 591 337 L 590 330 Q 588 326 583 326 Z M 772 769 L 765 774 L 766 783 L 770 785 Q 779 787 780 781 L 779 773 Q 777 769 772 769 Z M 401 773 L 396 775 L 394 780 L 395 786 L 400 789 L 407 788 L 410 784 L 409 777 Q 407 773 401 773 Z " /><path fill="rgb(0,0,0)" stroke="rgb(0,0,0)" stroke-width="1" opacity="0" d="M 576.5 479 L 580 479.5 L 580 518.5 L 581 519.5 L 581 532 L 578 532.5 L 581 533 L 581 574.5 L 579.5 575 L 575.5 577 L 551 553.5 Q 552.8 546.3 558.5 543 Q 565.9 536.4 577 533.5 L 572.5 533 Q 556.3 537.8 546.5 549 L 517 519.5 L 519 517.5 Q 525.6 505.1 536.5 497 Q 552 483.5 576.5 479 Z " /><path fill="rgb(0,0,0)" stroke="rgb(0,0,0)" stroke-width="1" opacity="0" d="M 589 480 Q 626.9 485.3 646 510.5 L 651 517.5 L 651 519.5 L 623.5 548 Q 613.2 535.3 593.5 532 L 593.5 533 Q 608.9 536.6 617 547.5 L 619 552.5 L 593.5 577 L 589 575 L 589 532.5 L 592.5 532 L 592.5 531 L 589 530.5 L 589 480 Z " /><path fill="rgb(0,0,0)" stroke="rgb(0,0,0)" stroke-width="1" opacity="0" d="M 651.5 497 L 663 506.5 L 661.5 509 L 658 506.5 L 651.5 497 Z " /><path fill="rgb(0,0,0)" stroke="rgb(0,0,0)" stroke-width="1" opacity="0" d="M 513.5 502 L 512 504.5 L 509 510 L 506 508.5 L 513.5 502 Z " /><path fill="rgb(0,0,0)" stroke="rgb(0,0,0)" stroke-width="1" opacity="0" d="M 669.5 513 Q 683.4 526.6 691 546.5 L 697 567.5 L 698 587 L 674 588 L 677 574.5 L 677 552.5 L 672 531.5 L 665 517.5 L 669.5 513 Z " /><path fill="rgb(0,0,0)" stroke="rgb(0,0,0)" stroke-width="1" opacity="0" d="M 499.5 515 L 503 517.5 L 503 520.5 L 499 527.5 L 494 545.5 Q 495.3 550.2 493 551.5 L 493 573.5 L 497 589 L 472 589 L 472 576.5 L 476 556.5 L 483 538.5 Q 489.7 525.2 499.5 515 Z " /><path fill="rgb(0,0,0)" stroke="rgb(0,0,0)" stroke-width="1" opacity="0" d="M 655.5 527 Q 665.8 542.8 665 569.5 L 662 584.5 L 659.5 588 L 634 588 L 634 574.5 L 632 564.5 L 628 554.5 L 655.5 527 Z " /><path fill="rgb(0,0,0)" stroke="rgb(0,0,0)" stroke-width="1" opacity="0" d="M 513.5 528 L 542 555.5 L 537 569.5 L 536 589 L 510.5 589 L 510 587.5 L 506 575.5 L 505 556.5 L 509 536.5 L 513.5 528 Z " /><path fill="rgb(0,0,0)" stroke="rgb(0,0,0)" stroke-width="1" opacity="0" d="M 546.5 560 L 570 583.5 L 570 585.5 L 569 588 L 545.5 589 Q 541.1 583.4 543 571.5 L 546.5 560 Z " /><path fill="rgb(0,0,0)" stroke="rgb(0,0,0)" stroke-width="1" opacity="0" d="M 623.5 560 Q 628.8 567.8 627 582.5 L 626 588 L 601.5 588 L 601 586.5 L 600 583.5 L 623.5 560 Z " /><path fill="rgb(0,0,0)" stroke="rgb(0,0,0)" stroke-width="1" opacity="0" d="M 610.5 596 L 621.5 596 L 622 598.5 Q 618.8 606.8 612.5 612 L 599 600.5 L 600.5 597 L 609.5 597 L 610.5 596 Z " /><path fill="rgb(0,0,0)" stroke="rgb(0,0,0)" stroke-width="1" opacity="0" d="M 632 596 L 655.5 596 L 656 597.5 Q 650 608.5 640.5 616 L 628.5 624 L 624.5 625 L 620 619.5 Q 628.8 610.1 632 596 Z " /><path fill="rgb(0,0,0)" stroke="rgb(0,0,0)" stroke-width="1" opacity="0" d="M 670 596 L 697.5 596 Q 698.6 596.1 698 601.5 L 697 602.5 L 697 611.5 L 696 612.5 L 695 624.5 L 690 644.5 Q 684.6 661.6 675.5 675 L 635 635.5 L 636.5 633 Q 648.9 627.4 657 617.5 Q 666 608.6 670 596 Z " /><path fill="rgb(0,0,0)" stroke="rgb(0,0,0)" stroke-width="1" opacity="0" d="M 480.5 597 L 499.5 597 L 502 599.5 Q 508.2 613.8 519.5 623 L 537 634 Q 518.7 656.8 496.5 677 Q 484.9 661.6 479 640.5 L 475 624.5 L 472 598 L 479.5 598 L 480.5 597 Z " /><path fill="rgb(0,0,0)" stroke="rgb(0,0,0)" stroke-width="1" opacity="0" d="M 515 597 L 537.5 597 L 539 598.5 Q 542 613 551 621.5 L 546.5 625 Q 530.2 618.3 520 605.5 L 515 597 Z " /><path fill="rgb(0,0,0)" stroke="rgb(0,0,0)" stroke-width="1" opacity="0" d="M 547.5 597 L 569.5 597 L 572 599.5 L 558.5 614 Q 550.1 606.9 547.5 597 Z " /><path fill="rgb(0,0,0)" stroke="rgb(0,0,0)" stroke-width="1" opacity="0" d="M 577.5 606 L 581 606.5 L 581 627.5 L 579.5 627 L 567.5 622 L 565 619.5 L 577.5 606 Z " /><path fill="rgb(0,0,0)" stroke="rgb(0,0,0)" stroke-width="1" opacity="0" d="M 590 606 L 593.5 606 L 605 617.5 L 602.5 621 L 590 626 L 590 606 Z " /><path fill="rgb(0,0,0)" stroke="rgb(0,0,0)" stroke-width="1" opacity="0" d="M 612.5 627 L 616 628.5 L 611.5 630 L 611 628.5 L 612.5 627 Z " /><path fill="rgb(0,0,0)" stroke="rgb(0,0,0)" stroke-width="1" opacity="0" d="M 546.5 638 L 560.5 642 L 581 642 L 581 648.5 L 582 649.5 L 582 728 L 562.5 724 L 538.5 714 L 520.5 703 L 503 686.5 L 502 683.5 L 546.5 638 Z " /><path fill="rgb(0,0,0)" stroke="rgb(0,0,0)" stroke-width="1" opacity="0" d="M 623.5 639 L 626.5 639 L 670 681.5 Q 664.9 692.4 655.5 699 L 625.5 718 L 609.5 724 L 591.5 728 L 590 726.5 L 590 643 L 609.5 643 L 623.5 639 Z " /><path fill="rgb(0,0,0)" stroke="rgb(0,0,0)" stroke-width="1" opacity="0.6509803921568628" d="M 582.5 326 L 585 326.5 L 582.5 327 L 582.5 326 Z " /><path fill="rgb(0,0,0)" stroke="rgb(0,0,0)" stroke-width="1" opacity="0.6509803921568628" d="M 579.5 327 L 581 327.5 L 577 330.5 L 576.5 332 L 576 330.5 L 579.5 327 Z " /><path fill="rgb(0,0,0)" stroke="rgb(0,0,0)" stroke-width="1" opacity="0.6509803921568628" d="M 586.5 327 L 590 329.5 L 591 333.5 L 590 333.5 L 590 331.5 L 586.5 327 Z " /><path fill="rgb(0,0,0)" stroke="rgb(0,0,0)" stroke-width="1" opacity="0.6509803921568628" d="M 575.5 333 Q 576.4 338.6 580.5 341 L 583.5 342 L 589 338.5 L 590.5 335 L 591 336.5 L 586.5 342 Q 582.8 340.8 584 344.5 L 583 345.5 L 582.5 357 L 582 345.5 L 583 343.5 L 577 339.5 Q 574 337 575.5 333 Z " /><path fill="rgb(0,0,0)" stroke="rgb(0,0,0)" stroke-width="1" opacity="0.6509803921568628" d="M 584.5 349 L 585 357.5 L 584 357.5 L 584.5 349 Z " /><path fill="rgb(0,0,0)" stroke="rgb(0,0,0)" stroke-width="1" opacity="0.6509803921568628" d="M 581.5 362 L 582 374.5 L 581 374.5 L 581.5 362 Z " /><path fill="rgb(0,0,0)" stroke="rgb(0,0,0)" stroke-width="1" opacity="0.6509803921568628" d="M 585.5 362 L 586 371.5 L 585 371.5 L 585.5 362 Z " /><path fill="rgb(0,0,0)" stroke="rgb(0,0,0)" stroke-width="1" opacity="0.6509803921568628" d="M 586.5 376 L 587 386.5 L 586 386.5 L 586.5 376 Z " /><path fill="rgb(0,0,0)" stroke="rgb(0,0,0)" stroke-width="1" opacity="0.6509803921568628" d="M 580.5 380 L 581 393.5 L 580 393.5 L 580.5 380 Z " /><path fill="rgb(0,0,0)" stroke="rgb(0,0,0)" stroke-width="1" opacity="0.6509803921568628" d="M 587.5 392 L 588 424.5 L 587 424.5 L 587.5 392 Z " /><path fill="rgb(0,0,0)" stroke="rgb(0,0,0)" stroke-width="1" opacity="0.6509803921568628" d="M 764.5 400 Q 771.4 399.1 773 403.5 L 774 410.5 L 770.5 415 L 763.5 416 L 760.5 415 Q 722.8 462.3 678.5 503 L 701 479.5 Q 728.4 452.4 753 422.5 L 751.5 422 L 703 467.5 L 673.5 498 L 678 492.5 L 726.5 443 L 755.5 417 L 759.5 414 L 762.5 414 Q 763.8 416.3 768.5 415 L 772 412.5 L 773 405.5 L 768.5 401 L 764.5 401 L 760 404.5 L 758.5 410 L 758 406.5 L 762.5 401 L 764.5 400 Z " /><path fill="rgb(0,0,0)" stroke="rgb(0,0,0)" stroke-width="1" opacity="0.6509803921568628" d="M 399.5 403 Q 406.4 402.1 408 406.5 L 409 413.5 L 407.5 416 L 407 414.5 Q 409.3 413.2 408 408.5 L 407 406 L 403.5 404 L 399.5 404 L 395 407.5 L 394.5 409 L 394 407.5 L 399.5 403 Z " /><path fill="rgb(0,0,0)" stroke="rgb(0,0,0)" stroke-width="1" opacity="0.6509803921568628" d="M 393.5 410 Q 394.4 415.6 398.5 418 L 407.5 417 Q 454.9 455.1 496 499.5 L 476.5 481 Q 448.1 451.4 415.5 426 L 423 434.5 Q 440.8 456.7 461.5 476 L 491 504.5 L 487.5 502 L 436 451.5 L 406.5 418 L 398.5 419 L 395 416.5 Q 392 414 393.5 410 Z " /><path fill="rgb(0,0,0)" stroke="rgb(0,0,0)" stroke-width="1" opacity="0.6509803921568628" d="M 580.5 431 L 581 467 L 577 466.5 L 580 466 L 580.5 431 Z " /><path fill="rgb(0,0,0)" stroke="rgb(0,0,0)" stroke-width="1" opacity="0.6509803921568628" d="M 595.5 466 L 604 466.5 L 595.5 467 L 595.5 466 Z " /><path fill="rgb(0,0,0)" stroke="rgb(0,0,0)" stroke-width="1" opacity="0.6509803921568628" d="M 566.5 467 L 575 467.5 L 566.5 468 L 566.5 467 Z " /><path fill="rgb(0,0,0)" stroke="rgb(0,0,0)" stroke-width="1" opacity="0.6509803921568628" d="M 606.5 467 L 611 467.5 L 606.5 468 L 606.5 467 Z " /><path fill="rgb(0,0,0)" stroke="rgb(0,0,0)" stroke-width="1" opacity="0.6509803921568628" d="M 559.5 468 L 564 468.5 L 559.5 469 L 559.5 468 Z " /><path fill="rgb(0,0,0)" stroke="rgb(0,0,0)" stroke-width="1" opacity="0.6509803921568628" d="M 612.5 468 L 616 468.5 L 612.5 469 L 612.5 468 Z " /><path fill="rgb(0,0,0)" stroke="rgb(0,0,0)" stroke-width="1" opacity="0.6509803921568628" d="M 554.5 469 L 558 469.5 Q 520.6 477.6 497.5 500 L 499.5 497 Q 521.2 477.2 554.5 469 Z " /><path fill="rgb(0,0,0)" stroke="rgb(0,0,0)" stroke-width="1" opacity="0.6509803921568628" d="M 617.5 469 L 620 469.5 L 617.5 470 L 617.5 469 Z " /><path fill="rgb(0,0,0)" stroke="rgb(0,0,0)" stroke-width="1" opacity="0.6509803921568628" d="M 621.5 470 Q 652.4 478.1 672 497.5 L 670.5 498 L 649.5 482 Q 637.6 474.4 621.5 471 L 621.5 470 Z " /><path fill="rgb(0,0,0)" stroke="rgb(0,0,0)" stroke-width="1" opacity="0.6509803921568628" d="M 571.5 479 L 576 479.5 L 571.5 480 L 571.5 479 Z " /><path fill="rgb(0,0,0)" stroke="rgb(0,0,0)" stroke-width="1" opacity="0.6509803921568628" d="M 580.5 479 L 581 518.5 L 580 518.5 L 580.5 479 Z " /><path fill="rgb(0,0,0)" stroke="rgb(0,0,0)" stroke-width="1" opacity="0.6509803921568628" d="M 588 479 L 593 479.5 L 589 480 L 589 530.5 L 592.5 531 Q 612.4 535.1 623.5 548 L 651 519.5 L 651 517.5 L 633.5 498 Q 618.5 484.5 594 480.5 L 598.5 480 Q 627.2 487.3 644 506.5 L 651 515.5 L 652 520.5 L 623.5 549 L 621 549 L 617.5 544 L 611.5 540 L 619 548.5 L 620 552.5 L 595.5 578 L 589 575.5 L 590.5 575 L 594.5 577 L 619 552.5 L 619 550.5 L 610.5 541 Q 602.2 533.4 589 532 L 588.5 557 L 588 479 Z " /><path fill="rgb(0,0,0)" stroke="rgb(0,0,0)" stroke-width="1" opacity="0.6509803921568628" d="M 567.5 480 L 570 480.5 L 564.5 482 L 564.5 481 L 567.5 480 Z " /><path fill="rgb(0,0,0)" stroke="rgb(0,0,0)" stroke-width="1" opacity="0.6509803921568628" d="M 561.5 482 L 563 482.5 Q 538.7 491.2 524 509.5 L 517.5 519 L 517 517.5 Q 523.8 506.3 533.5 498 Q 545 487.5 561.5 482 Z " /><path fill="rgb(0,0,0)" stroke="rgb(0,0,0)" stroke-width="1" opacity="0.6509803921568628" d="M 652.5 497 L 664 505.5 Q 664.5 509.5 661.5 510 L 658 508.5 L 651 498.5 L 652.5 497 Z M 654 499 L 658 507 L 662 509 L 663 507 L 654 499 Z " /><path fill="rgb(0,0,0)" stroke="rgb(0,0,0)" stroke-width="1" opacity="0.6509803921568628" d="M 511.5 502 L 514 503.5 L 508.5 511 L 505 509.5 L 506.5 506 L 511.5 502 Z M 511 504 L 506 509 L 509 510 L 512 506 Q 513 503 511 504 Z " /><path fill="rgb(0,0,0)" stroke="rgb(0,0,0)" stroke-width="1" opacity="0.6509803921568628" d="M 678.5 504 Q 697.9 523.1 706 553.5 L 705 553.5 Q 701 537 693 524.5 L 678 505.5 L 678.5 504 Z " /><path fill="rgb(0,0,0)" stroke="rgb(0,0,0)" stroke-width="1" opacity="0.6509803921568628" d="M 490.5 506 L 491 507.5 Q 470 529 462.5 564 L 462 560.5 Q 470.1 527.1 490.5 506 Z " /><path fill="rgb(0,0,0)" stroke="rgb(0,0,0)" stroke-width="1" opacity="0.6509803921568628" d="M 668.5 512 L 672 513.5 Q 688.2 530.8 695 557.5 L 694 557.5 Q 687.1 529.9 669.5 513 L 665 516.5 L 668.5 512 Z " /><path fill="rgb(0,0,0)" stroke="rgb(0,0,0)" stroke-width="1" opacity="0.6509803921568628" d="M 498.5 515 L 497 517.5 Q 480.6 535.6 474.5 564 L 474 560.5 Q 481 532.5 498.5 515 Z " /><path fill="rgb(0,0,0)" stroke="rgb(0,0,0)" stroke-width="1" opacity="0.6509803921568628" d="M 501.5 515 Q 504.8 515.8 504 520.5 Q 497.4 529.9 495.5 544 L 495 540.5 L 499 527.5 L 503 520.5 L 503 517.5 L 501.5 515 Z " /><path fill="rgb(0,0,0)" stroke="rgb(0,0,0)" stroke-width="1" opacity="0.6509803921568628" d="M 665.5 518 Q 672.7 528.8 675 544.5 L 674 544.5 L 671 531.5 L 665 519.5 L 665.5 518 Z " /><path fill="rgb(0,0,0)" stroke="rgb(0,0,0)" stroke-width="1" opacity="0.6509803921568628" d="M 517.5 520 L 547.5 549 Q 556.9 535.9 576.5 533 L 576.5 534 Q 561.1 537.6 553 548.5 L 551 553.5 L 576.5 577 L 581 575 L 581.5 559 L 582 576 L 574.5 578 L 550 553.5 L 550 551.5 L 559 541.5 L 557.5 541 L 550 547.5 L 548.5 550 L 546.5 550 L 517 521.5 L 517.5 520 Z " /><path fill="rgb(0,0,0)" stroke="rgb(0,0,0)" stroke-width="1" opacity="0.6509803921568628" d="M 654.5 526 L 658 527.5 L 663 541.5 L 664 549.5 L 663 549.5 L 662 541.5 L 659 532.5 L 655.5 527 L 628 554.5 L 628 556.5 Q 632.6 561.9 633 571.5 L 632 571.5 L 631 564.5 Q 627.5 561 627 554.5 L 654.5 526 Z " /><path fill="rgb(0,0,0)" stroke="rgb(0,0,0)" stroke-width="1" opacity="0.6509803921568628" d="M 512 527 L 514.5 527 L 543 555.5 L 537.5 574 L 537 569.5 L 542 555.5 L 513.5 528 L 509.5 536 L 509 534.5 L 512 527 Z " /><path fill="rgb(0,0,0)" stroke="rgb(0,0,0)" stroke-width="1" opacity="0.6509803921568628" d="M 578.5 532 L 581 532.5 L 578.5 533 L 578.5 532 Z " /><path fill="rgb(0,0,0)" stroke="rgb(0,0,0)" stroke-width="1" opacity="0.6509803921568628" d="M 508.5 537 L 509 539.5 L 506.5 548 L 506 544.5 L 508.5 537 Z " /><path fill="rgb(0,0,0)" stroke="rgb(0,0,0)" stroke-width="1" opacity="0.6509803921568628" d="M 494.5 545 L 495 548.5 L 494 548.5 L 494.5 545 Z " /><path fill="rgb(0,0,0)" stroke="rgb(0,0,0)" stroke-width="1" opacity="0.6509803921568628" d="M 675.5 546 L 676 550.5 L 675 550.5 L 675.5 546 Z " /><path fill="rgb(0,0,0)" stroke="rgb(0,0,0)" stroke-width="1" opacity="0.6509803921568628" d="M 505.5 550 L 506 555.5 L 505 555.5 L 505.5 550 Z " /><path fill="rgb(0,0,0)" stroke="rgb(0,0,0)" stroke-width="1" opacity="0.6509803921568628" d="M 493.5 551 L 494 558.5 L 493 558.5 L 493.5 551 Z " /><path fill="rgb(0,0,0)" stroke="rgb(0,0,0)" stroke-width="1" opacity="0.6509803921568628" d="M 664.5 551 L 665 557.5 L 664 557.5 L 664.5 551 Z " /><path fill="rgb(0,0,0)" stroke="rgb(0,0,0)" stroke-width="1" opacity="0.6509803921568628" d="M 676.5 552 L 677 560.5 L 676 560.5 L 676.5 552 Z " /><path fill="rgb(0,0,0)" stroke="rgb(0,0,0)" stroke-width="1" opacity="0.6509803921568628" d="M 706.5 555 L 707 557.5 L 706 557.5 L 706.5 555 Z " /><path fill="rgb(0,0,0)" stroke="rgb(0,0,0)" stroke-width="1" opacity="0.6509803921568628" d="M 622.5 559 Q 625.8 557.9 625 560.5 L 627 568.5 L 626 568.5 L 625 561.5 L 623.5 560 L 599.5 585 L 599 582.5 L 622.5 559 Z " /><path fill="rgb(0,0,0)" stroke="rgb(0,0,0)" stroke-width="1" opacity="0.6509803921568628" d="M 695.5 559 L 696 561.5 L 695 561.5 L 695.5 559 Z " /><path fill="rgb(0,0,0)" stroke="rgb(0,0,0)" stroke-width="1" opacity="0.6509803921568628" d="M 707.5 559 L 708 562.5 L 707 562.5 L 707.5 559 Z " /><path fill="rgb(0,0,0)" stroke="rgb(0,0,0)" stroke-width="1" opacity="0.6509803921568628" d="M 545.5 560 L 546 561.5 L 543.5 571 L 543 566.5 L 545.5 560 Z " /><path fill="rgb(0,0,0)" stroke="rgb(0,0,0)" stroke-width="1" opacity="0.6509803921568628" d="M 547.5 560 L 571 582.5 L 570 589 L 559 588.5 L 569 588 L 570 583.5 L 547.5 560 Z " /><path fill="rgb(0,0,0)" stroke="rgb(0,0,0)" stroke-width="1" opacity="0.6509803921568628" d="M 696.5 563 L 697 566.5 L 696 566.5 L 696.5 563 Z " /><path fill="rgb(0,0,0)" stroke="rgb(0,0,0)" stroke-width="1" opacity="0.6509803921568628" d="M 708.5 564 L 709 568.5 L 708 568.5 L 708.5 564 Z " /><path fill="rgb(0,0,0)" stroke="rgb(0,0,0)" stroke-width="1" opacity="0.6509803921568628" d="M 461.5 565 L 462 569.5 L 461 569.5 L 461.5 565 Z " /><path fill="rgb(0,0,0)" stroke="rgb(0,0,0)" stroke-width="1" opacity="0.6509803921568628" d="M 473.5 565 L 474 568.5 L 473 568.5 L 473.5 565 Z " /><path fill="rgb(0,0,0)" stroke="rgb(0,0,0)" stroke-width="1" opacity="0.6509803921568628" d="M 493.5 567 L 494 573.5 L 493 573.5 L 493.5 567 Z " /><path fill="rgb(0,0,0)" stroke="rgb(0,0,0)" stroke-width="1" opacity="0.6509803921568628" d="M 676.5 567 L 677 574.5 L 676 574.5 L 676.5 567 Z " /><path fill="rgb(0,0,0)" stroke="rgb(0,0,0)" stroke-width="1" opacity="0.6509803921568628" d="M 505.5 569 L 506 574.5 L 505 574.5 L 505.5 569 Z " /><path fill="rgb(0,0,0)" stroke="rgb(0,0,0)" stroke-width="1" opacity="0.6509803921568628" d="M 697.5 569 L 698 574.5 L 697 574.5 L 697.5 569 Z " /><path fill="rgb(0,0,0)" stroke="rgb(0,0,0)" stroke-width="1" opacity="0.6509803921568628" d="M 472.5 570 L 473 575.5 L 472 575.5 L 472.5 570 Z " /><path fill="rgb(0,0,0)" stroke="rgb(0,0,0)" stroke-width="1" opacity="0.6509803921568628" d="M 664.5 570 L 665 575.5 L 664 575.5 L 664.5 570 Z " /><path fill="rgb(0,0,0)" stroke="rgb(0,0,0)" stroke-width="1" opacity="0.6509803921568628" d="M 709.5 570 L 710 576.5 L 709 576.5 L 709.5 570 Z " /><path fill="rgb(0,0,0)" stroke="rgb(0,0,0)" stroke-width="1" opacity="0.6509803921568628" d="M 460.5 572 L 461 578.5 L 460 578.5 L 460.5 572 Z " /><path fill="rgb(0,0,0)" stroke="rgb(0,0,0)" stroke-width="1" opacity="0.6509803921568628" d="M 627.5 572 L 628 579.5 L 627 579.5 L 627.5 572 Z " /><path fill="rgb(0,0,0)" stroke="rgb(0,0,0)" stroke-width="1" opacity="0.6509803921568628" d="M 542.5 573 L 543 580.5 L 542 580.5 L 542.5 573 Z " /><path fill="rgb(0,0,0)" stroke="rgb(0,0,0)" stroke-width="1" opacity="0.6509803921568628" d="M 633.5 574 L 634 588 L 648 588.5 L 633 589 L 633.5 574 Z " /><path fill="rgb(0,0,0)" stroke="rgb(0,0,0)" stroke-width="1" opacity="0.6509803921568628" d="M 536.5 575 L 537 588.5 L 536 588.5 L 536.5 575 Z " /><path fill="rgb(0,0,0)" stroke="rgb(0,0,0)" stroke-width="1" opacity="0.6509803921568628" d="M 494.5 576 L 495 579.5 L 494 579.5 L 494.5 576 Z " /><path fill="rgb(0,0,0)" stroke="rgb(0,0,0)" stroke-width="1" opacity="0.6509803921568628" d="M 506.5 576 L 510 589 L 519 589.5 L 510.5 590 Q 505.7 584.7 506.5 576 Z " /><path fill="rgb(0,0,0)" stroke="rgb(0,0,0)" stroke-width="1" opacity="0.6509803921568628" d="M 675.5 576 L 676 580.5 L 673.5 588 L 673 585.5 L 675.5 576 Z " /><path fill="rgb(0,0,0)" stroke="rgb(0,0,0)" stroke-width="1" opacity="0.6509803921568628" d="M 663.5 577 L 664 580.5 L 662 588 L 660 587.5 L 662 584.5 L 663.5 577 Z " /><path fill="rgb(0,0,0)" stroke="rgb(0,0,0)" stroke-width="1" opacity="0.6509803921568628" d="M 698.5 578 L 699 588 L 688 587.5 L 698 587 L 698.5 578 Z " /><path fill="rgb(0,0,0)" stroke="rgb(0,0,0)" stroke-width="1" opacity="0.6509803921568628" d="M 471.5 580 L 472 589 L 496.5 589 L 497 587.5 L 495 581.5 L 496 581.5 L 498 590 L 471 590 L 471.5 580 Z " /><path fill="rgb(0,0,0)" stroke="rgb(0,0,0)" stroke-width="1" opacity="0.6509803921568628" d="M 710.5 581 L 711 587 L 778 587.5 L 710 588 L 710.5 581 Z " /><path fill="rgb(0,0,0)" stroke="rgb(0,0,0)" stroke-width="1" opacity="0.6509803921568628" d="M 626.5 583 L 627 587.5 L 625.5 589 L 600 589 L 600.5 586 L 601 588 L 625.5 588 L 626.5 583 Z " /><path fill="rgb(0,0,0)" stroke="rgb(0,0,0)" stroke-width="1" opacity="0.6509803921568628" d="M 840.5 583 L 842 583.5 L 837 587.5 L 836.5 589 L 836 587.5 L 838.5 584 L 840.5 583 Z " /><path fill="rgb(0,0,0)" stroke="rgb(0,0,0)" stroke-width="1" opacity="0.6509803921568628" d="M 845.5 583 L 850 585.5 L 851 588.5 L 850 588.5 L 846.5 584 L 845.5 583 Z " /><path fill="rgb(0,0,0)" stroke="rgb(0,0,0)" stroke-width="1" opacity="0.6509803921568628" d="M 459.5 584 L 460 590 L 427 589.5 L 459 589 L 459.5 584 Z " /><path fill="rgb(0,0,0)" stroke="rgb(0,0,0)" stroke-width="1" opacity="0.6509803921568628" d="M 543.5 584 L 545 588.5 L 543 587.5 L 543.5 584 Z " /><path fill="rgb(0,0,0)" stroke="rgb(0,0,0)" stroke-width="1" opacity="0.6509803921568628" d="M 322.5 587 L 325 587.5 Q 319.4 588.4 317 592.5 L 316.5 595 L 316 592.5 L 318.5 589 L 322.5 587 Z " /><path fill="rgb(0,0,0)" stroke="rgb(0,0,0)" stroke-width="1" opacity="0.6509803921568628" d="M 779.5 587 L 792 587.5 L 779.5 588 L 779.5 587 Z " /><path fill="rgb(0,0,0)" stroke="rgb(0,0,0)" stroke-width="1" opacity="0.6509803921568628" d="M 326.5 588 L 331 591.5 L 330.5 593 L 327.5 589 L 326.5 588 Z " /><path fill="rgb(0,0,0)" stroke="rgb(0,0,0)" stroke-width="1" opacity="0.6509803921568628" d="M 797.5 588 L 811 588.5 L 797.5 589 L 797.5 588 Z " /><path fill="rgb(0,0,0)" stroke="rgb(0,0,0)" stroke-width="1" opacity="0.6509803921568628" d="M 816.5 589 L 829 589.5 L 816.5 590 L 816.5 589 Z " /><path fill="rgb(0,0,0)" stroke="rgb(0,0,0)" stroke-width="1" opacity="0.6509803921568628" d="M 381.5 590 L 391 590.5 L 381.5 591 L 381.5 590 Z " /><path fill="rgb(0,0,0)" stroke="rgb(0,0,0)" stroke-width="1" opacity="0.6509803921568628" d="M 833.5 590 L 836 590.5 L 833.5 591 L 833.5 590 Z " /><path fill="rgb(0,0,0)" stroke="rgb(0,0,0)" stroke-width="1" opacity="0.6509803921568628" d="M 366.5 591 L 376 591.5 L 366.5 592 L 366.5 591 Z " /><path fill="rgb(0,0,0)" stroke="rgb(0,0,0)" stroke-width="1" opacity="0.6509803921568628" d="M 822.5 591 L 831 591.5 L 822.5 592 L 822.5 591 Z " /><path fill="rgb(0,0,0)" stroke="rgb(0,0,0)" stroke-width="1" opacity="0.6509803921568628" d="M 351.5 592 L 361 592.5 L 351.5 593 L 351.5 592 Z " /><path fill="rgb(0,0,0)" stroke="rgb(0,0,0)" stroke-width="1" opacity="0.6509803921568628" d="M 808.5 592 L 818 592.5 L 808.5 593 L 808.5 592 Z " /><path fill="rgb(0,0,0)" stroke="rgb(0,0,0)" stroke-width="1" opacity="0.6509803921568628" d="M 836.5 592 L 840.5 597 L 842 597.5 L 840.5 598 L 837 595.5 L 836.5 592 Z " /><path fill="rgb(0,0,0)" stroke="rgb(0,0,0)" stroke-width="1" opacity="0.6509803921568628" d="M 850.5 592 L 851 593.5 L 848.5 597 L 845.5 598 L 845.5 597 L 850 593.5 L 850.5 592 Z " /><path fill="rgb(0,0,0)" stroke="rgb(0,0,0)" stroke-width="1" opacity="0.6509803921568628" d="M 338.5 593 L 348 593.5 L 338.5 594 L 338.5 593 Z " /><path fill="rgb(0,0,0)" stroke="rgb(0,0,0)" stroke-width="1" opacity="0.6509803921568628" d="M 793.5 593 L 803 593.5 L 793.5 594 L 793.5 593 Z " /><path fill="rgb(0,0,0)" stroke="rgb(0,0,0)" stroke-width="1" opacity="0.6509803921568628" d="M 331 594 L 337 594.5 L 332 595 L 328.5 602 L 325.5 603 L 325.5 602 L 330 598.5 L 331 594 Z " /><path fill="rgb(0,0,0)" stroke="rgb(0,0,0)" stroke-width="1" opacity="0.6509803921568628" d="M 778.5 594 L 789 594.5 L 778.5 595 L 778.5 594 Z " /><path fill="rgb(0,0,0)" stroke="rgb(0,0,0)" stroke-width="1" opacity="0.6509803921568628" d="M 342.5 595 L 353 595.5 L 342.5 596 L 342.5 595 Z " /><path fill="rgb(0,0,0)" stroke="rgb(0,0,0)" stroke-width="1" opacity="0.6509803921568628" d="M 650.5 595 L 657 595 L 657 597.5 L 645.5 613 L 630.5 624 L 623.5 626 L 619 621.5 L 619 619.5 Q 627.5 610 631.5 596 L 632 597.5 Q 627.8 610.8 620 620.5 L 625.5 625 Q 640.4 618.4 650 606.5 L 656 596 L 650.5 596 L 650.5 595 Z " /><path fill="rgb(0,0,0)" stroke="rgb(0,0,0)" stroke-width="1" opacity="0.6509803921568628" d="M 670.5 595 L 698.5 595 L 699 597.5 L 698 597.5 L 697.5 596 L 670 596 Q 663.8 613 650.5 624 L 635 634.5 L 654.5 655 L 675 674.5 L 673.5 675 L 634 635.5 L 634 633 Q 649.1 626.3 659 613.5 L 670.5 595 Z " /><path fill="rgb(0,0,0)" stroke="rgb(0,0,0)" stroke-width="1" opacity="0.6509803921568628" d="M 710.5 595 L 739 595.5 L 710.5 596 L 710.5 595 Z " /><path fill="rgb(0,0,0)" stroke="rgb(0,0,0)" stroke-width="1" opacity="0.6509803921568628" d="M 316.5 596 L 320.5 602 L 322 602.5 L 320.5 603 L 316 598.5 L 316.5 596 Z " /><path fill="rgb(0,0,0)" stroke="rgb(0,0,0)" stroke-width="1" opacity="0.6509803921568628" d="M 358.5 596 L 372 596.5 L 358.5 597 L 358.5 596 Z " /><path fill="rgb(0,0,0)" stroke="rgb(0,0,0)" stroke-width="1" opacity="0.6509803921568628" d="M 520.5 596 L 538.5 596 L 539 597.5 L 537.5 597 L 520.5 597 L 520.5 596 Z " /><path fill="rgb(0,0,0)" stroke="rgb(0,0,0)" stroke-width="1" opacity="0.6509803921568628" d="M 547.5 596 L 570.5 596 L 571 597.5 L 571.5 599 L 569.5 597 L 547.5 597 L 547.5 596 Z " /><path fill="rgb(0,0,0)" stroke="rgb(0,0,0)" stroke-width="1" opacity="0.6509803921568628" d="M 599 596 L 610 596.5 L 600.5 597 L 599 598.5 L 599 600.5 L 603.5 605 L 612.5 612 Q 619.7 606.2 622.5 596 L 623 598.5 L 613.5 613 L 610.5 613 L 598 600.5 L 599 596 Z " /><path fill="rgb(0,0,0)" stroke="rgb(0,0,0)" stroke-width="1" opacity="0.6509803921568628" d="M 378.5 597 L 392 597.5 L 378.5 598 L 378.5 597 Z " /><path fill="rgb(0,0,0)" stroke="rgb(0,0,0)" stroke-width="1" opacity="0.6509803921568628" d="M 394.5 597 L 460 597.5 L 394.5 598 L 394.5 597 Z " /><path fill="rgb(0,0,0)" stroke="rgb(0,0,0)" stroke-width="1" opacity="0.6509803921568628" d="M 472.5 597 L 480 597.5 L 472.5 598 L 472.5 597 Z " /><path fill="rgb(0,0,0)" stroke="rgb(0,0,0)" stroke-width="1" opacity="0.6509803921568628" d="M 500.5 597 Q 502.8 596.3 502 598.5 Q 510.1 614.4 523.5 625 L 538 633 L 538 636.5 L 497.5 677 L 522 651.5 L 537 635.5 L 537 634 Q 522.2 627.6 512 615.5 Q 504.2 607 500.5 597 Z " /><path fill="rgb(0,0,0)" stroke="rgb(0,0,0)" stroke-width="1" opacity="0.6509803921568628" d="M 547.5 598 Q 550.9 607.6 558 613.5 L 556.5 614 Q 549.3 607.5 547.5 598 Z " /><path fill="rgb(0,0,0)" stroke="rgb(0,0,0)" stroke-width="1" opacity="0.6509803921568628" d="M 460.5 599 L 461 607.5 L 460 607.5 L 460.5 599 Z " /><path fill="rgb(0,0,0)" stroke="rgb(0,0,0)" stroke-width="1" opacity="0.6509803921568628" d="M 515.5 599 L 529.5 615 L 541.5 623 L 547.5 625 L 551 622.5 L 549 626 L 545.5 626 L 537.5 622 L 522 609.5 L 515 600.5 L 515.5 599 Z " /><path fill="rgb(0,0,0)" stroke="rgb(0,0,0)" stroke-width="1" opacity="0.6509803921568628" d="M 539.5 599 Q 543.5 611.5 551 620.5 L 548 618.5 L 541 606.5 L 539.5 599 Z " /><path fill="rgb(0,0,0)" stroke="rgb(0,0,0)" stroke-width="1" opacity="0.6509803921568628" d="M 709.5 600 L 710 608.5 L 709 608.5 L 709.5 600 Z " /><path fill="rgb(0,0,0)" stroke="rgb(0,0,0)" stroke-width="1" opacity="0.6509803921568628" d="M 571.5 601 L 559.5 614 L 571.5 601 Z " /><path fill="rgb(0,0,0)" stroke="rgb(0,0,0)" stroke-width="1" opacity="0.6509803921568628" d="M 472.5 602 L 473 609.5 L 472 609.5 L 472.5 602 Z " /><path fill="rgb(0,0,0)" stroke="rgb(0,0,0)" stroke-width="1" opacity="0.6509803921568628" d="M 697.5 602 L 698 609.5 L 697 609.5 L 697.5 602 Z " /><path fill="rgb(0,0,0)" stroke="rgb(0,0,0)" stroke-width="1" opacity="0.6509803921568628" d="M 577.5 605 Q 581.3 604.3 582 606.5 L 581.5 628 L 581 606 L 577.5 606 L 571 612.5 L 565 619.5 L 567.5 622 L 580 627.5 L 577.5 628 L 564 621 L 564 618.5 L 577.5 605 Z " /><path fill="rgb(0,0,0)" stroke="rgb(0,0,0)" stroke-width="1" opacity="0.6509803921568628" d="M 589 605 L 593.5 605 L 606 617.5 L 604.5 621 L 592.5 627 L 589 627 L 589 605 Z M 590 606 L 590 626 L 603 621 L 605 618 L 594 606 L 590 606 Z " /><path fill="rgb(0,0,0)" stroke="rgb(0,0,0)" stroke-width="1" opacity="0.6509803921568628" d="M 461.5 610 L 462 615.5 L 461 615.5 L 461.5 610 Z " /><path fill="rgb(0,0,0)" stroke="rgb(0,0,0)" stroke-width="1" opacity="0.6509803921568628" d="M 708.5 611 L 709 616.5 L 708 616.5 L 708.5 611 Z " /><path fill="rgb(0,0,0)" stroke="rgb(0,0,0)" stroke-width="1" opacity="0.6509803921568628" d="M 473.5 612 L 474 617.5 L 473 617.5 L 473.5 612 Z " /><path fill="rgb(0,0,0)" stroke="rgb(0,0,0)" stroke-width="1" opacity="0.6509803921568628" d="M 696.5 612 L 697 617.5 L 696 617.5 L 696.5 612 Z " /><path fill="rgb(0,0,0)" stroke="rgb(0,0,0)" stroke-width="1" opacity="0.6509803921568628" d="M 462.5 618 L 463 622.5 L 462 622.5 L 462.5 618 Z " /><path fill="rgb(0,0,0)" stroke="rgb(0,0,0)" stroke-width="1" opacity="0.6509803921568628" d="M 707.5 618 L 708 623.5 L 707 623.5 L 707.5 618 Z " /><path fill="rgb(0,0,0)" stroke="rgb(0,0,0)" stroke-width="1" opacity="0.6509803921568628" d="M 474.5 619 L 475 623.5 L 474 623.5 L 474.5 619 Z " /><path fill="rgb(0,0,0)" stroke="rgb(0,0,0)" stroke-width="1" opacity="0.6509803921568628" d="M 695.5 619 L 696 623.5 L 695 623.5 L 695.5 619 Z " /><path fill="rgb(0,0,0)" stroke="rgb(0,0,0)" stroke-width="1" opacity="0.6509803921568628" d="M 463.5 624 L 464 627.5 L 463 627.5 L 463.5 624 Z " /><path fill="rgb(0,0,0)" stroke="rgb(0,0,0)" stroke-width="1" opacity="0.6509803921568628" d="M 475.5 625 L 477 632.5 L 476 632.5 L 475.5 625 Z " /><path fill="rgb(0,0,0)" stroke="rgb(0,0,0)" stroke-width="1" opacity="0.6509803921568628" d="M 694.5 625 L 695 628.5 L 694 628.5 L 694.5 625 Z " /><path fill="rgb(0,0,0)" stroke="rgb(0,0,0)" stroke-width="1" opacity="0.6509803921568628" d="M 706.5 625 L 707 628.5 L 706 628.5 L 706.5 625 Z " /><path fill="rgb(0,0,0)" stroke="rgb(0,0,0)" stroke-width="1" opacity="0.6509803921568628" d="M 612.5 626 Q 616.9 624.5 616 627.5 L 614.5 627 L 611.5 628 L 612.5 626 Z " /><path fill="rgb(0,0,0)" stroke="rgb(0,0,0)" stroke-width="1" opacity="0.6509803921568628" d="M 464.5 629 L 466 636.5 L 465 636.5 L 464.5 629 Z " /><path fill="rgb(0,0,0)" stroke="rgb(0,0,0)" stroke-width="1" opacity="0.6509803921568628" d="M 612.5 629 L 615 629.5 L 612.5 630 L 612.5 629 Z " /><path fill="rgb(0,0,0)" stroke="rgb(0,0,0)" stroke-width="1" opacity="0.6509803921568628" d="M 693.5 630 L 694 633.5 L 687 655.5 L 676.5 675 L 677 673.5 L 688 650.5 L 693.5 630 Z " /><path fill="rgb(0,0,0)" stroke="rgb(0,0,0)" stroke-width="1" opacity="0.6509803921568628" d="M 705.5 630 L 706 633.5 Q 699.1 662.6 685 684.5 L 731 729.5 L 767 770.5 L 761.5 766 L 723.5 734 L 680 691.5 L 681.5 691 Q 714.5 727.3 753 757 L 735 735.5 L 684 684.5 L 684 682.5 Q 699.6 661.1 705.5 630 Z " /><path fill="rgb(0,0,0)" stroke="rgb(0,0,0)" stroke-width="1" opacity="0.6509803921568628" d="M 477.5 634 Q 483.1 658.9 496 676.5 L 493 674.5 L 481 649.5 L 477 636.5 L 477.5 634 Z " /><path fill="rgb(0,0,0)" stroke="rgb(0,0,0)" stroke-width="1" opacity="0.6509803921568628" d="M 466.5 638 L 468 643.5 L 467 643.5 L 466.5 638 Z " /><path fill="rgb(0,0,0)" stroke="rgb(0,0,0)" stroke-width="1" opacity="0.6509803921568628" d="M 544 638 L 546 638.5 L 502 684.5 L 515.5 699 L 526.5 707 L 548.5 719 L 562.5 724 L 582 728 L 582.5 689 L 583 777.5 L 582 777.5 L 582 729.5 L 579.5 729 L 553.5 722 L 536.5 714 Q 518.9 705.1 506 691.5 L 501 685.5 L 501 682.5 L 544 639.5 L 544 638 Z " /><path fill="rgb(0,0,0)" stroke="rgb(0,0,0)" stroke-width="1" opacity="0.6509803921568628" d="M 547.5 638 L 550 638.5 L 547.5 639 L 547.5 638 Z " /><path fill="rgb(0,0,0)" stroke="rgb(0,0,0)" stroke-width="1" opacity="0.6509803921568628" d="M 623.5 638 L 627.5 638 L 671 680.5 L 670 685.5 L 653.5 702 L 633.5 715 L 618.5 722 L 610.5 724 L 610.5 723 Q 644.7 712.2 666 688.5 L 670 683.5 L 670 681.5 L 626.5 639 L 623.5 639 L 620.5 640 L 620.5 639 L 623.5 638 Z " /><path fill="rgb(0,0,0)" stroke="rgb(0,0,0)" stroke-width="1" opacity="0.6509803921568628" d="M 551.5 639 L 554 639.5 L 551.5 640 L 551.5 639 Z " /><path fill="rgb(0,0,0)" stroke="rgb(0,0,0)" stroke-width="1" opacity="0.6509803921568628" d="M 555.5 640 L 559 640.5 L 555.5 641 L 555.5 640 Z " /><path fill="rgb(0,0,0)" stroke="rgb(0,0,0)" stroke-width="1" opacity="0.6509803921568628" d="M 616.5 640 L 619 640.5 L 616.5 641 L 616.5 640 Z " /><path fill="rgb(0,0,0)" stroke="rgb(0,0,0)" stroke-width="1" opacity="0.6509803921568628" d="M 560.5 641 L 566 641.5 L 560.5 642 L 560.5 641 Z " /><path fill="rgb(0,0,0)" stroke="rgb(0,0,0)" stroke-width="1" opacity="0.6509803921568628" d="M 577.5 641 L 582 641 L 582 648.5 L 581 648.5 L 581 642 L 577.5 642 L 577.5 641 Z " /><path fill="rgb(0,0,0)" stroke="rgb(0,0,0)" stroke-width="1" opacity="0.6509803921568628" d="M 611.5 641 L 615 641.5 L 611.5 642 L 611.5 641 Z " /><path fill="rgb(0,0,0)" stroke="rgb(0,0,0)" stroke-width="1" opacity="0.6509803921568628" d="M 589 642 L 593 642.5 L 590 643 L 589.5 687 L 589 642 Z " /><path fill="rgb(0,0,0)" stroke="rgb(0,0,0)" stroke-width="1" opacity="0.6509803921568628" d="M 603.5 642 L 610 642.5 L 603.5 643 L 603.5 642 Z " /><path fill="rgb(0,0,0)" stroke="rgb(0,0,0)" stroke-width="1" opacity="0.6509803921568628" d="M 468.5 645 L 474 660.5 Q 479.2 674.3 488 684.5 L 488 687.5 Q 451.5 720.5 421 759.5 L 423.5 758 Q 460.1 728.1 491.5 693 L 468 717.5 L 450.5 736 L 407 774.5 Q 411.1 776.4 410 783.5 L 406.5 788 L 399.5 789 L 395 785.5 L 394 779.5 L 396 775 L 403.5 773 L 403.5 774 Q 397.3 773.3 396 777.5 L 395 783.5 L 397 787 Q 399.1 788.6 404.5 788 L 409 783.5 L 409 778.5 L 407 775 L 405 774.5 L 411 769.5 L 443 731.5 L 487 685.5 L 476 667.5 L 468 647.5 L 468.5 645 Z " /><path fill="rgb(0,0,0)" stroke="rgb(0,0,0)" stroke-width="1" opacity="0.6509803921568628" d="M 678.5 691 L 679 692.5 L 666.5 706 L 649.5 719 Q 639.6 725.1 625.5 727 L 625.5 726 Q 640.7 724.2 650.5 717 Q 665 707.5 676 694.5 L 678.5 691 Z " /><path fill="rgb(0,0,0)" stroke="rgb(0,0,0)" stroke-width="1" opacity="0.6509803921568628" d="M 493.5 693 Q 505.8 707.7 522.5 718 Q 532.2 724.3 546 726.5 L 542.5 727 L 523.5 720 Q 507.7 710.8 496 697.5 L 493.5 693 Z " /><path fill="rgb(0,0,0)" stroke="rgb(0,0,0)" stroke-width="1" opacity="0.6509803921568628" d="M 606.5 724 L 609 724.5 L 598.5 727 L 598.5 726 L 606.5 724 Z " /><path fill="rgb(0,0,0)" stroke="rgb(0,0,0)" stroke-width="1" opacity="0.6509803921568628" d="M 547.5 727 L 551 727.5 L 547.5 728 L 547.5 727 Z " /><path fill="rgb(0,0,0)" stroke="rgb(0,0,0)" stroke-width="1" opacity="0.6509803921568628" d="M 590.5 727 L 592.5 727 L 597 727.5 L 591 729 L 590.5 794 L 590.5 727 Z " /><path fill="rgb(0,0,0)" stroke="rgb(0,0,0)" stroke-width="1" opacity="0.6509803921568628" d="M 620.5 727 L 624 727.5 L 620.5 728 L 620.5 727 Z " /><path fill="rgb(0,0,0)" stroke="rgb(0,0,0)" stroke-width="1" opacity="0.6509803921568628" d="M 552.5 728 L 558 728.5 L 552.5 729 L 552.5 728 Z " /><path fill="rgb(0,0,0)" stroke="rgb(0,0,0)" stroke-width="1" opacity="0.6509803921568628" d="M 612.5 728 L 619 728.5 L 612.5 729 L 612.5 728 Z " /><path fill="rgb(0,0,0)" stroke="rgb(0,0,0)" stroke-width="1" opacity="0.6509803921568628" d="M 562.5 729 L 575 729.5 L 562.5 730 L 562.5 729 Z " /><path fill="rgb(0,0,0)" stroke="rgb(0,0,0)" stroke-width="1" opacity="0.6509803921568628" d="M 598.5 729 L 608 729.5 L 598.5 730 L 598.5 729 Z " /><path fill="rgb(0,0,0)" stroke="rgb(0,0,0)" stroke-width="1" opacity="0.6509803921568628" d="M 771.5 769 L 774 769.5 L 771.5 770 L 771.5 769 Z " /><path fill="rgb(0,0,0)" stroke="rgb(0,0,0)" stroke-width="1" opacity="0.6509803921568628" d="M 775.5 770 L 779 772.5 L 780 775.5 L 779 775.5 L 778 772 L 775.5 770 Z " /><path fill="rgb(0,0,0)" stroke="rgb(0,0,0)" stroke-width="1" opacity="0.6509803921568628" d="M 766.5 772 L 767 773.5 L 765.5 776 L 765 773.5 L 766.5 772 Z " /><path fill="rgb(0,0,0)" stroke="rgb(0,0,0)" stroke-width="1" opacity="0.6509803921568628" d="M 779.5 778 L 780 780.5 L 775.5 785 L 773.5 785 L 773.5 784 Q 778.5 784.5 779 780.5 L 779.5 778 Z " /><path fill="rgb(0,0,0)" stroke="rgb(0,0,0)" stroke-width="1" opacity="0.6509803921568628" d="M 765.5 779 L 769.5 784 L 771 784.5 L 769.5 785 L 766 782.5 L 765.5 779 Z " /><path fill="rgb(0,0,0)" stroke="rgb(0,0,0)" stroke-width="1" opacity="0.6509803921568628" d="M 583.5 789 L 584 799.5 L 583 799.5 L 583.5 789 Z " /><path fill="rgb(0,0,0)" stroke="rgb(0,0,0)" stroke-width="1" opacity="0.6509803921568628" d="M 589.5 800 L 590 812.5 L 589 812.5 L 589.5 800 Z " /><path fill="rgb(0,0,0)" stroke="rgb(0,0,0)" stroke-width="1" opacity="0.6509803921568628" d="M 584.5 804 L 585 813.5 L 584 813.5 L 584.5 804 Z " /><path fill="rgb(0,0,0)" stroke="rgb(0,0,0)" stroke-width="1" opacity="0.6509803921568628" d="M 585.5 818 L 586 827.5 L 585 827.5 L 585.5 818 Z " /><path fill="rgb(0,0,0)" stroke="rgb(0,0,0)" stroke-width="1" opacity="0.6509803921568628" d="M 588.5 819 L 589 831.5 L 588 831.5 L 588.5 819 Z " /><path fill="rgb(0,0,0)" stroke="rgb(0,0,0)" stroke-width="1" opacity="0.6509803921568628" d="M 586.5 832 Q 589.3 837.4 588 846 L 590 846.5 L 586.5 847 L 587 845.5 L 586.5 832 Z " /><path fill="rgb(0,0,0)" stroke="rgb(0,0,0)" stroke-width="1" opacity="0.6509803921568628" d="M 584.5 847 L 581 851.5 Q 580 858 583.5 860 L 590.5 861 Q 594.9 858.9 595 852.5 L 591 847.5 L 592.5 848 Q 594.8 847.3 594 849.5 Q 596.6 850.9 596 855.5 L 592.5 861 L 585.5 862 L 581 858.5 L 580 851.5 L 582.5 848 L 584.5 847 Z " /><path fill="rgb(0,0,0)" stroke="rgb(0,0,0)" stroke-width="1" opacity="1" d="M 581.5 327 L 585.5 327 L 590 331.5 L 591 334.5 L 586.5 341 L 582.5 342 L 577 337.5 L 576 332.5 L 579.5 328 L 581.5 327 Z " /><path fill="rgb(0,0,0)" stroke="rgb(0,0,0)" stroke-width="1" opacity="1" d="M 583.5 345 L 585 371.5 L 586 372.5 L 586 386.5 L 587 387.5 L 588 466 L 611.5 468 L 632.5 474 L 649.5 482 L 670.5 498 L 673.5 498 L 721.5 449 L 752.5 422 L 747 428.5 L 727 452.5 L 678 502.5 L 678 505.5 Q 694.4 521.6 703 545.5 L 708 563.5 L 710 588 L 777.5 588 L 778.5 587 L 779.5 588 L 796.5 588 L 797.5 589 L 815.5 589 L 816.5 590 L 833 590.5 L 822.5 591 L 821.5 592 L 808.5 592 L 807.5 593 L 793.5 593 L 792.5 594 L 778.5 594 L 777.5 595 L 710 595 L 707 624.5 L 703 641.5 L 696 661.5 L 684 684.5 Q 723.8 721.2 759 762.5 L 752.5 757 Q 714.2 726.8 681.5 691 L 678.5 691 L 662.5 708 Q 650.7 719.7 632.5 725 L 611.5 729 L 593.5 729 L 593.5 728 Q 616.8 724.8 633.5 715 L 653.5 702 L 670 685.5 L 671 680.5 L 627.5 638 L 623.5 638 L 610.5 642 L 593.5 643 L 589 642 L 589 686.5 L 590 687.5 L 590 799.5 L 589 800.5 L 589 818.5 L 588 819.5 L 587.5 836 L 586 831.5 L 584 789.5 L 583 788.5 L 583 689.5 L 582 688.5 L 582 641 L 576.5 642 L 566.5 642 L 549.5 638 L 544 638 L 544 639.5 L 501 682.5 L 501 685.5 L 511.5 697 L 524.5 707 L 548.5 720 Q 562 726 579 728.5 L 558.5 729 L 538.5 725 L 527.5 721 L 513.5 712 L 493.5 693 L 491.5 693 Q 455.5 731.5 415.5 766 L 421 759.5 Q 451.5 720.5 488 687.5 L 488 684.5 L 482 676.5 L 468 644.5 L 463 623.5 L 462 610.5 L 461 609.5 L 461 599.5 L 460 597 L 394.5 597 L 392.5 598 L 391.5 597 L 372.5 597 L 371.5 596 L 353.5 596 L 352.5 595 L 337 594.5 L 347.5 594 L 348.5 593 L 360.5 593 L 361.5 592 L 375.5 592 L 376.5 591 L 390.5 591 L 391.5 590 L 460 590 L 461 570.5 L 467 546.5 L 476 527.5 L 491 507.5 L 491 504.5 L 442 456.5 L 414 425.5 L 415.5 426 L 446.5 452 L 495.5 500 L 498.5 500 Q 512.5 485.5 532.5 477 L 558.5 469 L 581 467 L 580 394.5 L 581 393.5 L 581 375.5 L 582 374.5 L 582 357.5 L 583 356.5 L 583.5 345 Z M 572 479 Q 548 484 534 498 L 521 512 L 517 518 L 517 522 L 547 550 L 549 550 L 550 548 L 562 539 L 563 539 L 561 540 L 550 552 L 550 554 L 575 578 L 582 576 L 582 560 L 581 559 L 581 480 L 581 479 L 572 479 Z M 588 479 L 588 557 L 589 558 L 589 576 L 596 578 L 620 553 L 619 549 L 609 539 L 608 537 L 618 544 L 621 549 L 624 549 L 652 521 L 651 516 L 644 507 Q 633 495 619 487 L 603 481 L 588 479 Z M 651 497 L 651 500 L 658 509 L 662 510 Q 665 510 664 506 L 654 497 L 651 497 Z M 512 502 L 507 506 L 505 510 L 509 511 L 514 505 Q 515 501 512 502 Z M 669 512 L 665 516 L 665 520 L 673 538 L 676 552 L 676 561 L 677 562 L 676 576 L 673 586 L 674 588 L 699 588 L 697 564 L 692 547 Q 685 527 672 514 L 669 512 Z M 499 515 Q 487 526 480 543 L 474 561 L 472 571 L 472 580 L 471 581 L 471 590 L 498 590 L 495 581 L 494 568 L 493 567 L 495 545 L 500 528 L 504 521 L 504 518 Q 503 514 499 515 Z M 655 526 L 627 555 L 633 573 L 633 589 L 662 588 L 665 576 L 665 552 L 663 542 L 658 528 L 655 526 Z M 512 527 L 507 541 L 505 551 L 505 575 L 508 587 L 511 590 L 537 589 L 537 575 L 540 564 L 543 559 L 543 556 L 515 527 L 512 527 Z M 623 559 L 599 583 L 600 586 L 601 589 L 626 589 L 627 588 Q 625 581 628 580 L 627 566 L 625 561 Q 626 558 623 559 Z M 545 560 L 542 574 L 543 588 L 545 589 L 570 589 L 571 583 L 548 560 L 545 560 Z M 651 595 L 650 596 L 631 596 Q 628 610 619 620 L 619 622 L 624 626 L 631 624 L 646 613 L 657 598 L 657 595 L 651 595 Z M 671 595 L 659 614 Q 649 625 636 633 Q 633 632 634 636 L 674 675 L 677 675 Q 686 662 691 645 L 696 624 L 697 611 L 698 610 L 698 599 L 699 598 L 699 595 L 671 595 Z M 521 596 L 515 597 L 515 601 L 522 610 L 538 622 L 546 626 L 549 626 L 551 623 L 551 620 Q 543 611 539 599 L 539 596 L 521 596 Z M 547 596 Q 549 607 557 614 L 560 614 L 572 602 L 571 598 L 571 596 L 547 596 Z M 599 596 L 598 601 L 611 613 L 614 613 L 623 599 L 623 596 L 599 596 Z M 472 597 L 473 618 L 478 641 Q 484 659 493 675 Q 494 678 498 677 L 538 637 L 538 633 L 524 625 Q 510 614 502 599 L 502 597 L 472 597 Z M 578 605 L 564 619 L 564 621 L 578 628 Q 582 628 582 628 L 582 607 Q 581 604 578 605 Z M 589 605 L 589 627 L 593 627 L 605 621 L 606 618 L 594 605 L 589 605 Z M 613 626 L 611 630 Q 615 631 616 629 Q 617 624 613 626 Z " /><path fill="rgb(0,0,0)" stroke="rgb(0,0,0)" stroke-width="1" opacity="1" d="M 764.5 401 L 768.5 401 L 773 405.5 Q 774 412 770.5 414 L 763.5 415 L 760 414 L 759 406.5 L 762.5 402 L 764.5 401 Z " /><path fill="rgb(0,0,0)" stroke="rgb(0,0,0)" stroke-width="1" opacity="1" d="M 399.5 404 L 403.5 404 L 407 406 Q 408.6 408.1 408 413.5 L 407 417 L 398.5 418 Q 394.1 415.9 394 409.5 L 397.5 405 L 399.5 404 Z " /><path fill="rgb(0,0,0)" stroke="rgb(0,0,0)" stroke-width="1" opacity="1" d="M 842.5 583 Q 848.1 583.5 850 587.5 L 851 591.5 L 846.5 597 L 842.5 598 L 837 593.5 L 836 589.5 L 840.5 584 L 842.5 583 Z " /><path fill="rgb(0,0,0)" stroke="rgb(0,0,0)" stroke-width="1" opacity="1" d="M 322.5 588 Q 328.7 587.3 330 591.5 L 331 596.5 L 326.5 602 L 322.5 603 L 317 598.5 L 316 595.5 L 320.5 589 L 322.5 588 Z " /><path fill="rgb(0,0,0)" stroke="rgb(0,0,0)" stroke-width="1" opacity="1" d="M 770.5 770 L 774.5 770 L 778 772 L 780 777.5 L 775.5 784 L 771.5 785 L 766 780.5 L 765 776.5 L 767 771 L 770.5 770 Z " /><path fill="rgb(0,0,0)" stroke="rgb(0,0,0)" stroke-width="1" opacity="1" d="M 400.5 774 L 407 775 L 409 778.5 L 409 783.5 L 404.5 788 L 399.5 788 L 397 787 L 395 783.5 L 395 779.5 L 398.5 775 L 400.5 774 Z " /><path fill="rgb(0,0,0)" stroke="rgb(0,0,0)" stroke-width="1" opacity="1" d="M 585.5 847 Q 592.8 845.8 594 850.5 L 595 855.5 L 590.5 861 Q 584 862 582 858.5 L 581 851.5 L 585.5 847 Z " /></svg>