<svg width="1181" height="1181" version="1.1" xmlns="http://www.w3.org/2000/svg" desc="Created with imagetracer.js version 1.2.6" ><path fill="rgb(0,0,0)" stroke="rgb(0,0,0)" stroke-width="1" opacity="0" d="M 0 0 L 1181 0 L 1181 1181 L 0 1181 L 0 0 Z M 596 290 L 536 445 L 383 369 L 381 369 L 453 528 L 290 585 L 446 644 L 451 645 L 451 648 L 376 803 L 530 731 L 533 731 L 585 890 L 589 896 L 645 739 L 649 732 L 802 809 L 803 809 L 731 649 L 893 593 L 739 534 L 732 531 L 801 380 L 673 443 L 673 444 L 787 394 L 721 527 Q 710 506 695 490 Q 678 471 655 459 L 632 450 L 607 445 L 578 445 L 577 446 L 570 446 L 560 448 L 547 452 L 594 312 L 596 310 L 638 430 L 639 430 L 639 427 L 596 290 Z M 592 400 L 588 402 L 583 410 L 584 417 L 592 423 L 601 422 L 606 415 L 605 406 Q 603 398 592 400 Z M 640 430 L 639 433 L 640 433 L 640 430 Z M 641 433 L 640 436 L 641 436 L 641 433 Z M 714 455 L 710 457 L 705 463 Q 704 471 707 475 L 712 478 Q 719 480 723 477 L 727 472 Q 729 464 726 461 L 719 455 L 714 455 Z " /><path fill="rgb(0,0,0)" stroke="rgb(0,0,0)" stroke-width="1" opacity="0" d="M 407.5 395 L 532 457.5 Q 505.7 470.7 487 491.5 Q 473.9 505.4 465.5 524 L 461 516.5 L 410 403.5 L 407.5 395 Z M 469 452 L 467 453 L 461 461 L 461 466 L 464 472 L 471 475 L 475 475 L 481 472 L 484 466 L 483 458 Q 480 450 469 452 Z " /><path fill="rgb(0,0,0)" stroke="rgb(0,0,0)" stroke-width="1" opacity="0" d="M 591.5 453 L 609.5 455 L 627.5 461 Q 647.7 470.3 661 486.5 L 670 499.5 L 682 528.5 L 685 543.5 L 685.5 565 L 688 553.5 L 689 537.5 L 688 536.5 L 688 525.5 L 686 515.5 L 682 504.5 Q 673.1 484.9 658 471.5 L 659.5 472 Q 677.9 482.1 691 497.5 L 708 521.5 L 718 543.5 L 726 571.5 L 727 587.5 L 728 588.5 L 728 604.5 L 727 605.5 L 727 613.5 L 728 613.5 L 730 595.5 L 731 594.5 L 731 568.5 L 730 567.5 L 729 554.5 L 726 543 L 856 591.5 L 849.5 595 L 723.5 638 L 714 642.5 L 777 781.5 L 775.5 782 L 652 719.5 Q 675.5 707 692 687.5 L 704 670.5 L 701 672.5 L 690.5 685 Q 670.7 704.2 642.5 715 Q 641 712.5 639.5 716 L 628.5 720 L 610.5 724 L 582.5 725 L 555.5 720 L 543.5 716 L 539.5 713 L 536.5 713 Q 510.8 700.7 493 680.5 L 477 658.5 L 465 631.5 L 459 602.5 L 459 574.5 L 464 549.5 L 477 519.5 Q 488.6 499.6 505.5 485 L 517.5 476 L 516 478.5 Q 504.3 491.8 497 509.5 L 492 526.5 L 490 550.5 L 491 551.5 L 492 567.5 L 499 589.5 Q 509.3 612.2 527.5 627 Q 541.5 638.5 560.5 645 L 578.5 649 L 602.5 649 L 617.5 646 L 634.5 639 Q 649.4 630.4 660 617.5 L 668 605.5 L 663 609.5 L 660.5 613 Q 642.3 630.3 614.5 638 L 614 636.5 Q 620.1 631.6 623 623.5 L 616.5 629 Q 607.9 634.4 596.5 637 L 581.5 637 Q 567.4 633.1 560 622.5 L 555 612.5 L 553 599.5 L 555 588.5 Q 558.9 578.4 566.5 572 Q 575.3 562.8 594.5 564 Q 611.3 567.2 619 579.5 L 628 599.5 L 628.5 611 L 632 597.5 L 632 589.5 Q 628 572.5 615.5 564 Q 608.2 558.3 597.5 556 L 581.5 556 Q 565 559.5 556 570.5 Q 549.2 578.2 546 589.5 L 545 606.5 Q 548.2 624.8 560 634.5 L 557.5 635 Q 533.9 625.1 519 606.5 Q 507.8 592.7 502 573.5 L 499 558.5 L 499 535.5 Q 505.8 495.8 531.5 475 Q 543 465 558.5 459 L 571.5 455 L 590.5 454 L 591.5 453 Z M 685 565 L 684 569 L 685 569 L 685 565 Z M 760 581 L 758 582 Q 753 585 752 591 L 753 598 Q 755 603 762 604 Q 768 605 771 602 L 775 596 L 774 587 Q 771 579 760 581 Z M 727 614 L 726 619 L 727 619 L 727 614 Z M 726 620 L 725 623 L 726 623 L 726 620 Z M 706 667 L 704 670 L 706 669 L 706 667 Z M 713 703 L 708 705 L 702 713 L 703 721 L 709 726 L 713 727 Q 719 727 722 724 L 725 719 L 724 710 Q 721 703 713 703 Z " /><path fill="rgb(0,0,0)" stroke="rgb(0,0,0)" stroke-width="1" opacity="0" d="M 457.5 539 Q 459.8 538.3 459 540.5 L 455 550.5 L 452 564.5 L 450 593.5 L 451 594.5 L 452 613.5 L 457 634 L 327 585.5 L 328.5 584 L 391.5 563 L 457.5 539 Z M 420 574 L 418 575 Q 412 577 411 584 Q 410 590 413 593 L 419 597 Q 425 598 429 596 L 434 590 Q 435 582 432 579 Q 429 573 420 574 Z " /><path fill="rgb(0,0,0)" stroke="rgb(0,0,0)" stroke-width="1" opacity="0" d="M 463.5 650 Q 476 678 497.5 697 L 520.5 714 L 528 717 Q 529.1 719.7 526.5 719 L 402.5 777 L 403 775.5 L 463.5 650 Z M 470 698 L 465 700 L 460 706 Q 459 713 461 717 Q 464 721 470 722 L 478 720 L 482 715 Q 484 707 481 704 Q 478 698 470 698 Z " /><path fill="rgb(0,0,0)" stroke="rgb(0,0,0)" stroke-width="1" opacity="0" d="M 544 725 L 570.5 732 Q 576.7 730.3 578.5 733 L 605.5 733 L 606.5 732 L 623.5 730 L 635.5 726 L 636 728.5 L 588.5 858 L 544 725 Z M 589 753 L 585 755 L 580 763 Q 579 770 583 773 L 589 776 Q 596 777 599 774 L 603 768 L 602 759 Q 600 751 589 753 Z " /><path fill="rgb(0,0,0)" stroke="rgb(0,0,0)" stroke-width="1" opacity="0.7137254901960784" d="M 595.5 290 L 599 300.5 L 598 300.5 L 595.5 292 L 584.5 320 L 584 318.5 L 595.5 290 Z " /><path fill="rgb(0,0,0)" stroke="rgb(0,0,0)" stroke-width="1" opacity="0.7137254901960784" d="M 599.5 302 L 604 316.5 L 603 316.5 L 599 304.5 L 599.5 302 Z " /><path fill="rgb(0,0,0)" stroke="rgb(0,0,0)" stroke-width="1" opacity="0.7137254901960784" d="M 596.5 310 L 623.5 385 L 624.5 382 L 629 396.5 L 628 398.5 L 630 398.5 L 642 437.5 L 641 437.5 L 600 323.5 L 596.5 310 Z M 625 385 L 624 388 L 625 388 L 625 385 Z M 626 388 L 625 391 L 626 391 L 626 388 Z M 627 391 L 626 394 L 627 394 L 627 391 Z " /><path fill="rgb(0,0,0)" stroke="rgb(0,0,0)" stroke-width="1" opacity="0.7137254901960784" d="M 592.5 315 L 593 316.5 L 580.5 352 L 580 350.5 L 592.5 315 Z " /><path fill="rgb(0,0,0)" stroke="rgb(0,0,0)" stroke-width="1" opacity="0.7137254901960784" d="M 604.5 318 L 609 332.5 L 608 332.5 L 604 320.5 L 604.5 318 Z " /><path fill="rgb(0,0,0)" stroke="rgb(0,0,0)" stroke-width="1" opacity="0.7137254901960784" d="M 583.5 321 L 584 322.5 L 537 446 L 534.5 446 L 383.5 370 L 383 371.5 L 453 526.5 L 452 526.5 L 381 368.5 L 382.5 369 L 536 445 L 583.5 321 Z " /><path fill="rgb(0,0,0)" stroke="rgb(0,0,0)" stroke-width="1" opacity="0.7137254901960784" d="M 609.5 334 L 614 348.5 L 613 348.5 L 609 336.5 L 609.5 334 Z " /><path fill="rgb(0,0,0)" stroke="rgb(0,0,0)" stroke-width="1" opacity="0.7137254901960784" d="M 614.5 350 L 619 364.5 L 618 364.5 L 614 352.5 L 614.5 350 Z " /><path fill="rgb(0,0,0)" stroke="rgb(0,0,0)" stroke-width="1" opacity="0.7137254901960784" d="M 579.5 353 L 580 354.5 L 567.5 390 L 567 388.5 L 579.5 353 Z " /><path fill="rgb(0,0,0)" stroke="rgb(0,0,0)" stroke-width="1" opacity="0.7137254901960784" d="M 619.5 366 L 624 380.5 L 623 380.5 L 619 368.5 L 619.5 366 Z " /><path fill="rgb(0,0,0)" stroke="rgb(0,0,0)" stroke-width="1" opacity="0.7137254901960784" d="M 799.5 380 Q 801.8 379.3 801 381.5 L 732.5 530 L 732 528.5 L 799 382 L 717 422.5 L 719.5 423 L 782.5 394 L 788 393 L 788 395.5 L 721.5 527 L 721 525.5 L 787 394 L 664.5 448 L 664.5 447 L 799.5 380 Z " /><path fill="rgb(0,0,0)" stroke="rgb(0,0,0)" stroke-width="1" opacity="0.7137254901960784" d="M 566.5 391 L 567 392.5 L 554.5 428 L 554 426.5 L 566.5 391 Z " /><path fill="rgb(0,0,0)" stroke="rgb(0,0,0)" stroke-width="1" opacity="0.7137254901960784" d="M 408.5 395 L 532 456.5 L 530.5 457 L 408.5 396 L 408.5 395 Z " /><path fill="rgb(0,0,0)" stroke="rgb(0,0,0)" stroke-width="1" opacity="0.7137254901960784" d="M 407.5 397 L 465 523.5 L 463 522.5 L 408 401.5 L 407.5 397 Z " /><path fill="rgb(0,0,0)" stroke="rgb(0,0,0)" stroke-width="1" opacity="0.7137254901960784" d="M 596.5 400 Q 602.9 400.7 605 405.5 L 606 409.5 L 605 409.5 Q 604.6 404 600.5 402 L 596.5 401 L 596.5 400 Z " /><path fill="rgb(0,0,0)" stroke="rgb(0,0,0)" stroke-width="1" opacity="0.7137254901960784" d="M 589.5 401 L 585 406.5 L 584.5 408 L 584 406.5 L 587.5 402 L 589.5 401 Z " /><path fill="rgb(0,0,0)" stroke="rgb(0,0,0)" stroke-width="1" opacity="0.7137254901960784" d="M 583.5 409 L 584 412.5 L 583 412.5 L 583.5 409 Z " /><path fill="rgb(0,0,0)" stroke="rgb(0,0,0)" stroke-width="1" opacity="0.7137254901960784" d="M 584.5 414 Q 585 419.5 589.5 421 L 598 422.5 L 591.5 423 L 584 416.5 L 584.5 414 Z " /><path fill="rgb(0,0,0)" stroke="rgb(0,0,0)" stroke-width="1" opacity="0.7137254901960784" d="M 604.5 416 L 605 417.5 L 599.5 422 L 600.5 420 L 603 418.5 L 604.5 416 Z " /><path fill="rgb(0,0,0)" stroke="rgb(0,0,0)" stroke-width="1" opacity="0.7137254901960784" d="M 552.5 432 L 553 433.5 L 547 452 L 562.5 448 L 562.5 449 L 546 453 L 546 449.5 L 552.5 432 Z " /><path fill="rgb(0,0,0)" stroke="rgb(0,0,0)" stroke-width="1" opacity="0.7137254901960784" d="M 577.5 445 L 585 445.5 L 577.5 446 L 577.5 445 Z " /><path fill="rgb(0,0,0)" stroke="rgb(0,0,0)" stroke-width="1" opacity="0.7137254901960784" d="M 599.5 445 L 607 445.5 L 599.5 446 L 599.5 445 Z " /><path fill="rgb(0,0,0)" stroke="rgb(0,0,0)" stroke-width="1" opacity="0.7137254901960784" d="M 569.5 446 L 574 446.5 L 569.5 447 L 569.5 446 Z " /><path fill="rgb(0,0,0)" stroke="rgb(0,0,0)" stroke-width="1" opacity="0.7137254901960784" d="M 609.5 446 L 615 446.5 L 609.5 447 L 609.5 446 Z " /><path fill="rgb(0,0,0)" stroke="rgb(0,0,0)" stroke-width="1" opacity="0.7137254901960784" d="M 564.5 447 L 568 447.5 L 564.5 448 L 564.5 447 Z " /><path fill="rgb(0,0,0)" stroke="rgb(0,0,0)" stroke-width="1" opacity="0.7137254901960784" d="M 616.5 447 L 620 447.5 L 616.5 448 L 616.5 447 Z " /><path fill="rgb(0,0,0)" stroke="rgb(0,0,0)" stroke-width="1" opacity="0.7137254901960784" d="M 621.5 448 L 624 448.5 L 621.5 449 L 621.5 448 Z " /><path fill="rgb(0,0,0)" stroke="rgb(0,0,0)" stroke-width="1" opacity="0.7137254901960784" d="M 625.5 449 L 628 449.5 L 625.5 450 L 625.5 449 Z " /><path fill="rgb(0,0,0)" stroke="rgb(0,0,0)" stroke-width="1" opacity="0.7137254901960784" d="M 629.5 450 Q 670.4 461.6 695 489.5 Q 710 505.5 720 526.5 L 718 527 L 718 524.5 L 708 507.5 Q 696.6 490.9 681.5 478 L 661.5 464 Q 647.6 455.4 629.5 451 L 629.5 450 Z " /><path fill="rgb(0,0,0)" stroke="rgb(0,0,0)" stroke-width="1" opacity="0.7137254901960784" d="M 468.5 452 L 470 452.5 L 464 456.5 L 462.5 459 L 462 457.5 L 468.5 452 Z " /><path fill="rgb(0,0,0)" stroke="rgb(0,0,0)" stroke-width="1" opacity="0.7137254901960784" d="M 475.5 452 L 483 457.5 L 484 465.5 L 483 465.5 L 483 460.5 L 478.5 454 Q 474.7 453.7 475.5 452 Z " /><path fill="rgb(0,0,0)" stroke="rgb(0,0,0)" stroke-width="1" opacity="0.7137254901960784" d="M 579.5 453 L 591 453.5 L 579.5 454 L 579.5 453 Z " /><path fill="rgb(0,0,0)" stroke="rgb(0,0,0)" stroke-width="1" opacity="0.7137254901960784" d="M 593.5 453 L 602 453.5 L 593.5 454 L 593.5 453 Z " /><path fill="rgb(0,0,0)" stroke="rgb(0,0,0)" stroke-width="1" opacity="0.7137254901960784" d="M 572.5 454 L 577 454.5 L 572.5 455 L 572.5 454 Z " /><path fill="rgb(0,0,0)" stroke="rgb(0,0,0)" stroke-width="1" opacity="0.7137254901960784" d="M 604.5 454 L 609 454.5 L 604.5 455 L 604.5 454 Z " /><path fill="rgb(0,0,0)" stroke="rgb(0,0,0)" stroke-width="1" opacity="0.7137254901960784" d="M 568.5 455 L 571 455.5 L 568.5 456 L 568.5 455 Z " /><path fill="rgb(0,0,0)" stroke="rgb(0,0,0)" stroke-width="1" opacity="0.7137254901960784" d="M 610.5 455 L 613 455.5 L 610.5 456 L 610.5 455 Z " /><path fill="rgb(0,0,0)" stroke="rgb(0,0,0)" stroke-width="1" opacity="0.7137254901960784" d="M 713.5 455 L 718.5 455 L 726 460.5 L 727 463.5 L 726 463.5 L 722.5 458 Q 719.8 455.2 713.5 456 L 708 459.5 L 705.5 465 L 705 462.5 L 709.5 457 L 713.5 455 Z " /><path fill="rgb(0,0,0)" stroke="rgb(0,0,0)" stroke-width="1" opacity="0.7137254901960784" d="M 564.5 456 L 567 456.5 Q 538.6 464.6 522 484.5 Q 509.7 497.7 503.5 517 L 503 515.5 Q 512.6 488.1 533.5 472 Q 546.6 461.6 564.5 456 Z " /><path fill="rgb(0,0,0)" stroke="rgb(0,0,0)" stroke-width="1" opacity="0.7137254901960784" d="M 614.5 456 Q 641.9 463.1 658 481.5 Q 675 499.5 682 527.5 L 681 527.5 Q 672.3 493.2 648.5 474 L 635.5 465 Q 626.7 459.3 614.5 457 L 614.5 456 Z " /><path fill="rgb(0,0,0)" stroke="rgb(0,0,0)" stroke-width="1" opacity="0.7137254901960784" d="M 531.5 458 L 530.5 460 Q 503.3 473.3 485 495.5 Q 474 508 466.5 524 L 466 522.5 Q 478.7 497.7 498.5 480 Q 513 467 531.5 458 Z " /><path fill="rgb(0,0,0)" stroke="rgb(0,0,0)" stroke-width="1" opacity="0.7137254901960784" d="M 461.5 460 L 462 465.5 L 461 465.5 L 461.5 460 Z " /><path fill="rgb(0,0,0)" stroke="rgb(0,0,0)" stroke-width="1" opacity="0.7137254901960784" d="M 462.5 467 L 467.5 473 L 469 473.5 L 467.5 474 L 464 472 L 462.5 467 Z " /><path fill="rgb(0,0,0)" stroke="rgb(0,0,0)" stroke-width="1" opacity="0.7137254901960784" d="M 482.5 467 L 483 468.5 L 481 472 L 476.5 474 L 476.5 473 L 482 468.5 L 482.5 467 Z " /><path fill="rgb(0,0,0)" stroke="rgb(0,0,0)" stroke-width="1" opacity="0.7137254901960784" d="M 705.5 469 L 711.5 477 L 714 477.5 L 711.5 478 L 707 474.5 L 705.5 469 Z " /><path fill="rgb(0,0,0)" stroke="rgb(0,0,0)" stroke-width="1" opacity="0.7137254901960784" d="M 726.5 469 L 727 471.5 L 722.5 477 L 719.5 478 L 719.5 477 L 726 471.5 L 726.5 469 Z " /><path fill="rgb(0,0,0)" stroke="rgb(0,0,0)" stroke-width="1" opacity="0.7137254901960784" d="M 659.5 471 Q 680.1 481.9 694 499.5 Q 714.1 522.9 723 557.5 L 722 557.5 Q 710.2 512.3 679.5 486 L 659.5 472 L 666 479.5 Q 680.3 494.7 686 518.5 L 685 518.5 Q 683.3 506.7 678 498.5 L 660 474 Q 657.3 475.1 658 472.5 L 659.5 471 Z " /><path fill="rgb(0,0,0)" stroke="rgb(0,0,0)" stroke-width="1" opacity="0.7137254901960784" d="M 470.5 474 L 475 474.5 L 470.5 475 L 470.5 474 Z " /><path fill="rgb(0,0,0)" stroke="rgb(0,0,0)" stroke-width="1" opacity="0.7137254901960784" d="M 515.5 476 L 518 477.5 Q 502 495 494.5 521 L 494 518.5 L 502 498.5 L 516 478 Q 502.1 485.8 492 498.5 Q 473.6 519.1 464.5 549 L 464 546.5 Q 477.6 506.1 507.5 482 L 515.5 476 Z " /><path fill="rgb(0,0,0)" stroke="rgb(0,0,0)" stroke-width="1" opacity="0.7137254901960784" d="M 502.5 518 L 503 520.5 L 500.5 529 L 500 525.5 L 502.5 518 Z " /><path fill="rgb(0,0,0)" stroke="rgb(0,0,0)" stroke-width="1" opacity="0.7137254901960784" d="M 686.5 520 L 687 523.5 L 686 523.5 L 686.5 520 Z " /><path fill="rgb(0,0,0)" stroke="rgb(0,0,0)" stroke-width="1" opacity="0.7137254901960784" d="M 493.5 522 L 494 525.5 L 492.5 531 L 492 526.5 L 493.5 522 Z " /><path fill="rgb(0,0,0)" stroke="rgb(0,0,0)" stroke-width="1" opacity="0.7137254901960784" d="M 687.5 525 L 688 530.5 L 687 530.5 L 687.5 525 Z " /><path fill="rgb(0,0,0)" stroke="rgb(0,0,0)" stroke-width="1" opacity="0.7137254901960784" d="M 451.5 528 L 453 528.5 L 417.5 541 L 417.5 540 L 451.5 528 Z " /><path fill="rgb(0,0,0)" stroke="rgb(0,0,0)" stroke-width="1" opacity="0.7137254901960784" d="M 682.5 529 L 683 531.5 L 682 531.5 L 682.5 529 Z " /><path fill="rgb(0,0,0)" stroke="rgb(0,0,0)" stroke-width="1" opacity="0.7137254901960784" d="M 499.5 530 L 500 534.5 L 499 534.5 L 499.5 530 Z " /><path fill="rgb(0,0,0)" stroke="rgb(0,0,0)" stroke-width="1" opacity="0.7137254901960784" d="M 732.5 531 L 801 557.5 L 799.5 558 L 733.5 533 L 732.5 531 Z " /><path fill="rgb(0,0,0)" stroke="rgb(0,0,0)" stroke-width="1" opacity="0.7137254901960784" d="M 491.5 532 L 492 538.5 L 491 538.5 L 491.5 532 Z " /><path fill="rgb(0,0,0)" stroke="rgb(0,0,0)" stroke-width="1" opacity="0.7137254901960784" d="M 683.5 533 L 684 536.5 L 683 536.5 L 683.5 533 Z " /><path fill="rgb(0,0,0)" stroke="rgb(0,0,0)" stroke-width="1" opacity="0.7137254901960784" d="M 688.5 537 L 689 542.5 L 688 542.5 L 688.5 537 Z " /><path fill="rgb(0,0,0)" stroke="rgb(0,0,0)" stroke-width="1" opacity="0.7137254901960784" d="M 498.5 538 L 499 555.5 L 498 555.5 L 498.5 538 Z " /><path fill="rgb(0,0,0)" stroke="rgb(0,0,0)" stroke-width="1" opacity="0.7137254901960784" d="M 684.5 538 L 685 542.5 L 684 542.5 L 684.5 538 Z " /><path fill="rgb(0,0,0)" stroke="rgb(0,0,0)" stroke-width="1" opacity="0.7137254901960784" d="M 455.5 539 L 457 539.5 L 415.5 554 L 415.5 553 L 455.5 539 Z " /><path fill="rgb(0,0,0)" stroke="rgb(0,0,0)" stroke-width="1" opacity="0.7137254901960784" d="M 414.5 541 L 416 541.5 L 394.5 549 L 394.5 548 L 414.5 541 Z " /><path fill="rgb(0,0,0)" stroke="rgb(0,0,0)" stroke-width="1" opacity="0.7137254901960784" d="M 725 542 L 733.5 544 L 856 590.5 L 853.5 591 L 845.5 587 L 726 543 L 725.5 545 L 725 542 Z " /><path fill="rgb(0,0,0)" stroke="rgb(0,0,0)" stroke-width="1" opacity="0.7137254901960784" d="M 490.5 544 L 491 550.5 L 490 550.5 L 490.5 544 Z " /><path fill="rgb(0,0,0)" stroke="rgb(0,0,0)" stroke-width="1" opacity="0.7137254901960784" d="M 685.5 546 L 687 559.5 L 684.5 569 L 684 565.5 L 685 564.5 L 685.5 546 Z " /><path fill="rgb(0,0,0)" stroke="rgb(0,0,0)" stroke-width="1" opacity="0.7137254901960784" d="M 726.5 546 L 727 548.5 L 726 548.5 L 726.5 546 Z " /><path fill="rgb(0,0,0)" stroke="rgb(0,0,0)" stroke-width="1" opacity="0.7137254901960784" d="M 456.5 547 L 457 549.5 L 454.5 558 L 454 554.5 L 456.5 547 Z " /><path fill="rgb(0,0,0)" stroke="rgb(0,0,0)" stroke-width="1" opacity="0.7137254901960784" d="M 687.5 548 L 688 553.5 L 687 553.5 L 687.5 548 Z " /><path fill="rgb(0,0,0)" stroke="rgb(0,0,0)" stroke-width="1" opacity="0.7137254901960784" d="M 391.5 549 L 393 549.5 L 374.5 556 L 374.5 555 L 391.5 549 Z " /><path fill="rgb(0,0,0)" stroke="rgb(0,0,0)" stroke-width="1" opacity="0.7137254901960784" d="M 463.5 550 L 464 552.5 L 461.5 561 L 461 557.5 L 463.5 550 Z " /><path fill="rgb(0,0,0)" stroke="rgb(0,0,0)" stroke-width="1" opacity="0.7137254901960784" d="M 727.5 550 L 729 558.5 L 728 558.5 L 727.5 550 Z " /><path fill="rgb(0,0,0)" stroke="rgb(0,0,0)" stroke-width="1" opacity="0.7137254901960784" d="M 412.5 554 L 414 554.5 L 372.5 569 L 372.5 568 L 412.5 554 Z " /><path fill="rgb(0,0,0)" stroke="rgb(0,0,0)" stroke-width="1" opacity="0.7137254901960784" d="M 371.5 556 L 373 556.5 L 351.5 564 L 351.5 563 L 371.5 556 Z " /><path fill="rgb(0,0,0)" stroke="rgb(0,0,0)" stroke-width="1" opacity="0.7137254901960784" d="M 491.5 556 L 492 561.5 L 491 561.5 L 491.5 556 Z " /><path fill="rgb(0,0,0)" stroke="rgb(0,0,0)" stroke-width="1" opacity="0.7137254901960784" d="M 581.5 556 L 586 556.5 L 581.5 557 L 581.5 556 Z " /><path fill="rgb(0,0,0)" stroke="rgb(0,0,0)" stroke-width="1" opacity="0.7137254901960784" d="M 593.5 556 L 598 556.5 L 593.5 557 L 593.5 556 Z " /><path fill="rgb(0,0,0)" stroke="rgb(0,0,0)" stroke-width="1" opacity="0.7137254901960784" d="M 577.5 557 L 580 557.5 L 577.5 558 L 577.5 557 Z " /><path fill="rgb(0,0,0)" stroke="rgb(0,0,0)" stroke-width="1" opacity="0.7137254901960784" d="M 599.5 557 Q 616.5 561 625 573.5 L 631 584.5 L 631 587.5 L 630 587.5 Q 626.9 573.1 616.5 566 L 604.5 559 L 599.5 558 L 599.5 557 Z " /><path fill="rgb(0,0,0)" stroke="rgb(0,0,0)" stroke-width="1" opacity="0.7137254901960784" d="M 574.5 558 L 576 558.5 Q 562.7 563.2 555 573.5 Q 548.4 580.9 546.5 593 L 546 589.5 Q 550.2 574.7 560.5 566 L 574.5 558 Z " /><path fill="rgb(0,0,0)" stroke="rgb(0,0,0)" stroke-width="1" opacity="0.7137254901960784" d="M 802.5 558 L 862 580.5 L 860.5 581 L 804.5 560 L 802.5 558 Z " /><path fill="rgb(0,0,0)" stroke="rgb(0,0,0)" stroke-width="1" opacity="0.7137254901960784" d="M 453.5 559 L 454 562.5 L 453 562.5 L 453.5 559 Z " /><path fill="rgb(0,0,0)" stroke="rgb(0,0,0)" stroke-width="1" opacity="0.7137254901960784" d="M 499.5 559 L 500 563.5 L 499 563.5 L 499.5 559 Z " /><path fill="rgb(0,0,0)" stroke="rgb(0,0,0)" stroke-width="1" opacity="0.7137254901960784" d="M 723.5 559 L 724 561.5 L 723 561.5 L 723.5 559 Z " /><path fill="rgb(0,0,0)" stroke="rgb(0,0,0)" stroke-width="1" opacity="0.7137254901960784" d="M 729.5 560 L 730 564.5 L 729 564.5 L 729.5 560 Z " /><path fill="rgb(0,0,0)" stroke="rgb(0,0,0)" stroke-width="1" opacity="0.7137254901960784" d="M 460.5 562 L 461 566.5 L 460 566.5 L 460.5 562 Z " /><path fill="rgb(0,0,0)" stroke="rgb(0,0,0)" stroke-width="1" opacity="0.7137254901960784" d="M 585.5 563 L 593 563.5 L 585.5 564 L 585.5 563 Z " /><path fill="rgb(0,0,0)" stroke="rgb(0,0,0)" stroke-width="1" opacity="0.7137254901960784" d="M 724.5 563 L 725 565.5 L 724 565.5 L 724.5 563 Z " /><path fill="rgb(0,0,0)" stroke="rgb(0,0,0)" stroke-width="1" opacity="0.7137254901960784" d="M 348.5 564 L 350 564.5 L 308.5 579 L 308.5 578 L 348.5 564 Z " /><path fill="rgb(0,0,0)" stroke="rgb(0,0,0)" stroke-width="1" opacity="0.7137254901960784" d="M 452.5 564 L 453 568.5 L 452 568.5 L 452.5 564 Z " /><path fill="rgb(0,0,0)" stroke="rgb(0,0,0)" stroke-width="1" opacity="0.7137254901960784" d="M 492.5 564 L 493 567.5 L 492 567.5 L 492.5 564 Z " /><path fill="rgb(0,0,0)" stroke="rgb(0,0,0)" stroke-width="1" opacity="0.7137254901960784" d="M 579.5 564 L 583 564.5 Q 569.1 567.1 562 576.5 L 555.5 588 L 555 586.5 Q 558.8 575.8 567.5 570 L 579.5 564 Z " /><path fill="rgb(0,0,0)" stroke="rgb(0,0,0)" stroke-width="1" opacity="0.7137254901960784" d="M 595.5 564 L 599 564.5 L 595.5 565 L 595.5 564 Z " /><path fill="rgb(0,0,0)" stroke="rgb(0,0,0)" stroke-width="1" opacity="0.7137254901960784" d="M 500.5 565 L 501 568.5 L 500 568.5 L 500.5 565 Z " /><path fill="rgb(0,0,0)" stroke="rgb(0,0,0)" stroke-width="1" opacity="0.7137254901960784" d="M 600.5 565 Q 612.7 568.3 619 577.5 L 627 593.5 L 628 598.5 L 627 598.5 L 621 582.5 L 609.5 570 L 600.5 566 L 600.5 565 Z " /><path fill="rgb(0,0,0)" stroke="rgb(0,0,0)" stroke-width="1" opacity="0.7137254901960784" d="M 725.5 567 L 726 570.5 L 725 570.5 L 725.5 567 Z " /><path fill="rgb(0,0,0)" stroke="rgb(0,0,0)" stroke-width="1" opacity="0.7137254901960784" d="M 459.5 568 L 460 573.5 L 459 573.5 L 459.5 568 Z " /><path fill="rgb(0,0,0)" stroke="rgb(0,0,0)" stroke-width="1" opacity="0.7137254901960784" d="M 730.5 568 L 731 594.5 L 730 594.5 L 730.5 568 Z " /><path fill="rgb(0,0,0)" stroke="rgb(0,0,0)" stroke-width="1" opacity="0.7137254901960784" d="M 369.5 569 L 371 569.5 L 349.5 577 L 349.5 576 L 369.5 569 Z " /><path fill="rgb(0,0,0)" stroke="rgb(0,0,0)" stroke-width="1" opacity="0.7137254901960784" d="M 493.5 569 L 494 571.5 L 493 571.5 L 493.5 569 Z " /><path fill="rgb(0,0,0)" stroke="rgb(0,0,0)" stroke-width="1" opacity="0.7137254901960784" d="M 501.5 570 L 502 572.5 L 501 572.5 L 501.5 570 Z " /><path fill="rgb(0,0,0)" stroke="rgb(0,0,0)" stroke-width="1" opacity="0.7137254901960784" d="M 451.5 571 L 452 577.5 L 451 577.5 L 451.5 571 Z " /><path fill="rgb(0,0,0)" stroke="rgb(0,0,0)" stroke-width="1" opacity="0.7137254901960784" d="M 494.5 573 Q 502.9 604.6 524.5 623 Q 540 637.5 563 644.5 L 560.5 645 Q 531.3 635.2 514 613.5 L 499 589.5 L 494 575.5 L 494.5 573 Z " /><path fill="rgb(0,0,0)" stroke="rgb(0,0,0)" stroke-width="1" opacity="0.7137254901960784" d="M 726.5 573 L 727 577.5 L 726 577.5 L 726.5 573 Z " /><path fill="rgb(0,0,0)" stroke="rgb(0,0,0)" stroke-width="1" opacity="0.7137254901960784" d="M 419.5 574 Q 429.2 572.8 432 578.5 L 434 584.5 L 433 584.5 L 429.5 577 Q 426.5 574 419.5 575 L 413 580.5 L 412.5 582 L 412 580.5 L 419.5 574 Z " /><path fill="rgb(0,0,0)" stroke="rgb(0,0,0)" stroke-width="1" opacity="0.7137254901960784" d="M 502.5 574 Q 511.3 604.2 533.5 621 Q 544.3 630.7 560 635.5 L 557.5 636 Q 535.2 627.3 521 610.5 L 512 598.5 L 503 579.5 L 502.5 574 Z " /><path fill="rgb(0,0,0)" stroke="rgb(0,0,0)" stroke-width="1" opacity="0.7137254901960784" d="M 346.5 577 L 348 577.5 L 329.5 584 L 329.5 583 L 346.5 577 Z " /><path fill="rgb(0,0,0)" stroke="rgb(0,0,0)" stroke-width="1" opacity="0.7137254901960784" d="M 458.5 578 L 459 599.5 L 458 599.5 L 458.5 578 Z " /><path fill="rgb(0,0,0)" stroke="rgb(0,0,0)" stroke-width="1" opacity="0.7137254901960784" d="M 305.5 579 L 307 579.5 L 293 584.5 L 307 590.5 L 305.5 591 L 290 584.5 L 305.5 579 Z " /><path fill="rgb(0,0,0)" stroke="rgb(0,0,0)" stroke-width="1" opacity="0.7137254901960784" d="M 727.5 580 L 728 587.5 L 727 587.5 L 727.5 580 Z " /><path fill="rgb(0,0,0)" stroke="rgb(0,0,0)" stroke-width="1" opacity="0.7137254901960784" d="M 759.5 581 L 761 581.5 L 755 585.5 L 753.5 589 L 753 587.5 L 757.5 582 L 759.5 581 Z " /><path fill="rgb(0,0,0)" stroke="rgb(0,0,0)" stroke-width="1" opacity="0.7137254901960784" d="M 766.5 581 L 774 586.5 L 773.5 588 L 769.5 583 Q 765.8 582.8 766.5 581 Z " /><path fill="rgb(0,0,0)" stroke="rgb(0,0,0)" stroke-width="1" opacity="0.7137254901960784" d="M 863.5 581 L 893 592.5 L 871.5 600 L 871.5 599 L 891 592.5 L 865.5 583 L 863.5 581 Z " /><path fill="rgb(0,0,0)" stroke="rgb(0,0,0)" stroke-width="1" opacity="0.7137254901960784" d="M 411.5 583 L 412 587.5 L 411 587.5 L 411.5 583 Z " /><path fill="rgb(0,0,0)" stroke="rgb(0,0,0)" stroke-width="1" opacity="0.7137254901960784" d="M 450.5 584 L 451 593.5 L 450 593.5 L 450.5 584 Z " /><path fill="rgb(0,0,0)" stroke="rgb(0,0,0)" stroke-width="1" opacity="0.7137254901960784" d="M 327.5 586 L 385 607.5 L 383.5 608 L 327.5 587 L 327.5 586 Z " /><path fill="rgb(0,0,0)" stroke="rgb(0,0,0)" stroke-width="1" opacity="0.7137254901960784" d="M 433.5 587 L 434 589.5 L 428.5 596 L 425.5 597 L 425.5 596 L 432 591.5 L 433.5 587 Z " /><path fill="rgb(0,0,0)" stroke="rgb(0,0,0)" stroke-width="1" opacity="0.7137254901960784" d="M 412.5 589 L 418.5 596 L 421 596.5 L 418.5 597 L 413 592.5 L 412.5 589 Z " /><path fill="rgb(0,0,0)" stroke="rgb(0,0,0)" stroke-width="1" opacity="0.7137254901960784" d="M 554.5 589 L 555 591.5 L 554 591.5 L 554.5 589 Z " /><path fill="rgb(0,0,0)" stroke="rgb(0,0,0)" stroke-width="1" opacity="0.7137254901960784" d="M 631.5 589 L 632 597.5 L 631 597.5 L 631.5 589 Z " /><path fill="rgb(0,0,0)" stroke="rgb(0,0,0)" stroke-width="1" opacity="0.7137254901960784" d="M 774.5 589 L 775 591.5 L 774 591.5 L 774.5 589 Z " /><path fill="rgb(0,0,0)" stroke="rgb(0,0,0)" stroke-width="1" opacity="0.7137254901960784" d="M 752.5 590 L 753 594.5 L 752 594.5 L 752.5 590 Z " /><path fill="rgb(0,0,0)" stroke="rgb(0,0,0)" stroke-width="1" opacity="0.7137254901960784" d="M 308.5 591 L 368 613.5 L 366.5 614 L 310.5 593 L 308.5 591 Z " /><path fill="rgb(0,0,0)" stroke="rgb(0,0,0)" stroke-width="1" opacity="0.7137254901960784" d="M 855.5 592 L 854.5 594 L 830.5 602 L 830.5 601 L 855.5 592 Z " /><path fill="rgb(0,0,0)" stroke="rgb(0,0,0)" stroke-width="1" opacity="0.7137254901960784" d="M 553.5 593 L 554 598.5 L 553 598.5 L 553.5 593 Z " /><path fill="rgb(0,0,0)" stroke="rgb(0,0,0)" stroke-width="1" opacity="0.7137254901960784" d="M 774.5 593 L 775 595.5 L 770.5 602 Q 767.8 604.8 761.5 604 L 761.5 603 L 766.5 603 L 773 597.5 L 774.5 593 Z " /><path fill="rgb(0,0,0)" stroke="rgb(0,0,0)" stroke-width="1" opacity="0.7137254901960784" d="M 545.5 595 L 546 606.5 L 545 606.5 L 545.5 595 Z " /><path fill="rgb(0,0,0)" stroke="rgb(0,0,0)" stroke-width="1" opacity="0.7137254901960784" d="M 753.5 596 L 758.5 602 L 760 602.5 L 758.5 603 L 753 597.5 L 753.5 596 Z " /><path fill="rgb(0,0,0)" stroke="rgb(0,0,0)" stroke-width="1" opacity="0.7137254901960784" d="M 672.5 598 L 672 599.5 Q 662.5 617.5 647.5 630 Q 634.9 641.4 615.5 646 L 615.5 645 Q 641.1 638.1 656 620.5 L 657 618.5 L 655.5 618 Q 641.2 631.2 619.5 637 L 619.5 636 Q 646.2 628.2 663 610.5 L 672.5 598 Z " /><path fill="rgb(0,0,0)" stroke="rgb(0,0,0)" stroke-width="1" opacity="0.7137254901960784" d="M 729.5 598 L 730 602.5 L 729 602.5 L 729.5 598 Z " /><path fill="rgb(0,0,0)" stroke="rgb(0,0,0)" stroke-width="1" opacity="0.7137254901960784" d="M 451.5 600 L 452 606.5 L 451 606.5 L 451.5 600 Z " /><path fill="rgb(0,0,0)" stroke="rgb(0,0,0)" stroke-width="1" opacity="0.7137254901960784" d="M 628.5 600 L 629.5 604 L 630.5 600 L 631 603.5 L 628.5 611 L 628.5 600 Z " /><path fill="rgb(0,0,0)" stroke="rgb(0,0,0)" stroke-width="1" opacity="0.7137254901960784" d="M 868.5 600 L 870 600.5 L 851.5 607 L 851.5 606 L 868.5 600 Z " /><path fill="rgb(0,0,0)" stroke="rgb(0,0,0)" stroke-width="1" opacity="0.7137254901960784" d="M 553.5 602 Q 555 622.5 568.5 631 L 581 636.5 L 578.5 637 Q 567.4 633.6 561 625.5 L 554 612.5 L 553.5 602 Z " /><path fill="rgb(0,0,0)" stroke="rgb(0,0,0)" stroke-width="1" opacity="0.7137254901960784" d="M 827.5 602 L 829 602.5 L 787.5 617 L 787.5 616 L 827.5 602 Z " /><path fill="rgb(0,0,0)" stroke="rgb(0,0,0)" stroke-width="1" opacity="0.7137254901960784" d="M 459.5 603 L 460 608.5 L 459 608.5 L 459.5 603 Z " /><path fill="rgb(0,0,0)" stroke="rgb(0,0,0)" stroke-width="1" opacity="0.7137254901960784" d="M 727 605 Q 730.3 603.7 729 608.5 L 726.5 619 L 726 614.5 L 727 613.5 L 727 605 Z " /><path fill="rgb(0,0,0)" stroke="rgb(0,0,0)" stroke-width="1" opacity="0.7137254901960784" d="M 848.5 607 L 850 607.5 L 828.5 615 L 828.5 614 L 848.5 607 Z " /><path fill="rgb(0,0,0)" stroke="rgb(0,0,0)" stroke-width="1" opacity="0.7137254901960784" d="M 386.5 608 L 446 630.5 L 444.5 631 L 388.5 610 L 386.5 608 Z " /><path fill="rgb(0,0,0)" stroke="rgb(0,0,0)" stroke-width="1" opacity="0.7137254901960784" d="M 546.5 608 L 548 614.5 L 547 614.5 L 546.5 608 Z " /><path fill="rgb(0,0,0)" stroke="rgb(0,0,0)" stroke-width="1" opacity="0.7137254901960784" d="M 452.5 609 L 453 613.5 L 452 613.5 L 452.5 609 Z " /><path fill="rgb(0,0,0)" stroke="rgb(0,0,0)" stroke-width="1" opacity="0.7137254901960784" d="M 460.5 611 L 461 614.5 L 460 614.5 L 460.5 611 Z " /><path fill="rgb(0,0,0)" stroke="rgb(0,0,0)" stroke-width="1" opacity="0.7137254901960784" d="M 369.5 614 L 437 639.5 L 435.5 640 L 371.5 616 L 369.5 614 Z " /><path fill="rgb(0,0,0)" stroke="rgb(0,0,0)" stroke-width="1" opacity="0.7137254901960784" d="M 453.5 615 L 454 618.5 L 453 618.5 L 453.5 615 Z " /><path fill="rgb(0,0,0)" stroke="rgb(0,0,0)" stroke-width="1" opacity="0.7137254901960784" d="M 825.5 615 L 827 615.5 L 808.5 622 L 808.5 621 L 825.5 615 Z " /><path fill="rgb(0,0,0)" stroke="rgb(0,0,0)" stroke-width="1" opacity="0.7137254901960784" d="M 461.5 616 L 462 619.5 L 461 619.5 L 461.5 616 Z " /><path fill="rgb(0,0,0)" stroke="rgb(0,0,0)" stroke-width="1" opacity="0.7137254901960784" d="M 548.5 616 Q 552.4 626.6 560 633.5 L 554 628.5 L 548 617.5 L 548.5 616 Z " /><path fill="rgb(0,0,0)" stroke="rgb(0,0,0)" stroke-width="1" opacity="0.7137254901960784" d="M 784.5 617 L 786 617.5 L 764.5 625 L 764.5 624 L 784.5 617 Z " /><path fill="rgb(0,0,0)" stroke="rgb(0,0,0)" stroke-width="1" opacity="0.7137254901960784" d="M 454.5 620 L 455 622.5 L 454 622.5 L 454.5 620 Z " /><path fill="rgb(0,0,0)" stroke="rgb(0,0,0)" stroke-width="1" opacity="0.7137254901960784" d="M 725.5 620 L 726 622.5 L 725 622.5 L 725.5 620 Z " /><path fill="rgb(0,0,0)" stroke="rgb(0,0,0)" stroke-width="1" opacity="0.7137254901960784" d="M 462.5 621 L 463 623.5 L 462 623.5 L 462.5 621 Z " /><path fill="rgb(0,0,0)" stroke="rgb(0,0,0)" stroke-width="1" opacity="0.7137254901960784" d="M 623.5 622 L 623 623.5 L 614.5 636 L 614 634.5 L 618 629.5 L 616.5 630 L 604.5 635 L 604.5 634 Q 617.2 631.2 623.5 622 Z " /><path fill="rgb(0,0,0)" stroke="rgb(0,0,0)" stroke-width="1" opacity="0.7137254901960784" d="M 805.5 622 L 807 622.5 L 785.5 630 L 785.5 629 L 805.5 622 Z " /><path fill="rgb(0,0,0)" stroke="rgb(0,0,0)" stroke-width="1" opacity="0.7137254901960784" d="M 455.5 624 L 456 626.5 L 455 626.5 L 455.5 624 Z " /><path fill="rgb(0,0,0)" stroke="rgb(0,0,0)" stroke-width="1" opacity="0.7137254901960784" d="M 463.5 625 L 465 630.5 L 464 630.5 L 463.5 625 Z " /><path fill="rgb(0,0,0)" stroke="rgb(0,0,0)" stroke-width="1" opacity="0.7137254901960784" d="M 761.5 625 L 763 625.5 L 744.5 632 L 744.5 631 L 761.5 625 Z " /><path fill="rgb(0,0,0)" stroke="rgb(0,0,0)" stroke-width="1" opacity="0.7137254901960784" d="M 456.5 628 L 458 635 L 454.5 635 L 447 631.5 L 448.5 631 L 457 634 L 456.5 628 Z " /><path fill="rgb(0,0,0)" stroke="rgb(0,0,0)" stroke-width="1" opacity="0.7137254901960784" d="M 782.5 630 L 784 630.5 L 742.5 645 L 742.5 644 L 782.5 630 Z " /><path fill="rgb(0,0,0)" stroke="rgb(0,0,0)" stroke-width="1" opacity="0.7137254901960784" d="M 741.5 632 L 743 632.5 L 721.5 640 L 721.5 639 L 741.5 632 Z " /><path fill="rgb(0,0,0)" stroke="rgb(0,0,0)" stroke-width="1" opacity="0.7137254901960784" d="M 466.5 635 Q 478.8 670.2 504.5 692 Q 518.5 704.5 536.5 713 L 539.5 713 L 543.5 716 L 555.5 720 L 567 722.5 L 563.5 723 Q 515.5 711 489 677.5 Q 473.5 659.6 466.5 635 Z " /><path fill="rgb(0,0,0)" stroke="rgb(0,0,0)" stroke-width="1" opacity="0.7137254901960784" d="M 601.5 635 L 603 635.5 L 597.5 637 L 597.5 636 L 601.5 635 Z " /><path fill="rgb(0,0,0)" stroke="rgb(0,0,0)" stroke-width="1" opacity="0.7137254901960784" d="M 582.5 637 L 596 637.5 L 582.5 638 L 582.5 637 Z " /><path fill="rgb(0,0,0)" stroke="rgb(0,0,0)" stroke-width="1" opacity="0.7137254901960784" d="M 615.5 637 L 618 637.5 L 615.5 638 L 615.5 637 Z " /><path fill="rgb(0,0,0)" stroke="rgb(0,0,0)" stroke-width="1" opacity="0.7137254901960784" d="M 438.5 640 L 452 645.5 L 378 800.5 L 379.5 801 L 529.5 730 L 532.5 730 L 534 731.5 L 587 891.5 L 586 891.5 L 533 731 L 529.5 731 L 376 803 L 451 647.5 L 451 645 L 440.5 642 L 438.5 640 Z " /><path fill="rgb(0,0,0)" stroke="rgb(0,0,0)" stroke-width="1" opacity="0.7137254901960784" d="M 718.5 640 L 720 640.5 L 715 642 L 777 780.5 L 776 780.5 L 714 642.5 L 718.5 640 Z " /><path fill="rgb(0,0,0)" stroke="rgb(0,0,0)" stroke-width="1" opacity="0.7137254901960784" d="M 564.5 645 L 571 646.5 L 567.5 647 L 564.5 646 L 564.5 645 Z " /><path fill="rgb(0,0,0)" stroke="rgb(0,0,0)" stroke-width="1" opacity="0.7137254901960784" d="M 739.5 645 L 741 645.5 L 731 649 L 803 808.5 L 801.5 809 L 648.5 732 L 641.5 749 L 641 747.5 L 647 731 L 649.5 731 L 800 806 L 732 655.5 L 730 648 L 739.5 645 Z " /><path fill="rgb(0,0,0)" stroke="rgb(0,0,0)" stroke-width="1" opacity="0.7137254901960784" d="M 610.5 646 L 614 646.5 L 610.5 647 L 610.5 646 Z " /><path fill="rgb(0,0,0)" stroke="rgb(0,0,0)" stroke-width="1" opacity="0.7137254901960784" d="M 572.5 647 L 576 647.5 L 572.5 648 L 572.5 647 Z " /><path fill="rgb(0,0,0)" stroke="rgb(0,0,0)" stroke-width="1" opacity="0.7137254901960784" d="M 605.5 647 L 609 647.5 L 605.5 648 L 605.5 647 Z " /><path fill="rgb(0,0,0)" stroke="rgb(0,0,0)" stroke-width="1" opacity="0.7137254901960784" d="M 578.5 648 L 585 648.5 L 578.5 649 L 578.5 648 Z " /><path fill="rgb(0,0,0)" stroke="rgb(0,0,0)" stroke-width="1" opacity="0.7137254901960784" d="M 595.5 648 L 603 648.5 L 595.5 649 L 595.5 648 Z " /><path fill="rgb(0,0,0)" stroke="rgb(0,0,0)" stroke-width="1" opacity="0.7137254901960784" d="M 462.5 650 L 463 651.5 L 402.5 776 L 402 774.5 L 462.5 650 Z " /><path fill="rgb(0,0,0)" stroke="rgb(0,0,0)" stroke-width="1" opacity="0.7137254901960784" d="M 464.5 650 Q 478.5 680 502.5 700 Q 513.6 709.9 528 716.5 L 526.5 717 Q 504 705.5 488 687.5 L 474 669.5 L 464 651.5 L 464.5 650 Z " /><path fill="rgb(0,0,0)" stroke="rgb(0,0,0)" stroke-width="1" opacity="0.7137254901960784" d="M 708.5 663 L 707.5 665 L 708.5 663 Z " /><path fill="rgb(0,0,0)" stroke="rgb(0,0,0)" stroke-width="1" opacity="0.7137254901960784" d="M 706.5 666 L 706 667.5 Q 694.1 688.1 676.5 703 L 652.5 719 L 653.5 717 Q 673.1 707.1 687 691.5 Q 687.8 689.3 685.5 690 Q 668.6 706.6 643.5 715 L 643.5 714 Q 673.4 703.4 693 682.5 L 706.5 666 Z " /><path fill="rgb(0,0,0)" stroke="rgb(0,0,0)" stroke-width="1" opacity="0.7137254901960784" d="M 469.5 698 L 473 698.5 L 469.5 699 L 469.5 698 Z " /><path fill="rgb(0,0,0)" stroke="rgb(0,0,0)" stroke-width="1" opacity="0.7137254901960784" d="M 466.5 699 L 468 699.5 L 463 702.5 L 460.5 708 L 460 705.5 L 464.5 700 L 466.5 699 Z " /><path fill="rgb(0,0,0)" stroke="rgb(0,0,0)" stroke-width="1" opacity="0.7137254901960784" d="M 474.5 699 L 481 703.5 L 482 707.5 L 481 707.5 L 479 702 Q 473.9 701.5 474.5 699 Z " /><path fill="rgb(0,0,0)" stroke="rgb(0,0,0)" stroke-width="1" opacity="0.7137254901960784" d="M 712.5 703 L 715 703.5 L 712.5 704 L 712.5 703 Z " /><path fill="rgb(0,0,0)" stroke="rgb(0,0,0)" stroke-width="1" opacity="0.7137254901960784" d="M 709.5 704 L 711 704.5 L 705 708.5 Q 702.3 711.8 702.5 718 L 702 712.5 L 707.5 705 L 709.5 704 Z " /><path fill="rgb(0,0,0)" stroke="rgb(0,0,0)" stroke-width="1" opacity="0.7137254901960784" d="M 716.5 704 L 718.5 704 L 724 709.5 L 723.5 711 L 718.5 705 Q 715.5 705.5 716.5 704 Z " /><path fill="rgb(0,0,0)" stroke="rgb(0,0,0)" stroke-width="1" opacity="0.7137254901960784" d="M 460.5 712 L 461 714.5 L 466.5 720 L 468 720.5 L 466.5 721 L 461 716.5 L 460.5 712 Z " /><path fill="rgb(0,0,0)" stroke="rgb(0,0,0)" stroke-width="1" opacity="0.7137254901960784" d="M 481.5 712 L 482 714.5 L 477.5 720 L 474.5 721 L 474.5 720 L 481 714.5 L 481.5 712 Z " /><path fill="rgb(0,0,0)" stroke="rgb(0,0,0)" stroke-width="1" opacity="0.7137254901960784" d="M 724.5 712 L 725 718.5 L 722 724 L 717.5 726 L 717.5 725 L 723 720.5 L 724.5 712 Z " /><path fill="rgb(0,0,0)" stroke="rgb(0,0,0)" stroke-width="1" opacity="0.7137254901960784" d="M 641.5 714 L 639.5 717 L 629.5 720 L 629.5 719 Q 637.4 718.4 641.5 714 Z " /><path fill="rgb(0,0,0)" stroke="rgb(0,0,0)" stroke-width="1" opacity="0.7137254901960784" d="M 526.5 719 L 528 719.5 L 404.5 777 L 404.5 776 L 526.5 719 Z " /><path fill="rgb(0,0,0)" stroke="rgb(0,0,0)" stroke-width="1" opacity="0.7137254901960784" d="M 703.5 719 L 707.5 724 L 711 725.5 L 708.5 726 L 703 720.5 L 703.5 719 Z " /><path fill="rgb(0,0,0)" stroke="rgb(0,0,0)" stroke-width="1" opacity="0.7137254901960784" d="M 625.5 720 L 628 720.5 L 621.5 722 L 621.5 721 L 625.5 720 Z " /><path fill="rgb(0,0,0)" stroke="rgb(0,0,0)" stroke-width="1" opacity="0.7137254901960784" d="M 652.5 720 L 775 781.5 L 773.5 782 L 653.5 722 L 652.5 720 Z " /><path fill="rgb(0,0,0)" stroke="rgb(0,0,0)" stroke-width="1" opacity="0.7137254901960784" d="M 469.5 721 L 473 721.5 L 469.5 722 L 469.5 721 Z " /><path fill="rgb(0,0,0)" stroke="rgb(0,0,0)" stroke-width="1" opacity="0.7137254901960784" d="M 617.5 722 L 620 722.5 L 617.5 723 L 617.5 722 Z " /><path fill="rgb(0,0,0)" stroke="rgb(0,0,0)" stroke-width="1" opacity="0.7137254901960784" d="M 568.5 723 L 573 723.5 L 568.5 724 L 568.5 723 Z " /><path fill="rgb(0,0,0)" stroke="rgb(0,0,0)" stroke-width="1" opacity="0.7137254901960784" d="M 611.5 723 L 615 723.5 L 611.5 724 L 611.5 723 Z " /><path fill="rgb(0,0,0)" stroke="rgb(0,0,0)" stroke-width="1" opacity="0.7137254901960784" d="M 543 724 L 552 726.5 L 549.5 727 L 544 725 L 549 741.5 L 548 741.5 L 543 724 Z " /><path fill="rgb(0,0,0)" stroke="rgb(0,0,0)" stroke-width="1" opacity="0.7137254901960784" d="M 575.5 724 L 582 724.5 L 575.5 725 L 575.5 724 Z " /><path fill="rgb(0,0,0)" stroke="rgb(0,0,0)" stroke-width="1" opacity="0.7137254901960784" d="M 602.5 724 L 609 724.5 L 602.5 725 L 602.5 724 Z " /><path fill="rgb(0,0,0)" stroke="rgb(0,0,0)" stroke-width="1" opacity="0.7137254901960784" d="M 632.5 726 L 635 726.5 L 625.5 729 L 625.5 728 L 632.5 726 Z " /><path fill="rgb(0,0,0)" stroke="rgb(0,0,0)" stroke-width="1" opacity="0.7137254901960784" d="M 636.5 726 L 637 728.5 L 633.5 737 L 633 735.5 L 636.5 726 Z " /><path fill="rgb(0,0,0)" stroke="rgb(0,0,0)" stroke-width="1" opacity="0.7137254901960784" d="M 712.5 726 L 716 726.5 L 712.5 727 L 712.5 726 Z " /><path fill="rgb(0,0,0)" stroke="rgb(0,0,0)" stroke-width="1" opacity="0.7137254901960784" d="M 553.5 727 L 564 729.5 L 560.5 730 L 553.5 728 L 553.5 727 Z " /><path fill="rgb(0,0,0)" stroke="rgb(0,0,0)" stroke-width="1" opacity="0.7137254901960784" d="M 620.5 729 L 624 729.5 L 620.5 730 L 620.5 729 Z " /><path fill="rgb(0,0,0)" stroke="rgb(0,0,0)" stroke-width="1" opacity="0.7137254901960784" d="M 565.5 730 L 569 730.5 L 565.5 731 L 565.5 730 Z " /><path fill="rgb(0,0,0)" stroke="rgb(0,0,0)" stroke-width="1" opacity="0.7137254901960784" d="M 615.5 730 L 619 730.5 L 615.5 731 L 615.5 730 Z " /><path fill="rgb(0,0,0)" stroke="rgb(0,0,0)" stroke-width="1" opacity="0.7137254901960784" d="M 570.5 731 L 576 731.5 L 570.5 732 L 570.5 731 Z " /><path fill="rgb(0,0,0)" stroke="rgb(0,0,0)" stroke-width="1" opacity="0.7137254901960784" d="M 608.5 731 L 613 731.5 L 608.5 732 L 608.5 731 Z " /><path fill="rgb(0,0,0)" stroke="rgb(0,0,0)" stroke-width="1" opacity="0.7137254901960784" d="M 578.5 732 L 589 732.5 L 578.5 733 L 578.5 732 Z " /><path fill="rgb(0,0,0)" stroke="rgb(0,0,0)" stroke-width="1" opacity="0.7137254901960784" d="M 596.5 732 L 606 732.5 L 596.5 733 L 596.5 732 Z " /><path fill="rgb(0,0,0)" stroke="rgb(0,0,0)" stroke-width="1" opacity="0.7137254901960784" d="M 632.5 738 L 633 739.5 L 629.5 748 L 629 746.5 L 632.5 738 Z " /><path fill="rgb(0,0,0)" stroke="rgb(0,0,0)" stroke-width="1" opacity="0.7137254901960784" d="M 628.5 749 L 629 750.5 L 608.5 806 L 608 804.5 L 628.5 749 Z " /><path fill="rgb(0,0,0)" stroke="rgb(0,0,0)" stroke-width="1" opacity="0.7137254901960784" d="M 640.5 750 L 641 751.5 L 620.5 807 L 620 805.5 L 640.5 750 Z " /><path fill="rgb(0,0,0)" stroke="rgb(0,0,0)" stroke-width="1" opacity="0.7137254901960784" d="M 593.5 753 Q 599.9 753.7 602 758.5 L 601.5 760 L 597.5 755 L 593.5 754 L 593.5 753 Z " /><path fill="rgb(0,0,0)" stroke="rgb(0,0,0)" stroke-width="1" opacity="0.7137254901960784" d="M 586.5 754 L 582 759.5 L 581.5 761 L 581 759.5 L 584.5 755 L 586.5 754 Z " /><path fill="rgb(0,0,0)" stroke="rgb(0,0,0)" stroke-width="1" opacity="0.7137254901960784" d="M 555.5 761 L 588.5 858 L 603.5 818 L 604 819.5 L 590 859 Q 585.9 860.7 587 856.5 L 555.5 761 Z " /><path fill="rgb(0,0,0)" stroke="rgb(0,0,0)" stroke-width="1" opacity="0.7137254901960784" d="M 602.5 761 L 603 763.5 L 602 763.5 L 602.5 761 Z " /><path fill="rgb(0,0,0)" stroke="rgb(0,0,0)" stroke-width="1" opacity="0.7137254901960784" d="M 580.5 762 L 581 766.5 L 580 766.5 L 580.5 762 Z " /><path fill="rgb(0,0,0)" stroke="rgb(0,0,0)" stroke-width="1" opacity="0.7137254901960784" d="M 602.5 765 L 603 767.5 L 598.5 774 L 592.5 776 L 592.5 775 L 600 771.5 L 602.5 765 Z " /><path fill="rgb(0,0,0)" stroke="rgb(0,0,0)" stroke-width="1" opacity="0.7137254901960784" d="M 581.5 768 L 586.5 774 L 591 775.5 L 588.5 776 L 583 772.5 L 581.5 768 Z " /><path fill="rgb(0,0,0)" stroke="rgb(0,0,0)" stroke-width="1" opacity="0.7137254901960784" d="M 607.5 807 L 608 808.5 L 604.5 817 L 604 815.5 L 607.5 807 Z " /><path fill="rgb(0,0,0)" stroke="rgb(0,0,0)" stroke-width="1" opacity="0.7137254901960784" d="M 619.5 808 L 620 809.5 L 616.5 818 L 616 816.5 L 619.5 808 Z " /><path fill="rgb(0,0,0)" stroke="rgb(0,0,0)" stroke-width="1" opacity="0.7137254901960784" d="M 615.5 819 L 616 820.5 L 595.5 876 L 595 874.5 L 615.5 819 Z " /><path fill="rgb(0,0,0)" stroke="rgb(0,0,0)" stroke-width="1" opacity="0.7137254901960784" d="M 594.5 877 L 595 878.5 L 591.5 887 L 591 885.5 L 594.5 877 Z " /><path fill="rgb(0,0,0)" stroke="rgb(0,0,0)" stroke-width="1" opacity="0.7137254901960784" d="M 590.5 888 L 591 889.5 L 588.5 896 L 587 893 Q 590 894.3 589 890.5 L 590.5 888 Z " /><path fill="rgb(0,0,0)" stroke="rgb(0,0,0)" stroke-width="1" opacity="1" d="M 595.5 292 L 628 395.5 L 627 395.5 L 597 310 Q 593.2 308.5 594 311.5 L 551 434.5 L 546 453 L 574.5 446 L 598.5 445 L 599.5 446 L 608.5 446 L 609.5 447 L 620.5 448 L 645.5 456 Q 677.2 469.8 698 494.5 Q 710.9 508.4 718 527 L 722 527 L 722 525.5 L 788 395.5 L 788 393 L 782.5 394 L 709.5 427 L 709.5 426 L 799.5 381 L 799 382.5 L 735 521.5 L 732 531.5 L 751.5 540 L 891 592.5 L 730 648 L 732 655.5 L 801 806.5 L 799.5 806 L 649.5 731 L 647 731 L 589 893 Q 586 894.3 587 890.5 L 534 731.5 L 532.5 730 L 529.5 730 L 378.5 801 L 379 799.5 L 452 645.5 L 293 584.5 L 453 529 L 451 520.5 L 383 370.5 L 384.5 371 L 534.5 446 L 537 446 L 595.5 292 Z M 407 395 L 408 402 L 463 523 L 467 524 Q 473 508 485 496 Q 503 473 531 460 L 532 456 L 410 395 L 407 395 Z M 580 453 L 565 456 L 554 460 L 534 472 Q 519 483 510 500 L 501 522 L 498 539 L 498 556 L 502 577 Q 508 597 521 611 Q 536 629 560 636 L 560 634 Q 552 626 548 616 L 546 608 Q 544 584 555 574 Q 562 565 572 560 L 587 556 Q 606 556 617 566 Q 627 574 631 589 Q 632 598 630 604 L 627 594 L 619 578 L 609 568 L 593 563 L 580 564 L 568 570 Q 556 578 553 594 Q 552 605 554 613 L 561 626 Q 569 635 583 638 L 601 637 L 617 630 L 619 629 L 614 635 L 614 638 Q 640 633 657 618 L 662 614 L 656 621 Q 644 634 627 642 L 615 646 L 605 648 L 596 648 L 595 649 L 577 648 L 558 643 Q 538 636 525 623 Q 509 609 500 590 L 494 573 L 491 556 L 492 532 L 498 510 Q 505 491 518 479 L 518 476 L 516 476 L 508 482 Q 489 497 477 518 L 464 547 L 460 563 L 459 578 L 458 579 L 458 600 L 463 628 L 469 645 L 477 661 L 489 678 Q 505 696 527 709 L 556 721 L 576 725 L 609 725 L 632 720 L 661 708 L 687 690 L 693 685 L 687 692 Q 673 707 654 717 L 652 721 L 774 782 L 777 782 L 775 775 L 715 642 L 855 594 L 856 590 L 734 544 L 725 542 L 730 566 L 730 598 L 729 605 L 728 581 L 723 556 Q 714 522 694 500 L 677 482 L 663 472 L 658 471 Q 657 475 660 474 L 671 488 L 681 505 L 685 516 L 688 532 L 688 548 L 687 556 L 685 539 L 679 517 L 670 498 L 658 482 Q 645 467 626 459 L 602 453 L 580 453 Z M 456 539 L 329 584 Q 325 583 327 587 L 447 631 L 455 635 L 458 635 L 454 620 L 452 609 L 452 601 L 451 600 L 452 570 L 457 547 L 459 543 Q 461 537 456 539 Z M 463 650 L 410 758 L 402 777 L 409 776 L 527 720 L 528 720 L 528 716 L 518 711 L 503 700 Q 479 680 465 652 Q 466 649 463 650 Z M 543 724 L 543 728 L 587 857 Q 586 861 590 859 L 637 726 L 633 726 L 615 731 L 597 732 L 596 733 L 570 731 L 543 724 Z " /><path fill="rgb(0,0,0)" stroke="rgb(0,0,0)" stroke-width="1" opacity="1" d="M 593.5 400 Q 601 400.5 604 405.5 L 606 412.5 L 601.5 420 Q 598.9 423.4 591.5 422 L 585 416.5 L 584 408.5 L 590.5 401 L 593.5 400 Z " /><path fill="rgb(0,0,0)" stroke="rgb(0,0,0)" stroke-width="1" opacity="1" d="M 470.5 452 L 474.5 452 L 481 456.5 Q 484 459.5 483 466.5 L 477.5 473 L 469.5 474 L 463 468.5 L 462 459.5 L 466.5 454 L 470.5 452 Z " /><path fill="rgb(0,0,0)" stroke="rgb(0,0,0)" stroke-width="1" opacity="1" d="M 713.5 456 L 718.5 456 L 725 460.5 Q 727.7 462.8 727 468.5 Q 725.6 474.6 720.5 477 L 714.5 478 L 707 472.5 L 705 465.5 L 709.5 458 L 713.5 456 Z " /><path fill="rgb(0,0,0)" stroke="rgb(0,0,0)" stroke-width="1" opacity="1" d="M 419.5 575 Q 428.2 573.8 431 578.5 L 434 586.5 Q 432.8 592.3 428.5 595 L 421.5 597 Q 415.4 595.6 413 590.5 L 412 582.5 L 417.5 576 L 419.5 575 Z " /><path fill="rgb(0,0,0)" stroke="rgb(0,0,0)" stroke-width="1" opacity="1" d="M 761.5 581 L 765.5 581 L 773 586.5 L 775 592.5 Q 773.5 599 768.5 602 L 760.5 603 L 754 597.5 L 753 589.5 L 756.5 584 L 761.5 581 Z " /><path fill="rgb(0,0,0)" stroke="rgb(0,0,0)" stroke-width="1" opacity="1" d="M 468.5 699 L 473.5 699 L 479 702 Q 481.7 705 482 711.5 Q 480.6 717.6 475.5 720 L 468.5 721 L 461 714.5 L 460 708.5 L 464.5 701 L 468.5 699 Z " /><path fill="rgb(0,0,0)" stroke="rgb(0,0,0)" stroke-width="1" opacity="1" d="M 711.5 704 Q 720.4 703.6 723 709.5 L 724 718.5 L 718.5 725 L 711.5 726 L 704 720.5 L 703 712.5 L 707.5 706 L 711.5 704 Z " /><path fill="rgb(0,0,0)" stroke="rgb(0,0,0)" stroke-width="1" opacity="1" d="M 590.5 753 Q 597.1 753.4 600 757.5 L 603 764.5 L 598.5 773 L 591.5 776 Q 585 774.5 582 769.5 L 581 761.5 L 587.5 754 L 590.5 753 Z " /></svg>