<svg width="1181" height="1181" version="1.1" xmlns="http://www.w3.org/2000/svg" desc="Created with imagetracer.js version 1.2.6" ><path fill="rgb(0,0,0)" stroke="rgb(0,0,0)" stroke-width="1" opacity="0.9058823529411765" d="M 590.5 319 Q 595.9 318.4 598 320 L 690.5 480 L 865.5 579 L 873 584.5 Q 874.5 591.5 870.5 593 L 731.5 674 L 703.5 688 L 696 693.5 L 677 729.5 L 598 861.5 L 593.5 867 Q 586.5 868.5 585 864.5 L 483.5 682 L 463.5 672 L 325 588.5 L 324 583.5 L 327.5 579 L 494 486.5 L 587 322.5 L 590.5 319 Z M 594 337 L 515 474 L 516 475 L 599 429 L 602 429 L 608 432 L 669 467 L 670 468 L 594 337 Z M 600 442 L 505 495 L 499 502 L 448 592 L 495 678 L 588 738 L 589 740 L 508 696 L 506 696 L 589 847 L 592 848 L 664 727 L 679 704 L 681 701 L 609 739 L 607 740 L 690 687 L 745 603 L 747 602 L 707 675 L 854 588 L 703 501 L 701 501 L 746 586 L 747 587 L 687 494 L 678 486 L 600 442 Z M 480 509 L 343 586 L 473 663 L 435 595 Q 434 588 437 586 L 481 510 L 480 509 Z " /><path fill="rgb(0,0,0)" stroke="rgb(0,0,0)" stroke-width="1" opacity="0.9058823529411765" d="M 752.5 408 Q 765 407 769 414.5 Q 772.7 418.8 771 428.5 L 764.5 437 Q 760.5 440.5 751.5 439 L 743 432.5 Q 739.9 428.1 741 419.5 L 746.5 411 L 752.5 408 Z " /><path fill="rgb(0,0,0)" stroke="rgb(0,0,0)" stroke-width="1" opacity="0.9058823529411765" d="M 427.5 411 Q 439.7 409.3 444 415.5 Q 449 419.5 448 429.5 Q 446.2 436.7 440.5 440 Q 436.9 442.9 429.5 442 Q 422.3 440.2 419 434.5 Q 416.1 430.9 417 423.5 L 422.5 414 L 427.5 411 Z " /><path fill="rgb(0,0,0)" stroke="rgb(0,0,0)" stroke-width="1" opacity="0.9058823529411765" d="M 591.5 554 Q 613.9 553.1 622 566.5 L 628 579.5 L 628 591.5 Q 625.5 603.5 617.5 610 Q 609.7 617.7 594.5 618 Q 593.3 615.8 588.5 617 L 579.5 613 L 571 605.5 Q 562.8 597.2 565 578.5 Q 568.3 566.3 577.5 560 L 591.5 554 Z " /><path fill="rgb(0,0,0)" stroke="rgb(0,0,0)" stroke-width="1" opacity="0.9058823529411765" d="M 419.5 739 L 426.5 739 L 436 746.5 Q 439 750.5 438 758.5 L 432.5 767 Q 428.7 771.7 418.5 770 L 411 765.5 L 407 757.5 L 407 752.5 Q 408.4 744.4 414.5 741 L 419.5 739 Z " /><path fill="rgb(0,0,0)" stroke="rgb(0,0,0)" stroke-width="1" opacity="0.9058823529411765" d="M 590.5 740 L 591.5 742 L 590.5 740 Z " /><path fill="rgb(0,0,0)" stroke="rgb(0,0,0)" stroke-width="1" opacity="0.9058823529411765" d="M 747.5 745 Q 760.1 744.4 764 752.5 Q 767 756.5 766 764.5 L 759.5 774 Q 755.2 777.7 745.5 776 L 738 770.5 L 735 763.5 L 735 758.5 Q 736.2 750.2 742.5 747 L 747.5 745 Z " /><path fill="rgb(0,0,0)" stroke="rgb(0,0,0)" stroke-width="1" opacity="0" d="M 0 0 L 1181 0 L 1181 1181 L 0 1181 L 0 0 Z M 591 319 L 587 323 L 494 487 L 328 579 L 324 584 L 325 589 L 464 672 L 484 682 L 585 865 Q 587 869 594 867 L 598 862 L 677 730 L 696 694 L 704 688 L 732 674 L 871 593 Q 875 592 873 585 L 866 579 L 691 480 L 598 320 Q 596 318 591 319 Z M 753 408 L 747 411 L 741 420 Q 740 428 743 433 L 752 439 Q 761 441 765 437 L 771 429 Q 773 419 769 415 Q 765 407 753 408 Z M 428 411 L 423 414 L 417 424 Q 416 431 419 435 Q 422 440 430 442 Q 437 443 441 440 Q 446 437 448 430 Q 449 419 444 416 Q 440 409 428 411 Z M 420 739 L 415 741 Q 408 744 407 753 L 407 758 L 411 766 L 419 770 Q 429 772 433 767 L 438 759 Q 439 751 436 747 L 427 739 L 420 739 Z M 748 745 L 743 747 Q 736 750 735 759 L 735 764 L 738 771 L 746 776 Q 755 778 760 774 L 766 765 Q 767 757 764 753 Q 760 744 748 745 Z " /><path fill="rgb(0,0,0)" stroke="rgb(0,0,0)" stroke-width="1" opacity="0" d="M 593.5 337 L 670 467.5 L 668.5 467 L 607.5 432 L 601.5 429 L 598.5 429 L 515.5 475 L 515 473.5 L 593.5 337 Z " /><path fill="rgb(0,0,0)" stroke="rgb(0,0,0)" stroke-width="1" opacity="0" d="M 599.5 442 L 677.5 486 L 687 493.5 L 741.5 579 L 742 577.5 L 701 500.5 L 702.5 501 L 854 587.5 L 742.5 653 L 706.5 676 L 707 674.5 L 743 607.5 L 741 608.5 L 689.5 687 L 610 737.5 L 611.5 738 L 680.5 701 L 679 703.5 L 664 726.5 L 592 848 L 589 846.5 L 506 695.5 L 507.5 696 L 585.5 738 L 584.5 736 L 495 677.5 L 448 591.5 L 499 501.5 L 504.5 495 L 599.5 442 Z M 592 554 L 578 560 Q 568 566 565 579 Q 563 597 571 606 L 580 613 L 589 617 Q 593 616 595 618 Q 610 618 618 610 Q 626 604 628 592 L 628 580 L 622 567 Q 614 553 592 554 Z M 743 579 L 742 581 L 744 582 L 743 579 Z " /><path fill="rgb(0,0,0)" stroke="rgb(0,0,0)" stroke-width="1" opacity="0" d="M 479.5 509 L 481 509.5 L 437 585.5 Q 434.2 588.2 435 594.5 L 474 663.5 L 472.5 663 L 343 585.5 L 479.5 509 Z " /></svg>