<svg width="1181" height="1181" version="1.1" xmlns="http://www.w3.org/2000/svg" desc="Created with imagetracer.js version 1.2.6" ><path fill="rgb(0,0,0)" stroke="rgb(0,0,0)" stroke-width="1" opacity="0" d="M 0 0 L 1181 0 L 1181 1181 L 0 1181 L 0 0 Z M 582 344 L 581 345 L 571 345 L 570 346 L 563 346 L 547 349 L 508 361 Q 468 378 439 404 Q 401 437 378 486 L 365 521 L 359 547 L 358 559 L 357 560 L 357 569 L 356 570 L 356 611 L 357 612 L 358 628 L 365 660 L 372 681 Q 392 730 426 765 Q 455 794 494 813 Q 512 822 534 828 L 556 833 L 577 835 L 578 836 L 617 836 L 618 835 L 634 834 L 658 829 L 683 821 Q 721 805 750 778 Q 773 757 790 730 L 790 728 L 778 743 Q 745 780 697 802 L 659 816 L 638 821 L 625 822 L 624 823 L 615 823 L 614 824 L 581 824 L 580 823 L 564 822 L 536 816 L 518 810 Q 477 794 448 768 Q 420 743 400 711 Q 381 679 372 637 L 372 631 L 378 623 Q 388 610 403 601 Q 412 596 425 593 Q 442 591 453 596 L 468 605 Q 480 619 497 629 L 516 637 L 527 638 L 528 639 L 541 638 L 553 635 L 566 629 L 571 625 L 583 611 L 586 612 Q 594 613 598 611 L 597 623 L 592 640 L 583 656 Q 574 667 559 673 L 539 678 L 517 679 L 507 681 Q 492 685 483 694 Q 473 703 467 716 L 462 730 L 461 741 L 460 742 L 460 755 L 462 763 L 471 782 L 473 783 L 469 768 L 469 759 L 468 758 L 469 736 L 474 722 L 475 726 L 483 731 L 490 730 L 495 724 Q 496 717 493 715 L 486 710 L 480 711 L 482 707 Q 490 696 503 691 L 518 687 L 540 686 L 554 683 Q 570 679 582 669 Q 597 655 603 632 L 602 610 L 606 607 L 611 601 Q 610 598 613 599 Q 631 616 637 647 L 636 660 L 632 673 L 622 690 L 604 712 Q 598 721 595 735 L 595 753 L 597 762 Q 602 777 611 789 Q 624 806 651 811 L 653 811 Q 637 804 626 792 Q 608 778 603 752 L 603 736 L 606 726 L 611 716 Q 625 702 635 685 L 643 666 L 645 655 L 645 646 L 643 635 L 634 614 Q 626 602 613 596 L 614 591 Q 614 581 609 576 Q 605 569 596 568 L 594 567 Q 595 562 593 561 L 593 545 L 594 544 L 595 533 L 604 518 Q 613 506 627 499 Q 642 490 662 485 Q 674 480 683 472 Q 692 463 697 451 L 702 430 L 702 417 L 699 401 Q 694 388 686 380 L 681 375 L 679 375 L 688 393 L 694 417 Q 695 444 683 460 L 668 473 L 658 478 L 649 480 L 632 487 L 611 500 Q 593 512 586 536 L 586 550 L 592 567 Q 582 566 577 571 L 568 582 L 567 594 L 562 595 L 537 595 L 523 592 Q 509 587 500 579 Q 489 570 484 556 L 482 547 L 482 522 L 481 521 L 481 512 L 479 501 L 471 478 L 464 467 Q 455 453 437 449 L 417 449 L 416 450 L 414 450 L 429 431 Q 467 388 528 367 Q 544 372 555 383 Q 565 391 571 402 L 578 417 L 581 433 Q 579 436 580 443 L 577 453 L 571 464 L 551 491 Q 542 506 538 527 Q 536 553 548 565 Q 556 573 568 579 L 569 579 Q 552 566 546 543 L 546 528 L 550 512 L 561 490 L 576 471 L 584 457 L 588 444 L 588 435 L 589 434 L 587 419 L 584 410 Q 579 396 570 387 Q 558 371 536 367 Q 532 368 533 365 L 559 359 L 572 358 L 573 357 L 583 357 L 584 356 L 611 356 L 612 357 L 630 358 L 658 364 L 674 369 Q 716 385 747 412 Q 792 452 815 515 Q 813 526 808 534 L 798 548 Q 784 567 758 573 L 741 573 L 730 570 L 690 546 L 677 541 L 655 537 L 637 539 Q 627 542 621 548 Q 611 557 606 570 L 607 571 L 609 568 Q 618 557 632 550 L 642 546 Q 648 548 650 545 L 663 546 L 681 551 L 696 558 L 716 572 L 726 577 L 735 580 L 749 581 L 750 582 L 770 578 Q 783 573 793 565 L 808 548 L 815 527 Q 814 519 817 520 L 827 559 L 828 570 L 829 571 L 829 579 L 830 580 L 830 597 L 831 598 L 830 622 L 827 638 L 828 642 L 832 623 L 833 610 L 834 609 L 834 599 L 835 598 L 835 560 L 834 559 L 833 543 L 827 515 L 821 497 Q 802 450 770 418 Q 734 380 682 359 L 657 351 L 632 346 L 615 345 L 614 344 L 582 344 Z M 545 419 L 543 420 L 538 426 L 539 435 L 545 439 Q 552 440 555 437 L 558 433 L 557 424 Q 555 417 545 419 Z M 658 430 L 655 431 L 649 438 Q 648 444 651 447 L 658 451 L 665 450 L 670 444 L 669 436 L 662 430 L 658 430 Z M 562 516 L 560 517 Q 555 520 554 526 L 556 532 L 562 536 Q 569 537 572 534 L 575 530 L 574 521 Q 572 514 562 516 Z M 615 517 L 613 518 L 608 524 Q 607 531 610 534 L 616 537 L 624 536 L 629 529 Q 629 522 626 519 L 623 517 L 615 517 Z M 745 522 L 740 524 L 735 531 L 736 538 L 743 543 Q 750 544 753 541 L 756 535 L 754 527 Q 751 522 745 522 Z M 648 548 L 643 550 L 638 557 L 639 564 L 646 569 L 654 568 L 658 564 L 659 560 L 656 551 L 648 548 Z M 517 550 L 515 551 L 510 556 L 509 560 L 511 567 L 516 570 Q 522 571 526 569 L 530 563 Q 531 556 528 554 Q 526 548 517 550 Z M 634 583 L 616 589 L 616 590 L 620 589 L 638 589 L 648 591 L 663 598 Q 674 608 682 622 L 692 646 L 697 668 L 706 685 Q 720 704 750 709 L 773 709 L 778 708 Q 792 703 803 694 L 806 690 L 790 697 L 772 701 L 751 701 L 746 700 Q 731 697 722 689 Q 712 681 706 669 L 696 633 Q 689 615 678 602 Q 669 591 656 585 Q 647 581 634 583 Z M 655 605 L 650 607 L 645 615 L 646 621 L 653 626 L 661 625 L 666 618 Q 667 612 664 610 L 658 605 L 655 605 Z M 420 616 L 418 617 L 413 622 L 412 626 L 415 634 L 422 637 L 428 636 L 433 630 L 432 622 Q 430 615 420 616 Z M 609 639 L 607 640 L 601 647 L 602 655 L 608 659 Q 616 661 619 657 L 622 652 L 621 645 Q 619 638 609 639 Z M 562 640 L 557 642 L 553 647 L 554 656 L 562 661 Q 567 662 570 659 L 573 655 L 573 647 L 571 643 Q 568 640 562 640 Z M 827 643 L 826 646 L 827 646 L 827 643 Z M 826 647 L 825 650 L 826 650 L 826 647 Z M 750 649 L 743 652 L 740 660 L 742 666 L 748 670 Q 755 671 758 668 L 761 663 L 760 655 Q 757 650 750 649 Z M 794 722 L 792 725 L 794 724 L 794 722 Z M 792 725 L 790 728 L 792 727 L 792 725 Z M 631 733 L 627 735 L 623 740 L 623 748 L 625 751 L 633 754 L 639 752 L 643 747 L 642 738 Q 639 732 631 733 Z " /><path fill="rgb(0,0,0)" stroke="rgb(0,0,0)" stroke-width="1" opacity="0" d="M 412 451 Q 423.9 451.3 433.5 455 L 444.5 460 L 456 469.5 Q 466.6 482.4 471 501.5 L 473 512.5 L 473 521.5 L 474 522.5 L 474 547.5 L 478 562.5 Q 484.3 577.7 496.5 587 Q 508.3 596.2 524.5 601 L 535.5 602 L 536.5 603 L 548.5 603 L 567.5 597 L 576.5 608 L 579 609.5 L 568.5 618 L 555.5 625 Q 544.2 630.7 527.5 631 L 516.5 629 L 500.5 622 Q 483.4 611.6 470.5 597 L 456.5 589 L 443.5 585 L 423.5 585 Q 392.9 591.4 377 612.5 L 372 623 Q 368.7 624.3 370 619.5 L 368 608.5 L 368 572.5 L 369 571.5 L 369 562.5 L 370 561.5 L 370 554.5 L 373 538.5 L 380 513.5 Q 392.6 478.2 412 451 Z M 429 482 L 427 483 L 421 491 Q 420 496 423 499 L 430 503 L 438 501 L 442 495 L 441 488 Q 439 481 429 482 Z M 521 605 L 517 606 L 511 613 L 512 621 L 519 626 L 527 625 L 531 621 L 532 617 L 529 608 L 521 605 Z " /><path fill="rgb(0,0,0)" stroke="rgb(0,0,0)" stroke-width="1" opacity="0.9490196078431372" d="M 581.5 344 L 613.5 344 L 614.5 345 L 631.5 346 L 656.5 351 L 681.5 359 Q 734.4 379.6 770 417.5 Q 802.1 450.4 821 496.5 L 827 514.5 L 833 542.5 L 834 558.5 L 835 559.5 L 835 597.5 L 834 598.5 L 834 608.5 L 833 609.5 L 832 622.5 L 827.5 642 L 827 637.5 L 830 621.5 L 831 597.5 L 830 596.5 L 830 579.5 L 829 578.5 L 829 570.5 L 828 569.5 L 827 558.5 L 817 520 Q 813.5 518.9 815 526.5 L 808 547.5 L 792.5 565 Q 782.7 573.2 769.5 578 L 749.5 582 L 748.5 581 L 734.5 580 L 725.5 577 L 715.5 572 L 695.5 558 L 680.5 551 L 662.5 546 L 649.5 545 Q 647.8 547.7 641.5 546 L 631.5 550 Q 618.2 556.7 609 567.5 L 606.5 571 L 606 569.5 Q 611.4 556.9 620.5 548 Q 626.9 541.9 636.5 539 L 654.5 537 L 676.5 541 L 689.5 546 L 729.5 570 L 740.5 573 L 757.5 573 Q 784.3 566.8 798 547.5 L 808 533.5 Q 813.5 526 815 514.5 Q 792.2 451.8 746.5 412 Q 715.7 384.8 673.5 369 L 657.5 364 L 629.5 358 L 611.5 357 L 610.5 356 L 583.5 356 L 582.5 357 L 572.5 357 L 571.5 358 L 558.5 359 L 533 365 Q 531.8 368 535.5 367 Q 558 371.5 570 386.5 Q 578.9 396.1 584 409.5 L 587 418.5 L 589 433.5 L 588 434.5 L 588 443.5 L 584 456.5 L 576 470.5 L 561 489.5 L 550 511.5 L 546 527.5 L 546 542.5 Q 552.5 566 569.5 579 L 576.5 571 Q 581.9 566.4 592 566.5 L 586 549.5 L 586 535.5 Q 592.9 512.4 610.5 500 L 631.5 487 L 648.5 480 L 657.5 478 L 667.5 473 L 683 459.5 Q 694.8 444.3 694 416.5 L 688 392.5 Q 684.1 380.9 677 372.5 L 680.5 375 L 686 379.5 Q 694.3 388.2 699 400.5 L 702 416.5 L 702 429.5 L 697 450.5 Q 691.9 463.4 682.5 472 Q 673.8 480.3 661.5 485 Q 641.5 489.5 626.5 499 Q 613.4 506.4 604 517.5 L 595 532.5 L 594 543.5 L 593 544.5 L 593 560.5 Q 595.3 561.8 594 566.5 L 595.5 568 Q 604.7 569.3 609 575.5 Q 613.6 580.9 614 590.5 L 613 595.5 Q 625.6 602.4 634 613.5 L 643 634.5 L 645 645.5 L 645 654.5 L 643 665.5 L 635 684.5 Q 624.6 701.6 611 715.5 L 606 725.5 L 603 735.5 L 603 751.5 Q 608.2 777.8 625.5 792 Q 636.8 803.7 653 810.5 L 650.5 811 Q 624 806.5 611 788.5 Q 601.7 777.3 597 761.5 L 595 752.5 L 595 734.5 Q 597.6 721.1 604 711.5 L 622 689.5 L 632 672.5 L 636 659.5 L 637 646.5 Q 631.3 616.3 612.5 599 Q 610.3 598.3 611 600.5 L 605.5 607 L 602 609.5 L 603 631.5 Q 597.1 655.1 581.5 669 Q 570.2 678.7 553.5 683 L 539.5 686 L 517.5 687 L 502.5 691 Q 489.9 696.4 482 706.5 L 480 711 L 485.5 710 L 493 714.5 Q 495.8 717.2 495 723.5 L 489.5 730 L 482.5 731 L 475 725.5 L 473.5 722 L 469 735.5 L 468 757.5 L 469 758.5 L 470 772.5 L 474 783.5 L 471 781.5 L 462 762.5 L 460 754.5 L 460 741.5 L 461 740.5 L 462 729.5 L 467 715.5 Q 472.9 702.9 482.5 694 Q 492.2 685.2 506.5 681 L 516.5 679 L 538.5 678 L 558.5 673 Q 573.9 667.4 583 655.5 L 592 639.5 L 597 622.5 L 598 611 Q 594.4 613.3 585.5 612 L 582.5 611 L 570.5 625 L 565.5 629 L 552.5 635 L 540.5 638 L 527.5 639 L 526.5 638 L 515.5 637 L 496.5 629 Q 479.9 619.1 467.5 605 L 452.5 596 Q 442.1 590.9 424.5 593 Q 412 595.5 402.5 601 Q 388.2 609.7 378 622.5 L 372 630.5 L 372 636.5 Q 380.9 678.6 400 710.5 Q 419.6 743.4 447.5 768 Q 477.2 794.3 517.5 810 L 535.5 816 L 563.5 822 L 579.5 823 L 580.5 824 L 613.5 824 L 614.5 823 L 623.5 823 L 624.5 822 L 637.5 821 L 658.5 816 L 696.5 802 Q 745 780 778 742.5 L 797.5 716 L 797 717.5 Q 777.6 752.1 749.5 778 Q 721.1 804.6 682.5 821 L 657.5 829 L 633.5 834 L 617.5 835 L 616.5 836 L 577.5 836 L 576.5 835 L 555.5 833 L 533.5 828 Q 512 822 493.5 813 Q 454.6 793.9 426 764.5 Q 391.6 729.9 372 680.5 L 365 659.5 L 358 627.5 L 357 611.5 L 356 610.5 L 356 569.5 L 357 568.5 L 357 559.5 L 358 558.5 L 359 546.5 L 365 520.5 L 378 485.5 Q 400.8 437.3 438.5 404 Q 468 377.5 507.5 361 L 546.5 349 L 562.5 346 L 569.5 346 L 570.5 345 L 580.5 345 L 581.5 344 Z M 528 367 Q 478 383 445 415 Q 428 430 415 449 L 415 450 L 417 449 L 437 449 Q 447 451 454 456 Q 469 468 476 490 L 481 512 L 482 547 L 483 552 Q 486 564 493 573 Q 508 590 537 595 L 562 595 L 567 594 Q 566 585 569 579 L 553 569 Q 541 560 538 544 L 538 527 L 544 505 Q 555 479 573 461 L 579 447 L 580 435 L 581 434 L 577 414 L 567 396 L 548 377 L 528 367 Z M 412 451 Q 393 478 380 514 L 373 539 L 370 555 L 370 562 L 369 563 L 369 572 L 368 573 L 368 609 L 370 620 Q 369 624 372 623 L 377 613 Q 393 591 424 585 L 444 585 L 457 589 L 471 597 Q 483 612 501 622 L 517 629 L 528 631 Q 544 631 556 625 L 569 618 L 579 610 L 577 608 L 568 597 L 549 603 L 537 603 L 536 602 L 525 601 Q 508 596 497 587 Q 484 578 478 563 L 474 548 L 474 523 L 473 522 L 473 513 L 471 502 Q 467 482 456 470 L 445 460 L 434 455 Q 424 451 412 451 Z " /><path fill="rgb(0,0,0)" stroke="rgb(0,0,0)" stroke-width="1" opacity="0.9490196078431372" d="M 544.5 419 Q 554.6 417.4 557 423.5 L 558 432.5 L 554.5 437 Q 551.5 440 544.5 439 L 539 434.5 L 538 425.5 L 542.5 420 L 544.5 419 Z " /><path fill="rgb(0,0,0)" stroke="rgb(0,0,0)" stroke-width="1" opacity="0.9490196078431372" d="M 657.5 430 L 661.5 430 L 669 435.5 L 670 443.5 L 664.5 450 L 657.5 451 L 651 446.5 Q 648.2 443.8 649 437.5 L 654.5 431 L 657.5 430 Z " /><path fill="rgb(0,0,0)" stroke="rgb(0,0,0)" stroke-width="1" opacity="0.9490196078431372" d="M 428.5 482 Q 438.9 480.6 441 487.5 L 442 494.5 L 437.5 501 L 429.5 503 L 423 498.5 Q 420.3 496.2 421 490.5 L 426.5 483 L 428.5 482 Z " /><path fill="rgb(0,0,0)" stroke="rgb(0,0,0)" stroke-width="1" opacity="0.9490196078431372" d="M 561.5 516 Q 571.6 514.4 574 520.5 L 575 529.5 L 571.5 534 Q 568.5 537 561.5 536 L 556 531.5 L 554 525.5 Q 555.3 519.8 559.5 517 L 561.5 516 Z " /><path fill="rgb(0,0,0)" stroke="rgb(0,0,0)" stroke-width="1" opacity="0.9490196078431372" d="M 614.5 517 L 622.5 517 L 626 519 Q 628.7 522 629 528.5 L 623.5 536 L 615.5 537 L 610 534 Q 607.1 531.1 608 523.5 L 612.5 518 L 614.5 517 Z " /><path fill="rgb(0,0,0)" stroke="rgb(0,0,0)" stroke-width="1" opacity="0.9490196078431372" d="M 744.5 522 Q 751.1 522.4 754 526.5 L 756 534.5 L 753 541 Q 750.1 543.9 742.5 543 L 736 537.5 L 735 530.5 L 739.5 524 L 744.5 522 Z " /><path fill="rgb(0,0,0)" stroke="rgb(0,0,0)" stroke-width="1" opacity="0.9490196078431372" d="M 647.5 548 L 656 551 L 659 559.5 L 658 563.5 L 653.5 568 L 645.5 569 L 639 563.5 L 638 556.5 L 642.5 550 L 647.5 548 Z " /><path fill="rgb(0,0,0)" stroke="rgb(0,0,0)" stroke-width="1" opacity="0.9490196078431372" d="M 516.5 550 Q 525.5 548.5 528 553.5 Q 530.8 556.2 530 562.5 L 525.5 569 Q 522.3 571.3 515.5 570 L 511 566.5 L 509 559.5 L 510 555.5 L 514.5 551 L 516.5 550 Z " /><path fill="rgb(0,0,0)" stroke="rgb(0,0,0)" stroke-width="1" opacity="0.9490196078431372" d="M 633.5 583 Q 647.5 581 655.5 585 Q 669.2 590.8 678 601.5 Q 689.2 614.8 696 632.5 L 706 668.5 Q 711.6 680.9 721.5 689 Q 731.2 696.8 745.5 700 L 750.5 701 L 771.5 701 L 792.5 696 L 806.5 689 L 802.5 694 Q 792.4 703.4 777.5 708 L 772.5 709 L 749.5 709 Q 720.3 704.2 706 684.5 L 697 667.5 L 692 645.5 L 682 621.5 Q 674.4 607.6 662.5 598 L 647.5 591 L 637.5 589 L 619.5 589 L 615.5 590 L 615.5 589 L 633.5 583 Z " /><path fill="rgb(0,0,0)" stroke="rgb(0,0,0)" stroke-width="1" opacity="0.9490196078431372" d="M 520.5 605 L 529 608 L 532 616.5 L 531 620.5 L 526.5 625 L 518.5 626 L 512 620.5 L 511 612.5 L 516.5 606 L 520.5 605 Z " /><path fill="rgb(0,0,0)" stroke="rgb(0,0,0)" stroke-width="1" opacity="0.9490196078431372" d="M 654.5 605 L 657.5 605 L 664 609.5 Q 666.7 611.8 666 617.5 L 660.5 625 L 652.5 626 L 646 620.5 L 645 614.5 L 649.5 607 L 654.5 605 Z " /><path fill="rgb(0,0,0)" stroke="rgb(0,0,0)" stroke-width="1" opacity="0.9490196078431372" d="M 419.5 616 Q 429.9 614.6 432 621.5 L 433 629.5 L 427.5 636 L 421.5 637 L 415 634 L 412 625.5 L 413 621.5 L 417.5 617 L 419.5 616 Z " /><path fill="rgb(0,0,0)" stroke="rgb(0,0,0)" stroke-width="1" opacity="0.9490196078431372" d="M 608.5 639 Q 618.9 637.6 621 644.5 L 622 651.5 L 618.5 657 Q 615.6 660.6 607.5 659 L 602 654.5 L 601 646.5 L 606.5 640 L 608.5 639 Z " /><path fill="rgb(0,0,0)" stroke="rgb(0,0,0)" stroke-width="1" opacity="0.9490196078431372" d="M 561.5 640 Q 568 640.3 571 643 L 573 646.5 L 573 654.5 L 569.5 659 Q 567.2 661.7 561.5 661 L 554 655.5 L 553 646.5 L 556.5 642 L 561.5 640 Z " /><path fill="rgb(0,0,0)" stroke="rgb(0,0,0)" stroke-width="1" opacity="0.9490196078431372" d="M 826.5 643 L 827 645.5 L 826 645.5 L 826.5 643 Z " /><path fill="rgb(0,0,0)" stroke="rgb(0,0,0)" stroke-width="1" opacity="0.9490196078431372" d="M 825.5 647 L 826 649.5 L 825 649.5 L 825.5 647 Z " /><path fill="rgb(0,0,0)" stroke="rgb(0,0,0)" stroke-width="1" opacity="0.9490196078431372" d="M 749.5 649 Q 757 649.5 760 654.5 L 761 662.5 L 757.5 668 Q 754.5 671 747.5 670 L 742 665.5 L 740 659.5 L 743 652 L 749.5 649 Z " /><path fill="rgb(0,0,0)" stroke="rgb(0,0,0)" stroke-width="1" opacity="0.9490196078431372" d="M 630.5 733 Q 639.4 732.1 642 737.5 L 643 746.5 L 638.5 752 L 632.5 754 L 625 751 L 623 747.5 L 623 739.5 L 626.5 735 L 630.5 733 Z " /></svg>