<svg width="1181" height="1181" version="1.1" xmlns="http://www.w3.org/2000/svg" desc="Created with imagetracer.js version 1.2.6" ><path fill="rgb(0,0,0)" stroke="rgb(0,0,0)" stroke-width="1" opacity="0" d="M 0 0 L 1181 0 L 1181 1181 L 0 1181 L 0 0 Z M 496 340 L 491 342 L 485 349 Q 484 356 486 360 L 494 365 L 503 364 Q 508 362 509 356 L 508 347 Q 505 340 496 340 Z M 688 345 L 686 346 Q 680 348 679 355 Q 678 362 681 365 Q 684 369 690 370 L 698 368 L 703 362 Q 705 354 702 351 Q 699 344 688 345 Z M 593 362 L 435 427 L 370 585 L 435 742 L 448 748 L 594 808 L 750 743 L 753 738 L 816 585 L 751 444 L 750 444 L 801 583 L 802 584 L 766 582 L 765 581 L 616 581 L 612 572 L 712 472 L 741 438 L 741 436 L 709 463 L 607 565 L 597 562 L 597 415 L 596 414 L 595 388 L 594 387 L 595 376 L 734 428 L 736 428 L 593 362 Z M 354 464 L 351 465 Q 346 468 344 475 Q 343 481 346 484 Q 349 488 356 489 L 363 487 Q 367 484 369 478 L 367 470 Q 365 462 354 464 Z M 817 470 L 814 471 Q 808 474 807 482 Q 807 488 810 491 L 815 494 L 819 495 L 828 492 L 832 485 Q 833 477 829 474 Q 826 469 817 470 Z M 351 672 L 347 674 L 342 681 Q 341 687 343 691 Q 346 695 353 697 L 361 695 L 366 688 Q 367 680 364 677 Q 361 671 351 672 Z M 832 674 L 829 675 Q 823 678 822 686 L 825 695 L 831 698 Q 839 699 843 696 L 847 689 Q 848 681 844 678 Q 841 673 832 674 Z M 687 810 L 685 811 L 679 818 Q 678 825 680 829 L 687 834 L 695 834 L 700 831 L 703 825 Q 704 818 701 815 Q 698 808 687 810 Z M 488 816 L 482 818 L 476 825 Q 475 832 477 836 L 484 841 Q 490 842 494 840 Q 499 838 500 832 Q 501 825 498 822 Q 495 817 488 816 Z " /><path fill="rgb(0,0,0)" stroke="rgb(0,0,0)" stroke-width="1" opacity="0" d="M 591.5 376 L 592 385.5 L 591 386.5 L 590 411.5 L 589 412.5 L 589 562 L 578.5 565 L 478.5 465 L 446 437.5 Q 445.2 434.9 448.5 436 L 591.5 376 Z " /><path fill="rgb(0,0,0)" stroke="rgb(0,0,0)" stroke-width="1" opacity="0" d="M 444.5 438 L 473 471.5 L 566.5 565 L 573 570.5 L 570 581 L 419.5 581 L 418.5 582 L 405.5 582 L 404.5 583 L 384.5 584 L 385 582.5 L 444.5 438 Z " /><path fill="rgb(0,0,0)" stroke="rgb(0,0,0)" stroke-width="1" opacity="0" d="M 384.5 585 L 385.5 586 L 422.5 588 L 423.5 589 L 570 589 L 570 592.5 L 573 598.5 L 472 700.5 L 445.5 732 L 432 702.5 L 388 596.5 L 384.5 585 Z " /><path fill="rgb(0,0,0)" stroke="rgb(0,0,0)" stroke-width="1" opacity="0" d="M 789.5 586 L 800.5 586 L 801 588.5 L 742 731 L 739 729.5 L 713 698.5 L 613 597.5 L 616 589 L 761.5 589 L 762.5 588 L 775.5 588 L 776.5 587 L 788.5 587 L 789.5 586 Z " /><path fill="rgb(0,0,0)" stroke="rgb(0,0,0)" stroke-width="1" opacity="0" d="M 578.5 605 L 589 609.5 L 589 756.5 L 590 757.5 L 590 770.5 L 591 771.5 L 592 793 L 447 734 L 450.5 729 Q 493.1 695.6 529 655.5 L 578.5 605 Z " /><path fill="rgb(0,0,0)" stroke="rgb(0,0,0)" stroke-width="1" opacity="0" d="M 605.5 605 L 607.5 605 L 707.5 705 L 740 732.5 L 736.5 735 L 606.5 789 L 594 793 L 595 768.5 L 596 767.5 L 596 754.5 L 597 753.5 L 597 608 Q 602.7 608.7 605.5 605 Z " /><path fill="rgb(0,0,0)" stroke="rgb(0,0,0)" stroke-width="1" opacity="1" d="M 494.5 341 L 499.5 341 L 506 345.5 L 509 352.5 Q 507.9 359.9 502.5 363 L 496.5 365 L 488 360.5 Q 485 357.5 485 351.5 Q 486.3 345.8 490.5 343 L 494.5 341 Z " /><path fill="rgb(0,0,0)" stroke="rgb(0,0,0)" stroke-width="1" opacity="1" d="M 690.5 345 Q 698 345.5 701 350.5 L 703 358.5 Q 701.8 364.3 697.5 367 Q 694.8 369.8 688.5 369 L 682 364.5 Q 678.8 361.2 680 353.5 L 685.5 347 L 690.5 345 Z " /><path fill="rgb(0,0,0)" stroke="rgb(0,0,0)" stroke-width="1" opacity="1" d="M 592.5 363 L 716 419.5 L 714.5 420 L 597.5 376 L 589.5 376 L 445 436.5 L 443 439.5 L 385 578.5 L 384 588.5 L 439 719.5 L 443 732 L 446 732 Q 444.3 736.1 448.5 735 L 589.5 794 L 596.5 794 L 741 734 L 741 731 Q 743.7 732.1 743 729.5 L 802 588.5 L 802 580.5 L 759 465.5 L 760 465.5 L 815 584.5 L 750 742 L 600.5 804 L 595.5 806 L 590.5 806 L 436 742 L 371 584.5 L 436.5 428 L 592.5 363 Z " /><path fill="rgb(0,0,0)" stroke="rgb(0,0,0)" stroke-width="1" opacity="1" d="M 592.5 382 L 594 384.5 L 597 430.5 L 596 431.5 L 596 561.5 L 604.5 566 L 607.5 566 L 704.5 468 L 734.5 442 L 733 444.5 L 714 467.5 L 612 570.5 L 612 573.5 L 615 581 L 755.5 581 L 756.5 582 L 768.5 582 L 769.5 583 L 782.5 583 L 783.5 584 L 795 584.5 L 792.5 586 L 766.5 587 L 765.5 588 L 616.5 588 L 615 589.5 L 612 599.5 L 716 703.5 L 735 725.5 L 733.5 725 L 704.5 701 L 607.5 604 L 605.5 604 L 596 608 L 596 757.5 L 595 758.5 L 594 784.5 L 592.5 787 L 592 775.5 L 591 774.5 L 591 761.5 L 590 760.5 L 590 747.5 L 589 746.5 L 589 608.5 L 587.5 607 L 578.5 604 L 476.5 706 L 451.5 727 L 457 720.5 L 476 697.5 L 574 599.5 L 574 597.5 L 570 588 L 419.5 588 L 418.5 587 L 393.5 586 L 389 584.5 L 414.5 583 L 415.5 582 L 428.5 582 L 429.5 581 L 571 581 L 574 570.5 L 471 467.5 L 452 444.5 L 458.5 450 L 481.5 469 L 578.5 566 L 581.5 566 L 589 563 L 589 422.5 L 590 421.5 L 590 408.5 L 591 407.5 L 592.5 382 Z " /><path fill="rgb(0,0,0)" stroke="rgb(0,0,0)" stroke-width="1" opacity="1" d="M 757.5 460 L 759 463.5 L 758 463.5 L 757.5 460 Z " /><path fill="rgb(0,0,0)" stroke="rgb(0,0,0)" stroke-width="1" opacity="1" d="M 356.5 464 Q 363.1 464.9 366 469.5 Q 368.8 472.2 368 478.5 L 362.5 486 Q 360.2 488.7 354.5 488 Q 348.4 486.6 346 481.5 L 345 473.5 L 349.5 467 L 356.5 464 Z " /><path fill="rgb(0,0,0)" stroke="rgb(0,0,0)" stroke-width="1" opacity="1" d="M 819.5 470 Q 826.9 471.1 830 476.5 L 831 485.5 L 825.5 492 Q 823.2 494.7 817.5 494 Q 811.4 492.6 809 487.5 L 808 479.5 L 812.5 473 L 819.5 470 Z " /><path fill="rgb(0,0,0)" stroke="rgb(0,0,0)" stroke-width="1" opacity="1" d="M 353.5 672 Q 360.9 673.1 364 678.5 L 366 684.5 L 361.5 693 Q 358.9 696.9 351.5 696 L 344 690.5 L 342 683.5 Q 343.5 677 348.5 674 L 353.5 672 Z " /><path fill="rgb(0,0,0)" stroke="rgb(0,0,0)" stroke-width="1" opacity="1" d="M 833.5 674 Q 841.8 674.8 845 680.5 L 846 688.5 L 840.5 696 Q 838.2 698.7 832.5 698 L 825 692.5 Q 822.2 689.8 823 683.5 L 827.5 677 L 833.5 674 Z " /><path fill="rgb(0,0,0)" stroke="rgb(0,0,0)" stroke-width="1" opacity="1" d="M 689.5 810 Q 696 810.3 699 813 L 702 818.5 L 702 825.5 L 696.5 832 L 689.5 834 Q 683.8 832.8 681 828.5 Q 678.3 826.2 679 820.5 Q 680.3 814.8 684.5 812 L 689.5 810 Z " /><path fill="rgb(0,0,0)" stroke="rgb(0,0,0)" stroke-width="1" opacity="1" d="M 485.5 817 L 490.5 817 L 497 821.5 Q 500 824.5 499 831.5 L 493.5 839 L 486.5 841 L 478 835.5 Q 475.2 832.8 476 826.5 L 481.5 819 L 485.5 817 Z " /><path fill="rgb(0,0,0)" stroke="rgb(0,0,0)" stroke-width="1" opacity="0.6705882352941176" d="M 495.5 340 L 499 340.5 L 495.5 341 L 495.5 340 Z " /><path fill="rgb(0,0,0)" stroke="rgb(0,0,0)" stroke-width="1" opacity="0.6705882352941176" d="M 492.5 341 L 494 341.5 L 487 346.5 L 485.5 351 L 485 348.5 L 490.5 342 L 492.5 341 Z " /><path fill="rgb(0,0,0)" stroke="rgb(0,0,0)" stroke-width="1" opacity="0.6705882352941176" d="M 500.5 341 L 508 346.5 L 509 351.5 L 508 351.5 Q 507.4 345.6 503.5 343 Q 499.7 342.8 500.5 341 Z " /><path fill="rgb(0,0,0)" stroke="rgb(0,0,0)" stroke-width="1" opacity="0.6705882352941176" d="M 687.5 345 L 690 345.5 Q 684.4 346.4 682 350.5 L 680.5 353 L 680 351.5 L 687.5 345 Z " /><path fill="rgb(0,0,0)" stroke="rgb(0,0,0)" stroke-width="1" opacity="0.6705882352941176" d="M 692.5 345 L 695 345.5 L 692.5 346 L 692.5 345 Z " /><path fill="rgb(0,0,0)" stroke="rgb(0,0,0)" stroke-width="1" opacity="0.6705882352941176" d="M 696.5 346 L 702 350.5 L 703 354.5 L 702 354.5 Q 701.8 349.8 698.5 348 L 696.5 346 Z " /><path fill="rgb(0,0,0)" stroke="rgb(0,0,0)" stroke-width="1" opacity="0.6705882352941176" d="M 508.5 353 L 509 355.5 L 508 355.5 L 508.5 353 Z " /><path fill="rgb(0,0,0)" stroke="rgb(0,0,0)" stroke-width="1" opacity="0.6705882352941176" d="M 679.5 354 Q 679 363.5 684.5 367 L 688 368.5 L 686.5 369 L 681 364.5 Q 677.6 361 679.5 354 Z " /><path fill="rgb(0,0,0)" stroke="rgb(0,0,0)" stroke-width="1" opacity="0.6705882352941176" d="M 485.5 355 L 489.5 362 L 496 364.5 L 493.5 365 L 486 359.5 L 485.5 355 Z " /><path fill="rgb(0,0,0)" stroke="rgb(0,0,0)" stroke-width="1" opacity="0.6705882352941176" d="M 507.5 357 L 508 358.5 Q 505.6 364.6 497.5 365 L 497.5 364 Q 504.7 363.8 507 358.5 L 507.5 357 Z " /><path fill="rgb(0,0,0)" stroke="rgb(0,0,0)" stroke-width="1" opacity="0.6705882352941176" d="M 702.5 359 L 703 361.5 L 697.5 368 L 694.5 369 L 694.5 368 L 701 363.5 L 702.5 359 Z " /><path fill="rgb(0,0,0)" stroke="rgb(0,0,0)" stroke-width="1" opacity="0.6705882352941176" d="M 592.5 362 L 738 428.5 L 736.5 429 L 595 376.5 L 597.5 376 L 713.5 419 L 713.5 418 L 592.5 363 L 442.5 425 L 435 429.5 L 371 585.5 L 436 742 L 590.5 806 L 595.5 806 L 750 742 L 815 584.5 L 760.5 467 L 760 469.5 L 802 582.5 L 801 582.5 L 749 441.5 L 750 441.5 L 816 584.5 L 753 737.5 L 749.5 743 L 593.5 808 L 447.5 748 L 435 741.5 L 370 584.5 L 435 427 L 592.5 362 Z " /><path fill="rgb(0,0,0)" stroke="rgb(0,0,0)" stroke-width="1" opacity="0.6705882352941176" d="M 689.5 369 L 693 369.5 L 689.5 370 L 689.5 369 Z " /><path fill="rgb(0,0,0)" stroke="rgb(0,0,0)" stroke-width="1" opacity="0.6705882352941176" d="M 589.5 376 L 591 376.5 L 446 436 L 449.5 441 L 478.5 465 L 578.5 565 L 581.5 565 L 585.5 563 L 585.5 564 L 578.5 566 L 481.5 469 L 452.5 444 L 452 445.5 L 471 467.5 L 574 570.5 L 574 572.5 L 571.5 577 L 571 575.5 L 573 570.5 L 473 471.5 L 448 442.5 L 445 436.5 L 589.5 376 Z " /><path fill="rgb(0,0,0)" stroke="rgb(0,0,0)" stroke-width="1" opacity="0.6705882352941176" d="M 592 376 L 594 376.5 L 594 383.5 L 593 383.5 L 592 376 Z " /><path fill="rgb(0,0,0)" stroke="rgb(0,0,0)" stroke-width="1" opacity="0.6705882352941176" d="M 591.5 386 L 592 394.5 L 591 394.5 L 591.5 386 Z " /><path fill="rgb(0,0,0)" stroke="rgb(0,0,0)" stroke-width="1" opacity="0.6705882352941176" d="M 594.5 387 L 595 395.5 L 594 395.5 L 594.5 387 Z " /><path fill="rgb(0,0,0)" stroke="rgb(0,0,0)" stroke-width="1" opacity="0.6705882352941176" d="M 590.5 398 L 591 407.5 L 590 407.5 L 590.5 398 Z " /><path fill="rgb(0,0,0)" stroke="rgb(0,0,0)" stroke-width="1" opacity="0.6705882352941176" d="M 595.5 400 L 596 409.5 L 595 409.5 L 595.5 400 Z " /><path fill="rgb(0,0,0)" stroke="rgb(0,0,0)" stroke-width="1" opacity="0.6705882352941176" d="M 589.5 412 L 590 421.5 L 589 421.5 L 589.5 412 Z " /><path fill="rgb(0,0,0)" stroke="rgb(0,0,0)" stroke-width="1" opacity="0.6705882352941176" d="M 596.5 414 L 597 423.5 L 596 423.5 L 596.5 414 Z " /><path fill="rgb(0,0,0)" stroke="rgb(0,0,0)" stroke-width="1" opacity="0.6705882352941176" d="M 596.5 431 L 597 562 L 599 562.5 L 597.5 563 L 596 561.5 L 596.5 431 Z " /><path fill="rgb(0,0,0)" stroke="rgb(0,0,0)" stroke-width="1" opacity="0.6705882352941176" d="M 742.5 434 L 741 436.5 L 712 471.5 L 612.5 571 L 660 522.5 L 714 467.5 L 733 444.5 L 728.5 448 Q 700 470 676 496.5 L 607.5 566 Q 602 566.5 600 563.5 L 601.5 563 L 606.5 565 L 708.5 463 L 742.5 434 Z " /><path fill="rgb(0,0,0)" stroke="rgb(0,0,0)" stroke-width="1" opacity="0.6705882352941176" d="M 443.5 438 L 444 439.5 L 384.5 583 L 384 581.5 L 443.5 438 Z " /><path fill="rgb(0,0,0)" stroke="rgb(0,0,0)" stroke-width="1" opacity="0.6705882352941176" d="M 353.5 464 L 356 464.5 L 353.5 465 L 353.5 464 Z " /><path fill="rgb(0,0,0)" stroke="rgb(0,0,0)" stroke-width="1" opacity="0.6705882352941176" d="M 358.5 464 Q 364.9 464.7 367 469.5 L 368 472.5 L 367 472.5 L 362.5 466 L 358.5 465 L 358.5 464 Z " /><path fill="rgb(0,0,0)" stroke="rgb(0,0,0)" stroke-width="1" opacity="0.6705882352941176" d="M 350.5 465 L 352 465.5 L 347 469.5 L 345.5 473 L 345 471.5 L 350.5 465 Z " /><path fill="rgb(0,0,0)" stroke="rgb(0,0,0)" stroke-width="1" opacity="0.6705882352941176" d="M 816.5 470 L 819 470.5 L 816.5 471 L 816.5 470 Z " /><path fill="rgb(0,0,0)" stroke="rgb(0,0,0)" stroke-width="1" opacity="0.6705882352941176" d="M 821.5 470 L 829 473.5 L 831 477.5 L 830 477.5 L 825.5 472 L 821.5 471 L 821.5 470 Z " /><path fill="rgb(0,0,0)" stroke="rgb(0,0,0)" stroke-width="1" opacity="0.6705882352941176" d="M 813.5 471 L 815 471.5 L 811 474.5 L 808.5 479 L 808 477.5 L 813.5 471 Z " /><path fill="rgb(0,0,0)" stroke="rgb(0,0,0)" stroke-width="1" opacity="0.6705882352941176" d="M 344.5 474 L 345 478.5 L 344 478.5 L 344.5 474 Z " /><path fill="rgb(0,0,0)" stroke="rgb(0,0,0)" stroke-width="1" opacity="0.6705882352941176" d="M 368.5 474 L 369 477.5 L 368 477.5 L 368.5 474 Z " /><path fill="rgb(0,0,0)" stroke="rgb(0,0,0)" stroke-width="1" opacity="0.6705882352941176" d="M 367.5 479 L 368 480.5 L 362.5 487 L 359.5 488 L 359.5 487 L 366 482.5 L 367.5 479 Z " /><path fill="rgb(0,0,0)" stroke="rgb(0,0,0)" stroke-width="1" opacity="0.6705882352941176" d="M 831.5 479 L 832 484.5 L 831 484.5 L 831.5 479 Z " /><path fill="rgb(0,0,0)" stroke="rgb(0,0,0)" stroke-width="1" opacity="0.6705882352941176" d="M 345.5 480 L 351.5 487 L 354 487.5 L 351.5 488 L 346 483.5 L 345.5 480 Z " /><path fill="rgb(0,0,0)" stroke="rgb(0,0,0)" stroke-width="1" opacity="0.6705882352941176" d="M 807.5 481 L 808 483.5 L 807 483.5 L 807.5 481 Z " /><path fill="rgb(0,0,0)" stroke="rgb(0,0,0)" stroke-width="1" opacity="0.6705882352941176" d="M 808.5 485 L 809 487.5 L 814.5 493 L 817 493.5 L 814.5 494 L 810 490.5 Q 807 488.7 808.5 485 Z " /><path fill="rgb(0,0,0)" stroke="rgb(0,0,0)" stroke-width="1" opacity="0.6705882352941176" d="M 830.5 486 L 831 487.5 L 827.5 492 L 822.5 494 L 822.5 493 L 830 487.5 L 830.5 486 Z " /><path fill="rgb(0,0,0)" stroke="rgb(0,0,0)" stroke-width="1" opacity="0.6705882352941176" d="M 355.5 488 L 358 488.5 L 355.5 489 L 355.5 488 Z " /><path fill="rgb(0,0,0)" stroke="rgb(0,0,0)" stroke-width="1" opacity="0.6705882352941176" d="M 818.5 494 L 821 494.5 L 818.5 495 L 818.5 494 Z " /><path fill="rgb(0,0,0)" stroke="rgb(0,0,0)" stroke-width="1" opacity="0.6705882352941176" d="M 612.5 572 L 616 580.5 L 615 580.5 L 612.5 572 Z " /><path fill="rgb(0,0,0)" stroke="rgb(0,0,0)" stroke-width="1" opacity="0.6705882352941176" d="M 570.5 578 L 571 580.5 L 570 580.5 L 570.5 578 Z " /><path fill="rgb(0,0,0)" stroke="rgb(0,0,0)" stroke-width="1" opacity="0.6705882352941176" d="M 419.5 581 L 429 581.5 L 419.5 582 L 419.5 581 Z " /><path fill="rgb(0,0,0)" stroke="rgb(0,0,0)" stroke-width="1" opacity="0.6705882352941176" d="M 756.5 581 L 765 581.5 L 756.5 582 L 756.5 581 Z " /><path fill="rgb(0,0,0)" stroke="rgb(0,0,0)" stroke-width="1" opacity="0.6705882352941176" d="M 405.5 582 L 415 582.5 L 405.5 583 L 405.5 582 Z " /><path fill="rgb(0,0,0)" stroke="rgb(0,0,0)" stroke-width="1" opacity="0.6705882352941176" d="M 769.5 582 L 779 582.5 L 769.5 583 L 769.5 582 Z " /><path fill="rgb(0,0,0)" stroke="rgb(0,0,0)" stroke-width="1" opacity="0.6705882352941176" d="M 393.5 583 L 402 583.5 L 393.5 584 L 393.5 583 Z " /><path fill="rgb(0,0,0)" stroke="rgb(0,0,0)" stroke-width="1" opacity="0.6705882352941176" d="M 783.5 583 L 792 583.5 L 783.5 584 L 783.5 583 Z " /><path fill="rgb(0,0,0)" stroke="rgb(0,0,0)" stroke-width="1" opacity="0.6705882352941176" d="M 384.5 584 L 393 585.5 L 385.5 586 L 384.5 584 Z " /><path fill="rgb(0,0,0)" stroke="rgb(0,0,0)" stroke-width="1" opacity="0.6705882352941176" d="M 795.5 584 L 802 584 L 802 588.5 L 742.5 731 L 742 729.5 L 801 586 L 793 585.5 L 795.5 584 Z " /><path fill="rgb(0,0,0)" stroke="rgb(0,0,0)" stroke-width="1" opacity="0.6705882352941176" d="M 396.5 586 L 405 586.5 L 396.5 587 L 396.5 586 Z " /><path fill="rgb(0,0,0)" stroke="rgb(0,0,0)" stroke-width="1" opacity="0.6705882352941176" d="M 780.5 586 L 789 586.5 L 780.5 587 L 780.5 586 Z " /><path fill="rgb(0,0,0)" stroke="rgb(0,0,0)" stroke-width="1" opacity="0.6705882352941176" d="M 384.5 587 L 445 731.5 L 443 732 L 439 719.5 L 387 596.5 L 384.5 587 Z " /><path fill="rgb(0,0,0)" stroke="rgb(0,0,0)" stroke-width="1" opacity="0.6705882352941176" d="M 409.5 587 L 419 587.5 L 409.5 588 L 409.5 587 Z " /><path fill="rgb(0,0,0)" stroke="rgb(0,0,0)" stroke-width="1" opacity="0.6705882352941176" d="M 766.5 587 L 776 587.5 L 766.5 588 L 766.5 587 Z " /><path fill="rgb(0,0,0)" stroke="rgb(0,0,0)" stroke-width="1" opacity="0.6705882352941176" d="M 423.5 588 L 570 588.5 L 423.5 589 L 423.5 588 Z " /><path fill="rgb(0,0,0)" stroke="rgb(0,0,0)" stroke-width="1" opacity="0.6705882352941176" d="M 616.5 588 L 762 588.5 L 616 589 L 613 598.5 L 713 698.5 L 739 728.5 L 741 734 L 596.5 794 L 589.5 794 L 458.5 739 L 446 735 Q 445.2 730.5 448 728.5 L 472 700.5 Q 524.3 650.8 573 597.5 L 570 590.5 L 571 590.5 L 574 599.5 L 476 697.5 L 453 724.5 L 454.5 725 L 476.5 706 L 578.5 604 L 580.5 604 L 589 608.5 L 587.5 608 L 578.5 605 L 481.5 703 L 447 732.5 Q 446.3 734.8 448.5 734 L 584.5 791 L 592 793 Q 590.9 787.5 593.5 785 L 594 793 L 606.5 789 L 736.5 735 L 740 732.5 L 707.5 705 L 607.5 605 L 605.5 605 L 598.5 608 L 598.5 607 L 607.5 604 L 704.5 701 L 733.5 725 L 729 719.5 L 716 703.5 L 612 599.5 L 612 597.5 L 616.5 588 Z " /><path fill="rgb(0,0,0)" stroke="rgb(0,0,0)" stroke-width="1" opacity="0.6705882352941176" d="M 596.5 608 L 597 753.5 L 596 753.5 L 596.5 608 Z " /><path fill="rgb(0,0,0)" stroke="rgb(0,0,0)" stroke-width="1" opacity="0.6705882352941176" d="M 350.5 672 L 353 672.5 Q 346.6 673.6 344 678.5 L 342.5 683 L 342 680.5 L 346.5 674 L 350.5 672 Z " /><path fill="rgb(0,0,0)" stroke="rgb(0,0,0)" stroke-width="1" opacity="0.6705882352941176" d="M 355.5 672 Q 361.4 672.6 364 676.5 L 366 682.5 L 365 682.5 Q 364.4 676.2 359.5 674 L 355.5 673 L 355.5 672 Z " /><path fill="rgb(0,0,0)" stroke="rgb(0,0,0)" stroke-width="1" opacity="0.6705882352941176" d="M 836.5 674 L 844 677.5 L 846 681.5 L 845 681.5 L 840.5 676 L 836.5 675 L 836.5 674 Z " /><path fill="rgb(0,0,0)" stroke="rgb(0,0,0)" stroke-width="1" opacity="0.6705882352941176" d="M 828.5 675 L 830 675.5 L 825 679.5 L 823.5 683 L 823 681.5 L 828.5 675 Z " /><path fill="rgb(0,0,0)" stroke="rgb(0,0,0)" stroke-width="1" opacity="0.6705882352941176" d="M 846.5 683 L 847 688.5 L 842.5 696 L 837.5 698 L 837.5 697 L 845 691.5 L 846.5 683 Z " /><path fill="rgb(0,0,0)" stroke="rgb(0,0,0)" stroke-width="1" opacity="0.6705882352941176" d="M 365.5 685 L 366 687.5 L 360.5 695 L 357.5 696 L 357.5 695 L 363 691.5 L 365.5 685 Z " /><path fill="rgb(0,0,0)" stroke="rgb(0,0,0)" stroke-width="1" opacity="0.6705882352941176" d="M 822.5 685 L 823 687.5 L 822 687.5 L 822.5 685 Z " /><path fill="rgb(0,0,0)" stroke="rgb(0,0,0)" stroke-width="1" opacity="0.6705882352941176" d="M 342.5 686 Q 343.4 691.6 347.5 694 L 351 695.5 L 349.5 696 L 343 690.5 L 342.5 686 Z " /><path fill="rgb(0,0,0)" stroke="rgb(0,0,0)" stroke-width="1" opacity="0.6705882352941176" d="M 823.5 689 L 828.5 696 L 832 697.5 L 830.5 698 L 825 694.5 L 823.5 689 Z " /><path fill="rgb(0,0,0)" stroke="rgb(0,0,0)" stroke-width="1" opacity="0.6705882352941176" d="M 352.5 696 L 356 696.5 L 352.5 697 L 352.5 696 Z " /><path fill="rgb(0,0,0)" stroke="rgb(0,0,0)" stroke-width="1" opacity="0.6705882352941176" d="M 589.5 747 L 590 756.5 L 589 756.5 L 589.5 747 Z " /><path fill="rgb(0,0,0)" stroke="rgb(0,0,0)" stroke-width="1" opacity="0.6705882352941176" d="M 595.5 758 L 596 767.5 L 595 767.5 L 595.5 758 Z " /><path fill="rgb(0,0,0)" stroke="rgb(0,0,0)" stroke-width="1" opacity="0.6705882352941176" d="M 590.5 761 L 591 770.5 L 590 770.5 L 590.5 761 Z " /><path fill="rgb(0,0,0)" stroke="rgb(0,0,0)" stroke-width="1" opacity="0.6705882352941176" d="M 594.5 772 L 595 780.5 L 594 780.5 L 594.5 772 Z " /><path fill="rgb(0,0,0)" stroke="rgb(0,0,0)" stroke-width="1" opacity="0.6705882352941176" d="M 591.5 775 L 592 783.5 L 591 783.5 L 591.5 775 Z " /><path fill="rgb(0,0,0)" stroke="rgb(0,0,0)" stroke-width="1" opacity="0.6705882352941176" d="M 686.5 810 L 689 810.5 Q 683.4 811.4 681 815.5 L 679.5 820 L 679 817.5 L 684.5 811 L 686.5 810 Z " /><path fill="rgb(0,0,0)" stroke="rgb(0,0,0)" stroke-width="1" opacity="0.6705882352941176" d="M 693.5 810 Q 699.1 810.5 701 814.5 Q 704 817.5 703 824.5 L 702 824.5 L 702 818.5 L 699 813 L 693.5 811 L 693.5 810 Z " /><path fill="rgb(0,0,0)" stroke="rgb(0,0,0)" stroke-width="1" opacity="0.6705882352941176" d="M 483.5 817 L 485 817.5 L 478 822.5 L 476.5 826 L 476 824.5 L 481.5 818 L 483.5 817 Z " /><path fill="rgb(0,0,0)" stroke="rgb(0,0,0)" stroke-width="1" opacity="0.6705882352941176" d="M 491.5 817 L 498 821.5 Q 501 824.5 500 831.5 Q 498.6 837.6 493.5 840 L 489.5 841 L 489.5 840 Q 495.1 839.6 497 835.5 Q 500 832.5 499 825.5 L 495.5 820 Q 490.8 819.2 491.5 817 Z " /><path fill="rgb(0,0,0)" stroke="rgb(0,0,0)" stroke-width="1" opacity="0.6705882352941176" d="M 679.5 825 L 684.5 832 L 689 833.5 L 686.5 834 L 680 828.5 L 679.5 825 Z " /><path fill="rgb(0,0,0)" stroke="rgb(0,0,0)" stroke-width="1" opacity="0.6705882352941176" d="M 701.5 826 L 702 827.5 L 700 831 L 692.5 834 L 692.5 833 Q 698.9 832.4 701 827.5 L 701.5 826 Z " /><path fill="rgb(0,0,0)" stroke="rgb(0,0,0)" stroke-width="1" opacity="0.6705882352941176" d="M 476.5 832 L 480.5 838 L 486 840.5 L 483.5 841 L 477 835.5 L 476.5 832 Z " /></svg>