<svg width="1181" height="1181" version="1.1" xmlns="http://www.w3.org/2000/svg" desc="Created with imagetracer.js version 1.2.6" ><path fill="rgb(0,0,0)" stroke="rgb(0,0,0)" stroke-width="1" opacity="0" d="M 0 0 L 1181 0 L 1181 1181 L 0 1181 L 0 0 Z M 586 357 L 584 358 Q 580 360 581 367 L 587 372 L 585 383 L 585 392 L 584 393 L 583 413 L 582 414 L 582 491 L 581 492 L 582 498 L 586 500 L 593 499 L 595 496 L 595 427 L 594 426 L 594 413 L 593 412 L 592 394 L 591 393 L 589 372 L 592 370 L 595 365 L 594 361 Q 593 356 586 357 Z M 747 422 L 745 423 L 742 427 L 743 434 L 708 462 L 654 518 L 655 525 L 659 527 L 665 526 L 674 514 L 715 473 L 745 435 L 748 436 L 753 435 L 756 431 L 755 426 Q 754 421 747 422 Z M 427 424 L 422 426 L 420 431 L 422 437 Q 425 439 432 438 L 463 477 L 466 478 L 511 524 L 512 527 L 516 529 L 523 528 L 525 525 L 524 519 L 470 465 L 433 437 L 434 429 Q 432 424 427 424 Z M 583 550 Q 570 553 563 560 Q 552 569 549 585 L 549 600 Q 551 610 557 618 L 571 629 L 587 634 Q 609 634 620 623 Q 630 614 633 598 L 632 582 L 625 567 Q 618 558 609 553 L 599 550 L 583 550 Z M 814 583 L 810 589 L 800 587 L 791 587 L 790 586 L 770 585 L 769 584 L 689 584 L 684 590 L 685 595 L 690 598 L 694 597 L 722 597 L 723 596 L 766 596 L 767 595 L 776 595 L 777 594 L 810 591 L 811 594 L 817 597 L 821 596 L 824 592 L 823 586 Q 821 581 814 583 Z M 487 585 L 486 586 L 418 586 L 417 587 L 408 587 L 407 588 L 399 588 L 398 589 L 367 592 L 365 590 L 362 587 Q 356 586 354 588 L 352 592 L 353 598 L 358 601 L 363 600 L 366 594 L 393 596 L 394 597 L 404 597 L 405 598 L 415 598 L 416 599 L 464 599 L 465 598 L 485 598 Q 486 601 492 599 L 496 593 L 495 589 Q 493 584 487 585 Z M 662 656 L 660 657 Q 656 659 657 667 L 709 717 L 749 749 L 747 754 Q 747 759 752 761 L 759 760 L 761 757 L 760 750 L 757 747 L 751 748 L 718 709 L 693 684 L 670 662 L 669 659 Q 667 655 662 656 Z M 515 658 L 462 713 L 436 747 Q 434 753 425 751 L 421 756 L 422 762 L 428 765 L 432 764 L 435 760 Q 436 754 433 752 L 470 722 L 524 668 L 523 661 Q 521 657 515 658 Z M 590 686 L 585 688 L 584 691 L 584 762 L 585 763 L 585 771 L 586 772 L 590 814 L 591 815 L 588 816 L 585 820 Q 584 825 586 827 L 590 829 L 596 828 L 599 823 L 598 819 Q 597 814 592 815 L 593 800 L 594 799 L 594 790 L 595 789 L 595 779 L 596 778 L 596 768 L 597 767 L 597 691 L 596 689 L 590 686 Z " /><path fill="rgb(0,0,0)" stroke="rgb(0,0,0)" stroke-width="1" opacity="0.6705882352941176" d="M 585.5 357 L 587 357.5 L 583 359 L 581.5 363 L 581 361.5 L 583.5 358 L 585.5 357 Z " /><path fill="rgb(0,0,0)" stroke="rgb(0,0,0)" stroke-width="1" opacity="0.6705882352941176" d="M 589.5 357 L 594 360.5 L 595 364.5 L 594 364.5 Q 593.8 359.8 590.5 358 L 589.5 357 Z " /><path fill="rgb(0,0,0)" stroke="rgb(0,0,0)" stroke-width="1" opacity="0.6705882352941176" d="M 581.5 364 L 585 369.5 L 581 366.5 L 581.5 364 Z " /><path fill="rgb(0,0,0)" stroke="rgb(0,0,0)" stroke-width="1" opacity="0.6705882352941176" d="M 593.5 366 L 594 367.5 L 589 371.5 L 588.5 375 L 588 370 L 593.5 366 Z " /><path fill="rgb(0,0,0)" stroke="rgb(0,0,0)" stroke-width="1" opacity="0.6705882352941176" d="M 586.5 373 L 587 379.5 L 586 379.5 L 586.5 373 Z " /><path fill="rgb(0,0,0)" stroke="rgb(0,0,0)" stroke-width="1" opacity="0.6705882352941176" d="M 589.5 377 L 590 382.5 L 589 382.5 L 589.5 377 Z " /><path fill="rgb(0,0,0)" stroke="rgb(0,0,0)" stroke-width="1" opacity="0.6705882352941176" d="M 585.5 382 L 586 388.5 L 585 388.5 L 585.5 382 Z " /><path fill="rgb(0,0,0)" stroke="rgb(0,0,0)" stroke-width="1" opacity="0.6705882352941176" d="M 590.5 385 L 591 390.5 L 590 390.5 L 590.5 385 Z " /><path fill="rgb(0,0,0)" stroke="rgb(0,0,0)" stroke-width="1" opacity="0.6705882352941176" d="M 584.5 392 L 585 399.5 L 584 399.5 L 584.5 392 Z " /><path fill="rgb(0,0,0)" stroke="rgb(0,0,0)" stroke-width="1" opacity="0.6705882352941176" d="M 591.5 393 L 592 399.5 L 591 399.5 L 591.5 393 Z " /><path fill="rgb(0,0,0)" stroke="rgb(0,0,0)" stroke-width="1" opacity="0.6705882352941176" d="M 583.5 403 L 584 410.5 L 583 410.5 L 583.5 403 Z " /><path fill="rgb(0,0,0)" stroke="rgb(0,0,0)" stroke-width="1" opacity="0.6705882352941176" d="M 592.5 403 L 593 409.5 L 592 409.5 L 592.5 403 Z " /><path fill="rgb(0,0,0)" stroke="rgb(0,0,0)" stroke-width="1" opacity="0.6705882352941176" d="M 593.5 412 L 594 418.5 L 593 418.5 L 593.5 412 Z " /><path fill="rgb(0,0,0)" stroke="rgb(0,0,0)" stroke-width="1" opacity="0.6705882352941176" d="M 582.5 413 L 583 490.5 L 581.5 495 L 581 491.5 L 582 490.5 L 582.5 413 Z " /><path fill="rgb(0,0,0)" stroke="rgb(0,0,0)" stroke-width="1" opacity="0.6705882352941176" d="M 746.5 422 L 748 422.5 L 743 426.5 L 742.5 432 L 742 426.5 L 744.5 423 L 746.5 422 Z " /><path fill="rgb(0,0,0)" stroke="rgb(0,0,0)" stroke-width="1" opacity="0.6705882352941176" d="M 750.5 422 L 755 425.5 L 756 430.5 L 752.5 435 L 747.5 436 L 747.5 435 Q 752.6 435.6 754 432.5 L 755 427.5 L 751.5 423 L 750.5 422 Z " /><path fill="rgb(0,0,0)" stroke="rgb(0,0,0)" stroke-width="1" opacity="0.6705882352941176" d="M 426.5 424 L 428 424.5 L 422 428.5 L 421 432.5 L 424.5 437 L 426 437.5 L 424.5 438 L 422 437 L 420 430.5 L 422 426 L 426.5 424 Z " /><path fill="rgb(0,0,0)" stroke="rgb(0,0,0)" stroke-width="1" opacity="0.6705882352941176" d="M 429.5 425 L 434 428.5 L 433.5 431 L 430.5 426 L 429.5 425 Z " /><path fill="rgb(0,0,0)" stroke="rgb(0,0,0)" stroke-width="1" opacity="0.6705882352941176" d="M 594.5 426 L 595 495.5 L 592.5 499 L 589.5 500 L 589.5 499 L 594 495.5 L 594.5 426 Z " /><path fill="rgb(0,0,0)" stroke="rgb(0,0,0)" stroke-width="1" opacity="0.6705882352941176" d="M 433.5 432 L 434 434.5 L 433 436.5 L 469.5 465 L 524 518.5 L 525 524.5 L 522.5 528 L 519.5 529 L 519.5 528 L 524 524.5 L 523 518.5 L 515.5 511 L 471.5 468 L 436.5 441 L 437 442.5 Q 460.6 475.4 490.5 502 L 512 522.5 Q 511.5 527.5 515.5 528 L 517 528.5 L 515.5 529 L 512 526.5 L 511 523.5 L 465.5 478 L 463 476.5 L 431.5 438 L 429 437.5 L 432 437 L 433.5 432 Z " /><path fill="rgb(0,0,0)" stroke="rgb(0,0,0)" stroke-width="1" opacity="0.6705882352941176" d="M 742.5 434 L 746 434.5 L 742 437.5 L 715 472.5 L 674 513.5 L 664.5 526 L 658.5 527 L 655 524.5 L 654 521.5 L 655 521.5 L 658.5 526 Q 665 527 666 522.5 L 667 519.5 L 716 469.5 L 741 437.5 L 739.5 437 L 710.5 461 L 656 515.5 L 654.5 519 L 654 517.5 L 707.5 462 L 742.5 434 Z " /><path fill="rgb(0,0,0)" stroke="rgb(0,0,0)" stroke-width="1" opacity="0.6705882352941176" d="M 582.5 496 L 587 499.5 L 585.5 500 L 582 497.5 L 582.5 496 Z " /><path fill="rgb(0,0,0)" stroke="rgb(0,0,0)" stroke-width="1" opacity="0.6705882352941176" d="M 582.5 550 L 586 550.5 L 582.5 551 L 582.5 550 Z " /><path fill="rgb(0,0,0)" stroke="rgb(0,0,0)" stroke-width="1" opacity="0.6705882352941176" d="M 596.5 550 L 599 550.5 L 596.5 551 L 596.5 550 Z " /><path fill="rgb(0,0,0)" stroke="rgb(0,0,0)" stroke-width="1" opacity="0.6705882352941176" d="M 578.5 551 L 581 551.5 Q 565.8 555.3 558 566.5 L 552.5 576 L 552 574.5 L 562.5 560 L 578.5 551 Z " /><path fill="rgb(0,0,0)" stroke="rgb(0,0,0)" stroke-width="1" opacity="0.6705882352941176" d="M 604.5 552 Q 617.7 556.3 625 566.5 L 630 576.5 L 629 576.5 Q 625.3 566.2 617.5 560 L 608.5 554 L 604.5 553 L 604.5 552 Z " /><path fill="rgb(0,0,0)" stroke="rgb(0,0,0)" stroke-width="1" opacity="0.6705882352941176" d="M 631.5 581 L 632 583.5 L 631 583.5 L 631.5 581 Z " /><path fill="rgb(0,0,0)" stroke="rgb(0,0,0)" stroke-width="1" opacity="0.6705882352941176" d="M 813.5 583 L 816 583.5 L 811 587.5 L 810.5 589 L 810 587.5 L 813.5 583 Z " /><path fill="rgb(0,0,0)" stroke="rgb(0,0,0)" stroke-width="1" opacity="0.6705882352941176" d="M 819.5 583 L 823 585.5 L 824 591.5 L 820.5 596 L 819 595.5 Q 824 594.5 823 587.5 L 822 585 L 819.5 583 Z " /><path fill="rgb(0,0,0)" stroke="rgb(0,0,0)" stroke-width="1" opacity="0.6705882352941176" d="M 549.5 584 L 550 587.5 L 549 587.5 L 549.5 584 Z " /><path fill="rgb(0,0,0)" stroke="rgb(0,0,0)" stroke-width="1" opacity="0.6705882352941176" d="M 688.5 584 L 690 584.5 L 686 587.5 L 685 592.5 L 687.5 596 L 692.5 597 L 693.5 596 L 721.5 596 L 721.5 597 L 693.5 597 L 689.5 598 L 685 594.5 L 684 589.5 L 688.5 584 Z " /><path fill="rgb(0,0,0)" stroke="rgb(0,0,0)" stroke-width="1" opacity="0.6705882352941176" d="M 692.5 584 L 743 584.5 L 692.5 585 L 692.5 584 Z " /><path fill="rgb(0,0,0)" stroke="rgb(0,0,0)" stroke-width="1" opacity="0.6705882352941176" d="M 761.5 584 L 769 584.5 L 761.5 585 L 761.5 584 Z " /><path fill="rgb(0,0,0)" stroke="rgb(0,0,0)" stroke-width="1" opacity="0.6705882352941176" d="M 486.5 585 Q 493.4 584.1 495 588.5 L 494.5 590 L 490.5 586 Q 485.5 587 486.5 585 Z " /><path fill="rgb(0,0,0)" stroke="rgb(0,0,0)" stroke-width="1" opacity="0.6705882352941176" d="M 772.5 585 L 779 585.5 L 772.5 586 L 772.5 585 Z " /><path fill="rgb(0,0,0)" stroke="rgb(0,0,0)" stroke-width="1" opacity="0.6705882352941176" d="M 417.5 586 L 484 586.5 L 417.5 587 L 417.5 586 Z " /><path fill="rgb(0,0,0)" stroke="rgb(0,0,0)" stroke-width="1" opacity="0.6705882352941176" d="M 632.5 586 L 633 597.5 L 632 597.5 L 632.5 586 Z " /><path fill="rgb(0,0,0)" stroke="rgb(0,0,0)" stroke-width="1" opacity="0.6705882352941176" d="M 782.5 586 L 790 586.5 L 782.5 587 L 782.5 586 Z " /><path fill="rgb(0,0,0)" stroke="rgb(0,0,0)" stroke-width="1" opacity="0.6705882352941176" d="M 356.5 587 L 358 587.5 L 353 591.5 Q 352.2 597.3 355.5 599 L 360.5 600 L 364 597.5 L 365 591.5 L 360 587.5 L 361.5 587 L 365 589.5 L 366.5 592 Q 371 591 372 593.5 L 366 594 L 362.5 600 L 357.5 601 L 353 597.5 L 352 591.5 L 354 588 L 356.5 587 Z " /><path fill="rgb(0,0,0)" stroke="rgb(0,0,0)" stroke-width="1" opacity="0.6705882352941176" d="M 407.5 587 L 414 587.5 L 407.5 588 L 407.5 587 Z " /><path fill="rgb(0,0,0)" stroke="rgb(0,0,0)" stroke-width="1" opacity="0.6705882352941176" d="M 792.5 587 L 800 587.5 L 792.5 588 L 792.5 587 Z " /><path fill="rgb(0,0,0)" stroke="rgb(0,0,0)" stroke-width="1" opacity="0.6705882352941176" d="M 398.5 588 L 405 588.5 L 398.5 589 L 398.5 588 Z " /><path fill="rgb(0,0,0)" stroke="rgb(0,0,0)" stroke-width="1" opacity="0.6705882352941176" d="M 802.5 588 L 809 588.5 L 802.5 589 L 802.5 588 Z " /><path fill="rgb(0,0,0)" stroke="rgb(0,0,0)" stroke-width="1" opacity="0.6705882352941176" d="M 389.5 589 L 396 589.5 L 389.5 590 L 389.5 589 Z " /><path fill="rgb(0,0,0)" stroke="rgb(0,0,0)" stroke-width="1" opacity="0.6705882352941176" d="M 381.5 590 L 387 590.5 L 381.5 591 L 381.5 590 Z " /><path fill="rgb(0,0,0)" stroke="rgb(0,0,0)" stroke-width="1" opacity="0.6705882352941176" d="M 804.5 590 Q 811.5 588.5 811 591.5 L 814.5 596 L 811 593.5 L 809.5 591 Q 803.5 592.3 804.5 590 Z " /><path fill="rgb(0,0,0)" stroke="rgb(0,0,0)" stroke-width="1" opacity="0.6705882352941176" d="M 373.5 591 L 379 591.5 L 373.5 592 L 373.5 591 Z " /><path fill="rgb(0,0,0)" stroke="rgb(0,0,0)" stroke-width="1" opacity="0.6705882352941176" d="M 796.5 591 L 802 591.5 L 796.5 592 L 796.5 591 Z " /><path fill="rgb(0,0,0)" stroke="rgb(0,0,0)" stroke-width="1" opacity="0.6705882352941176" d="M 787.5 592 L 794 592.5 L 787.5 593 L 787.5 592 Z " /><path fill="rgb(0,0,0)" stroke="rgb(0,0,0)" stroke-width="1" opacity="0.6705882352941176" d="M 778.5 593 L 785 593.5 L 778.5 594 L 778.5 593 Z " /><path fill="rgb(0,0,0)" stroke="rgb(0,0,0)" stroke-width="1" opacity="0.6705882352941176" d="M 374.5 594 L 381 594.5 L 374.5 595 L 374.5 594 Z " /><path fill="rgb(0,0,0)" stroke="rgb(0,0,0)" stroke-width="1" opacity="0.6705882352941176" d="M 494.5 594 L 495 595.5 Q 494.5 599.5 489.5 599 L 489.5 598 L 494 595.5 L 494.5 594 Z " /><path fill="rgb(0,0,0)" stroke="rgb(0,0,0)" stroke-width="1" opacity="0.6705882352941176" d="M 769.5 594 L 776 594.5 L 769.5 595 L 769.5 594 Z " /><path fill="rgb(0,0,0)" stroke="rgb(0,0,0)" stroke-width="1" opacity="0.6705882352941176" d="M 383.5 595 L 390 595.5 L 383.5 596 L 383.5 595 Z " /><path fill="rgb(0,0,0)" stroke="rgb(0,0,0)" stroke-width="1" opacity="0.6705882352941176" d="M 760.5 595 L 766 595.5 L 760.5 596 L 760.5 595 Z " /><path fill="rgb(0,0,0)" stroke="rgb(0,0,0)" stroke-width="1" opacity="0.6705882352941176" d="M 393.5 596 L 401 596.5 L 393.5 597 L 393.5 596 Z " /><path fill="rgb(0,0,0)" stroke="rgb(0,0,0)" stroke-width="1" opacity="0.6705882352941176" d="M 549.5 596 L 550 599.5 L 549 599.5 L 549.5 596 Z " /><path fill="rgb(0,0,0)" stroke="rgb(0,0,0)" stroke-width="1" opacity="0.6705882352941176" d="M 404.5 597 L 412 597.5 L 404.5 598 L 404.5 597 Z " /><path fill="rgb(0,0,0)" stroke="rgb(0,0,0)" stroke-width="1" opacity="0.6705882352941176" d="M 415.5 598 L 464 598.5 L 415.5 599 L 415.5 598 Z " /><path fill="rgb(0,0,0)" stroke="rgb(0,0,0)" stroke-width="1" opacity="0.6705882352941176" d="M 485.5 598 L 488 598.5 L 485.5 599 L 485.5 598 Z " /><path fill="rgb(0,0,0)" stroke="rgb(0,0,0)" stroke-width="1" opacity="0.6705882352941176" d="M 631.5 599 L 632 601.5 L 631 601.5 L 631.5 599 Z " /><path fill="rgb(0,0,0)" stroke="rgb(0,0,0)" stroke-width="1" opacity="0.6705882352941176" d="M 550.5 601 Q 553.9 614.1 562.5 622 Q 570.2 630.3 584 632.5 L 580.5 633 Q 565.4 628.6 557 617.5 L 551 606.5 L 550.5 601 Z " /><path fill="rgb(0,0,0)" stroke="rgb(0,0,0)" stroke-width="1" opacity="0.6705882352941176" d="M 630.5 603 L 631 605.5 Q 627.1 616.1 619.5 623 Q 614 628.5 605.5 631 L 605.5 630 Q 617.4 625.9 624 616.5 L 630.5 603 Z " /><path fill="rgb(0,0,0)" stroke="rgb(0,0,0)" stroke-width="1" opacity="0.6705882352941176" d="M 598.5 632 L 601 632.5 L 598.5 633 L 598.5 632 Z " /><path fill="rgb(0,0,0)" stroke="rgb(0,0,0)" stroke-width="1" opacity="0.6705882352941176" d="M 586.5 633 L 596 633.5 L 586.5 634 L 586.5 633 Z " /><path fill="rgb(0,0,0)" stroke="rgb(0,0,0)" stroke-width="1" opacity="0.6705882352941176" d="M 661.5 656 Q 667.3 655.2 669 658.5 L 670 661.5 L 692.5 684 L 718 708.5 L 750.5 748 L 756.5 747 L 760 749.5 L 761 752.5 L 760 752.5 L 756.5 748 L 750 749 L 748.5 752 L 748 750.5 L 749 748.5 L 708.5 717 L 657 666.5 L 657.5 665 L 660.5 669 L 711.5 718 L 742.5 742 L 743 740.5 L 720 712.5 L 665.5 657 Q 659 656 658 660.5 L 657.5 662 L 657 660.5 L 659.5 657 L 661.5 656 Z " /><path fill="rgb(0,0,0)" stroke="rgb(0,0,0)" stroke-width="1" opacity="0.6705882352941176" d="M 514.5 658 L 516 658.5 L 512 661.5 Q 490.5 688 465 710.5 L 438 745.5 L 442.5 742 Q 469.8 722.8 492 698.5 L 519.5 670 L 523 667.5 L 523.5 665 L 524 667.5 L 469.5 722 L 433 751.5 Q 435.7 753.8 435 759.5 L 431.5 764 L 430 763.5 Q 435 762.5 434 755.5 L 431.5 752 L 430 751.5 L 436 746.5 L 462 712.5 L 514.5 658 Z " /><path fill="rgb(0,0,0)" stroke="rgb(0,0,0)" stroke-width="1" opacity="0.6705882352941176" d="M 518.5 658 L 523 660.5 L 524 663.5 L 523 663.5 L 522 660 Q 517.8 660.1 518.5 658 Z " /><path fill="rgb(0,0,0)" stroke="rgb(0,0,0)" stroke-width="1" opacity="0.6705882352941176" d="M 589.5 686 L 592 686.5 L 589.5 687 L 589.5 686 Z " /><path fill="rgb(0,0,0)" stroke="rgb(0,0,0)" stroke-width="1" opacity="0.6705882352941176" d="M 587.5 687 L 585 690.5 L 584.5 692 L 584 690.5 L 585 688 L 587.5 687 Z " /><path fill="rgb(0,0,0)" stroke="rgb(0,0,0)" stroke-width="1" opacity="0.6705882352941176" d="M 593.5 687 L 596 688.5 L 597 691.5 L 596 691.5 L 593.5 687 Z " /><path fill="rgb(0,0,0)" stroke="rgb(0,0,0)" stroke-width="1" opacity="0.6705882352941176" d="M 596.5 694 L 597 766.5 L 596 766.5 L 596.5 694 Z " /><path fill="rgb(0,0,0)" stroke="rgb(0,0,0)" stroke-width="1" opacity="0.6705882352941176" d="M 584.5 695 L 585 761.5 L 584 761.5 L 584.5 695 Z " /><path fill="rgb(0,0,0)" stroke="rgb(0,0,0)" stroke-width="1" opacity="0.6705882352941176" d="M 424.5 751 L 426 751.5 Q 421 752.5 422 759.5 L 423 762 L 426 763.5 L 424.5 764 Q 420.1 762.4 421 755.5 L 424.5 751 Z " /><path fill="rgb(0,0,0)" stroke="rgb(0,0,0)" stroke-width="1" opacity="0.6705882352941176" d="M 760.5 755 L 761 756.5 L 758.5 760 L 751.5 761 L 748 756.5 L 749 756.5 L 750.5 759 L 756.5 760 L 760.5 755 Z " /><path fill="rgb(0,0,0)" stroke="rgb(0,0,0)" stroke-width="1" opacity="0.6705882352941176" d="M 585.5 764 L 586 770.5 L 585 770.5 L 585.5 764 Z " /><path fill="rgb(0,0,0)" stroke="rgb(0,0,0)" stroke-width="1" opacity="0.6705882352941176" d="M 595.5 770 L 596 777.5 L 595 777.5 L 595.5 770 Z " /><path fill="rgb(0,0,0)" stroke="rgb(0,0,0)" stroke-width="1" opacity="0.6705882352941176" d="M 586.5 773 L 587 779.5 L 586 779.5 L 586.5 773 Z " /><path fill="rgb(0,0,0)" stroke="rgb(0,0,0)" stroke-width="1" opacity="0.6705882352941176" d="M 594.5 781 L 595 788.5 L 594 788.5 L 594.5 781 Z " /><path fill="rgb(0,0,0)" stroke="rgb(0,0,0)" stroke-width="1" opacity="0.6705882352941176" d="M 587.5 782 L 588 788.5 L 587 788.5 L 587.5 782 Z " /><path fill="rgb(0,0,0)" stroke="rgb(0,0,0)" stroke-width="1" opacity="0.6705882352941176" d="M 588.5 791 L 589 797.5 L 588 797.5 L 588.5 791 Z " /><path fill="rgb(0,0,0)" stroke="rgb(0,0,0)" stroke-width="1" opacity="0.6705882352941176" d="M 593.5 791 L 594 798.5 L 593 798.5 L 593.5 791 Z " /><path fill="rgb(0,0,0)" stroke="rgb(0,0,0)" stroke-width="1" opacity="0.6705882352941176" d="M 589.5 800 L 590 805.5 L 589 805.5 L 589.5 800 Z " /><path fill="rgb(0,0,0)" stroke="rgb(0,0,0)" stroke-width="1" opacity="0.6705882352941176" d="M 592.5 801 L 593 807.5 L 592 807.5 L 592.5 801 Z " /><path fill="rgb(0,0,0)" stroke="rgb(0,0,0)" stroke-width="1" opacity="0.6705882352941176" d="M 590.5 808 Q 592.9 810.3 592 815 Q 596.7 814.3 598 818.5 L 599 822.5 L 598 822.5 Q 597.8 817.8 594.5 816 L 591.5 815 L 586 819.5 Q 584.8 826.8 589.5 828 Q 596.5 829 597.5 824 L 598 825.5 Q 596.4 829.9 589.5 829 L 586 827 Q 584.4 824.9 585 819.5 L 587.5 816 L 591 814.5 Q 588.4 812.9 590.5 808 Z " /><path fill="rgb(0,0,0)" stroke="rgb(0,0,0)" stroke-width="1" opacity="1" d="M 587.5 357 L 593 360.5 L 594 365.5 L 588 370 L 590 390.5 L 591 391.5 L 591 399.5 L 592 400.5 L 593 418.5 L 594 419.5 L 594 495.5 L 587.5 500 L 582 495.5 L 583 490.5 L 583 411.5 L 584 410.5 L 584 400.5 L 585 399.5 L 585 389.5 L 586 388.5 L 587 370 L 582 366.5 L 581 363.5 L 583 359 L 587.5 357 Z " /><path fill="rgb(0,0,0)" stroke="rgb(0,0,0)" stroke-width="1" opacity="1" d="M 748.5 422 L 754 425.5 L 755 430.5 L 752.5 434 L 746.5 435 L 743 434 Q 741 425.2 746.5 423 L 748.5 422 Z " /><path fill="rgb(0,0,0)" stroke="rgb(0,0,0)" stroke-width="1" opacity="1" d="M 426.5 425 Q 431.3 425.3 433 428.5 L 434 431.5 L 432 437 L 426.5 438 L 422 434.5 L 421 430.5 L 424.5 426 L 426.5 425 Z " /><path fill="rgb(0,0,0)" stroke="rgb(0,0,0)" stroke-width="1" opacity="1" d="M 741.5 436 L 739 439.5 L 716 469.5 L 667 519.5 L 662.5 526 Q 656 527 655 522.5 L 654 519.5 L 656 515.5 L 710.5 461 L 741.5 436 Z " /><path fill="rgb(0,0,0)" stroke="rgb(0,0,0)" stroke-width="1" opacity="1" d="M 433.5 438 L 471.5 468 L 523 518.5 L 524 524.5 L 517.5 529 L 512 524.5 L 512 522.5 L 491.5 502 L 461 472.5 L 433.5 438 Z " /><path fill="rgb(0,0,0)" stroke="rgb(0,0,0)" stroke-width="1" opacity="1" d="M 586.5 550 L 595.5 550 L 608.5 554 L 623 565.5 L 631 580.5 Q 633.4 587.6 632 598.5 Q 627.9 615.9 615.5 625 L 601.5 632 Q 594.8 634.3 584.5 633 Q 568.8 629.8 560 619.5 Q 549.5 609 549 588.5 Q 551.3 587.3 550 582.5 L 555 570.5 L 566.5 558 Q 574.5 552 586.5 550 Z " /><path fill="rgb(0,0,0)" stroke="rgb(0,0,0)" stroke-width="1" opacity="1" d="M 816.5 583 L 822 585 L 823 591.5 L 818.5 596 L 815.5 596 L 811 590 L 787.5 592 L 786.5 593 L 778.5 593 L 777.5 594 L 769.5 594 L 768.5 595 L 760.5 595 L 759.5 596 L 693.5 596 L 689.5 597 L 686 594.5 L 685 589.5 L 688.5 585 L 691.5 584 L 692.5 585 L 742.5 585 L 743.5 584 L 760.5 584 L 761.5 585 L 771.5 585 L 772.5 586 L 811 589 L 814.5 584 L 816.5 583 Z " /><path fill="rgb(0,0,0)" stroke="rgb(0,0,0)" stroke-width="1" opacity="1" d="M 484.5 586 Q 493.5 584.5 495 590.5 Q 495.6 595.6 492.5 597 L 488.5 599 L 487.5 598 L 412.5 598 L 411.5 597 L 401.5 597 L 400.5 596 L 372.5 594 L 371 592.5 L 386.5 591 L 387.5 590 L 395.5 590 L 396.5 589 L 404.5 589 L 405.5 588 L 413.5 588 L 414.5 587 L 483.5 587 L 484.5 586 Z " /><path fill="rgb(0,0,0)" stroke="rgb(0,0,0)" stroke-width="1" opacity="1" d="M 358.5 587 L 365 591.5 Q 365.8 597.3 362.5 599 L 357.5 600 L 354 597.5 L 353 591.5 L 358.5 587 Z " /><path fill="rgb(0,0,0)" stroke="rgb(0,0,0)" stroke-width="1" opacity="1" d="M 661.5 657 Q 668 656 669 660.5 L 720 712.5 L 745 743.5 L 741.5 741 L 711.5 718 L 658 666.5 L 657 662.5 L 661.5 657 Z " /><path fill="rgb(0,0,0)" stroke="rgb(0,0,0)" stroke-width="1" opacity="1" d="M 516.5 658 L 522 660 L 524 664.5 L 520.5 670 L 492 697.5 L 472.5 718 L 438.5 746 L 438 744.5 L 465 710.5 Q 491.5 686.5 514.5 659 L 516.5 658 Z " /><path fill="rgb(0,0,0)" stroke="rgb(0,0,0)" stroke-width="1" opacity="1" d="M 588.5 687 Q 595 686 596 690.5 L 597 693.5 L 596 694.5 L 596 769.5 L 595 770.5 L 595 780.5 L 594 781.5 L 594 790.5 L 593 791.5 L 591.5 810 L 590 807.5 L 586 764.5 L 585 763.5 L 585 695.5 L 584 692.5 L 588.5 687 Z " /><path fill="rgb(0,0,0)" stroke="rgb(0,0,0)" stroke-width="1" opacity="1" d="M 752.5 748 Q 759 747 760 751.5 L 761 754.5 L 756.5 760 Q 750.7 760.8 749 757.5 L 748 752.5 L 750 749 L 752.5 748 Z " /><path fill="rgb(0,0,0)" stroke="rgb(0,0,0)" stroke-width="1" opacity="1" d="M 426.5 751 Q 431.6 750.4 433 753.5 L 434 759.5 L 429.5 764 L 426.5 764 L 423 762 L 422 755.5 L 426.5 751 Z " /><path fill="rgb(0,0,0)" stroke="rgb(0,0,0)" stroke-width="1" opacity="1" d="M 591.5 815 L 597 818.5 L 598 823.5 L 593.5 828 L 589.5 828 Q 584.7 826.8 586 819.5 L 591.5 815 Z " /></svg>