<svg width="1181" height="1181" version="1.1" xmlns="http://www.w3.org/2000/svg" desc="Created with imagetracer.js version 1.2.6" ><path fill="rgb(0,0,0)" stroke="rgb(0,0,0)" stroke-width="1" opacity="0" d="M 0 0 L 1181 0 L 1181 1181 L 0 1181 L 0 0 Z M 587 285 Q 576 287 570 292 Q 556 301 552 321 L 553 340 L 561 364 L 575 391 L 596 421 L 602 435 L 602 445 L 601 446 L 602 447 L 605 441 L 605 429 L 602 418 L 588 387 L 573 361 L 566 342 L 564 331 Q 564 317 569 310 Q 575 300 589 297 Q 600 296 606 300 Q 614 305 616 317 L 616 322 L 614 328 Q 610 334 602 336 Q 595 337 593 334 Q 588 331 587 326 L 589 318 L 594 313 L 598 312 L 602 313 L 607 318 L 606 313 L 599 306 Q 589 305 584 308 Q 577 312 575 320 L 575 329 L 579 338 Q 584 346 596 348 Q 611 349 619 341 Q 625 335 628 325 L 627 310 L 620 297 Q 610 284 587 285 Z M 411 337 L 400 339 L 385 348 L 379 357 L 374 370 Q 372 382 375 390 Q 378 400 385 407 Q 397 419 413 427 L 439 439 L 479 452 L 490 459 Q 495 462 495 470 L 496 470 Q 496 460 491 456 Q 482 445 469 439 L 413 413 L 403 406 Q 391 398 386 384 L 386 373 L 391 361 Q 396 353 406 350 Q 419 348 425 354 Q 430 358 432 366 Q 433 376 428 380 L 422 384 L 413 383 Q 408 380 406 374 L 407 368 L 414 362 L 419 363 L 421 363 L 415 358 Q 407 357 404 360 Q 397 364 395 373 Q 394 384 400 389 Q 405 394 413 396 Q 426 398 433 392 Q 441 386 444 374 L 444 363 L 439 352 L 429 342 L 423 339 L 411 337 Z M 759 343 Q 746 345 738 352 Q 722 366 716 390 L 709 424 L 708 450 L 707 451 L 706 464 Q 705 473 700 479 L 694 483 L 694 484 L 700 482 Q 709 474 713 462 L 722 427 L 722 421 L 727 396 L 733 379 L 742 365 L 749 359 L 761 355 Q 774 355 782 361 Q 787 366 790 374 Q 792 387 786 393 Q 783 397 777 399 Q 767 400 763 396 L 758 390 L 759 381 L 768 374 Q 773 373 776 376 Q 780 379 780 387 L 782 383 Q 783 374 779 371 Q 775 365 768 364 Q 759 363 755 367 Q 749 372 746 380 Q 744 393 749 400 Q 755 408 767 411 Q 782 413 789 407 L 797 399 L 801 391 L 803 381 L 801 368 L 796 359 Q 789 349 778 345 L 770 343 L 759 343 Z M 600 448 L 599 449 L 544 449 Q 557 492 573 533 L 573 535 Q 555 493 534 454 Q 535 451 533 452 L 460 526 L 524 558 L 538 564 L 538 566 L 455 534 L 453 536 L 453 595 L 452 596 L 453 639 L 543 610 L 575 597 L 577 598 L 538 613 L 458 650 Q 455 649 456 652 L 530 724 Q 562 669 587 608 L 588 608 L 574 641 L 541 731 L 542 732 L 646 732 L 618 648 L 602 609 L 603 606 L 615 638 L 658 726 L 731 652 L 647 611 L 620 601 L 621 599 L 649 611 L 735 640 L 735 597 L 736 596 L 736 535 L 660 563 L 642 571 L 641 569 L 714 534 L 730 525 L 657 452 L 655 452 L 624 522 L 622 522 L 648 449 L 602 449 L 600 448 Z M 854 544 L 835 548 L 819 554 L 794 566 Q 779 577 761 585 L 753 587 Q 746 588 743 585 L 741 586 L 750 590 L 761 590 L 774 587 L 805 575 L 829 563 L 856 556 L 871 557 L 879 561 Q 888 567 891 580 Q 893 594 887 600 Q 883 606 875 608 Q 863 610 859 605 Q 854 601 852 595 Q 851 588 854 585 Q 857 580 863 579 L 871 581 L 875 586 L 876 590 L 874 596 L 869 599 L 869 600 Q 874 601 877 598 Q 882 595 883 588 L 883 583 L 879 574 Q 875 568 868 567 L 861 567 L 851 571 Q 843 576 840 587 L 840 597 L 845 609 Q 851 617 863 620 L 877 620 L 890 614 L 899 604 L 902 598 L 903 587 L 904 586 L 901 571 L 894 559 Q 888 551 879 547 L 868 544 L 854 544 Z M 305 550 L 291 557 Q 281 565 278 579 L 279 595 L 286 609 Q 295 621 313 625 L 327 625 L 337 623 L 351 618 L 380 602 L 418 574 L 430 569 Q 436 567 438 570 L 440 570 L 431 566 Q 418 567 410 571 L 379 587 Q 365 598 348 606 L 325 613 L 315 613 L 303 608 Q 293 601 290 588 L 291 577 L 296 568 L 308 562 Q 318 561 323 565 Q 328 569 329 577 L 327 585 L 320 590 Q 313 591 310 588 L 305 581 L 307 575 L 312 571 L 312 570 L 305 572 Q 300 575 299 581 Q 298 589 301 594 L 309 601 L 312 602 L 323 602 L 334 596 L 339 589 L 341 582 Q 342 568 336 562 Q 331 555 323 551 L 320 550 L 305 550 Z M 486 689 L 481 691 L 471 701 L 464 713 L 453 739 L 443 769 Q 437 783 427 795 Q 421 802 410 805 L 396 804 L 383 797 L 377 787 Q 375 773 381 767 L 391 760 Q 401 759 406 763 L 410 770 Q 412 778 408 781 L 402 785 L 394 784 L 389 780 L 389 771 L 385 777 Q 384 784 387 788 Q 391 794 400 796 Q 409 797 413 793 L 419 787 L 423 774 L 421 764 L 418 759 L 410 751 L 397 747 L 388 748 L 378 753 L 369 763 L 365 772 Q 366 776 364 778 Q 364 794 372 803 Q 381 814 398 817 Q 408 818 416 816 L 431 808 L 442 796 L 455 772 L 465 744 L 470 719 L 479 697 Q 482 691 489 690 L 486 689 Z M 700 695 Q 699 702 704 707 L 713 713 L 733 722 L 754 729 L 776 734 L 792 740 L 811 752 Q 819 759 821 772 L 820 783 L 814 794 Q 809 800 799 802 Q 789 802 784 798 Q 778 794 776 788 Q 775 778 779 774 Q 782 769 788 768 L 796 770 L 801 778 L 800 786 L 794 790 L 789 789 L 787 790 L 792 793 Q 802 795 806 790 Q 810 785 812 778 L 812 773 L 808 765 Q 803 758 793 756 L 786 756 L 776 760 Q 767 766 764 778 Q 762 793 769 801 Q 776 811 792 814 Q 809 815 818 807 Q 830 798 833 780 L 832 765 L 825 750 Q 811 734 790 726 L 761 717 L 720 710 L 703 702 L 700 695 Z M 594 737 L 591 745 L 594 760 L 601 774 L 637 827 Q 643 837 646 851 L 646 862 L 642 872 L 638 877 L 633 881 L 623 885 Q 610 886 605 881 Q 597 876 595 865 L 597 856 Q 601 849 609 847 Q 616 846 619 849 L 623 855 Q 624 863 621 867 L 616 870 L 609 869 L 604 866 L 605 870 L 613 876 Q 624 878 629 873 Q 635 869 636 861 Q 636 850 631 845 Q 626 837 617 835 Q 601 834 594 841 Q 585 847 583 860 Q 583 878 592 887 Q 599 894 611 897 Q 621 898 629 896 L 644 888 Q 654 879 658 864 L 658 849 L 657 844 Q 653 829 646 818 L 626 789 L 599 758 L 594 747 L 594 737 Z " /><path fill="rgb(0,0,0)" stroke="rgb(0,0,0)" stroke-width="1" opacity="0" d="M 555 457 L 637 457.5 L 611 534.5 L 601 574 L 590 574 L 590 570.5 L 584 552.5 L 577 524.5 L 555 457 Z " /><path fill="rgb(0,0,0)" stroke="rgb(0,0,0)" stroke-width="1" opacity="0" d="M 658.5 465 L 717 522.5 L 653.5 556 L 609 582 L 605.5 577 L 603 575.5 L 623 538.5 L 658.5 465 Z " /><path fill="rgb(0,0,0)" stroke="rgb(0,0,0)" stroke-width="1" opacity="0" d="M 530.5 466 Q 532.8 465.3 532 467.5 Q 558.3 524 588 576 L 582 580.5 Q 582.8 582.8 580.5 582 L 543.5 560 L 474 523.5 L 530.5 466 Z " /><path fill="rgb(0,0,0)" stroke="rgb(0,0,0)" stroke-width="1" opacity="0" d="M 461 546 L 506.5 562 Q 538 573.5 572.5 582 L 580 585.5 L 579 591.5 L 580 593.5 L 575.5 596 L 543.5 604 L 539.5 604 L 504.5 614 L 460 628 L 461 546 Z " /><path fill="rgb(0,0,0)" stroke="rgb(0,0,0)" stroke-width="1" opacity="0" d="M 725.5 547 L 728 547.5 L 728 593.5 L 727 594.5 L 726.5 629 L 655.5 606 L 611 595 L 612 588.5 L 611 585.5 L 618.5 582 L 676.5 565 L 725.5 547 Z " /><path fill="rgb(0,0,0)" stroke="rgb(0,0,0)" stroke-width="1" opacity="0" d="M 636.5 571 L 639 571.5 L 618.5 581 L 618 579 L 636.5 571 Z " /><path fill="rgb(0,0,0)" stroke="rgb(0,0,0)" stroke-width="1" opacity="0" d="M 580.5 597 L 585.5 603 Q 588.1 602.2 587 605.5 L 566 639.5 L 529 710 L 514.5 698 L 470 653.5 Q 469.2 650.9 472.5 652 L 546.5 616 L 580.5 597 Z " /><path fill="rgb(0,0,0)" stroke="rgb(0,0,0)" stroke-width="1" opacity="0" d="M 615.5 597 L 618 598 L 617.5 600 L 615 599 L 615.5 597 Z " /><path fill="rgb(0,0,0)" stroke="rgb(0,0,0)" stroke-width="1" opacity="0" d="M 609 598 L 615.5 600 L 649.5 620 L 717 653 L 717 654.5 L 660.5 712 Q 658.3 712.8 659 710.5 Q 633.2 655.3 603 604.5 L 609 599.5 L 609 598 Z " /><path fill="rgb(0,0,0)" stroke="rgb(0,0,0)" stroke-width="1" opacity="0" d="M 590 606 L 599.5 606 L 601 607.5 L 612 651.5 L 635 722.5 L 553 723 L 578 649.5 L 590 606 Z " /><path fill="rgb(0,0,0)" stroke="rgb(0,0,0)" stroke-width="1" opacity="0.9450980392156862" d="M 586.5 285 Q 610.5 283.5 620 296.5 L 627 309.5 L 628 324.5 Q 625.5 335 618.5 341 Q 611.1 348.6 595.5 348 Q 584.4 345.6 579 337.5 L 575 328.5 L 575 319.5 Q 577.1 311.6 583.5 308 Q 588.6 304.6 598.5 306 L 606 312.5 L 607 317.5 L 601.5 313 L 597.5 312 L 593.5 313 L 589 317.5 L 587 325.5 Q 588.3 331.3 592.5 334 Q 595.4 336.6 601.5 336 Q 610.4 334.4 614 327.5 L 616 321.5 L 616 316.5 Q 614.1 304.9 605.5 300 Q 599.7 295.8 588.5 297 Q 575.5 300 569 309.5 Q 563.5 317 564 330.5 L 566 341.5 L 573 360.5 L 588 386.5 L 602 417.5 L 605 428.5 L 605 440.5 L 601.5 447 L 601 445.5 L 602 444.5 L 602 434.5 L 596 420.5 L 575 390.5 L 561 363.5 L 553 339.5 L 552 320.5 Q 555.7 301.2 569.5 292 Q 576.4 286.9 586.5 285 Z " /><path fill="rgb(0,0,0)" stroke="rgb(0,0,0)" stroke-width="1" opacity="0.9450980392156862" d="M 410.5 337 L 422.5 339 L 428.5 342 L 439 351.5 L 444 362.5 L 444 373.5 Q 441.3 385.8 432.5 392 Q 426.2 397.7 412.5 396 Q 404.8 393.8 400 388.5 Q 393.8 384.2 395 372.5 Q 397.2 364.1 403.5 360 Q 407.1 357.1 414.5 358 L 422 363.5 L 420.5 363 L 413.5 362 L 407 367.5 L 406 373.5 Q 407.5 380 412.5 383 L 421.5 384 L 428 379.5 Q 433 375.5 432 365.5 Q 430.1 357.9 424.5 354 Q 418.8 348.2 405.5 350 Q 395.8 352.8 391 360.5 L 386 372.5 L 386 383.5 Q 390.6 398.4 402.5 406 L 412.5 413 L 468.5 439 Q 481.5 445.5 491 455.5 Q 495.8 460.2 496 469.5 L 495 469.5 Q 494.5 462 489.5 459 L 478.5 452 L 438.5 439 L 412.5 427 Q 396.8 418.7 385 406.5 Q 378.4 399.6 375 389.5 Q 372.4 381.6 374 369.5 L 379 356.5 L 385 348 L 399.5 339 L 410.5 337 Z " /><path fill="rgb(0,0,0)" stroke="rgb(0,0,0)" stroke-width="1" opacity="0.9450980392156862" d="M 758.5 343 L 769.5 343 L 777.5 345 Q 789.1 349.4 796 358.5 L 801 367.5 L 803 380.5 L 801 390.5 L 797 398.5 L 788.5 407 Q 781.5 413 766.5 411 Q 754.9 408.1 749 399.5 Q 744 392.9 746 379.5 Q 748.5 371.5 754.5 367 Q 758.6 363.1 767.5 364 Q 775.1 365.4 779 370.5 Q 783 374 782 382.5 L 778.5 388 L 779 386.5 Q 780 378.5 775.5 376 Q 773.2 373.3 767.5 374 L 759 380.5 L 758 389.5 L 762.5 396 Q 766.7 400.3 776.5 399 Q 783 397.5 786 392.5 Q 791.8 386.8 790 373.5 Q 787.5 365.5 781.5 361 Q 774.4 354.6 760.5 355 L 748.5 359 L 742 364.5 L 733 378.5 L 727 395.5 L 722 420.5 L 722 426.5 L 713 461.5 Q 709 474.5 699.5 482 L 693.5 484 L 693.5 483 L 700 478.5 Q 704.5 472.5 706 463.5 L 707 450.5 L 708 449.5 L 709 423.5 L 716 389.5 Q 722.1 366.1 737.5 352 Q 745.6 345.1 758.5 343 Z " /><path fill="rgb(0,0,0)" stroke="rgb(0,0,0)" stroke-width="1" opacity="0.9450980392156862" d="M 599.5 448 L 601.5 449 L 648 449 L 622 521.5 L 624 522 L 655 452 L 656.5 452 L 730 524.5 L 713.5 534 L 641 569 L 641.5 571 L 659.5 563 L 735.5 535 L 736 595.5 L 735 596.5 L 735 640 L 640.5 608 L 640.5 609 Q 687.2 628.8 731 651.5 L 657.5 726 L 615 637.5 L 602.5 606 L 602 608.5 L 618 647.5 L 646 732 L 541.5 732 L 541 730.5 L 574 640.5 L 588 607.5 L 587 607.5 Q 561.6 669.1 529.5 724 L 456 651.5 Q 455.3 649.3 457.5 650 L 537.5 613 L 577 597.5 L 574.5 597 L 542.5 610 L 452.5 639 L 452 595.5 L 453 594.5 L 453 535.5 L 454.5 534 L 537.5 566 L 538 564 L 523.5 558 L 460 525.5 L 532.5 452 Q 534.8 451.3 534 453.5 Q 554.7 492.8 572.5 535 L 573 532.5 Q 556.6 492.3 544 449 L 598.5 449 L 599.5 448 Z M 555 457 L 577 525 L 584 553 L 590 571 L 590 574 L 601 574 L 611 535 L 637 458 L 555 457 Z M 659 465 L 623 539 L 603 576 L 606 577 L 609 582 L 654 556 L 717 523 L 659 465 Z M 531 466 L 474 524 L 544 560 L 581 582 Q 583 583 582 581 L 588 576 Q 558 524 532 468 Q 533 465 531 466 Z M 461 546 L 460 628 L 505 614 L 540 604 L 544 604 L 576 596 L 580 594 L 579 592 L 580 586 L 573 582 Q 538 574 507 562 L 461 546 Z M 726 547 L 677 565 L 619 582 L 611 586 L 612 589 L 611 595 L 656 606 L 727 629 L 727 595 L 728 594 L 728 548 L 726 547 Z M 637 571 L 618 579 L 619 581 L 639 572 L 637 571 Z M 581 597 L 547 616 L 473 652 Q 469 651 470 654 L 515 698 L 529 710 L 566 640 L 587 606 Q 588 602 586 603 L 581 597 Z M 616 597 L 615 599 L 618 600 L 618 598 L 616 597 Z M 609 598 L 609 600 L 603 605 Q 633 655 659 711 Q 658 713 661 712 L 717 655 L 717 653 L 650 620 L 616 600 L 609 598 Z M 621 599 L 620 601 L 638 608 L 640 608 L 621 599 Z M 590 606 L 578 650 L 553 723 L 635 723 L 612 652 L 601 608 L 600 606 L 590 606 Z " /><path fill="rgb(0,0,0)" stroke="rgb(0,0,0)" stroke-width="1" opacity="0.9450980392156862" d="M 853.5 544 L 867.5 544 L 878.5 547 Q 887.9 551.1 894 558.5 L 901 570.5 L 904 585.5 L 903 586.5 L 902 597.5 L 899 603.5 L 889.5 614 L 876.5 620 L 862.5 620 Q 850.9 617.1 845 608.5 L 840 596.5 L 840 586.5 Q 842.8 576.3 850.5 571 L 860.5 567 L 867.5 567 Q 875.3 568.2 879 573.5 L 883 582.5 L 883 587.5 Q 881.9 594.9 876.5 598 Q 874.2 600.7 868.5 600 L 868.5 599 L 874 595.5 L 876 589.5 L 875 585.5 L 870.5 581 L 862.5 579 Q 856.8 580.3 854 584.5 Q 851.3 587.8 852 594.5 Q 853.6 601.5 858.5 605 Q 863.3 609.7 874.5 608 Q 882.5 605.5 887 599.5 Q 893 593.5 891 579.5 Q 888.1 566.9 878.5 561 L 870.5 557 L 855.5 556 L 828.5 563 L 804.5 575 L 773.5 587 L 760.5 590 L 749.5 590 L 740 584.5 L 741.5 585 Q 745.1 587.9 752.5 587 L 760.5 585 Q 778.7 577.2 793.5 566 L 818.5 554 L 834.5 548 L 853.5 544 Z " /><path fill="rgb(0,0,0)" stroke="rgb(0,0,0)" stroke-width="1" opacity="0.9450980392156862" d="M 304.5 550 L 319.5 550 L 322.5 551 Q 330.9 554.6 336 561.5 Q 341.7 568.3 341 581.5 L 339 588.5 L 334 596 L 322.5 602 L 311.5 602 L 308.5 601 L 301 593.5 Q 297.9 589.1 299 580.5 Q 300.3 574.8 304.5 572 L 311.5 570 L 311.5 571 L 307 574.5 L 305 580.5 L 309.5 588 Q 312.8 590.7 319.5 590 L 327 584.5 L 329 576.5 Q 327.6 568.9 322.5 565 Q 318 560.5 307.5 562 L 296 568 L 291 576.5 L 290 587.5 Q 292.9 601.1 302.5 608 L 314.5 613 L 324.5 613 L 347.5 606 Q 364.7 598.2 378.5 587 L 409.5 571 Q 418.1 566.6 430.5 566 L 435.5 567 L 441 570.5 L 439.5 570 L 429.5 569 L 417.5 574 L 379.5 602 L 350.5 618 L 336.5 623 L 326.5 625 L 312.5 625 Q 294.8 621.2 286 608.5 L 279 594.5 L 278 578.5 Q 281 564.5 290.5 557 L 304.5 550 Z " /><path fill="rgb(0,0,0)" stroke="rgb(0,0,0)" stroke-width="1" opacity="0.9450980392156862" d="M 485.5 689 L 489 689.5 Q 481.9 690.9 479 696.5 L 470 718.5 L 465 743.5 L 455 771.5 L 442 795.5 L 430.5 808 L 415.5 816 Q 408.4 818.4 397.5 817 Q 380.8 813.7 372 802.5 Q 363.9 794.1 364 777.5 Q 366.3 776.2 365 771.5 L 369 762.5 L 377.5 753 L 387.5 748 L 396.5 747 L 409.5 751 L 418 758.5 L 421 763.5 L 423 773.5 L 419 786.5 L 412.5 793 Q 408.7 797.2 399.5 796 Q 391.2 793.9 387 787.5 Q 383.8 784.2 385 776.5 L 389.5 770 L 389 771.5 Q 387 782 393.5 784 L 401.5 785 L 408 780.5 Q 411.6 777.6 410 769.5 L 405.5 763 Q 401 758.5 390.5 760 L 381 766.5 Q 375 772.5 377 786.5 L 383 797 L 395.5 804 L 409.5 805 Q 420.8 802.3 427 794.5 Q 436.9 783.4 443 768.5 L 453 738.5 L 464 712.5 L 471 700.5 L 480.5 691 L 485.5 689 Z " /><path fill="rgb(0,0,0)" stroke="rgb(0,0,0)" stroke-width="1" opacity="0.9450980392156862" d="M 699.5 695 L 703 702 L 719.5 710 L 760.5 717 L 789.5 726 Q 811.3 733.7 825 749.5 L 832 764.5 L 833 779.5 Q 829.9 797.9 817.5 807 Q 808.9 814.9 791.5 814 Q 776.4 811.1 769 800.5 Q 762.1 793.4 764 777.5 Q 766.9 765.9 775.5 760 L 785.5 756 L 792.5 756 Q 802.8 757.8 808 764.5 L 812 772.5 L 812 777.5 Q 810.3 785.3 805.5 790 Q 801.7 794.7 791.5 793 L 787 789.5 L 788.5 789 L 793.5 790 L 800 785.5 L 801 777.5 L 795.5 770 L 787.5 768 Q 781.8 769.3 779 773.5 Q 774.7 777.7 776 787.5 Q 778.3 794.3 783.5 798 Q 788.8 802.2 798.5 802 Q 808.8 800.3 814 793.5 L 820 782.5 L 821 771.5 Q 819 758.5 810.5 752 L 791.5 740 L 775.5 734 L 753.5 729 L 732.5 722 L 712.5 713 L 704 706.5 Q 699 702.3 699.5 695 Z " /><path fill="rgb(0,0,0)" stroke="rgb(0,0,0)" stroke-width="1" opacity="0.9450980392156862" d="M 594.5 736 L 594 737.5 L 594 746.5 L 599 757.5 L 626 788.5 L 646 817.5 Q 653 829 657 843.5 L 658 848.5 L 658 863.5 Q 654.4 879.4 643.5 888 L 628.5 896 Q 621.4 898.4 610.5 897 Q 598.9 894.1 592 886.5 Q 582.9 877.6 583 859.5 Q 585.4 847.4 593.5 841 Q 600.8 833.8 616.5 835 Q 626.1 837.4 631 844.5 Q 635.8 850.2 636 860.5 Q 634.5 869 628.5 873 Q 623.7 877.7 612.5 876 L 605 869.5 L 604 865.5 L 608.5 869 L 615.5 870 L 621 866.5 Q 624.3 862.8 623 854.5 L 618.5 849 Q 615.5 846 608.5 847 Q 600.6 849.1 597 855.5 L 595 864.5 Q 596.7 875.8 604.5 881 Q 610.1 886.4 622.5 885 L 632.5 881 L 638 877 L 642 871.5 L 646 861.5 L 646 850.5 Q 643.2 836.8 637 826.5 L 601 773.5 L 594 759.5 L 591 744.5 L 592 739.5 L 594.5 736 Z " /></svg>