<svg width="1181" height="1181" version="1.1" xmlns="http://www.w3.org/2000/svg" desc="Created with imagetracer.js version 1.2.6" ><path fill="rgb(0,0,0)" stroke="rgb(0,0,0)" stroke-width="1" opacity="0.9019607843137255" d="M 722.5 295 L 723 306.5 L 719 319.5 L 710 334.5 L 688.5 358 L 647.5 392 L 582.5 440 L 546 472.5 Q 521.3 495.8 506 528.5 L 500 549.5 L 500 572.5 Q 506.9 608.1 531.5 626 L 535.5 628 L 534 625.5 Q 527.2 616.8 524 604.5 L 522 593.5 L 522 583.5 L 524 572.5 L 531 555.5 Q 538.5 543 549.5 534 Q 561.8 523.8 579.5 519 L 591.5 518 L 592.5 517 L 603.5 517 L 619.5 520 L 636.5 527 Q 652 535.5 663 548.5 Q 674.4 561.6 681 579.5 L 685 595.5 L 686 616.5 L 685 617.5 L 684 629.5 L 680 643.5 L 669 665.5 Q 649.4 696.4 622.5 720 Q 594.4 744.9 563.5 767 Q 527.6 789.1 494.5 814 L 464 842.5 Q 452.4 854.9 450.5 877 L 450 865.5 Q 452.6 852.1 459 842.5 L 482.5 815 L 520.5 783 L 595.5 727 L 631 694.5 Q 647.5 677.5 660 656.5 L 671 631.5 L 673 622.5 L 674 608.5 L 673 607.5 L 672 592.5 L 667 577.5 Q 660 562 648.5 551 L 638.5 543 L 638 544.5 Q 652 559 651 588.5 Q 645.3 620.8 623.5 637 Q 611.3 647.3 593.5 652 L 581.5 653 L 580.5 654 L 569.5 654 L 553.5 651 L 538.5 645 Q 522.6 636.4 511 623.5 Q 499.5 611 493 593.5 L 488 574.5 L 487 557.5 L 488 556.5 L 488 547.5 L 490 537.5 Q 494.7 520.7 503 507.5 Q 522.5 476 549.5 452 L 605.5 407 L 673.5 361 L 703 335.5 L 718 314.5 Q 722.1 306.6 722.5 295 Z M 587 533 Q 576 535 569 541 Q 557 549 554 567 Q 554 582 561 591 Q 568 599 581 602 Q 587 604 586 600 L 578 597 L 572 589 Q 571 579 575 576 L 575 574 L 573 575 L 568 581 L 566 582 L 569 577 L 577 569 L 591 564 Q 606 564 615 571 Q 627 580 631 597 L 631 607 L 633 607 L 637 597 L 639 586 L 637 569 L 629 553 Q 621 542 609 536 L 599 533 L 587 533 Z M 542 563 L 536 575 L 535 587 L 534 588 L 536 603 L 544 619 Q 554 633 575 638 Q 595 639 605 630 Q 616 622 619 606 Q 620 590 613 582 Q 607 573 597 570 L 594 571 L 597 572 Q 602 576 603 584 Q 603 593 597 597 L 598 598 L 601 596 L 606 592 L 605 594 Q 598 605 583 607 Q 566 607 558 599 Q 548 592 544 581 Q 541 574 542 563 Z " /><path fill="rgb(0,0,0)" stroke="rgb(0,0,0)" stroke-width="1" opacity="0.9019607843137255" d="M 648.5 449 Q 657.9 449.1 662 454.5 L 665 459.5 L 666 465.5 L 664 472.5 L 658.5 478 Q 654.5 481.5 645.5 480 L 637 473.5 Q 633.5 469.5 635 460.5 Q 636.6 453.6 642.5 451 L 648.5 449 Z " /><path fill="rgb(0,0,0)" stroke="rgb(0,0,0)" stroke-width="1" opacity="0.9019607843137255" d="M 521.5 693 L 529.5 693 L 538 698.5 Q 541.9 702.6 541 711.5 Q 539.5 718 534.5 721 L 524.5 724 Q 516.7 722.8 513 717.5 Q 509 714 510 705.5 L 515.5 696 L 521.5 693 Z " /><path fill="rgb(0,0,0)" stroke="rgb(0,0,0)" stroke-width="1" opacity="0.9019607843137255" d="M 451.5 879 L 452 881.5 L 451 881.5 L 451.5 879 Z " /><path fill="rgb(0,0,0)" stroke="rgb(0,0,0)" stroke-width="1" opacity="0" d="M 0 0 L 1181 0 L 1181 1181 L 0 1181 L 0 0 Z M 723 295 Q 722 307 718 315 L 703 336 L 674 361 L 606 407 L 550 452 Q 522 476 503 508 Q 495 521 490 538 L 488 548 L 488 557 L 487 558 L 488 575 L 493 594 Q 499 611 511 624 Q 523 636 539 645 L 554 651 L 570 654 L 581 654 L 582 653 L 594 652 Q 611 647 624 637 Q 645 621 651 589 Q 652 559 638 545 L 639 543 L 649 551 Q 660 562 667 578 L 672 593 L 673 608 L 674 609 L 673 623 L 671 632 L 660 657 Q 647 677 631 695 L 596 727 L 521 783 L 483 815 L 459 843 Q 453 852 450 866 L 451 877 Q 452 855 464 843 L 495 814 Q 528 789 564 767 Q 594 745 623 720 Q 649 696 669 666 L 680 644 L 684 630 L 685 618 L 686 617 L 685 596 L 681 580 Q 674 562 663 549 Q 652 536 637 527 L 620 520 L 604 517 L 593 517 L 592 518 L 580 519 Q 562 524 550 534 Q 538 543 531 556 L 524 573 L 522 584 L 522 594 L 524 605 Q 527 617 534 626 L 536 628 L 532 626 Q 507 608 500 573 L 500 550 L 506 529 Q 521 496 546 473 L 583 440 L 648 392 L 689 358 L 710 335 L 719 320 L 723 307 L 723 295 Z M 649 449 L 643 451 Q 637 454 635 461 Q 634 470 637 474 L 646 480 Q 655 482 659 478 L 664 473 L 666 466 L 665 460 L 662 455 Q 658 449 649 449 Z M 522 693 L 516 696 L 510 706 Q 509 714 513 718 Q 517 723 525 724 L 535 721 Q 539 718 541 712 Q 542 703 538 699 L 530 693 L 522 693 Z M 452 879 L 451 882 L 452 882 L 452 879 Z " /><path fill="rgb(0,0,0)" stroke="rgb(0,0,0)" stroke-width="1" opacity="0" d="M 586.5 533 L 598.5 533 L 608.5 536 Q 621.4 541.6 629 552.5 L 637 568.5 L 639 585.5 L 637 596.5 L 633 607 L 631 606.5 L 631 596.5 Q 627 579.5 614.5 571 Q 606.1 563.9 590.5 564 L 576.5 569 L 569 576.5 L 569.5 578 L 574.5 574 L 575 575.5 Q 570.5 579 572 588.5 L 577.5 597 L 586 600 Q 587.4 604 580.5 602 Q 567.6 599.4 561 590.5 Q 553.5 582.5 554 566.5 Q 556.8 549.3 568.5 541 Q 575.5 535 586.5 533 Z " /><path fill="rgb(0,0,0)" stroke="rgb(0,0,0)" stroke-width="1" opacity="0" d="M 541.5 563 Q 541 573.5 544 580.5 Q 548.4 592.1 557.5 599 Q 565.9 607.1 582.5 607 Q 598 604.5 605 593.5 L 604.5 592 L 597.5 598 L 597 596.5 Q 602.6 592.6 603 583.5 Q 601.8 575.7 596.5 572 L 594 570.5 L 596.5 570 Q 607.1 573.4 613 581.5 Q 620 589.5 619 605.5 Q 615.9 621.9 604.5 630 Q 594.7 639.2 574.5 638 Q 554.1 633.4 544 618.5 L 536 602.5 L 534 587.5 L 535 586.5 L 536 574.5 L 541.5 563 Z " /></svg>