<svg width="1181" height="1181" version="1.1" xmlns="http://www.w3.org/2000/svg" desc="Created with imagetracer.js version 1.2.6" ><path fill="rgb(0,0,0)" stroke="rgb(0,0,0)" stroke-width="1" opacity="0" d="M 0 0 L 1181 0 L 1181 1181 L 0 1181 L 0 0 Z M 562 320 Q 547 323 539 331 Q 530 338 526 350 L 523 364 Q 524 386 536 398 Q 545 408 562 411 L 578 411 L 592 406 L 593 406 L 553 470 L 533 507 Q 523 525 517 548 L 512 574 L 512 581 L 510 581 L 501 548 L 495 510 L 485 460 L 477 432 L 472 422 L 471 412 L 466 401 Q 457 390 442 387 L 425 387 Q 413 389 406 395 Q 391 405 387 425 Q 385 449 396 461 Q 406 474 426 478 Q 437 480 445 477 Q 456 474 464 467 L 470 457 L 472 449 L 472 440 L 468 447 L 450 462 L 439 466 Q 420 467 412 459 Q 402 452 399 439 L 400 423 L 406 412 Q 413 402 427 399 Q 439 397 446 401 L 461 411 L 468 419 L 476 442 L 482 475 L 488 523 L 490 529 L 493 549 L 501 580 L 509 602 L 518 620 L 534 642 L 538 644 L 539 647 L 505 631 L 440 591 L 406 573 Q 403 574 404 572 L 395 563 L 387 559 L 375 556 L 365 556 L 356 558 L 340 567 Q 328 577 324 595 Q 323 606 325 614 Q 328 625 335 633 L 347 642 L 356 646 L 366 648 L 381 647 L 398 639 L 404 633 L 409 619 L 409 609 L 403 619 L 388 631 L 372 636 Q 358 636 351 630 Q 339 623 336 608 L 336 597 L 342 583 L 351 574 L 359 570 L 368 568 L 382 570 L 401 583 L 407 591 L 408 595 L 409 595 L 408 581 L 408 579 Q 440 597 469 619 L 501 638 Q 522 650 547 659 L 576 666 L 586 666 L 586 668 L 544 679 L 474 691 L 441 700 L 429 700 L 421 702 L 407 710 Q 394 720 390 740 L 390 753 L 392 761 L 399 774 Q 409 787 428 791 L 445 791 Q 457 789 465 782 Q 470 778 473 771 L 476 754 L 476 751 L 472 759 L 455 774 L 443 779 Q 432 780 426 778 L 415 772 Q 405 764 402 750 L 402 742 L 404 734 L 411 723 Q 418 715 431 712 L 442 712 L 449 714 L 464 724 Q 472 729 475 740 L 476 740 L 474 724 L 469 714 L 454 703 Q 451 704 452 701 L 474 697 L 529 690 L 582 678 Q 604 671 623 661 Q 637 653 648 642 L 649 643 L 631 679 L 590 745 L 576 773 L 566 784 L 562 792 L 559 804 L 559 813 L 561 823 L 567 835 L 572 841 L 588 851 L 599 854 L 617 853 L 635 844 Q 640 840 642 834 L 645 821 L 645 814 L 641 822 L 622 838 L 610 842 Q 594 843 586 836 L 577 828 L 573 820 L 571 811 Q 571 795 579 787 Q 586 778 599 775 Q 611 773 619 777 L 635 788 Q 642 793 644 803 L 645 803 L 644 790 L 639 778 Q 632 769 622 765 L 607 762 L 597 763 L 585 767 L 583 768 L 623 708 L 643 674 L 660 637 L 666 617 L 668 607 L 668 600 L 669 599 L 669 586 L 671 585 L 678 603 L 684 623 L 700 699 L 708 730 L 713 743 L 715 758 L 724 774 Q 734 785 752 789 Q 764 791 772 788 L 788 780 L 795 772 L 799 756 L 799 749 L 796 756 L 781 770 L 766 777 L 754 777 L 740 771 L 731 763 L 726 752 Q 728 746 725 745 L 726 736 L 731 725 Q 738 713 754 710 L 770 711 L 778 715 L 790 724 Q 796 728 798 738 L 799 738 L 798 725 L 793 713 Q 784 701 768 698 L 752 698 L 747 699 L 730 708 Q 719 717 715 732 L 713 731 L 708 707 L 700 656 L 688 608 Q 681 584 670 565 L 652 540 L 637 528 L 638 526 Q 662 534 683 545 L 749 583 L 785 600 L 796 609 L 810 614 L 826 614 L 831 613 L 848 604 L 853 598 L 857 586 L 857 576 L 854 582 L 838 596 L 824 602 L 808 601 L 797 595 Q 787 587 784 574 Q 783 556 791 548 Q 798 538 812 535 Q 823 534 831 537 L 846 547 Q 853 551 856 561 L 857 561 Q 858 545 851 537 Q 842 526 826 523 Q 813 521 806 524 L 790 532 Q 776 542 772 562 L 772 576 L 777 591 L 778 592 L 758 581 L 716 554 L 677 533 L 639 518 L 610 512 L 588 512 L 577 515 L 576 513 L 595 505 L 620 497 L 644 491 L 700 480 L 731 472 L 744 467 L 755 466 Q 767 463 775 456 Q 780 452 782 445 L 784 435 L 784 427 L 780 435 L 764 449 L 753 454 Q 746 452 745 455 L 734 453 L 722 446 Q 713 440 711 428 L 711 414 L 718 400 L 727 392 L 736 388 Q 740 389 742 387 L 748 387 L 759 390 L 772 399 L 781 409 L 783 415 L 784 415 Q 784 399 778 390 L 770 382 L 762 378 L 750 375 L 734 376 L 717 384 L 705 397 L 700 408 L 698 419 L 699 431 Q 702 442 708 450 Q 717 461 733 466 L 732 467 L 708 472 L 652 481 L 608 492 Q 584 499 565 510 L 541 527 L 530 540 L 528 540 L 543 505 L 580 441 L 601 399 L 604 396 L 609 380 L 609 353 Q 607 351 608 346 L 604 336 Q 592 318 562 320 Z " /><path fill="rgb(0,0,0)" stroke="rgb(0,0,0)" stroke-width="1" opacity="0" d="M 563.5 332 L 575.5 332 L 584.5 335 L 604 350.5 L 607 355.5 L 607 369.5 L 605 377.5 L 600.5 384 L 584.5 396 L 575.5 399 L 563.5 399 Q 549.1 395.9 542 385.5 Q 533.8 377.2 536 358.5 Q 539.5 345 549.5 338 L 563.5 332 Z " /><path fill="rgb(0,0,0)" stroke="rgb(0,0,0)" stroke-width="1" opacity="0" d="M 596.5 530 L 612.5 530 Q 625.9 532.9 635 539 L 634.5 541 Q 621.5 531.5 597.5 533 Q 578.3 536.3 568 548.5 Q 560.7 555.9 558 567 L 556 566.5 Q 559.9 549.9 571.5 541 Q 581.1 532.6 596.5 530 Z " /><path fill="rgb(0,0,0)" stroke="rgb(0,0,0)" stroke-width="1" opacity="0" d="M 569.5 531 L 570 533 L 568.5 533 L 557 544.5 L 550 557.5 L 548 566.5 L 548 580.5 Q 551.6 598.9 563 609.5 L 561.5 609 L 550 598.5 Q 540.9 588.1 543 566.5 Q 546.8 547.3 559.5 537 L 569.5 531 Z " /><path fill="rgb(0,0,0)" stroke="rgb(0,0,0)" stroke-width="1" opacity="0" d="M 598.5 541 L 611.5 541 L 620.5 543 L 629.5 547 L 642 556 L 649 565.5 L 654 578.5 L 653 578.5 Q 647.4 563.1 635.5 554 L 619.5 546 L 601.5 544 L 588.5 547 L 576.5 554 L 576 552.5 L 585.5 545 L 598.5 541 Z " /><path fill="rgb(0,0,0)" stroke="rgb(0,0,0)" stroke-width="1" opacity="0" d="M 633.5 564 L 637 566.5 Q 644.4 575.1 648 587.5 Q 650.8 596.2 649 609.5 Q 645.3 625.8 635.5 636 L 634 635.5 Q 647.1 622.1 647 595.5 L 644 581.5 Q 639.6 570.9 633.5 564 Z " /><path fill="rgb(0,0,0)" stroke="rgb(0,0,0)" stroke-width="1" opacity="0" d="M 590.5 565 Q 605.9 565.6 612 575.5 Q 615.5 579 616 585.5 L 613 597.5 L 604.5 608 L 595.5 611 L 584.5 611 Q 576.2 608.9 572 602.5 Q 566.4 595.6 568 581.5 L 573 573 L 580.5 568 L 590.5 565 Z " /><path fill="rgb(0,0,0)" stroke="rgb(0,0,0)" stroke-width="1" opacity="0" d="M 539.5 598 Q 541.8 597.3 541 599.5 L 552.5 613 L 569.5 622 L 579.5 624 L 587.5 624 L 588.5 623 Q 597.4 624.3 601 622 Q 602.1 624.7 599.5 624 L 586.5 629 L 574.5 629 L 561.5 625 L 546 611.5 L 539.5 598 Z " /><path fill="rgb(0,0,0)" stroke="rgb(0,0,0)" stroke-width="1" opacity="0" d="M 608.5 628 L 609 630 L 597.5 636 L 590.5 637 L 590.5 636 Q 601.8 634.3 608.5 628 Z " /><path fill="rgb(0,0,0)" stroke="rgb(0,0,0)" stroke-width="1" opacity="0" d="M 618.5 638 L 619 640 L 616.5 641 L 618.5 638 Z " /><path fill="rgb(0,0,0)" stroke="rgb(0,0,0)" stroke-width="1" opacity="0.9607843137254902" d="M 561.5 320 Q 592.3 318.3 604 335.5 L 608 345.5 Q 606.5 351 609 352.5 L 609 379.5 L 604 395.5 L 601 398.5 L 580 440.5 L 543 504.5 L 528 539.5 L 529.5 540 L 540.5 527 L 564.5 510 Q 584 499 607.5 492 L 651.5 481 L 707.5 472 L 731.5 467 L 733 465.5 Q 716.8 461.2 708 449.5 Q 701.8 441.8 699 430.5 L 698 418.5 L 700 407.5 L 705 396.5 L 716.5 384 L 733.5 376 L 749.5 375 L 761.5 378 L 769.5 382 L 778 389.5 Q 784.5 398.5 784 414.5 L 783 414.5 L 781 408.5 L 771.5 399 L 758.5 390 L 747.5 387 L 741.5 387 Q 740.3 389.3 735.5 388 L 726.5 392 L 718 399.5 L 711 413.5 L 711 427.5 Q 713.5 439.5 721.5 446 L 733.5 453 L 744.5 455 Q 746.3 452.2 752.5 454 L 763.5 449 L 780 434.5 L 783.5 427 L 784 434.5 L 782 444.5 Q 779.8 451.8 774.5 456 Q 766.6 463.1 754.5 466 L 743.5 467 L 730.5 472 L 699.5 480 L 643.5 491 L 619.5 497 L 594.5 505 L 576 513 L 576.5 515 L 587.5 512 L 609.5 512 L 638.5 518 L 676.5 533 L 715.5 554 L 757.5 581 L 777.5 592 L 777 590.5 L 772 575.5 L 772 561.5 Q 775.7 541.7 789.5 532 L 805.5 524 Q 813.4 521.4 825.5 523 Q 841.8 526.2 851 536.5 Q 857.6 544.9 857 560.5 L 856 560.5 Q 853.3 551.2 845.5 547 L 830.5 537 Q 823.3 533.7 811.5 535 Q 798.4 538.4 791 547.5 Q 783.1 556.1 784 573.5 Q 787 587.5 796.5 595 L 807.5 601 L 823.5 602 L 837.5 596 L 854 581.5 L 856.5 576 L 857 585.5 L 853 597.5 L 847.5 604 L 830.5 613 L 825.5 614 L 809.5 614 L 795.5 609 L 784.5 600 L 748.5 583 L 682.5 545 Q 661.6 533.9 637.5 526 L 637 527.5 L 652 539.5 L 670 564.5 Q 681 584 688 607.5 L 700 655.5 L 708 706.5 L 713 730.5 L 714.5 732 Q 718.6 716.6 729.5 708 L 746.5 699 L 751.5 698 L 767.5 698 Q 784 701.5 793 712.5 L 798 724.5 L 799 737.5 L 798 737.5 Q 796.1 728.4 789.5 724 L 777.5 715 L 769.5 711 L 753.5 710 Q 738.4 713.4 731 724.5 L 726 735.5 L 725 744.5 Q 727.5 746 726 751.5 L 731 762.5 L 739.5 771 L 753.5 777 L 765.5 777 L 780.5 770 L 796 755.5 L 798.5 749 L 799 755.5 L 795 771.5 L 787.5 780 L 771.5 788 Q 763.6 790.6 751.5 789 Q 733.9 785.1 724 773.5 L 715 757.5 L 713 742.5 L 708 729.5 L 700 698.5 L 684 622.5 L 678 602.5 L 671 585 L 669 585.5 L 669 598.5 L 668 599.5 L 668 606.5 L 666 616.5 L 660 636.5 L 643 673.5 L 623 707.5 L 592 752.5 L 584 767 L 596.5 763 L 606.5 762 L 621.5 765 Q 632.5 769 639 777.5 L 644 789.5 L 645 802.5 L 644 802.5 Q 641.9 792.6 634.5 788 L 618.5 777 Q 611.3 773.3 598.5 775 Q 586.1 778.1 579 786.5 Q 571.4 794.9 571 810.5 L 573 819.5 L 577 827.5 L 585.5 836 Q 593.9 842.6 609.5 842 L 621.5 838 L 641 821.5 L 644.5 814 L 645 820.5 L 642 833.5 Q 639.8 840.3 634.5 844 L 616.5 853 L 598.5 854 L 587.5 851 L 572 841 L 567 834.5 L 561 822.5 L 559 812.5 L 559 803.5 L 562 791.5 L 566 783.5 L 576 772.5 L 590 744.5 L 631 678.5 L 649 642.5 L 647.5 642 Q 636.9 653.4 622.5 661 Q 603.8 671.3 581.5 678 L 528.5 690 L 473.5 697 L 452 701 Q 450.9 703.7 453.5 703 L 469 713.5 L 474 723.5 L 476 739.5 L 475 739.5 Q 471.9 729 463.5 724 L 448.5 714 L 441.5 712 L 430.5 712 Q 418 714.5 411 722.5 L 404 733.5 L 402 741.5 L 402 749.5 Q 404.7 764.3 414.5 772 L 425.5 778 Q 432.2 780.3 442.5 779 L 454.5 774 L 472 758.5 L 475.5 751 L 476 753.5 L 473 770.5 Q 470.4 777.9 464.5 782 Q 456.6 788.6 444.5 791 L 427.5 791 Q 408.7 786.8 399 773.5 L 392 760.5 L 390 752.5 L 390 739.5 Q 393.5 720 406.5 710 L 420.5 702 L 428.5 700 L 440.5 700 L 473.5 691 L 543.5 679 L 586 668 L 585.5 666 L 575.5 666 L 546.5 659 Q 521.7 650.3 500.5 638 L 468.5 619 L 418.5 585 L 408 580 L 409 585.5 L 409 594.5 L 408 594.5 L 407 590.5 L 400.5 583 L 381.5 570 L 367.5 568 L 358.5 570 L 350.5 574 L 342 582.5 L 336 596.5 L 336 607.5 Q 339.4 622.6 350.5 630 Q 358 636 371.5 636 L 387.5 631 L 403 618.5 L 408.5 609 L 409 618.5 L 404 632.5 L 397.5 639 L 380.5 647 L 365.5 648 L 355.5 646 L 346.5 642 L 335 632.5 Q 328.2 624.8 325 613.5 Q 322.5 606 324 594.5 Q 327.9 576.9 339.5 567 L 355.5 558 L 364.5 556 L 374.5 556 L 386.5 559 L 394.5 563 L 404 571.5 Q 403.3 573.8 405.5 573 L 439.5 591 L 504.5 631 L 539 647 L 537.5 644 L 534 641.5 L 518 619.5 L 509 601.5 L 501 579.5 L 493 548.5 L 490 528.5 L 488 522.5 L 482 474.5 L 476 441.5 L 468 418.5 L 460.5 411 L 445.5 401 Q 438.6 397.4 426.5 399 Q 412.9 401.9 406 411.5 L 400 422.5 L 399 438.5 Q 402.4 451.6 411.5 459 Q 420.4 467.1 438.5 466 L 449.5 462 L 468 446.5 L 471.5 440 L 472 448.5 L 470 456.5 L 463.5 467 Q 455.8 473.8 444.5 477 Q 437 479.5 425.5 478 Q 405.7 474.3 396 460.5 Q 385.1 448.9 387 424.5 Q 391.3 404.8 405.5 395 Q 413.3 389.3 424.5 387 L 441.5 387 Q 457 390.5 466 400.5 L 471 411.5 L 472 421.5 L 477 431.5 L 485 459.5 L 495 509.5 L 501 547.5 L 510 581 L 512 580.5 L 512 573.5 L 517 547.5 Q 523.5 525.5 533 506.5 L 553 469.5 L 582 424.5 L 592 406 L 577.5 411 L 561.5 411 Q 545.5 407.5 536 397.5 Q 523.8 386.2 523 363.5 L 526 349.5 Q 530.2 338.2 538.5 331 Q 547.4 322.9 561.5 320 Z M 564 332 L 550 338 Q 540 345 536 359 Q 534 377 542 386 Q 549 396 564 399 L 576 399 L 585 396 L 601 384 L 605 378 L 607 370 L 607 356 L 604 351 L 585 335 L 576 332 L 564 332 Z M 597 530 Q 581 533 572 541 Q 560 550 556 567 L 558 567 Q 561 556 568 549 Q 578 536 598 533 Q 621 532 635 541 L 635 539 Q 626 533 613 530 L 597 530 Z M 570 531 L 560 537 Q 547 547 543 567 Q 541 588 550 599 L 562 609 L 563 610 Q 552 599 548 581 L 548 567 L 550 558 L 557 545 L 569 533 L 570 533 L 570 531 Z M 599 541 L 586 545 L 576 553 L 577 554 L 589 547 L 602 544 L 620 546 L 636 554 Q 647 563 653 579 L 654 579 L 649 566 L 642 556 L 630 547 L 621 543 L 612 541 L 599 541 Z M 634 564 Q 640 571 644 582 L 647 596 Q 647 622 634 636 L 636 636 Q 645 626 649 610 Q 651 596 648 588 Q 644 575 637 567 L 634 564 Z M 591 565 L 581 568 L 573 573 L 568 582 Q 566 596 572 603 Q 576 609 585 611 L 596 611 L 605 608 L 613 598 L 616 586 Q 615 579 612 576 Q 606 566 591 565 Z M 540 598 L 546 612 L 562 625 L 575 629 L 587 629 L 600 624 Q 602 625 601 622 Q 597 624 589 623 L 588 624 L 580 624 L 570 622 L 553 613 L 541 600 Q 542 597 540 598 Z M 609 628 L 607 630 L 609 630 L 609 628 Z M 606 630 Q 600 635 591 636 L 591 637 Q 602 637 607 631 L 606 630 Z M 619 638 L 617 640 L 619 640 L 619 638 Z " /></svg>