<svg width="1181" height="1181" version="1.1" xmlns="http://www.w3.org/2000/svg" desc="Created with imagetracer.js version 1.2.6" ><path fill="rgb(0,0,0)" stroke="rgb(0,0,0)" stroke-width="1" opacity="0.8941176470588236" d="M 572.5 304 Q 578.1 303.9 580 307.5 L 581 313.5 L 576.5 319 Q 571.9 317.6 574 323.5 L 575 324.5 L 577 364.5 L 578 365.5 L 578 429.5 L 579 430.5 L 579 443 L 601.5 445 L 621.5 451 Q 640.4 458.6 654.5 471 L 708.5 416 L 741 387.5 L 740 379.5 L 742 376 Q 744.4 374.3 750.5 375 Q 754.5 376.9 755 382.5 L 750.5 389 L 742.5 388 Q 704.3 435.3 660 476.5 Q 674.1 489.9 683 508.5 L 691 531.5 L 693 541.5 L 693 552 L 773.5 552 L 774.5 553 L 790.5 553 L 791.5 554 L 807.5 554 L 814 555 L 816.5 549 L 823.5 548 L 827 550.5 L 828 558.5 Q 825.9 562.9 819.5 563 L 814 558.5 L 813.5 556 L 805.5 556 L 804.5 557 L 764.5 559 L 763.5 560 L 694 560 L 691 587.5 L 685 605.5 Q 676.8 624.3 663 637.5 L 716 689.5 L 748 725.5 L 746.5 725 L 703.5 689 L 656.5 643 Q 640.5 656 620.5 665 L 597.5 672 L 581.5 673 L 580 674.5 L 580 688.5 L 581 689.5 L 581 747.5 L 580 748.5 L 578 797.5 L 584 801.5 L 585 808.5 L 582.5 812 L 574.5 813 Q 569.3 811.3 571 802.5 Q 572.3 798.3 577 799 L 577 792.5 L 576 791.5 L 576 779.5 L 575 778.5 L 575 765.5 L 574 764.5 L 574 751.5 L 573 750.5 L 572 673 L 561.5 673 L 550.5 671 L 524.5 663 Q 509.1 656.9 497.5 647 L 493 646 L 493 647.5 L 441.5 699 L 406 730.5 Q 409.2 732.3 409 737.5 L 405.5 743 L 399.5 744 L 395 740.5 L 394 734.5 L 397.5 730 L 403.5 729 L 405.5 730 L 439 690.5 L 488 639.5 Q 459.8 613 457 562 L 388.5 563 L 387.5 562 L 369.5 562 L 368.5 561 L 337 560 L 337.5 558 L 348.5 558 L 349.5 557 L 362.5 557 L 363.5 556 L 376.5 556 L 377.5 555 L 390.5 555 L 391.5 554 L 457 554 L 459 534.5 L 465 515.5 L 475 496.5 L 489 478.5 L 440 430.5 L 406 392.5 L 406 391 Q 403.6 392.8 397.5 392 Q 393.1 389.9 393 383.5 L 395 379 L 401.5 377 L 407 380.5 L 408 386.5 L 406 390.5 L 444.5 423 L 496.5 473 Q 511 459.5 531.5 452 L 553.5 446 L 570 444 L 570 362.5 L 571 361.5 L 571 343.5 L 572 342.5 L 572 327.5 L 573 326.5 L 573 319 Q 568.3 319.8 567 315.5 L 566 310.5 L 568 306 L 572.5 304 Z M 569 457 L 568 458 L 559 458 L 547 462 L 529 473 Q 519 480 513 491 L 544 520 Q 549 513 558 510 L 570 507 L 571 507 L 571 458 L 569 457 Z M 579 458 L 579 507 Q 597 508 608 519 L 636 490 L 634 487 Q 624 475 611 467 L 594 460 L 579 458 Z M 654 492 L 653 494 L 661 512 L 664 526 L 664 550 L 663 551 L 664 552 L 678 552 L 677 539 L 672 522 Q 665 504 654 492 Z M 641 497 L 613 525 L 619 539 L 621 549 Q 620 553 622 553 L 650 553 L 652 547 Q 654 514 641 497 Z M 509 498 Q 503 505 501 515 L 499 524 L 499 532 L 498 533 L 499 548 L 501 554 L 524 554 L 530 553 L 532 540 L 538 527 L 509 498 Z M 491 501 L 479 526 L 474 548 L 474 554 L 488 554 L 486 544 L 487 521 L 493 502 L 491 501 Z M 570 510 L 564 512 Q 555 518 552 529 L 571 547 L 571 511 L 570 510 Z M 580 510 L 579 547 L 597 530 L 597 527 L 593 519 Q 589 512 580 510 Z M 593 514 L 592 516 Q 597 520 598 528 L 604 523 L 593 514 Z M 555 516 L 547 523 L 551 527 L 556 517 L 555 516 Z M 609 529 L 600 538 L 599 544 L 598 540 L 586 553 L 594 553 L 596 549 L 597 549 L 595 553 L 614 553 L 613 539 L 609 529 Z M 541 531 L 537 546 L 537 553 L 554 553 Q 550 548 550 539 L 541 531 Z M 551 540 L 553 550 L 556 553 L 565 553 L 553 540 L 551 540 Z M 673 560 L 672 561 L 662 561 Q 657 575 648 586 Q 640 596 629 602 L 653 627 Q 676 604 679 562 Q 678 559 673 560 Z M 543 561 L 538 562 Q 539 571 544 578 L 548 580 L 565 562 L 543 561 Z M 587 561 L 604 579 L 612 564 L 612 561 L 587 561 Z M 620 561 Q 619 576 611 586 L 619 594 L 631 586 Q 642 576 648 562 L 620 561 Z M 474 562 Q 476 603 499 626 Q 498 628 502 627 L 525 603 L 513 594 Q 498 582 491 564 L 491 562 L 474 562 Z M 505 562 L 511 575 Q 520 586 534 593 L 539 589 L 533 577 L 530 566 L 530 562 L 505 562 Z M 571 568 L 552 587 Q 560 595 572 598 L 572 580 L 571 579 L 571 568 Z M 581 568 L 581 596 L 598 586 L 581 568 Z M 606 593 L 600 598 L 599 600 Q 605 601 608 598 Q 611 599 610 597 L 606 593 Z M 545 595 L 543 597 L 547 598 L 547 597 L 545 595 Z M 534 606 L 506 634 Q 519 646 538 654 L 565 661 L 572 661 L 572 661 L 572 611 L 567 612 L 549 611 L 534 606 Z M 619 607 L 610 611 L 601 613 L 580 613 L 580 661 L 592 660 L 610 654 L 635 643 L 642 638 L 646 633 L 621 607 L 619 607 Z " /><path fill="rgb(0,0,0)" stroke="rgb(0,0,0)" stroke-width="1" opacity="0.8941176470588236" d="M 323.5 553 Q 331.3 551.3 333 555.5 L 334 562.5 L 331.5 566 L 323.5 567 Q 318.3 565.3 320 556.5 L 323.5 553 Z " /><path fill="rgb(0,0,0)" stroke="rgb(0,0,0)" stroke-width="1" opacity="0.8941176470588236" d="M 752.5 725 L 759 727 L 761 733.5 L 756.5 740 Q 749.3 741.3 747 737.5 L 746 730.5 L 749.5 726 L 752.5 725 Z " /><path fill="rgb(0,0,0)" stroke="rgb(0,0,0)" stroke-width="1" opacity="0" d="M 0 0 L 1181 0 L 1181 1181 L 0 1181 L 0 0 Z M 573 304 L 568 306 L 566 311 L 567 316 Q 568 320 573 319 L 573 327 L 572 328 L 572 343 L 571 344 L 571 362 L 570 363 L 570 444 L 554 446 L 532 452 Q 511 460 497 473 L 445 423 L 408 392 L 406 392 L 440 431 L 489 479 L 475 497 L 465 516 L 459 535 L 457 554 L 392 554 L 391 555 L 378 555 L 377 556 L 364 556 L 363 557 L 350 557 L 349 558 L 338 558 L 337 560 L 369 561 L 370 562 L 388 562 L 389 563 L 457 562 Q 460 613 488 640 L 439 691 L 409 726 L 410 727 L 442 699 L 493 648 L 493 646 L 498 647 Q 509 657 525 663 L 551 671 L 562 673 L 572 673 L 573 751 L 574 752 L 574 765 L 575 766 L 575 779 L 576 780 L 576 792 L 577 793 L 577 799 Q 572 798 571 803 Q 569 811 575 813 L 583 812 L 585 809 L 584 802 L 578 798 L 580 749 L 581 748 L 581 690 L 580 689 L 580 675 L 582 673 L 598 672 L 621 665 Q 641 656 657 643 Q 698 687 746 725 L 747 725 L 716 690 L 663 638 Q 677 624 685 606 L 691 588 L 694 560 L 764 560 L 765 559 L 805 557 L 806 556 L 814 556 L 814 559 L 820 563 Q 826 563 828 559 L 827 551 L 824 548 L 817 549 L 814 555 L 808 554 L 792 554 L 791 553 L 775 553 L 774 552 L 693 552 L 693 542 L 691 532 L 683 509 Q 674 490 660 477 Q 704 435 743 388 L 751 389 L 755 383 Q 755 377 751 375 Q 744 374 742 376 L 740 380 L 741 388 L 709 416 L 655 471 Q 640 459 622 451 L 602 445 L 579 443 L 579 431 L 578 430 L 578 366 L 577 365 L 575 325 L 574 324 Q 572 318 577 319 L 581 314 L 580 308 Q 578 304 573 304 Z M 400 377 L 395 379 L 393 384 Q 393 390 398 392 Q 404 393 406 391 L 408 387 L 407 381 Q 405 377 400 377 Z M 324 553 L 320 557 Q 318 565 324 567 L 332 566 L 334 563 L 333 556 Q 331 551 324 553 Z M 753 725 L 750 726 L 746 731 L 747 738 Q 749 741 757 740 L 761 734 L 759 727 L 753 725 Z M 400 729 L 398 730 L 394 735 L 395 741 L 400 744 L 406 743 L 409 738 L 408 733 Q 406 728 400 729 Z " /><path fill="rgb(0,0,0)" stroke="rgb(0,0,0)" stroke-width="1" opacity="0" d="M 568.5 457 L 571 458 L 571 506.5 L 569.5 507 L 557.5 510 Q 548.8 513.3 543.5 520 L 513 490.5 Q 518.7 479.7 528.5 473 L 546.5 462 L 558.5 458 L 567.5 458 L 568.5 457 Z " /><path fill="rgb(0,0,0)" stroke="rgb(0,0,0)" stroke-width="1" opacity="0" d="M 579 458 L 593.5 460 L 610.5 467 Q 624.2 474.8 634 486.5 L 636 489.5 L 607.5 519 Q 597.3 508.4 579 507 L 579 458 Z " /><path fill="rgb(0,0,0)" stroke="rgb(0,0,0)" stroke-width="1" opacity="0" d="M 652.5 491 Q 665 503.5 672 521.5 L 677 538.5 L 678 552 L 663.5 552 L 663 550.5 L 664 549.5 L 664 525.5 L 659 505.5 L 652.5 491 Z " /><path fill="rgb(0,0,0)" stroke="rgb(0,0,0)" stroke-width="1" opacity="0" d="M 640.5 497 Q 653.9 514.1 652 546.5 L 649.5 553 L 621.5 553 Q 620.5 553 621 548.5 L 619 538.5 L 613 524.5 L 640.5 497 Z " /><path fill="rgb(0,0,0)" stroke="rgb(0,0,0)" stroke-width="1" opacity="0" d="M 508.5 498 L 538 526.5 L 532 539.5 L 530 553 L 523.5 554 L 501 554 L 499 547.5 L 498 532.5 L 499 531.5 L 499 523.5 L 501 514.5 Q 503.3 504.8 508.5 498 Z " /><path fill="rgb(0,0,0)" stroke="rgb(0,0,0)" stroke-width="1" opacity="0" d="M 491 501 L 493 501.5 L 487 520.5 L 486 543.5 L 488 554 L 474 554 L 474 547.5 L 479 525.5 L 491 501 Z " /><path fill="rgb(0,0,0)" stroke="rgb(0,0,0)" stroke-width="1" opacity="0" d="M 569.5 510 L 571 510.5 L 571 546.5 L 552 528.5 Q 555.1 517.6 563.5 512 L 569.5 510 Z " /><path fill="rgb(0,0,0)" stroke="rgb(0,0,0)" stroke-width="1" opacity="0" d="M 579.5 510 Q 588.8 511.8 593 518.5 L 597 526.5 L 597 529.5 L 579 546.5 L 579.5 510 Z " /><path fill="rgb(0,0,0)" stroke="rgb(0,0,0)" stroke-width="1" opacity="0" d="M 592.5 514 L 604 522.5 L 598 527.5 Q 597 519.5 592 515.5 L 592.5 514 Z " /><path fill="rgb(0,0,0)" stroke="rgb(0,0,0)" stroke-width="1" opacity="0" d="M 554.5 516 L 556 516.5 L 550.5 527 L 547 522.5 L 554.5 516 Z " /><path fill="rgb(0,0,0)" stroke="rgb(0,0,0)" stroke-width="1" opacity="0" d="M 608.5 529 L 613 538.5 L 614 553 L 595.5 553 L 594.5 552 Q 592.8 554.8 586.5 553 L 597 541.5 L 597.5 540 L 598.5 544 L 600 537.5 L 608.5 529 Z " /><path fill="rgb(0,0,0)" stroke="rgb(0,0,0)" stroke-width="1" opacity="0" d="M 541 531 L 550 538.5 L 550.5 543 L 551 540 L 552.5 540 L 565 552.5 L 555.5 553 L 553.5 553 L 537 553 L 537 545.5 L 541 531 Z M 552 543 L 551 547 L 552 547 L 552 543 Z M 553 547 L 552 550 L 553 550 L 553 547 Z " /><path fill="rgb(0,0,0)" stroke="rgb(0,0,0)" stroke-width="1" opacity="0" d="M 672.5 560 Q 677.8 558.8 679 561.5 Q 675.7 604.2 652.5 627 L 628.5 602 Q 640.3 595.8 648 585.5 Q 656.5 575 661.5 561 L 671.5 561 L 672.5 560 Z " /><path fill="rgb(0,0,0)" stroke="rgb(0,0,0)" stroke-width="1" opacity="0" d="M 542.5 561 L 565 561.5 L 547.5 580 L 544 577.5 Q 539 571.3 538 562 L 542.5 561 Z " /><path fill="rgb(0,0,0)" stroke="rgb(0,0,0)" stroke-width="1" opacity="0" d="M 586.5 561 L 611.5 561 L 612 563.5 L 603.5 579 L 586.5 561 Z " /><path fill="rgb(0,0,0)" stroke="rgb(0,0,0)" stroke-width="1" opacity="0" d="M 620 561 L 648 561.5 Q 642 576.5 630.5 586 L 618.5 594 L 611 585.5 Q 619 576.2 620 561 Z " /><path fill="rgb(0,0,0)" stroke="rgb(0,0,0)" stroke-width="1" opacity="0" d="M 474 562 L 490.5 562 L 491 563.5 Q 498.3 582.3 512.5 594 L 525 602.5 L 501.5 627 Q 498.2 628.1 499 625.5 Q 476.3 603.4 474 562 Z " /><path fill="rgb(0,0,0)" stroke="rgb(0,0,0)" stroke-width="1" opacity="0" d="M 504.5 562 L 529.5 562 L 530 565.5 L 533 576.5 L 539 588.5 L 533.5 593 Q 519.7 586.3 511 574.5 L 504.5 562 Z " /><path fill="rgb(0,0,0)" stroke="rgb(0,0,0)" stroke-width="1" opacity="0" d="M 570.5 568 L 571 578.5 L 572 579.5 L 572 598 Q 559.7 595 552 586.5 L 570.5 568 Z " /><path fill="rgb(0,0,0)" stroke="rgb(0,0,0)" stroke-width="1" opacity="0" d="M 580.5 568 L 597.5 586 L 580.5 596 L 580.5 568 Z " /><path fill="rgb(0,0,0)" stroke="rgb(0,0,0)" stroke-width="1" opacity="0" d="M 605.5 593 L 610 596.5 Q 610.8 599.1 607.5 598 Q 604.6 600.6 598.5 600 L 599.5 598 L 605.5 593 Z " /><path fill="rgb(0,0,0)" stroke="rgb(0,0,0)" stroke-width="1" opacity="0" d="M 544.5 595 L 547 596.5 L 546.5 598 L 543 596.5 L 544.5 595 Z " /><path fill="rgb(0,0,0)" stroke="rgb(0,0,0)" stroke-width="1" opacity="0" d="M 533.5 606 L 548.5 611 L 566.5 612 L 572 611 L 572 660.5 L 571.5 661 L 564.5 661 L 537.5 654 Q 519.1 646.4 506 633.5 L 533.5 606 Z " /><path fill="rgb(0,0,0)" stroke="rgb(0,0,0)" stroke-width="1" opacity="0" d="M 618.5 607 L 620.5 607 L 646 632.5 L 641.5 638 L 634.5 643 L 609.5 654 L 591.5 660 L 580 661 L 580 613 L 600.5 613 L 609.5 611 L 618.5 607 Z " /></svg>