<svg width="1181" height="1181" version="1.1" xmlns="http://www.w3.org/2000/svg" desc="Created with imagetracer.js version 1.2.6" ><path fill="rgb(0,0,0)" stroke="rgb(0,0,0)" stroke-width="1" opacity="0" d="M 0 0 L 1181 0 L 1181 1181 L 0 1181 L 0 0 Z M 590 318 L 585 320 L 583 325 Q 582 332 588 334 L 590 335 L 590 348 L 585 350 L 566 352 L 546 357 L 514 369 Q 481 384 457 406 L 434 430 L 413 413 L 409 410 L 411 408 L 410 399 L 407 396 L 399 397 L 395 403 L 397 410 L 402 412 L 409 411 L 430 435 Q 403 467 389 513 L 381 549 L 380 567 L 379 568 L 379 588 L 330 591 L 329 588 L 324 584 L 319 585 L 314 591 L 315 597 L 322 601 L 328 599 Q 331 597 330 592 L 379 595 L 383 626 L 388 645 L 395 663 Q 414 704 446 732 L 410 773 L 410 774 L 452 737 L 454 737 Q 467 749 484 757 Q 500 765 519 771 L 540 776 L 554 777 L 555 778 L 587 778 L 587 804 L 588 805 L 588 821 L 589 822 L 589 838 L 590 839 L 590 853 L 588 853 L 583 860 L 584 865 L 591 869 L 596 868 L 600 861 L 599 857 Q 597 852 591 852 L 592 847 L 592 833 L 593 832 L 593 817 L 594 816 L 595 777 Q 618 774 637 766 Q 660 756 678 740 Q 693 727 704 710 L 730 736 L 772 773 L 773 773 Q 743 736 709 704 L 719 683 L 725 666 L 729 649 L 730 633 L 731 632 L 731 613 L 728 597 L 796 596 L 797 595 L 845 593 L 848 592 L 850 598 L 855 600 L 861 599 L 864 595 L 863 587 L 860 584 L 852 585 L 848 591 L 824 590 L 823 589 L 807 589 L 806 588 L 728 588 L 725 585 L 725 582 L 717 563 Q 709 547 698 536 Q 688 523 674 516 L 674 515 L 735 454 L 772 412 L 772 410 L 771 410 L 736 441 L 667 510 L 649 502 L 636 498 L 620 495 L 595 495 L 595 382 L 594 381 L 593 350 L 608 349 L 608 348 Q 598 347 593 349 L 592 347 L 592 335 L 595 334 L 599 329 L 598 322 Q 596 318 590 318 Z M 776 396 L 774 397 L 770 403 L 772 410 L 777 412 L 783 411 L 786 407 L 785 399 Q 783 395 776 396 Z M 779 775 L 776 776 L 774 780 Q 772 789 779 791 L 787 790 L 790 785 L 788 778 Q 786 774 779 775 Z M 399 776 L 397 777 L 393 782 L 394 789 L 399 792 L 406 791 Q 410 789 409 781 Q 407 775 399 776 Z " /><path fill="rgb(0,0,0)" stroke="rgb(0,0,0)" stroke-width="1" opacity="0" d="M 587.5 351 L 589 351.5 L 589 362.5 L 588 363.5 L 588 380.5 L 587 381.5 L 587 496 L 575.5 498 L 557.5 505 Q 542 513.5 529.5 525 L 443 439.5 Q 455.9 421.4 472.5 407 Q 499.1 382.6 534.5 367 Q 558.3 356.3 587.5 351 Z " /><path fill="rgb(0,0,0)" stroke="rgb(0,0,0)" stroke-width="1" opacity="0" d="M 437 445 L 446 452.5 L 479.5 487 L 525 531.5 Q 513.5 544 507 561.5 L 503 575.5 L 502 587 L 391.5 587 L 391 586.5 L 391 576.5 L 392 575.5 L 392 560.5 L 393 559.5 L 394 545.5 L 403 509.5 Q 416.2 472.9 437 445 Z " /><path fill="rgb(0,0,0)" stroke="rgb(0,0,0)" stroke-width="1" opacity="0" d="M 595 507 L 614.5 507 L 615.5 508 L 627.5 509 L 647.5 515 L 656 519 L 656 520.5 L 605.5 571 L 595 567 L 595 507 Z " /><path fill="rgb(0,0,0)" stroke="rgb(0,0,0)" stroke-width="1" opacity="0" d="M 583.5 509 L 587 509.5 L 587 567 L 576.5 571 L 540 533.5 Q 556.1 515.6 583.5 509 Z " /><path fill="rgb(0,0,0)" stroke="rgb(0,0,0)" stroke-width="1" opacity="0" d="M 664.5 524 Q 679.8 533.2 691 546.5 Q 706.6 563.1 713 588 L 646.5 588 L 645.5 587 L 624.5 587 L 621.5 585 L 621.5 587 L 611 586.5 L 612 581 L 614 580.5 L 611 578.5 L 664.5 524 Z M 617 582 L 620 585 L 621 585 L 617 582 Z " /><path fill="rgb(0,0,0)" stroke="rgb(0,0,0)" stroke-width="1" opacity="0" d="M 533.5 541 L 571 577.5 L 568 587 L 514.5 587 L 514 585.5 L 516 574.5 L 521 560.5 Q 525.5 549 533.5 541 Z " /><path fill="rgb(0,0,0)" stroke="rgb(0,0,0)" stroke-width="1" opacity="0" d="M 392 596 L 500.5 596 L 501 596.5 L 501 604.5 L 502 605.5 L 503 617.5 L 507 629.5 Q 513.1 643.4 523 653.5 L 455.5 722 L 441 709.5 Q 419.5 687 406 656.5 L 395 622.5 L 392 596 Z " /><path fill="rgb(0,0,0)" stroke="rgb(0,0,0)" stroke-width="1" opacity="0" d="M 514 596 L 568.5 596 L 569 597.5 L 572 604.5 L 531.5 645 L 528 641.5 Q 519.4 629.6 515 613.5 L 514 596 Z " /><path fill="rgb(0,0,0)" stroke="rgb(0,0,0)" stroke-width="1" opacity="0" d="M 606 596 L 631.5 596 L 635 599.5 L 641 614.5 L 641 627.5 L 638.5 633 L 605 599.5 L 606 598.5 L 606 596 Z " /><path fill="rgb(0,0,0)" stroke="rgb(0,0,0)" stroke-width="1" opacity="0" d="M 635.5 596 L 715.5 596 L 716 599.5 L 718 606.5 L 718 637.5 L 713 662.5 Q 707.8 679.7 700 693 L 698.5 693 L 642 636.5 L 644 631.5 L 645 620.5 L 642 607.5 L 635.5 596 Z " /><path fill="rgb(0,0,0)" stroke="rgb(0,0,0)" stroke-width="1" opacity="0" d="M 601.5 609 L 635 641.5 L 633 646.5 L 623.5 657 L 607.5 667 L 595 670 L 595 612.5 L 597.5 612 L 601.5 609 Z " /><path fill="rgb(0,0,0)" stroke="rgb(0,0,0)" stroke-width="1" opacity="0" d="M 578.5 610 L 587 612 L 587 670.5 L 586.5 671 L 578.5 671 L 564.5 668 L 554.5 664 L 537 651.5 L 578.5 610 Z " /><path fill="rgb(0,0,0)" stroke="rgb(0,0,0)" stroke-width="1" opacity="0" d="M 638.5 646 L 694 700.5 L 694 702.5 L 686 713.5 L 666.5 733 Q 650.8 746.3 630.5 755 L 613.5 761 L 595 764 L 595 677.5 L 596.5 677 Q 619.4 671.4 632 655.5 L 638.5 646 Z " /><path fill="rgb(0,0,0)" stroke="rgb(0,0,0)" stroke-width="1" opacity="0" d="M 529.5 659 Q 541.1 669.9 558.5 675 L 572.5 678 L 587 678 L 587 764.5 L 585.5 766 L 550.5 765 L 521.5 759 Q 486.5 748.5 462 727.5 L 529.5 659 Z " /><path fill="rgb(0,0,0)" stroke="rgb(0,0,0)" stroke-width="1" opacity="0.7058823529411765" d="M 589.5 318 L 593 318.5 L 589.5 319 L 589.5 318 Z " /><path fill="rgb(0,0,0)" stroke="rgb(0,0,0)" stroke-width="1" opacity="0.7058823529411765" d="M 587.5 319 L 584.5 323 L 585 321.5 Q 584.3 319.3 586.5 320 L 587.5 319 Z " /><path fill="rgb(0,0,0)" stroke="rgb(0,0,0)" stroke-width="1" opacity="0.7058823529411765" d="M 594.5 319 L 598 321.5 L 599 328.5 L 594.5 334 L 593 333.5 L 597 330.5 L 598 323.5 L 594.5 319 Z " /><path fill="rgb(0,0,0)" stroke="rgb(0,0,0)" stroke-width="1" opacity="0.7058823529411765" d="M 583.5 324 L 584 328.5 L 583 328.5 L 583.5 324 Z " /><path fill="rgb(0,0,0)" stroke="rgb(0,0,0)" stroke-width="1" opacity="0.7058823529411765" d="M 584.5 330 L 589 333.5 L 587.5 334 L 584.5 330 Z " /><path fill="rgb(0,0,0)" stroke="rgb(0,0,0)" stroke-width="1" opacity="0.7058823529411765" d="M 590 334 L 592 334.5 L 592 341.5 L 590 342.5 L 590 334 Z " /><path fill="rgb(0,0,0)" stroke="rgb(0,0,0)" stroke-width="1" opacity="0.7058823529411765" d="M 589.5 348 L 590 350 L 585 349.5 L 589.5 348 Z " /><path fill="rgb(0,0,0)" stroke="rgb(0,0,0)" stroke-width="1" opacity="0.7058823529411765" d="M 596.5 348 L 608 348.5 L 594.5 350 L 594.5 349 L 596.5 348 Z " /><path fill="rgb(0,0,0)" stroke="rgb(0,0,0)" stroke-width="1" opacity="0.7058823529411765" d="M 577.5 350 L 582 350.5 L 577.5 351 L 577.5 350 Z " /><path fill="rgb(0,0,0)" stroke="rgb(0,0,0)" stroke-width="1" opacity="0.7058823529411765" d="M 592.5 350 L 593 357.5 L 592 357.5 L 592.5 350 Z " /><path fill="rgb(0,0,0)" stroke="rgb(0,0,0)" stroke-width="1" opacity="0.7058823529411765" d="M 571.5 351 L 575 351.5 L 571.5 352 L 571.5 351 Z " /><path fill="rgb(0,0,0)" stroke="rgb(0,0,0)" stroke-width="1" opacity="0.7058823529411765" d="M 583.5 351 L 587 351.5 L 583.5 352 L 583.5 351 Z " /><path fill="rgb(0,0,0)" stroke="rgb(0,0,0)" stroke-width="1" opacity="0.7058823529411765" d="M 589.5 351 L 590 357.5 L 589 357.5 L 589.5 351 Z " /><path fill="rgb(0,0,0)" stroke="rgb(0,0,0)" stroke-width="1" opacity="0.7058823529411765" d="M 565.5 352 L 570 352.5 L 561.5 354 L 561.5 353 L 565.5 352 Z " /><path fill="rgb(0,0,0)" stroke="rgb(0,0,0)" stroke-width="1" opacity="0.7058823529411765" d="M 578.5 352 L 582 352.5 L 578.5 353 L 578.5 352 Z " /><path fill="rgb(0,0,0)" stroke="rgb(0,0,0)" stroke-width="1" opacity="0.7058823529411765" d="M 574.5 353 L 577 353.5 L 574.5 354 L 574.5 353 Z " /><path fill="rgb(0,0,0)" stroke="rgb(0,0,0)" stroke-width="1" opacity="0.7058823529411765" d="M 556.5 354 L 560 354.5 L 553.5 356 L 553.5 355 L 556.5 354 Z " /><path fill="rgb(0,0,0)" stroke="rgb(0,0,0)" stroke-width="1" opacity="0.7058823529411765" d="M 570.5 354 L 573 354.5 L 570.5 355 L 570.5 354 Z " /><path fill="rgb(0,0,0)" stroke="rgb(0,0,0)" stroke-width="1" opacity="0.7058823529411765" d="M 566.5 355 L 569 355.5 L 566.5 356 L 566.5 355 Z " /><path fill="rgb(0,0,0)" stroke="rgb(0,0,0)" stroke-width="1" opacity="0.7058823529411765" d="M 549.5 356 L 552 356.5 L 549.5 357 L 549.5 356 Z " /><path fill="rgb(0,0,0)" stroke="rgb(0,0,0)" stroke-width="1" opacity="0.7058823529411765" d="M 562.5 356 L 565 356.5 L 559.5 358 L 559.5 357 L 562.5 356 Z " /><path fill="rgb(0,0,0)" stroke="rgb(0,0,0)" stroke-width="1" opacity="0.7058823529411765" d="M 545.5 357 L 548 357.5 Q 482 377.5 441 422.5 L 435 431 L 431.5 431 L 419.5 420 L 419 421.5 L 430 433.5 L 422 426.5 L 408.5 411 L 401.5 412 L 401.5 411 L 409.5 410 L 429.5 428 L 433.5 430 L 456.5 406 Q 492.9 373.4 545.5 357 Z " /><path fill="rgb(0,0,0)" stroke="rgb(0,0,0)" stroke-width="1" opacity="0.7058823529411765" d="M 552.5 359 L 555 359.5 L 550.5 361 L 550.5 360 L 552.5 359 Z " /><path fill="rgb(0,0,0)" stroke="rgb(0,0,0)" stroke-width="1" opacity="0.7058823529411765" d="M 547.5 361 L 549 361.5 Q 490.9 382.9 454 425.5 L 443 439.5 L 530.5 525 Q 542.1 513.1 557.5 505 L 575.5 498 L 582.5 497 L 582.5 498 L 569.5 501 L 552.5 509 Q 540.3 515.8 531.5 526 L 529.5 526 L 442 439.5 L 442 437.5 L 463.5 414 Q 497.5 379.5 547.5 361 Z " /><path fill="rgb(0,0,0)" stroke="rgb(0,0,0)" stroke-width="1" opacity="0.7058823529411765" d="M 588.5 363 L 589 374.5 L 588 374.5 L 588.5 363 Z " /><path fill="rgb(0,0,0)" stroke="rgb(0,0,0)" stroke-width="1" opacity="0.7058823529411765" d="M 593.5 363 L 594 374.5 L 593 374.5 L 593.5 363 Z " /><path fill="rgb(0,0,0)" stroke="rgb(0,0,0)" stroke-width="1" opacity="0.7058823529411765" d="M 587.5 381 L 588 391.5 L 587 391.5 L 587.5 381 Z " /><path fill="rgb(0,0,0)" stroke="rgb(0,0,0)" stroke-width="1" opacity="0.7058823529411765" d="M 594.5 381 L 595 392.5 L 594 392.5 L 594.5 381 Z " /><path fill="rgb(0,0,0)" stroke="rgb(0,0,0)" stroke-width="1" opacity="0.7058823529411765" d="M 400.5 396 L 402 396.5 L 396.5 401 L 396 399.5 L 400.5 396 Z " /><path fill="rgb(0,0,0)" stroke="rgb(0,0,0)" stroke-width="1" opacity="0.7058823529411765" d="M 405.5 396 L 410 398.5 L 411 401.5 L 410 401.5 L 406.5 397 L 405.5 396 Z " /><path fill="rgb(0,0,0)" stroke="rgb(0,0,0)" stroke-width="1" opacity="0.7058823529411765" d="M 775.5 396 L 777 396.5 L 772 399.5 L 771.5 401 L 771 399.5 L 775.5 396 Z " /><path fill="rgb(0,0,0)" stroke="rgb(0,0,0)" stroke-width="1" opacity="0.7058823529411765" d="M 780.5 396 L 785 398.5 L 786 401.5 L 785 401.5 L 781.5 397 L 780.5 396 Z " /><path fill="rgb(0,0,0)" stroke="rgb(0,0,0)" stroke-width="1" opacity="0.7058823529411765" d="M 395.5 402 Q 395.9 408.1 400 410.5 L 398.5 410 Q 396.3 410.8 397 408.5 Q 393.9 406.5 395.5 402 Z " /><path fill="rgb(0,0,0)" stroke="rgb(0,0,0)" stroke-width="1" opacity="0.7058823529411765" d="M 770.5 402 L 771 405.5 L 770 405.5 L 770.5 402 Z " /><path fill="rgb(0,0,0)" stroke="rgb(0,0,0)" stroke-width="1" opacity="0.7058823529411765" d="M 410.5 405 L 411 407.5 L 409 408.5 L 410.5 405 Z " /><path fill="rgb(0,0,0)" stroke="rgb(0,0,0)" stroke-width="1" opacity="0.7058823529411765" d="M 785.5 405 L 786 406.5 L 782.5 411 L 776.5 412 L 776.5 411 Q 782.3 411.8 784 408.5 L 785.5 405 Z " /><path fill="rgb(0,0,0)" stroke="rgb(0,0,0)" stroke-width="1" opacity="0.7058823529411765" d="M 770.5 410 Q 772.8 409.3 772 411.5 L 735 453.5 L 674 514.5 L 674 516 Q 687.7 523.4 698 535.5 Q 714.4 552.6 723 577.5 L 722 577.5 Q 710.3 544.7 685.5 525 L 673 515.5 L 673 513.5 L 738 448.5 L 761 421 L 759.5 421 L 731.5 446 L 666.5 511 L 664.5 511 Q 654.1 503.9 640 500.5 L 642.5 500 L 666.5 510 L 735.5 441 L 770.5 410 Z " /><path fill="rgb(0,0,0)" stroke="rgb(0,0,0)" stroke-width="1" opacity="0.7058823529411765" d="M 429.5 435 L 430 436.5 Q 403.1 469.1 389.5 515 L 389 512.5 Q 403.3 467.8 429.5 435 Z " /><path fill="rgb(0,0,0)" stroke="rgb(0,0,0)" stroke-width="1" opacity="0.7058823529411765" d="M 594.5 437 L 595 494.5 L 594 494.5 L 594.5 437 Z " /><path fill="rgb(0,0,0)" stroke="rgb(0,0,0)" stroke-width="1" opacity="0.7058823529411765" d="M 437.5 444 Q 442.5 443.5 443 447.5 L 525 530.5 L 480.5 487 L 446 453.5 L 438.5 445 Q 436.3 444.3 437 446.5 Q 415.5 473 403.5 509 L 403 507.5 Q 415.5 471 437.5 444 Z " /><path fill="rgb(0,0,0)" stroke="rgb(0,0,0)" stroke-width="1" opacity="0.7058823529411765" d="M 612.5 495 L 620 495.5 L 612.5 496 L 612.5 495 Z " /><path fill="rgb(0,0,0)" stroke="rgb(0,0,0)" stroke-width="1" opacity="0.7058823529411765" d="M 584.5 496 L 587 496.5 L 584.5 497 L 584.5 496 Z " /><path fill="rgb(0,0,0)" stroke="rgb(0,0,0)" stroke-width="1" opacity="0.7058823529411765" d="M 621.5 496 L 626 496.5 L 621.5 497 L 621.5 496 Z " /><path fill="rgb(0,0,0)" stroke="rgb(0,0,0)" stroke-width="1" opacity="0.7058823529411765" d="M 627.5 497 L 631 497.5 L 627.5 498 L 627.5 497 Z " /><path fill="rgb(0,0,0)" stroke="rgb(0,0,0)" stroke-width="1" opacity="0.7058823529411765" d="M 632.5 498 L 639 499.5 L 636.5 500 L 632.5 499 L 632.5 498 Z " /><path fill="rgb(0,0,0)" stroke="rgb(0,0,0)" stroke-width="1" opacity="0.7058823529411765" d="M 598.5 506 L 610 506.5 L 598.5 507 L 598.5 506 Z " /><path fill="rgb(0,0,0)" stroke="rgb(0,0,0)" stroke-width="1" opacity="0.7058823529411765" d="M 594.5 507 L 595 567 L 605.5 571 L 656 521.5 L 606.5 572 L 603.5 572 L 594 568 L 594.5 507 Z " /><path fill="rgb(0,0,0)" stroke="rgb(0,0,0)" stroke-width="1" opacity="0.7058823529411765" d="M 615.5 507 L 621 507.5 L 615.5 508 L 615.5 507 Z " /><path fill="rgb(0,0,0)" stroke="rgb(0,0,0)" stroke-width="1" opacity="0.7058823529411765" d="M 583.5 508 L 587 508.5 Q 556.9 514.4 540 533.5 L 576.5 571 L 586.5 567 L 586.5 568 L 578.5 572 L 575.5 572 L 539 535.5 L 539 532.5 Q 555.8 514.8 583.5 508 Z " /><path fill="rgb(0,0,0)" stroke="rgb(0,0,0)" stroke-width="1" opacity="0.7058823529411765" d="M 623.5 508 L 627 508.5 L 623.5 509 L 623.5 508 Z " /><path fill="rgb(0,0,0)" stroke="rgb(0,0,0)" stroke-width="1" opacity="0.7058823529411765" d="M 628.5 509 Q 644.8 511.2 656 518.5 L 654.5 519 L 647.5 515 L 628.5 510 L 628.5 509 Z " /><path fill="rgb(0,0,0)" stroke="rgb(0,0,0)" stroke-width="1" opacity="0.7058823529411765" d="M 401.5 513 L 402 515.5 L 399.5 522 L 399 519.5 L 401.5 513 Z " /><path fill="rgb(0,0,0)" stroke="rgb(0,0,0)" stroke-width="1" opacity="0.7058823529411765" d="M 388.5 516 L 389 518.5 L 387.5 522 L 387 519.5 L 388.5 516 Z " /><path fill="rgb(0,0,0)" stroke="rgb(0,0,0)" stroke-width="1" opacity="0.7058823529411765" d="M 386.5 523 L 387 525.5 L 386 525.5 L 386.5 523 Z " /><path fill="rgb(0,0,0)" stroke="rgb(0,0,0)" stroke-width="1" opacity="0.7058823529411765" d="M 398.5 523 L 399 525.5 L 398 525.5 L 398.5 523 Z " /><path fill="rgb(0,0,0)" stroke="rgb(0,0,0)" stroke-width="1" opacity="0.7058823529411765" d="M 662.5 524 L 664 524.5 L 611 578.5 L 624.5 587 L 646 587.5 L 624.5 588 L 612 581 L 611.5 586 L 610 576.5 L 662.5 524 Z " /><path fill="rgb(0,0,0)" stroke="rgb(0,0,0)" stroke-width="1" opacity="0.7058823529411765" d="M 665.5 524 Q 678.5 531 688 541.5 Q 706.2 559.3 714 587.5 L 713 587.5 Q 702.9 553.6 678.5 534 L 665.5 525 L 665.5 524 Z " /><path fill="rgb(0,0,0)" stroke="rgb(0,0,0)" stroke-width="1" opacity="0.7058823529411765" d="M 385.5 527 L 386 530.5 L 384.5 535 L 384 531.5 L 385.5 527 Z " /><path fill="rgb(0,0,0)" stroke="rgb(0,0,0)" stroke-width="1" opacity="0.7058823529411765" d="M 397.5 527 L 398 529.5 L 397 529.5 L 397.5 527 Z " /><path fill="rgb(0,0,0)" stroke="rgb(0,0,0)" stroke-width="1" opacity="0.7058823529411765" d="M 396.5 531 L 397 534.5 L 396 534.5 L 396.5 531 Z " /><path fill="rgb(0,0,0)" stroke="rgb(0,0,0)" stroke-width="1" opacity="0.7058823529411765" d="M 524.5 532 L 525 533.5 Q 510.2 549.2 504.5 574 L 504 571.5 Q 510.2 547.7 524.5 532 Z " /><path fill="rgb(0,0,0)" stroke="rgb(0,0,0)" stroke-width="1" opacity="0.7058823529411765" d="M 383.5 536 L 384 539.5 L 383 539.5 L 383.5 536 Z " /><path fill="rgb(0,0,0)" stroke="rgb(0,0,0)" stroke-width="1" opacity="0.7058823529411765" d="M 395.5 536 L 396 539.5 L 395 539.5 L 395.5 536 Z " /><path fill="rgb(0,0,0)" stroke="rgb(0,0,0)" stroke-width="1" opacity="0.7058823529411765" d="M 532.5 540 L 534.5 540 L 571 576.5 L 534.5 541 L 531 543.5 Q 521 556 516.5 574 L 516 571.5 Q 521.5 553 532.5 540 Z " /><path fill="rgb(0,0,0)" stroke="rgb(0,0,0)" stroke-width="1" opacity="0.7058823529411765" d="M 394.5 541 L 395 544.5 L 394 544.5 L 394.5 541 Z " /><path fill="rgb(0,0,0)" stroke="rgb(0,0,0)" stroke-width="1" opacity="0.7058823529411765" d="M 382.5 542 L 383 545.5 L 382 545.5 L 382.5 542 Z " /><path fill="rgb(0,0,0)" stroke="rgb(0,0,0)" stroke-width="1" opacity="0.7058823529411765" d="M 393.5 547 L 394 551.5 L 393 551.5 L 393.5 547 Z " /><path fill="rgb(0,0,0)" stroke="rgb(0,0,0)" stroke-width="1" opacity="0.7058823529411765" d="M 381.5 548 L 382 552.5 L 381 552.5 L 381.5 548 Z " /><path fill="rgb(0,0,0)" stroke="rgb(0,0,0)" stroke-width="1" opacity="0.7058823529411765" d="M 392.5 554 L 393 559.5 L 392 559.5 L 392.5 554 Z " /><path fill="rgb(0,0,0)" stroke="rgb(0,0,0)" stroke-width="1" opacity="0.7058823529411765" d="M 380.5 556 L 381 562.5 L 380 562.5 L 380.5 556 Z " /><path fill="rgb(0,0,0)" stroke="rgb(0,0,0)" stroke-width="1" opacity="0.7058823529411765" d="M 391.5 564 L 392 575.5 L 391 575.5 L 391.5 564 Z " /><path fill="rgb(0,0,0)" stroke="rgb(0,0,0)" stroke-width="1" opacity="0.7058823529411765" d="M 379.5 567 L 380 589 L 372 588.5 L 379 588 L 379.5 567 Z " /><path fill="rgb(0,0,0)" stroke="rgb(0,0,0)" stroke-width="1" opacity="0.7058823529411765" d="M 503.5 575 L 504 578.5 L 503 578.5 L 503.5 575 Z " /><path fill="rgb(0,0,0)" stroke="rgb(0,0,0)" stroke-width="1" opacity="0.7058823529411765" d="M 515.5 575 L 516 578.5 L 515 578.5 L 515.5 575 Z " /><path fill="rgb(0,0,0)" stroke="rgb(0,0,0)" stroke-width="1" opacity="0.7058823529411765" d="M 570.5 579 L 571 580.5 L 569 588 L 514 587.5 L 568 587 L 570.5 579 Z " /><path fill="rgb(0,0,0)" stroke="rgb(0,0,0)" stroke-width="1" opacity="0.7058823529411765" d="M 723.5 579 L 725 583.5 L 724 583.5 L 723.5 579 Z " /><path fill="rgb(0,0,0)" stroke="rgb(0,0,0)" stroke-width="1" opacity="0.7058823529411765" d="M 514.5 580 L 515 584.5 L 514 584.5 L 514.5 580 Z " /><path fill="rgb(0,0,0)" stroke="rgb(0,0,0)" stroke-width="1" opacity="0.7058823529411765" d="M 502.5 581 L 503 585.5 L 502 585.5 L 502.5 581 Z " /><path fill="rgb(0,0,0)" stroke="rgb(0,0,0)" stroke-width="1" opacity="0.7058823529411765" d="M 320.5 584 L 324 584.5 Q 318.1 584.6 316 588.5 L 315 594.5 L 318.5 599 L 320 599.5 L 318.5 600 Q 313.1 598.4 314 590.5 L 318.5 585 L 320.5 584 Z " /><path fill="rgb(0,0,0)" stroke="rgb(0,0,0)" stroke-width="1" opacity="0.7058823529411765" d="M 853.5 584 L 855 584.5 L 851 586 L 849.5 589 L 849 587.5 L 853.5 584 Z " /><path fill="rgb(0,0,0)" stroke="rgb(0,0,0)" stroke-width="1" opacity="0.7058823529411765" d="M 858.5 584 L 863 586.5 L 864 589.5 L 863 589.5 L 859.5 585 L 858.5 584 Z " /><path fill="rgb(0,0,0)" stroke="rgb(0,0,0)" stroke-width="1" opacity="0.7058823529411765" d="M 325.5 585 L 329 587.5 L 330 591 L 335 591.5 L 330.5 592 L 328 587 L 325.5 585 Z " /><path fill="rgb(0,0,0)" stroke="rgb(0,0,0)" stroke-width="1" opacity="0.7058823529411765" d="M 725.5 585 L 727 587.5 L 725 588 L 725.5 585 Z " /><path fill="rgb(0,0,0)" stroke="rgb(0,0,0)" stroke-width="1" opacity="0.7058823529411765" d="M 391.5 587 L 502 587.5 L 391.5 588 L 391.5 587 Z " /><path fill="rgb(0,0,0)" stroke="rgb(0,0,0)" stroke-width="1" opacity="0.7058823529411765" d="M 611.5 587 L 622 587.5 L 611.5 588 L 611.5 587 Z " /><path fill="rgb(0,0,0)" stroke="rgb(0,0,0)" stroke-width="1" opacity="0.7058823529411765" d="M 795.5 588 L 806 588.5 L 795.5 589 L 795.5 588 Z " /><path fill="rgb(0,0,0)" stroke="rgb(0,0,0)" stroke-width="1" opacity="0.7058823529411765" d="M 355.5 589 L 366 589.5 L 355.5 590 L 355.5 589 Z " /><path fill="rgb(0,0,0)" stroke="rgb(0,0,0)" stroke-width="1" opacity="0.7058823529411765" d="M 811.5 589 L 823 589.5 L 811.5 590 L 811.5 589 Z " /><path fill="rgb(0,0,0)" stroke="rgb(0,0,0)" stroke-width="1" opacity="0.7058823529411765" d="M 340.5 590 L 350 590.5 L 340.5 591 L 340.5 590 Z " /><path fill="rgb(0,0,0)" stroke="rgb(0,0,0)" stroke-width="1" opacity="0.7058823529411765" d="M 828.5 590 L 839 590.5 L 828.5 591 L 828.5 590 Z " /><path fill="rgb(0,0,0)" stroke="rgb(0,0,0)" stroke-width="1" opacity="0.7058823529411765" d="M 848.5 590 Q 848.9 596.1 853 598.5 L 851.5 598 Q 849.3 598.8 850 596.5 L 848 592 Q 843.9 593.9 835.5 593 L 835.5 592 Q 844.1 593.1 848.5 590 Z " /><path fill="rgb(0,0,0)" stroke="rgb(0,0,0)" stroke-width="1" opacity="0.7058823529411765" d="M 339.5 592 L 349 592.5 L 339.5 593 L 339.5 592 Z " /><path fill="rgb(0,0,0)" stroke="rgb(0,0,0)" stroke-width="1" opacity="0.7058823529411765" d="M 329.5 593 L 330 595.5 L 327.5 599 L 324.5 600 L 324.5 599 L 329 595.5 L 329.5 593 Z " /><path fill="rgb(0,0,0)" stroke="rgb(0,0,0)" stroke-width="1" opacity="0.7058823529411765" d="M 354.5 593 L 365 593.5 L 354.5 594 L 354.5 593 Z " /><path fill="rgb(0,0,0)" stroke="rgb(0,0,0)" stroke-width="1" opacity="0.7058823529411765" d="M 818.5 593 L 829 593.5 L 818.5 594 L 818.5 593 Z " /><path fill="rgb(0,0,0)" stroke="rgb(0,0,0)" stroke-width="1" opacity="0.7058823529411765" d="M 863.5 593 L 864 594.5 L 860.5 599 L 854.5 600 L 854.5 599 Q 860.3 599.8 862 596.5 L 863.5 593 Z " /><path fill="rgb(0,0,0)" stroke="rgb(0,0,0)" stroke-width="1" opacity="0.7058823529411765" d="M 371.5 594 L 380 594 L 380 597.5 L 379 597.5 L 378.5 595 L 371.5 595 L 371.5 594 Z " /><path fill="rgb(0,0,0)" stroke="rgb(0,0,0)" stroke-width="1" opacity="0.7058823529411765" d="M 801.5 594 L 813 594.5 L 801.5 595 L 801.5 594 Z " /><path fill="rgb(0,0,0)" stroke="rgb(0,0,0)" stroke-width="1" opacity="0.7058823529411765" d="M 391 595 L 501.5 595 L 502 595.5 L 502 604.5 L 501 604.5 L 501 596.5 L 500.5 596 L 392 596 L 391.5 601 L 391 595 Z " /><path fill="rgb(0,0,0)" stroke="rgb(0,0,0)" stroke-width="1" opacity="0.7058823529411765" d="M 513 595 L 568.5 595 L 570 596.5 L 573 602.5 L 573 605.5 L 532.5 646 L 530.5 646 Q 518.9 634.1 515 614.5 L 516 614.5 Q 519.9 633.6 531.5 645 L 572 604.5 L 572 602.5 L 569 596 L 514.5 596 L 514 596.5 L 514 606.5 L 513 606.5 L 513 595 Z " /><path fill="rgb(0,0,0)" stroke="rgb(0,0,0)" stroke-width="1" opacity="0.7058823529411765" d="M 606.5 595 L 632.5 595 L 637 598.5 Q 642.7 605.3 644 616.5 L 643 616.5 L 641.5 610 L 640.5 614 Q 638.8 602.2 631.5 596 L 606.5 596 L 606 598.5 L 605 598.5 L 606.5 595 Z M 641 607 L 640 610 L 641 610 L 641 607 Z " /><path fill="rgb(0,0,0)" stroke="rgb(0,0,0)" stroke-width="1" opacity="0.7058823529411765" d="M 635.5 595 L 715.5 595 L 717 596.5 L 716.5 600 L 716 596 L 635.5 596 L 635.5 595 Z " /><path fill="rgb(0,0,0)" stroke="rgb(0,0,0)" stroke-width="1" opacity="0.7058823529411765" d="M 728.5 595 L 796 595.5 L 728.5 596 L 728.5 595 Z " /><path fill="rgb(0,0,0)" stroke="rgb(0,0,0)" stroke-width="1" opacity="0.7058823529411765" d="M 728.5 597 L 729 600.5 L 728 600.5 L 728.5 597 Z " /><path fill="rgb(0,0,0)" stroke="rgb(0,0,0)" stroke-width="1" opacity="0.7058823529411765" d="M 605.5 600 L 638.5 633 L 640 631.5 L 640.5 628 L 641 631.5 L 640 634 L 637.5 634 L 605 601.5 L 605.5 600 Z " /><path fill="rgb(0,0,0)" stroke="rgb(0,0,0)" stroke-width="1" opacity="0.7058823529411765" d="M 717.5 601 L 718 605.5 L 717 605.5 L 717.5 601 Z " /><path fill="rgb(0,0,0)" stroke="rgb(0,0,0)" stroke-width="1" opacity="0.7058823529411765" d="M 380.5 602 L 381 607.5 L 380 607.5 L 380.5 602 Z " /><path fill="rgb(0,0,0)" stroke="rgb(0,0,0)" stroke-width="1" opacity="0.7058823529411765" d="M 729.5 603 L 730 608.5 L 729 608.5 L 729.5 603 Z " /><path fill="rgb(0,0,0)" stroke="rgb(0,0,0)" stroke-width="1" opacity="0.7058823529411765" d="M 392.5 604 L 393 609.5 L 392 609.5 L 392.5 604 Z " /><path fill="rgb(0,0,0)" stroke="rgb(0,0,0)" stroke-width="1" opacity="0.7058823529411765" d="M 502.5 608 L 503 612.5 L 502 612.5 L 502.5 608 Z " /><path fill="rgb(0,0,0)" stroke="rgb(0,0,0)" stroke-width="1" opacity="0.7058823529411765" d="M 514.5 608 L 515 612.5 L 514 612.5 L 514.5 608 Z " /><path fill="rgb(0,0,0)" stroke="rgb(0,0,0)" stroke-width="1" opacity="0.7058823529411765" d="M 577 609 L 587 611.5 L 583.5 612 L 578.5 610 L 537 650.5 L 577 610.5 L 577 609 Z " /><path fill="rgb(0,0,0)" stroke="rgb(0,0,0)" stroke-width="1" opacity="0.7058823529411765" d="M 600.5 609 L 599.5 611 L 595 612 L 595 669.5 L 597.5 670 L 597.5 671 L 594 670.5 L 594 612.5 L 600.5 609 Z " /><path fill="rgb(0,0,0)" stroke="rgb(0,0,0)" stroke-width="1" opacity="0.7058823529411765" d="M 603.5 609 L 636 640.5 L 636 643.5 L 632 649.5 L 621.5 660 Q 613.1 667.6 599.5 670 L 599.5 669 Q 618.6 664.6 629 651.5 L 635 643.5 L 635 641.5 L 603.5 609 Z " /><path fill="rgb(0,0,0)" stroke="rgb(0,0,0)" stroke-width="1" opacity="0.7058823529411765" d="M 718.5 609 L 719 634.5 L 718 634.5 L 718.5 609 Z " /><path fill="rgb(0,0,0)" stroke="rgb(0,0,0)" stroke-width="1" opacity="0.7058823529411765" d="M 381.5 610 L 382 614.5 L 381 614.5 L 381.5 610 Z " /><path fill="rgb(0,0,0)" stroke="rgb(0,0,0)" stroke-width="1" opacity="0.7058823529411765" d="M 393.5 612 L 394 615.5 L 393 615.5 L 393.5 612 Z " /><path fill="rgb(0,0,0)" stroke="rgb(0,0,0)" stroke-width="1" opacity="0.7058823529411765" d="M 730.5 612 L 731 631.5 L 730 631.5 L 730.5 612 Z " /><path fill="rgb(0,0,0)" stroke="rgb(0,0,0)" stroke-width="1" opacity="0.7058823529411765" d="M 503.5 614 L 505 620.5 L 504 620.5 L 503.5 614 Z " /><path fill="rgb(0,0,0)" stroke="rgb(0,0,0)" stroke-width="1" opacity="0.7058823529411765" d="M 641.5 615 L 642 625.5 L 641 625.5 L 641.5 615 Z " /><path fill="rgb(0,0,0)" stroke="rgb(0,0,0)" stroke-width="1" opacity="0.7058823529411765" d="M 382.5 617 L 383 620.5 L 382 620.5 L 382.5 617 Z " /><path fill="rgb(0,0,0)" stroke="rgb(0,0,0)" stroke-width="1" opacity="0.7058823529411765" d="M 394.5 618 L 395 621.5 L 394 621.5 L 394.5 618 Z " /><path fill="rgb(0,0,0)" stroke="rgb(0,0,0)" stroke-width="1" opacity="0.7058823529411765" d="M 644.5 620 L 645 624.5 L 644 624.5 L 644.5 620 Z " /><path fill="rgb(0,0,0)" stroke="rgb(0,0,0)" stroke-width="1" opacity="0.7058823529411765" d="M 383.5 622 L 384 625.5 L 383 625.5 L 383.5 622 Z " /><path fill="rgb(0,0,0)" stroke="rgb(0,0,0)" stroke-width="1" opacity="0.7058823529411765" d="M 505.5 622 L 511 635.5 L 524 652.5 L 524 654.5 L 456 721.5 L 523 652.5 L 511 637.5 L 505 624.5 L 505.5 622 Z " /><path fill="rgb(0,0,0)" stroke="rgb(0,0,0)" stroke-width="1" opacity="0.7058823529411765" d="M 395.5 623 L 396 625.5 L 395 625.5 L 395.5 623 Z " /><path fill="rgb(0,0,0)" stroke="rgb(0,0,0)" stroke-width="1" opacity="0.7058823529411765" d="M 384.5 627 L 385 629.5 L 384 629.5 L 384.5 627 Z " /><path fill="rgb(0,0,0)" stroke="rgb(0,0,0)" stroke-width="1" opacity="0.7058823529411765" d="M 396.5 627 L 397 629.5 L 396 629.5 L 396.5 627 Z " /><path fill="rgb(0,0,0)" stroke="rgb(0,0,0)" stroke-width="1" opacity="0.7058823529411765" d="M 643.5 628 L 644 631.5 L 643 631.5 L 643.5 628 Z " /><path fill="rgb(0,0,0)" stroke="rgb(0,0,0)" stroke-width="1" opacity="0.7058823529411765" d="M 385.5 631 L 386 633.5 L 385 633.5 L 385.5 631 Z " /><path fill="rgb(0,0,0)" stroke="rgb(0,0,0)" stroke-width="1" opacity="0.7058823529411765" d="M 397.5 631 L 398 633.5 L 397 633.5 L 397.5 631 Z " /><path fill="rgb(0,0,0)" stroke="rgb(0,0,0)" stroke-width="1" opacity="0.7058823529411765" d="M 642.5 633 L 643 635.5 L 642 635.5 L 642.5 633 Z " /><path fill="rgb(0,0,0)" stroke="rgb(0,0,0)" stroke-width="1" opacity="0.7058823529411765" d="M 386.5 635 L 388 640.5 L 387 640.5 L 386.5 635 Z " /><path fill="rgb(0,0,0)" stroke="rgb(0,0,0)" stroke-width="1" opacity="0.7058823529411765" d="M 398.5 635 Q 413.8 684.7 447.5 716 L 454 721.5 L 452.5 722 Q 432.4 704.6 418 681.5 L 404 654.5 L 398 637.5 L 398.5 635 Z " /><path fill="rgb(0,0,0)" stroke="rgb(0,0,0)" stroke-width="1" opacity="0.7058823529411765" d="M 729.5 636 L 730 642.5 L 729 642.5 L 729.5 636 Z " /><path fill="rgb(0,0,0)" stroke="rgb(0,0,0)" stroke-width="1" opacity="0.7058823529411765" d="M 642.5 637 L 697.5 693 L 642 638.5 L 642.5 637 Z " /><path fill="rgb(0,0,0)" stroke="rgb(0,0,0)" stroke-width="1" opacity="0.7058823529411765" d="M 717.5 638 L 718 643.5 L 717 643.5 L 717.5 638 Z " /><path fill="rgb(0,0,0)" stroke="rgb(0,0,0)" stroke-width="1" opacity="0.7058823529411765" d="M 388.5 642 Q 405.5 693.5 441.5 726 L 446 729.5 L 445.5 731 Q 423 711.5 407 685.5 L 392 655.5 L 388 644.5 L 388.5 642 Z " /><path fill="rgb(0,0,0)" stroke="rgb(0,0,0)" stroke-width="1" opacity="0.7058823529411765" d="M 728.5 644 L 729 648.5 L 728 648.5 L 728.5 644 Z " /><path fill="rgb(0,0,0)" stroke="rgb(0,0,0)" stroke-width="1" opacity="0.7058823529411765" d="M 637 645 L 640.5 645 L 695 699.5 L 694 704.5 L 688 712.5 L 670.5 731 Q 656.8 743.3 639.5 752 L 614.5 761 L 614.5 760 Q 660.1 746.6 686 713.5 L 694 702.5 L 694 700.5 L 638.5 646 Q 633 656 624.5 663 Q 614.4 672.4 598.5 676 L 598.5 675 Q 621.4 669.4 633 652.5 L 637 645 Z " /><path fill="rgb(0,0,0)" stroke="rgb(0,0,0)" stroke-width="1" opacity="0.7058823529411765" d="M 716.5 645 L 717 649.5 L 716 649.5 L 716.5 645 Z " /><path fill="rgb(0,0,0)" stroke="rgb(0,0,0)" stroke-width="1" opacity="0.7058823529411765" d="M 727.5 650 L 728 653.5 L 727 653.5 L 727.5 650 Z " /><path fill="rgb(0,0,0)" stroke="rgb(0,0,0)" stroke-width="1" opacity="0.7058823529411765" d="M 715.5 651 L 716 654.5 L 713.5 662 L 713 659.5 L 715.5 651 Z " /><path fill="rgb(0,0,0)" stroke="rgb(0,0,0)" stroke-width="1" opacity="0.7058823529411765" d="M 537.5 652 Q 550.3 665.3 572 669.5 L 568.5 670 Q 548 665 537.5 652 Z " /><path fill="rgb(0,0,0)" stroke="rgb(0,0,0)" stroke-width="1" opacity="0.7058823529411765" d="M 726.5 655 L 727 658.5 L 725.5 662 L 725 659.5 L 726.5 655 Z " /><path fill="rgb(0,0,0)" stroke="rgb(0,0,0)" stroke-width="1" opacity="0.7058823529411765" d="M 528.5 659 L 462 726.5 L 465.5 731 Q 488.8 749.2 521 758.5 L 518.5 759 Q 485 748.5 461 728.5 L 461 726.5 L 528.5 659 Z " /><path fill="rgb(0,0,0)" stroke="rgb(0,0,0)" stroke-width="1" opacity="0.7058823529411765" d="M 530.5 659 Q 543 669.5 561 674.5 L 558.5 675 L 538.5 666 L 531.5 661 L 530.5 659 Z " /><path fill="rgb(0,0,0)" stroke="rgb(0,0,0)" stroke-width="1" opacity="0.7058823529411765" d="M 712.5 663 L 713 665.5 L 707 681.5 L 700.5 693 L 700 691.5 L 705 683.5 L 712.5 663 Z " /><path fill="rgb(0,0,0)" stroke="rgb(0,0,0)" stroke-width="1" opacity="0.7058823529411765" d="M 724.5 663 L 725 665.5 L 723.5 669 L 723 666.5 L 724.5 663 Z " /><path fill="rgb(0,0,0)" stroke="rgb(0,0,0)" stroke-width="1" opacity="0.7058823529411765" d="M 573.5 670 L 578 670.5 L 573.5 671 L 573.5 670 Z " /><path fill="rgb(0,0,0)" stroke="rgb(0,0,0)" stroke-width="1" opacity="0.7058823529411765" d="M 581.5 671 L 587 671.5 L 581.5 672 L 581.5 671 Z " /><path fill="rgb(0,0,0)" stroke="rgb(0,0,0)" stroke-width="1" opacity="0.7058823529411765" d="M 721.5 673 L 722 674.5 L 709 703.5 Q 745.1 737.4 776.5 776 L 780.5 775 L 780.5 776 Q 775.5 775.5 775 779.5 L 774.5 781 L 774 779.5 L 776 776.5 L 729.5 736 L 704 710.5 L 705.5 710 Q 731.3 738.2 761.5 762 L 761 760.5 Q 736.5 730 708 703.5 L 708 700.5 Q 716.6 688.6 721.5 673 Z " /><path fill="rgb(0,0,0)" stroke="rgb(0,0,0)" stroke-width="1" opacity="0.7058823529411765" d="M 562.5 675 L 565 675.5 L 562.5 676 L 562.5 675 Z " /><path fill="rgb(0,0,0)" stroke="rgb(0,0,0)" stroke-width="1" opacity="0.7058823529411765" d="M 566.5 676 L 570 676.5 L 566.5 677 L 566.5 676 Z " /><path fill="rgb(0,0,0)" stroke="rgb(0,0,0)" stroke-width="1" opacity="0.7058823529411765" d="M 594 676 L 597 676.5 L 595 677 L 595 763.5 Q 595 764.5 599.5 764 L 599.5 765 Q 594.1 765.6 594 764.5 L 594 676 Z " /><path fill="rgb(0,0,0)" stroke="rgb(0,0,0)" stroke-width="1" opacity="0.7058823529411765" d="M 572.5 677 L 587 677.5 L 572.5 678 L 572.5 677 Z " /><path fill="rgb(0,0,0)" stroke="rgb(0,0,0)" stroke-width="1" opacity="0.7058823529411765" d="M 702.5 710 L 703 711.5 Q 692 727.5 677.5 740 Q 654.9 760.9 621.5 771 L 621.5 770 Q 662.5 757 688 728.5 L 702.5 710 Z " /><path fill="rgb(0,0,0)" stroke="rgb(0,0,0)" stroke-width="1" opacity="0.7058823529411765" d="M 445.5 732 L 445 733.5 L 421 761.5 L 422.5 762 L 449.5 737 L 453.5 736 Q 481.3 759.2 521 770.5 L 518.5 771 Q 499.5 765.5 483.5 757 Q 466.9 748.6 453.5 737 L 451.5 737 L 406.5 777 L 410 772.5 L 445.5 732 Z " /><path fill="rgb(0,0,0)" stroke="rgb(0,0,0)" stroke-width="1" opacity="0.7058823529411765" d="M 522.5 759 L 537 762.5 L 533.5 763 L 522.5 760 L 522.5 759 Z " /><path fill="rgb(0,0,0)" stroke="rgb(0,0,0)" stroke-width="1" opacity="0.7058823529411765" d="M 610.5 761 L 613 761.5 L 606.5 763 L 606.5 762 L 610.5 761 Z " /><path fill="rgb(0,0,0)" stroke="rgb(0,0,0)" stroke-width="1" opacity="0.7058823529411765" d="M 538.5 763 L 543 763.5 L 538.5 764 L 538.5 763 Z " /><path fill="rgb(0,0,0)" stroke="rgb(0,0,0)" stroke-width="1" opacity="0.7058823529411765" d="M 601.5 763 L 605 763.5 L 601.5 764 L 601.5 763 Z " /><path fill="rgb(0,0,0)" stroke="rgb(0,0,0)" stroke-width="1" opacity="0.7058823529411765" d="M 544.5 764 L 550 764.5 L 544.5 765 L 544.5 764 Z " /><path fill="rgb(0,0,0)" stroke="rgb(0,0,0)" stroke-width="1" opacity="0.7058823529411765" d="M 552.5 765 L 560 765.5 L 552.5 766 L 552.5 765 Z " /><path fill="rgb(0,0,0)" stroke="rgb(0,0,0)" stroke-width="1" opacity="0.7058823529411765" d="M 565.5 766 L 582 766.5 L 565.5 767 L 565.5 766 Z " /><path fill="rgb(0,0,0)" stroke="rgb(0,0,0)" stroke-width="1" opacity="0.7058823529411765" d="M 522.5 771 L 533 773.5 L 529.5 774 L 522.5 772 L 522.5 771 Z " /><path fill="rgb(0,0,0)" stroke="rgb(0,0,0)" stroke-width="1" opacity="0.7058823529411765" d="M 617.5 771 L 620 771.5 L 614.5 773 L 614.5 772 L 617.5 771 Z " /><path fill="rgb(0,0,0)" stroke="rgb(0,0,0)" stroke-width="1" opacity="0.7058823529411765" d="M 610.5 773 L 613 773.5 L 610.5 774 L 610.5 773 Z " /><path fill="rgb(0,0,0)" stroke="rgb(0,0,0)" stroke-width="1" opacity="0.7058823529411765" d="M 534.5 774 L 538 774.5 L 534.5 775 L 534.5 774 Z " /><path fill="rgb(0,0,0)" stroke="rgb(0,0,0)" stroke-width="1" opacity="0.7058823529411765" d="M 606.5 774 L 609 774.5 L 606.5 775 L 606.5 774 Z " /><path fill="rgb(0,0,0)" stroke="rgb(0,0,0)" stroke-width="1" opacity="0.7058823529411765" d="M 539.5 775 L 544 775.5 L 539.5 776 L 539.5 775 Z " /><path fill="rgb(0,0,0)" stroke="rgb(0,0,0)" stroke-width="1" opacity="0.7058823529411765" d="M 600.5 775 L 605 775.5 L 600.5 776 L 600.5 775 Z " /><path fill="rgb(0,0,0)" stroke="rgb(0,0,0)" stroke-width="1" opacity="0.7058823529411765" d="M 783.5 775 L 788 777.5 L 790 784.5 L 786.5 790 L 782.5 791 L 782.5 790 Q 787.5 790.5 788 786.5 L 789 781.5 L 784.5 776 L 783.5 775 Z " /><path fill="rgb(0,0,0)" stroke="rgb(0,0,0)" stroke-width="1" opacity="0.7058823529411765" d="M 398.5 776 L 400 776.5 L 395 779.5 L 394 786.5 L 396 790 Q 398.1 791.6 403.5 791 L 407 788.5 L 408.5 785 L 409 786.5 L 405.5 791 L 398.5 792 L 394 788.5 L 393 781.5 L 396.5 777 L 398.5 776 Z " /><path fill="rgb(0,0,0)" stroke="rgb(0,0,0)" stroke-width="1" opacity="0.7058823529411765" d="M 402.5 776 L 405 776.5 L 402.5 777 L 402.5 776 Z " /><path fill="rgb(0,0,0)" stroke="rgb(0,0,0)" stroke-width="1" opacity="0.7058823529411765" d="M 546.5 776 L 552 776.5 L 546.5 777 L 546.5 776 Z " /><path fill="rgb(0,0,0)" stroke="rgb(0,0,0)" stroke-width="1" opacity="0.7058823529411765" d="M 594 776 L 599 776.5 L 595 777 L 594.5 799 L 594 776 Z " /><path fill="rgb(0,0,0)" stroke="rgb(0,0,0)" stroke-width="1" opacity="0.7058823529411765" d="M 554.5 777 L 563 777.5 L 554.5 778 L 554.5 777 Z " /><path fill="rgb(0,0,0)" stroke="rgb(0,0,0)" stroke-width="1" opacity="0.7058823529411765" d="M 584.5 777 L 587 777.5 L 584.5 778 L 584.5 777 Z " /><path fill="rgb(0,0,0)" stroke="rgb(0,0,0)" stroke-width="1" opacity="0.7058823529411765" d="M 406.5 778 Q 409.5 778.5 409 782.5 L 408 782.5 L 406.5 778 Z " /><path fill="rgb(0,0,0)" stroke="rgb(0,0,0)" stroke-width="1" opacity="0.7058823529411765" d="M 774.5 785 L 778.5 790 L 781 790.5 L 778.5 791 L 774 786.5 L 774.5 785 Z " /><path fill="rgb(0,0,0)" stroke="rgb(0,0,0)" stroke-width="1" opacity="0.7058823529411765" d="M 587.5 793 L 588 803.5 L 587 803.5 L 587.5 793 Z " /><path fill="rgb(0,0,0)" stroke="rgb(0,0,0)" stroke-width="1" opacity="0.7058823529411765" d="M 593.5 804 L 594 815.5 L 593 815.5 L 593.5 804 Z " /><path fill="rgb(0,0,0)" stroke="rgb(0,0,0)" stroke-width="1" opacity="0.7058823529411765" d="M 588.5 810 L 589 820.5 L 588 820.5 L 588.5 810 Z " /><path fill="rgb(0,0,0)" stroke="rgb(0,0,0)" stroke-width="1" opacity="0.7058823529411765" d="M 592.5 821 L 593 831.5 L 592 831.5 L 592.5 821 Z " /><path fill="rgb(0,0,0)" stroke="rgb(0,0,0)" stroke-width="1" opacity="0.7058823529411765" d="M 589.5 827 L 590 837.5 L 589 837.5 L 589.5 827 Z " /><path fill="rgb(0,0,0)" stroke="rgb(0,0,0)" stroke-width="1" opacity="0.7058823529411765" d="M 591.5 837 L 592 846.5 L 591 852 Q 596.6 852.1 599 856.5 L 598.5 858 L 595.5 854 L 590 853 L 590 843.5 L 591.5 837 Z " /><path fill="rgb(0,0,0)" stroke="rgb(0,0,0)" stroke-width="1" opacity="0.7058823529411765" d="M 587.5 853 L 589 853.5 L 585 856.5 L 584.5 858 L 584 856.5 L 587.5 853 Z " /><path fill="rgb(0,0,0)" stroke="rgb(0,0,0)" stroke-width="1" opacity="0.7058823529411765" d="M 583.5 859 L 584 861.5 L 583 861.5 L 583.5 859 Z " /><path fill="rgb(0,0,0)" stroke="rgb(0,0,0)" stroke-width="1" opacity="0.7058823529411765" d="M 598.5 862 L 599 863.5 L 595.5 868 L 590.5 869 L 590.5 868 Q 596.1 867.6 598 863.5 L 598.5 862 Z " /><path fill="rgb(0,0,0)" stroke="rgb(0,0,0)" stroke-width="1" opacity="0.7058823529411765" d="M 584.5 863 L 587.5 867 L 589 867.5 L 587.5 868 L 584 864.5 L 584.5 863 Z " /><path fill="rgb(0,0,0)" stroke="rgb(0,0,0)" stroke-width="1" opacity="1" d="M 588.5 319 L 593.5 319 L 598 323.5 Q 599.1 331.1 594.5 333 L 589.5 334 L 584 329.5 Q 582.5 320.5 588.5 319 Z " /><path fill="rgb(0,0,0)" stroke="rgb(0,0,0)" stroke-width="1" opacity="1" d="M 591.5 342 L 592 349 L 594 349.5 L 592 350 L 592 357.5 L 593 358.5 L 593 374.5 L 594 375.5 L 594 392.5 L 595 393.5 L 595 436.5 L 594 437.5 L 594 495 L 611.5 495 L 612.5 496 L 620.5 496 L 631.5 498 L 648.5 503 L 666.5 511 Q 714.1 459.6 767.5 414 L 761 421.5 L 738 448.5 L 673 513.5 L 673 515.5 Q 688.8 526.2 701 540.5 Q 717.9 559.8 725 588 L 794.5 588 L 795.5 589 L 810.5 589 L 811.5 590 L 844 591.5 L 835.5 592 L 834.5 593 L 801.5 594 L 800.5 595 L 728 595 L 729 608.5 L 730 609.5 L 730 635.5 L 729 636.5 L 727 654.5 L 723 669.5 Q 717.3 686.8 708 700.5 L 708 703.5 Q 739.8 733.7 768 767.5 L 761.5 762 Q 731.3 738.2 705.5 710 L 702.5 710 Q 693.5 724 681.5 735 Q 662.3 753.3 636.5 765 L 613.5 773 L 594 776 L 594 803.5 L 593 804.5 L 592 836.5 L 590.5 843 L 587 777 L 583.5 778 L 563.5 778 L 562.5 777 L 552.5 777 L 551.5 776 L 533.5 774 L 503.5 765 L 476.5 752 L 455.5 737 L 451.5 736 L 414.5 769 L 422 760.5 L 445 734.5 L 446 729.5 L 431 715.5 Q 407.3 690.2 393 655.5 L 384 626.5 L 381 609.5 L 380 594 L 335 591.5 L 380 589 L 381 553.5 L 389 515.5 L 401 483.5 Q 413 457.5 430 436.5 L 430 433.5 L 416 417.5 L 424.5 425 L 431.5 431 L 435 431 Q 441.8 419.7 452.5 411 Q 481.4 383.9 520.5 367 L 560.5 354 L 582.5 350 L 590 350 L 590 343.5 L 591.5 342 Z M 584 351 L 553 359 L 522 372 Q 489 389 464 414 L 442 438 L 442 440 L 530 526 L 532 526 Q 540 516 553 509 Q 567 500 587 497 L 587 393 L 588 392 L 588 376 L 589 375 L 589 359 L 590 358 Q 593 348 584 351 Z M 438 444 Q 417 469 405 502 L 396 532 L 392 555 L 392 564 L 391 565 L 391 588 L 392 588 L 502 588 L 503 586 L 504 575 L 508 562 L 517 544 L 525 534 L 525 531 L 443 448 Q 442 443 438 444 Z M 599 506 L 598 507 L 594 508 L 594 568 L 604 572 L 607 572 L 656 522 L 656 518 Q 646 512 632 509 L 621 507 L 611 507 L 610 506 L 599 506 Z M 584 508 Q 556 515 539 533 L 539 536 L 576 572 L 579 572 Q 582 568 587 568 L 587 509 L 584 508 Z M 663 524 L 610 577 L 611 581 L 611 588 L 622 588 L 623 586 L 625 588 L 714 588 Q 707 560 688 542 L 673 528 L 667 524 L 663 524 Z M 533 540 Q 519 556 514 581 L 514 588 L 515 588 L 569 588 L 571 577 L 535 540 L 533 540 Z M 391 595 Q 394 636 409 666 Q 426 699 453 722 L 457 722 L 524 655 L 524 653 Q 514 643 508 630 L 502 608 L 502 596 L 502 595 L 391 595 Z M 513 595 Q 513 628 531 646 L 533 646 L 573 606 L 573 603 L 570 597 L 569 595 L 513 595 Z M 607 595 Q 604 596 605 602 L 638 634 L 640 634 L 642 626 L 642 616 L 639 607 L 640 605 L 644 618 L 644 628 L 642 634 L 642 639 L 698 693 L 701 693 L 707 682 L 713 666 L 717 650 L 718 636 L 719 635 L 719 610 L 718 609 L 717 597 L 716 595 L 635 595 L 635 597 L 633 595 L 607 595 Z M 577 609 L 577 611 L 537 651 L 537 653 Q 545 661 557 666 L 569 670 L 581 671 L 582 672 Q 587 673 587 672 L 587 611 L 577 609 Z M 601 609 L 596 611 L 594 613 L 594 671 Q 611 669 622 660 L 632 650 L 636 644 L 636 641 L 604 609 L 601 609 Z M 637 645 L 633 653 Q 621 670 598 676 L 594 677 L 594 765 L 600 765 L 617 761 L 640 752 Q 657 743 671 731 L 688 713 L 694 705 L 695 700 L 641 645 L 637 645 Z M 529 659 L 461 727 L 461 729 Q 482 746 510 756 L 539 764 L 552 765 L 553 766 L 565 766 L 566 767 L 582 767 L 583 766 Q 587 766 587 766 L 587 677 L 571 677 L 562 675 Q 543 670 532 659 L 529 659 Z " /><path fill="rgb(0,0,0)" stroke="rgb(0,0,0)" stroke-width="1" opacity="1" d="M 402.5 396 Q 408.1 396.5 410 400.5 L 411 404.5 L 409 410 L 400.5 411 Q 395.1 409.4 396 401.5 L 402.5 396 Z " /><path fill="rgb(0,0,0)" stroke="rgb(0,0,0)" stroke-width="1" opacity="1" d="M 777.5 396 Q 783.1 396.5 785 400.5 L 786 404.5 L 782.5 410 L 775.5 411 L 772 410 L 771 401.5 L 773.5 398 L 777.5 396 Z " /><path fill="rgb(0,0,0)" stroke="rgb(0,0,0)" stroke-width="1" opacity="1" d="M 855.5 584 Q 861.1 584.5 863 588.5 L 864 592.5 L 860.5 598 L 853.5 599 Q 848.1 597.4 849 589.5 L 851 586 L 855.5 584 Z " /><path fill="rgb(0,0,0)" stroke="rgb(0,0,0)" stroke-width="1" opacity="1" d="M 320.5 585 L 324.5 585 L 328 587 L 330 592.5 L 325.5 599 L 320.5 600 L 316 596.5 L 315 590.5 L 318.5 586 L 320.5 585 Z " /><path fill="rgb(0,0,0)" stroke="rgb(0,0,0)" stroke-width="1" opacity="1" d="M 636.5 600 L 637.5 602 L 636.5 600 Z " /><path fill="rgb(0,0,0)" stroke="rgb(0,0,0)" stroke-width="1" opacity="1" d="M 781.5 775 L 788 779.5 L 789 784.5 L 784.5 790 L 781.5 791 L 775 786.5 L 774 781.5 L 778.5 776 L 781.5 775 Z " /><path fill="rgb(0,0,0)" stroke="rgb(0,0,0)" stroke-width="1" opacity="1" d="M 400.5 776 L 406 777 L 409 784.5 L 405.5 790 L 398.5 791 L 396 790 L 394 786.5 L 394 781.5 L 396.5 778 L 400.5 776 Z " /><path fill="rgb(0,0,0)" stroke="rgb(0,0,0)" stroke-width="1" opacity="1" d="M 589.5 853 Q 595.3 852.2 597 855.5 Q 599.6 856.9 599 861.5 L 594.5 867 L 589.5 868 L 585 864.5 L 584 858.5 L 587.5 854 L 589.5 853 Z " /></svg>