<svg width="1181" height="1181" version="1.1" xmlns="http://www.w3.org/2000/svg" desc="Created with imagetracer.js version 1.2.6" ><path fill="rgb(0,0,0)" stroke="rgb(0,0,0)" stroke-width="1" opacity="0" d="M 0 0 L 1181 0 L 1181 1181 L 0 1181 L 0 0 Z M 586 349 L 577 353 L 572 364 L 574 374 Q 578 380 588 382 L 598 379 Q 602 376 604 370 Q 606 361 602 357 L 595 350 L 586 349 Z M 710 404 Q 691 408 679 418 L 669 429 L 664 433 L 637 433 Q 635 430 629 432 L 591 425 L 557 417 L 525 413 L 524 412 L 517 412 L 516 411 L 496 410 L 495 409 L 459 409 L 458 410 L 437 412 L 411 420 L 391 433 Q 370 451 364 484 L 364 503 L 366 514 Q 370 529 379 540 Q 392 558 420 563 L 426 573 L 435 593 L 447 633 L 457 674 L 476 727 Q 488 756 507 780 Q 519 794 536 804 L 554 811 L 565 813 L 584 813 L 598 810 Q 614 805 626 795 Q 646 780 651 751 Q 653 725 643 712 L 643 707 L 645 701 L 651 690 L 672 664 L 698 639 Q 736 603 768 561 Q 780 544 789 524 L 795 507 L 798 493 L 798 474 L 795 460 Q 790 445 781 434 Q 769 417 749 409 L 732 404 L 710 404 Z M 752 644 L 747 646 Q 740 650 739 659 Q 739 665 742 670 L 752 676 Q 760 677 764 674 L 771 665 Q 773 654 768 650 L 760 644 L 752 644 Z M 391 647 L 384 650 Q 379 653 377 660 Q 376 669 380 674 L 384 677 L 393 680 L 401 678 Q 407 674 409 667 Q 410 656 405 653 Q 401 647 391 647 Z " /><path fill="rgb(0,0,0)" stroke="rgb(0,0,0)" stroke-width="1" opacity="0" d="M 712.5 416 L 728.5 416 L 740.5 419 Q 758.6 425.9 770 439.5 Q 779.4 450.1 784 465.5 L 786 475.5 L 786 490.5 Q 783.2 507.2 777 520.5 L 760 550.5 L 734 583.5 Q 696.4 620.9 663 662.5 L 650 681.5 L 642 698.5 L 641 706 Q 638.3 707.1 639 704.5 L 628.5 693 Q 615 680.5 589.5 680 L 572.5 684 Q 560.8 688.8 553 697.5 Q 546.1 704.6 543 715.5 Q 540.4 723.4 542 735.5 Q 545.3 751.3 555.5 760 L 568.5 768 L 583.5 769 Q 597.4 766.4 605 757.5 Q 612.4 750.4 612 735.5 L 606.5 724 L 606 726.5 Q 609.5 730.5 608 739.5 Q 606.1 748.6 599.5 753 L 588.5 758 L 578.5 758 Q 566.2 755.3 560 746.5 L 554 733.5 L 554 721.5 Q 557.5 708 567.5 701 Q 574.3 695.3 584.5 693 L 601.5 693 Q 619.8 697.8 629 711.5 L 637 727.5 L 639 737.5 L 639 747.5 L 637 757.5 L 633 767.5 L 619.5 784 Q 608.3 794.3 591.5 799 L 580.5 801 L 567.5 801 L 552.5 798 L 539.5 792 Q 527.8 784.8 519 774.5 Q 500.2 752.3 488 723.5 L 479 700.5 L 468 663.5 L 450 611.5 L 434 576.5 L 425 564.5 Q 463.5 564.5 479 541.5 Q 485.3 533.8 488 522.5 L 489 517.5 L 489 501.5 Q 485.5 482 472.5 472 L 454.5 463 L 439.5 462 Q 438.3 464.3 433.5 463 L 421.5 468 L 413 475.5 Q 405.9 483.9 406 499.5 L 408 508.5 L 411 514.5 L 419.5 523 L 426.5 526 Q 432 524.5 433.5 527 L 440 525.5 Q 424.1 524.9 418 514.5 Q 413.6 508.4 415 496.5 Q 418.4 484.9 427.5 479 Q 434.4 473.9 446.5 474 L 457.5 477 L 468 484.5 Q 478.3 494.2 477 515.5 Q 473.5 533 461.5 542 L 449.5 549 L 442.5 551 L 425.5 552 L 415.5 550 L 405.5 546 L 390 533.5 Q 374.9 518.1 376 486.5 L 378 475.5 L 384 460.5 Q 390.9 448.4 401.5 440 Q 414.8 429.3 434.5 425 L 451.5 422 L 461.5 422 L 462.5 421 L 489.5 421 L 490.5 422 L 503.5 422 L 504.5 423 L 528.5 425 L 559.5 431 L 595.5 435 L 596.5 436 L 603.5 436 L 604.5 437 L 627.5 438 L 628.5 439 L 647.5 439 L 648.5 438 L 662.5 437 L 661 439.5 L 655 457.5 L 655 475.5 Q 660 497.5 675.5 509 L 692.5 518 L 702.5 520 L 710.5 520 L 720.5 518 L 727.5 515 Q 737.1 510.1 743 501.5 L 750 486.5 L 751 472.5 Q 747.6 457.4 736.5 450 Q 728.4 443.6 713.5 444 Q 701.7 446.2 696 454.5 L 693 461.5 L 694 461.5 L 701.5 453 Q 706.6 448.6 717.5 450 Q 727.6 452.4 733 459.5 Q 740.2 467.3 738 484.5 Q 734.6 495.1 726.5 501 L 717.5 506 L 706.5 508 L 695.5 506 L 688.5 503 L 676 492.5 Q 665.8 482.2 667 460.5 Q 671.2 440.2 684.5 429 Q 695 419 712.5 416 Z M 585 556 L 575 558 L 568 562 Q 559 569 556 581 Q 555 597 563 605 Q 569 611 580 614 Q 596 615 604 608 Q 611 602 614 592 L 614 580 L 609 569 Q 602 557 585 556 Z " /><path fill="rgb(0,0,0)" stroke="rgb(0,0,0)" stroke-width="1" opacity="0.9607843137254902" d="M 585.5 349 L 594.5 350 L 602 356.5 Q 605.5 360.5 604 369.5 Q 602.5 376 597.5 379 L 587.5 382 Q 578.3 380.3 574 373.5 L 572 363.5 L 577 353 L 585.5 349 Z " /><path fill="rgb(0,0,0)" stroke="rgb(0,0,0)" stroke-width="1" opacity="0.9607843137254902" d="M 709.5 404 L 731.5 404 L 748.5 409 Q 768.5 417.4 781 433.5 Q 790 444.5 795 459.5 L 798 473.5 L 798 492.5 L 795 506.5 L 789 523.5 Q 780.2 543.7 768 560.5 Q 736.2 603.2 697.5 639 L 672 663.5 L 651 689.5 L 645 700.5 L 643 706.5 L 643 711.5 Q 652.5 725.5 651 750.5 Q 645.8 780.3 625.5 795 Q 613.7 804.7 597.5 810 L 583.5 813 L 564.5 813 L 553.5 811 L 535.5 804 Q 518.6 794.4 507 779.5 Q 488.3 756.2 476 726.5 L 457 673.5 L 447 632.5 L 435 592.5 L 426 572.5 L 419.5 563 Q 392.5 558 379 539.5 Q 370.2 528.8 366 513.5 L 364 502.5 L 364 483.5 Q 369.5 450.5 390.5 433 L 410.5 420 L 436.5 412 L 457.5 410 L 458.5 409 L 494.5 409 L 495.5 410 L 515.5 411 L 516.5 412 L 523.5 412 L 524.5 413 L 556.5 417 L 590.5 425 L 628.5 432 Q 634.8 430.3 636.5 433 L 663.5 433 L 669 428.5 L 678.5 418 Q 690.7 407.7 709.5 404 Z M 713 416 Q 695 419 685 429 Q 671 440 667 461 Q 666 482 676 493 L 689 503 L 696 506 L 707 508 L 718 506 L 727 501 Q 735 495 738 485 Q 740 467 733 460 Q 728 452 718 450 Q 707 449 702 453 L 694 462 L 692 463 L 696 455 Q 702 446 714 444 Q 728 444 737 450 Q 748 457 751 473 L 750 487 L 743 502 Q 737 510 728 515 L 721 518 L 711 520 L 703 520 L 693 518 L 676 509 Q 660 498 655 476 L 655 458 L 661 440 L 663 437 L 649 438 L 648 439 L 629 439 L 628 438 L 605 437 L 604 436 L 597 436 L 596 435 L 560 431 L 529 425 L 505 423 L 504 422 L 491 422 L 490 421 L 463 421 L 462 422 L 452 422 L 435 425 Q 415 429 402 440 Q 391 448 384 461 L 378 476 L 376 487 Q 375 518 390 534 L 406 546 L 416 550 L 426 552 L 443 551 L 450 549 L 462 542 Q 473 533 477 516 Q 478 494 468 485 L 458 477 L 447 474 Q 434 474 428 479 Q 418 485 415 497 Q 414 508 418 515 Q 424 525 440 526 L 434 527 Q 432 525 427 526 L 420 523 L 411 515 L 408 509 L 406 500 Q 406 484 413 476 L 422 468 L 434 463 Q 438 464 440 462 L 455 463 L 473 472 Q 485 482 489 502 L 489 518 L 488 523 Q 485 534 479 542 Q 464 565 425 565 L 434 577 L 450 612 L 468 664 L 479 701 L 488 724 Q 500 752 519 775 Q 528 785 540 792 L 553 798 L 568 801 L 581 801 L 592 799 Q 608 794 620 784 L 633 768 L 637 758 L 639 748 L 639 738 L 637 728 L 629 712 Q 620 698 602 693 L 585 693 Q 574 695 568 701 Q 558 708 554 722 L 554 734 L 560 747 Q 566 755 579 758 L 589 758 L 600 753 Q 606 749 608 740 Q 609 730 606 725 L 605 722 Q 611 727 612 736 Q 612 750 605 758 Q 597 766 584 769 L 569 768 L 556 760 Q 545 751 542 736 Q 540 723 543 716 Q 546 705 553 698 Q 561 689 573 684 L 590 680 Q 615 680 629 693 L 639 705 Q 638 707 641 706 L 642 699 L 650 682 L 663 663 Q 696 621 734 584 L 760 551 L 777 521 Q 783 507 786 491 L 786 476 L 784 466 Q 779 450 770 440 Q 759 426 741 419 L 729 416 L 713 416 Z " /><path fill="rgb(0,0,0)" stroke="rgb(0,0,0)" stroke-width="1" opacity="0.9607843137254902" d="M 584.5 556 Q 601.8 557.2 609 568.5 L 614 579.5 L 614 591.5 Q 610.9 601.9 603.5 608 Q 595.9 615.4 579.5 614 Q 569 611.5 563 604.5 Q 555.1 596.9 556 580.5 Q 559 568.5 567.5 562 L 574.5 558 L 584.5 556 Z " /><path fill="rgb(0,0,0)" stroke="rgb(0,0,0)" stroke-width="1" opacity="0.9607843137254902" d="M 751.5 644 L 759.5 644 L 768 649.5 Q 772.5 654 771 664.5 L 763.5 674 Q 759.8 677.3 751.5 676 L 742 669.5 Q 739 665.5 739 658.5 Q 740.5 650 746.5 646 L 751.5 644 Z " /><path fill="rgb(0,0,0)" stroke="rgb(0,0,0)" stroke-width="1" opacity="0.9607843137254902" d="M 390.5 647 Q 400.7 646.8 405 652.5 Q 410 656.5 409 666.5 Q 406.9 674.4 400.5 678 L 392.5 680 L 383.5 677 L 380 673.5 Q 375.7 669.3 377 659.5 Q 378.5 653 383.5 650 L 390.5 647 Z " /></svg>