<svg width="1181" height="1181" version="1.1" xmlns="http://www.w3.org/2000/svg" desc="Created with imagetracer.js version 1.2.6" ><path fill="rgb(0,0,0)" stroke="rgb(0,0,0)" stroke-width="1" opacity="0.9137254901960784" d="M 586.5 314 Q 593 313 595 316.5 L 597 323.5 L 595 328 L 590 330 L 592 357.5 L 593 358.5 L 593 368.5 L 594 369.5 L 594 378.5 L 595 379.5 L 595 410.5 L 596 411.5 L 596 545.5 L 597 546.5 L 597 556.5 L 598.5 558 L 606.5 560 L 617 568.5 Q 622.7 573.7 623 583 L 693.5 583 L 694.5 582 L 800.5 582 L 801.5 583 L 826.5 584 L 827.5 585 L 837.5 585 L 838.5 586 L 848.5 586 L 849.5 587 L 854.5 580 L 859.5 579 L 865 582.5 L 866 590.5 L 863.5 594 L 854.5 595 L 849.5 588 L 838.5 589 L 837.5 590 L 828.5 590 L 827.5 591 L 818.5 591 L 817.5 592 L 796.5 593 L 795.5 594 L 623 595 Q 620.9 608.6 610.5 615 Q 605.2 619.3 597 620 L 597 674.5 L 598 675.5 L 598 801.5 L 597 802.5 L 594 848.5 L 593 852 Q 598.6 852.1 601 856.5 Q 602.5 864.5 598.5 867 L 592.5 869 L 587 865.5 L 586 857.5 L 589.5 853 L 592 852.5 L 592 844.5 L 591 843.5 L 589 815.5 L 588 814.5 L 588 804.5 L 587 803.5 L 587 793.5 L 586 792.5 L 585 620 Q 570.2 617.5 563 606.5 L 559 596 L 382.5 597 L 381.5 596 L 357.5 595 L 356.5 594 L 345.5 594 L 344.5 593 L 328 592 Q 327.9 597.6 323.5 600 Q 316.7 600.9 314 599 L 312 595.5 L 312 589.5 L 314.5 586 L 321.5 584 L 327 588.5 L 328.5 591 L 340.5 590 L 341.5 589 L 350.5 589 L 351.5 588 L 360.5 588 L 361.5 587 L 370.5 587 L 371.5 586 L 381.5 586 L 382.5 585 L 431.5 585 L 432.5 584 L 557.5 584 L 559 582.5 Q 560.8 569.8 569.5 564 Q 574.9 558.7 584 558 L 583 383.5 L 584 382.5 L 585 357.5 L 586 356.5 L 586 346.5 L 587 345.5 L 587 335.5 L 588 330 Q 583.3 329.6 581 325.5 Q 579.3 316.8 584.5 315 L 586.5 314 Z " /><path fill="rgb(0,0,0)" stroke="rgb(0,0,0)" stroke-width="1" opacity="0" d="M 0 0 L 1181 0 L 1181 1181 L 0 1181 L 0 0 Z M 587 314 L 585 315 Q 579 317 581 326 Q 583 330 588 330 L 587 336 L 587 346 L 586 347 L 586 357 L 585 358 L 584 383 L 583 384 L 584 558 Q 575 559 570 564 Q 561 570 559 583 L 558 584 L 433 584 L 432 585 L 383 585 L 382 586 L 372 586 L 371 587 L 362 587 L 361 588 L 352 588 L 351 589 L 342 589 L 341 590 L 329 591 L 327 589 L 322 584 L 315 586 L 312 590 L 312 596 L 314 599 Q 317 601 324 600 Q 328 598 328 592 L 345 593 L 346 594 L 357 594 L 358 595 L 382 596 L 383 597 L 559 596 L 563 607 Q 570 618 585 620 L 586 793 L 587 794 L 587 804 L 588 805 L 588 815 L 589 816 L 591 844 L 592 845 L 592 853 L 590 853 L 586 858 L 587 866 L 593 869 L 599 867 Q 602 864 601 857 Q 599 852 593 852 L 594 849 L 597 803 L 598 802 L 598 676 L 597 675 L 597 620 Q 605 619 611 615 Q 621 609 623 595 L 796 594 L 797 593 L 818 592 L 819 591 L 828 591 L 829 590 L 838 590 L 839 589 L 850 588 L 855 595 L 864 594 L 866 591 L 865 583 L 860 579 L 855 580 L 850 587 L 849 586 L 839 586 L 838 585 L 828 585 L 827 584 L 802 583 L 801 582 L 695 582 L 694 583 L 623 583 Q 623 574 617 569 L 607 560 L 599 558 L 597 557 L 597 547 L 596 546 L 596 412 L 595 411 L 595 380 L 594 379 L 594 370 L 593 369 L 593 359 L 592 358 L 590 330 L 595 328 L 597 324 L 595 317 Q 593 313 587 314 Z " /></svg>