<svg width="1181" height="1181" version="1.1" xmlns="http://www.w3.org/2000/svg" desc="Created with imagetracer.js version 1.2.6" ><path fill="rgb(0,0,0)" stroke="rgb(0,0,0)" stroke-width="1" opacity="0.9019607843137255" d="M 592.5 331 Q 605.2 330.3 610 337.5 Q 614.7 342.3 614 352.5 Q 611.9 360.9 605.5 365 Q 600.8 368.3 591.5 367 Q 584.3 365.2 581 359.5 L 578 351.5 L 578 346.5 Q 579.5 338.9 584.5 335 L 592.5 331 Z " /><path fill="rgb(0,0,0)" stroke="rgb(0,0,0)" stroke-width="1" opacity="0.9019607843137255" d="M 599.5 411 L 718 655.5 L 724 673.5 L 727 689.5 L 728 717.5 L 723 745.5 L 717 762.5 L 713 769.5 Q 711.2 783.7 706 794.5 Q 694.8 818.3 675.5 834 Q 658.4 847.9 634.5 855 L 620.5 858 L 598.5 859 L 571.5 854 L 546.5 843 Q 526 831.5 511 814.5 Q 493.2 795.3 483 768.5 L 475 736.5 L 474 710.5 L 475 709.5 L 475 700.5 L 476 699.5 L 477 688.5 L 486 661.5 L 537 553.5 L 599.5 411 Z M 599 442 Q 550 558 496 670 L 491 684 L 487 705 L 487 734 L 492 757 Q 500 784 517 803 Q 533 822 556 834 L 578 843 L 592 846 L 617 846 L 632 843 Q 655 836 671 822 Q 683 811 691 797 L 699 778 L 701 769 L 701 761 L 702 760 L 701 744 L 697 729 Q 692 715 683 705 Q 667 683 637 677 L 620 677 L 611 679 Q 598 683 589 691 L 576 706 L 570 719 L 568 730 Q 569 752 580 765 Q 590 777 608 781 Q 629 783 639 773 L 647 764 L 651 755 Q 650 750 652 749 Q 652 733 644 726 Q 638 718 628 715 Q 614 713 608 719 Q 600 724 597 733 Q 595 745 600 751 L 602 753 Q 596 749 595 742 L 595 733 L 600 722 Q 607 712 621 710 Q 636 710 644 717 Q 655 725 659 742 Q 660 752 658 760 L 651 774 L 638 786 L 627 791 L 617 793 L 608 793 L 598 791 L 581 782 Q 561 767 556 739 L 556 726 L 558 716 Q 562 702 570 693 Q 586 671 617 665 L 640 665 L 649 667 Q 670 673 684 687 Q 699 701 708 723 L 713 741 L 715 761 L 719 747 L 721 737 L 721 730 L 722 729 L 722 705 Q 719 703 721 697 L 717 679 L 712 665 L 684 614 L 601 444 Q 602 441 599 442 Z " /><path fill="rgb(0,0,0)" stroke="rgb(0,0,0)" stroke-width="1" opacity="0" d="M 0 0 L 1181 0 L 1181 1181 L 0 1181 L 0 0 Z M 593 331 L 585 335 Q 579 339 578 347 L 578 352 L 581 360 Q 584 365 592 367 Q 601 368 606 365 Q 612 361 614 353 Q 615 342 610 338 Q 605 330 593 331 Z M 600 411 L 537 554 L 486 662 L 477 689 L 476 700 L 475 701 L 475 710 L 474 711 L 475 737 L 483 769 Q 493 795 511 815 Q 526 831 547 843 L 572 854 L 599 859 L 621 858 L 635 855 Q 658 848 676 834 Q 695 818 706 795 Q 711 784 713 770 L 717 763 L 723 746 L 728 718 L 727 690 L 724 674 L 718 656 L 600 411 Z " /><path fill="rgb(0,0,0)" stroke="rgb(0,0,0)" stroke-width="1" opacity="0" d="M 599 442 Q 601.7 440.9 601 443.5 L 684 613.5 L 712 664.5 L 717 678.5 L 721 696.5 Q 719.2 702.8 722 704.5 L 722 728.5 L 721 729.5 L 721 736.5 L 719 746.5 L 714.5 761 L 713 740.5 L 708 722.5 Q 699.3 701.2 683.5 687 Q 669.5 673.5 648.5 667 L 639.5 665 L 616.5 665 Q 585.8 671.3 570 692.5 Q 562 702 558 715.5 L 556 725.5 L 556 738.5 Q 561 767.5 580.5 782 L 597.5 791 L 607.5 793 L 616.5 793 L 626.5 791 L 637.5 786 L 651 773.5 L 658 759.5 Q 660.4 752.4 659 741.5 Q 655.2 725.3 643.5 717 Q 635.8 709.7 620.5 710 Q 606.8 712.3 600 721.5 L 595 732.5 L 595 741.5 L 596.5 745 L 597 732.5 Q 600.3 723.8 607.5 719 Q 613.8 713.3 627.5 715 Q 637.9 718.1 644 725.5 Q 651.7 733.3 652 748.5 Q 649.7 749.8 651 754.5 L 647 763.5 L 638.5 773 Q 628.8 782.8 607.5 781 Q 590 776.5 580 764.5 Q 568.7 752.3 568 729.5 L 570 718.5 L 576 705.5 L 588.5 691 Q 597.5 683 610.5 679 L 619.5 677 L 636.5 677 Q 667.1 683.4 683 704.5 Q 691.8 714.7 697 728.5 L 701 743.5 L 702 759.5 L 701 760.5 L 701 768.5 L 699 777.5 L 691 796.5 Q 682.7 811.2 670.5 822 Q 654.7 836.2 631.5 843 L 616.5 846 L 591.5 846 L 577.5 843 L 555.5 834 Q 532.9 821.6 517 802.5 Q 500.4 783.6 492 756.5 L 487 733.5 L 487 704.5 L 491 683.5 L 496 669.5 Q 550.5 558.2 599 442 Z M 598 745 L 597 748 L 599 749 L 598 745 Z " /></svg>