<svg width="1181" height="1181" version="1.1" xmlns="http://www.w3.org/2000/svg" desc="Created with imagetracer.js version 1.2.6" ><path fill="rgb(0,0,0)" stroke="rgb(0,0,0)" stroke-width="1" opacity="0" d="M 0 0 L 1181 0 L 1181 1181 L 0 1181 L 0 0 Z M 598 314 Q 596 317 590 315 L 577 319 L 560 329 Q 549 337 543 349 L 536 366 L 535 377 L 534 378 L 534 388 L 535 389 L 535 390 Q 516 366 481 360 L 459 360 L 445 363 Q 429 368 418 377 Q 397 393 392 424 L 392 438 L 394 449 Q 398 463 406 473 Q 418 489 442 493 L 458 493 L 467 491 L 484 482 Q 496 473 500 455 L 500 439 L 499 434 L 492 420 Q 485 409 471 406 Q 450 404 441 414 L 433 425 L 431 434 L 433 442 Q 432 430 437 424 Q 443 414 456 412 Q 471 411 479 418 Q 489 425 492 440 L 492 454 L 486 468 Q 476 481 457 485 L 443 485 L 435 483 L 428 480 L 416 472 L 406 458 L 400 437 L 401 419 L 404 409 L 416 390 Q 426 379 441 373 L 460 368 L 479 368 L 493 371 Q 510 377 522 388 Q 546 414 555 457 L 558 474 L 558 481 L 559 482 L 559 494 L 560 495 L 561 560 L 562 561 L 563 581 L 565 587 L 565 589 L 507 540 L 470 514 L 436 497 L 417 491 L 400 488 L 375 488 L 362 491 Q 344 496 333 507 Q 309 525 303 561 L 303 583 L 305 592 Q 309 605 317 615 Q 328 628 346 636 L 361 640 L 381 641 L 378 643 Q 362 656 354 676 L 350 689 L 349 703 L 348 704 Q 349 741 367 761 Q 377 772 392 779 L 408 784 L 417 784 L 418 785 L 432 784 L 443 781 L 454 776 L 466 767 L 474 757 L 478 749 L 482 734 L 482 720 L 480 711 L 472 695 Q 462 680 441 676 L 430 676 L 421 678 L 408 685 Q 401 690 397 699 L 394 713 L 395 714 L 396 725 L 400 733 Q 406 742 418 745 Q 427 747 433 744 L 433 743 L 429 744 L 420 743 L 412 739 Q 403 733 401 722 Q 400 705 407 698 L 415 690 L 423 686 L 432 684 L 445 685 L 460 693 Q 471 703 474 722 Q 475 745 464 757 Q 452 772 430 776 L 410 776 L 405 775 Q 392 772 384 765 Q 369 754 362 737 L 357 720 L 357 708 L 356 707 L 358 691 L 362 678 L 372 661 L 386 647 Q 398 637 415 631 L 442 623 L 459 621 L 460 620 L 470 620 L 471 619 L 526 619 L 527 620 L 567 620 L 568 619 L 580 619 L 588 624 Q 590 623 589 626 L 548 656 L 534 668 Q 512 687 496 712 L 487 730 L 480 757 L 480 781 L 483 794 Q 488 810 498 822 Q 511 837 531 846 L 547 851 L 562 852 L 563 853 L 576 852 L 590 848 L 607 838 Q 626 823 632 795 L 632 776 L 631 771 L 624 755 L 617 745 L 607 737 L 597 732 L 585 729 Q 573 728 566 730 L 554 735 L 544 742 L 534 759 L 532 767 Q 530 786 538 795 Q 546 806 562 809 L 573 809 L 583 805 Q 590 801 593 793 L 593 790 L 591 794 Q 585 803 573 805 Q 560 805 554 800 Q 543 793 540 780 Q 539 760 548 751 Q 556 740 571 737 L 589 738 L 607 747 Q 620 757 624 777 L 624 793 L 622 802 Q 618 815 610 824 Q 597 839 574 844 L 553 844 L 544 842 Q 524 836 512 824 Q 493 808 488 779 L 488 758 L 490 747 L 495 732 Q 507 705 527 686 L 597 626 L 600 627 L 608 626 L 619 621 L 617 667 L 616 668 L 617 711 L 618 712 L 618 720 L 621 737 Q 629 772 648 797 Q 666 821 703 827 L 725 827 L 739 824 Q 755 819 767 809 Q 776 801 782 791 L 789 774 L 790 763 L 791 762 L 791 751 L 788 736 Q 784 723 776 714 L 763 702 Q 760 703 761 701 L 763 701 L 781 700 L 790 698 Q 806 693 819 683 Q 830 674 838 662 L 848 639 L 850 630 L 850 621 L 851 620 L 849 600 Q 845 584 836 574 Q 821 553 792 548 L 775 548 L 774 549 L 773 547 L 783 541 Q 798 528 806 509 L 810 496 L 811 481 L 812 480 Q 811 443 793 424 Q 779 405 752 400 L 730 400 L 725 401 Q 711 405 701 412 Q 688 420 683 435 L 681 435 L 685 422 L 686 408 L 687 407 L 687 392 L 684 375 Q 678 356 667 344 Q 655 329 637 321 L 617 315 L 598 314 Z " /><path fill="rgb(0,0,0)" stroke="rgb(0,0,0)" stroke-width="1" opacity="0" d="M 598.5 322 L 615.5 323 L 632.5 328 Q 651 336.5 663 351.5 Q 672.5 363 677 379.5 L 678 390.5 L 679 391.5 L 679 404.5 L 678 405.5 L 678 414.5 L 673 435.5 L 660 464.5 L 639 495.5 L 587 558.5 L 572 580.5 L 569.5 587 L 568 585.5 L 568 577.5 L 567 576.5 L 567 545.5 L 568 544.5 L 568 493.5 L 567 492.5 L 567 480.5 L 566 479.5 L 566 472.5 L 565 471.5 L 563 454.5 L 554 426.5 L 555.5 426 Q 562.7 432.8 573.5 436 L 583.5 438 L 595.5 438 Q 615 434.5 625 421.5 L 634 403.5 L 635 388.5 L 632 377.5 L 621.5 365 L 610.5 359 Q 603.8 356.7 593.5 358 Q 581.6 360.6 576 369.5 L 573 377.5 L 574 377.5 Q 575.8 370.3 581.5 367 Q 587.6 361.1 600.5 362 Q 614.1 364.9 621 374.5 Q 627.2 382.3 627 396.5 Q 624 414.5 611.5 423 Q 602.4 430.9 584.5 430 Q 562.6 426.4 552 411.5 L 544 396.5 L 542 379.5 L 545 363.5 L 550 352.5 Q 556.5 341.5 566.5 334 L 583.5 325 L 598.5 322 Z " /><path fill="rgb(0,0,0)" stroke="rgb(0,0,0)" stroke-width="1" opacity="0" d="M 730.5 408 L 750.5 408 L 761.5 411 Q 778.9 417.6 789 431.5 Q 798.1 443.4 802 460.5 L 803 465.5 L 803 488.5 Q 796.7 520.7 774.5 537 Q 755.2 551.2 729.5 559 L 711.5 563 L 694.5 564 L 693.5 565 L 662.5 565 L 661.5 564 L 610.5 564 L 607.5 565 L 606.5 564 L 594.5 564 L 588 566 L 600 550.5 L 635 513.5 L 653 490.5 Q 668.4 469.9 678.5 444 L 679 448.5 L 678 449.5 L 678 464.5 Q 682.3 488.2 698.5 500 L 713.5 507 L 730.5 508 Q 749.2 504.7 759 492.5 L 765 479.5 L 765 463.5 Q 761.5 450 751.5 443 L 741.5 439 L 731.5 439 L 727 440.5 L 731.5 441 L 733.5 440 L 742.5 442 L 753 449.5 Q 760.4 457.1 759 473.5 Q 755.7 486.2 746.5 493 Q 737.6 501.1 719.5 500 Q 704 497 696 486.5 L 687 468.5 L 686 451.5 Q 689.6 430.6 703.5 420 Q 714.2 411.2 730.5 408 Z " /><path fill="rgb(0,0,0)" stroke="rgb(0,0,0)" stroke-width="1" opacity="0" d="M 376.5 496 L 398.5 496 L 418.5 500 Q 440.6 506.4 458.5 517 L 487.5 536 Q 526.2 568.3 568 597.5 Q 570.2 608.1 575 615 L 543.5 614 L 542.5 613 L 518.5 612 L 517.5 611 L 469.5 611 L 468.5 612 L 458.5 612 L 435.5 616 L 415.5 622 L 412.5 624 L 412 622.5 Q 421 613.5 425 599.5 L 426 594.5 L 426 576.5 Q 422.3 559.2 410.5 550 L 393.5 541 L 374.5 540 Q 360.1 543.1 353 553.5 Q 345.1 562.1 346 579.5 Q 348.5 593 358.5 599 L 366.5 602 L 366.5 601 Q 358.6 598.9 355 592.5 L 352 587.5 L 350 577.5 L 354 563.5 L 362.5 554 L 376.5 548 L 387.5 548 Q 403 551.5 411 562.5 L 418 577.5 L 418 593.5 Q 413.6 613.1 399.5 623 Q 391.6 629.6 379.5 632 L 361.5 632 Q 337.8 627.2 325 611.5 Q 316.1 601.4 312 586.5 L 311 581.5 L 311 561.5 L 314 548.5 L 319 536.5 Q 327.4 521.4 340.5 511 Q 354.6 499.6 376.5 496 Z " /><path fill="rgb(0,0,0)" stroke="rgb(0,0,0)" stroke-width="1" opacity="0" d="M 775.5 556 L 790.5 556 L 802.5 559 Q 818 565 828 576.5 Q 835.6 585.4 840 597.5 L 842 605.5 L 842 627.5 Q 836 658.5 815.5 675 Q 806.2 683.2 793.5 688 L 778.5 692 L 768.5 692 L 767.5 693 L 766.5 692 L 753.5 692 L 738.5 689 L 712.5 678 Q 685.6 661.9 666 638.5 L 632 601.5 L 630 584.5 Q 626.9 576.1 620.5 571 L 618 569.5 L 631.5 569 L 632.5 570 L 641.5 570 L 642.5 571 L 660.5 572 L 661.5 573 L 695.5 573 L 696.5 572 L 705.5 572 L 706.5 571 L 718.5 570 L 737.5 565 L 743.5 562 L 744 563.5 Q 734.4 571 730 583.5 L 727 594.5 L 727 611.5 Q 731 628.5 742.5 638 Q 754.3 650.2 780.5 648 Q 791.6 645.1 798 637.5 L 806 623.5 L 807 607.5 Q 804.1 594.9 794.5 589 L 788.5 587 L 788.5 588 L 798 595.5 Q 803.1 601.4 803 612.5 L 801 620.5 L 793.5 632 Q 787.7 637.7 778.5 640 L 764.5 640 Q 749.5 636.5 742 625.5 Q 736.9 619.1 735 609.5 L 735 595.5 Q 739.3 576.3 752.5 566 Q 761.5 558.5 775.5 556 Z M 786 586 L 786 587 L 788 587 L 786 586 Z " /><path fill="rgb(0,0,0)" stroke="rgb(0,0,0)" stroke-width="1" opacity="0" d="M 629.5 607 L 632 608.5 Q 652.2 637.8 677.5 662 Q 697.6 682.4 727 693.5 L 713.5 697 L 705.5 701 L 692 712.5 L 685 724.5 L 682 741.5 L 683 742.5 L 684 753.5 L 689 764.5 L 699.5 776 L 712.5 781 L 725.5 781 Q 737.2 778.7 744 771.5 L 751 758.5 L 751 745.5 L 750 745.5 Q 750.4 763.4 739.5 770 L 727.5 775 L 717.5 775 Q 705.9 772.1 699 764.5 L 691 748.5 L 691 733.5 L 695 722.5 L 701 714 L 709.5 708 L 721.5 703 L 739.5 702 Q 760.5 706 771 720.5 L 781 740.5 L 782 751.5 L 783 752.5 L 783 760.5 L 780 775.5 L 775 786.5 Q 768.5 797.5 758.5 805 Q 748 813 733.5 817 L 723.5 819 L 703.5 819 Q 673.3 813.7 657 794.5 L 650 785.5 L 640 767.5 L 632 746.5 L 628 730.5 L 628 725.5 L 626 718.5 L 626 710.5 L 625 709.5 L 624 658.5 L 625 657.5 L 625 641.5 L 624 640.5 L 624 615.5 L 629.5 607 Z M 750 742 L 749 745 L 750 745 L 750 742 Z " /><path fill="rgb(0,0,0)" stroke="rgb(0,0,0)" stroke-width="1" opacity="0.9450980392156862" d="M 597.5 314 L 616.5 315 L 636.5 321 Q 654.9 329.1 667 343.5 Q 678.2 356.3 684 374.5 L 687 391.5 L 687 406.5 L 686 407.5 L 685 421.5 L 681 434.5 L 683 435 Q 687.9 420.3 700.5 412 Q 710.5 404.5 724.5 401 L 729.5 400 L 751.5 400 Q 778.6 405.4 793 423.5 Q 810.8 443.2 812 479.5 L 811 480.5 L 810 495.5 L 806 508.5 Q 797.8 528.3 782.5 541 L 773 547 L 773.5 549 L 774.5 548 L 791.5 548 Q 821.1 553.4 836 573.5 Q 844.8 584.2 849 599.5 L 851 619.5 L 850 620.5 L 850 629.5 L 848 638.5 L 838 661.5 Q 830 674 818.5 683 Q 806.4 692.9 789.5 698 L 780.5 700 L 762.5 701 L 761 700.5 Q 760.3 702.8 762.5 702 L 776 713.5 Q 783.7 722.8 788 735.5 L 791 750.5 L 791 761.5 L 790 762.5 L 789 773.5 L 782 790.5 Q 775.8 801.3 766.5 809 Q 754.7 818.7 738.5 824 L 724.5 827 L 702.5 827 Q 666.4 820.6 648 796.5 Q 629.2 771.8 621 736.5 L 618 719.5 L 618 711.5 L 617 710.5 L 616 667.5 L 617 666.5 L 619 621 L 607.5 626 L 599.5 627 L 596.5 626 L 527 685.5 Q 507 704.5 495 731.5 L 490 746.5 L 488 757.5 L 488 778.5 Q 493.2 807.8 511.5 824 Q 524.2 836.3 543.5 842 L 552.5 844 L 573.5 844 Q 597.2 839.2 610 823.5 Q 618 814.5 622 801.5 L 624 792.5 L 624 776.5 Q 619.9 757.1 606.5 747 L 588.5 738 L 570.5 737 Q 555.8 740.3 548 750.5 Q 538.6 759.6 540 779.5 Q 543.3 793.3 553.5 800 Q 560.4 805.1 572.5 805 Q 585.3 802.8 591 793.5 L 593.5 788 L 594 789.5 Q 591 799.9 582.5 805 L 572.5 809 L 561.5 809 Q 545.7 805.8 538 794.5 Q 529.6 785.9 532 766.5 L 534 758.5 L 544 742 L 553.5 735 L 565.5 730 Q 573 727.5 584.5 729 L 596.5 732 L 606.5 737 L 617 745 L 624 754.5 L 631 770.5 L 632 775.5 L 632 794.5 Q 626.2 823.2 606.5 838 L 589.5 848 L 575.5 852 L 562.5 853 L 561.5 852 L 546.5 851 L 530.5 846 Q 510.7 837.3 498 821.5 Q 488.3 809.7 483 793.5 L 480 780.5 L 480 756.5 L 487 729.5 L 496 711.5 Q 511.9 686.9 533.5 668 L 547.5 656 L 589 625.5 Q 589.8 623.3 587.5 624 L 579.5 619 L 567.5 619 L 566.5 620 L 526.5 620 L 525.5 619 L 470.5 619 L 469.5 620 L 459.5 620 L 458.5 621 L 441.5 623 L 414.5 631 Q 398.5 637.5 385.5 647 L 372 660.5 L 362 677.5 L 358 690.5 L 356 706.5 L 357 707.5 L 357 719.5 L 362 736.5 Q 369.3 754.3 383.5 765 Q 392.3 771.7 404.5 775 L 409.5 776 L 429.5 776 Q 452.2 771.6 464 756.5 Q 474.8 744.8 474 721.5 Q 471 703 459.5 693 L 444.5 685 L 431.5 684 L 422.5 686 L 414.5 690 L 407 697.5 Q 399.6 705.1 401 721.5 Q 403.2 733.3 411.5 739 L 419.5 743 L 428.5 744 L 432.5 743 L 432.5 744 Q 427 746.5 417.5 745 Q 405.9 741.6 400 732.5 L 396 724.5 L 395 713.5 L 394 712.5 L 397 698.5 Q 400.6 690.1 407.5 685 L 420.5 678 L 429.5 676 L 440.5 676 Q 461.9 679.6 472 694.5 L 480 710.5 L 482 719.5 L 482 733.5 L 478 748.5 L 474 756.5 L 466 767 L 453.5 776 L 442.5 781 L 431.5 784 L 417.5 785 L 416.5 784 L 407.5 784 L 391.5 779 Q 376.8 772.2 367 760.5 Q 348.9 740.6 348 703.5 L 349 702.5 L 350 688.5 L 354 675.5 Q 362.3 655.8 377.5 643 L 381 640.5 L 360.5 640 L 345.5 636 Q 328 628.5 317 614.5 Q 309 605 305 591.5 L 303 582.5 L 303 560.5 Q 309.3 525.3 332.5 507 Q 344.4 496.4 361.5 491 L 374.5 488 L 399.5 488 L 416.5 491 L 435.5 497 L 469.5 514 L 506.5 540 L 564.5 589 L 565 586.5 L 563 580.5 L 562 560.5 L 561 559.5 L 560 494.5 L 559 493.5 L 559 481.5 L 558 480.5 L 558 473.5 L 555 456.5 Q 546.1 414.4 521.5 388 Q 509.8 376.7 492.5 371 L 478.5 368 L 459.5 368 L 440.5 373 Q 426 379 416 389.5 L 404 408.5 L 401 418.5 L 400 436.5 L 406 457.5 L 416 472 L 427.5 480 L 434.5 483 L 442.5 485 L 456.5 485 Q 476.4 481.4 486 467.5 L 492 453.5 L 492 439.5 Q 488.9 425.1 478.5 418 Q 471.2 410.8 455.5 412 Q 442.9 414.4 437 423.5 Q 432.1 430.1 432.5 442 L 431 433.5 L 433 424.5 L 440.5 414 Q 449.9 404.4 470.5 406 Q 484.9 409.1 492 419.5 L 499 433.5 L 500 438.5 L 500 454.5 Q 496.1 472.6 483.5 482 L 466.5 491 L 457.5 493 L 441.5 493 Q 418 488.5 406 472.5 Q 397.9 462.6 394 448.5 L 392 437.5 L 392 423.5 Q 397.1 392.6 417.5 377 Q 429.1 368.1 444.5 363 L 458.5 360 L 480.5 360 Q 516.1 366.4 534.5 390 L 535 388.5 L 534 387.5 L 534 377.5 L 535 376.5 L 536 365.5 L 543 348.5 Q 549.5 337 559.5 329 L 576.5 319 L 589.5 315 Q 595.8 316.8 597.5 314 Z M 599 322 L 584 325 L 567 334 Q 556 342 550 353 L 545 364 L 542 380 L 544 397 L 552 412 Q 563 426 585 430 Q 602 431 612 423 Q 624 415 627 397 Q 627 382 621 375 Q 614 365 601 362 Q 588 361 582 367 Q 575 371 573 380 L 572 380 L 576 370 Q 582 361 594 358 Q 604 357 611 359 L 622 365 L 632 378 L 635 389 L 634 404 L 625 422 Q 615 434 596 438 L 584 438 L 574 436 Q 563 433 556 426 L 554 427 L 563 455 L 565 472 L 566 473 L 566 480 L 567 481 L 567 493 L 568 494 L 568 545 L 567 546 L 567 577 L 568 578 L 568 586 L 570 587 L 572 581 L 587 559 L 639 496 L 660 465 L 673 436 L 678 415 L 678 406 L 679 405 L 679 392 L 678 391 L 677 380 Q 672 363 663 352 Q 651 336 633 328 L 616 323 L 599 322 Z M 731 408 Q 714 411 704 420 Q 690 431 686 452 L 687 469 L 696 487 Q 704 497 720 500 Q 738 501 747 493 Q 756 486 759 474 Q 760 457 753 450 L 743 442 L 734 440 L 732 441 L 727 441 L 732 439 L 742 439 L 752 443 Q 761 450 765 464 L 765 480 L 759 493 Q 749 505 731 508 L 714 507 L 699 500 Q 682 488 678 465 L 678 450 L 679 449 L 679 444 Q 668 470 653 491 L 635 514 L 600 551 L 588 566 L 595 564 L 607 564 L 608 565 L 611 564 L 662 564 L 663 565 L 694 565 L 695 564 L 712 563 L 730 559 Q 755 551 775 537 Q 797 521 803 489 L 803 466 L 802 461 Q 798 443 789 432 Q 779 418 762 411 L 751 408 L 731 408 Z M 377 496 Q 355 500 341 511 Q 327 521 319 537 L 314 549 L 311 562 L 311 582 L 312 587 Q 316 601 325 612 Q 338 627 362 632 L 380 632 Q 392 630 400 623 Q 414 613 418 594 L 418 578 L 411 563 Q 403 552 388 548 L 377 548 L 363 554 L 354 564 L 350 578 L 352 588 L 355 593 Q 359 599 367 601 L 367 602 L 359 599 Q 349 593 346 580 Q 345 562 353 554 Q 360 543 375 540 L 394 541 L 411 550 Q 422 559 426 577 L 426 595 L 425 600 Q 421 613 412 623 L 413 624 L 416 622 L 436 616 L 459 612 L 469 612 L 470 611 L 518 611 L 519 612 L 543 613 L 544 614 L 575 615 Q 570 608 568 598 Q 526 568 488 536 L 459 517 Q 441 506 419 500 L 399 496 L 377 496 Z M 776 556 Q 761 558 753 566 Q 739 576 735 596 L 735 610 Q 737 619 742 626 Q 750 636 765 640 L 779 640 Q 788 638 794 632 L 801 621 L 803 613 Q 803 601 798 596 Q 794 589 786 587 L 786 586 L 795 589 Q 804 595 807 608 L 806 624 L 798 638 Q 792 645 781 648 Q 754 650 743 638 Q 731 629 727 612 L 727 595 L 730 584 Q 734 571 744 564 L 744 562 L 738 565 L 719 570 L 707 571 L 706 572 L 697 572 L 696 573 L 662 573 L 661 572 L 643 571 L 642 570 L 633 570 L 632 569 L 618 570 L 621 571 Q 627 576 630 585 L 632 602 L 666 639 Q 686 662 713 678 L 739 689 L 754 692 L 767 692 L 768 693 L 769 692 L 779 692 L 794 688 Q 806 683 816 675 Q 836 658 842 628 L 842 606 L 840 598 Q 836 585 828 577 Q 818 565 803 559 L 791 556 L 776 556 Z M 630 607 L 624 616 L 624 641 L 625 642 L 625 658 L 624 659 L 625 710 L 626 711 L 626 719 L 628 726 L 628 731 L 632 747 L 640 768 L 650 786 L 657 795 Q 673 814 704 819 L 724 819 L 734 817 Q 748 813 759 805 Q 768 798 775 787 L 780 776 L 783 761 L 783 753 L 782 752 L 781 741 L 771 721 Q 760 706 740 702 L 722 703 L 710 708 L 701 714 L 695 723 L 691 734 L 691 749 L 699 765 Q 706 772 718 775 L 728 775 L 740 770 Q 748 764 750 753 Q 752 746 749 745 L 750 742 L 751 746 L 751 759 L 744 772 Q 737 779 726 781 L 713 781 L 700 776 L 689 765 L 684 754 L 683 743 L 682 742 L 685 725 L 692 713 L 706 701 L 714 697 L 727 694 Q 698 682 678 662 Q 652 638 632 609 L 630 607 Z " /></svg>