<svg width="1181" height="1181" version="1.1" xmlns="http://www.w3.org/2000/svg" desc="Created with imagetracer.js version 1.2.6" ><path fill="rgb(0,0,0)" stroke="rgb(0,0,0)" stroke-width="1" opacity="0.9058823529411765" d="M 540.5 388 L 570.5 390 L 599.5 398 Q 632.9 411.6 655 436.5 Q 672.3 455.7 683 481.5 L 691 510.5 L 693 540.5 L 692 541.5 L 691 557.5 L 688 569.5 L 677 594.5 Q 666 613.5 649.5 627 Q 634.4 639.4 614.5 647 L 590.5 653 L 568.5 654 L 567.5 653 L 553.5 652 L 537.5 647 Q 517.6 637.9 504 622.5 Q 487.2 601.3 476 574.5 L 470 549.5 L 470 520.5 Q 477.9 474.4 507.5 450 Q 521.6 437.6 540.5 430 L 563.5 424 L 588.5 423 L 589.5 424 L 601.5 425 L 618.5 430 L 641.5 442 L 631.5 431 Q 610.9 413.6 581.5 405 L 560.5 401 L 529.5 401 L 498.5 407 L 466.5 420 Q 438.3 435.3 418 458.5 Q 397.7 481.2 386 512.5 L 378 542.5 L 377 559.5 L 376 560.5 L 376 580.5 L 377 581.5 L 378 600.5 L 382 621.5 L 395 658.5 Q 413.6 697.9 443.5 726 Q 475.4 756.6 521.5 773 L 538.5 778 L 559.5 782 L 577.5 783 L 578.5 784 L 602.5 784 L 603.5 783 L 615.5 783 L 616.5 782 L 631.5 781 L 659.5 775 Q 684.3 768.3 705.5 758 Q 757 732.5 793 691.5 Q 825.3 656.8 845 609.5 L 854 583.5 L 859 563.5 L 862 547.5 L 863 532.5 L 864 531.5 L 864.5 517 L 865 539.5 L 864 540.5 L 863 560.5 L 859 582.5 L 855 598.5 L 841 636.5 Q 819.1 684.6 783.5 719 Q 742.7 758.2 684.5 780 L 658.5 788 L 633.5 793 L 619.5 794 L 618.5 795 L 607.5 795 L 606.5 796 L 574.5 796 L 573.5 795 L 564.5 795 L 563.5 794 L 556.5 794 L 540.5 791 L 500.5 778 Q 453 757 421 720.5 Q 393.9 690.6 378 649.5 L 372 631.5 L 366 603.5 L 365 585.5 L 364 584.5 L 364 556.5 L 370 522.5 L 382 490.5 Q 396.5 461.5 418.5 440 Q 441.8 417.3 473.5 403 L 507.5 392 L 525.5 390 L 526.5 389 L 539.5 389 L 540.5 388 Z M 576 435 L 575 436 L 566 436 L 556 438 L 544 442 Q 530 448 520 456 Q 490 479 482 524 L 483 542 Q 488 523 499 511 Q 512 494 536 489 Q 548 487 557 490 Q 568 493 576 500 Q 586 508 592 522 L 593 523 L 583 510 Q 573 496 554 492 L 539 492 L 534 493 Q 521 497 512 505 Q 502 513 496 524 L 489 541 L 488 552 L 487 553 L 488 570 L 490 577 L 505 601 Q 519 618 542 628 L 561 634 L 576 635 L 577 636 L 594 635 L 608 632 L 626 625 L 647 613 Q 673 590 680 549 L 680 523 L 675 507 L 664 484 L 653 469 Q 640 453 621 444 L 600 437 L 576 435 Z " /><path fill="rgb(0,0,0)" stroke="rgb(0,0,0)" stroke-width="1" opacity="0.9058823529411765" d="M 578.5 527 L 586.5 527 L 597 532 Q 596.4 536.6 600 538.5 L 600 549.5 L 592.5 559 Q 588.2 562.2 580.5 562 Q 571.3 560.3 567 553.5 Q 563.3 549.2 565 539.5 L 570.5 531 L 578.5 527 Z " /><path fill="rgb(0,0,0)" stroke="rgb(0,0,0)" stroke-width="1" opacity="0" d="M 0 0 L 1181 0 L 1181 1181 L 0 1181 L 0 0 Z M 541 388 L 540 389 L 527 389 L 526 390 L 508 392 L 474 403 Q 442 417 419 440 Q 396 461 382 491 L 370 523 L 364 557 L 364 585 L 365 586 L 366 604 L 372 632 L 378 650 Q 394 691 421 721 Q 453 757 501 778 L 541 791 L 557 794 L 564 794 L 565 795 L 574 795 L 575 796 L 607 796 L 608 795 L 619 795 L 620 794 L 634 793 L 659 788 L 685 780 Q 743 758 784 719 Q 819 685 841 637 L 855 599 L 859 583 L 863 561 L 864 541 L 865 540 L 865 517 L 864 532 L 863 533 L 862 548 L 859 564 L 854 584 L 845 610 Q 825 657 793 692 Q 757 732 706 758 Q 684 768 660 775 L 632 781 L 617 782 L 616 783 L 604 783 L 603 784 L 579 784 L 578 783 L 560 782 L 539 778 L 522 773 Q 475 757 444 726 Q 414 698 395 659 L 382 622 L 378 601 L 377 582 L 376 581 L 376 561 L 377 560 L 378 543 L 386 513 Q 398 481 418 459 Q 438 435 467 420 L 499 407 L 530 401 L 561 401 L 582 405 Q 611 414 632 431 L 643 443 Q 632 435 619 430 L 602 425 L 590 424 L 589 423 L 564 424 L 541 430 Q 522 438 508 450 Q 478 474 470 521 L 470 550 L 476 575 Q 487 601 504 623 Q 518 638 538 647 L 554 652 L 568 653 L 569 654 L 591 653 L 615 647 Q 634 639 650 627 Q 666 614 677 595 L 688 570 L 691 558 L 692 542 L 693 541 L 691 511 L 683 482 Q 672 456 655 437 Q 633 412 600 398 L 571 390 L 541 388 Z " /><path fill="rgb(0,0,0)" stroke="rgb(0,0,0)" stroke-width="1" opacity="0" d="M 575.5 435 L 599.5 437 L 620.5 444 Q 639.7 453.3 653 468.5 L 664 483.5 L 675 506.5 L 680 522.5 L 680 548.5 Q 672.8 590.3 646.5 613 L 625.5 625 L 607.5 632 L 593.5 635 L 576.5 636 L 575.5 635 L 560.5 634 L 541.5 628 Q 519.5 618 505 600.5 L 490 576.5 L 488 569.5 L 487 552.5 L 488 551.5 L 489 540.5 L 496 523.5 Q 502.3 512.8 511.5 505 Q 520.5 497 533.5 493 L 538.5 492 L 553.5 492 Q 572.6 496.4 583 509.5 L 586.5 514 L 587 512.5 L 575.5 500 Q 567.8 493.2 556.5 490 Q 548.2 487.3 535.5 489 Q 511.9 494.4 499 510.5 Q 487.7 523.2 482.5 542 L 482 523.5 Q 489.6 478.6 519.5 456 Q 530 447.5 543.5 442 L 555.5 438 L 565.5 436 L 574.5 436 L 575.5 435 Z M 588 514 L 587 516 L 589 517 L 588 514 Z M 590 517 L 589 519 L 591 520 L 590 517 Z M 579 527 L 571 531 L 565 540 Q 563 549 567 554 Q 571 560 581 562 Q 588 562 593 559 L 600 550 L 600 539 Q 596 537 597 532 L 587 527 L 579 527 Z " /></svg>