<svg width="1181" height="1181" version="1.1" xmlns="http://www.w3.org/2000/svg" desc="Created with imagetracer.js version 1.2.6" ><path fill="rgb(0,0,0)" stroke="rgb(0,0,0)" stroke-width="1" opacity="0.8901960784313725" d="M 584.5 350 Q 591.5 348.5 593 352.5 L 725 577.5 L 725 581 L 746.5 567 L 768.5 562 L 782.5 562 L 793.5 564 L 808.5 570 Q 824.3 579.2 836 592.5 L 851 612.5 L 860.5 622 Q 869.5 630 882.5 634 L 893.5 636 L 905.5 636 L 924.5 632 L 939.5 625 Q 955.3 615.8 967 602.5 L 973.5 594 L 973 595.5 Q 966.1 614.1 952.5 626 Q 941.5 635 926.5 640 L 907.5 644 L 891.5 644 Q 862.3 639.2 847 620.5 Q 835 601.5 818.5 587 Q 809.5 579 797.5 574 L 787.5 571 L 771.5 570 L 770.5 571 L 757.5 572 L 742.5 577 Q 730 581.5 721 589.5 L 608 800.5 L 602 811.5 L 598.5 815 Q 591.5 816.5 590 812.5 L 520 698.5 L 462 593.5 L 465 595.5 L 533 695.5 L 594 796 L 597 794.5 L 712 580.5 L 587.5 369 L 529 471.5 L 462.5 576 L 463 574.5 L 516 468.5 L 581 353.5 L 584.5 350 Z " /><path fill="rgb(0,0,0)" stroke="rgb(0,0,0)" stroke-width="1" opacity="0.8901960784313725" d="M 271.5 544 L 293.5 544 L 307.5 548 Q 327.5 557 340 573.5 L 351.5 586 Q 366.7 600.3 387.5 609 L 403.5 613 L 415.5 613 Q 440.5 608 455.5 593 L 454 595.5 L 445.5 606 Q 437.1 614.1 425.5 619 L 417.5 621 L 401.5 621 Q 380.2 617.3 365.5 607 Q 344.6 593.4 329 574.5 L 322.5 567 Q 312.1 557.4 296.5 553 L 292.5 552 L 272.5 552 L 259.5 555 L 245.5 561 Q 228.7 571.2 216 585.5 L 206.5 600 L 206 598.5 Q 211.8 578.8 224.5 566 Q 241.9 548.9 271.5 544 Z " /><path fill="rgb(0,0,0)" stroke="rgb(0,0,0)" stroke-width="1" opacity="0.8901960784313725" d="M 396.5 558 Q 407.1 556.9 410 563.5 Q 412.5 567 411 574.5 L 405.5 581 L 396.5 582 L 390 577.5 Q 386.8 574.2 388 566.5 L 392.5 560 L 396.5 558 Z " /><path fill="rgb(0,0,0)" stroke="rgb(0,0,0)" stroke-width="1" opacity="0.8901960784313725" d="M 584.5 562 Q 606.3 560.3 613 573.5 Q 618.8 580.2 617 594.5 Q 613.9 605.4 605.5 611 Q 598.8 616.8 584.5 615 Q 575.1 612.9 570 606.5 L 564 594.5 L 564 581.5 Q 566.5 573 572.5 568 L 584.5 562 Z " /><path fill="rgb(0,0,0)" stroke="rgb(0,0,0)" stroke-width="1" opacity="0.8901960784313725" d="M 894.5 581 L 901.5 581 L 907 584 L 910 590.5 L 910 594.5 Q 908.5 601 903.5 604 L 895.5 605 Q 889.4 603.6 887 598.5 L 886 590.5 L 890.5 583 L 894.5 581 Z " /><path fill="rgb(0,0,0)" stroke="rgb(0,0,0)" stroke-width="1" opacity="0.8901960784313725" d="M 276.5 588 Q 288.3 586.2 291 593.5 L 293 600.5 Q 292.1 607.1 287.5 610 Q 284.6 612.6 278.5 612 Q 272.4 610.6 270 605.5 L 269 596.5 L 274.5 589 L 276.5 588 Z " /><path fill="rgb(0,0,0)" stroke="rgb(0,0,0)" stroke-width="1" opacity="0.8901960784313725" d="M 778.5 598 Q 785.1 598.4 788 602.5 Q 791 605.5 791 611.5 Q 790.1 618.1 785.5 621 L 777.5 623 Q 771 621.5 768 616.5 L 767 607.5 L 772.5 600 L 778.5 598 Z " /><path fill="rgb(0,0,0)" stroke="rgb(0,0,0)" stroke-width="1" opacity="0" d="M 0 0 L 1181 0 L 1181 1181 L 0 1181 L 0 0 Z M 585 350 L 581 354 L 516 469 L 464 572 L 465 573 L 529 472 L 588 369 L 712 581 L 597 795 L 594 796 L 533 696 L 465 596 L 463 595 L 520 699 L 590 813 Q 592 817 599 815 L 602 812 L 608 801 L 721 590 Q 730 581 743 577 L 758 572 L 771 571 L 772 570 L 788 571 L 798 574 Q 809 579 819 587 Q 835 602 847 621 Q 862 639 892 644 L 908 644 L 927 640 Q 941 635 953 626 Q 966 614 973 597 L 973 595 L 967 603 Q 955 616 940 625 L 925 632 L 906 636 L 894 636 L 883 634 Q 870 630 861 622 L 851 613 L 836 593 Q 824 579 809 570 L 794 564 L 783 562 L 769 562 L 747 567 L 725 581 L 725 578 L 593 353 Q 592 349 585 350 Z M 272 544 Q 242 549 225 566 Q 213 578 207 596 L 208 598 L 216 586 Q 229 571 246 561 L 260 555 L 273 552 L 293 552 L 297 553 Q 312 557 323 567 L 329 575 Q 345 593 366 607 Q 380 617 402 621 L 418 621 L 426 619 Q 437 614 446 606 L 454 597 L 454 595 Q 439 608 416 613 L 404 613 L 388 609 Q 367 600 352 586 L 340 574 Q 328 557 308 548 L 294 544 L 272 544 Z M 397 558 L 393 560 L 388 567 Q 387 574 390 578 L 397 582 L 406 581 L 411 575 Q 413 567 410 564 Q 407 557 397 558 Z M 585 562 L 573 568 Q 567 573 564 582 L 564 595 L 570 607 Q 575 613 585 615 Q 599 617 606 611 Q 614 605 617 595 Q 619 580 613 574 Q 606 560 585 562 Z M 895 581 L 891 583 L 886 591 L 887 599 Q 889 604 896 605 L 904 604 Q 908 601 910 595 L 910 591 L 907 584 L 902 581 L 895 581 Z M 277 588 L 275 589 L 269 597 L 270 606 Q 272 611 279 612 Q 285 613 288 610 Q 292 607 293 601 L 291 594 Q 288 586 277 588 Z M 779 598 L 773 600 L 767 608 L 768 617 Q 771 621 778 623 L 786 621 Q 790 618 791 612 Q 791 605 788 603 Q 785 598 779 598 Z " /></svg>