<svg width="1181" height="1181" version="1.1" xmlns="http://www.w3.org/2000/svg" desc="Created with imagetracer.js version 1.2.6" ><path fill="rgb(0,0,0)" stroke="rgb(0,0,0)" stroke-width="1" opacity="0.8745098039215686" d="M 700.5 320 Q 710.6 327.9 716 340.5 Q 719.6 348.4 718 361.5 Q 714.3 379.8 701.5 389 L 686.5 395 L 674.5 395 L 663.5 392 L 648.5 392 L 635.5 397 L 632 400.5 L 627 412.5 L 627 424.5 L 630 435.5 L 634.5 442 Q 674.3 456.3 699 485.5 L 712 504 L 714 503.5 L 714 496.5 Q 719.3 482.3 730.5 474 L 742.5 469 L 751.5 469 L 768.5 476 L 793.5 497 L 800.5 499 L 808.5 499 Q 821.7 496.2 829 487.5 L 839 467.5 L 842.5 449 L 845 458.5 L 845 473.5 Q 840.9 490.4 828.5 499 L 814.5 506 L 798.5 507 L 785.5 502 L 762.5 482 Q 755.9 477.1 744.5 477 Q 735.1 479.1 730 485.5 L 726 490.5 L 721 501.5 L 719 514.5 Q 726.8 527.8 731 544.5 L 734 561.5 L 735 585.5 L 734 586.5 Q 735.1 596.1 733 601 L 747.5 591 Q 755.2 587.2 766.5 587 Q 781 589.5 788 599.5 L 796 612.5 L 803 633.5 L 810.5 642 L 822.5 647 L 834.5 647 L 848.5 641 L 867 623.5 L 870.5 618 L 871 619.5 Q 866.8 637.3 854.5 647 Q 847.2 652.7 836.5 655 L 820.5 655 Q 807.3 652.2 800 643.5 L 793 631.5 Q 791 618.5 785 609.5 L 775.5 599 L 772.5 597 L 763.5 595 L 754.5 597 L 746.5 601 L 735 611.5 L 727.5 628 L 727 625.5 L 730 608.5 L 730 592.5 L 729 591.5 L 729 583.5 L 726 566.5 L 718 542 Q 714.7 540.7 716 545.5 Q 711.1 564.1 703 579.5 Q 694.1 594.1 681.5 605 Q 671.7 613.2 658.5 618 L 650.5 620 L 629.5 620 Q 613.7 617.3 602.5 610 L 600 613.5 Q 607.7 630.8 621.5 642 L 641.5 652 L 663.5 653 L 692.5 645 L 722.5 630 L 719.5 634 Q 705.5 646.5 687.5 655 L 665.5 661 L 645.5 661 Q 620.2 656.3 607 639.5 L 591.5 615 L 581.5 615 L 580 616.5 L 575 635.5 L 575 651.5 Q 579.7 675.8 596.5 688 L 606.5 695 L 629.5 707 L 654 715.5 L 645.5 716 L 613.5 708 Q 594.9 699.6 582 685.5 Q 573.3 676.2 569 662.5 L 567 653.5 L 567 633.5 L 571 616.5 L 573 613.5 L 573 609.5 L 568.5 605 L 567.5 606 Q 548.4 612.9 537 627.5 Q 524.5 642 526 670.5 L 534 704.5 L 545 731 L 568.5 736 L 597.5 736 L 622.5 731 L 655 718 Q 653.7 714.7 658.5 716 Q 682.9 703.4 700 683.5 L 708.5 672 L 708 673.5 Q 696.7 694.7 680 710.5 L 692.5 712 Q 702.3 716.3 709 723.5 Q 714.5 729 717 737.5 L 717 749.5 Q 709.9 772.9 692 785.5 Q 686.3 792.3 687 805.5 Q 689.8 818.7 698.5 826 Q 713 837 736 839.5 Q 727.5 844 712.5 842 Q 695.5 838 687 825.5 L 680 811.5 L 679 795.5 Q 681.1 785.1 687 778.5 Q 697.9 770.4 705 758.5 L 709 747.5 L 709 739.5 Q 705.8 730.2 698.5 725 Q 689.5 717.5 674.5 716 Q 656.9 731.9 632.5 741 L 608.5 747 L 590.5 748 L 589.5 749 L 576.5 749 L 573 748 Q 578.7 757.7 579 773.5 L 576 785.5 L 571 793 L 555.5 802 L 542.5 805 Q 531.6 803.6 524.5 806 L 518.5 808 L 511 813 L 503 829.5 L 503 842.5 L 511 861.5 L 522 875.5 L 520.5 875 Q 508.3 869.8 501 859.5 L 495 844.5 L 495 828.5 Q 498.1 812.1 509.5 804 L 522.5 798 L 541.5 797 L 553.5 794 Q 561.9 790.9 567 784.5 L 570 778.5 L 570 764.5 Q 567.8 753.7 561.5 747 L 540.5 743 Q 522.5 737.5 507.5 729 Q 482.8 714.8 465 693.5 L 453.5 677 Q 449.6 696.6 435.5 706 L 422.5 712 L 410.5 713 L 399.5 710 L 379.5 698 L 368.5 695 L 360.5 695 Q 351.3 696.8 347 703.5 L 341 714.5 L 339 732.5 L 341 740.5 L 344 745.5 L 337 739.5 L 332 727.5 L 332 716.5 Q 335.6 701.6 345.5 693 Q 350.3 688.3 358.5 687 L 370.5 687 L 381.5 690 L 404.5 703 L 414.5 705 Q 415.8 702.7 420.5 704 L 429.5 700 L 437 693.5 L 445 677.5 L 446 663.5 L 437 644.5 L 431 622.5 L 431 617.5 L 429 610.5 L 429 599.5 L 428 598.5 L 428 582.5 L 429 580 L 417.5 589 L 410.5 592 L 401.5 594 L 392.5 594 Q 391.3 591.8 386.5 593 L 374.5 588 L 365 579.5 Q 359.9 573.1 358 563.5 L 358 552.5 L 356 541.5 Q 353.4 530.6 346.5 524 Q 340.7 518.3 328.5 519 Q 311.6 522.1 302 532.5 L 296.5 541 L 296 539.5 Q 298.4 525.4 307.5 518 Q 318 510 337.5 511 Q 350.9 513.6 357 523.5 Q 362.8 531.8 365 543.5 L 366 561.5 L 368 568.5 L 377.5 580 Q 385.3 586.2 399.5 586 Q 418.6 582.1 430 570.5 L 430 564.5 L 434 546.5 L 446 516.5 Q 459.3 491.3 479.5 473 Q 487.9 463.9 499 459 L 498.5 457 L 488.5 457 Q 472.5 452.5 464 440.5 Q 455.8 431.2 456 413.5 Q 457.5 404 462 397.5 Q 472.6 387.6 480 374.5 L 483 365.5 L 483 356.5 Q 480.5 348.5 474.5 344 Q 464.3 334.2 444.5 334 L 437.5 336 L 439.5 333 Q 447.3 327.3 461.5 328 Q 478.2 332.8 487 345.5 Q 493 352.5 491 367.5 L 485 382.5 L 468 403.5 Q 464.2 409.2 464 418.5 Q 466.4 434.1 476.5 442 L 484.5 447 L 499.5 452 L 507.5 453 Q 526 441.5 550.5 436 L 561.5 434 L 569.5 434 L 570.5 433 L 595.5 433 L 623.5 438 L 623 436.5 Q 616.7 427.8 619 410.5 Q 621.3 399.7 627 393 L 636.5 387 L 646.5 384 L 665.5 384 L 676.5 387 L 684.5 387 Q 698 384.5 704 374.5 L 709 364.5 L 710 349.5 L 705 330.5 L 700 321.5 L 700.5 320 Z M 577 445 L 576 446 L 566 446 L 550 449 L 531 456 L 548 458 L 565 463 Q 580 469 591 480 Q 600 489 606 503 L 609 512 L 610 524 L 611 525 Q 611 555 600 575 Q 599 577 602 576 L 609 584 Q 628 578 643 567 Q 661 554 666 529 L 666 510 Q 664 508 665 504 L 657 476 L 652 465 Q 624 445 577 445 Z M 527 457 Q 507 466 492 479 Q 458 507 445 555 L 447 555 L 462 541 L 477 531 L 495 524 L 505 522 L 526 522 L 531 523 Q 548 528 560 539 Q 574 552 582 571 L 584 572 L 592 572 L 595 567 L 599 555 L 602 541 L 602 519 L 601 514 Q 597 500 589 491 Q 565 466 527 457 Z M 658 467 L 669 489 L 674 508 L 674 531 L 673 536 Q 669 551 660 562 Q 642 583 612 592 L 610 594 Q 611 601 608 604 L 617 608 L 632 612 L 649 612 L 654 611 Q 666 607 675 600 Q 700 575 716 541 L 714 533 L 706 517 Q 697 501 685 489 Q 673 476 658 467 Z M 507 530 Q 472 538 448 555 L 444 559 L 441 576 L 441 607 L 442 608 L 443 620 L 446 632 L 448 633 Q 453 607 467 591 Q 481 571 509 565 L 531 565 Q 532 567 537 566 Q 555 571 570 579 L 571 580 L 575 576 L 574 572 L 562 554 Q 552 541 538 534 L 524 530 L 507 530 Z M 511 573 Q 499 575 492 580 L 478 590 L 461 614 L 449 637 L 450 644 L 456 658 Q 465 675 477 689 Q 501 717 541 730 L 544 730 Q 531 714 523 695 L 518 673 L 518 654 L 520 644 Q 524 630 532 621 Q 545 606 565 598 L 566 598 L 566 588 L 560 583 L 539 575 L 530 573 L 511 573 Z " /><path fill="rgb(0,0,0)" stroke="rgb(0,0,0)" stroke-width="1" opacity="0.8745098039215686" d="M 458.5 354 Q 464.9 354.1 467 358.5 L 468 366.5 L 464.5 371 L 455.5 372 L 451 368.5 L 450 361.5 L 453.5 356 L 458.5 354 Z " /><path fill="rgb(0,0,0)" stroke="rgb(0,0,0)" stroke-width="1" opacity="0.8745098039215686" d="M 685.5 357 Q 692.8 357.3 695 362.5 Q 697 372 691.5 374 L 683.5 375 L 678 370.5 L 677 364.5 L 680.5 359 L 685.5 357 Z " /><path fill="rgb(0,0,0)" stroke="rgb(0,0,0)" stroke-width="1" opacity="0.8745098039215686" d="M 648.5 407 Q 658.3 405.3 660 411.5 L 661 417.5 L 657.5 423 L 648.5 424 L 644 420.5 L 643 412.5 L 646.5 408 L 648.5 407 Z " /><path fill="rgb(0,0,0)" stroke="rgb(0,0,0)" stroke-width="1" opacity="0.8745098039215686" d="M 482.5 409 Q 488.9 409.1 491 413.5 L 492 421.5 L 488.5 426 L 479.5 427 L 476 424.5 Q 473.3 422.2 474 416.5 L 477.5 411 L 482.5 409 Z " /><path fill="rgb(0,0,0)" stroke="rgb(0,0,0)" stroke-width="1" opacity="0.8745098039215686" d="M 803.5 471 Q 810.8 470.8 813 475.5 L 814 483.5 L 810.5 488 L 801.5 489 Q 795.9 486.6 796 478.5 L 800.5 472 L 803.5 471 Z " /><path fill="rgb(0,0,0)" stroke="rgb(0,0,0)" stroke-width="1" opacity="0.8745098039215686" d="M 748.5 492 Q 754.4 492.6 757 496.5 L 758 504.5 L 753.5 510 L 748.5 511 L 742 507.5 Q 739.2 504.8 740 498.5 L 743.5 494 L 748.5 492 Z " /><path fill="rgb(0,0,0)" stroke="rgb(0,0,0)" stroke-width="1" opacity="0.8745098039215686" d="M 328.5 535 L 335.5 535 L 339 537 Q 341.6 539.3 341 545.5 L 336.5 552 L 329.5 553 L 324 548.5 L 323 541.5 L 326.5 536 L 328.5 535 Z " /><path fill="rgb(0,0,0)" stroke="rgb(0,0,0)" stroke-width="1" opacity="0.8745098039215686" d="M 388.5 555 L 396 559.5 L 397 567.5 L 392.5 573 L 386.5 574 L 381 570.5 L 379 563.5 L 384.5 556 L 388.5 555 Z " /><path fill="rgb(0,0,0)" stroke="rgb(0,0,0)" stroke-width="1" opacity="0.8745098039215686" d="M 761.5 611 Q 769.1 609.9 771 614.5 L 773 621.5 L 767.5 629 Q 759.5 630.5 757 626.5 Q 753.8 624.2 755 617.5 L 759.5 612 L 761.5 611 Z " /><path fill="rgb(0,0,0)" stroke="rgb(0,0,0)" stroke-width="1" opacity="0.8745098039215686" d="M 819.5 619 Q 828.5 617.5 831 622.5 L 832 631.5 L 830 635 Q 827.7 637.6 821.5 637 L 816 633.5 L 814 627.5 L 815 623.5 L 819.5 619 Z " /><path fill="rgb(0,0,0)" stroke="rgb(0,0,0)" stroke-width="1" opacity="0.8745098039215686" d="M 710.5 669 L 709.5 671 L 710.5 669 Z " /><path fill="rgb(0,0,0)" stroke="rgb(0,0,0)" stroke-width="1" opacity="0.8745098039215686" d="M 412.5 677 Q 423 675 425 681.5 L 426 686.5 L 422.5 693 L 416.5 695 L 412.5 694 L 409 690.5 L 408 681.5 L 412.5 677 Z " /><path fill="rgb(0,0,0)" stroke="rgb(0,0,0)" stroke-width="1" opacity="0.8745098039215686" d="M 362.5 710 Q 371.5 708.5 374 713.5 L 376 719.5 L 372.5 726 L 365.5 728 L 358 722.5 L 357 718.5 L 358 714.5 L 362.5 710 Z " /><path fill="rgb(0,0,0)" stroke="rgb(0,0,0)" stroke-width="1" opacity="0.8745098039215686" d="M 682.5 737 Q 691.1 735.9 693 741.5 L 694 748.5 L 689.5 754 L 682.5 755 L 678 753 L 676 749.5 L 676 743.5 L 680.5 738 L 682.5 737 Z " /><path fill="rgb(0,0,0)" stroke="rgb(0,0,0)" stroke-width="1" opacity="0.8745098039215686" d="M 542.5 763 Q 550.5 761.5 553 765.5 Q 556.2 767.8 555 774.5 L 551.5 779 L 542.5 780 L 538 776.5 L 537 768.5 L 540.5 764 L 542.5 763 Z " /><path fill="rgb(0,0,0)" stroke="rgb(0,0,0)" stroke-width="1" opacity="0.8745098039215686" d="M 704.5 793 Q 711.8 792.8 714 797.5 L 715 804.5 L 710.5 810 L 702.5 811 L 698 807.5 L 697 799.5 L 701.5 794 L 704.5 793 Z " /><path fill="rgb(0,0,0)" stroke="rgb(0,0,0)" stroke-width="1" opacity="0.8745098039215686" d="M 520.5 819 Q 529.5 817.5 532 822.5 L 533 830.5 L 529.5 835 L 520.5 836 L 516 832.5 L 515 824.5 L 518.5 820 L 520.5 819 Z " /><path fill="rgb(0,0,0)" stroke="rgb(0,0,0)" stroke-width="1" opacity="0" d="M 0 0 L 1181 0 L 1181 1181 L 0 1181 L 0 0 Z M 701 320 L 700 322 L 705 331 L 710 350 L 709 365 L 704 375 Q 698 384 685 387 L 677 387 L 666 384 L 647 384 L 637 387 L 627 393 Q 621 400 619 411 Q 617 428 623 437 L 625 439 L 616 436 L 605 434 L 597 434 L 596 433 L 571 433 L 570 434 L 562 434 L 551 436 Q 526 442 508 453 L 500 452 L 485 447 L 477 442 Q 466 434 464 419 Q 464 409 468 404 L 485 383 L 491 368 Q 493 353 487 346 Q 478 333 462 328 Q 447 327 440 333 L 438 336 L 445 334 Q 464 334 475 344 Q 480 349 483 357 L 483 366 L 480 375 Q 473 388 462 398 Q 458 404 456 414 Q 456 431 464 441 Q 473 452 489 457 L 499 457 L 499 459 Q 488 464 480 473 Q 459 491 446 517 L 434 547 L 430 565 L 430 571 Q 419 582 400 586 Q 385 586 378 580 L 368 569 L 366 562 L 365 544 Q 363 532 357 524 Q 351 514 338 511 Q 318 510 308 518 Q 298 525 296 540 L 297 541 L 302 533 Q 312 522 329 519 Q 341 518 347 524 Q 353 531 356 542 L 358 553 L 358 564 Q 360 573 365 580 L 375 588 L 387 593 Q 391 592 393 594 L 402 594 L 411 592 L 418 589 L 429 580 L 428 583 L 428 599 L 429 600 L 429 611 L 431 618 L 431 623 L 437 645 L 446 664 L 445 678 L 437 694 L 430 700 L 421 704 Q 416 703 415 705 L 405 703 L 382 690 L 371 687 L 359 687 Q 350 688 346 693 Q 336 702 332 717 L 332 728 L 337 740 L 343 745 L 339 733 L 341 715 L 347 704 Q 351 697 361 695 L 369 695 L 380 698 L 400 710 L 411 713 L 423 712 L 436 706 Q 450 697 454 677 L 465 694 Q 483 715 508 729 Q 522 738 541 743 L 562 747 Q 568 754 570 765 L 570 779 L 567 785 Q 562 791 554 794 L 542 797 L 523 798 L 510 804 Q 498 812 495 829 L 495 845 L 501 860 Q 508 869 520 875 L 521 875 L 511 862 L 503 843 L 503 830 L 511 813 L 519 808 L 525 806 Q 532 804 543 805 L 556 802 L 571 793 L 576 786 L 579 774 Q 579 758 573 748 L 577 749 L 590 749 L 591 748 L 609 747 L 633 741 Q 657 732 675 716 Q 690 717 699 725 Q 706 730 709 740 L 709 748 L 705 759 Q 698 770 687 779 Q 681 785 679 796 L 680 812 L 687 826 Q 696 838 713 842 Q 727 844 736 840 Q 713 837 699 826 Q 690 819 687 806 Q 686 792 692 786 Q 710 773 717 750 L 717 738 Q 715 729 709 724 Q 702 716 693 712 L 680 711 Q 695 696 706 678 L 706 676 L 700 684 Q 683 703 659 716 Q 654 715 655 718 L 623 731 L 598 736 L 569 736 L 547 731 Q 544 732 545 730 L 544 730 Q 511 721 490 701 Q 463 677 449 641 L 449 637 L 458 619 L 478 590 L 492 580 Q 499 575 511 573 L 530 573 L 535 574 Q 552 578 565 586 L 566 588 L 566 598 Q 551 602 541 612 Q 523 626 518 654 L 518 673 L 522 692 Q 530 711 541 727 L 544 729 L 534 705 L 526 671 Q 525 642 537 628 Q 548 613 568 606 L 569 605 L 573 610 L 573 614 L 571 617 L 567 634 L 567 654 L 569 663 Q 573 676 582 686 Q 595 700 614 708 L 646 716 L 654 716 L 630 707 L 607 695 L 597 688 Q 580 676 575 652 L 575 636 L 580 617 L 582 615 L 592 615 L 607 640 Q 620 656 646 661 L 666 661 L 688 655 Q 705 646 720 634 L 722 631 L 693 645 L 664 653 L 642 652 L 622 642 Q 608 631 600 614 L 603 610 Q 614 617 630 620 L 651 620 L 659 618 Q 672 613 682 605 Q 694 594 703 580 Q 711 564 716 546 Q 715 541 718 542 L 726 567 L 729 584 L 729 592 L 730 593 L 730 609 L 727 626 L 728 628 L 735 612 L 747 601 L 755 597 L 764 595 L 773 597 L 776 599 L 785 610 Q 791 619 793 632 L 800 644 Q 807 652 821 655 L 837 655 Q 847 653 855 647 Q 867 637 871 620 L 871 618 L 867 624 L 849 641 L 835 647 L 823 647 L 811 642 L 803 634 L 796 613 L 788 600 Q 781 589 767 587 Q 755 587 748 591 L 733 601 Q 735 596 734 587 L 735 586 L 734 562 L 731 545 Q 727 528 719 515 L 721 502 L 726 491 L 730 486 Q 735 479 745 477 Q 756 477 763 482 L 786 502 L 799 507 L 815 506 L 829 499 Q 841 490 845 474 L 845 459 L 843 449 L 839 468 L 829 488 Q 822 496 809 499 L 801 499 L 794 497 L 769 476 L 752 469 L 743 469 L 731 474 Q 719 482 714 497 L 714 504 L 712 504 L 699 486 Q 674 456 635 442 L 630 436 L 627 425 L 627 413 L 632 401 L 636 397 L 649 392 L 664 392 L 675 395 L 687 395 L 702 389 Q 714 380 718 362 Q 720 348 716 341 Q 711 328 701 320 Z M 459 354 L 454 356 L 450 362 L 451 369 L 456 372 L 465 371 L 468 367 L 467 359 Q 465 354 459 354 Z M 686 357 L 681 359 L 677 365 L 678 371 L 684 375 L 692 374 Q 697 372 695 363 Q 693 357 686 357 Z M 649 407 L 647 408 L 643 413 L 644 421 L 649 424 L 658 423 L 661 418 L 660 412 Q 658 405 649 407 Z M 483 409 L 478 411 L 474 417 Q 473 422 476 425 L 480 427 L 489 426 L 492 422 L 491 414 Q 489 409 483 409 Z M 804 471 L 801 472 L 796 479 Q 796 487 802 489 L 811 488 L 814 484 L 813 476 Q 811 471 804 471 Z M 749 492 L 744 494 L 740 499 Q 739 505 742 508 L 749 511 L 754 510 L 758 505 L 757 497 Q 754 493 749 492 Z M 329 535 L 327 536 L 323 542 L 324 549 L 330 553 L 337 552 L 341 546 Q 342 539 339 537 L 336 535 L 329 535 Z M 389 555 L 385 556 L 379 564 L 381 571 L 387 574 L 393 573 L 397 568 L 396 560 L 389 555 Z M 762 611 L 760 612 L 755 618 Q 754 624 757 627 Q 760 630 768 629 L 773 622 L 771 615 Q 769 610 762 611 Z M 820 619 L 815 624 L 814 628 L 816 634 L 822 637 Q 828 638 830 635 L 832 632 L 831 623 Q 829 617 820 619 Z M 413 677 L 408 682 L 409 691 L 413 694 L 417 695 L 423 693 L 426 687 L 425 682 Q 423 675 413 677 Z M 363 710 L 358 715 L 357 719 L 358 723 L 366 728 L 373 726 L 376 720 L 374 714 Q 372 708 363 710 Z M 683 737 L 681 738 L 676 744 L 676 750 L 678 753 L 683 755 L 690 754 L 694 749 L 693 742 Q 691 736 683 737 Z M 543 763 L 541 764 L 537 769 L 538 777 L 543 780 L 552 779 L 555 775 Q 556 768 553 766 Q 550 762 543 763 Z M 705 793 L 702 794 L 697 800 L 698 808 L 703 811 L 711 810 L 715 805 L 714 798 Q 712 793 705 793 Z M 521 819 L 519 820 L 515 825 L 516 833 L 521 836 L 530 835 L 533 831 L 532 823 Q 530 817 521 819 Z " /><path fill="rgb(0,0,0)" stroke="rgb(0,0,0)" stroke-width="1" opacity="0" d="M 576.5 445 Q 624.4 444.6 652 464.5 L 657 475.5 L 665 503.5 Q 663.8 508.3 666 509.5 L 666 528.5 Q 660.8 554.3 642.5 567 Q 628.3 578.3 608.5 584 L 601.5 576 Q 599.3 576.8 600 574.5 Q 610.7 554.7 611 524.5 L 610 523.5 L 609 511.5 L 606 502.5 Q 600.2 489.3 590.5 480 Q 579.5 469.5 564.5 463 L 547.5 458 L 531 455.5 L 549.5 449 L 565.5 446 L 575.5 446 L 576.5 445 Z " /><path fill="rgb(0,0,0)" stroke="rgb(0,0,0)" stroke-width="1" opacity="0" d="M 526.5 457 Q 565.2 466.3 589 490.5 Q 597.3 499.7 601 513.5 L 602 518.5 L 602 540.5 L 599 554.5 L 595 566.5 L 591.5 572 L 583.5 572 L 582 570.5 Q 573.6 551.9 559.5 539 Q 548.1 527.9 530.5 523 L 525.5 522 L 504.5 522 L 494.5 524 L 476.5 531 Q 459.6 540.6 447 554.5 L 448.5 555 L 460.5 547 L 487.5 535 L 506.5 530 L 523.5 530 L 541.5 536 Q 553.4 543.1 562 553.5 L 574 571.5 L 575 575.5 L 570.5 580 L 569.5 579 Q 554.9 570.6 536.5 566 Q 531.8 567.3 530.5 565 L 508.5 565 Q 481.4 571.4 467 590.5 Q 452.8 607.3 447.5 633 L 446 631.5 L 443 619.5 L 442 607.5 L 441 606.5 L 441 575.5 L 444 558.5 L 447 555.5 L 445 555 Q 457.6 506.9 491.5 479 Q 506.6 465.6 526.5 457 Z " /><path fill="rgb(0,0,0)" stroke="rgb(0,0,0)" stroke-width="1" opacity="0" d="M 657.5 467 Q 673.2 475.8 685 488.5 Q 697.1 500.9 706 516.5 L 714 532.5 L 716 540.5 Q 700.3 575.3 674.5 600 Q 665.9 607.4 653.5 611 L 648.5 612 L 631.5 612 L 616.5 608 L 608 603.5 Q 611 600.5 610 593.5 L 611.5 592 Q 641.8 582.8 660 561.5 Q 668.8 550.8 673 535.5 L 674 530.5 L 674 507.5 L 669 488.5 L 657.5 467 Z " /></svg>