<svg width="1181" height="1181" version="1.1" xmlns="http://www.w3.org/2000/svg" desc="Created with imagetracer.js version 1.2.6" ><path fill="rgb(0,0,0)" stroke="rgb(0,0,0)" stroke-width="1" opacity="0.8823529411764706" d="M 599.5 322 L 606 323 L 685 458.5 L 733.5 550 L 767.5 532 L 793.5 521 L 823.5 513 L 848.5 511 L 849.5 512 L 862.5 513 L 874.5 517 Q 889.5 523.5 900 534.5 Q 913 547.5 919 567.5 L 921 576.5 L 921 598.5 Q 915.4 625.4 896.5 639 Q 881.4 652.4 851.5 651 Q 831.2 646.8 820 633.5 Q 813.5 626 810 615.5 L 808 605.5 L 808 595.5 Q 811.6 575.6 825.5 566 Q 832.4 560.9 842.5 559 L 856.5 559 Q 867.8 561.8 874 569.5 L 881 582.5 L 882 594.5 Q 879.8 607.3 870.5 613 L 862.5 616 L 862.5 615 Q 869.7 613.2 873 607.5 Q 878.8 601.8 877 588.5 Q 874.9 579.1 868.5 574 Q 860.9 566.1 844.5 567 Q 831.3 569.8 824 578.5 L 817 591.5 L 816 603.5 L 818 613.5 L 821 620.5 L 832.5 634 L 848.5 642 L 865.5 643 Q 889 639 901 623.5 Q 907.5 616 911 605.5 L 913 597.5 L 913 578.5 Q 907.5 550 888.5 535 Q 878.5 526.5 864.5 522 L 855.5 520 L 831.5 520 L 830.5 521 L 819.5 522 L 795.5 529 L 780.5 535 L 738 557 L 738 559.5 L 749 579.5 L 747 578.5 L 736 560 L 733.5 560 L 678.5 593 L 650.5 607 L 626.5 615 L 604.5 617 Q 591.6 614.4 585 605.5 Q 578 598 580 581.5 Q 582.6 572.6 588.5 567 L 598.5 561 L 604 559.5 L 596.5 558 L 595.5 559 L 584.5 560 L 557.5 571 L 479 620.5 L 480 624.5 L 598 837 L 601 835.5 L 671 717.5 L 750.5 597 L 750 598.5 L 684 720.5 L 607 849.5 L 601.5 856 Q 596.1 856.6 594 855 L 467.5 627 L 432.5 645 L 405.5 655 L 383.5 660 L 356.5 661 Q 322.3 655.3 305 632.5 Q 295.7 621.3 291 605.5 L 289 596.5 L 288 580.5 L 291 564.5 L 297 551.5 L 311.5 535 Q 319.9 527.9 331.5 524 L 339.5 522 L 353.5 521 L 364.5 523 L 378.5 529 L 391 540.5 L 400 557.5 L 402 575.5 L 400 585.5 L 395 595.5 L 387.5 604 L 373.5 612 L 357.5 614 Q 356.3 611.8 351.5 613 L 342.5 609 L 334 600.5 Q 327.2 592.8 328 577.5 Q 330.2 565.7 338.5 560 L 349.5 556 L 349.5 557 Q 341.2 558.7 337 564.5 Q 331 570.5 333 584.5 Q 335.8 594.8 343.5 600 L 350.5 604 L 361.5 606 L 371.5 604 L 377.5 601 L 387 592.5 L 393 580.5 L 394 570.5 L 392 559.5 L 388 550.5 L 375.5 537 L 359.5 530 L 341.5 530 L 324.5 536 L 312 545 L 303 557.5 L 298 569.5 L 297 574.5 L 297 594.5 Q 299.4 609.1 306 619.5 L 317 634 L 327.5 642 L 338.5 648 L 351.5 652 L 372.5 653 L 373.5 652 L 381.5 652 L 392.5 650 L 415.5 643 Q 441.4 633.4 463 619.5 L 447 590.5 L 447 586.5 L 597.5 323 L 599.5 322 Z M 602 341 L 460 589 L 475 613 L 540 575 L 566 563 L 586 557 L 604 557 L 618 561 L 627 566 L 634 576 L 637 588 L 635 599 L 626 612 L 639 608 L 661 597 L 730 553 L 674 465 L 602 341 Z " /><path fill="rgb(0,0,0)" stroke="rgb(0,0,0)" stroke-width="1" opacity="0.8823529411764706" d="M 749.5 581 L 752 584.5 L 750 583.5 L 749.5 581 Z " /><path fill="rgb(0,0,0)" stroke="rgb(0,0,0)" stroke-width="1" opacity="0" d="M 0 0 L 1181 0 L 1181 1181 L 0 1181 L 0 0 Z M 600 322 L 598 323 L 447 587 L 447 591 L 463 620 Q 441 633 416 643 L 393 650 L 382 652 L 374 652 L 373 653 L 352 652 L 339 648 L 328 642 L 317 634 L 306 620 Q 299 609 297 595 L 297 575 L 298 570 L 303 558 L 312 545 L 325 536 L 342 530 L 360 530 L 376 537 L 388 551 L 392 560 L 394 571 L 393 581 L 387 593 L 378 601 L 372 604 L 362 606 L 351 604 L 344 600 Q 336 595 333 585 Q 331 571 337 565 L 347 558 L 347 557 L 339 560 Q 330 566 328 578 Q 327 593 334 601 L 343 609 L 352 613 Q 356 612 358 614 L 374 612 L 388 604 L 395 596 L 400 586 L 402 576 L 400 558 L 391 541 L 379 529 L 365 523 L 354 521 L 340 522 L 332 524 Q 320 528 312 535 L 297 552 L 291 565 L 288 581 L 289 597 L 291 606 Q 296 621 305 633 Q 322 655 357 661 L 384 660 L 406 655 L 433 645 L 468 627 L 594 855 Q 596 857 602 856 L 607 850 L 684 721 L 747 605 L 747 603 L 671 718 L 601 836 L 598 837 L 480 625 L 479 621 L 558 571 L 585 560 L 596 559 L 597 558 L 604 560 L 599 561 L 589 567 Q 583 573 580 582 Q 578 598 585 606 Q 592 614 605 617 L 627 615 L 651 607 L 679 593 L 734 560 L 736 560 L 745 576 L 747 577 L 738 560 L 738 557 L 781 535 L 796 529 L 820 522 L 831 521 L 832 520 L 856 520 L 865 522 Q 878 527 889 535 Q 907 550 913 579 L 913 598 L 911 606 Q 907 616 901 624 Q 889 639 866 643 L 849 642 L 833 634 L 821 621 L 818 614 L 816 604 L 817 592 L 824 579 Q 831 570 845 567 Q 861 566 869 574 Q 875 579 877 589 Q 879 602 873 608 Q 871 613 865 614 L 865 615 L 871 613 Q 880 607 882 595 L 881 583 L 874 570 Q 868 562 857 559 L 843 559 Q 832 561 826 566 Q 812 576 808 596 L 808 606 L 810 616 Q 814 626 820 634 Q 831 647 852 651 Q 881 652 897 639 Q 915 625 921 599 L 921 577 L 919 568 Q 913 548 900 535 Q 890 523 875 517 L 863 513 L 850 512 L 849 511 L 824 513 L 794 521 L 768 532 L 734 550 L 685 459 L 606 323 L 600 322 Z M 348 556 L 348 557 L 350 557 L 348 556 Z " /><path fill="rgb(0,0,0)" stroke="rgb(0,0,0)" stroke-width="1" opacity="0" d="M 601.5 341 L 674 464.5 L 730 552.5 L 660.5 597 L 638.5 608 L 626 612 L 635 598.5 L 637 587.5 L 634 575.5 L 626.5 566 L 617.5 561 L 603.5 557 L 585.5 557 L 565.5 563 L 539.5 575 L 474.5 613 L 460 588.5 L 601.5 341 Z " /></svg>