<svg width="1181" height="1181" version="1.1" xmlns="http://www.w3.org/2000/svg" desc="Created with imagetracer.js version 1.2.6" ><path fill="rgb(0,0,0)" stroke="rgb(0,0,0)" stroke-width="1" opacity="0.8980392156862745" d="M 512.5 381 L 544.5 381 L 545.5 382 L 553.5 382 L 570.5 385 L 597.5 393 Q 643.8 411.2 674 445.5 Q 696.3 469.7 710 502.5 L 718 529.5 L 721 556 Q 739.8 544.5 763.5 537 L 772.5 535 L 789.5 535 Q 798.4 536.6 804 541.5 L 802.5 541 Q 794.8 536.7 782.5 537 L 771.5 539 L 760.5 543 Q 739.5 552.6 722 565 L 721 592.5 L 716.5 618 L 716 612.5 L 717 611.5 L 717 600.5 L 718 599.5 L 718 582.5 L 717 581.5 L 717 570 L 651.5 615 Q 627.5 630.5 600.5 643 Q 581.3 651.8 558.5 657 L 553.5 657 L 546.5 659 L 520.5 659 Q 486.2 652.3 468 629.5 Q 458.6 618.4 453 603.5 L 449 587.5 L 448 571.5 L 449 570.5 L 450 558.5 L 455 544.5 Q 461.3 531.8 471.5 523 Q 481.5 514 495.5 509 L 508.5 506 L 525.5 506 Q 550.6 510.9 563 528.5 L 572 546.5 L 574 557.5 L 574 566.5 L 569 583.5 L 558.5 597 Q 551 603.5 540.5 607 Q 531.8 609.8 518.5 608 Q 505.7 604.3 499 594.5 Q 490.9 585.6 492 567.5 Q 494.4 554.9 503.5 549 Q 508 545.5 515.5 545 L 515.5 546 Q 505.9 547.9 502 555.5 Q 498.4 560.9 498 569.5 L 501 580.5 L 510.5 591 L 522.5 596 L 534.5 596 Q 548 592.5 555 582.5 L 560 573.5 L 562 560.5 L 560 549.5 L 555 538.5 L 545.5 528 L 531.5 520 L 522.5 518 L 511.5 518 L 501.5 520 L 491.5 524 Q 479.7 530.2 472 540.5 Q 463.8 550.3 461 565.5 L 461 585.5 Q 466.3 611.7 482.5 627 Q 494.5 639.5 513.5 645 L 522.5 647 L 543.5 647 L 560.5 644 L 577.5 639 L 613.5 623 L 647.5 603 L 676.5 583 L 715 559.5 Q 700.1 486.9 655.5 444 Q 630.2 419.3 594.5 405 L 576.5 399 L 551.5 394 L 515.5 393 L 514.5 394 L 505.5 394 L 480.5 399 Q 457.9 405.4 439.5 416 Q 411.5 432 391 455.5 Q 369.8 479.3 357 511.5 L 351 529.5 L 347 547.5 L 346 560.5 L 345 561.5 L 344 585.5 L 345 586.5 L 346 608.5 L 349 624.5 L 360 657.5 Q 378.2 697.8 409.5 725 Q 436.1 748.4 473.5 761 L 503.5 768 L 511.5 768 L 512.5 769 L 545.5 769 L 546.5 768 L 554.5 768 L 570.5 765 L 584.5 761 L 616.5 748 Q 647.8 732.3 671 708.5 Q 683.8 695.3 693.5 679 L 693 680.5 Q 675.1 715.6 646.5 740 Q 625.3 758.8 596.5 770 L 577.5 776 L 557.5 780 L 523.5 782 L 522.5 781 L 501.5 780 L 485.5 777 L 447.5 764 Q 412.9 747.6 388 721.5 Q 359.6 692.4 344 650.5 L 339 634.5 L 334 610.5 L 333 592.5 L 332 591.5 L 332 570.5 L 333 569.5 L 333 558.5 L 334 557.5 L 336 539.5 L 340 523.5 L 350 496.5 Q 366.3 461.3 392.5 436 Q 415.2 413.7 445.5 399 L 474.5 388 L 496.5 383 L 511.5 382 L 512.5 381 Z " /><path fill="rgb(0,0,0)" stroke="rgb(0,0,0)" stroke-width="1" opacity="0.8980392156862745" d="M 826.5 569 Q 837.8 569.2 842 576.5 Q 845.3 580.2 844 588.5 L 838.5 597 L 832.5 600 L 824.5 600 Q 817.3 598.2 814 592.5 L 812 583.5 Q 813.3 576.8 817.5 573 L 826.5 569 Z " /><path fill="rgb(0,0,0)" stroke="rgb(0,0,0)" stroke-width="1" opacity="0.8980392156862745" d="M 715.5 619 L 716 621.5 L 715 621.5 L 715.5 619 Z " /><path fill="rgb(0,0,0)" stroke="rgb(0,0,0)" stroke-width="1" opacity="0" d="M 0 0 L 1181 0 L 1181 1181 L 0 1181 L 0 0 Z M 513 381 L 512 382 L 497 383 L 475 388 L 446 399 Q 415 414 393 436 Q 366 461 350 497 L 340 524 L 336 540 L 334 558 L 333 559 L 333 570 L 332 571 L 332 592 L 333 593 L 334 611 L 339 635 L 344 651 Q 360 692 388 722 Q 413 748 448 764 L 486 777 L 502 780 L 523 781 L 524 782 L 558 780 L 578 776 L 597 770 Q 625 759 647 740 Q 673 718 690 687 L 690 685 L 671 709 Q 648 732 617 748 L 585 761 L 571 765 L 555 768 L 547 768 L 546 769 L 513 769 L 512 768 L 504 768 L 474 761 Q 436 748 410 725 Q 378 698 360 658 L 349 625 L 346 609 L 345 587 L 344 586 L 345 562 L 346 561 L 347 548 L 351 530 L 357 512 Q 370 479 391 456 Q 412 432 440 416 Q 458 405 481 399 L 506 394 L 515 394 L 516 393 L 552 394 L 577 399 L 595 405 Q 630 419 656 444 Q 700 487 715 560 L 677 583 L 648 603 L 614 623 L 578 639 L 561 644 L 544 647 L 523 647 L 514 645 Q 495 639 483 627 Q 466 612 461 586 L 461 566 Q 464 550 472 541 Q 480 530 492 524 L 502 520 L 512 518 L 523 518 L 532 520 L 546 528 L 555 539 L 560 550 L 562 561 L 560 574 L 555 583 Q 548 592 535 596 L 523 596 L 511 591 L 501 581 L 498 570 Q 498 561 502 556 Q 506 548 516 546 L 516 545 Q 508 545 504 549 Q 494 555 492 568 Q 491 586 499 595 Q 506 604 519 608 Q 532 610 541 607 Q 551 603 559 597 L 569 584 L 574 567 L 574 558 L 572 547 L 563 529 Q 551 511 526 506 L 509 506 L 496 509 Q 482 514 472 523 Q 461 532 455 545 L 450 559 L 449 571 L 448 572 L 449 588 L 453 604 Q 459 618 468 630 Q 486 652 521 659 L 547 659 L 554 657 L 559 657 Q 581 652 601 643 Q 628 631 652 615 L 717 570 L 717 582 L 718 583 L 718 600 L 717 601 L 717 612 L 716 613 L 717 618 L 721 593 L 722 565 Q 739 553 761 543 L 772 539 L 783 537 Q 791 536 796 539 L 799 539 L 790 535 L 773 535 L 764 537 Q 740 545 721 556 L 718 530 L 710 503 Q 696 470 674 446 Q 644 411 598 393 L 571 385 L 554 382 L 546 382 L 545 381 L 513 381 Z M 827 569 L 818 573 Q 813 577 812 584 L 814 593 Q 817 598 825 600 L 833 600 L 839 597 L 844 589 Q 845 580 842 577 Q 838 569 827 569 Z M 716 619 L 715 622 L 716 622 L 716 619 Z M 692 682 L 690 685 L 692 684 L 692 682 Z " /></svg>