<svg width="1181" height="1181" version="1.1" xmlns="http://www.w3.org/2000/svg" desc="Created with imagetracer.js version 1.2.6" ><path fill="rgb(0,0,0)" stroke="rgb(0,0,0)" stroke-width="1" opacity="0.9098039215686274" d="M 572.5 341 L 605.5 342 L 631.5 349 Q 660.7 359.8 679 381.5 Q 693.2 398.8 700 423.5 L 703 440.5 L 703 448.5 L 704 449.5 L 704 469.5 L 703 470.5 L 703 482.5 L 702 483.5 L 700 502.5 L 686 561.5 L 685 577.5 L 684 578.5 L 684 596.5 L 685 597.5 L 686 611.5 L 692 630.5 Q 700.1 648.4 714.5 660 Q 730.7 673.3 753.5 680 L 789.5 689 L 801.5 690 L 802.5 691 L 827 692.5 L 814.5 695 L 805.5 695 L 804.5 696 L 775.5 696 L 774.5 695 L 758.5 694 L 731.5 685 Q 711.3 675.7 697 660.5 Q 683 645 676 622.5 L 672 600.5 L 672 574.5 L 673 573.5 L 673 565.5 L 674 564.5 L 676 547.5 L 688 499.5 L 690 479.5 L 691 478.5 L 691 461.5 L 692 458.5 L 691 457.5 L 690 436.5 L 685 416.5 Q 677.4 396.6 663.5 383 Q 645.1 364.9 616.5 357 L 583.5 349 L 577.5 349 L 569.5 347 L 559.5 347 L 558.5 346 L 542 345.5 L 552.5 343 L 571.5 342 L 572.5 341 Z " /><path fill="rgb(0,0,0)" stroke="rgb(0,0,0)" stroke-width="1" opacity="0.9098039215686274" d="M 535.5 348 Q 557 373.5 570 407.5 L 576 438.5 L 576 460.5 L 572 480.5 L 566 495.5 Q 556.7 512.7 542.5 525 Q 526.8 538.3 506.5 547 L 484.5 555 L 441.5 567 L 406.5 583 Q 387.6 593.6 374 609.5 Q 361.7 622.7 356 642.5 L 353 659.5 L 353 676.5 L 358 702.5 L 368 733.5 L 387 771.5 L 382 767.5 Q 361.8 744.7 349 714.5 L 343 693.5 L 342 681.5 L 341 680.5 L 341 655.5 L 344 639.5 L 352 619.5 Q 360.8 603.8 373.5 592 Q 392.9 574.4 418.5 563 L 450.5 551 L 490.5 540 L 511.5 531 Q 532 520.5 546 503.5 Q 556 491.5 561 474.5 L 563 464.5 L 563 456.5 L 564 455.5 L 564 443.5 L 563 442.5 L 562 427.5 L 554 393.5 Q 546.1 368.3 535.5 348 Z " /><path fill="rgb(0,0,0)" stroke="rgb(0,0,0)" stroke-width="1" opacity="0.9098039215686274" d="M 624.5 416 Q 637.4 415.6 642 423.5 Q 646.5 428 645 438.5 L 638.5 449 Q 633.7 453.7 622.5 452 L 613 445.5 Q 608.2 440.3 610 428.5 L 618.5 418 L 624.5 416 Z " /><path fill="rgb(0,0,0)" stroke="rgb(0,0,0)" stroke-width="1" opacity="0.9098039215686274" d="M 490.5 434 L 500.5 434 L 510 441.5 Q 514.1 446 513 455.5 Q 511.2 463.2 505.5 467 Q 501.1 471 491.5 470 L 481 463.5 Q 477 458.5 477 449.5 Q 478.8 440.3 485.5 436 L 490.5 434 Z " /><path fill="rgb(0,0,0)" stroke="rgb(0,0,0)" stroke-width="1" opacity="0.9098039215686274" d="M 576.5 551 Q 589.6 549.4 597.5 553 Q 607.2 557.3 613 565.5 Q 619.2 573.3 619 587.5 L 616 598.5 L 609 609 Q 602.4 614.9 591.5 618 L 576.5 618 Q 562.1 614.9 555 604.5 L 549 591.5 L 549 577.5 Q 552.3 564.8 561.5 558 L 576.5 551 Z " /><path fill="rgb(0,0,0)" stroke="rgb(0,0,0)" stroke-width="1" opacity="0.9098039215686274" d="M 750.5 590 Q 762.3 590.7 767 598.5 Q 770.2 602.8 770 610.5 Q 768.3 619.8 761.5 624 L 754.5 627 L 749.5 627 Q 741.9 625.5 738 620.5 Q 732.7 615.8 734 604.5 L 740.5 594 L 750.5 590 Z " /><path fill="rgb(0,0,0)" stroke="rgb(0,0,0)" stroke-width="1" opacity="0.9098039215686274" d="M 411.5 627 Q 426.5 625.5 431 634.5 Q 435.3 638.7 434 648.5 Q 432.2 656.1 426.5 660 L 420.5 663 L 412.5 663 L 402 656.5 Q 398.2 651.8 398 643.5 L 400 636.5 L 405.5 630 L 411.5 627 Z " /><path fill="rgb(0,0,0)" stroke="rgb(0,0,0)" stroke-width="1" opacity="0.9098039215686274" d="M 508.5 674 L 534.5 674 L 549.5 677 L 568.5 684 Q 601 701 624 727.5 L 644.5 750 Q 660.1 765.4 679.5 777 L 702.5 787 L 724.5 790 L 725.5 789 L 734.5 789 L 742.5 787 L 756.5 781 Q 774.9 770.4 788 754.5 L 813 722.5 L 830.5 692 L 831 694.5 Q 823 722 810 744.5 Q 800 762 785.5 775 Q 771.4 788.9 751.5 797 L 729.5 802 L 715.5 802 L 714.5 801 L 703.5 800 L 690.5 796 L 665.5 783 Q 640 765.5 620 742.5 L 594.5 716 Q 577.9 701.1 555.5 692 L 531.5 686 L 512.5 686 L 490.5 691 L 462.5 705 Q 432.4 726.9 407 753.5 L 390.5 773 L 391 771.5 Q 408.2 735.7 435.5 710 Q 454.6 693.1 479.5 682 L 490.5 678 L 508.5 674 Z " /><path fill="rgb(0,0,0)" stroke="rgb(0,0,0)" stroke-width="1" opacity="0.9098039215686274" d="M 724.5 718 L 734.5 718 L 744 724.5 Q 747.8 729.2 748 737.5 Q 746.3 745.3 741.5 750 Q 737.2 755.2 726.5 754 Q 718.9 752.1 715 746.5 Q 710.8 741.7 712 731.5 Q 714.1 723.6 720.5 720 L 724.5 718 Z " /><path fill="rgb(0,0,0)" stroke="rgb(0,0,0)" stroke-width="1" opacity="0.9098039215686274" d="M 507.5 721 Q 521.4 720.6 526 729.5 L 529 739.5 L 526 749.5 L 520.5 755 L 516.5 757 L 509.5 758 L 502.5 756 L 497 751.5 Q 491.7 746.8 493 735.5 Q 494.9 727.9 500.5 724 L 507.5 721 Z " /><path fill="rgb(0,0,0)" stroke="rgb(0,0,0)" stroke-width="1" opacity="0" d="M 0 0 L 1181 0 L 1181 1181 L 0 1181 L 0 0 Z M 573 341 L 572 342 L 553 343 L 542 346 L 559 346 L 560 347 L 570 347 L 578 349 L 584 349 L 617 357 Q 645 365 664 383 Q 677 397 685 417 L 690 437 L 691 458 L 692 459 L 691 462 L 691 479 L 690 480 L 688 500 L 676 548 L 674 565 L 673 566 L 673 574 L 672 575 L 672 601 L 676 623 Q 683 645 697 661 Q 711 676 732 685 L 759 694 L 775 695 L 776 696 L 805 696 L 806 695 L 815 695 L 827 693 L 803 691 L 802 690 L 790 689 L 754 680 Q 731 673 715 660 Q 700 648 692 631 L 686 612 L 685 598 L 684 597 L 684 579 L 685 578 L 686 562 L 700 503 L 702 484 L 703 483 L 703 471 L 704 470 L 704 450 L 703 449 L 703 441 L 700 424 Q 693 399 679 382 Q 661 360 632 349 L 606 342 L 573 341 Z M 538 351 L 537 353 Q 547 371 554 394 L 562 428 L 563 443 L 564 444 L 564 456 L 563 457 L 563 465 L 561 475 Q 556 492 546 504 Q 532 521 512 531 L 491 540 L 451 551 L 419 563 Q 393 574 374 592 Q 361 604 352 620 L 344 640 L 341 656 L 341 681 L 342 682 L 343 694 L 349 715 Q 362 745 382 768 L 386 771 L 368 734 L 358 703 L 353 677 L 353 660 L 356 643 Q 362 623 374 610 Q 388 594 407 583 L 442 567 L 485 555 L 507 547 Q 527 538 543 525 Q 557 513 566 496 L 572 481 L 576 461 L 576 439 L 570 408 Q 558 375 538 351 Z M 625 416 L 619 418 L 610 429 Q 608 440 613 446 L 623 452 Q 634 454 639 449 L 645 439 Q 647 428 642 424 Q 637 416 625 416 Z M 491 434 L 486 436 Q 479 440 477 450 Q 477 459 481 464 L 492 470 Q 501 471 506 467 Q 511 463 513 456 Q 514 446 510 442 L 501 434 L 491 434 Z M 577 551 L 562 558 Q 552 565 549 578 L 549 592 L 555 605 Q 562 615 577 618 L 592 618 Q 602 615 609 609 L 616 599 L 619 588 Q 619 573 613 566 Q 607 557 598 553 Q 590 549 577 551 Z M 751 590 L 741 594 L 734 605 Q 733 616 738 621 Q 742 626 750 627 L 755 627 L 762 624 Q 768 620 770 611 Q 770 603 767 599 Q 762 591 751 590 Z M 412 627 L 406 630 L 400 637 L 398 644 Q 398 652 402 657 L 413 663 L 421 663 L 427 660 Q 432 656 434 649 Q 435 639 431 635 Q 426 626 412 627 Z M 509 674 L 491 678 L 480 682 Q 455 693 436 710 Q 409 736 391 771 L 392 772 L 407 754 Q 432 727 463 705 L 491 691 L 513 686 L 532 686 L 556 692 Q 578 701 595 716 L 620 743 Q 640 766 666 783 L 691 796 L 704 800 L 715 801 L 716 802 L 730 802 L 752 797 Q 771 789 786 775 Q 800 762 810 745 Q 823 722 831 695 L 831 692 L 813 723 L 788 755 Q 775 770 757 781 L 743 787 L 735 789 L 726 789 L 725 790 L 703 787 L 680 777 Q 660 765 645 750 L 624 728 Q 601 701 569 684 L 550 677 L 535 674 L 509 674 Z M 725 718 L 721 720 Q 714 724 712 732 Q 711 742 715 747 Q 719 752 727 754 Q 737 755 742 750 Q 746 745 748 738 Q 748 729 744 725 L 735 718 L 725 718 Z M 508 721 L 501 724 Q 495 728 493 736 Q 492 747 497 752 L 503 756 L 510 758 L 517 757 L 521 755 L 526 750 L 529 740 L 526 730 Q 521 721 508 721 Z " /></svg>