<svg width="1181" height="1181" version="1.1" xmlns="http://www.w3.org/2000/svg" desc="Created with imagetracer.js version 1.2.6" ><path fill="rgb(0,0,0)" stroke="rgb(0,0,0)" stroke-width="1" opacity="0" d="M 0 0 L 1181 0 L 1181 1181 L 0 1181 L 0 0 Z M 534 285 Q 522 288 515 295 Q 504 304 501 320 L 501 334 L 504 344 Q 510 357 519 368 Q 542 394 572 413 L 585 427 Q 589 432 590 441 L 591 436 L 588 424 L 581 413 L 558 388 L 548 379 L 523 353 Q 516 344 513 331 L 513 322 L 518 310 Q 524 300 537 297 L 546 297 L 556 302 L 563 314 Q 564 322 561 327 L 552 334 Q 545 335 542 333 L 536 327 Q 535 319 537 316 L 544 311 L 552 313 L 553 314 L 552 311 L 546 306 L 537 306 L 530 310 L 523 321 Q 523 332 528 338 Q 534 345 546 347 Q 559 347 566 340 Q 572 334 575 325 L 575 312 L 569 299 Q 562 290 552 286 Q 544 284 534 285 Z M 434 327 L 426 329 L 415 335 L 406 345 L 402 354 Q 403 358 401 360 L 402 372 L 408 384 Q 414 391 425 394 Q 440 396 447 390 Q 454 385 457 376 L 457 363 L 452 354 L 448 350 L 441 348 Q 433 348 429 351 L 422 360 Q 421 366 424 369 L 425 363 L 433 357 L 439 358 L 445 366 Q 446 372 444 376 Q 441 380 435 382 Q 424 383 420 378 L 415 372 L 413 364 L 415 354 L 419 348 L 429 341 L 437 339 Q 450 339 458 345 Q 465 350 468 360 L 471 370 L 472 384 L 473 385 L 473 405 L 472 406 L 472 418 L 471 419 L 471 452 L 472 453 L 472 461 L 475 473 L 479 480 L 485 484 L 486 484 L 481 479 L 478 469 L 479 448 L 483 429 L 484 409 L 485 408 L 485 382 L 484 381 L 484 373 L 480 357 L 473 344 Q 462 326 434 327 Z M 815 406 Q 804 408 798 414 L 790 426 L 788 435 L 789 443 L 793 452 Q 798 460 811 462 L 817 462 L 826 459 Q 832 455 834 447 Q 835 437 831 433 L 824 427 L 817 427 L 816 429 L 820 429 L 823 431 L 825 435 L 824 444 Q 821 448 815 450 L 807 448 L 801 441 Q 799 431 803 427 L 809 421 L 818 418 Q 827 418 833 422 Q 841 427 843 440 L 843 449 L 838 461 Q 833 468 824 472 L 803 476 L 779 475 L 764 472 L 743 471 L 742 470 L 717 470 Q 715 472 711 471 L 701 475 L 696 480 L 697 481 L 706 476 L 723 476 L 761 485 L 775 486 L 776 487 L 786 487 L 787 488 L 806 488 L 807 487 L 819 486 Q 832 483 841 476 Q 852 467 855 451 L 854 433 L 846 418 Q 837 405 815 406 Z M 538 449 L 557 506 L 569 537 L 567 537 L 529 454 L 527 452 L 453 528 L 535 567 L 535 569 L 493 552 L 448 536 L 446 538 L 446 597 L 445 598 L 446 642 L 539 612 L 571 599 L 573 600 L 534 615 L 451 653 Q 448 652 449 655 L 524 728 L 525 728 Q 555 672 582 612 L 582 609 L 557 650 L 523 714 L 516 709 L 470 664 L 463 657 L 539 620 L 575 600 L 577 600 L 583 609 L 583 608 L 584 608 L 551 692 L 536 736 L 642 736 L 611 644 L 597 611 L 599 610 L 612 644 L 653 729 Q 652 731 655 730 L 728 656 L 728 654 L 646 615 L 610 600 L 607 601 L 643 621 L 706 653 L 714 656 L 702 671 L 657 716 L 655 716 L 621 647 L 601 613 L 599 607 L 602 605 L 604 602 L 607 600 L 608 598 L 641 612 L 732 643 L 732 627 L 733 626 L 733 566 L 734 565 L 734 537 L 677 557 L 638 573 L 637 571 Q 684 550 728 526 L 653 452 L 651 452 L 619 523 L 619 525 L 617 525 L 644 451 L 644 449 L 538 449 Z M 850 497 L 840 499 L 831 503 L 813 516 L 788 544 L 764 580 L 754 590 Q 749 594 740 594 L 745 595 L 756 593 L 768 585 Q 790 565 807 540 L 830 518 L 843 511 L 853 509 L 863 511 L 872 516 Q 879 522 882 534 Q 882 544 878 550 Q 874 557 865 559 L 858 559 L 852 556 L 845 548 L 846 538 L 853 532 Q 861 530 865 534 L 868 540 Q 869 546 865 549 L 867 549 L 873 541 Q 874 532 870 528 L 865 522 L 856 519 Q 854 521 850 520 L 844 523 Q 836 528 833 538 Q 831 552 837 559 Q 843 568 856 571 L 871 570 L 883 563 Q 891 556 894 543 L 893 528 L 886 514 Q 875 498 850 497 Z M 430 583 L 416 590 L 390 612 L 382 621 Q 368 636 352 648 Q 343 654 332 657 L 320 657 L 309 652 Q 299 645 296 632 Q 296 622 300 617 Q 304 609 314 607 L 322 607 L 328 610 L 334 620 Q 335 627 332 630 Q 329 634 324 635 L 317 634 L 311 628 L 312 620 L 315 616 L 312 617 Q 307 620 305 627 L 305 632 L 308 639 Q 312 645 320 647 L 327 647 L 335 644 Q 343 639 346 629 Q 348 613 341 607 Q 335 598 324 595 L 312 595 L 300 600 Q 287 608 284 625 Q 283 642 291 652 Q 300 665 318 669 L 334 669 L 344 666 Q 360 659 372 648 Q 395 628 412 603 Q 421 588 440 584 L 430 583 Z M 441 584 L 441 585 L 443 585 L 441 584 Z M 367 688 L 347 693 L 339 698 L 327 712 L 324 719 L 322 730 L 323 741 L 330 756 L 340 764 L 355 769 L 367 768 L 380 761 L 387 750 L 389 742 Q 389 731 385 725 Q 379 715 367 713 Q 356 713 351 717 Q 346 720 344 727 Q 342 737 346 742 L 355 748 Q 362 750 361 746 L 357 745 L 352 740 L 353 732 Q 356 726 364 725 L 371 727 L 376 735 Q 378 744 374 749 Q 371 754 364 756 L 352 756 L 343 751 Q 337 746 335 739 L 335 725 L 341 713 Q 346 706 355 703 L 369 700 L 396 701 L 425 707 L 441 708 L 442 709 L 456 709 L 457 710 L 473 708 L 483 702 L 483 700 L 476 704 L 460 704 L 439 699 L 425 694 L 405 690 L 391 689 L 390 688 L 367 688 Z M 705 691 Q 708 695 710 704 L 709 725 L 703 752 L 702 771 L 701 772 L 701 799 L 702 800 L 703 811 Q 706 825 714 835 Q 723 844 738 848 L 755 848 Q 765 846 772 840 Q 782 832 784 817 Q 784 802 778 794 Q 772 785 761 782 Q 746 780 739 786 Q 731 791 728 801 Q 726 813 731 820 Q 734 825 742 827 Q 753 829 758 824 Q 762 821 763 816 Q 764 810 762 807 Q 761 815 756 818 Q 749 819 746 817 L 740 810 Q 739 803 742 800 L 750 794 Q 760 793 765 797 L 771 807 Q 770 811 772 813 L 771 820 L 768 826 Q 763 833 753 836 L 740 836 L 729 831 Q 721 826 717 816 L 713 797 L 713 775 L 714 774 L 715 756 L 716 755 L 716 714 L 714 704 L 710 696 L 705 691 Z M 586 741 L 584 745 L 586 755 L 592 764 L 618 786 L 655 812 L 670 829 L 677 844 Q 678 860 671 868 Q 665 875 655 878 L 646 878 L 634 872 L 628 861 L 628 856 L 631 849 L 639 842 Q 646 841 650 843 L 655 850 Q 657 861 650 864 Q 642 865 640 862 L 638 863 L 640 866 L 646 869 Q 655 871 659 867 Q 665 863 667 856 L 667 847 L 661 836 L 651 830 L 646 829 L 641 829 L 634 831 L 624 837 L 618 847 L 616 854 L 617 867 L 623 878 Q 630 887 644 890 L 658 890 L 673 883 Q 685 874 689 857 Q 691 845 688 838 Q 684 826 677 818 Q 663 801 645 789 L 633 781 L 608 768 L 594 758 L 586 748 L 586 741 Z " /><path fill="rgb(0,0,0)" stroke="rgb(0,0,0)" stroke-width="1" opacity="0" d="M 549.5 457 L 633 457.5 L 607 534.5 L 596 576 L 586.5 576 L 585 574.5 L 574 532.5 L 549.5 457 Z " /><path fill="rgb(0,0,0)" stroke="rgb(0,0,0)" stroke-width="1" opacity="0" d="M 524.5 466 Q 526.8 465.3 526 467.5 L 564 543.5 L 583 577.5 L 577 582.5 Q 577.8 584.8 575.5 584 L 534.5 560 L 467 526 L 467 524.5 L 524.5 466 Z " /><path fill="rgb(0,0,0)" stroke="rgb(0,0,0)" stroke-width="1" opacity="0" d="M 654.5 466 L 714 523.5 L 647.5 559 L 605.5 584 L 598 577.5 L 615 546.5 L 654.5 466 Z " /><path fill="rgb(0,0,0)" stroke="rgb(0,0,0)" stroke-width="1" opacity="0" d="M 454 547 L 492.5 561 L 540.5 577 L 573.5 586 L 575 587.5 L 574 594.5 L 575 597 L 528.5 608 L 453.5 631 L 453 599.5 L 454 598.5 L 454 547 Z " /><path fill="rgb(0,0,0)" stroke="rgb(0,0,0)" stroke-width="1" opacity="0" d="M 724.5 548 L 726 548.5 L 726 562.5 L 725 563.5 L 725 623.5 L 723.5 632 L 669.5 614 L 607 597 L 607 587.5 L 608 586.5 L 607 584 L 611.5 583 L 611.5 584 L 608 585.5 L 610.5 586 L 651.5 574 L 724.5 548 Z " /><path fill="rgb(0,0,0)" stroke="rgb(0,0,0)" stroke-width="1" opacity="0" d="M 634.5 572 L 635 574 L 614.5 583 L 614 581 L 634.5 572 Z " /><path fill="rgb(0,0,0)" stroke="rgb(0,0,0)" stroke-width="1" opacity="0" d="M 585 608 L 592.5 609 L 596 608 L 606 649.5 L 631 727.5 L 547 728 L 573 652.5 L 585 608 Z " /><path fill="rgb(0,0,0)" stroke="rgb(0,0,0)" stroke-width="1" opacity="0.9490196078431372" d="M 533.5 285 Q 544.4 283.6 551.5 286 Q 562.5 290 569 298.5 L 575 311.5 L 575 324.5 Q 572.1 334.1 565.5 340 Q 558.8 346.8 545.5 347 Q 534.2 344.8 528 337.5 Q 522.9 331.6 523 320.5 L 529.5 310 L 536.5 306 L 545.5 306 L 552 310.5 L 554 314.5 L 551.5 313 L 543.5 311 L 537 315.5 Q 534.5 319 536 326.5 L 541.5 333 Q 544.7 335.3 551.5 334 L 561 326.5 Q 564.1 322.1 563 313.5 L 555.5 302 L 545.5 297 L 536.5 297 Q 524.3 300.3 518 309.5 L 513 321.5 L 513 330.5 Q 515.8 343.7 523 352.5 L 547.5 379 L 558 387.5 L 581 412.5 L 588 423.5 L 591 435.5 L 589.5 441 Q 589.4 431.6 585 426.5 L 571.5 413 Q 541.6 393.9 519 367.5 Q 509.9 357.1 504 343.5 L 501 333.5 L 501 319.5 Q 504.3 303.8 514.5 295 Q 521.9 287.9 533.5 285 Z " /><path fill="rgb(0,0,0)" stroke="rgb(0,0,0)" stroke-width="1" opacity="0.9490196078431372" d="M 433.5 327 Q 462.1 326.4 473 343.5 L 480 356.5 L 484 372.5 L 484 380.5 L 485 381.5 L 485 407.5 L 484 408.5 L 483 428.5 L 479 447.5 L 478 468.5 L 481 478.5 L 486 483.5 L 484.5 484 L 479 479.5 L 475 472.5 L 472 460.5 L 472 452.5 L 471 451.5 L 471 418.5 L 472 417.5 L 472 405.5 L 473 404.5 L 473 384.5 L 472 383.5 L 471 369.5 L 468 359.5 Q 464.5 350.5 457.5 345 Q 450.4 338.6 436.5 339 L 428.5 341 L 419 347.5 L 415 353.5 L 413 363.5 L 415 371.5 L 419.5 378 Q 423.8 383.2 434.5 382 Q 441 380.5 444 375.5 Q 446.3 372.3 445 365.5 L 438.5 358 L 432.5 357 L 425 362.5 L 423.5 369 Q 421.1 365.9 422 359.5 L 428.5 351 Q 432.8 347.8 440.5 348 L 447.5 350 L 452 353.5 L 457 362.5 L 457 375.5 Q 454.3 385.3 446.5 390 Q 439.5 396 424.5 394 Q 413.7 391.3 408 383.5 L 402 371.5 L 401 359.5 Q 403.2 358.3 402 353.5 L 406 344.5 L 414.5 335 L 425.5 329 L 433.5 327 Z " /><path fill="rgb(0,0,0)" stroke="rgb(0,0,0)" stroke-width="1" opacity="0.9490196078431372" d="M 814.5 406 Q 836.6 405.4 846 417.5 L 854 432.5 L 855 450.5 Q 851.5 467 840.5 476 Q 831.7 483.2 818.5 486 L 806.5 487 L 805.5 488 L 786.5 488 L 785.5 487 L 775.5 487 L 774.5 486 L 760.5 485 L 722.5 476 L 705.5 476 Q 698.9 477.4 695.5 482 L 696 480.5 L 700.5 475 L 716.5 470 L 741.5 470 L 742.5 471 L 763.5 472 L 778.5 475 L 802.5 476 L 823.5 472 Q 832.9 468.4 838 460.5 L 843 448.5 L 843 439.5 Q 841 427.5 832.5 422 Q 827.2 417.8 817.5 418 L 808.5 421 L 803 426.5 Q 799.3 430.8 801 440.5 L 806.5 448 L 814.5 450 Q 821 448.5 824 443.5 L 825 434.5 L 823 431 L 819.5 429 L 816 429 L 816.5 427 L 823.5 427 L 831 432.5 Q 835 436.9 834 446.5 Q 832.4 455.4 825.5 459 L 816.5 462 L 810.5 462 Q 798.5 460 793 451.5 L 789 442.5 L 788 434.5 L 790 425.5 L 797.5 414 Q 804.1 408.1 814.5 406 Z " /><path fill="rgb(0,0,0)" stroke="rgb(0,0,0)" stroke-width="1" opacity="0.9490196078431372" d="M 538 449 L 643.5 449 L 644 450.5 L 619 521.5 L 620 521.5 L 651 452 L 652.5 452 L 728 525.5 Q 684.1 550.2 637 571 L 637.5 573 L 676.5 557 L 734 537 L 734 564.5 L 733 565.5 L 733 625.5 L 732 626.5 L 731.5 643 L 654.5 617 L 610.5 600 L 610.5 601 L 645.5 615 L 728 654 L 728 655.5 L 654.5 730 Q 652.3 730.8 653 728.5 L 612 643.5 L 599 610 L 597 610.5 L 611 643.5 L 642 735.5 L 536 736 L 551 691.5 L 584 607.5 L 583 607.5 L 571 636.5 L 525 728 L 523.5 728 L 449 654.5 Q 448.3 652.3 450.5 653 L 533.5 615 L 573 599.5 L 570.5 599 L 538.5 612 L 445.5 642 L 445 597.5 L 446 596.5 L 446 537.5 L 447.5 536 L 492.5 552 L 534.5 569 L 535 567 L 453 527.5 L 526.5 452 L 529 453.5 L 567 537 L 569 536.5 L 557 505.5 L 538 449 Z M 550 457 L 574 533 L 585 575 L 587 576 L 596 576 L 607 535 L 633 458 L 550 457 Z M 525 466 L 467 525 L 467 526 L 535 560 L 576 584 Q 578 585 577 583 L 583 578 L 564 544 L 526 468 Q 527 465 525 466 Z M 655 466 L 615 547 L 598 578 L 606 584 L 648 559 L 714 524 L 655 466 Z M 619 522 L 617 525 L 619 525 L 619 522 Z M 454 547 L 454 599 L 453 600 L 454 631 L 529 608 L 575 597 L 574 595 L 575 588 L 574 586 L 541 577 L 493 561 L 454 547 Z M 725 548 L 652 574 L 609 586 L 607 588 L 607 597 L 670 614 L 724 632 L 725 624 L 725 564 L 726 563 L 726 549 L 725 548 Z M 635 572 L 614 581 L 615 583 L 635 574 L 635 572 Z M 610 583 L 607 584 L 608 586 L 612 584 L 610 583 Z M 608 598 L 607 600 L 610 600 L 608 598 Z M 575 600 Q 522 630 465 655 L 463 658 L 516 709 L 523 714 L 557 650 L 582 609 L 582 607 L 577 602 Q 578 599 575 600 Z M 606 600 L 604 603 L 599 607 L 601 613 L 621 647 L 655 715 Q 654 717 657 716 L 702 671 L 714 656 L 670 635 L 606 600 Z M 585 608 L 573 653 L 547 728 L 631 728 L 606 650 L 596 608 L 593 609 L 585 608 Z " /><path fill="rgb(0,0,0)" stroke="rgb(0,0,0)" stroke-width="1" opacity="0.9490196078431372" d="M 849.5 497 Q 875.3 497.7 886 513.5 L 893 527.5 L 894 542.5 Q 891.2 555.7 882.5 563 L 870.5 570 L 855.5 571 Q 842.9 568.1 837 558.5 Q 831.2 551.8 833 537.5 Q 835.8 527.8 843.5 523 L 849.5 520 Q 854.3 521.3 855.5 519 L 864.5 522 L 870 527.5 Q 873.9 531.6 873 540.5 L 866.5 549 L 864.5 550 L 866 547.5 Q 868.7 545.2 868 539.5 L 864.5 534 Q 861.3 530.2 852.5 532 L 846 537.5 L 845 547.5 L 851.5 556 L 857.5 559 L 864.5 559 Q 873.5 556.5 878 549.5 Q 882.4 543.9 882 533.5 Q 879.3 522.3 871.5 516 L 862.5 511 L 852.5 509 L 842.5 511 L 829.5 518 L 807 539.5 Q 789.7 564.7 767.5 585 L 755.5 593 L 744.5 595 L 740 593.5 Q 749.1 594.1 753.5 590 L 764 579.5 L 788 543.5 L 812.5 516 L 830.5 503 L 839.5 499 L 849.5 497 Z " /><path fill="rgb(0,0,0)" stroke="rgb(0,0,0)" stroke-width="1" opacity="0.9490196078431372" d="M 429.5 583 Q 438.5 581.5 443 584.5 L 440.5 585 L 437.5 584 Q 420.7 589.2 412 602.5 Q 394.7 628.2 371.5 648 Q 359.5 659 343.5 666 L 333.5 669 L 317.5 669 Q 299.8 664.7 291 651.5 Q 283.3 642.2 284 624.5 Q 287.2 607.7 299.5 600 L 311.5 595 L 323.5 595 Q 335.1 597.9 341 606.5 Q 347.7 613.3 346 628.5 Q 342.9 639 334.5 644 L 326.5 647 L 319.5 647 Q 311.6 644.9 308 638.5 L 305 631.5 L 305 626.5 Q 306.5 620 311.5 617 L 314.5 616 L 312 619.5 L 311 627.5 L 316.5 634 L 323.5 635 Q 329.3 633.8 332 629.5 Q 335 626.5 334 619.5 L 327.5 610 L 321.5 607 L 313.5 607 Q 304.4 609.4 300 616.5 Q 295.8 621.8 296 631.5 Q 298.9 645.1 308.5 652 L 319.5 657 L 331.5 657 Q 343 654 351.5 648 Q 368.5 636 382 620.5 L 389.5 612 L 415.5 590 L 429.5 583 Z " /><path fill="rgb(0,0,0)" stroke="rgb(0,0,0)" stroke-width="1" opacity="0.9490196078431372" d="M 366.5 688 L 389.5 688 L 390.5 689 L 404.5 690 L 424.5 694 L 438.5 699 L 459.5 704 L 475.5 704 L 484.5 698 L 483 700.5 L 480.5 704 L 472.5 708 L 456.5 710 L 455.5 709 L 441.5 709 L 440.5 708 L 424.5 707 L 395.5 701 L 368.5 700 L 354.5 703 Q 346.1 706.1 341 712.5 L 335 724.5 L 335 738.5 Q 337.3 746.3 342.5 751 L 351.5 756 L 363.5 756 Q 370.7 754.2 374 748.5 Q 377.7 744.2 376 734.5 L 370.5 727 L 363.5 725 Q 356.1 726.1 353 731.5 L 352 739.5 L 356.5 745 L 361 746 Q 362.1 749.5 354.5 748 L 346 741.5 Q 342.2 736.8 344 726.5 Q 345.5 720 350.5 717 Q 356.1 712.6 366.5 713 Q 379.3 715.3 385 724.5 Q 389.2 730.8 389 741.5 L 387 749.5 L 379.5 761 L 366.5 768 L 354.5 769 L 339.5 764 L 330 755.5 L 323 740.5 L 322 729.5 L 324 718.5 L 327 711.5 L 338.5 698 L 346.5 693 L 366.5 688 Z " /><path fill="rgb(0,0,0)" stroke="rgb(0,0,0)" stroke-width="1" opacity="0.9490196078431372" d="M 703.5 690 L 710 695.5 L 714 703.5 L 716 713.5 L 716 754.5 L 715 755.5 L 714 773.5 L 713 774.5 L 713 796.5 L 717 815.5 Q 720.5 825.5 728.5 831 L 739.5 836 L 752.5 836 Q 762.8 833.3 768 825.5 L 771 819.5 L 772 812.5 Q 769.7 811.3 771 806.5 L 764.5 797 Q 760 792.5 749.5 794 L 742 799.5 Q 739 802.5 740 809.5 L 745.5 817 Q 748.7 819.3 755.5 818 Q 761.2 815.2 761.5 807 Q 763.8 809.8 763 815.5 Q 761.8 821.3 757.5 824 Q 752.7 828.7 741.5 827 Q 734.3 825.2 731 819.5 Q 726.2 813.3 728 800.5 Q 730.8 790.7 738.5 786 Q 745.5 780 760.5 782 Q 772.1 784.9 778 793.5 Q 784.4 801.6 784 816.5 Q 781.6 832.1 771.5 840 Q 764.7 845.7 754.5 848 L 737.5 848 Q 722.6 844.4 714 834.5 Q 705.8 825.2 703 810.5 L 702 799.5 L 701 798.5 L 701 771.5 L 702 770.5 L 703 751.5 L 709 724.5 L 710 703.5 Q 708.4 694.3 703.5 690 Z " /><path fill="rgb(0,0,0)" stroke="rgb(0,0,0)" stroke-width="1" opacity="0.9490196078431372" d="M 585.5 741 L 586 747.5 L 593.5 758 L 607.5 768 L 632.5 781 L 644.5 789 Q 662.9 801.1 677 817.5 Q 684.1 825.9 688 837.5 Q 690.5 845 689 856.5 Q 684.9 873.9 672.5 883 L 657.5 890 L 643.5 890 Q 630.4 886.6 623 877.5 L 617 866.5 L 616 853.5 L 618 846.5 L 624 837 L 633.5 831 L 640.5 829 L 645.5 829 L 650.5 830 L 661 836 L 667 846.5 L 667 855.5 Q 664.9 863.4 658.5 867 Q 654.5 870.5 645.5 869 L 640 866 L 638 862.5 L 639.5 862 Q 642.1 865.4 649.5 864 Q 656.8 861.3 655 849.5 L 649.5 843 Q 646 840.5 638.5 842 L 631 848.5 L 628 855.5 L 628 860.5 L 634 872 L 645.5 878 L 654.5 878 Q 665.4 875.4 671 867.5 Q 678.4 859.9 677 843.5 L 670 828.5 L 654.5 812 L 617.5 786 L 592 763.5 L 586 754.5 L 584 744.5 L 585.5 741 Z " /></svg>