<svg width="1181" height="1181" version="1.1" xmlns="http://www.w3.org/2000/svg" desc="Created with imagetracer.js version 1.2.6" ><path fill="rgb(0,0,0)" stroke="rgb(0,0,0)" stroke-width="1" opacity="0.8980392156862745" d="M 590.5 308 Q 598.9 308.1 602 313.5 Q 605.3 317.2 604 325.5 L 599.5 332 Q 596 335.5 588.5 335 L 580 329.5 Q 576.8 326.2 578 318.5 Q 579.4 312.4 584.5 310 L 590.5 308 Z " /><path fill="rgb(0,0,0)" stroke="rgb(0,0,0)" stroke-width="1" opacity="0.8980392156862745" d="M 588.5 382 L 589 383.5 Q 579.3 400.3 573 420.5 L 548 464.5 L 632 465 L 608 420.5 L 604 408.5 L 592 382.5 L 593 382.5 L 614 409.5 L 648.5 467 L 652.5 467 L 688.5 457 L 705.5 454 L 709.5 452 L 725.5 451 L 726.5 450 L 744.5 448 L 744.5 449 L 731.5 453 L 706.5 464 L 662.5 476 L 658 478.5 L 716.5 538 L 731 489.5 L 746.5 451 L 747 455.5 L 745 463.5 L 743 485.5 L 728 544.5 L 782.5 578 L 808 598.5 L 806.5 598 L 770.5 583 L 725 558 L 724 641.5 L 725.5 641 L 768.5 618 L 780.5 614 L 806.5 602 L 804.5 605 L 779.5 624 L 732.5 652 L 725 655 L 725 660.5 L 738 711.5 L 742 747.5 L 741 747.5 Q 735.1 726.4 726 708.5 L 714 663 L 710.5 662 L 653 718.5 Q 652.2 721.1 655.5 720 L 703.5 735 L 738 749.5 L 733.5 750 L 718.5 747 L 704.5 746 L 644 730 L 615 779.5 L 592.5 808 L 593 806.5 L 607 772.5 L 632 726 L 548 726.5 L 572 769.5 Q 578.9 790.6 589 808.5 L 586 806.5 L 566 780.5 L 535.5 730 L 531.5 730 L 519.5 734 L 473.5 745 L 439.5 749 L 439.5 748 Q 460.1 742.1 477.5 733 L 514.5 722 L 521.5 721 L 526 718.5 L 467.5 660 L 466 660 L 452 709.5 L 437.5 745 L 437 739.5 L 439 731.5 L 441 710.5 L 454 657.5 L 456 653.5 L 456 649 L 408.5 621 L 375 595.5 L 376.5 595 L 387.5 601 L 416.5 613 L 458 636 L 458 606.5 L 459 605.5 L 459 552.5 L 457.5 553 L 414.5 576 L 402.5 580 L 376.5 592 L 378.5 589 L 403.5 570 L 456 540 L 456 535.5 L 454 531.5 L 445 489.5 L 442 480.5 L 438 444.5 L 439 444.5 Q 444.7 465.8 454 483.5 L 467.5 532 L 527 473.5 Q 527.8 470.9 524.5 472 L 478.5 458 L 471.5 454 L 442 442.5 L 445.5 442 L 460.5 445 L 474.5 446 L 535.5 462 L 567 409.5 L 588.5 382 Z M 540 478 L 493 524 L 471 546 L 471 628 L 470 629 L 470 645 L 532 708 L 540 714 L 640 714 L 687 669 L 712 644 L 713 552 L 640 478 L 540 478 Z " /><path fill="rgb(0,0,0)" stroke="rgb(0,0,0)" stroke-width="1" opacity="0.8980392156862745" d="M 396.5 387 L 403.5 387 L 411 392.5 Q 413.7 395.8 413 402.5 Q 411.8 408.3 407.5 411 Q 403.8 414.3 395.5 413 L 389 408.5 Q 385 405 387 395.5 L 392.5 389 L 396.5 387 Z " /><path fill="rgb(0,0,0)" stroke="rgb(0,0,0)" stroke-width="1" opacity="0.8980392156862745" d="M 787.5 401 L 794.5 401 L 802 406.5 Q 805.2 409.8 804 417.5 L 798.5 425 Q 794.8 428.3 786.5 427 L 780 422.5 Q 776.7 418.8 778 410.5 L 783.5 403 L 787.5 401 Z " /><path fill="rgb(0,0,0)" stroke="rgb(0,0,0)" stroke-width="1" opacity="0.8980392156862745" d="M 316.5 579 Q 328.3 577.2 332 583.5 Q 335.3 587.2 334 595.5 L 328.5 603 Q 324.9 605.9 317.5 605 L 310 599.5 Q 306.8 596.2 308 588.5 L 314.5 580 L 316.5 579 Z " /><path fill="rgb(0,0,0)" stroke="rgb(0,0,0)" stroke-width="1" opacity="0.8980392156862745" d="M 862.5 589 Q 875.1 586.9 878 594.5 Q 880.6 597.4 880 603.5 Q 878.5 610 873.5 613 Q 870.2 615.7 863.5 615 L 856 610.5 L 853 600.5 Q 853.9 593.9 858.5 591 L 862.5 589 Z " /><path fill="rgb(0,0,0)" stroke="rgb(0,0,0)" stroke-width="1" opacity="0.8980392156862745" d="M 782.5 789 Q 792.5 788.5 796 794.5 Q 799.2 797.8 798 805.5 L 791.5 814 L 783.5 816 Q 776.1 814.9 773 809.5 Q 770.5 806 772 798.5 L 776.5 792 L 782.5 789 Z " /><path fill="rgb(0,0,0)" stroke="rgb(0,0,0)" stroke-width="1" opacity="0.8980392156862745" d="M 385.5 790 L 393.5 790 L 400 794.5 Q 403.5 798.5 402 807.5 L 395.5 815 L 385.5 816 L 378 810.5 Q 375 807.5 376 800.5 Q 377.3 794.8 381.5 792 L 385.5 790 Z " /><path fill="rgb(0,0,0)" stroke="rgb(0,0,0)" stroke-width="1" opacity="0.8980392156862745" d="M 591.5 869 Q 600.5 870 604 876.5 L 605 885.5 L 598.5 894 Q 595.2 896.7 588.5 896 L 580 889.5 L 578 882.5 L 581 874.5 L 583.5 872 L 591.5 869 Z " /><path fill="rgb(0,0,0)" stroke="rgb(0,0,0)" stroke-width="1" opacity="0" d="M 0 0 L 1181 0 L 1181 1181 L 0 1181 L 0 0 Z M 591 308 L 585 310 Q 579 312 578 319 Q 577 326 580 330 L 589 335 Q 596 336 600 332 L 604 326 Q 605 317 602 314 Q 599 308 591 308 Z M 588 384 L 567 410 L 536 462 L 475 446 L 461 445 L 446 442 L 442 443 L 472 454 L 479 458 L 525 472 Q 528 471 527 474 L 468 532 L 454 484 Q 445 466 439 445 L 438 445 L 442 481 L 445 490 L 454 532 L 456 536 L 456 540 L 404 570 L 379 589 L 378 591 L 415 576 L 458 553 L 459 553 L 459 606 L 458 607 L 458 636 L 417 613 L 379 596 L 377 597 L 409 621 L 456 649 L 456 654 L 454 658 L 441 711 L 439 732 L 437 740 L 438 745 L 452 710 L 466 660 L 468 660 L 526 719 L 522 721 L 515 722 L 478 733 Q 460 742 440 748 L 440 749 L 474 745 L 520 734 L 532 730 L 536 730 L 566 781 L 586 807 L 588 808 L 572 770 L 548 727 L 632 726 L 607 773 L 593 806 L 594 807 L 615 780 L 644 730 L 705 746 L 719 747 L 734 750 L 738 750 L 704 735 L 656 720 Q 652 721 653 719 L 711 662 L 714 663 L 726 709 Q 735 726 741 748 L 742 748 L 738 712 L 725 661 L 725 655 L 733 652 L 780 624 L 805 605 L 806 603 L 769 618 L 726 641 L 724 642 L 725 558 L 769 582 Q 788 588 805 598 L 807 598 L 783 578 L 728 545 L 743 486 L 745 464 L 747 456 L 747 451 L 731 490 L 717 538 L 658 479 L 663 476 L 707 464 L 732 453 L 745 449 L 745 448 L 727 450 L 726 451 L 710 452 L 706 454 L 689 457 L 653 467 L 649 467 L 614 410 L 596 387 L 593 385 L 608 421 L 632 465 L 548 465 L 573 421 Q 579 401 588 386 L 588 384 Z M 397 387 L 393 389 L 387 396 Q 385 405 389 409 L 396 413 Q 404 414 408 411 Q 412 408 413 403 Q 414 396 411 393 L 404 387 L 397 387 Z M 788 401 L 784 403 L 778 411 Q 777 419 780 423 L 787 427 Q 795 428 799 425 L 804 418 Q 805 410 802 407 L 795 401 L 788 401 Z M 317 579 L 315 580 L 308 589 Q 307 596 310 600 L 318 605 Q 325 606 329 603 L 334 596 Q 335 587 332 584 Q 328 577 317 579 Z M 863 589 L 859 591 Q 854 594 853 601 L 856 611 L 864 615 Q 870 616 874 613 Q 878 610 880 604 Q 881 597 878 595 Q 875 587 863 589 Z M 783 789 L 777 792 L 772 799 Q 771 806 773 810 Q 776 815 784 816 L 792 814 L 798 806 Q 799 798 796 795 Q 792 789 783 789 Z M 386 790 L 382 792 Q 377 795 376 801 Q 375 808 378 811 L 386 816 L 396 815 L 402 808 Q 404 799 400 795 L 394 790 L 386 790 Z M 592 869 L 584 872 L 581 875 L 578 883 L 580 890 L 589 896 Q 595 897 599 894 L 605 886 L 604 877 Q 601 870 592 869 Z " /><path fill="rgb(0,0,0)" stroke="rgb(0,0,0)" stroke-width="1" opacity="0" d="M 539.5 478 L 639.5 478 L 713 551.5 L 712 643.5 L 686.5 669 L 639.5 714 L 539.5 714 L 532 707.5 L 470 644.5 L 470 628.5 L 471 627.5 L 471 545.5 L 492.5 524 L 539.5 478 Z " /></svg>