<svg width="1181" height="1181" version="1.1" xmlns="http://www.w3.org/2000/svg" desc="Created with imagetracer.js version 1.2.6" ><path fill="rgb(0,0,0)" stroke="rgb(0,0,0)" stroke-width="1" opacity="0.8941176470588236" d="M 494.5 321 L 689.5 321 L 690 322.5 L 630 424.5 L 595.5 474 L 596 472.5 L 624 413.5 L 669 333 L 516.5 333 L 516 334.5 L 558 408.5 L 590 473.5 L 588 472.5 L 556 426.5 L 494.5 321 Z " /><path fill="rgb(0,0,0)" stroke="rgb(0,0,0)" stroke-width="1" opacity="0.8941176470588236" d="M 476.5 326 L 495 391.5 L 506 437.5 L 508 441.5 L 512 467.5 L 519 500.5 L 518 500.5 Q 507.9 466.6 495 435.5 L 470.5 350 L 363 458.5 L 363 460 L 450.5 483 L 513 504.5 L 509.5 505 L 498.5 502 L 453.5 495 L 449.5 493 L 420.5 487 L 339 465.5 L 476.5 326 Z " /><path fill="rgb(0,0,0)" stroke="rgb(0,0,0)" stroke-width="1" opacity="0.8941176470588236" d="M 703.5 326 L 843 462.5 Q 843.8 465.1 840.5 464 L 723.5 496 L 718.5 496 L 669.5 506 L 669.5 505 L 737.5 481 L 819 458 L 819 456.5 L 774.5 412 L 710.5 350 L 687 436.5 L 665.5 500 L 665 496.5 L 671 467.5 L 675 439.5 L 703.5 326 Z " /><path fill="rgb(0,0,0)" stroke="rgb(0,0,0)" stroke-width="1" opacity="0.8941176470588236" d="M 328.5 480 L 428.5 541 L 479 577.5 L 477.5 577 L 417.5 547 L 340 502 L 340 508.5 L 339 509.5 L 339 569.5 L 338 570.5 L 337 654.5 L 338.5 654 L 414.5 613 L 479.5 583 L 479.5 584 L 429.5 617 L 324 676 L 325 673.5 L 327 492.5 L 328 491.5 L 328.5 480 Z " /><path fill="rgb(0,0,0)" stroke="rgb(0,0,0)" stroke-width="1" opacity="0.8941176470588236" d="M 579.5 480 L 602.5 480 L 603.5 481 L 614.5 482 L 630.5 487 Q 654.7 496.8 670 515.5 Q 685.4 534.1 690 563.5 L 689 563.5 L 688 557.5 L 680 540.5 Q 670 524 655.5 512 Q 641.1 498.9 620.5 492 L 601.5 488 L 580.5 488 L 565.5 491 L 543.5 500 Q 530.1 507.6 520 518.5 Q 506.5 533 499 553.5 L 495 569.5 L 494 591.5 L 498 612.5 L 506 631.5 Q 514.9 647.6 528.5 659 Q 541.9 670.6 560.5 677 L 577.5 681 L 589.5 681 L 591.5 682 L 592.5 681 L 604.5 681 L 618.5 678 L 639.5 669 Q 657.9 657.9 671 641.5 L 683 623.5 L 689.5 605 L 690 609.5 Q 683.9 638.9 667 657.5 L 667.5 659 Q 665.8 656.2 664 660.5 L 665 662.5 L 664 662.5 L 663.5 661 Q 650.1 674.1 631.5 682 L 606.5 689 L 586.5 690 L 585.5 689 L 570.5 688 L 548.5 681 Q 529 672 515 657.5 Q 500.2 642.3 492 620.5 L 487 600.5 L 486 576.5 L 487 575.5 L 487 568.5 L 489 558.5 L 499 533.5 Q 508.8 516.3 523.5 504 Q 534.8 494.3 549.5 488 L 563.5 483 L 579.5 480 Z " /><path fill="rgb(0,0,0)" stroke="rgb(0,0,0)" stroke-width="1" opacity="0.8941176470588236" d="M 853.5 482 L 854 542.5 L 853 543.5 L 853 602.5 L 852 603.5 L 852 663.5 L 851 664.5 L 850.5 678 L 750.5 617 L 700 580.5 L 701.5 581 L 761.5 611 L 839 656 L 839 647.5 L 840 646.5 L 840 586.5 L 841 585.5 L 841 526.5 L 842 525.5 L 842 503 L 762.5 546 L 699.5 575 L 699.5 574 L 754.5 538 L 853.5 482 Z " /><path fill="rgb(0,0,0)" stroke="rgb(0,0,0)" stroke-width="1" opacity="0.8941176470588236" d="M 585.5 554 L 598.5 554 Q 609 556.5 615 563.5 L 621 573.5 L 623 585.5 L 620 597.5 L 610.5 609 Q 603.1 615.6 588.5 615 Q 574 612.5 567 602.5 Q 561.2 595.3 561 582.5 L 563 573.5 L 571.5 561 L 585.5 554 Z " /><path fill="rgb(0,0,0)" stroke="rgb(0,0,0)" stroke-width="1" opacity="0.8941176470588236" d="M 690.5 566 L 691 568.5 L 690 568.5 L 690.5 566 Z " /><path fill="rgb(0,0,0)" stroke="rgb(0,0,0)" stroke-width="1" opacity="0.8941176470588236" d="M 690.5 601 L 691 603.5 L 690 603.5 L 690.5 601 Z " /><path fill="rgb(0,0,0)" stroke="rgb(0,0,0)" stroke-width="1" opacity="0.8941176470588236" d="M 500.5 655 L 504 655.5 L 438.5 679 L 355 703.5 L 442.5 790 L 463.5 810 L 465 810 L 488 722.5 L 509.5 659 L 510 661.5 L 504 690.5 L 501 714.5 L 472 832.5 L 470.5 834 L 331 697.5 L 365.5 687 L 440.5 668 L 444.5 666 L 469.5 661 L 474.5 661 L 500.5 655 Z " /><path fill="rgb(0,0,0)" stroke="rgb(0,0,0)" stroke-width="1" opacity="0.8941176470588236" d="M 670.5 659 L 729.5 669 L 845 698.5 L 707.5 838 L 704 829.5 L 675 719.5 L 665 664.5 L 666 664.5 Q 675.3 697.2 688 726.5 L 711 805.5 L 712 812.5 L 713.5 814 L 812 714.5 L 820 704 L 732.5 681 L 670.5 660 L 670.5 659 Z " /><path fill="rgb(0,0,0)" stroke="rgb(0,0,0)" stroke-width="1" opacity="0.8941176470588236" d="M 590.5 693 L 625 742.5 L 679 833.5 L 686 848 L 490 847.5 L 552 742.5 L 585.5 694 L 586 695.5 L 554 760.5 L 515 828.5 L 512 836 L 664.5 836 L 665 834.5 L 623 760.5 L 590.5 693 Z " /><path fill="rgb(0,0,0)" stroke="rgb(0,0,0)" stroke-width="1" opacity="0" d="M 0 0 L 1181 0 L 1181 1181 L 0 1181 L 0 0 Z M 495 321 L 556 427 L 585 469 L 588 471 L 558 409 L 516 335 L 517 333 L 669 333 L 624 414 Q 612 443 597 470 L 598 471 L 630 425 L 690 323 L 690 321 L 495 321 Z M 477 326 L 339 466 L 421 487 L 450 493 L 454 495 L 499 502 L 510 505 L 513 505 L 451 483 L 363 460 L 363 459 L 471 350 L 495 436 L 517 498 L 518 498 L 508 442 L 506 438 L 495 392 L 477 326 Z M 704 326 L 675 440 L 671 468 L 665 497 L 666 500 L 687 437 L 711 350 L 775 412 L 819 457 L 819 458 L 738 481 L 673 504 L 673 505 L 703 499 L 708 499 L 719 496 L 724 496 L 841 464 Q 844 465 843 463 L 704 326 Z M 329 480 L 328 492 L 327 493 L 325 674 L 324 676 L 430 617 L 475 587 L 476 585 L 415 613 L 339 654 L 337 655 L 338 571 L 339 570 L 339 510 L 340 509 L 340 502 L 418 547 L 477 577 L 478 577 L 429 541 L 329 480 Z M 580 480 L 564 483 L 550 488 Q 535 494 524 504 Q 509 516 499 534 L 489 559 L 487 569 L 487 576 L 486 577 L 487 601 L 492 621 Q 500 642 515 658 Q 529 672 549 681 L 571 688 L 586 689 L 587 690 L 607 689 L 632 682 Q 649 675 662 663 Q 683 643 690 610 L 690 605 L 683 624 L 671 642 Q 658 658 640 669 L 619 678 L 605 681 L 593 681 L 592 682 L 590 681 L 578 681 L 561 677 Q 542 671 529 659 Q 515 648 506 632 L 498 613 L 494 592 L 495 570 L 499 554 Q 507 533 520 519 Q 530 508 544 500 L 566 491 L 581 488 L 602 488 L 621 492 Q 641 499 656 512 Q 678 530 688 560 L 689 560 Q 684 533 670 516 Q 655 497 631 487 L 615 482 L 604 481 L 603 480 L 580 480 Z M 854 482 L 755 538 L 703 572 L 702 574 L 763 546 L 842 503 L 842 526 L 841 527 L 841 586 L 840 587 L 840 647 L 839 648 L 839 656 L 762 611 L 703 581 L 701 582 L 751 617 L 851 678 L 851 665 L 852 664 L 852 604 L 853 603 L 853 544 L 854 543 L 854 482 Z M 519 498 L 518 501 L 519 501 L 519 498 Z M 670 505 L 670 506 L 672 506 L 670 505 Z M 586 554 L 572 561 L 563 574 L 561 583 Q 561 595 567 603 Q 574 613 589 615 Q 603 616 611 609 L 620 598 L 623 586 L 621 574 L 615 564 Q 609 557 599 554 L 586 554 Z M 690 560 L 689 564 L 690 564 L 690 560 Z M 691 566 L 690 569 L 691 569 L 691 566 Z M 691 601 L 690 604 L 691 604 L 691 601 Z M 501 655 L 475 661 L 470 661 L 445 666 L 441 668 L 366 687 L 331 698 L 471 834 L 472 833 L 501 715 L 504 691 L 509 668 L 509 662 L 488 723 L 465 810 L 464 810 L 443 790 L 355 704 L 439 679 L 504 656 L 501 655 Z M 510 659 L 509 662 L 510 662 L 510 659 Z M 671 659 L 671 660 L 733 681 L 820 704 L 812 715 L 714 814 L 712 813 L 711 806 L 688 727 Q 675 697 666 665 L 665 665 L 675 720 L 704 830 L 708 838 L 845 699 L 730 669 L 671 659 Z M 585 696 L 552 743 L 490 848 L 686 848 L 679 834 L 625 743 L 594 698 L 592 697 L 623 761 L 665 835 L 665 836 L 512 836 L 515 829 L 554 761 L 585 698 L 585 696 Z " /></svg>