<svg width="1181" height="1181" version="1.1" xmlns="http://www.w3.org/2000/svg" desc="Created with imagetracer.js version 1.2.6" ><path fill="rgb(0,0,0)" stroke="rgb(0,0,0)" stroke-width="1" opacity="0.8823529411764706" d="M 570.5 343 L 604.5 343 L 605.5 344 L 614.5 344 L 615.5 345 L 628.5 346 L 660.5 354 L 681.5 362 Q 731.8 384.2 766 422.5 Q 796.4 455.6 814 501.5 L 821 526.5 L 825 549.5 L 825 558.5 L 826 559.5 L 826 598.5 L 825 599.5 L 825 608.5 L 824 609.5 L 822 628.5 L 817.5 647 L 817 643.5 L 820 630.5 L 821 602.5 L 822 599.5 L 821 598.5 L 820 571.5 L 816 548.5 Q 809.9 522.1 800 499.5 Q 780.1 451.9 745.5 419 Q 711.9 386.1 663.5 368 L 647.5 363 L 619.5 357 L 601.5 356 L 600.5 355 L 573.5 355 L 572.5 356 L 562.5 356 L 561.5 357 L 554.5 357 L 538.5 360 Q 515.2 365.2 495.5 374 Q 446.6 396.1 414 434.5 Q 381.1 471.6 365 525.5 L 360 547.5 L 358 568.5 L 357 569.5 L 357 610.5 L 358 611.5 L 359 627.5 L 365 654.5 Q 371 676 380 694.5 Q 401.1 736.9 434.5 767 Q 464.8 794.7 506.5 811 L 524.5 817 L 558.5 824 Q 564.8 822.2 566.5 825 L 606.5 825 L 607.5 824 L 628.5 822 L 649.5 817 L 691.5 801 Q 735.1 780.1 766 746.5 L 787.5 718 L 787 719.5 Q 765.9 756.9 734.5 784 Q 707.4 808.4 670.5 823 L 652.5 829 L 625.5 835 L 610.5 836 L 609.5 837 L 596.5 837 L 595.5 838 L 577.5 838 L 576.5 837 L 563.5 837 L 562.5 836 L 548.5 835 L 525.5 830 Q 502.3 823.7 482.5 814 Q 436.7 791.3 405 754.5 Q 375 720.5 358 673.5 L 353 657.5 L 347 629.5 L 346 615.5 L 345 614.5 L 345 600.5 L 344 599.5 L 344 580.5 L 345 579.5 L 345 566.5 L 346 565.5 L 346 557.5 L 347 556.5 L 349 539.5 L 360 501.5 L 369 480.5 Q 390.5 437 424.5 406 Q 453.6 379.1 492.5 362 L 510.5 355 L 531.5 349 L 559.5 344 L 569.5 344 L 570.5 343 Z " /><path fill="rgb(0,0,0)" stroke="rgb(0,0,0)" stroke-width="1" opacity="0.8823529411764706" d="M 607.5 488 L 635.5 489 L 636.5 490 L 643.5 490 L 660.5 493 L 680.5 498 L 713.5 510 L 752.5 531 Q 786.2 552.3 816 577.5 L 814.5 577 L 754.5 539 L 696.5 512 L 675.5 505 L 654.5 500 L 649.5 500 L 642.5 498 L 634.5 498 L 633.5 497 L 613.5 497 L 611.5 496 L 610.5 497 L 593.5 498 L 576.5 504 Q 562.2 511.2 552 522.5 Q 540.3 534.8 535 553.5 L 538 551.5 L 546.5 542 Q 555.5 534.5 568.5 531 L 586.5 529 L 587.5 530 L 600.5 531 L 612.5 535 Q 627 541.5 637 552.5 Q 646.8 562.2 652 576.5 L 655 589.5 L 656 603.5 L 655 604.5 L 654 620.5 L 648 638.5 Q 639.7 656.7 625.5 669 Q 612.2 680.7 593.5 687 L 579.5 690 L 546.5 690 L 545.5 689 L 537.5 689 L 515.5 685 L 497.5 680 Q 467 670.5 441.5 656 Q 396.6 628.9 358 595.5 L 360.5 597 L 420.5 636 Q 450.5 653.5 484.5 667 L 505.5 674 L 538.5 681 L 546.5 681 L 547.5 682 L 578.5 682 Q 612.6 675.6 630 652.5 Q 639.7 640.9 644 625 Q 641.3 623.9 642 626.5 Q 633 638.5 618.5 645 L 604.5 649 L 584.5 649 Q 556.3 643.7 541 625.5 Q 530.9 615.1 526 599.5 L 523 583.5 L 523 570.5 L 526 553.5 L 533 535.5 Q 541.8 519.3 555.5 508 Q 565.7 499.2 579.5 494 L 592.5 490 L 606.5 489 L 607.5 488 Z M 575 538 Q 562 540 554 547 Q 537 558 533 583 L 534 597 L 541 612 Q 549 623 566 627 Q 576 628 583 626 L 594 620 Q 602 613 605 602 Q 607 587 601 581 Q 596 572 586 570 L 586 569 Q 594 570 600 575 Q 608 582 610 595 L 609 608 L 602 622 Q 595 632 581 635 L 572 635 L 571 637 L 586 641 L 604 641 L 609 640 Q 620 637 628 630 Q 637 622 642 611 L 645 601 L 645 593 L 646 592 Q 645 577 638 568 Q 630 556 615 552 L 600 552 L 588 557 Q 578 564 574 577 Q 572 592 578 599 Q 582 606 591 608 L 591 609 L 580 604 Q 571 598 569 586 L 570 571 Q 573 561 579 555 Q 585 548 594 545 L 608 543 L 595 538 L 575 538 Z " /><path fill="rgb(0,0,0)" stroke="rgb(0,0,0)" stroke-width="1" opacity="0.8823529411764706" d="M 592.5 609 L 595 609.5 L 592.5 610 L 592.5 609 Z " /><path fill="rgb(0,0,0)" stroke="rgb(0,0,0)" stroke-width="1" opacity="0.8823529411764706" d="M 789.5 715 L 788.5 717 L 789.5 715 Z " /><path fill="rgb(0,0,0)" stroke="rgb(0,0,0)" stroke-width="1" opacity="0" d="M 0 0 L 1181 0 L 1181 1181 L 0 1181 L 0 0 Z M 571 343 L 570 344 L 560 344 L 532 349 L 511 355 L 493 362 Q 454 379 425 406 Q 390 437 369 481 L 360 502 L 349 540 L 347 557 L 346 558 L 346 566 L 345 567 L 345 580 L 344 581 L 344 600 L 345 601 L 345 615 L 346 616 L 347 630 L 353 658 L 358 674 Q 375 720 405 755 Q 437 791 483 814 Q 502 824 526 830 L 549 835 L 563 836 L 564 837 L 577 837 L 578 838 L 596 838 L 597 837 L 610 837 L 611 836 L 626 835 L 653 829 L 671 823 Q 707 808 735 784 Q 762 760 782 729 L 782 727 L 766 747 Q 735 780 692 801 L 650 817 L 629 822 L 608 824 L 607 825 L 567 825 Q 565 822 559 824 L 525 817 L 507 811 Q 465 795 435 767 Q 401 737 380 695 Q 371 676 365 655 L 359 628 L 358 612 L 357 611 L 357 570 L 358 569 L 360 548 L 365 526 Q 381 472 414 435 Q 447 396 496 374 Q 515 365 539 360 L 555 357 L 562 357 L 563 356 L 573 356 L 574 355 L 601 355 L 602 356 L 620 357 L 648 363 L 664 368 Q 712 386 746 419 Q 780 452 800 500 Q 810 522 816 549 L 820 572 L 821 599 L 822 600 L 821 603 L 821 622 L 818 638 L 819 643 L 822 629 L 824 610 L 825 609 L 825 600 L 826 599 L 826 560 L 825 559 L 825 550 L 821 527 L 814 502 Q 796 456 766 423 Q 732 384 682 362 L 661 354 L 629 346 L 616 345 L 615 344 L 606 344 L 605 343 L 571 343 Z M 608 488 L 607 489 L 593 490 L 580 494 Q 566 499 556 508 Q 542 519 533 536 L 526 554 L 523 571 L 523 584 L 526 600 Q 531 615 541 626 Q 556 644 585 649 L 605 649 L 619 645 Q 633 639 642 627 Q 641 624 644 625 Q 640 641 630 653 Q 613 676 579 682 L 548 682 L 547 681 L 539 681 L 506 674 L 485 667 Q 417 640 364 598 L 362 599 Q 408 639 466 668 L 486 676 L 512 684 L 531 688 L 546 689 L 547 690 L 580 690 L 594 687 Q 612 681 626 669 Q 640 657 648 639 L 654 621 L 655 605 L 656 604 L 655 590 L 652 577 Q 647 562 637 553 Q 627 542 613 535 L 601 531 L 588 530 L 587 529 L 569 531 Q 555 534 547 542 L 538 552 L 535 554 Q 540 535 552 523 Q 562 511 577 504 L 594 498 L 611 497 L 612 496 L 614 497 L 634 497 L 635 498 L 643 498 L 650 500 L 655 500 L 676 505 L 697 512 Q 758 536 808 573 L 809 573 Q 767 535 714 510 L 681 498 L 661 493 L 644 490 L 637 490 L 636 489 L 608 488 Z M 810 573 L 811 575 L 812 575 L 810 573 Z M 818 643 L 817 647 L 818 647 L 818 643 Z M 784 724 L 782 727 L 784 726 L 784 724 Z " /><path fill="rgb(0,0,0)" stroke="rgb(0,0,0)" stroke-width="1" opacity="0" d="M 574.5 538 L 594.5 538 L 608 542.5 L 593.5 545 Q 584.8 548.3 579 554.5 Q 572.9 560.9 570 570.5 L 569 585.5 Q 571.4 597.6 579.5 604 L 590.5 609 L 590.5 608 Q 581.9 605.6 578 598.5 Q 572 591.5 574 576.5 Q 577.7 563.7 587.5 557 L 599.5 552 L 614.5 552 Q 630.1 555.9 638 567.5 Q 644.5 577 646 591.5 L 645 592.5 L 645 600.5 L 642 610.5 Q 636.8 622.3 627.5 630 Q 619.8 636.8 608.5 640 L 603.5 641 L 585.5 641 L 571 637 L 571.5 635 L 580.5 635 Q 594.9 631.9 602 621.5 L 609 607.5 L 610 594.5 Q 607.9 581.6 599.5 575 L 588.5 570 L 588.5 571 Q 597.1 573.4 601 580.5 Q 606.8 587.2 605 601.5 Q 602 613.5 593.5 620 L 582.5 626 Q 575.8 628.3 565.5 627 Q 549.3 623.2 541 611.5 L 534 596.5 L 533 582.5 Q 536.9 558.4 553.5 547 Q 561.8 540.3 574.5 538 Z M 586 569 L 586 570 L 588 570 L 586 569 Z M 593 609 L 593 610 L 595 610 L 593 609 Z " /></svg>