<svg width="1181" height="1181" version="1.1" xmlns="http://www.w3.org/2000/svg" desc="Created with imagetracer.js version 1.2.6" ><path fill="rgb(0,0,0)" stroke="rgb(0,0,0)" stroke-width="1" opacity="0.8862745098039215" d="M 587.5 289 Q 595.8 288.8 599 293.5 Q 602 296.5 602 302.5 Q 601.1 309.1 596.5 312 Q 593.5 315 586.5 314 L 579 308.5 L 577 300.5 Q 577.9 293.9 582.5 291 L 587.5 289 Z " /><path fill="rgb(0,0,0)" stroke="rgb(0,0,0)" stroke-width="1" opacity="0.8862745098039215" d="M 589.5 348 L 625 462.5 L 624 462.5 L 590 369 Q 587 367.8 588 371.5 L 551 482 L 559.5 479 L 575.5 476 L 597.5 476 L 617.5 480 L 638.5 489 Q 653.7 497.8 665 510.5 Q 676.9 523.6 684.5 541 L 739 433.5 L 737.5 433 L 649.5 472 L 649.5 471 L 752.5 419 L 752 420.5 L 699 538.5 L 705.5 542 L 828 587.5 L 698 633.5 L 756 760.5 L 754.5 760 L 632.5 700 L 584.5 831 L 540 699 L 415.5 757 L 416 755.5 L 475 631.5 L 347 584 Q 345.8 581 349.5 582 L 460.5 542 L 475 538 L 475 534.5 L 418 410.5 L 419.5 410 L 541.5 471 L 589.5 348 Z M 444 437 L 491 539 Q 497 524 507 513 Q 521 496 542 486 L 461 444 L 444 437 Z M 576 480 L 561 483 L 547 488 L 524 502 Q 505 516 495 539 L 497 539 L 498 537 L 517 521 L 538 512 L 550 511 L 551 510 L 561 510 L 562 511 L 574 512 Q 591 516 603 527 Q 618 541 623 566 L 623 583 Q 621 584 622 589 L 618 601 L 612 611 Q 601 626 580 630 Q 556 632 545 622 L 533 610 L 528 598 Q 530 592 527 591 Q 527 574 534 565 L 543 556 L 551 552 L 560 550 L 575 553 L 581 557 Q 588 562 590 573 L 590 584 L 584 596 Q 579 600 572 602 L 567 602 L 559 599 L 552 591 L 553 588 L 554 593 L 564 599 Q 573 600 578 596 Q 584 592 585 584 L 585 577 L 581 568 Q 577 561 568 559 Q 551 557 545 565 L 537 577 L 535 587 L 538 602 L 543 610 Q 551 619 566 622 L 583 621 Q 593 618 601 611 Q 608 604 612 594 L 615 581 L 615 568 L 613 559 Q 610 547 603 540 Q 594 528 579 522 L 558 518 Q 529 519 514 533 Q 502 542 495 556 L 489 572 L 486 588 L 487 606 L 492 623 Q 500 641 512 655 Q 525 669 544 678 L 560 683 L 573 684 L 574 685 L 598 684 L 624 677 Q 642 669 657 657 Q 671 645 680 628 L 683 626 L 682 625 L 684 625 L 791 588 L 788 585 L 689 549 L 687 549 L 691 567 L 691 594 L 689 571 L 683 549 Q 676 530 664 516 Q 648 496 623 486 L 610 482 L 599 481 L 598 480 L 576 480 Z M 487 546 L 410 574 L 393 579 L 383 584 L 481 620 L 478 605 L 479 579 L 484 561 L 484 557 L 487 550 L 487 546 Z M 682 628 L 666 654 Q 651 673 628 684 L 730 734 L 682 628 Z M 487 636 L 442 730 L 442 731 L 537 686 Q 539 687 538 684 Q 523 680 513 670 Q 496 656 487 636 Z M 623 685 L 614 689 L 592 693 L 571 693 L 550 689 L 584 791 Q 583 794 586 793 L 624 687 Q 625 684 623 685 Z " /><path fill="rgb(0,0,0)" stroke="rgb(0,0,0)" stroke-width="1" opacity="0.8862745098039215" d="M 386.5 374 Q 396.6 372.4 400 377.5 Q 403.8 380.7 403 388.5 L 398.5 396 Q 394.8 399.3 386.5 398 L 380 392.5 Q 377.5 389 379 381.5 L 384.5 375 L 386.5 374 Z " /><path fill="rgb(0,0,0)" stroke="rgb(0,0,0)" stroke-width="1" opacity="0.8862745098039215" d="M 774.5 381 Q 784.9 379.6 788 385.5 Q 791.8 388.7 790 397.5 L 784.5 404 L 777.5 406 Q 770.9 405.1 768 400.5 Q 765.3 397.2 766 390.5 Q 767.4 384.4 772.5 382 L 774.5 381 Z " /><path fill="rgb(0,0,0)" stroke="rgb(0,0,0)" stroke-width="1" opacity="0.8862745098039215" d="M 312.5 575 L 319.5 575 L 325 578 L 328 583.5 L 328 590.5 L 322.5 598 L 314.5 600 Q 308 598.5 305 593.5 L 304 583.5 L 307 578 L 312.5 575 Z " /><path fill="rgb(0,0,0)" stroke="rgb(0,0,0)" stroke-width="1" opacity="0.8862745098039215" d="M 862.5 580 L 871.5 580 L 877 584.5 Q 880 587.5 879 594.5 L 874.5 602 Q 870.8 605.3 862.5 604 L 857 599.5 Q 853.7 595.8 855 587.5 L 860.5 581 L 862.5 580 Z " /><path fill="rgb(0,0,0)" stroke="rgb(0,0,0)" stroke-width="1" opacity="0.8862745098039215" d="M 551.5 584 L 552 586.5 L 551 586.5 L 551.5 584 Z " /><path fill="rgb(0,0,0)" stroke="rgb(0,0,0)" stroke-width="1" opacity="0.8862745098039215" d="M 689.5 596 L 690 600.5 L 689 600.5 L 689.5 596 Z " /><path fill="rgb(0,0,0)" stroke="rgb(0,0,0)" stroke-width="1" opacity="0.8862745098039215" d="M 389.5 763 L 394.5 763 L 403 769.5 L 404 778.5 Q 402.6 784.6 397.5 787 L 389.5 788 Q 383.4 786.6 381 781.5 Q 378.7 778.3 380 771.5 L 386.5 764 L 389.5 763 Z " /><path fill="rgb(0,0,0)" stroke="rgb(0,0,0)" stroke-width="1" opacity="0.8862745098039215" d="M 771.5 775 Q 783.3 773.2 786 780.5 Q 788.5 784 787 791.5 L 781.5 798 Q 778.3 800.3 771.5 799 L 766 795.5 Q 762.2 792.3 763 784.5 L 767.5 777 L 771.5 775 Z " /><path fill="rgb(0,0,0)" stroke="rgb(0,0,0)" stroke-width="1" opacity="0.8862745098039215" d="M 582.5 861 Q 593.1 860.4 596 867.5 L 597 876.5 L 591.5 884 Q 588.8 886.8 582.5 886 Q 576.4 884.6 574 879.5 Q 571.7 876.3 573 869.5 L 576 864 L 582.5 861 Z " /><path fill="rgb(0,0,0)" stroke="rgb(0,0,0)" stroke-width="1" opacity="0" d="M 0 0 L 1181 0 L 1181 1181 L 0 1181 L 0 0 Z M 588 289 L 583 291 Q 578 294 577 301 L 579 309 L 587 314 Q 594 315 597 312 Q 601 309 602 303 Q 602 296 599 294 Q 596 289 588 289 Z M 590 348 L 542 471 L 420 410 L 418 411 L 475 535 L 475 538 L 461 542 L 350 582 Q 346 581 347 584 L 475 632 L 416 756 L 416 757 L 540 699 L 585 831 L 633 700 L 755 760 L 755 758 L 698 634 L 828 588 L 706 542 L 699 539 L 752 421 L 753 419 L 658 467 L 658 468 L 738 433 L 739 434 L 685 541 Q 677 524 665 511 Q 654 498 639 489 L 618 480 L 598 476 L 576 476 L 560 479 L 551 482 L 588 372 Q 587 368 590 369 L 620 452 L 621 452 L 590 348 Z M 387 374 L 385 375 L 379 382 Q 378 389 380 393 L 387 398 Q 395 399 399 396 L 403 389 Q 404 381 400 378 Q 397 372 387 374 Z M 775 381 L 773 382 Q 767 384 766 391 Q 765 397 768 401 Q 771 405 778 406 L 785 404 L 790 398 Q 792 389 788 386 Q 785 380 775 381 Z M 622 452 L 621 455 L 622 455 L 622 452 Z M 623 455 L 622 458 L 623 458 L 623 455 Z M 624 458 L 623 461 L 624 461 L 624 458 Z M 313 575 L 307 578 L 304 584 L 305 594 Q 308 598 315 600 L 323 598 L 328 591 L 328 584 L 325 578 L 320 575 L 313 575 Z M 863 580 L 861 581 L 855 588 Q 854 596 857 600 L 863 604 Q 871 605 875 602 L 879 595 Q 880 588 877 585 L 872 580 L 863 580 Z M 390 763 L 387 764 L 380 772 Q 379 778 381 782 Q 383 787 390 788 L 398 787 Q 403 785 404 779 L 403 770 L 395 763 L 390 763 Z M 772 775 L 768 777 L 763 785 Q 762 792 766 796 L 772 799 Q 778 800 782 798 L 787 792 Q 789 784 786 781 Q 783 773 772 775 Z M 583 861 L 576 864 L 573 870 Q 572 876 574 880 Q 576 885 583 886 Q 589 887 592 884 L 597 877 L 596 868 Q 593 860 583 861 Z " /><path fill="rgb(0,0,0)" stroke="rgb(0,0,0)" stroke-width="1" opacity="0" d="M 444 437 L 460.5 444 L 542 485.5 Q 521.1 495.6 507 512.5 Q 496.6 523.6 490.5 539 L 444 437 Z " /><path fill="rgb(0,0,0)" stroke="rgb(0,0,0)" stroke-width="1" opacity="0" d="M 575.5 480 L 597.5 480 L 598.5 481 L 609.5 482 L 622.5 486 Q 647.9 496.1 664 515.5 Q 676 529.5 683 548.5 L 689 570.5 L 690.5 594 L 691 566.5 L 687 548.5 L 688.5 549 L 787.5 585 L 791 587.5 L 683.5 625 L 680 627.5 Q 671 645 656.5 657 Q 642.4 669.4 623.5 677 L 597.5 684 L 573.5 685 L 572.5 684 L 559.5 683 L 543.5 678 Q 525 669 512 654.5 Q 499.5 641 492 622.5 L 487 605.5 L 486 587.5 L 489 571.5 L 495 555.5 Q 502.2 542.2 513.5 533 Q 529.2 519.2 557.5 518 L 578.5 522 Q 593.8 527.7 603 539.5 Q 609.7 547.3 613 558.5 L 615 567.5 L 615 580.5 L 612 593.5 Q 607.8 603.8 600.5 611 Q 593.4 617.9 582.5 621 L 565.5 622 Q 550.8 619.2 543 609.5 L 538 601.5 L 535 586.5 L 537 576.5 L 544.5 565 Q 550.9 556.9 567.5 559 Q 576.8 560.8 581 567.5 L 585 576.5 L 585 583.5 Q 583.5 592 577.5 596 Q 573.1 600 563.5 599 L 554.5 593 L 554 594.5 Q 558.6 602.4 571.5 602 Q 579.3 600.3 584 595.5 L 590 583.5 L 590 572.5 Q 587.6 562.4 580.5 557 L 574.5 553 L 559.5 550 L 550.5 552 L 542.5 556 L 534 564.5 Q 526.8 573.8 527 590.5 Q 529.5 592 528 597.5 L 533 609.5 L 544.5 622 Q 556.2 631.8 579.5 630 Q 601.1 625.6 612 610.5 L 618 600.5 L 622 588.5 Q 620.7 583.8 623 582.5 L 623 565.5 Q 618.3 540.7 602.5 527 Q 591.1 516.4 573.5 512 L 561.5 511 L 560.5 510 L 550.5 510 L 549.5 511 L 537.5 512 L 516.5 521 L 498 536.5 L 496.5 539 L 495 538.5 Q 505.4 516.4 523.5 502 L 546.5 488 L 560.5 483 L 575.5 480 Z M 552 584 L 551 587 L 552 587 L 552 584 Z M 553 588 L 552 591 L 553 591 L 553 588 Z M 690 596 L 689 601 L 690 601 L 690 596 Z " /><path fill="rgb(0,0,0)" stroke="rgb(0,0,0)" stroke-width="1" opacity="0" d="M 486.5 546 L 487 549.5 L 484 556.5 L 484 560.5 L 479 578.5 L 478 604.5 L 481 620 L 383 583.5 L 392.5 579 L 409.5 574 L 486.5 546 Z " /><path fill="rgb(0,0,0)" stroke="rgb(0,0,0)" stroke-width="1" opacity="0" d="M 681.5 628 L 730 734 L 628 683.5 Q 651.1 672.6 666 653.5 L 681.5 628 Z " /><path fill="rgb(0,0,0)" stroke="rgb(0,0,0)" stroke-width="1" opacity="0" d="M 486.5 636 Q 496.2 656.3 512.5 670 Q 523.3 679.7 538 684 Q 539.1 686.7 536.5 686 L 441.5 731 L 442 729.5 L 486.5 636 Z " /><path fill="rgb(0,0,0)" stroke="rgb(0,0,0)" stroke-width="1" opacity="0" d="M 622.5 685 Q 624.8 684.3 624 686.5 L 586 793 Q 583 794.3 584 790.5 L 550 689 L 570.5 693 L 591.5 693 L 613.5 689 L 622.5 685 Z " /></svg>