<svg width="1181" height="1181" version="1.1" xmlns="http://www.w3.org/2000/svg" desc="Created with imagetracer.js version 1.2.6" ><path fill="rgb(0,0,0)" stroke="rgb(0,0,0)" stroke-width="1" opacity="0.8941176470588236" d="M 576.5 335 L 584.5 335 L 598.5 339 Q 613.2 345.8 623 357.5 L 629 367.5 L 633 381.5 Q 631.7 386.3 634 387.5 L 634 408.5 L 631 421.5 L 624 436.5 Q 611.4 455.4 594.5 470 Q 573.6 486.1 556 505.5 L 548 518.5 L 546 531.5 L 547 532.5 L 547 540.5 L 552 556.5 Q 557.8 567.7 567.5 575 L 573.5 578 L 578.5 572 Q 585 565 600.5 567 Q 608.6 569.4 613.5 575 Q 626.5 565 651.5 567 Q 668.3 569.7 680.5 577 L 693 588.5 L 698 596.5 L 705 615.5 L 713 656.5 L 720 681.5 Q 727.9 702.1 742.5 716 Q 751.5 724 763.5 729 L 776.5 733 L 787.5 733 Q 812.6 728.6 825.5 712 L 825 713.5 L 814.5 726 L 794.5 737 L 781.5 740 L 773.5 740 Q 741.4 734.1 724 713.5 L 715 700.5 L 706 678.5 L 701 659.5 L 696 630.5 L 689 606.5 Q 685.1 596.4 677.5 590 L 658.5 581 L 649.5 579 L 637.5 579 L 628.5 581 L 619 585 Q 621 604.6 608.5 611 L 601 614.5 L 601 630.5 L 598 642.5 Q 590.8 660.3 576.5 671 L 560.5 681 L 548.5 684 L 537.5 684 L 518.5 680 L 463.5 660 L 442.5 656 L 426.5 656 L 425.5 657 L 414.5 658 L 401.5 663 Q 389.1 669.6 380 679.5 Q 373.5 687.5 371 699.5 L 370 704.5 L 370 722.5 L 373 731.5 L 372 731.5 L 368 722.5 L 366 703.5 L 367 702.5 L 368 690.5 L 371 681.5 Q 376.2 670.2 385.5 663 Q 398 651.5 416.5 646 L 425.5 644 L 446.5 644 L 469.5 649 L 524.5 669 L 545.5 672 L 557.5 669 Q 569.6 662.6 578 652.5 Q 584.8 644.8 588 633.5 L 589 614 Q 579.1 612.3 574 604.5 Q 568.8 599.7 570 590 Q 558.1 585.2 550 575.5 Q 533.6 558.4 534 524.5 L 536 515.5 L 541 505.5 Q 549.9 491.4 562.5 481 L 598 449.5 Q 611.8 435.8 620 416.5 L 624 402.5 L 624 391.5 L 625 389.5 L 621 367.5 Q 615.1 354.9 604.5 347 L 591.5 339 L 582.5 336 L 576.5 336 L 576.5 335 Z " /><path fill="rgb(0,0,0)" stroke="rgb(0,0,0)" stroke-width="1" opacity="0.8941176470588236" d="M 595.5 382 Q 603.1 380.9 605 385.5 L 606 392.5 L 604 396 L 597.5 398 L 591 393.5 L 590 388.5 L 593.5 383 L 595.5 382 Z " /><path fill="rgb(0,0,0)" stroke="rgb(0,0,0)" stroke-width="1" opacity="0.8941176470588236" d="M 581.5 524 Q 590.5 522.5 592 528.5 Q 593.3 535.8 589.5 538 L 580.5 539 L 577 535.5 L 576 531.5 L 579.5 525 L 581.5 524 Z " /><path fill="rgb(0,0,0)" stroke="rgb(0,0,0)" stroke-width="1" opacity="0.8941176470588236" d="M 645.5 612 Q 653.5 610.5 655 615.5 L 656 622.5 L 654 626 Q 651.3 627.9 644.5 627 Q 640.1 624.9 640 618.5 L 643.5 613 L 645.5 612 Z " /><path fill="rgb(0,0,0)" stroke="rgb(0,0,0)" stroke-width="1" opacity="0.8941176470588236" d="M 542.5 621 Q 548.9 621.1 551 625.5 Q 552.5 633.5 548.5 636 L 540.5 637 Q 534.5 635.5 536 626.5 L 538.5 623 L 542.5 621 Z " /><path fill="rgb(0,0,0)" stroke="rgb(0,0,0)" stroke-width="1" opacity="0.8941176470588236" d="M 775.5 672 Q 781.1 672.5 783 676.5 L 784 682.5 L 780.5 687 L 773.5 688 L 769 684.5 L 768 678.5 L 772.5 673 L 775.5 672 Z " /><path fill="rgb(0,0,0)" stroke="rgb(0,0,0)" stroke-width="1" opacity="0.8941176470588236" d="M 420.5 688 L 428 691.5 L 429 699.5 Q 427.5 705.5 418.5 704 L 415 702 Q 413.1 699.3 414 692.5 L 420.5 688 Z " /><path fill="rgb(0,0,0)" stroke="rgb(0,0,0)" stroke-width="1" opacity="0" d="M 0 0 L 1181 0 L 1181 1181 L 0 1181 L 0 0 Z M 577 335 L 577 336 L 583 336 L 592 339 L 605 347 Q 615 355 621 368 L 625 390 L 624 392 L 624 403 L 620 417 Q 612 436 598 450 L 563 481 Q 550 491 541 506 L 536 516 L 534 525 Q 534 558 550 576 Q 558 585 570 590 Q 569 600 574 605 Q 579 612 589 614 L 588 634 Q 585 645 578 653 Q 570 663 558 669 L 546 672 L 525 669 L 470 649 L 447 644 L 426 644 L 417 646 Q 398 652 386 663 Q 376 670 371 682 L 368 691 L 367 703 L 366 704 L 367 718 L 370 728 L 371 728 L 370 723 L 370 705 L 371 700 Q 374 688 380 680 Q 389 670 402 663 L 415 658 L 426 657 L 427 656 L 443 656 L 464 660 L 519 680 L 538 684 L 549 684 L 561 681 L 577 671 Q 591 660 598 643 L 601 631 L 601 615 L 609 611 Q 621 605 619 585 L 629 581 L 638 579 L 650 579 L 659 581 L 678 590 Q 685 596 689 607 L 696 631 L 701 660 L 706 679 L 715 701 L 724 714 Q 741 734 774 740 L 782 740 L 795 737 L 815 726 L 825 715 L 825 713 Q 812 729 788 733 L 777 733 L 764 729 Q 752 724 743 716 Q 728 702 720 682 L 713 657 L 705 616 L 698 597 L 693 589 L 681 577 Q 668 570 652 567 Q 627 565 614 575 Q 609 569 601 567 Q 585 565 579 572 L 574 578 L 568 575 Q 558 568 552 557 L 547 541 L 547 533 L 546 532 L 548 519 L 556 506 Q 574 486 595 470 Q 611 455 624 437 L 631 422 L 634 409 L 634 388 Q 632 386 633 382 L 629 368 L 623 358 Q 613 346 599 339 L 585 335 L 577 335 Z M 596 382 L 594 383 L 590 389 L 591 394 L 598 398 L 604 396 L 606 393 L 605 386 Q 603 381 596 382 Z M 582 524 L 580 525 L 576 532 L 577 536 L 581 539 L 590 538 Q 593 536 592 529 Q 591 523 582 524 Z M 646 612 L 644 613 L 640 619 Q 640 625 645 627 Q 651 628 654 626 L 656 623 L 655 616 Q 654 611 646 612 Z M 543 621 L 539 623 L 536 627 Q 535 636 541 637 L 549 636 Q 552 633 551 626 Q 549 621 543 621 Z M 776 672 L 773 673 L 768 679 L 769 685 L 774 688 L 781 687 L 784 683 L 783 677 Q 781 672 776 672 Z M 421 688 L 414 693 Q 413 699 415 702 L 419 704 Q 428 706 429 700 L 428 692 L 421 688 Z " /></svg>