<svg width="1181" height="1181" version="1.1" xmlns="http://www.w3.org/2000/svg" desc="Created with imagetracer.js version 1.2.6" ><path fill="rgb(0,0,0)" stroke="rgb(0,0,0)" stroke-width="1" opacity="0.8901960784313725" d="M 587.5 290 L 593 292.5 L 757 571.5 L 764 584.5 L 764 587.5 L 602.5 886 L 597.5 887 L 593 883.5 L 502 735.5 L 426 601.5 L 428 602.5 L 518 737.5 L 598.5 868 L 745 597.5 L 750 587.5 L 750 584.5 L 588.5 310 Q 586.3 309.3 587 311.5 L 512 443.5 L 425.5 583 L 426 581.5 L 500 438.5 L 584.5 291 L 587.5 290 Z " /><path fill="rgb(0,0,0)" stroke="rgb(0,0,0)" stroke-width="1" opacity="0.8901960784313725" d="M 594.5 360 L 613 377.5 Q 627.3 394.2 635 417.5 L 640 445.5 L 640 466.5 L 635 490.5 L 623 515.5 Q 608.4 537.9 588.5 555 L 555.5 580 L 542 593.5 Q 528.3 609.3 521 631.5 L 518 647.5 L 518 673.5 L 523 698.5 L 534 724.5 Q 549.1 750.9 571.5 770 L 589 782.5 L 587.5 783 Q 557.7 769.3 538 745.5 Q 522 725 514 696.5 L 510 675.5 L 510 645.5 Q 518.3 600.3 547.5 576 Q 573.3 558.8 595 537.5 Q 613.6 519.1 625 493.5 L 631 472.5 L 632 447.5 L 627 419.5 L 619 397.5 L 608 377.5 L 596 363.5 L 594.5 360 Z " /><path fill="rgb(0,0,0)" stroke="rgb(0,0,0)" stroke-width="1" opacity="0.8901960784313725" d="M 559.5 441 Q 572.5 440.5 578 447.5 L 583 457.5 L 583 464.5 Q 580.5 473.5 573.5 478 L 569.5 480 L 560.5 481 Q 550.5 479.5 546 472.5 Q 541.2 467.3 543 455.5 Q 545.1 447.6 551.5 444 L 559.5 441 Z " /><path fill="rgb(0,0,0)" stroke="rgb(0,0,0)" stroke-width="1" opacity="0.8901960784313725" d="M 587.5 638 Q 603.9 637.1 609 647.5 L 612 658.5 L 610 666.5 L 603.5 674 Q 598.5 678 589.5 678 Q 578.6 676.4 574 668.5 L 571 660.5 L 571 654.5 L 577.5 643 L 587.5 638 Z " /><path fill="rgb(0,0,0)" stroke="rgb(0,0,0)" stroke-width="1" opacity="0" d="M 0 0 L 1181 0 L 1181 1181 L 0 1181 L 0 0 Z M 588 290 L 585 291 L 500 439 L 428 577 L 429 578 L 512 444 L 587 312 Q 586 309 589 310 L 750 585 L 750 588 L 745 598 L 599 868 L 518 738 L 432 609 L 430 608 L 502 736 L 593 884 L 598 887 L 603 886 L 764 588 L 764 585 L 757 572 L 593 293 L 588 290 Z M 597 362 L 596 364 L 608 378 L 619 398 L 627 420 L 632 448 L 631 473 L 625 494 Q 614 519 595 538 Q 573 559 548 576 Q 518 600 510 646 L 510 676 L 514 697 Q 522 725 538 746 Q 558 769 588 783 L 589 783 L 572 770 Q 549 751 534 725 L 523 699 L 518 674 L 518 648 L 521 632 Q 528 609 542 594 L 556 580 L 589 555 Q 608 538 623 516 L 635 491 L 640 467 L 640 446 L 635 418 Q 627 394 613 378 L 597 362 Z M 560 441 L 552 444 Q 545 448 543 456 Q 541 467 546 473 Q 550 480 561 481 L 570 480 L 574 478 Q 581 474 583 465 L 583 458 L 578 448 Q 573 440 560 441 Z M 588 638 L 578 643 L 571 655 L 571 661 L 574 669 Q 579 676 590 678 Q 599 678 604 674 L 610 667 L 612 659 L 609 648 Q 604 637 588 638 Z " /></svg>