<svg width="1181" height="1181" version="1.1" xmlns="http://www.w3.org/2000/svg" desc="Created with imagetracer.js version 1.2.6" ><path fill="rgb(0,0,0)" stroke="rgb(0,0,0)" stroke-width="1" opacity="0.8980392156862745" d="M 305.5 433 Q 320.6 431.9 325 441.5 L 327 447.5 L 327 452.5 L 322 463 L 314.5 467 L 305.5 467 Q 298.3 465.2 295 459.5 Q 291.2 454.8 293 444.5 L 299.5 436 L 305.5 433 Z " /><path fill="rgb(0,0,0)" stroke="rgb(0,0,0)" stroke-width="1" opacity="0.8980392156862745" d="M 352.5 439 L 360.5 439 L 376.5 445 Q 392.5 455 404 469.5 Q 423.6 493.4 439 521.5 L 465 567.5 L 479 595.5 L 499 629.5 Q 522.3 667.7 554.5 697 Q 570.5 712 592.5 721 L 614.5 726 L 631.5 726 L 647.5 723 L 663.5 717 Q 678.8 709.3 690 697.5 Q 701.5 686 708 669.5 L 712 654.5 L 712 633.5 Q 706.5 604.5 687.5 589 Q 678.2 580.3 664.5 576 L 655.5 574 L 640.5 574 Q 617.4 578.4 605 593.5 Q 593.8 604.8 593 626.5 Q 595.5 628 594 633.5 L 598 644.5 L 611.5 660 Q 621.1 667.9 639.5 667 Q 653.4 664.4 661 655.5 Q 666.7 649.7 669 640.5 L 669 629.5 Q 666.8 618.7 660 612.5 L 667 618.5 L 673 630.5 L 674 640.5 L 672 650.5 L 668 658.5 L 658.5 669 Q 647.6 679.1 626.5 679 Q 606.2 674.8 595 661.5 Q 580.4 647.6 581 618.5 L 583 608.5 L 588 597.5 L 586.5 597 Q 577 608.5 561.5 614 L 546.5 618 L 527.5 618 Q 513.8 615.7 503.5 610 Q 489.8 602.2 480 590.5 Q 469.6 578.4 464 561.5 L 461 548.5 L 461 523.5 Q 463.7 506.7 471 494.5 Q 480.1 478.6 493.5 467 Q 509.1 453.1 531.5 446 L 550.5 442 L 573.5 442 L 595.5 447 L 619.5 459 Q 642.3 474.2 660 494.5 Q 687.6 526.4 709 564.5 L 729 600.5 L 762 668.5 L 777 694.5 Q 788.4 713.6 804.5 728 L 818.5 737 Q 824.9 740.6 835 740.5 L 824.5 741 Q 811.5 738 802.5 731 L 782 711.5 Q 763.1 688.4 748 661.5 L 717 606.5 L 704 580.5 L 683 545.5 Q 663.3 514.2 637.5 489 Q 619.6 471.4 595.5 460 L 571.5 454 L 553.5 454 L 537.5 457 L 521.5 463 Q 502.7 472.7 490 488.5 Q 480.3 500.3 475 516.5 L 473 526.5 L 473 545.5 Q 478.2 573.3 495.5 589 Q 503.9 597.1 515.5 602 L 530.5 606 L 543.5 606 Q 567.4 601.9 580 586.5 L 590 569.5 L 592 560.5 L 592 551.5 Q 589 533 577.5 523 Q 567.5 512 545.5 513 L 537.5 515 L 525 523 L 517 536.5 L 516 549.5 Q 518.2 562.3 527 568.5 L 524.5 567 L 519 562.5 L 512 548.5 L 512 533.5 Q 516.1 519.1 526.5 511 L 544.5 502 L 559.5 501 Q 581 505.5 592 520.5 L 602 539.5 L 604 548.5 L 604 562.5 L 600 577.5 L 597 582.5 L 598.5 583 Q 608.4 571.9 623.5 566 L 638.5 562 L 658.5 562 Q 689.8 568.7 706 590.5 Q 724.1 610.4 725 647.5 L 724 648.5 L 724 657.5 L 722 666.5 L 713 687.5 Q 704.1 702.1 691.5 713 Q 675.9 726.9 653.5 734 L 634.5 738 L 612.5 738 L 596.5 735 Q 582 731 570.5 724 Q 546.5 709 528 688.5 Q 499.7 656.8 478 618.5 Q 452.1 574.9 431 526.5 L 407 483.5 Q 395.7 464.8 379.5 451 L 364.5 442 L 357.5 440 L 352.5 440 L 352.5 439 Z " /><path fill="rgb(0,0,0)" stroke="rgb(0,0,0)" stroke-width="1" opacity="0.8980392156862745" d="M 888.5 713 Q 899.7 712.8 904 719.5 Q 908.7 724.3 907 735.5 L 899.5 745 L 890.5 748 L 882.5 746 L 876 740.5 Q 872.1 736.4 873 727.5 Q 874.9 719.9 880.5 716 L 888.5 713 Z " /><path fill="rgb(0,0,0)" stroke="rgb(0,0,0)" stroke-width="1" opacity="0" d="M 0 0 L 1181 0 L 1181 1181 L 0 1181 L 0 0 Z M 306 433 L 300 436 L 293 445 Q 291 455 295 460 Q 298 465 306 467 L 315 467 L 322 463 L 327 453 L 327 448 L 325 442 Q 321 432 306 433 Z M 353 439 L 353 440 L 358 440 L 365 442 L 380 451 Q 396 465 407 484 L 431 527 Q 452 575 478 619 Q 500 657 528 689 Q 546 709 571 724 Q 582 731 597 735 L 613 738 L 635 738 L 654 734 Q 676 727 692 713 Q 704 702 713 688 L 722 667 L 724 658 L 724 649 L 725 648 Q 724 610 706 591 Q 690 569 659 562 L 639 562 L 624 566 Q 608 572 599 583 L 597 583 L 600 578 L 604 563 L 604 549 L 602 540 L 592 521 Q 581 505 560 501 L 545 502 L 527 511 Q 516 519 512 534 Q 510 547 514 555 L 524 567 L 525 567 L 521 563 L 516 550 L 517 537 L 525 523 L 538 515 L 546 513 Q 568 512 578 523 Q 589 533 592 552 L 592 561 L 590 570 L 580 587 Q 567 602 544 606 L 531 606 L 516 602 Q 504 597 496 589 Q 478 573 473 546 L 473 527 L 475 517 Q 480 500 490 489 Q 503 473 522 463 L 538 457 L 554 454 L 572 454 L 596 460 Q 620 471 638 489 Q 663 514 683 546 L 704 581 L 717 607 L 748 662 Q 763 688 782 712 L 803 731 Q 811 738 825 741 L 835 741 Q 825 741 819 737 L 805 728 Q 788 714 777 695 L 762 669 L 729 601 L 709 565 Q 688 526 660 495 Q 642 474 620 459 L 596 447 L 574 442 L 551 442 L 532 446 Q 509 453 494 467 Q 480 479 471 495 Q 464 507 461 524 L 461 549 L 464 562 Q 470 578 480 591 Q 490 602 504 610 Q 514 616 528 618 L 547 618 L 562 614 Q 577 608 587 597 L 588 598 L 583 609 L 581 619 Q 580 648 595 662 Q 606 675 627 679 Q 648 679 659 669 L 668 659 L 672 651 L 674 641 L 673 631 L 667 619 L 661 614 Q 667 620 669 630 L 669 641 Q 667 650 661 656 Q 653 664 640 667 Q 621 668 612 660 L 598 645 L 594 634 Q 596 628 593 627 Q 594 605 605 594 Q 617 578 641 574 L 656 574 L 665 576 Q 678 580 688 589 Q 707 604 712 634 L 712 655 L 708 670 Q 701 686 690 698 Q 679 709 664 717 L 648 723 L 632 726 L 615 726 L 593 721 Q 571 712 555 697 Q 522 668 499 630 L 479 596 L 465 568 L 439 522 Q 424 493 404 470 Q 393 455 377 445 L 361 439 L 353 439 Z M 889 713 L 881 716 Q 875 720 873 728 Q 872 736 876 741 L 883 746 L 891 748 L 900 745 L 907 736 Q 909 724 904 720 Q 900 713 889 713 Z " /></svg>