<svg width="1181" height="1181" version="1.1" xmlns="http://www.w3.org/2000/svg" desc="Created with imagetracer.js version 1.2.6" ><path fill="rgb(0,0,0)" stroke="rgb(0,0,0)" stroke-width="1" opacity="0.8980392156862745" d="M 582.5 505 Q 594.6 504.9 599 512.5 Q 603.3 516.7 602 526.5 Q 600.5 533.5 595.5 537 Q 590.7 541.7 579.5 540 L 570 532.5 Q 566.2 527.8 568 517.5 L 573.5 509 L 582.5 505 Z " /><path fill="rgb(0,0,0)" stroke="rgb(0,0,0)" stroke-width="1" opacity="0.8980392156862745" d="M 793.5 525 L 810.5 525 L 828.5 530 Q 844.4 537.1 855 549.5 Q 864.4 560.1 869 575.5 L 871 583.5 L 871 608.5 Q 863.9 644.4 839.5 663 Q 827.9 672.4 812.5 678 L 792.5 682 L 778.5 682 L 777.5 681 L 768.5 681 L 747.5 677 L 708.5 663 L 652.5 633 L 601.5 599 L 590.5 592 L 586.5 591 L 522.5 633 L 462.5 665 L 439.5 674 L 417.5 680 L 406.5 682 L 398.5 682 L 397.5 683 L 378.5 683 L 377.5 682 L 366.5 681 L 344.5 672 Q 332.1 664.9 323 654.5 Q 313 643.5 307 628.5 L 302 610.5 L 301 591.5 L 302 590.5 L 303 579.5 L 308 565.5 Q 315 551.5 326.5 542 Q 337.5 532.5 353.5 528 L 364.5 526 L 378.5 526 Q 404 530.5 417 547.5 Q 424.5 556.5 428 569.5 L 429 574.5 L 429 591.5 Q 424.9 610.9 411.5 621 Q 399.8 631.8 376.5 631 Q 362.4 628.6 355 619.5 L 347 605.5 Q 344.6 598.4 346 587.5 Q 348.9 575.9 357.5 570 Q 362 566.5 369.5 566 L 369.5 567 Q 361.2 569.2 357 575.5 Q 352.4 580.9 352 590.5 Q 354.2 591.8 353 596.5 L 357 605.5 L 364.5 613 Q 371.7 618.8 384.5 619 L 393.5 617 L 407 609 L 416 593.5 L 417 577.5 Q 413.9 560.6 403.5 551 Q 392.1 538.4 368.5 538 L 367.5 539 L 356.5 540 L 342.5 546 L 325 561.5 Q 317.1 571.6 314 586.5 L 314 607.5 Q 320 639 341.5 655 Q 353.1 664.5 369.5 669 L 381.5 670 L 382.5 671 L 392.5 671 L 393.5 670 L 409.5 669 L 426.5 665 L 463.5 651 L 492.5 636 L 524.5 616 L 579 585.5 Q 564.1 575.9 545.5 570 L 537.5 568 L 520.5 568 L 507.5 574 L 508.5 572 Q 515.4 566.9 525.5 565 L 541.5 565 L 554.5 568 Q 571.8 572.7 585.5 581 L 589.5 581 Q 602.5 573.5 618.5 569 L 633.5 566 L 645.5 566 L 654.5 568 L 665 574.5 L 662.5 573 Q 653.9 567.1 637.5 569 L 616.5 575 L 596 585.5 Q 640.8 609.2 682.5 636 L 723.5 656 L 743.5 663 L 764.5 668 Q 770 666.5 771.5 669 L 797.5 669 Q 825.6 663.1 841 644.5 Q 851.9 632.4 857 614.5 L 859 604.5 L 859 586.5 Q 854.1 561.4 836.5 549 L 816.5 539 L 806.5 537 L 796.5 537 L 784.5 540 L 776.5 544 L 766 553.5 Q 759.8 560.3 757 570.5 L 756 588.5 L 760 599.5 L 766 608 L 779.5 616 Q 786.2 618.3 796.5 617 Q 808.5 614 815 605.5 Q 821.9 598.4 820 582.5 Q 817.2 573.8 810.5 569 L 803 565.5 L 806.5 565 Q 816.8 567.8 822 575.5 L 827 587.5 L 827 599.5 Q 823.2 615.7 811.5 624 L 800.5 629 L 786.5 630 L 767.5 624 L 753 611.5 Q 746.5 603.5 744 591.5 L 744 572.5 Q 749.1 548.1 766.5 536 L 778.5 529 L 793.5 525 Z " /><path fill="rgb(0,0,0)" stroke="rgb(0,0,0)" stroke-width="1" opacity="0.8980392156862745" d="M 584.5 635 L 594.5 637 L 599 640 L 602 644.5 L 604 654.5 Q 602.3 663.8 595.5 668 L 585.5 671 L 578.5 669 L 572 663.5 Q 567.9 659.1 569 649.5 Q 570.8 641.8 576.5 638 L 584.5 635 Z " /><path fill="rgb(0,0,0)" stroke="rgb(0,0,0)" stroke-width="1" opacity="0" d="M 0 0 L 1181 0 L 1181 1181 L 0 1181 L 0 0 Z M 583 505 L 574 509 L 568 518 Q 566 528 570 533 L 580 540 Q 591 542 596 537 Q 600 533 602 527 Q 603 517 599 513 Q 595 505 583 505 Z M 794 525 L 779 529 L 767 536 Q 749 548 744 573 L 744 592 Q 747 603 753 612 L 768 624 L 787 630 L 801 629 L 812 624 Q 823 616 827 600 L 827 588 L 822 576 Q 817 568 807 565 L 803 566 L 811 569 Q 817 574 820 583 Q 822 598 815 606 Q 808 614 797 617 Q 786 618 780 616 L 766 608 L 760 600 L 756 589 L 757 571 Q 760 560 766 554 L 777 544 L 785 540 L 797 537 L 807 537 L 817 539 L 837 549 Q 854 561 859 587 L 859 605 L 857 615 Q 852 632 841 645 Q 826 663 798 669 L 772 669 Q 770 667 765 668 L 744 663 L 724 656 L 683 636 Q 641 609 596 586 L 617 575 L 638 569 Q 650 567 657 571 L 659 571 L 655 568 L 646 566 L 634 566 L 619 569 Q 603 574 590 581 L 586 581 Q 572 573 555 568 L 542 565 L 526 565 L 512 570 L 511 572 L 521 568 L 538 568 L 546 570 Q 564 576 579 586 L 525 616 L 493 636 L 464 651 L 427 665 L 410 669 L 394 670 L 393 671 L 383 671 L 382 670 L 370 669 Q 353 664 342 655 Q 320 639 314 608 L 314 587 Q 317 572 325 562 L 343 546 L 357 540 L 368 539 L 369 538 Q 392 538 404 551 Q 414 561 417 578 L 416 594 L 407 609 L 394 617 L 385 619 Q 372 619 365 613 L 357 606 L 353 597 Q 354 592 352 591 Q 352 581 357 576 Q 361 569 370 567 L 370 566 Q 362 566 358 570 Q 349 576 346 588 Q 345 598 347 606 L 355 620 Q 362 629 377 631 Q 400 632 412 621 Q 425 611 429 592 L 429 575 L 428 570 Q 425 556 417 548 Q 404 531 379 526 L 365 526 L 354 528 Q 338 533 327 542 Q 315 552 308 566 L 303 580 L 302 591 L 301 592 L 302 611 L 307 629 Q 313 644 323 655 Q 332 665 345 672 L 367 681 L 378 682 L 379 683 L 398 683 L 399 682 L 407 682 L 418 680 L 440 674 L 463 665 L 523 633 L 587 591 L 591 592 L 602 599 L 653 633 L 709 663 L 748 677 L 769 681 L 778 681 L 779 682 L 793 682 L 813 678 Q 828 672 840 663 Q 864 644 871 609 L 871 584 L 869 576 Q 864 560 855 550 Q 844 537 829 530 L 811 525 L 794 525 Z M 585 635 L 577 638 Q 571 642 569 650 Q 568 659 572 664 L 579 669 L 586 671 L 596 668 Q 602 664 604 655 L 602 645 L 599 640 L 595 637 L 585 635 Z " /></svg>