<svg width="1181" height="1181" version="1.1" xmlns="http://www.w3.org/2000/svg" desc="Created with imagetracer.js version 1.2.6" ><path fill="rgb(0,0,0)" stroke="rgb(0,0,0)" stroke-width="1" opacity="0.9058823529411765" d="M 573.5 502 L 586.5 502 L 597.5 504 L 598.5 503 L 614.5 503 Q 644.5 508 660 527.5 Q 669.1 538.4 674 553.5 L 676 562.5 L 676 585.5 L 674 595.5 L 669 609.5 Q 662.3 623.8 652 634.5 L 653.5 634 Q 674 627 691.5 617 L 760.5 576 L 802.5 554 L 834.5 543 L 854.5 542 Q 865.3 543.7 872 549.5 L 870.5 549 Q 861.5 543 844.5 545 L 824.5 551 L 802.5 562 L 730.5 609 Q 702 626.5 670.5 641 L 629.5 655 L 606.5 659 L 584.5 660 L 583.5 659 L 567.5 658 L 549.5 654 L 518.5 643 L 464.5 615 L 380.5 561 Q 367 553 350.5 548 L 342.5 546 L 326.5 546 Q 318.3 547.3 313.5 552 L 315.5 549 Q 322 544.5 331.5 543 L 346.5 543 L 363.5 547 L 388.5 557 Q 442 584.5 491.5 616 L 519.5 630 L 536.5 636 L 530 628.5 Q 518.5 615.5 513 596.5 L 510 581.5 L 510 563.5 Q 515.6 532.6 536.5 517 L 553.5 507 L 573.5 502 Z M 566 516 Q 552 520 543 528 L 529 545 L 524 557 L 522 568 L 522 579 L 523 580 L 524 591 Q 528 606 537 618 Q 547 631 563 639 L 585 646 L 607 646 L 611 645 Q 628 640 640 629 Q 659 613 664 583 L 664 566 L 662 557 Q 659 545 652 538 Q 641 523 622 517 L 620 518 Q 630 527 635 541 L 638 555 L 638 564 L 635 577 L 625 594 L 615 603 L 599 608 L 580 606 L 564 597 Q 552 587 549 570 L 549 551 L 551 543 Q 557 526 569 517 L 566 516 Z M 593 517 L 577 526 Q 565 536 561 554 L 561 567 L 567 581 Q 574 590 586 594 L 599 594 L 613 587 Q 622 580 625 568 L 625 551 Q 622 539 616 532 L 603 520 L 597 517 L 593 517 Z " /><path fill="rgb(0,0,0)" stroke="rgb(0,0,0)" stroke-width="1" opacity="0.9058823529411765" d="M 589.5 541 Q 601.5 540.5 606 547.5 Q 610.2 551.8 610 560.5 Q 608.3 569.8 601.5 574 Q 597.2 577.7 587.5 576 L 580 572 L 576 565.5 L 575 556.5 Q 576.5 548 582.5 544 L 589.5 541 Z " /><path fill="rgb(0,0,0)" stroke="rgb(0,0,0)" stroke-width="1" opacity="0.9058823529411765" d="M 873.5 550 L 874.5 552 L 873.5 550 Z " /><path fill="rgb(0,0,0)" stroke="rgb(0,0,0)" stroke-width="1" opacity="0" d="M 0 0 L 1181 0 L 1181 1181 L 0 1181 L 0 0 Z M 574 502 L 554 507 L 537 517 Q 516 533 510 564 L 510 582 L 513 597 Q 519 615 530 629 L 537 636 L 520 630 L 492 616 Q 442 585 389 557 L 364 547 L 347 543 L 332 543 L 320 547 L 320 548 L 327 546 L 343 546 L 351 548 Q 367 553 381 561 L 465 615 L 519 643 L 550 654 L 568 658 L 584 659 L 585 660 L 607 659 L 630 655 L 671 641 Q 702 626 731 609 L 803 562 L 825 551 L 845 545 L 860 545 L 865 547 L 867 547 L 855 542 L 835 543 L 803 554 L 761 576 L 692 617 Q 674 627 654 634 L 652 635 Q 662 624 669 610 L 674 596 L 676 586 L 676 563 L 674 554 Q 669 538 660 528 Q 644 508 615 503 L 599 503 L 598 504 L 587 502 L 574 502 Z " /><path fill="rgb(0,0,0)" stroke="rgb(0,0,0)" stroke-width="1" opacity="0" d="M 565.5 516 L 569 516.5 Q 556.6 526.1 551 542.5 L 549 550.5 L 549 569.5 Q 552.5 587 563.5 597 L 579.5 606 L 598.5 608 L 614.5 603 L 625 593.5 L 635 576.5 L 638 563.5 L 638 554.5 L 635 540.5 Q 629.7 526.8 620 517.5 L 621.5 517 Q 641 523 652 537.5 Q 658.7 545.3 662 556.5 L 664 565.5 L 664 582.5 Q 658.7 612.7 639.5 629 Q 627.9 639.9 610.5 645 L 606.5 646 L 584.5 646 L 562.5 639 Q 547.1 630.9 537 617.5 Q 528.2 606.3 524 590.5 L 523 579.5 L 522 578.5 L 522 567.5 L 524 556.5 L 529 544.5 L 542.5 528 Q 551.7 519.7 565.5 516 Z " /><path fill="rgb(0,0,0)" stroke="rgb(0,0,0)" stroke-width="1" opacity="0" d="M 592.5 517 L 596.5 517 L 602.5 520 L 616 531.5 Q 622.3 539.3 625 550.5 L 625 567.5 Q 621.6 580.1 612.5 587 L 598.5 594 L 585.5 594 Q 573.6 589.9 567 580.5 L 561 566.5 L 561 553.5 Q 564.6 535.6 576.5 526 L 592.5 517 Z M 590 541 L 583 544 Q 576 548 575 557 L 576 566 L 580 572 L 588 576 Q 597 578 602 574 Q 608 570 610 561 Q 610 552 606 548 Q 601 541 590 541 Z " /></svg>