<svg width="1181" height="1181" version="1.1" xmlns="http://www.w3.org/2000/svg" desc="Created with imagetracer.js version 1.2.6" ><path fill="rgb(0,0,0)" stroke="rgb(0,0,0)" stroke-width="1" opacity="0.8980392156862745" d="M 580.5 296 L 609.5 296 L 610.5 297 L 622.5 297 L 623.5 298 L 643.5 300 L 673.5 307 L 701.5 317 Q 760.1 341.9 800 385.5 Q 836.6 424.4 858 478.5 L 864 497.5 L 871 530.5 L 872 545.5 L 873 546.5 L 874 581.5 L 873 582.5 L 873 598.5 L 872 599.5 L 871 615.5 L 863.5 651 L 863 647.5 L 866 636.5 L 867 622.5 L 868 621.5 L 869 580.5 L 868 579.5 L 868 567.5 L 867 566.5 L 867 558.5 L 866 557.5 L 864 540.5 L 858 515.5 L 841 469.5 Q 815.1 412.4 770.5 374 Q 735.7 343.3 688.5 325 Q 666.9 316.6 641.5 312 L 620.5 310 L 619.5 309 L 596.5 308 L 594.5 308 L 570.5 309 L 569.5 310 L 548.5 312 Q 523.1 316.6 501.5 325 Q 458.8 341.3 427 368.5 Q 436.7 372.8 443 380.5 L 455 400.5 L 462 420.5 L 473 469.5 L 473 474.5 L 476 485.5 L 484 534.5 L 491 563.5 L 496.5 579 L 500 549.5 L 505 530.5 L 514 506.5 L 543 450.5 L 588 377.5 L 599 352.5 L 603 330.5 Q 600.3 328.8 602 322.5 L 598 313.5 L 600 314.5 L 604 325.5 L 604 343.5 L 601 356.5 L 593 377.5 L 574 414.5 L 534 483.5 Q 521.7 506.2 513 532.5 L 515 533 Q 519.2 523 527.5 516 Q 551.8 494.3 585.5 482 L 606.5 475 L 641.5 466 L 670.5 460 L 716.5 453 L 747.5 446 Q 763.5 441.5 776.5 434 L 790 422.5 L 794.5 414 L 795 415.5 Q 790.2 428.2 779.5 435 L 761.5 445 L 745.5 451 L 703.5 462 L 642.5 474 L 618.5 480 L 584.5 491 L 561 502 L 561.5 504 L 575.5 499 Q 581 500.5 582.5 498 L 602.5 498 L 630.5 503 L 664.5 515 L 720.5 544 Q 759.9 571.1 803.5 594 L 826.5 602 L 831.5 603 L 846.5 603 L 854.5 600 L 853.5 602 L 842.5 605 L 828.5 605 L 811.5 601 L 793.5 594 L 765.5 580 L 685.5 534 L 655.5 520 L 631.5 512 L 633.5 515 Q 646.4 521.6 655 532.5 L 671 555.5 L 685 585.5 L 693 609.5 L 702 645.5 L 708 675.5 L 715 721.5 L 721 747.5 L 731 773.5 Q 736.8 784.7 746.5 792 L 751 794.5 L 749.5 795 Q 740.1 790.4 734 782.5 L 722 761.5 L 713 735.5 L 705 703.5 L 693 642.5 L 687 618.5 L 680 595.5 L 672 575 L 670 575.5 L 670 596.5 L 665 621.5 L 659 639.5 L 645 670.5 L 622 710.5 L 588 760.5 L 567 796.5 L 558 822.5 L 558 838.5 L 560 844.5 L 559 844.5 L 556 834.5 L 556 820.5 L 561 801.5 L 576 769.5 L 632 677.5 L 647 647.5 L 649 640.5 L 640.5 648 L 620.5 662 Q 598.9 674.4 572.5 682 L 520.5 694 L 515.5 694 L 497.5 698 L 490.5 698 L 475.5 701 L 454.5 703 L 415.5 711 L 390.5 721 L 376 733.5 L 373 740.5 Q 391.2 768.3 415.5 790 Q 453 824.5 505.5 844 L 524.5 850 L 557.5 857 L 575.5 858 L 576.5 859 L 613.5 859 L 614.5 858 L 624.5 858 L 625.5 857 L 644.5 855 L 665.5 850 L 709.5 834 Q 761.9 810.4 799 771.5 Q 816.1 753.6 829.5 732 L 829 733.5 Q 805.2 775.2 770.5 806 Q 731.8 841.8 675.5 860 L 646.5 867 L 627.5 869 L 626.5 870 L 618.5 870 L 617.5 871 L 572.5 871 L 571.5 870 L 562.5 870 L 561.5 869 L 548.5 868 L 511.5 859 Q 482.8 849.7 458.5 836 Q 415.4 811.6 384 775.5 Q 350.7 737.8 331 686.5 L 322 658.5 L 315 623.5 L 314 605.5 L 313 604.5 L 313 563.5 L 314 562.5 L 314 552.5 L 315 551.5 L 317 531.5 L 323 505.5 Q 329.8 480.8 340 459.5 Q 365 407 405.5 370 Q 438.9 338.9 483.5 319 Q 505.8 309.3 531.5 303 L 552.5 299 L 566.5 298 L 567.5 297 L 579.5 297 L 580.5 296 Z M 425 370 L 420 374 Q 385 404 361 446 Q 346 472 336 505 L 328 540 L 327 555 L 327 556 L 331 555 L 348 555 L 374 563 L 409 581 L 487 629 L 528 649 L 530 649 L 527 646 Q 511 631 501 612 Q 491 593 485 572 L 479 550 L 472 516 L 466 471 L 465 470 L 464 456 L 458 423 L 449 395 L 442 383 L 432 372 L 425 370 Z M 567 516 L 549 526 Q 535 538 531 559 L 531 576 Q 533 587 539 595 Q 546 604 557 609 L 557 608 L 554 605 L 542 590 L 537 573 L 538 554 Q 541 540 549 532 Q 556 522 567 518 L 567 516 Z M 594 517 L 578 521 L 564 529 Q 549 539 545 561 Q 544 564 547 563 Q 549 551 556 543 L 573 528 L 585 523 L 596 521 L 616 523 L 633 530 L 638 534 L 639 534 Q 625 517 594 517 Z M 597 529 L 581 533 L 570 540 L 564 547 L 563 549 L 580 538 L 595 534 L 607 534 L 617 536 L 634 545 Q 649 557 655 579 L 656 579 L 654 568 L 645 552 Q 636 540 623 534 L 610 530 L 597 529 Z M 620 546 L 619 548 L 628 553 Q 637 561 642 574 L 646 592 Q 645 626 625 642 L 626 643 L 629 641 Q 644 628 649 606 L 649 588 L 647 579 Q 643 567 636 559 Q 629 551 620 546 Z M 334 556 Q 332 558 328 557 L 326 559 Q 328 565 325 567 L 325 601 L 326 602 L 326 613 L 327 614 L 329 634 L 335 660 Q 348 703 370 737 L 373 738 L 376 732 L 393 717 Q 406 710 422 705 L 475 693 L 480 693 L 491 690 L 540 682 L 561 677 L 579 671 Q 581 672 580 669 L 566 668 L 547 664 L 512 651 Q 484 638 459 622 L 381 571 L 354 559 L 334 556 Z M 580 557 L 568 563 Q 561 568 558 578 L 559 590 L 563 599 Q 568 606 578 608 L 590 608 L 601 604 Q 610 597 612 583 L 612 576 L 609 570 Q 604 562 595 558 Q 589 556 580 557 Z M 631 570 L 635 585 L 635 605 L 634 609 L 624 629 Q 611 644 589 650 L 589 651 Q 606 649 617 639 Q 626 631 632 620 L 637 605 L 637 596 L 638 595 L 636 581 L 631 570 Z M 526 588 Q 528 601 536 611 Q 546 624 566 628 L 585 627 L 598 621 L 599 619 L 591 621 L 567 621 Q 552 618 543 610 Q 532 602 527 590 Q 528 587 526 588 Z M 614 617 L 612 620 Q 601 632 582 636 L 572 636 L 571 638 L 589 637 L 605 629 L 615 618 L 614 617 Z M 565 636 L 565 637 L 568 637 L 565 636 Z " /><path fill="rgb(0,0,0)" stroke="rgb(0,0,0)" stroke-width="1" opacity="0.8980392156862745" d="M 832.5 727 L 831.5 729 L 832.5 727 Z " /><path fill="rgb(0,0,0)" stroke="rgb(0,0,0)" stroke-width="1" opacity="0" d="M 0 0 L 1181 0 L 1181 1181 L 0 1181 L 0 0 Z M 581 296 L 580 297 L 568 297 L 567 298 L 553 299 L 532 303 Q 506 309 484 319 Q 439 339 406 370 Q 365 407 340 460 Q 330 481 323 506 L 317 532 L 315 552 L 314 553 L 314 563 L 313 564 L 313 605 L 314 606 L 315 624 L 322 659 L 331 687 Q 351 738 384 776 Q 415 812 459 836 Q 483 850 512 859 L 549 868 L 562 869 L 563 870 L 572 870 L 573 871 L 618 871 L 619 870 L 627 870 L 628 869 L 647 867 L 676 860 Q 732 842 771 806 Q 800 780 822 746 L 822 744 L 799 772 Q 762 810 710 834 L 666 850 L 645 855 L 626 857 L 625 858 L 615 858 L 614 859 L 577 859 L 576 858 L 558 857 L 525 850 L 506 844 Q 453 825 416 790 Q 391 768 373 741 Q 374 737 372 738 L 358 717 L 340 676 L 329 634 L 327 614 L 326 613 L 326 602 L 325 601 L 325 567 Q 328 565 326 559 L 328 557 Q 332 558 334 556 L 354 559 L 381 571 L 459 622 Q 484 638 512 651 L 540 662 L 555 666 L 573 668 L 574 669 Q 581 668 580 671 L 540 682 L 491 690 L 480 693 L 475 693 L 422 705 Q 406 710 393 717 L 376 732 L 377 733 L 391 721 L 416 711 L 455 703 L 476 701 L 491 698 L 498 698 L 516 694 L 521 694 L 573 682 Q 599 674 621 662 L 641 648 L 649 641 L 647 648 L 632 678 L 576 770 L 561 802 L 556 821 L 556 835 L 558 843 L 559 843 L 558 839 L 558 823 L 567 797 L 588 761 L 622 711 L 645 671 L 659 640 L 665 622 L 670 597 L 670 576 L 672 575 L 680 596 L 687 619 L 693 643 L 705 704 L 713 736 L 722 762 L 734 783 L 745 792 L 746 792 Q 737 784 731 774 L 721 748 L 715 722 L 708 676 L 702 646 L 693 610 L 685 586 L 671 556 L 655 533 Q 646 522 634 515 L 632 512 L 656 520 L 686 534 L 766 580 L 794 594 L 812 601 L 829 605 L 843 605 L 851 603 L 851 602 L 847 603 L 832 603 L 827 602 L 804 594 Q 760 571 721 544 L 665 515 L 631 503 L 603 498 L 583 498 Q 581 501 576 499 L 562 504 L 561 502 L 585 491 L 619 480 L 643 474 L 704 462 L 746 451 L 762 445 L 780 435 L 792 422 L 792 420 L 790 423 L 777 434 Q 763 441 748 446 L 717 453 L 671 460 L 642 466 L 607 475 L 586 482 Q 552 494 528 516 Q 519 523 515 533 L 513 533 Q 522 506 534 484 L 574 415 L 593 378 L 601 357 L 604 344 L 604 326 L 602 320 L 601 320 L 603 331 L 599 353 L 588 378 L 543 451 L 514 507 L 505 531 L 500 550 L 497 579 L 491 564 L 484 535 L 476 486 L 473 475 L 473 470 L 462 421 L 455 401 L 443 381 L 434 372 L 432 373 L 446 389 L 456 415 L 464 456 L 465 470 L 466 471 L 472 516 L 479 550 L 485 572 Q 492 593 501 612 L 520 640 L 528 646 L 530 649 L 516 644 L 487 629 L 400 576 L 374 563 L 348 555 L 331 555 L 330 556 L 326 556 L 327 555 L 327 547 L 330 534 L 330 529 L 334 512 L 348 472 Q 366 431 393 401 L 420 374 L 425 370 L 428 370 L 427 369 Q 459 341 502 325 Q 523 317 549 312 L 570 310 L 571 309 L 595 308 L 597 308 L 620 309 L 621 310 L 642 312 Q 667 317 689 325 Q 736 343 771 374 Q 815 412 841 470 L 858 516 L 864 541 L 866 558 L 867 559 L 867 567 L 868 568 L 868 580 L 869 581 L 869 610 L 868 611 L 868 622 L 867 623 L 866 637 L 864 643 L 865 647 L 871 616 L 872 600 L 873 599 L 873 583 L 874 582 L 873 547 L 872 546 L 871 531 L 864 498 L 858 479 Q 837 424 800 386 Q 760 342 702 317 L 674 307 L 644 300 L 624 298 L 623 297 L 611 297 L 610 296 L 581 296 Z M 601 316 L 600 319 L 601 319 L 601 316 Z M 852 601 L 852 602 L 854 602 L 852 601 Z M 864 647 L 863 651 L 864 651 L 864 647 Z M 376 733 L 374 736 L 376 735 L 376 733 Z M 826 738 L 824 741 L 826 740 L 826 738 Z M 824 741 L 822 744 L 824 743 L 824 741 Z M 747 792 L 748 794 L 749 794 L 747 792 Z " /><path fill="rgb(0,0,0)" stroke="rgb(0,0,0)" stroke-width="1" opacity="0" d="M 566.5 516 L 567 518 Q 556.1 522.4 549 531.5 Q 541.3 540.3 538 553.5 L 537 572.5 L 542 589.5 L 553.5 605 L 557 607.5 L 556.5 609 Q 545.6 603.9 539 594.5 Q 533.3 586.7 531 575.5 L 531 558.5 Q 535.3 537.8 548.5 526 L 566.5 516 Z " /><path fill="rgb(0,0,0)" stroke="rgb(0,0,0)" stroke-width="1" opacity="0" d="M 593.5 517 Q 626.7 516.8 641 535.5 L 638.5 534 Q 628.9 526.6 615.5 523 L 595.5 521 L 584.5 523 L 572.5 528 L 556 542.5 Q 549.1 550.9 547 563 Q 544 564.3 545 560.5 Q 548.6 539.1 563.5 529 L 577.5 521 L 593.5 517 Z " /><path fill="rgb(0,0,0)" stroke="rgb(0,0,0)" stroke-width="1" opacity="0" d="M 596.5 529 L 609.5 530 L 622.5 534 Q 636.1 540.4 645 551.5 L 654 567.5 L 656 578.5 L 655 578.5 Q 649.1 556.9 633.5 545 L 616.5 536 L 606.5 534 L 594.5 534 L 579.5 538 L 562.5 549 L 564 546.5 L 569.5 540 L 580.5 533 L 596.5 529 Z " /><path fill="rgb(0,0,0)" stroke="rgb(0,0,0)" stroke-width="1" opacity="0" d="M 619.5 546 Q 629.4 550.6 636 558.5 Q 643.1 566.9 647 578.5 L 649 587.5 L 649 605.5 Q 644 628.5 628.5 641 L 625.5 643 L 625 641.5 Q 644.8 625.8 646 591.5 L 642 573.5 Q 636.8 561.2 627.5 553 L 619 548 L 619.5 546 Z " /><path fill="rgb(0,0,0)" stroke="rgb(0,0,0)" stroke-width="1" opacity="0" d="M 579.5 557 Q 589 555.5 594.5 558 Q 603.9 561.6 609 569.5 L 612 575.5 L 612 582.5 Q 609.6 596.6 600.5 604 L 589.5 608 L 577.5 608 Q 567.5 606 563 598.5 L 559 589.5 L 558 577.5 Q 560.8 568.3 567.5 563 L 579.5 557 Z " /><path fill="rgb(0,0,0)" stroke="rgb(0,0,0)" stroke-width="1" opacity="0" d="M 629.5 569 L 636 580.5 L 638 594.5 L 637 595.5 L 637 604.5 L 632 619.5 Q 626.2 631.2 616.5 639 Q 606.3 648.8 588.5 651 L 588.5 650 Q 611.4 644.4 624 628.5 L 634 608.5 L 635 604.5 L 635 584.5 L 629.5 569 Z " /><path fill="rgb(0,0,0)" stroke="rgb(0,0,0)" stroke-width="1" opacity="0" d="M 525.5 588 Q 527.8 587.3 527 589.5 Q 532.4 602.1 542.5 610 Q 552.2 617.8 566.5 621 L 590.5 621 L 599.5 618 L 597.5 621 L 584.5 627 L 565.5 628 Q 545.7 624.3 536 610.5 Q 527.5 601.1 525.5 588 Z " /><path fill="rgb(0,0,0)" stroke="rgb(0,0,0)" stroke-width="1" opacity="0" d="M 613.5 617 L 615 617.5 L 604.5 629 L 588.5 637 L 571 638 L 571.5 636 L 581.5 636 Q 600.9 631.9 612 619.5 L 613.5 617 Z " /><path fill="rgb(0,0,0)" stroke="rgb(0,0,0)" stroke-width="1" opacity="0" d="M 564.5 636 L 568 636.5 L 564.5 637 L 564.5 636 Z " /></svg>