<svg width="1181" height="1181" version="1.1" xmlns="http://www.w3.org/2000/svg" desc="Created with imagetracer.js version 1.2.6" ><path fill="rgb(0,0,0)" stroke="rgb(0,0,0)" stroke-width="1" opacity="0.8705882352941177" d="M 596.5 418 L 600.5 419 L 901 590 L 902 595.5 L 755.5 682 L 609.5 763 L 610.5 761 L 743.5 679 L 876.5 602 L 889 593.5 L 596.5 427 L 303 590.5 Q 302.3 592.8 304.5 592 L 449.5 679 L 581 762.5 L 579.5 762 L 444.5 686 L 290 592.5 Q 289 588 291.5 587 L 596.5 418 Z " /><path fill="rgb(0,0,0)" stroke="rgb(0,0,0)" stroke-width="1" opacity="0.8705882352941177" d="M 585.5 470 L 609.5 471 L 627.5 475 L 638.5 479 Q 664.7 489.8 682 509.5 Q 702.1 531.9 708 568.5 L 707 568.5 Q 704.3 552.7 697 541.5 Q 686.8 524.2 672.5 511 Q 655.8 494.2 631.5 485 L 607.5 479 L 587.5 478 L 586.5 479 L 570.5 480 L 545.5 488 Q 521.2 499.2 505 518.5 Q 492.5 533 485 552.5 L 479 575.5 L 478 599.5 L 479 600.5 L 480 614.5 L 488 639.5 Q 498.7 662.3 516.5 678 Q 533.1 692.9 556.5 701 L 579.5 706 L 605.5 706 L 624.5 702 L 646.5 693 Q 669.1 680.1 685 660.5 Q 700.8 642.8 707.5 616 L 708 619.5 Q 699.6 660.6 673.5 684 Q 655.3 700.3 629.5 709 L 606.5 714 L 577.5 714 Q 524.2 704.8 497 669.5 Q 481.7 650.8 474 624.5 L 470 601.5 L 470 582.5 L 471 581.5 L 472 568.5 L 479 545.5 Q 490.1 519.6 509.5 502 Q 524.1 488.6 543.5 480 L 564.5 473 L 575.5 471 L 584.5 471 L 585.5 470 Z " /><path fill="rgb(0,0,0)" stroke="rgb(0,0,0)" stroke-width="1" opacity="0.8705882352941177" d="M 587.5 556 L 603.5 557 Q 614.4 560.6 621 568.5 L 628 581.5 L 629 597.5 Q 625.8 613.3 614.5 621 Q 606.4 627.9 591.5 628 L 576.5 624 L 565 614.5 Q 557.5 606 557 590.5 Q 559.5 589 558 583.5 L 562 573.5 L 571.5 563 Q 577.9 557.9 587.5 556 Z " /><path fill="rgb(0,0,0)" stroke="rgb(0,0,0)" stroke-width="1" opacity="0.8705882352941177" d="M 708.5 611 L 709 613.5 L 708 613.5 L 708.5 611 Z " /><path fill="rgb(0,0,0)" stroke="rgb(0,0,0)" stroke-width="1" opacity="0" d="M 0 0 L 1181 0 L 1181 1181 L 0 1181 L 0 0 Z M 597 418 L 292 587 Q 289 588 290 593 L 445 686 L 572 758 L 573 758 L 450 679 L 305 592 Q 302 593 303 591 L 597 427 L 889 594 L 877 602 L 744 679 L 619 756 L 618 758 L 742 690 L 902 596 L 901 590 L 601 419 L 597 418 Z M 586 470 L 585 471 L 576 471 L 565 473 L 544 480 Q 524 489 510 502 Q 490 520 479 546 L 472 569 L 471 582 L 470 583 L 470 602 L 474 625 Q 482 651 497 670 Q 524 705 578 714 L 607 714 L 630 709 Q 655 700 674 684 Q 698 662 707 625 L 707 620 Q 700 644 685 661 Q 669 680 647 693 L 625 702 L 606 706 L 580 706 L 557 701 Q 533 693 517 678 Q 499 662 488 640 L 480 615 L 479 601 L 478 600 L 479 576 L 485 553 Q 492 533 505 519 Q 521 499 546 488 L 571 480 L 587 479 L 588 478 L 608 479 L 632 485 Q 656 494 673 511 Q 685 522 694 537 L 703 554 L 706 565 L 707 565 L 704 550 L 699 537 Q 692 521 682 510 Q 665 490 639 479 L 628 475 L 610 471 L 586 470 Z M 588 556 Q 578 558 572 563 L 562 574 L 558 584 Q 560 589 557 591 Q 557 606 565 615 L 577 624 L 592 628 Q 606 628 615 621 Q 626 613 629 598 L 628 582 L 621 569 Q 614 561 604 557 L 588 556 Z M 708 565 L 707 569 L 708 569 L 708 565 Z M 709 611 L 708 614 L 709 614 L 709 611 Z M 708 616 L 707 620 L 708 620 L 708 616 Z M 576 759 L 577 761 L 578 761 L 576 759 Z " /></svg>