<svg width="1181" height="1181" version="1.1" xmlns="http://www.w3.org/2000/svg" desc="Created with imagetracer.js version 1.2.6" ><path fill="rgb(0,0,0)" stroke="rgb(0,0,0)" stroke-width="1" opacity="0.8823529411764706" d="M 674.5 349 Q 684.1 353.9 690 362.5 Q 695.3 368.2 697 377.5 Q 695.8 382.3 698 383.5 L 698 400.5 L 692 420.5 L 679.5 436 L 662.5 446 Q 646.4 449.4 634.5 457 Q 623.8 463.3 616 472.5 L 609 486.5 L 609 491.5 L 607 497.5 L 607 510.5 L 608 514 Q 632.6 520.1 647 537.5 Q 656.4 547.6 662 561.5 L 665 573.5 L 666 589.5 L 665 590.5 L 665 599.5 L 663.5 606 Q 661.1 557.4 632.5 535 Q 620.3 524.7 602.5 520 Q 597.8 521.3 596.5 519 L 575.5 519 Q 544 525.5 528 547.5 Q 520.3 557.3 516 570.5 L 513 584.5 L 513 602.5 Q 518.3 634.3 538.5 651 Q 547.5 659 559.5 664 L 573.5 668 L 592.5 669 L 607.5 666 L 628.5 657 Q 641.3 649.8 650 638.5 L 652.5 635 L 652 636.5 Q 645.8 649.8 635.5 659 Q 632.9 658.3 634 661 Q 653 662.9 662 675.5 Q 669.5 684.5 673 697.5 Q 675.7 705.8 674 718.5 L 668 738.5 L 655 764.5 Q 652.6 771.6 654 782.5 Q 658.5 800 670.5 810 L 687.5 822 L 705 829.5 L 698.5 831 L 688.5 831 L 677.5 829 L 671.5 826 L 655 811.5 L 644 792.5 L 641 775.5 L 645 755.5 L 656 735.5 L 660 724.5 L 662 715.5 L 662 704.5 Q 660.1 692.9 654 685.5 L 634.5 664 L 631.5 662 Q 614.3 678.3 579.5 677 L 563.5 674 L 556.5 671 L 558 673.5 L 564 687.5 L 565 700.5 Q 562.6 715.1 556 725.5 L 544.5 738 Q 527.2 751.2 500.5 755 Q 489.2 759.2 482 767.5 L 473 785.5 L 472 790.5 L 472 807.5 L 474 813.5 L 474 820.5 L 476 828.5 L 480 837.5 L 478.5 837 L 469 828.5 L 461 814.5 L 459 796.5 L 460 795.5 L 460 787.5 L 465 771.5 Q 470.6 759.6 480.5 752 L 492.5 745 L 521.5 737 Q 533.7 732.2 542 723.5 Q 549.1 715.6 552 703.5 L 553 691.5 L 554 690.5 L 554 670.5 Q 535.1 661.9 523 646.5 L 515.5 635 L 509 652.5 L 500.5 662 Q 492.1 669.1 480.5 673 L 471.5 675 L 458.5 675 L 438.5 670 L 416.5 659 L 408.5 657 L 396.5 657 Q 376.5 662 366 676.5 L 352 700.5 L 350 709 Q 346 710.4 348 703.5 L 347 702.5 L 347 691.5 Q 350.6 670.6 364.5 660 Q 374.6 650.6 389.5 646 Q 397.8 643.3 410.5 645 L 424.5 649 Q 436 656.5 450.5 661 L 468.5 663 L 484.5 658 Q 498.7 648.2 510 635.5 L 513 629.5 Q 502.5 612.5 505 582.5 L 508 570 L 496.5 579 L 487.5 582 L 478.5 584 L 461.5 584 L 451.5 582 L 441.5 578 L 427 566.5 L 420 556.5 Q 414.9 541.1 407 528.5 L 392.5 511 L 376.5 502 L 351.5 501 L 344.5 503 L 348.5 498 L 361.5 491 L 372.5 489 L 382.5 491 L 389.5 494 Q 401.6 500.8 410 511.5 L 423 531.5 L 432 552.5 L 442.5 564 Q 453.9 573.1 475.5 572 L 500.5 565 Q 508.3 562.8 513 557.5 Q 520.4 539.9 534.5 529 L 544 522.5 Q 526.6 520.4 517 510.5 Q 506.2 497.8 507 473.5 L 508 472.5 L 508 465.5 L 510 455.5 Q 514.6 439.1 522 425.5 L 524 410.5 Q 520.2 388.8 505.5 378 L 481.5 364 L 470 361 Q 468.6 357.3 474.5 359 L 475.5 358 L 493.5 358 Q 513.1 364.4 524 379.5 Q 531.5 388.5 535 401.5 L 536 418.5 L 532 434.5 Q 524.3 446.3 521 462.5 L 520 467.5 L 520 487.5 L 525 500.5 L 539.5 517 L 546.5 521 Q 555.7 514.7 568.5 512 Q 573.2 513.3 574.5 511 L 598.5 511 L 604 512 L 597 495.5 L 597 483.5 Q 603.1 463.6 618.5 453 L 638.5 441 L 665.5 431 L 678 419.5 L 685 403.5 L 686 385.5 L 682 371.5 L 682 367.5 L 674.5 349 Z " /><path fill="rgb(0,0,0)" stroke="rgb(0,0,0)" stroke-width="1" opacity="0.8823529411764706" d="M 653.5 390 L 657.5 391 L 661 394.5 L 662 401.5 L 658.5 406 L 650.5 407 L 646 403.5 L 645 396.5 L 649.5 391 L 653.5 390 Z " /><path fill="rgb(0,0,0)" stroke="rgb(0,0,0)" stroke-width="1" opacity="0.8823529411764706" d="M 487.5 401 Q 496.5 399.5 499 404.5 L 500 410.5 L 496.5 416 L 487.5 417 Q 481.5 415.5 483 406.5 L 487.5 401 Z " /><path fill="rgb(0,0,0)" stroke="rgb(0,0,0)" stroke-width="1" opacity="0.8823529411764706" d="M 816 467 Q 819.3 465.7 818 470.5 Q 821.7 477.8 820 490.5 Q 814.5 509 801.5 520 L 782.5 532 L 769.5 535 L 760.5 535 L 749.5 533 L 722.5 523 L 711.5 521 L 695.5 521 L 680.5 526 L 663 542.5 L 658.5 549 L 658 542.5 Q 660 531.5 665 523.5 L 670.5 518 Q 685 506 714.5 509 L 732.5 513 L 755.5 522 L 773.5 522 Q 790.5 516.5 800 503.5 L 813 479.5 L 816 467 Z " /><path fill="rgb(0,0,0)" stroke="rgb(0,0,0)" stroke-width="1" opacity="0.8823529411764706" d="M 542.5 470 Q 549.4 469.3 552 472 Q 554.6 474.3 554 480.5 L 549.5 486 L 543.5 487 L 538 483.5 L 537 475.5 L 540.5 471 L 542.5 470 Z " /><path fill="rgb(0,0,0)" stroke="rgb(0,0,0)" stroke-width="1" opacity="0.8823529411764706" d="M 637.5 477 Q 644.8 476.8 647 481.5 L 648 487.5 L 646 492 L 642.5 494 L 636.5 494 L 632 490.5 L 631 482.5 L 633.5 479 L 637.5 477 Z " /><path fill="rgb(0,0,0)" stroke="rgb(0,0,0)" stroke-width="1" opacity="0.8823529411764706" d="M 768.5 481 Q 774.9 481.7 777 486.5 L 777 493.5 L 775 497 Q 772.3 498.9 765.5 498 L 761 493.5 L 760 489.5 L 763.5 483 L 768.5 481 Z " /><path fill="rgb(0,0,0)" stroke="rgb(0,0,0)" stroke-width="1" opacity="0.8823529411764706" d="M 372.5 526 Q 378.9 526.1 381 530.5 L 382 536.5 L 378.5 542 L 369.5 543 Q 363.9 541.1 365 532.5 L 369.5 527 L 372.5 526 Z " /><path fill="rgb(0,0,0)" stroke="rgb(0,0,0)" stroke-width="1" opacity="0.8823529411764706" d="M 465.5 538 Q 471.9 537.6 474 541.5 L 475 550.5 Q 473.3 556.8 463.5 555 Q 457.3 553.3 459 543.5 L 461.5 540 L 465.5 538 Z " /><path fill="rgb(0,0,0)" stroke="rgb(0,0,0)" stroke-width="1" opacity="0.8823529411764706" d="M 699.5 538 Q 707.4 537.1 709 542.5 L 710 549.5 L 706.5 554 L 698.5 555 Q 693.3 552.8 693 545.5 L 697.5 539 L 699.5 538 Z " /><path fill="rgb(0,0,0)" stroke="rgb(0,0,0)" stroke-width="1" opacity="0.8823529411764706" d="M 585.5 576 Q 598.1 575.4 602 583.5 Q 605 587.5 605 594.5 Q 603.3 603.8 596.5 608 Q 592.1 611.1 583.5 610 L 574 603.5 Q 570.1 599.4 571 590.5 Q 573.2 582.2 579.5 578 L 585.5 576 Z " /><path fill="rgb(0,0,0)" stroke="rgb(0,0,0)" stroke-width="1" opacity="0.8823529411764706" d="M 687.5 604 L 697.5 604 L 709.5 608 Q 720.2 613.8 728 622.5 Q 743.6 640.4 752 665.5 L 761.5 677 L 773.5 684 L 781.5 686 L 799.5 686 L 822.5 679 L 835.5 672 L 835 673.5 Q 829.9 684.4 820.5 691 L 813.5 695 L 802.5 698 L 787.5 699 L 786.5 698 L 774.5 697 L 761.5 692 L 745 677.5 L 739 667.5 L 729 644.5 Q 721.9 632.6 711.5 624 L 698.5 617 L 676.5 615 L 665.5 617 L 667.5 614 Q 675.5 607 687.5 604 Z " /><path fill="rgb(0,0,0)" stroke="rgb(0,0,0)" stroke-width="1" opacity="0.8823529411764706" d="M 662.5 607 L 663 609.5 L 662 609.5 L 662.5 607 Z " /><path fill="rgb(0,0,0)" stroke="rgb(0,0,0)" stroke-width="1" opacity="0.8823529411764706" d="M 466.5 628 Q 475.1 626.9 477 632.5 L 478 638.5 L 473.5 644 L 467.5 645 L 463 643 L 461 639.5 L 461 633.5 L 464.5 629 L 466.5 628 Z " /><path fill="rgb(0,0,0)" stroke="rgb(0,0,0)" stroke-width="1" opacity="0.8823529411764706" d="M 694.5 638 Q 702.8 636.7 705 641.5 L 706 648.5 L 701.5 654 L 695.5 655 L 690 650.5 L 689 644.5 L 692.5 639 L 694.5 638 Z " /><path fill="rgb(0,0,0)" stroke="rgb(0,0,0)" stroke-width="1" opacity="0.8823529411764706" d="M 782.5 646 Q 791.1 644.9 793 650.5 Q 794.5 659.5 789.5 662 L 782.5 663 L 778 659.5 L 777 651.5 L 780.5 647 L 782.5 646 Z " /><path fill="rgb(0,0,0)" stroke="rgb(0,0,0)" stroke-width="1" opacity="0.8823529411764706" d="M 395.5 677 Q 404.1 675.9 406 681.5 L 407 686.5 L 402.5 693 L 395.5 694 L 391 690.5 L 390 682.5 L 393.5 678 L 395.5 677 Z " /><path fill="rgb(0,0,0)" stroke="rgb(0,0,0)" stroke-width="1" opacity="0.8823529411764706" d="M 521.5 696 Q 530.1 694.9 532 700.5 L 533 705.5 L 528.5 712 L 522.5 713 L 517 709.5 L 516 700.5 L 521.5 696 Z " /><path fill="rgb(0,0,0)" stroke="rgb(0,0,0)" stroke-width="1" opacity="0.8823529411764706" d="M 633.5 698 Q 642.1 696.9 644 702.5 Q 645.5 710.5 641.5 713 Q 639.2 715.7 633.5 715 L 628 710.5 L 627 705.5 L 631.5 699 L 633.5 698 Z " /><path fill="rgb(0,0,0)" stroke="rgb(0,0,0)" stroke-width="1" opacity="0.8823529411764706" d="M 679.5 771 Q 688.1 769.9 690 775.5 L 691 780.5 L 686.5 787 L 680.5 788 L 675 784.5 L 674 776.5 L 677.5 772 L 679.5 771 Z " /><path fill="rgb(0,0,0)" stroke="rgb(0,0,0)" stroke-width="1" opacity="0.8823529411764706" d="M 501.5 779 L 505.5 780 L 510 784.5 Q 511.8 794.3 505.5 796 L 498.5 796 L 495 794 L 493 786.5 L 497.5 780 L 501.5 779 Z " /><path fill="rgb(0,0,0)" stroke="rgb(0,0,0)" stroke-width="1" opacity="0" d="M 0 0 L 1181 0 L 1181 1181 L 0 1181 L 0 0 Z M 675 350 L 682 368 L 682 372 L 686 386 L 685 404 L 678 420 L 666 431 L 639 441 L 619 453 Q 603 464 597 484 L 597 496 L 604 512 L 599 511 L 575 511 Q 573 513 569 512 Q 556 515 547 521 L 540 517 L 525 501 L 520 488 L 520 468 L 521 463 Q 524 446 532 435 L 536 419 L 535 402 Q 532 388 524 380 Q 513 364 494 358 L 476 358 L 475 359 Q 469 357 470 361 L 482 364 L 506 378 Q 520 389 524 411 L 522 426 Q 515 439 510 456 L 508 466 L 508 473 L 507 474 Q 506 498 517 511 Q 527 520 544 523 L 535 529 Q 520 540 513 558 Q 508 563 501 565 L 476 572 Q 454 573 443 564 L 432 553 L 423 532 L 410 512 Q 402 501 390 494 L 383 491 L 373 489 L 362 491 L 349 498 L 345 503 L 352 501 L 377 502 L 393 511 L 407 529 Q 415 541 420 557 L 427 567 L 442 578 L 452 582 L 462 584 L 479 584 L 488 582 L 497 579 L 508 570 L 505 583 Q 503 612 513 630 L 510 636 Q 499 648 485 658 L 469 663 L 451 661 Q 436 657 425 649 L 411 645 Q 398 643 390 646 Q 375 651 365 660 Q 351 671 347 692 L 347 703 L 348 704 Q 346 710 350 709 L 352 701 L 366 677 Q 377 662 397 657 L 409 657 L 417 659 L 439 670 L 459 675 L 472 675 L 481 673 Q 492 669 501 662 L 509 653 L 516 635 L 523 647 Q 535 662 554 671 L 554 691 L 553 692 L 552 704 Q 549 716 542 724 Q 534 732 522 737 L 493 745 L 481 752 Q 471 760 465 772 L 460 788 L 460 796 L 459 797 L 461 815 L 469 829 L 479 837 L 480 838 L 476 829 L 474 821 L 474 814 L 472 808 L 472 791 L 473 786 L 482 768 Q 489 759 501 755 Q 527 751 545 738 L 556 726 Q 563 715 565 701 L 564 688 L 558 674 L 557 671 L 564 674 L 580 677 Q 614 678 632 662 L 635 664 L 654 686 Q 660 693 662 705 L 662 716 L 660 725 L 656 736 L 645 756 L 641 776 L 644 793 L 655 812 L 672 826 L 678 829 L 689 831 L 699 831 L 705 830 L 688 822 L 671 810 Q 658 800 654 783 Q 653 772 655 765 L 668 739 L 674 719 Q 676 706 673 698 Q 670 684 662 676 Q 653 663 634 661 Q 633 658 636 659 L 650 641 L 650 639 Q 641 650 629 657 L 608 666 L 593 669 L 574 668 L 560 664 Q 548 659 539 651 Q 518 634 513 603 L 513 585 L 516 571 Q 520 557 528 548 Q 544 525 576 519 L 597 519 Q 598 521 603 520 Q 620 525 633 535 Q 661 557 664 606 L 665 600 L 665 591 L 666 590 L 665 574 L 662 562 Q 656 548 647 538 Q 633 520 608 514 L 607 511 L 607 498 L 609 492 L 609 487 L 616 473 Q 624 463 635 457 Q 646 449 663 446 L 680 436 L 692 421 L 698 401 L 698 384 Q 696 382 697 378 Q 695 368 690 363 L 680 352 L 675 350 Z M 654 390 L 650 391 L 645 397 L 646 404 L 651 407 L 659 406 L 662 402 L 661 395 L 658 391 L 654 390 Z M 488 401 L 483 407 Q 482 416 488 417 L 497 416 L 500 411 L 499 405 Q 497 399 488 401 Z M 816 467 L 813 480 L 800 504 Q 791 517 774 522 L 756 522 L 733 513 L 715 509 Q 685 506 671 518 L 665 524 Q 660 531 658 543 L 659 549 L 663 543 L 681 526 L 696 521 L 712 521 L 723 523 L 750 533 L 761 535 L 770 535 L 783 532 L 802 520 Q 814 509 820 491 Q 822 478 818 471 Q 819 466 816 467 Z M 543 470 L 541 471 L 537 476 L 538 484 L 544 487 L 550 486 L 554 481 Q 555 474 552 472 Q 549 469 543 470 Z M 638 477 L 634 479 L 631 483 L 632 491 L 637 494 L 643 494 L 646 492 L 648 488 L 647 482 Q 645 477 638 477 Z M 769 481 L 764 483 L 760 490 L 761 494 L 766 498 Q 772 499 775 497 L 777 494 L 777 487 Q 775 482 769 481 Z M 373 526 L 370 527 L 365 533 Q 364 541 370 543 L 379 542 L 382 537 L 381 531 Q 379 526 373 526 Z M 466 538 L 462 540 L 459 544 Q 457 553 464 555 Q 473 557 475 551 L 474 542 Q 472 538 466 538 Z M 700 538 L 698 539 L 693 546 Q 693 553 699 555 L 707 554 L 710 550 L 709 543 Q 707 537 700 538 Z M 586 576 L 580 578 Q 573 582 571 591 Q 570 599 574 604 L 584 610 Q 592 611 597 608 Q 603 604 605 595 Q 605 588 602 584 Q 598 575 586 576 Z M 688 604 Q 676 607 668 614 L 666 617 L 677 615 L 699 617 L 712 624 Q 722 633 729 645 L 739 668 L 745 678 L 762 692 L 775 697 L 787 698 L 788 699 L 803 698 L 814 695 L 821 691 Q 831 684 835 673 L 823 679 L 800 686 L 782 686 L 774 684 L 762 677 L 752 666 Q 744 640 728 623 Q 720 614 710 608 L 698 604 L 688 604 Z M 663 607 L 662 610 L 663 610 L 663 607 Z M 467 628 L 465 629 L 461 634 L 461 640 L 463 643 L 468 645 L 474 644 L 478 639 L 477 633 Q 475 627 467 628 Z M 652 636 L 650 639 L 652 638 L 652 636 Z M 695 638 L 693 639 L 689 645 L 690 651 L 696 655 L 702 654 L 706 649 L 705 642 Q 703 637 695 638 Z M 783 646 L 781 647 L 777 652 L 778 660 L 783 663 L 790 662 Q 795 660 793 651 Q 791 645 783 646 Z M 396 677 L 394 678 L 390 683 L 391 691 L 396 694 L 403 693 L 407 687 L 406 682 Q 404 676 396 677 Z M 522 696 L 516 701 L 517 710 L 523 713 L 529 712 L 533 706 L 532 701 Q 530 695 522 696 Z M 634 698 L 632 699 L 627 706 L 628 711 L 634 715 Q 639 716 642 713 Q 645 710 644 703 Q 642 697 634 698 Z M 680 771 L 678 772 L 674 777 L 675 785 L 681 788 L 687 787 L 691 781 L 690 776 Q 688 770 680 771 Z M 502 779 L 498 780 L 493 787 L 495 794 L 499 796 L 506 796 Q 512 794 510 785 L 506 780 L 502 779 Z " /></svg>