<svg width="1181" height="1181" version="1.1" xmlns="http://www.w3.org/2000/svg" desc="Created with imagetracer.js version 1.2.6" ><path fill="rgb(0,0,0)" stroke="rgb(0,0,0)" stroke-width="1" opacity="0" d="M 0 0 L 1181 0 L 1181 1181 L 0 1181 L 0 0 Z M 590 318 L 584 326 L 586 332 L 591 334 L 589 366 L 588 367 L 588 378 L 587 379 L 587 389 L 586 390 L 586 530 L 587 531 L 587 573 L 586 574 L 457 446 L 412 410 L 413 407 L 412 399 L 407 395 L 402 396 L 397 403 L 398 408 L 405 412 L 411 411 L 444 452 L 577 584 L 533 584 L 532 585 L 385 585 L 384 586 L 373 586 L 372 587 L 342 589 L 341 590 L 333 590 L 332 588 Q 330 583 322 584 Q 315 586 317 596 L 323 600 L 329 599 Q 333 597 333 592 L 352 593 L 353 594 L 363 594 L 364 595 L 375 595 L 376 596 L 387 596 L 388 597 L 577 598 L 445 731 L 408 776 Q 406 774 401 775 Q 394 777 396 787 L 402 791 L 408 790 L 412 785 Q 412 779 409 777 L 458 736 L 587 606 L 587 798 L 588 799 L 591 841 L 592 842 L 592 851 L 591 851 Q 584 853 586 863 L 592 867 Q 598 868 600 865 L 602 861 L 601 855 Q 599 851 594 851 L 595 833 L 596 832 L 596 822 L 597 821 L 597 810 L 598 809 L 598 799 L 599 798 L 600 606 L 734 739 L 778 776 L 775 781 Q 775 787 780 789 L 789 788 Q 792 785 791 778 L 786 773 L 779 774 L 744 733 L 609 598 L 793 597 L 794 596 L 827 594 L 828 593 L 837 593 L 838 592 Q 845 594 849 591 L 851 596 L 854 598 L 858 599 L 863 597 L 866 591 L 865 587 L 860 582 L 854 583 Q 849 584 850 589 L 819 587 L 818 586 L 808 586 L 807 585 L 796 585 L 795 584 L 609 584 L 740 452 L 773 410 L 777 411 Q 785 412 787 407 L 786 398 L 783 395 L 775 396 L 771 403 L 773 408 L 730 444 L 685 490 L 601 574 L 599 574 L 599 389 L 598 388 L 598 378 L 597 377 L 595 345 L 594 344 L 594 335 L 596 334 L 601 327 L 599 321 Q 597 317 590 318 Z " /><path fill="rgb(0,0,0)" stroke="rgb(0,0,0)" stroke-width="1" opacity="0.6980392156862745" d="M 589.5 318 L 592 318.5 L 586 322.5 L 585.5 324 L 585 322.5 L 589.5 318 Z " /><path fill="rgb(0,0,0)" stroke="rgb(0,0,0)" stroke-width="1" opacity="0.6980392156862745" d="M 593.5 318 L 599 320.5 L 600 323.5 L 599 323.5 L 595.5 319 Q 592.5 319.5 593.5 318 Z " /><path fill="rgb(0,0,0)" stroke="rgb(0,0,0)" stroke-width="1" opacity="0.6980392156862745" d="M 585.5 328 L 589.5 333 L 592 333.5 L 592 341.5 L 591 341.5 L 591 334.5 L 589.5 334 L 586 331.5 L 585.5 328 Z " /><path fill="rgb(0,0,0)" stroke="rgb(0,0,0)" stroke-width="1" opacity="0.6980392156862745" d="M 599.5 328 L 600 329.5 L 594 334 L 593.5 342 L 593 333 Q 597.7 333.8 599 329.5 L 599.5 328 Z " /><path fill="rgb(0,0,0)" stroke="rgb(0,0,0)" stroke-width="1" opacity="0.6980392156862745" d="M 590.5 344 L 591 351.5 L 590 351.5 L 590.5 344 Z " /><path fill="rgb(0,0,0)" stroke="rgb(0,0,0)" stroke-width="1" opacity="0.6980392156862745" d="M 594.5 344 L 595 351.5 L 594 351.5 L 594.5 344 Z " /><path fill="rgb(0,0,0)" stroke="rgb(0,0,0)" stroke-width="1" opacity="0.6980392156862745" d="M 595.5 354 L 596 361.5 L 595 361.5 L 595.5 354 Z " /><path fill="rgb(0,0,0)" stroke="rgb(0,0,0)" stroke-width="1" opacity="0.6980392156862745" d="M 589.5 355 L 590 361.5 L 589 361.5 L 589.5 355 Z " /><path fill="rgb(0,0,0)" stroke="rgb(0,0,0)" stroke-width="1" opacity="0.6980392156862745" d="M 596.5 365 L 597 372.5 L 596 372.5 L 596.5 365 Z " /><path fill="rgb(0,0,0)" stroke="rgb(0,0,0)" stroke-width="1" opacity="0.6980392156862745" d="M 588.5 366 L 589 373.5 L 588 373.5 L 588.5 366 Z " /><path fill="rgb(0,0,0)" stroke="rgb(0,0,0)" stroke-width="1" opacity="0.6980392156862745" d="M 597.5 377 L 598 384.5 L 597 384.5 L 597.5 377 Z " /><path fill="rgb(0,0,0)" stroke="rgb(0,0,0)" stroke-width="1" opacity="0.6980392156862745" d="M 587.5 378 L 588 385.5 L 587 385.5 L 587.5 378 Z " /><path fill="rgb(0,0,0)" stroke="rgb(0,0,0)" stroke-width="1" opacity="0.6980392156862745" d="M 598.5 388 L 599 573.5 L 598 573.5 L 598.5 388 Z " /><path fill="rgb(0,0,0)" stroke="rgb(0,0,0)" stroke-width="1" opacity="0.6980392156862745" d="M 586.5 389 L 587 529.5 L 586 529.5 L 586.5 389 Z " /><path fill="rgb(0,0,0)" stroke="rgb(0,0,0)" stroke-width="1" opacity="0.6980392156862745" d="M 404.5 395 L 407 395.5 L 404.5 396 L 404.5 395 Z " /><path fill="rgb(0,0,0)" stroke="rgb(0,0,0)" stroke-width="1" opacity="0.6980392156862745" d="M 776.5 395 L 778 395.5 L 773 399.5 L 772.5 401 L 772 399.5 L 774.5 396 L 776.5 395 Z " /><path fill="rgb(0,0,0)" stroke="rgb(0,0,0)" stroke-width="1" opacity="0.6980392156862745" d="M 781.5 395 L 786 397.5 L 787 400.5 L 786 400.5 L 782.5 396 L 781.5 395 Z " /><path fill="rgb(0,0,0)" stroke="rgb(0,0,0)" stroke-width="1" opacity="0.6980392156862745" d="M 401.5 396 L 403 396.5 L 399 399.5 L 398.5 401 L 398 399.5 L 401.5 396 Z " /><path fill="rgb(0,0,0)" stroke="rgb(0,0,0)" stroke-width="1" opacity="0.6980392156862745" d="M 408.5 396 L 412 398.5 L 413 401.5 L 412 401.5 L 411 398 L 408.5 396 Z " /><path fill="rgb(0,0,0)" stroke="rgb(0,0,0)" stroke-width="1" opacity="0.6980392156862745" d="M 397.5 402 L 398 404.5 L 397 404.5 L 397.5 402 Z " /><path fill="rgb(0,0,0)" stroke="rgb(0,0,0)" stroke-width="1" opacity="0.6980392156862745" d="M 412.5 405 L 413 406.5 L 412 409.5 L 456.5 446 L 584 573.5 L 523.5 514 L 452.5 444 L 416 415 L 448 454.5 L 466.5 473 L 577 582.5 L 543.5 550 L 444 451.5 L 410.5 411 L 404.5 412 L 404.5 411 L 411 410 L 412.5 405 Z " /><path fill="rgb(0,0,0)" stroke="rgb(0,0,0)" stroke-width="1" opacity="0.6980392156862745" d="M 786.5 405 L 787 406.5 Q 785.1 412.1 776.5 411 L 773 410 L 740 451.5 L 609 583.5 L 795 584.5 L 608 585 L 608 582.5 L 736 454.5 L 770 412.5 L 766.5 415 L 733.5 442 L 601.5 574 L 685 489.5 L 729.5 444 L 772.5 408 Q 775.2 410.8 781.5 410 L 786 406.5 L 786.5 405 Z " /><path fill="rgb(0,0,0)" stroke="rgb(0,0,0)" stroke-width="1" opacity="0.6980392156862745" d="M 398.5 406 L 401.5 410 L 403 410.5 L 401.5 411 L 398 407.5 L 398.5 406 Z " /><path fill="rgb(0,0,0)" stroke="rgb(0,0,0)" stroke-width="1" opacity="0.6980392156862745" d="M 855.5 582 Q 863.4 581.1 865 586.5 L 864.5 588 L 861.5 584 L 855.5 583 L 852 585.5 L 850.5 588 L 850 586.5 L 855.5 582 Z " /><path fill="rgb(0,0,0)" stroke="rgb(0,0,0)" stroke-width="1" opacity="0.6980392156862745" d="M 321.5 584 L 323 584.5 L 318 588.5 L 317.5 590 L 317 588.5 L 321.5 584 Z " /><path fill="rgb(0,0,0)" stroke="rgb(0,0,0)" stroke-width="1" opacity="0.6980392156862745" d="M 326.5 584 L 332 587.5 L 331.5 589 L 330 586 Q 325.8 586.1 326.5 584 Z " /><path fill="rgb(0,0,0)" stroke="rgb(0,0,0)" stroke-width="1" opacity="0.6980392156862745" d="M 532.5 584 L 577 584.5 L 532.5 585 L 532.5 584 Z " /><path fill="rgb(0,0,0)" stroke="rgb(0,0,0)" stroke-width="1" opacity="0.6980392156862745" d="M 384.5 585 L 392 585.5 L 384.5 586 L 384.5 585 Z " /><path fill="rgb(0,0,0)" stroke="rgb(0,0,0)" stroke-width="1" opacity="0.6980392156862745" d="M 798.5 585 L 807 585.5 L 798.5 586 L 798.5 585 Z " /><path fill="rgb(0,0,0)" stroke="rgb(0,0,0)" stroke-width="1" opacity="0.6980392156862745" d="M 372.5 586 L 380 586.5 L 372.5 587 L 372.5 586 Z " /><path fill="rgb(0,0,0)" stroke="rgb(0,0,0)" stroke-width="1" opacity="0.6980392156862745" d="M 810.5 586 L 818 586.5 L 810.5 587 L 810.5 586 Z " /><path fill="rgb(0,0,0)" stroke="rgb(0,0,0)" stroke-width="1" opacity="0.6980392156862745" d="M 361.5 587 L 369 587.5 L 361.5 588 L 361.5 587 Z " /><path fill="rgb(0,0,0)" stroke="rgb(0,0,0)" stroke-width="1" opacity="0.6980392156862745" d="M 822.5 587 L 829 587.5 L 822.5 588 L 822.5 587 Z " /><path fill="rgb(0,0,0)" stroke="rgb(0,0,0)" stroke-width="1" opacity="0.6980392156862745" d="M 350.5 588 L 358 588.5 L 350.5 589 L 350.5 588 Z " /><path fill="rgb(0,0,0)" stroke="rgb(0,0,0)" stroke-width="1" opacity="0.6980392156862745" d="M 832.5 588 L 840 588.5 L 832.5 589 L 832.5 588 Z " /><path fill="rgb(0,0,0)" stroke="rgb(0,0,0)" stroke-width="1" opacity="0.6980392156862745" d="M 341.5 589 L 348 589.5 L 341.5 590 L 341.5 589 Z " /><path fill="rgb(0,0,0)" stroke="rgb(0,0,0)" stroke-width="1" opacity="0.6980392156862745" d="M 843.5 589 L 850 589.5 L 843.5 590 L 843.5 589 Z " /><path fill="rgb(0,0,0)" stroke="rgb(0,0,0)" stroke-width="1" opacity="0.6980392156862745" d="M 332 590 Q 337.5 588.9 340 591.5 L 333 592 Q 332.6 596.7 328.5 599 L 322.5 600 L 317 595.5 L 317.5 593 L 320.5 598 L 326.5 599 L 331 595.5 L 332 590 Z " /><path fill="rgb(0,0,0)" stroke="rgb(0,0,0)" stroke-width="1" opacity="0.6980392156862745" d="M 840.5 591 L 847 591.5 L 840.5 592 L 840.5 591 Z " /><path fill="rgb(0,0,0)" stroke="rgb(0,0,0)" stroke-width="1" opacity="0.6980392156862745" d="M 849.5 591 L 852 596 L 856 597.5 L 853.5 598 L 849.5 591 Z " /><path fill="rgb(0,0,0)" stroke="rgb(0,0,0)" stroke-width="1" opacity="0.6980392156862745" d="M 342.5 592 L 350 592.5 L 342.5 593 L 342.5 592 Z " /><path fill="rgb(0,0,0)" stroke="rgb(0,0,0)" stroke-width="1" opacity="0.6980392156862745" d="M 830.5 592 L 837 592.5 L 830.5 593 L 830.5 592 Z " /><path fill="rgb(0,0,0)" stroke="rgb(0,0,0)" stroke-width="1" opacity="0.6980392156862745" d="M 864.5 592 L 865 593.5 L 862.5 597 L 859.5 598 L 859.5 597 L 864 593.5 L 864.5 592 Z " /><path fill="rgb(0,0,0)" stroke="rgb(0,0,0)" stroke-width="1" opacity="0.6980392156862745" d="M 352.5 593 L 360 593.5 L 352.5 594 L 352.5 593 Z " /><path fill="rgb(0,0,0)" stroke="rgb(0,0,0)" stroke-width="1" opacity="0.6980392156862745" d="M 819.5 593 L 827 593.5 L 819.5 594 L 819.5 593 Z " /><path fill="rgb(0,0,0)" stroke="rgb(0,0,0)" stroke-width="1" opacity="0.6980392156862745" d="M 363.5 594 L 371 594.5 L 363.5 595 L 363.5 594 Z " /><path fill="rgb(0,0,0)" stroke="rgb(0,0,0)" stroke-width="1" opacity="0.6980392156862745" d="M 808.5 594 L 816 594.5 L 808.5 595 L 808.5 594 Z " /><path fill="rgb(0,0,0)" stroke="rgb(0,0,0)" stroke-width="1" opacity="0.6980392156862745" d="M 375.5 595 L 383 595.5 L 375.5 596 L 375.5 595 Z " /><path fill="rgb(0,0,0)" stroke="rgb(0,0,0)" stroke-width="1" opacity="0.6980392156862745" d="M 796.5 595 L 804 595.5 L 796.5 596 L 796.5 595 Z " /><path fill="rgb(0,0,0)" stroke="rgb(0,0,0)" stroke-width="1" opacity="0.6980392156862745" d="M 387.5 596 L 577.5 596 L 578 598.5 L 449 727.5 L 415 768.5 L 416.5 769 L 453.5 738 L 554 637.5 L 584.5 606 L 586 606.5 L 457.5 736 L 408.5 776 L 412 771.5 L 445 730.5 L 577 597.5 L 387.5 597 L 387.5 596 Z " /><path fill="rgb(0,0,0)" stroke="rgb(0,0,0)" stroke-width="1" opacity="0.6980392156862745" d="M 608 596 L 793 596.5 L 609 597.5 L 744 732.5 L 778.5 774 L 785.5 773 L 791 777.5 L 790.5 780 L 787.5 775 L 781.5 774 L 777.5 775 L 733.5 739 L 600 606.5 L 619.5 625 L 731.5 736 L 770.5 768 L 771 766.5 L 740 729.5 L 677.5 667 L 608 598.5 L 608 596 Z " /><path fill="rgb(0,0,0)" stroke="rgb(0,0,0)" stroke-width="1" opacity="0.6980392156862745" d="M 598.5 606 L 599 722.5 L 598 722.5 L 598.5 606 Z " /><path fill="rgb(0,0,0)" stroke="rgb(0,0,0)" stroke-width="1" opacity="0.6980392156862745" d="M 400.5 775 L 402 775.5 L 397 779.5 L 396.5 781 L 396 779.5 L 400.5 775 Z " /><path fill="rgb(0,0,0)" stroke="rgb(0,0,0)" stroke-width="1" opacity="0.6980392156862745" d="M 777.5 776 L 777 777.5 L 776.5 779 L 776 777.5 L 777.5 776 Z " /><path fill="rgb(0,0,0)" stroke="rgb(0,0,0)" stroke-width="1" opacity="0.6980392156862745" d="M 409.5 777 L 411 779.5 L 410 779.5 L 409.5 777 Z " /><path fill="rgb(0,0,0)" stroke="rgb(0,0,0)" stroke-width="1" opacity="0.6980392156862745" d="M 775.5 780 L 776 782.5 L 775 782.5 L 775.5 780 Z " /><path fill="rgb(0,0,0)" stroke="rgb(0,0,0)" stroke-width="1" opacity="0.6980392156862745" d="M 411.5 781 L 412 784.5 L 407.5 790 L 401.5 791 L 396 786.5 L 396.5 784 L 399.5 789 L 405.5 790 L 410 786.5 L 411.5 781 Z " /><path fill="rgb(0,0,0)" stroke="rgb(0,0,0)" stroke-width="1" opacity="0.6980392156862745" d="M 790.5 783 L 791 784.5 L 788.5 788 L 785.5 789 L 785.5 788 L 790 784.5 L 790.5 783 Z " /><path fill="rgb(0,0,0)" stroke="rgb(0,0,0)" stroke-width="1" opacity="0.6980392156862745" d="M 776.5 784 L 778.5 787 L 782 788.5 L 779.5 789 L 776 785.5 L 776.5 784 Z " /><path fill="rgb(0,0,0)" stroke="rgb(0,0,0)" stroke-width="1" opacity="0.6980392156862745" d="M 587.5 789 L 588 797.5 L 587 797.5 L 587.5 789 Z " /><path fill="rgb(0,0,0)" stroke="rgb(0,0,0)" stroke-width="1" opacity="0.6980392156862745" d="M 598.5 789 L 599 797.5 L 598 797.5 L 598.5 789 Z " /><path fill="rgb(0,0,0)" stroke="rgb(0,0,0)" stroke-width="1" opacity="0.6980392156862745" d="M 588.5 801 L 589 808.5 L 588 808.5 L 588.5 801 Z " /><path fill="rgb(0,0,0)" stroke="rgb(0,0,0)" stroke-width="1" opacity="0.6980392156862745" d="M 597.5 801 L 598 808.5 L 597 808.5 L 597.5 801 Z " /><path fill="rgb(0,0,0)" stroke="rgb(0,0,0)" stroke-width="1" opacity="0.6980392156862745" d="M 589.5 812 L 590 819.5 L 589 819.5 L 589.5 812 Z " /><path fill="rgb(0,0,0)" stroke="rgb(0,0,0)" stroke-width="1" opacity="0.6980392156862745" d="M 596.5 813 L 597 820.5 L 596 820.5 L 596.5 813 Z " /><path fill="rgb(0,0,0)" stroke="rgb(0,0,0)" stroke-width="1" opacity="0.6980392156862745" d="M 590.5 823 L 591 830.5 L 590 830.5 L 590.5 823 Z " /><path fill="rgb(0,0,0)" stroke="rgb(0,0,0)" stroke-width="1" opacity="0.6980392156862745" d="M 595.5 824 L 596 831.5 L 595 831.5 L 595.5 824 Z " /><path fill="rgb(0,0,0)" stroke="rgb(0,0,0)" stroke-width="1" opacity="0.6980392156862745" d="M 591.5 834 L 592 840.5 L 591 840.5 L 591.5 834 Z " /><path fill="rgb(0,0,0)" stroke="rgb(0,0,0)" stroke-width="1" opacity="0.6980392156862745" d="M 594.5 835 L 595 841.5 L 594 841.5 L 594.5 835 Z " /><path fill="rgb(0,0,0)" stroke="rgb(0,0,0)" stroke-width="1" opacity="0.6980392156862745" d="M 592.5 843 Q 595.8 844.9 594 851 Q 589.3 851.5 587 855.5 L 586.5 857 L 586 855.5 L 592 851 L 592.5 843 Z " /><path fill="rgb(0,0,0)" stroke="rgb(0,0,0)" stroke-width="1" opacity="0.6980392156862745" d="M 595.5 851 L 601 854.5 L 600.5 856 L 599 853 Q 594.8 853 595.5 851 Z " /><path fill="rgb(0,0,0)" stroke="rgb(0,0,0)" stroke-width="1" opacity="0.6980392156862745" d="M 601.5 857 L 602 860.5 L 600 865 L 597.5 866 L 600 862.5 L 601.5 857 Z " /><path fill="rgb(0,0,0)" stroke="rgb(0,0,0)" stroke-width="1" opacity="0.6980392156862745" d="M 586.5 860 L 589.5 865 L 596 866.5 L 591.5 867 L 586 862.5 L 586.5 860 Z " /><path fill="rgb(0,0,0)" stroke="rgb(0,0,0)" stroke-width="1" opacity="1" d="M 592.5 318 L 599 322.5 L 600 327.5 L 595.5 333 L 593 333.5 L 593 341.5 L 594 342.5 L 596 372.5 L 597 373.5 L 597 384.5 L 598 385.5 L 598 574 L 601.5 574 L 733.5 442 L 770.5 411 L 770 412.5 L 736 454.5 L 608 582.5 L 608 585 L 797.5 585 L 798.5 586 L 809.5 586 L 810.5 587 L 821.5 587 L 822.5 588 L 850 590 L 853.5 584 L 859.5 583 L 864 586.5 L 865 591.5 L 860.5 597 L 856.5 598 L 852 596 L 849.5 591 L 808.5 594 L 807.5 595 L 796.5 595 L 795.5 596 L 608 596 L 608 598.5 L 676.5 667 L 740 729.5 L 772 768.5 L 767.5 765 L 731.5 736 L 620.5 625 L 600.5 606 L 598 606 L 599 788.5 L 598 789.5 L 598 800.5 L 597 801.5 L 597 812.5 L 596 813.5 L 596 823.5 L 595 824.5 L 595 834.5 L 594 835.5 L 593.5 844 L 592 842.5 L 589 801.5 L 588 800.5 L 588 789.5 L 587 788.5 L 587 606 L 584.5 606 L 554 636.5 L 453.5 738 L 415.5 769 L 419 764.5 L 449 727.5 L 578 598.5 L 578 596 L 383.5 596 L 382.5 595 L 371.5 595 L 370.5 594 L 340.5 592 L 338 590.5 L 357.5 589 L 358.5 588 L 368.5 588 L 369.5 587 L 379.5 587 L 380.5 586 L 391.5 586 L 392.5 585 L 577 585 L 577 582.5 L 467.5 473 L 448 454.5 L 412 411.5 L 416.5 415 L 452.5 444 L 583.5 574 L 587 574 L 587 386.5 L 588 385.5 L 588 374.5 L 589 373.5 L 589 362.5 L 590 361.5 L 592 333 Q 587.3 333.8 586 329.5 L 585 324.5 L 589.5 319 L 592.5 318 Z " /><path fill="rgb(0,0,0)" stroke="rgb(0,0,0)" stroke-width="1" opacity="1" d="M 778.5 395 Q 784.1 395.5 786 399.5 L 787 404.5 L 783.5 409 L 776.5 410 L 773 409 L 772 401.5 L 776.5 396 L 778.5 395 Z " /><path fill="rgb(0,0,0)" stroke="rgb(0,0,0)" stroke-width="1" opacity="1" d="M 403.5 396 L 407.5 396 L 411 398 L 413 404.5 L 411 410 L 403.5 411 L 399 407.5 L 398 401.5 L 401.5 397 L 403.5 396 Z " /><path fill="rgb(0,0,0)" stroke="rgb(0,0,0)" stroke-width="1" opacity="1" d="M 323.5 584 L 330 586 L 332 589.5 L 332 593.5 L 328.5 598 L 322.5 599 L 318 595.5 L 317 590.5 L 321.5 585 L 323.5 584 Z " /><path fill="rgb(0,0,0)" stroke="rgb(0,0,0)" stroke-width="1" opacity="1" d="M 781.5 774 Q 787.3 773.2 789 776.5 L 791 782.5 L 786.5 788 L 782.5 789 L 777 785.5 L 776 779.5 L 778 775 L 781.5 774 Z " /><path fill="rgb(0,0,0)" stroke="rgb(0,0,0)" stroke-width="1" opacity="1" d="M 402.5 775 L 409 776 Q 411.6 778.3 411 784.5 L 407.5 789 L 401.5 790 L 397 786.5 L 396 781.5 L 400.5 776 L 402.5 775 Z " /><path fill="rgb(0,0,0)" stroke="rgb(0,0,0)" stroke-width="1" opacity="1" d="M 592.5 851 L 599 853 L 601 856.5 L 601 860.5 L 596.5 866 Q 588.9 867.1 587 862.5 L 586 857.5 L 590.5 852 L 592.5 851 Z " /></svg>