<svg width="1181" height="1181" version="1.1" xmlns="http://www.w3.org/2000/svg" desc="Created with imagetracer.js version 1.2.6" ><path fill="rgb(0,0,0)" stroke="rgb(0,0,0)" stroke-width="1" opacity="0.9098039215686274" d="M 582.5 493 L 599.5 493 L 615.5 497 Q 632.2 503.3 643 515.5 Q 653.9 527.1 659 544.5 L 661 553.5 L 661 573.5 Q 655 609 632.5 628 L 622 635.5 L 626.5 636 L 651.5 630 L 677.5 620 L 716.5 600 L 783.5 560 L 817.5 543 L 845.5 534 L 863.5 533 L 872.5 535 L 882 540.5 L 880.5 540 Q 871.9 534.1 855.5 536 L 837.5 541 L 816.5 551 Q 780.6 572.1 747.5 596 Q 719.1 614.1 687.5 629 L 660.5 640 L 639.5 646 L 622.5 649 L 602.5 650 L 601.5 649 L 588.5 648 L 587.5 649 L 562.5 649 L 532.5 643 L 497.5 630 L 443.5 601 L 389.5 565 L 352.5 544 L 328.5 536 L 311.5 536 L 300.5 541 L 301.5 539 Q 307.5 534.5 316.5 533 L 332.5 533 L 360.5 541 L 397.5 559 L 464.5 599 L 505.5 620 L 528.5 629 L 557.5 636 L 558 634.5 L 542 620.5 Q 530 607 524 587.5 L 521 571.5 L 521 556.5 L 523 545.5 L 530 528.5 Q 536.5 517 546.5 509 Q 560.5 497 582.5 493 Z M 583 506 Q 570 509 562 516 Q 549 526 546 545 Q 545 563 553 572 Q 560 581 572 584 L 567 574 L 565 565 L 566 553 Q 568 545 574 541 Q 572 529 577 525 L 587 518 Q 597 517 602 521 L 607 529 L 608 540 Q 615 545 617 556 L 617 567 Q 616 576 611 582 L 610 584 L 613 584 L 624 578 Q 633 571 636 558 Q 638 546 635 539 Q 632 528 626 522 Q 619 512 607 508 Q 597 504 583 506 Z M 607 544 Q 603 551 594 553 L 585 552 L 576 545 L 572 553 Q 571 568 578 575 L 590 583 L 601 578 Q 607 572 610 563 Q 612 550 607 544 Z M 533 560 L 534 576 L 536 585 Q 541 599 549 610 Q 563 627 587 635 L 595 635 L 606 631 L 622 621 L 638 603 L 644 591 L 649 571 L 649 563 L 647 562 Q 645 572 639 580 L 627 591 L 616 596 L 606 598 L 573 597 L 565 595 L 550 586 Q 539 577 535 563 Q 536 559 533 560 Z " /><path fill="rgb(0,0,0)" stroke="rgb(0,0,0)" stroke-width="1" opacity="0.9098039215686274" d="M 469.5 515 L 478.5 517 L 483 520 L 486 524.5 L 488 534.5 L 483 546 L 475.5 550 L 465.5 550 L 457 544.5 L 453 535.5 L 453 530.5 Q 454.4 522.9 459.5 519 L 469.5 515 Z " /><path fill="rgb(0,0,0)" stroke="rgb(0,0,0)" stroke-width="1" opacity="0.9098039215686274" d="M 717.5 515 Q 727.6 515.9 732 522.5 Q 736 527 735 536.5 Q 733.4 543.5 728.5 547 Q 723.7 551.7 712.5 550 L 703 542.5 Q 699.2 537.8 701 527.5 L 708.5 518 L 717.5 515 Z " /><path fill="rgb(0,0,0)" stroke="rgb(0,0,0)" stroke-width="1" opacity="0.9098039215686274" d="M 298.5 541 L 297.5 543 L 298.5 541 Z " /><path fill="rgb(0,0,0)" stroke="rgb(0,0,0)" stroke-width="1" opacity="0.9098039215686274" d="M 883.5 541 L 884.5 543 L 883.5 541 Z " /><path fill="rgb(0,0,0)" stroke="rgb(0,0,0)" stroke-width="1" opacity="0.9098039215686274" d="M 849.5 563 L 856.5 564 L 864 569.5 Q 868.5 574 868 583.5 Q 866.5 591.1 861.5 595 Q 856.7 599.7 845.5 598 L 836 590.5 L 833 580.5 Q 834.6 569.6 842.5 565 L 849.5 563 Z " /><path fill="rgb(0,0,0)" stroke="rgb(0,0,0)" stroke-width="1" opacity="0.9098039215686274" d="M 324.5 568 Q 335.7 567.8 340 574.5 Q 344.2 578.8 344 587.5 Q 342.3 596.8 335.5 601 Q 331.2 604.7 321.5 603 L 312 595.5 Q 308.8 591.2 309 583.5 Q 310.4 576 315.5 572 L 324.5 568 Z " /><path fill="rgb(0,0,0)" stroke="rgb(0,0,0)" stroke-width="1" opacity="0.9098039215686274" d="M 586.5 670 Q 599.4 669.6 604 677.5 Q 607.9 681.6 607 690.5 Q 604.9 698.9 598.5 703 Q 594.5 706.5 585.5 705 Q 578.3 703.2 575 697.5 L 573 693.5 L 572 686.5 L 574 679.5 L 579.5 673 L 586.5 670 Z " /><path fill="rgb(0,0,0)" stroke="rgb(0,0,0)" stroke-width="1" opacity="0" d="M 0 0 L 1181 0 L 1181 1181 L 0 1181 L 0 0 Z M 583 493 Q 561 497 547 509 Q 536 517 530 529 L 523 546 L 521 557 L 521 572 L 524 588 Q 530 607 542 621 L 558 635 L 558 636 L 529 629 L 506 620 L 465 599 L 398 559 L 361 541 L 333 533 L 317 533 L 305 537 L 304 539 L 312 536 L 329 536 L 353 544 L 390 565 L 444 601 L 498 630 L 533 643 L 563 649 L 588 649 L 589 648 L 602 649 L 603 650 L 623 649 L 640 646 L 661 640 L 688 629 Q 719 614 748 596 Q 781 572 817 551 L 838 541 L 856 536 Q 868 534 875 538 L 877 538 L 873 535 L 864 533 L 846 534 L 818 543 L 784 560 L 717 600 L 678 620 L 652 630 L 627 636 L 622 636 L 633 628 Q 655 609 661 574 L 661 554 L 659 545 Q 654 527 643 516 Q 632 503 616 497 L 600 493 L 583 493 Z M 470 515 L 460 519 Q 454 523 453 531 L 453 536 L 457 545 L 466 550 L 476 550 L 483 546 L 488 535 L 486 525 L 483 520 L 479 517 L 470 515 Z M 718 515 L 709 518 L 701 528 Q 699 538 703 543 L 713 550 Q 724 552 729 547 Q 733 543 735 537 Q 736 527 732 523 Q 728 516 718 515 Z M 850 563 L 843 565 Q 835 570 833 581 L 836 591 L 846 598 Q 857 600 862 595 Q 867 591 868 584 Q 868 574 864 570 L 857 564 L 850 563 Z M 325 568 L 316 572 Q 310 576 309 584 Q 309 591 312 596 L 322 603 Q 331 605 336 601 Q 342 597 344 588 Q 344 579 340 575 Q 336 568 325 568 Z M 587 670 L 580 673 L 574 680 L 572 687 L 573 694 L 575 698 Q 578 703 586 705 Q 595 707 599 703 Q 605 699 607 691 Q 608 682 604 678 Q 599 670 587 670 Z " /><path fill="rgb(0,0,0)" stroke="rgb(0,0,0)" stroke-width="1" opacity="0" d="M 582.5 506 Q 597.4 504.1 606.5 508 Q 618.5 512.5 626 521.5 Q 632.2 528.3 635 538.5 Q 637.5 546 636 557.5 Q 632.6 570.6 623.5 578 L 612.5 584 L 609.5 584 L 611 581.5 Q 615.5 575.5 617 566.5 L 617 555.5 Q 615.1 544.9 608 539.5 L 607 528.5 L 601.5 521 Q 597 516.5 586.5 518 L 577 524.5 Q 572.3 529.3 574 540.5 Q 568.3 544.8 566 552.5 L 565 564.5 L 567 573.5 L 572 584 Q 559.7 581 553 571.5 Q 544.9 562.6 546 544.5 Q 549.3 525.8 561.5 516 Q 569.5 508.5 582.5 506 Z " /><path fill="rgb(0,0,0)" stroke="rgb(0,0,0)" stroke-width="1" opacity="0" d="M 606.5 544 Q 611.8 549.8 610 562.5 Q 607.1 572.1 600.5 578 L 589.5 583 L 578 574.5 Q 571 567.5 572 552.5 L 575.5 545 L 584.5 552 L 593.5 553 Q 602.8 551.2 606.5 544 Z " /><path fill="rgb(0,0,0)" stroke="rgb(0,0,0)" stroke-width="1" opacity="0" d="M 533 560 Q 536 558.8 535 562.5 Q 539.2 577.3 549.5 586 L 564.5 595 L 572.5 597 L 605.5 598 L 615.5 596 L 626.5 591 L 639 579.5 Q 645.3 572.4 647 562 L 649 562.5 L 649 570.5 L 644 590.5 L 638 602.5 L 621.5 621 L 605.5 631 L 594.5 635 L 586.5 635 Q 562.7 627.3 549 609.5 Q 540.7 598.8 536 584.5 L 534 575.5 L 533 560 Z " /></svg>