<svg width="1181" height="1181" version="1.1" xmlns="http://www.w3.org/2000/svg" desc="Created with imagetracer.js version 1.2.6" ><path fill="rgb(0,0,0)" stroke="rgb(0,0,0)" stroke-width="1" opacity="0" d="M 0 0 L 1181 0 L 1181 1181 L 0 1181 L 0 0 Z M 586 331 L 584 332 Q 578 334 580 343 L 587 348 Q 585 355 586 367 L 585 368 L 585 386 L 584 387 L 584 408 L 583 409 L 573 409 L 550 413 L 520 423 Q 486 438 463 462 L 415 420 L 417 416 L 415 408 L 411 406 L 406 407 L 401 414 L 403 420 L 408 422 L 415 421 L 457 468 Q 435 492 421 525 L 412 554 L 409 570 L 408 589 L 393 589 L 392 590 L 378 590 L 377 591 L 342 593 L 337 587 L 329 588 L 326 592 L 327 600 Q 329 603 337 602 Q 341 600 341 594 L 349 594 L 350 595 L 365 595 L 366 596 L 384 596 L 385 597 L 407 597 L 408 599 L 408 614 L 409 615 L 409 622 L 412 639 L 420 665 Q 433 698 455 722 L 419 765 L 417 768 L 461 729 L 465 731 L 480 745 L 499 758 L 521 769 L 540 776 L 556 780 L 575 782 L 576 783 L 587 783 L 590 836 L 591 840 L 588 841 L 584 847 L 586 854 L 591 856 L 596 855 L 599 852 L 600 848 L 598 842 L 592 840 L 593 808 L 594 807 L 594 789 L 595 783 L 608 783 L 609 782 L 616 782 L 633 779 L 661 770 Q 689 757 710 736 L 720 725 L 763 763 L 764 763 L 764 762 L 725 719 L 740 697 L 740 695 L 723 716 L 672 667 L 672 665 L 680 654 L 680 652 L 670 663 L 668 663 L 617 613 L 603 600 L 603 598 L 605 596 L 629 596 L 630 595 L 695 595 L 695 614 L 694 615 L 695 619 L 699 602 L 699 595 L 759 595 L 760 594 Q 765 592 767 596 L 767 619 L 764 635 L 765 639 L 769 621 L 772 594 L 791 594 L 792 593 L 805 593 L 806 592 L 833 591 L 834 590 L 835 594 L 839 597 L 843 598 L 846 597 L 850 592 L 849 586 L 845 582 L 840 582 L 836 584 L 835 589 L 772 586 L 772 572 L 771 571 L 771 562 L 769 555 L 769 550 Q 766 532 759 518 Q 745 486 722 464 L 762 417 L 765 419 L 771 418 L 774 414 L 773 407 L 768 403 L 763 404 L 759 409 L 760 417 L 716 457 Q 690 433 654 419 L 634 413 L 618 410 L 594 409 L 592 408 L 591 381 L 590 380 L 590 367 L 589 366 L 588 348 L 593 345 L 595 342 L 594 335 Q 592 330 586 331 Z M 764 639 L 763 643 L 764 643 L 764 639 Z M 770 765 L 767 766 L 765 770 L 766 778 L 770 780 Q 776 781 778 779 L 780 776 L 780 770 Q 779 764 770 765 Z M 407 769 L 402 775 L 403 781 L 408 784 L 415 783 L 418 777 L 415 771 L 415 769 L 407 769 Z " /><path fill="rgb(0,0,0)" stroke="rgb(0,0,0)" stroke-width="1" opacity="0" d="M 577.5 421 Q 583.8 420.3 584 421.5 L 584 477 L 565.5 479 L 544.5 486 Q 525.1 495.1 510.5 509 L 472 470.5 L 479.5 463 Q 499.4 445.4 525.5 434 L 552.5 425 L 568.5 422 L 576.5 422 L 577.5 421 Z " /><path fill="rgb(0,0,0)" stroke="rgb(0,0,0)" stroke-width="1" opacity="0" d="M 592 421 L 604.5 421 L 605.5 422 L 620.5 423 L 652.5 432 Q 683.6 444.4 706 465.5 L 666.5 507 Q 641.5 479.7 593 477 L 592 472.5 L 592 421 Z " /><path fill="rgb(0,0,0)" stroke="rgb(0,0,0)" stroke-width="1" opacity="0" d="M 712.5 472 Q 734.6 493.4 748 523.5 L 760 555.5 L 766 586 L 701.5 587 L 700 585.5 L 700 567.5 L 696 549.5 Q 687.5 528 673 512.5 L 712.5 472 Z " /><path fill="rgb(0,0,0)" stroke="rgb(0,0,0)" stroke-width="1" opacity="0" d="M 465.5 477 L 505 514.5 L 505 516.5 L 492 533.5 L 484 550.5 L 478 572.5 L 477 588 L 464.5 588 L 463.5 589 L 420 589 L 421 583.5 L 421 573.5 L 424 556.5 L 432 530.5 Q 444.5 499.5 465.5 477 Z " /><path fill="rgb(0,0,0)" stroke="rgb(0,0,0)" stroke-width="1" opacity="0" d="M 581.5 489 L 584 489.5 L 584 508.5 L 585 509.5 L 585 569.5 L 576.5 573 L 521 518.5 L 527.5 511 Q 538.4 501.9 552.5 496 L 568.5 491 L 580.5 490 L 581.5 489 Z " /><path fill="rgb(0,0,0)" stroke="rgb(0,0,0)" stroke-width="1" opacity="0" d="M 593 489 Q 612.8 489.5 627.5 496 Q 645.2 503.3 658 515.5 L 601.5 573 L 593 570 L 593 489 Z " /><path fill="rgb(0,0,0)" stroke="rgb(0,0,0)" stroke-width="1" opacity="0" d="M 663.5 522 L 666 523.5 Q 687.2 548.5 694 587 L 608.5 587 Q 607.5 587 608 582.5 L 607 579.5 L 663.5 522 Z " /><path fill="rgb(0,0,0)" stroke="rgb(0,0,0)" stroke-width="1" opacity="0" d="M 514.5 524 L 571 579.5 L 569 588 L 489.5 588 L 489 585.5 L 490 584.5 L 491 570.5 L 497 551.5 Q 503.7 535.7 514.5 524 Z " /><path fill="rgb(0,0,0)" stroke="rgb(0,0,0)" stroke-width="1" opacity="0" d="M 499.5 596 L 569.5 596 L 570 597.5 L 573 602.5 L 515.5 661 Q 503.8 649.2 497 632.5 L 492 617.5 L 490 607.5 L 490 598.5 L 489 597.5 L 498.5 597 L 499.5 596 Z " /><path fill="rgb(0,0,0)" stroke="rgb(0,0,0)" stroke-width="1" opacity="0" d="M 420 597 L 476.5 597 Q 477.8 597.3 477 603.5 L 481 624.5 L 486 638.5 L 495 655.5 L 506 670.5 L 464.5 713 Q 443 690.5 431 658.5 L 423 630.5 L 422 618.5 L 421 617.5 L 421 608.5 L 420 607.5 L 420 597 Z " /><path fill="rgb(0,0,0)" stroke="rgb(0,0,0)" stroke-width="1" opacity="0" d="M 598.5 607 L 662 668.5 L 660.5 671 L 648.5 679 L 625.5 689 L 607.5 694 L 594 695 L 594 609.5 L 596.5 609 L 598.5 607 Z " /><path fill="rgb(0,0,0)" stroke="rgb(0,0,0)" stroke-width="1" opacity="0" d="M 579.5 608 L 585 609 L 585 638.5 L 586 639.5 L 586 695 Q 566.9 694.3 552.5 688 Q 534.1 680.4 521 667.5 L 579.5 608 Z " /><path fill="rgb(0,0,0)" stroke="rgb(0,0,0)" stroke-width="1" opacity="0" d="M 665 673 L 666.5 673 L 716 721.5 Q 694.5 742.5 664.5 755 L 628.5 767 L 611.5 770 Q 601 769 595 771 L 594 708.5 L 595.5 707 L 611.5 706 L 631.5 700 Q 651.6 690.6 665 674.5 L 665 673 Z " /><path fill="rgb(0,0,0)" stroke="rgb(0,0,0)" stroke-width="1" opacity="0" d="M 512.5 676 Q 526.5 690.5 546.5 699 L 564.5 705 L 575.5 707 L 586 707 L 586 767.5 L 587 769.5 Q 586.3 771.8 582.5 771 L 581.5 770 L 571.5 770 L 554.5 767 L 539.5 763 L 521.5 756 Q 491.3 742.2 470 719.5 L 512.5 676 Z " /><path fill="rgb(0,0,0)" stroke="rgb(0,0,0)" stroke-width="1" opacity="0.7058823529411765" d="M 585.5 331 Q 592.4 330.1 594 334.5 L 595 341.5 L 592.5 345 L 588 347.5 L 587.5 349 L 586 346.5 Q 591.6 345.6 594 341.5 Q 595 335 591.5 333 L 585.5 332 L 581 335.5 L 580.5 338 L 580 335.5 L 585.5 331 Z " /><path fill="rgb(0,0,0)" stroke="rgb(0,0,0)" stroke-width="1" opacity="0.7058823529411765" d="M 580.5 340 L 583.5 345 L 585 345.5 L 583.5 346 Q 578.7 344.7 580.5 340 Z " /><path fill="rgb(0,0,0)" stroke="rgb(0,0,0)" stroke-width="1" opacity="0.7058823529411765" d="M 586.5 351 L 587 360.5 L 586 360.5 L 586.5 351 Z " /><path fill="rgb(0,0,0)" stroke="rgb(0,0,0)" stroke-width="1" opacity="0.7058823529411765" d="M 588.5 353 L 589 361.5 L 588 361.5 L 588.5 353 Z " /><path fill="rgb(0,0,0)" stroke="rgb(0,0,0)" stroke-width="1" opacity="0.7058823529411765" d="M 589.5 366 L 590 374.5 L 589 374.5 L 589.5 366 Z " /><path fill="rgb(0,0,0)" stroke="rgb(0,0,0)" stroke-width="1" opacity="0.7058823529411765" d="M 585.5 367 L 586 378.5 L 585 378.5 L 585.5 367 Z " /><path fill="rgb(0,0,0)" stroke="rgb(0,0,0)" stroke-width="1" opacity="0.7058823529411765" d="M 590.5 380 L 591 389.5 L 590 389.5 L 590.5 380 Z " /><path fill="rgb(0,0,0)" stroke="rgb(0,0,0)" stroke-width="1" opacity="0.7058823529411765" d="M 584.5 386 L 585 397.5 L 584 397.5 L 584.5 386 Z " /><path fill="rgb(0,0,0)" stroke="rgb(0,0,0)" stroke-width="1" opacity="0.7058823529411765" d="M 591.5 395 L 592 407.5 L 593 408.5 L 591 409 L 591.5 395 Z " /><path fill="rgb(0,0,0)" stroke="rgb(0,0,0)" stroke-width="1" opacity="0.7058823529411765" d="M 765.5 403 L 768 403.5 L 765.5 404 L 765.5 403 Z " /><path fill="rgb(0,0,0)" stroke="rgb(0,0,0)" stroke-width="1" opacity="0.7058823529411765" d="M 762.5 404 L 764 404.5 L 761 406 L 759.5 410 L 759 408.5 L 762.5 404 Z " /><path fill="rgb(0,0,0)" stroke="rgb(0,0,0)" stroke-width="1" opacity="0.7058823529411765" d="M 769.5 404 L 773 406.5 L 774 413.5 L 770.5 418 L 764.5 419 L 764.5 418 Q 770.3 418.8 772 415.5 L 773 408.5 L 769.5 404 Z " /><path fill="rgb(0,0,0)" stroke="rgb(0,0,0)" stroke-width="1" opacity="0.7058823529411765" d="M 407.5 406 L 415 408 L 417 415.5 L 415 419.5 L 462 461.5 L 453.5 454 L 423.5 429 L 430 436.5 L 457 466.5 L 443 453.5 L 414.5 421 L 412 420.5 L 414 420 L 416 412.5 L 412.5 408 L 407.5 407 L 403 410.5 L 402.5 412 L 402 410.5 L 407.5 406 Z " /><path fill="rgb(0,0,0)" stroke="rgb(0,0,0)" stroke-width="1" opacity="0.7058823529411765" d="M 572.5 409 L 581 409.5 L 572.5 410 L 572.5 409 Z " /><path fill="rgb(0,0,0)" stroke="rgb(0,0,0)" stroke-width="1" opacity="0.7058823529411765" d="M 602.5 409 L 610 409.5 L 602.5 410 L 602.5 409 Z " /><path fill="rgb(0,0,0)" stroke="rgb(0,0,0)" stroke-width="1" opacity="0.7058823529411765" d="M 565.5 410 L 570 410.5 L 565.5 411 L 565.5 410 Z " /><path fill="rgb(0,0,0)" stroke="rgb(0,0,0)" stroke-width="1" opacity="0.7058823529411765" d="M 613.5 410 L 618 410.5 L 613.5 411 L 613.5 410 Z " /><path fill="rgb(0,0,0)" stroke="rgb(0,0,0)" stroke-width="1" opacity="0.7058823529411765" d="M 559.5 411 L 563 411.5 L 559.5 412 L 559.5 411 Z " /><path fill="rgb(0,0,0)" stroke="rgb(0,0,0)" stroke-width="1" opacity="0.7058823529411765" d="M 620.5 411 L 624 411.5 L 620.5 412 L 620.5 411 Z " /><path fill="rgb(0,0,0)" stroke="rgb(0,0,0)" stroke-width="1" opacity="0.7058823529411765" d="M 554.5 412 L 558 412.5 L 554.5 413 L 554.5 412 Z " /><path fill="rgb(0,0,0)" stroke="rgb(0,0,0)" stroke-width="1" opacity="0.7058823529411765" d="M 625.5 412 L 629 412.5 L 625.5 413 L 625.5 412 Z " /><path fill="rgb(0,0,0)" stroke="rgb(0,0,0)" stroke-width="1" opacity="0.7058823529411765" d="M 549.5 413 L 553 413.5 L 542.5 416 L 542.5 415 L 549.5 413 Z " /><path fill="rgb(0,0,0)" stroke="rgb(0,0,0)" stroke-width="1" opacity="0.7058823529411765" d="M 630.5 413 L 641 415.5 L 638.5 416 L 630.5 414 L 630.5 413 Z " /><path fill="rgb(0,0,0)" stroke="rgb(0,0,0)" stroke-width="1" opacity="0.7058823529411765" d="M 759.5 413 L 761 417.5 L 722 463.5 Q 739.3 481.2 752 503.5 Q 760.4 517.6 765 535.5 L 764 535.5 L 760 522.5 L 749 500.5 Q 737.4 480.1 721 464.5 L 721 461.5 L 752 426.5 L 750.5 426 L 716.5 457 L 724.5 448 L 760 416.5 L 759.5 413 Z " /><path fill="rgb(0,0,0)" stroke="rgb(0,0,0)" stroke-width="1" opacity="0.7058823529411765" d="M 402.5 416 L 406 420.5 L 404.5 420 Q 402.3 420.8 403 418.5 L 402.5 416 Z " /><path fill="rgb(0,0,0)" stroke="rgb(0,0,0)" stroke-width="1" opacity="0.7058823529411765" d="M 538.5 416 L 541 416.5 Q 520.3 422.3 503.5 432 Q 481.2 444.7 463.5 462 L 467.5 457 Q 496.2 429.7 538.5 416 Z " /><path fill="rgb(0,0,0)" stroke="rgb(0,0,0)" stroke-width="1" opacity="0.7058823529411765" d="M 642.5 416 Q 686.2 428.8 715 456.5 L 713.5 457 Q 698.5 442.5 679.5 432 L 658.5 422 L 642.5 417 L 642.5 416 Z " /><path fill="rgb(0,0,0)" stroke="rgb(0,0,0)" stroke-width="1" opacity="0.7058823529411765" d="M 592.5 420 L 601 420.5 L 592.5 421 L 592.5 420 Z " /><path fill="rgb(0,0,0)" stroke="rgb(0,0,0)" stroke-width="1" opacity="0.7058823529411765" d="M 407.5 421 L 411 421.5 L 407.5 422 L 407.5 421 Z " /><path fill="rgb(0,0,0)" stroke="rgb(0,0,0)" stroke-width="1" opacity="0.7058823529411765" d="M 571.5 421 L 577 421.5 L 571.5 422 L 571.5 421 Z " /><path fill="rgb(0,0,0)" stroke="rgb(0,0,0)" stroke-width="1" opacity="0.7058823529411765" d="M 605.5 421 L 612 421.5 L 605.5 422 L 605.5 421 Z " /><path fill="rgb(0,0,0)" stroke="rgb(0,0,0)" stroke-width="1" opacity="0.7058823529411765" d="M 563.5 422 L 568 422.5 L 563.5 423 L 563.5 422 Z " /><path fill="rgb(0,0,0)" stroke="rgb(0,0,0)" stroke-width="1" opacity="0.7058823529411765" d="M 614.5 422 L 619 422.5 L 614.5 423 L 614.5 422 Z " /><path fill="rgb(0,0,0)" stroke="rgb(0,0,0)" stroke-width="1" opacity="0.7058823529411765" d="M 558.5 423 L 562 423.5 L 558.5 424 L 558.5 423 Z " /><path fill="rgb(0,0,0)" stroke="rgb(0,0,0)" stroke-width="1" opacity="0.7058823529411765" d="M 621.5 423 L 625 423.5 L 621.5 424 L 621.5 423 Z " /><path fill="rgb(0,0,0)" stroke="rgb(0,0,0)" stroke-width="1" opacity="0.7058823529411765" d="M 553.5 424 L 557 424.5 L 553.5 425 L 553.5 424 Z " /><path fill="rgb(0,0,0)" stroke="rgb(0,0,0)" stroke-width="1" opacity="0.7058823529411765" d="M 626.5 424 Q 676.9 434.6 707 465.5 L 707 467.5 L 667.5 507 L 691 482.5 L 706 465.5 Q 692.5 452.5 675.5 443 L 652.5 432 L 637.5 427 L 626.5 425 L 626.5 424 Z " /><path fill="rgb(0,0,0)" stroke="rgb(0,0,0)" stroke-width="1" opacity="0.7058823529411765" d="M 549.5 425 L 552 425.5 L 539.5 429 L 539.5 428 L 549.5 425 Z " /><path fill="rgb(0,0,0)" stroke="rgb(0,0,0)" stroke-width="1" opacity="0.7058823529411765" d="M 533.5 430 L 535 430.5 Q 497.2 444.2 472 470.5 L 509.5 509 L 471 471.5 L 472.5 468 Q 497.4 443.4 533.5 430 Z " /><path fill="rgb(0,0,0)" stroke="rgb(0,0,0)" stroke-width="1" opacity="0.7058823529411765" d="M 584.5 430 L 585 476.5 L 584 476.5 L 584.5 430 Z " /><path fill="rgb(0,0,0)" stroke="rgb(0,0,0)" stroke-width="1" opacity="0.7058823529411765" d="M 456.5 469 L 454 472.5 Q 428.9 500.4 416.5 541 L 416 538.5 Q 429.5 497 456.5 469 Z " /><path fill="rgb(0,0,0)" stroke="rgb(0,0,0)" stroke-width="1" opacity="0.7058823529411765" d="M 711.5 472 L 689 495.5 L 673 513.5 Q 688.6 528.4 696 551.5 L 695 551.5 L 692 542.5 L 686 531.5 L 672 513.5 L 672 511.5 L 711.5 472 Z " /><path fill="rgb(0,0,0)" stroke="rgb(0,0,0)" stroke-width="1" opacity="0.7058823529411765" d="M 713.5 472 L 716 473.5 Q 746.5 505.5 760 554.5 L 759 554.5 L 753 535.5 L 741 509.5 Q 729 488.2 713.5 472 Z " /><path fill="rgb(0,0,0)" stroke="rgb(0,0,0)" stroke-width="1" opacity="0.7058823529411765" d="M 592.5 473 L 593 476.5 L 592 476.5 L 592.5 473 Z " /><path fill="rgb(0,0,0)" stroke="rgb(0,0,0)" stroke-width="1" opacity="0.7058823529411765" d="M 464.5 477 L 463 479.5 Q 438.2 507.2 426.5 548 L 426 545.5 Q 438.4 504.4 464.5 477 Z " /><path fill="rgb(0,0,0)" stroke="rgb(0,0,0)" stroke-width="1" opacity="0.7058823529411765" d="M 467.5 477 L 506 514.5 L 506 516.5 L 491 537.5 L 481.5 562 L 481 559.5 L 492 533.5 L 505 516.5 L 505 514.5 L 467.5 477 Z " /><path fill="rgb(0,0,0)" stroke="rgb(0,0,0)" stroke-width="1" opacity="0.7058823529411765" d="M 576.5 477 L 583 477.5 L 576.5 478 L 576.5 477 Z " /><path fill="rgb(0,0,0)" stroke="rgb(0,0,0)" stroke-width="1" opacity="0.7058823529411765" d="M 597.5 477 L 604 477.5 L 597.5 478 L 597.5 477 Z " /><path fill="rgb(0,0,0)" stroke="rgb(0,0,0)" stroke-width="1" opacity="0.7058823529411765" d="M 570.5 478 L 574 478.5 L 570.5 479 L 570.5 478 Z " /><path fill="rgb(0,0,0)" stroke="rgb(0,0,0)" stroke-width="1" opacity="0.7058823529411765" d="M 606.5 478 L 611 478.5 L 606.5 479 L 606.5 478 Z " /><path fill="rgb(0,0,0)" stroke="rgb(0,0,0)" stroke-width="1" opacity="0.7058823529411765" d="M 565.5 479 L 569 479.5 L 565.5 480 L 565.5 479 Z " /><path fill="rgb(0,0,0)" stroke="rgb(0,0,0)" stroke-width="1" opacity="0.7058823529411765" d="M 612.5 479 L 615 479.5 L 612.5 480 L 612.5 479 Z " /><path fill="rgb(0,0,0)" stroke="rgb(0,0,0)" stroke-width="1" opacity="0.7058823529411765" d="M 561.5 480 L 564 480.5 Q 532.2 488.7 512.5 509 L 517.5 503 Q 535.3 487.3 561.5 480 Z " /><path fill="rgb(0,0,0)" stroke="rgb(0,0,0)" stroke-width="1" opacity="0.7058823529411765" d="M 616.5 480 L 619 480.5 L 616.5 481 L 616.5 480 Z " /><path fill="rgb(0,0,0)" stroke="rgb(0,0,0)" stroke-width="1" opacity="0.7058823529411765" d="M 620.5 481 Q 648.6 488.4 666 506.5 L 662.5 504 L 645.5 492 Q 634.7 485.3 620.5 482 L 620.5 481 Z " /><path fill="rgb(0,0,0)" stroke="rgb(0,0,0)" stroke-width="1" opacity="0.7058823529411765" d="M 592 488 L 595 488.5 L 593 489 L 592.5 555 L 592 488 Z " /><path fill="rgb(0,0,0)" stroke="rgb(0,0,0)" stroke-width="1" opacity="0.7058823529411765" d="M 575.5 489 L 581 489.5 L 575.5 490 L 575.5 489 Z " /><path fill="rgb(0,0,0)" stroke="rgb(0,0,0)" stroke-width="1" opacity="0.7058823529411765" d="M 584.5 489 L 585 508.5 L 584 508.5 L 584.5 489 Z " /><path fill="rgb(0,0,0)" stroke="rgb(0,0,0)" stroke-width="1" opacity="0.7058823529411765" d="M 600.5 489 L 606 489.5 L 600.5 490 L 600.5 489 Z " /><path fill="rgb(0,0,0)" stroke="rgb(0,0,0)" stroke-width="1" opacity="0.7058823529411765" d="M 569.5 490 L 573 490.5 L 569.5 491 L 569.5 490 Z " /><path fill="rgb(0,0,0)" stroke="rgb(0,0,0)" stroke-width="1" opacity="0.7058823529411765" d="M 607.5 490 L 611 490.5 L 607.5 491 L 607.5 490 Z " /><path fill="rgb(0,0,0)" stroke="rgb(0,0,0)" stroke-width="1" opacity="0.7058823529411765" d="M 565.5 491 L 568 491.5 L 565.5 492 L 565.5 491 Z " /><path fill="rgb(0,0,0)" stroke="rgb(0,0,0)" stroke-width="1" opacity="0.7058823529411765" d="M 612.5 491 L 619 492.5 L 616.5 493 L 612.5 492 L 612.5 491 Z " /><path fill="rgb(0,0,0)" stroke="rgb(0,0,0)" stroke-width="1" opacity="0.7058823529411765" d="M 561.5 492 L 564 492.5 Q 537.2 499.7 521 517.5 L 565.5 563 L 576.5 573 L 578.5 573 L 582.5 571 L 582.5 572 L 575.5 574 L 520 519.5 L 520 516.5 L 524.5 512 Q 539.8 498.8 561.5 492 Z " /><path fill="rgb(0,0,0)" stroke="rgb(0,0,0)" stroke-width="1" opacity="0.7058823529411765" d="M 620.5 493 Q 643.6 499.4 658 514.5 L 655.5 513 L 641.5 503 L 620.5 494 L 620.5 493 Z " /><path fill="rgb(0,0,0)" stroke="rgb(0,0,0)" stroke-width="1" opacity="0.7058823529411765" d="M 657.5 516 L 658 517.5 L 602.5 574 L 599.5 574 L 593 570.5 L 594.5 570 L 601.5 573 L 657.5 516 Z " /><path fill="rgb(0,0,0)" stroke="rgb(0,0,0)" stroke-width="1" opacity="0.7058823529411765" d="M 662 521 L 664.5 521 L 669 525.5 Q 684.7 545.3 692 573.5 L 691 573.5 Q 683.2 542.3 664.5 522 L 636 549.5 L 607 579.5 L 607 581.5 L 608 587 L 675 587.5 L 607 588 L 606 579.5 L 662 522.5 L 662 521 Z " /><path fill="rgb(0,0,0)" stroke="rgb(0,0,0)" stroke-width="1" opacity="0.7058823529411765" d="M 513.5 524 L 512 526.5 Q 501.5 539 495.5 556 L 495 554.5 Q 501.4 536.4 513.5 524 Z " /><path fill="rgb(0,0,0)" stroke="rgb(0,0,0)" stroke-width="1" opacity="0.7058823529411765" d="M 515.5 524 L 572 579.5 L 569.5 588 L 569 585.5 L 571 579.5 L 515.5 524 Z " /><path fill="rgb(0,0,0)" stroke="rgb(0,0,0)" stroke-width="1" opacity="0.7058823529411765" d="M 765.5 537 L 768 547.5 L 767 547.5 L 765.5 537 Z " /><path fill="rgb(0,0,0)" stroke="rgb(0,0,0)" stroke-width="1" opacity="0.7058823529411765" d="M 415.5 542 L 416 544.5 L 414.5 548 L 414 545.5 L 415.5 542 Z " /><path fill="rgb(0,0,0)" stroke="rgb(0,0,0)" stroke-width="1" opacity="0.7058823529411765" d="M 413.5 549 L 414 551.5 L 413 551.5 L 413.5 549 Z " /><path fill="rgb(0,0,0)" stroke="rgb(0,0,0)" stroke-width="1" opacity="0.7058823529411765" d="M 425.5 549 L 426 551.5 L 425 551.5 L 425.5 549 Z " /><path fill="rgb(0,0,0)" stroke="rgb(0,0,0)" stroke-width="1" opacity="0.7058823529411765" d="M 768.5 549 L 769 552.5 L 768 552.5 L 768.5 549 Z " /><path fill="rgb(0,0,0)" stroke="rgb(0,0,0)" stroke-width="1" opacity="0.7058823529411765" d="M 412.5 553 L 413 556.5 L 412 556.5 L 412.5 553 Z " /><path fill="rgb(0,0,0)" stroke="rgb(0,0,0)" stroke-width="1" opacity="0.7058823529411765" d="M 424.5 553 L 425 555.5 L 424 555.5 L 424.5 553 Z " /><path fill="rgb(0,0,0)" stroke="rgb(0,0,0)" stroke-width="1" opacity="0.7058823529411765" d="M 696.5 553 L 698 559.5 L 697 559.5 L 696.5 553 Z " /><path fill="rgb(0,0,0)" stroke="rgb(0,0,0)" stroke-width="1" opacity="0.7058823529411765" d="M 769.5 555 L 770 558.5 L 769 558.5 L 769.5 555 Z " /><path fill="rgb(0,0,0)" stroke="rgb(0,0,0)" stroke-width="1" opacity="0.7058823529411765" d="M 760.5 556 L 761 558.5 L 760 558.5 L 760.5 556 Z " /><path fill="rgb(0,0,0)" stroke="rgb(0,0,0)" stroke-width="1" opacity="0.7058823529411765" d="M 423.5 557 L 424 560.5 L 423 560.5 L 423.5 557 Z " /><path fill="rgb(0,0,0)" stroke="rgb(0,0,0)" stroke-width="1" opacity="0.7058823529411765" d="M 494.5 557 L 495 558.5 L 492.5 566 L 492 563.5 L 494.5 557 Z " /><path fill="rgb(0,0,0)" stroke="rgb(0,0,0)" stroke-width="1" opacity="0.7058823529411765" d="M 585.5 557 L 586 571 L 584 570.5 L 585 569.5 L 585.5 557 Z " /><path fill="rgb(0,0,0)" stroke="rgb(0,0,0)" stroke-width="1" opacity="0.7058823529411765" d="M 411.5 558 L 412 561.5 L 411 561.5 L 411.5 558 Z " /><path fill="rgb(0,0,0)" stroke="rgb(0,0,0)" stroke-width="1" opacity="0.7058823529411765" d="M 761.5 560 L 763 566.5 L 762 566.5 L 761.5 560 Z " /><path fill="rgb(0,0,0)" stroke="rgb(0,0,0)" stroke-width="1" opacity="0.7058823529411765" d="M 698.5 561 L 699 564.5 L 698 564.5 L 698.5 561 Z " /><path fill="rgb(0,0,0)" stroke="rgb(0,0,0)" stroke-width="1" opacity="0.7058823529411765" d="M 770.5 561 L 771 567.5 L 770 567.5 L 770.5 561 Z " /><path fill="rgb(0,0,0)" stroke="rgb(0,0,0)" stroke-width="1" opacity="0.7058823529411765" d="M 422.5 562 L 423 566.5 L 422 566.5 L 422.5 562 Z " /><path fill="rgb(0,0,0)" stroke="rgb(0,0,0)" stroke-width="1" opacity="0.7058823529411765" d="M 410.5 563 L 411 567.5 L 410 567.5 L 410.5 563 Z " /><path fill="rgb(0,0,0)" stroke="rgb(0,0,0)" stroke-width="1" opacity="0.7058823529411765" d="M 480.5 563 L 481 566.5 L 479.5 571 L 479 567.5 L 480.5 563 Z " /><path fill="rgb(0,0,0)" stroke="rgb(0,0,0)" stroke-width="1" opacity="0.7058823529411765" d="M 491.5 567 L 492 569.5 L 491 569.5 L 491.5 567 Z " /><path fill="rgb(0,0,0)" stroke="rgb(0,0,0)" stroke-width="1" opacity="0.7058823529411765" d="M 699.5 567 L 700 573.5 L 699 573.5 L 699.5 567 Z " /><path fill="rgb(0,0,0)" stroke="rgb(0,0,0)" stroke-width="1" opacity="0.7058823529411765" d="M 421.5 568 L 422 572.5 L 421 572.5 L 421.5 568 Z " /><path fill="rgb(0,0,0)" stroke="rgb(0,0,0)" stroke-width="1" opacity="0.7058823529411765" d="M 763.5 568 L 764 571.5 L 763 571.5 L 763.5 568 Z " /><path fill="rgb(0,0,0)" stroke="rgb(0,0,0)" stroke-width="1" opacity="0.7058823529411765" d="M 409.5 569 L 410 574.5 L 409 574.5 L 409.5 569 Z " /><path fill="rgb(0,0,0)" stroke="rgb(0,0,0)" stroke-width="1" opacity="0.7058823529411765" d="M 771.5 571 L 772 586 L 787 586.5 L 771 587 L 771.5 571 Z " /><path fill="rgb(0,0,0)" stroke="rgb(0,0,0)" stroke-width="1" opacity="0.7058823529411765" d="M 478.5 572 L 479 577.5 L 478 577.5 L 478.5 572 Z " /><path fill="rgb(0,0,0)" stroke="rgb(0,0,0)" stroke-width="1" opacity="0.7058823529411765" d="M 490.5 572 L 491 575.5 L 490 575.5 L 490.5 572 Z " /><path fill="rgb(0,0,0)" stroke="rgb(0,0,0)" stroke-width="1" opacity="0.7058823529411765" d="M 764.5 573 L 765 576.5 L 764 576.5 L 764.5 573 Z " /><path fill="rgb(0,0,0)" stroke="rgb(0,0,0)" stroke-width="1" opacity="0.7058823529411765" d="M 692.5 575 L 693 577.5 L 692 577.5 L 692.5 575 Z " /><path fill="rgb(0,0,0)" stroke="rgb(0,0,0)" stroke-width="1" opacity="0.7058823529411765" d="M 420.5 576 L 421 583.5 L 420 583.5 L 420.5 576 Z " /><path fill="rgb(0,0,0)" stroke="rgb(0,0,0)" stroke-width="1" opacity="0.7058823529411765" d="M 408.5 578 L 409 586.5 L 408 586.5 L 408.5 578 Z " /><path fill="rgb(0,0,0)" stroke="rgb(0,0,0)" stroke-width="1" opacity="0.7058823529411765" d="M 489.5 578 L 490 584.5 L 489 584.5 L 489.5 578 Z " /><path fill="rgb(0,0,0)" stroke="rgb(0,0,0)" stroke-width="1" opacity="0.7058823529411765" d="M 693.5 579 L 694 582.5 L 693 582.5 L 693.5 579 Z " /><path fill="rgb(0,0,0)" stroke="rgb(0,0,0)" stroke-width="1" opacity="0.7058823529411765" d="M 765.5 579 L 766 583.5 L 765 583.5 L 765.5 579 Z " /><path fill="rgb(0,0,0)" stroke="rgb(0,0,0)" stroke-width="1" opacity="0.7058823529411765" d="M 477.5 580 L 478 589 L 464 588.5 L 477 588 L 477.5 580 Z " /><path fill="rgb(0,0,0)" stroke="rgb(0,0,0)" stroke-width="1" opacity="0.7058823529411765" d="M 839.5 582 Q 847.1 580.9 849 585.5 L 850 591.5 L 845.5 597 L 844 596.5 L 848 593.5 L 849 587.5 L 846.5 584 L 839.5 583 L 835.5 588 L 835 586.5 L 836 584 L 839.5 582 Z " /><path fill="rgb(0,0,0)" stroke="rgb(0,0,0)" stroke-width="1" opacity="0.7058823529411765" d="M 694.5 584 L 695 586.5 L 694 586.5 L 694.5 584 Z " /><path fill="rgb(0,0,0)" stroke="rgb(0,0,0)" stroke-width="1" opacity="0.7058823529411765" d="M 723.5 586 L 766 586.5 L 723.5 587 L 723.5 586 Z " /><path fill="rgb(0,0,0)" stroke="rgb(0,0,0)" stroke-width="1" opacity="0.7058823529411765" d="M 330.5 587 L 332 587.5 L 327 591.5 L 326.5 593 L 326 591.5 L 328.5 588 L 330.5 587 Z " /><path fill="rgb(0,0,0)" stroke="rgb(0,0,0)" stroke-width="1" opacity="0.7058823529411765" d="M 335.5 587 L 340 590.5 L 341.5 593 L 346 593.5 L 341 594 Q 340.9 599.6 336.5 602 L 334 601.5 L 339 598.5 L 340 592.5 L 336.5 588 L 335.5 587 Z " /><path fill="rgb(0,0,0)" stroke="rgb(0,0,0)" stroke-width="1" opacity="0.7058823529411765" d="M 793.5 587 L 805 587.5 L 793.5 588 L 793.5 587 Z " /><path fill="rgb(0,0,0)" stroke="rgb(0,0,0)" stroke-width="1" opacity="0.7058823529411765" d="M 489.5 588 L 545 588.5 L 489.5 589 L 489.5 588 Z " /><path fill="rgb(0,0,0)" stroke="rgb(0,0,0)" stroke-width="1" opacity="0.7058823529411765" d="M 811.5 588 L 823 588.5 L 811.5 589 L 811.5 588 Z " /><path fill="rgb(0,0,0)" stroke="rgb(0,0,0)" stroke-width="1" opacity="0.7058823529411765" d="M 392.5 589 L 408 589.5 L 392.5 590 L 392.5 589 Z " /><path fill="rgb(0,0,0)" stroke="rgb(0,0,0)" stroke-width="1" opacity="0.7058823529411765" d="M 829.5 589 Q 835.6 587.8 835 590.5 L 832.5 591 L 824 590.5 L 829.5 589 Z " /><path fill="rgb(0,0,0)" stroke="rgb(0,0,0)" stroke-width="1" opacity="0.7058823529411765" d="M 377.5 590 L 387 590.5 L 377.5 591 L 377.5 590 Z " /><path fill="rgb(0,0,0)" stroke="rgb(0,0,0)" stroke-width="1" opacity="0.7058823529411765" d="M 363.5 591 L 372 591.5 L 363.5 592 L 363.5 591 Z " /><path fill="rgb(0,0,0)" stroke="rgb(0,0,0)" stroke-width="1" opacity="0.7058823529411765" d="M 810.5 591 L 820 591.5 L 810.5 592 L 810.5 591 Z " /><path fill="rgb(0,0,0)" stroke="rgb(0,0,0)" stroke-width="1" opacity="0.7058823529411765" d="M 350.5 592 L 358 592.5 L 350.5 593 L 350.5 592 Z " /><path fill="rgb(0,0,0)" stroke="rgb(0,0,0)" stroke-width="1" opacity="0.7058823529411765" d="M 796.5 592 L 805 592.5 L 796.5 593 L 796.5 592 Z " /><path fill="rgb(0,0,0)" stroke="rgb(0,0,0)" stroke-width="1" opacity="0.7058823529411765" d="M 835.5 592 L 838.5 596 L 840 596.5 L 838.5 597 L 835 593.5 L 835.5 592 Z " /><path fill="rgb(0,0,0)" stroke="rgb(0,0,0)" stroke-width="1" opacity="0.7058823529411765" d="M 781.5 593 L 791 593.5 L 781.5 594 L 781.5 593 Z " /><path fill="rgb(0,0,0)" stroke="rgb(0,0,0)" stroke-width="1" opacity="0.7058823529411765" d="M 349.5 594 L 360 594.5 L 349.5 595 L 349.5 594 Z " /><path fill="rgb(0,0,0)" stroke="rgb(0,0,0)" stroke-width="1" opacity="0.7058823529411765" d="M 677.5 594 L 696 594 L 696 607.5 L 697 610.5 L 694.5 619 L 694 614.5 L 695 613.5 L 695 595 L 677.5 595 L 677.5 594 Z " /><path fill="rgb(0,0,0)" stroke="rgb(0,0,0)" stroke-width="1" opacity="0.7058823529411765" d="M 699.5 594 L 759 594.5 L 699.5 595 L 699.5 594 Z " /><path fill="rgb(0,0,0)" stroke="rgb(0,0,0)" stroke-width="1" opacity="0.7058823529411765" d="M 771.5 594 L 772 597.5 L 771 597.5 L 771.5 594 Z " /><path fill="rgb(0,0,0)" stroke="rgb(0,0,0)" stroke-width="1" opacity="0.7058823529411765" d="M 365.5 595 L 378 595.5 L 365.5 596 L 365.5 595 Z " /><path fill="rgb(0,0,0)" stroke="rgb(0,0,0)" stroke-width="1" opacity="0.7058823529411765" d="M 547.5 595 L 570.5 595 L 571 596.5 L 573 600.5 L 571 599.5 L 570 596 L 547.5 596 L 547.5 595 Z " /><path fill="rgb(0,0,0)" stroke="rgb(0,0,0)" stroke-width="1" opacity="0.7058823529411765" d="M 603 595 L 629 595.5 L 604.5 596 L 603 597.5 L 603 599.5 L 616.5 613 L 667.5 663 L 669.5 663 L 681.5 649 L 681 650.5 L 672 664.5 L 672 666.5 L 722 715.5 L 720.5 716 L 671 667.5 Q 672.8 662.3 667.5 664 L 602 599.5 L 603 595 Z " /><path fill="rgb(0,0,0)" stroke="rgb(0,0,0)" stroke-width="1" opacity="0.7058823529411765" d="M 326.5 596 L 330.5 601 L 332 601.5 L 330.5 602 L 327 599.5 L 326.5 596 Z " /><path fill="rgb(0,0,0)" stroke="rgb(0,0,0)" stroke-width="1" opacity="0.7058823529411765" d="M 384.5 596 L 397 596.5 L 384.5 597 L 384.5 596 Z " /><path fill="rgb(0,0,0)" stroke="rgb(0,0,0)" stroke-width="1" opacity="0.7058823529411765" d="M 420.5 596 L 477.5 596 L 478 596.5 L 478 603.5 L 477 603.5 Q 477.8 597.3 476.5 597 L 420 597 L 419.5 601 L 419 597.5 L 420.5 596 Z " /><path fill="rgb(0,0,0)" stroke="rgb(0,0,0)" stroke-width="1" opacity="0.7058823529411765" d="M 489.5 596 L 499 596.5 L 489.5 597 L 489.5 596 Z " /><path fill="rgb(0,0,0)" stroke="rgb(0,0,0)" stroke-width="1" opacity="0.7058823529411765" d="M 698.5 597 L 699 601.5 L 698 601.5 L 698.5 597 Z " /><path fill="rgb(0,0,0)" stroke="rgb(0,0,0)" stroke-width="1" opacity="0.7058823529411765" d="M 489.5 598 L 490 605.5 L 489 605.5 L 489.5 598 Z " /><path fill="rgb(0,0,0)" stroke="rgb(0,0,0)" stroke-width="1" opacity="0.7058823529411765" d="M 767.5 599 L 768 612.5 L 767 612.5 L 767.5 599 Z " /><path fill="rgb(0,0,0)" stroke="rgb(0,0,0)" stroke-width="1" opacity="0.7058823529411765" d="M 770.5 601 L 771 607.5 L 770 607.5 L 770.5 601 Z " /><path fill="rgb(0,0,0)" stroke="rgb(0,0,0)" stroke-width="1" opacity="0.7058823529411765" d="M 572.5 603 L 563 613.5 L 516.5 661 L 536 640.5 L 572.5 603 Z " /><path fill="rgb(0,0,0)" stroke="rgb(0,0,0)" stroke-width="1" opacity="0.7058823529411765" d="M 697.5 603 L 698 606.5 L 697 606.5 L 697.5 603 Z " /><path fill="rgb(0,0,0)" stroke="rgb(0,0,0)" stroke-width="1" opacity="0.7058823529411765" d="M 408.5 604 L 409 613.5 L 408 613.5 L 408.5 604 Z " /><path fill="rgb(0,0,0)" stroke="rgb(0,0,0)" stroke-width="1" opacity="0.7058823529411765" d="M 478.5 607 L 479 611.5 L 478 611.5 L 478.5 607 Z " /><path fill="rgb(0,0,0)" stroke="rgb(0,0,0)" stroke-width="1" opacity="0.7058823529411765" d="M 578.5 607 L 584 608.5 L 582.5 609 L 579.5 608 L 521.5 667 L 521 665.5 L 578.5 607 Z " /><path fill="rgb(0,0,0)" stroke="rgb(0,0,0)" stroke-width="1" opacity="0.7058823529411765" d="M 596.5 607 L 598 607.5 L 594 609 L 593.5 684 L 593 609.5 L 596.5 607 Z " /><path fill="rgb(0,0,0)" stroke="rgb(0,0,0)" stroke-width="1" opacity="0.7058823529411765" d="M 599.5 607 L 663 668.5 Q 664.1 671.8 661.5 671 Q 643.7 685.7 617.5 692 L 617.5 691 Q 644 684.5 662 669.5 L 653.5 660 L 601.5 610 L 599.5 607 Z " /><path fill="rgb(0,0,0)" stroke="rgb(0,0,0)" stroke-width="1" opacity="0.7058823529411765" d="M 420.5 608 L 421 615.5 L 420 615.5 L 420.5 608 Z " /><path fill="rgb(0,0,0)" stroke="rgb(0,0,0)" stroke-width="1" opacity="0.7058823529411765" d="M 490.5 608 L 492 616.5 L 491 616.5 L 490.5 608 Z " /><path fill="rgb(0,0,0)" stroke="rgb(0,0,0)" stroke-width="1" opacity="0.7058823529411765" d="M 585.5 609 L 586 638.5 L 585 638.5 L 585.5 609 Z " /><path fill="rgb(0,0,0)" stroke="rgb(0,0,0)" stroke-width="1" opacity="0.7058823529411765" d="M 769.5 610 L 770 614.5 L 769 614.5 L 769.5 610 Z " /><path fill="rgb(0,0,0)" stroke="rgb(0,0,0)" stroke-width="1" opacity="0.7058823529411765" d="M 479.5 613 L 480 616.5 L 479 616.5 L 479.5 613 Z " /><path fill="rgb(0,0,0)" stroke="rgb(0,0,0)" stroke-width="1" opacity="0.7058823529411765" d="M 409.5 616 L 410 621.5 L 409 621.5 L 409.5 616 Z " /><path fill="rgb(0,0,0)" stroke="rgb(0,0,0)" stroke-width="1" opacity="0.7058823529411765" d="M 768.5 617 L 769 620.5 L 768 620.5 L 768.5 617 Z " /><path fill="rgb(0,0,0)" stroke="rgb(0,0,0)" stroke-width="1" opacity="0.7058823529411765" d="M 421.5 618 L 422 623.5 L 421 623.5 L 421.5 618 Z " /><path fill="rgb(0,0,0)" stroke="rgb(0,0,0)" stroke-width="1" opacity="0.7058823529411765" d="M 480.5 618 L 481 620.5 L 480 620.5 L 480.5 618 Z " /><path fill="rgb(0,0,0)" stroke="rgb(0,0,0)" stroke-width="1" opacity="0.7058823529411765" d="M 492.5 618 L 493 620.5 L 492 620.5 L 492.5 618 Z " /><path fill="rgb(0,0,0)" stroke="rgb(0,0,0)" stroke-width="1" opacity="0.7058823529411765" d="M 766.5 619 L 768 626 L 766 625.5 L 766.5 619 Z " /><path fill="rgb(0,0,0)" stroke="rgb(0,0,0)" stroke-width="1" opacity="0.7058823529411765" d="M 481.5 622 Q 485.2 636.8 492 648.5 Q 498.1 659.9 507 668.5 L 507 671.5 L 465 712.5 L 506 669.5 L 492 650.5 Q 483.7 638 481.5 622 Z " /><path fill="rgb(0,0,0)" stroke="rgb(0,0,0)" stroke-width="1" opacity="0.7058823529411765" d="M 493.5 622 Q 500.3 645.2 515 660.5 L 513 661 L 499 639.5 L 493 624.5 L 493.5 622 Z " /><path fill="rgb(0,0,0)" stroke="rgb(0,0,0)" stroke-width="1" opacity="0.7058823529411765" d="M 410.5 624 L 411 628.5 L 410 628.5 L 410.5 624 Z " /><path fill="rgb(0,0,0)" stroke="rgb(0,0,0)" stroke-width="1" opacity="0.7058823529411765" d="M 422.5 625 L 423 628.5 L 422 628.5 L 422.5 625 Z " /><path fill="rgb(0,0,0)" stroke="rgb(0,0,0)" stroke-width="1" opacity="0.7058823529411765" d="M 766.5 627 L 767 630.5 L 763.5 643 L 763 639.5 L 765 633.5 L 765 628.5 L 766.5 627 Z " /><path fill="rgb(0,0,0)" stroke="rgb(0,0,0)" stroke-width="1" opacity="0.7058823529411765" d="M 411.5 630 L 412 633.5 L 411 633.5 L 411.5 630 Z " /><path fill="rgb(0,0,0)" stroke="rgb(0,0,0)" stroke-width="1" opacity="0.7058823529411765" d="M 423.5 631 L 424 633.5 L 423 633.5 L 423.5 631 Z " /><path fill="rgb(0,0,0)" stroke="rgb(0,0,0)" stroke-width="1" opacity="0.7058823529411765" d="M 412.5 635 L 415 645.5 L 414 645.5 L 412.5 635 Z " /><path fill="rgb(0,0,0)" stroke="rgb(0,0,0)" stroke-width="1" opacity="0.7058823529411765" d="M 424.5 635 L 427 645.5 L 426 645.5 L 424.5 635 Z " /><path fill="rgb(0,0,0)" stroke="rgb(0,0,0)" stroke-width="1" opacity="0.7058823529411765" d="M 415.5 647 Q 421.8 670.8 433 689.5 Q 442.6 706.9 456 720.5 L 456 723.5 L 429 753.5 L 429 755 L 430.5 755 L 459.5 728 L 462.5 728 Q 493.1 760.9 542 775.5 L 539.5 776 Q 516.9 769.1 498.5 758 L 479.5 745 L 464.5 731 L 460.5 729 L 417.5 768 L 412.5 770 L 412.5 769 L 414.5 769 L 419 764.5 L 455 721.5 Q 439.2 704.3 428 682.5 L 420 664.5 L 415 649.5 L 415.5 647 Z " /><path fill="rgb(0,0,0)" stroke="rgb(0,0,0)" stroke-width="1" opacity="0.7058823529411765" d="M 427.5 647 L 431 657.5 L 430 657.5 L 427 649.5 L 427.5 647 Z " /><path fill="rgb(0,0,0)" stroke="rgb(0,0,0)" stroke-width="1" opacity="0.7058823529411765" d="M 431.5 659 Q 443 690.5 464 712.5 L 462.5 713 Q 450.3 699.3 441 682.5 L 432 663.5 L 431.5 659 Z " /><path fill="rgb(0,0,0)" stroke="rgb(0,0,0)" stroke-width="1" opacity="0.7058823529411765" d="M 521.5 668 Q 536.9 683.1 560 690.5 L 557.5 691 L 536.5 681 L 525.5 673 L 521.5 668 Z " /><path fill="rgb(0,0,0)" stroke="rgb(0,0,0)" stroke-width="1" opacity="0.7058823529411765" d="M 664.5 673 L 665 674.5 Q 654.2 687.2 639.5 696 L 621.5 703 L 621.5 702 Q 646.2 694.7 661 677.5 L 664.5 673 Z " /><path fill="rgb(0,0,0)" stroke="rgb(0,0,0)" stroke-width="1" opacity="0.7058823529411765" d="M 667.5 673 L 716 720.5 L 705.5 711 L 667.5 673 Z " /><path fill="rgb(0,0,0)" stroke="rgb(0,0,0)" stroke-width="1" opacity="0.7058823529411765" d="M 510.5 676 L 512 676.5 L 470.5 719 L 470 717.5 L 510.5 676 Z " /><path fill="rgb(0,0,0)" stroke="rgb(0,0,0)" stroke-width="1" opacity="0.7058823529411765" d="M 513.5 676 Q 531.6 694.4 560 702.5 L 557.5 703 Q 529.5 694.5 513.5 676 Z " /><path fill="rgb(0,0,0)" stroke="rgb(0,0,0)" stroke-width="1" opacity="0.7058823529411765" d="M 586.5 686 L 587 694.5 L 583.5 696 L 583.5 695 L 586 694.5 L 586.5 686 Z " /><path fill="rgb(0,0,0)" stroke="rgb(0,0,0)" stroke-width="1" opacity="0.7058823529411765" d="M 745.5 686 L 745 687.5 L 743.5 690 L 744 688.5 L 745.5 686 Z " /><path fill="rgb(0,0,0)" stroke="rgb(0,0,0)" stroke-width="1" opacity="0.7058823529411765" d="M 561.5 691 L 573 693.5 L 568.5 694 L 561.5 692 L 561.5 691 Z " /><path fill="rgb(0,0,0)" stroke="rgb(0,0,0)" stroke-width="1" opacity="0.7058823529411765" d="M 742.5 691 L 742 692.5 L 725 718.5 L 768 767.5 L 765.5 772 L 765 769.5 L 767 766.5 L 720 725.5 L 723.5 728 L 754.5 754 L 752 750.5 L 724 719.5 L 724 717.5 L 726 714.5 L 723 715.5 L 742.5 691 Z " /><path fill="rgb(0,0,0)" stroke="rgb(0,0,0)" stroke-width="1" opacity="0.7058823529411765" d="M 613.5 692 L 616 692.5 L 613.5 693 L 613.5 692 Z " /><path fill="rgb(0,0,0)" stroke="rgb(0,0,0)" stroke-width="1" opacity="0.7058823529411765" d="M 608.5 693 L 612 693.5 L 608.5 694 L 608.5 693 Z " /><path fill="rgb(0,0,0)" stroke="rgb(0,0,0)" stroke-width="1" opacity="0.7058823529411765" d="M 574.5 694 L 579 694.5 L 574.5 695 L 574.5 694 Z " /><path fill="rgb(0,0,0)" stroke="rgb(0,0,0)" stroke-width="1" opacity="0.7058823529411765" d="M 601.5 694 L 607 694.5 L 601.5 695 L 601.5 694 Z " /><path fill="rgb(0,0,0)" stroke="rgb(0,0,0)" stroke-width="1" opacity="0.7058823529411765" d="M 594.5 695 L 598 695.5 L 594.5 696 L 594.5 695 Z " /><path fill="rgb(0,0,0)" stroke="rgb(0,0,0)" stroke-width="1" opacity="0.7058823529411765" d="M 561.5 703 L 568 704.5 L 564.5 705 L 561.5 704 L 561.5 703 Z " /><path fill="rgb(0,0,0)" stroke="rgb(0,0,0)" stroke-width="1" opacity="0.7058823529411765" d="M 617.5 703 L 620 703.5 L 617.5 704 L 617.5 703 Z " /><path fill="rgb(0,0,0)" stroke="rgb(0,0,0)" stroke-width="1" opacity="0.7058823529411765" d="M 612.5 704 L 616 704.5 L 607.5 706 L 607.5 705 L 612.5 704 Z " /><path fill="rgb(0,0,0)" stroke="rgb(0,0,0)" stroke-width="1" opacity="0.7058823529411765" d="M 569.5 705 L 574 705.5 L 569.5 706 L 569.5 705 Z " /><path fill="rgb(0,0,0)" stroke="rgb(0,0,0)" stroke-width="1" opacity="0.7058823529411765" d="M 575.5 706 L 582 706.5 L 575.5 707 L 575.5 706 Z " /><path fill="rgb(0,0,0)" stroke="rgb(0,0,0)" stroke-width="1" opacity="0.7058823529411765" d="M 599.5 706 L 605 706.5 L 599.5 707 L 599.5 706 Z " /><path fill="rgb(0,0,0)" stroke="rgb(0,0,0)" stroke-width="1" opacity="0.7058823529411765" d="M 586.5 707 L 587 767.5 L 586 767.5 L 586.5 707 Z " /><path fill="rgb(0,0,0)" stroke="rgb(0,0,0)" stroke-width="1" opacity="0.7058823529411765" d="M 470.5 720 Q 497.4 748.6 539 762.5 L 537.5 763 Q 495.5 749.1 470.5 720 Z " /><path fill="rgb(0,0,0)" stroke="rgb(0,0,0)" stroke-width="1" opacity="0.7058823529411765" d="M 715.5 722 L 716 723.5 Q 689.3 748.8 649.5 761 L 649.5 760 Q 689 747.5 715.5 722 Z " /><path fill="rgb(0,0,0)" stroke="rgb(0,0,0)" stroke-width="1" opacity="0.7058823529411765" d="M 717 725 L 719 725.5 L 709.5 736 Q 693.2 752.2 672.5 764 Q 654.1 774.6 629.5 779 L 629.5 778 Q 656.3 773.3 675.5 761 Q 699.2 746.7 717 726.5 L 717 725 Z " /><path fill="rgb(0,0,0)" stroke="rgb(0,0,0)" stroke-width="1" opacity="0.7058823529411765" d="M 594.5 732 L 595 770.5 L 594 770.5 L 594.5 732 Z " /><path fill="rgb(0,0,0)" stroke="rgb(0,0,0)" stroke-width="1" opacity="0.7058823529411765" d="M 646.5 761 L 648 761.5 L 637.5 765 L 637.5 764 L 646.5 761 Z " /><path fill="rgb(0,0,0)" stroke="rgb(0,0,0)" stroke-width="1" opacity="0.7058823529411765" d="M 540.5 763 L 554 766.5 L 550.5 767 L 540.5 764 L 540.5 763 Z " /><path fill="rgb(0,0,0)" stroke="rgb(0,0,0)" stroke-width="1" opacity="0.7058823529411765" d="M 633.5 765 L 636 765.5 L 633.5 766 L 633.5 765 Z " /><path fill="rgb(0,0,0)" stroke="rgb(0,0,0)" stroke-width="1" opacity="0.7058823529411765" d="M 769.5 765 L 772 765.5 L 769.5 766 L 769.5 765 Z " /><path fill="rgb(0,0,0)" stroke="rgb(0,0,0)" stroke-width="1" opacity="0.7058823529411765" d="M 774.5 765 L 780 769.5 L 779.5 772 L 775.5 766 L 774.5 765 Z " /><path fill="rgb(0,0,0)" stroke="rgb(0,0,0)" stroke-width="1" opacity="0.7058823529411765" d="M 629.5 766 L 632 766.5 L 629.5 767 L 629.5 766 Z " /><path fill="rgb(0,0,0)" stroke="rgb(0,0,0)" stroke-width="1" opacity="0.7058823529411765" d="M 555.5 767 L 559 767.5 L 555.5 768 L 555.5 767 Z " /><path fill="rgb(0,0,0)" stroke="rgb(0,0,0)" stroke-width="1" opacity="0.7058823529411765" d="M 624.5 767 L 628 767.5 L 619.5 769 L 619.5 768 L 624.5 767 Z " /><path fill="rgb(0,0,0)" stroke="rgb(0,0,0)" stroke-width="1" opacity="0.7058823529411765" d="M 560.5 768 L 564 768.5 L 560.5 769 L 560.5 768 Z " /><path fill="rgb(0,0,0)" stroke="rgb(0,0,0)" stroke-width="1" opacity="0.7058823529411765" d="M 406.5 769 L 408 769.5 L 404 772.5 L 403 778.5 L 405.5 782 L 409 783.5 L 407.5 784 L 403 780.5 L 402 774.5 L 406.5 769 Z " /><path fill="rgb(0,0,0)" stroke="rgb(0,0,0)" stroke-width="1" opacity="0.7058823529411765" d="M 565.5 769 L 571 769.5 L 565.5 770 L 565.5 769 Z " /><path fill="rgb(0,0,0)" stroke="rgb(0,0,0)" stroke-width="1" opacity="0.7058823529411765" d="M 612.5 769 L 617 769.5 L 612.5 770 L 612.5 769 Z " /><path fill="rgb(0,0,0)" stroke="rgb(0,0,0)" stroke-width="1" opacity="0.7058823529411765" d="M 573.5 770 L 582 770.5 L 573.5 771 L 573.5 770 Z " /><path fill="rgb(0,0,0)" stroke="rgb(0,0,0)" stroke-width="1" opacity="0.7058823529411765" d="M 599.5 770 L 610 770.5 L 599.5 771 L 599.5 770 Z " /><path fill="rgb(0,0,0)" stroke="rgb(0,0,0)" stroke-width="1" opacity="0.7058823529411765" d="M 415.5 771 L 417 773.5 L 416 773.5 L 415.5 771 Z " /><path fill="rgb(0,0,0)" stroke="rgb(0,0,0)" stroke-width="1" opacity="0.7058823529411765" d="M 765.5 773 L 769.5 779 L 771 779.5 L 769.5 780 L 766 777.5 L 765.5 773 Z " /><path fill="rgb(0,0,0)" stroke="rgb(0,0,0)" stroke-width="1" opacity="0.7058823529411765" d="M 779.5 773 L 780 775.5 L 778 779 L 774.5 780 L 774.5 779 L 779 775.5 L 779.5 773 Z " /><path fill="rgb(0,0,0)" stroke="rgb(0,0,0)" stroke-width="1" opacity="0.7058823529411765" d="M 543.5 776 L 546 776.5 L 543.5 777 L 543.5 776 Z " /><path fill="rgb(0,0,0)" stroke="rgb(0,0,0)" stroke-width="1" opacity="0.7058823529411765" d="M 547.5 777 L 550 777.5 L 547.5 778 L 547.5 777 Z " /><path fill="rgb(0,0,0)" stroke="rgb(0,0,0)" stroke-width="1" opacity="0.7058823529411765" d="M 416.5 778 L 417 779.5 L 414.5 783 L 410.5 784 L 410.5 783 Q 415.5 783.5 416 779.5 L 416.5 778 Z " /><path fill="rgb(0,0,0)" stroke="rgb(0,0,0)" stroke-width="1" opacity="0.7058823529411765" d="M 551.5 778 L 554 778.5 L 551.5 779 L 551.5 778 Z " /><path fill="rgb(0,0,0)" stroke="rgb(0,0,0)" stroke-width="1" opacity="0.7058823529411765" d="M 555.5 779 L 559 779.5 L 555.5 780 L 555.5 779 Z " /><path fill="rgb(0,0,0)" stroke="rgb(0,0,0)" stroke-width="1" opacity="0.7058823529411765" d="M 624.5 779 L 628 779.5 L 624.5 780 L 624.5 779 Z " /><path fill="rgb(0,0,0)" stroke="rgb(0,0,0)" stroke-width="1" opacity="0.7058823529411765" d="M 560.5 780 L 565 780.5 L 560.5 781 L 560.5 780 Z " /><path fill="rgb(0,0,0)" stroke="rgb(0,0,0)" stroke-width="1" opacity="0.7058823529411765" d="M 618.5 780 L 623 780.5 L 618.5 781 L 618.5 780 Z " /><path fill="rgb(0,0,0)" stroke="rgb(0,0,0)" stroke-width="1" opacity="0.7058823529411765" d="M 567.5 781 L 573 781.5 L 567.5 782 L 567.5 781 Z " /><path fill="rgb(0,0,0)" stroke="rgb(0,0,0)" stroke-width="1" opacity="0.7058823529411765" d="M 610.5 781 L 616 781.5 L 610.5 782 L 610.5 781 Z " /><path fill="rgb(0,0,0)" stroke="rgb(0,0,0)" stroke-width="1" opacity="0.7058823529411765" d="M 575.5 782 L 587 782.5 L 575.5 783 L 575.5 782 Z " /><path fill="rgb(0,0,0)" stroke="rgb(0,0,0)" stroke-width="1" opacity="0.7058823529411765" d="M 596.5 782 L 608 782.5 L 596.5 783 L 596.5 782 Z " /><path fill="rgb(0,0,0)" stroke="rgb(0,0,0)" stroke-width="1" opacity="0.7058823529411765" d="M 594.5 783 L 595 787.5 L 594 787.5 L 594.5 783 Z " /><path fill="rgb(0,0,0)" stroke="rgb(0,0,0)" stroke-width="1" opacity="0.7058823529411765" d="M 587.5 785 L 588 793.5 L 587 793.5 L 587.5 785 Z " /><path fill="rgb(0,0,0)" stroke="rgb(0,0,0)" stroke-width="1" opacity="0.7058823529411765" d="M 593.5 794 L 594 806.5 L 593 806.5 L 593.5 794 Z " /><path fill="rgb(0,0,0)" stroke="rgb(0,0,0)" stroke-width="1" opacity="0.7058823529411765" d="M 588.5 799 L 589 808.5 L 588 808.5 L 588.5 799 Z " /><path fill="rgb(0,0,0)" stroke="rgb(0,0,0)" stroke-width="1" opacity="0.7058823529411765" d="M 589.5 813 L 590 822.5 L 589 822.5 L 589.5 813 Z " /><path fill="rgb(0,0,0)" stroke="rgb(0,0,0)" stroke-width="1" opacity="0.7058823529411765" d="M 592.5 813 L 593 824.5 L 592 824.5 L 592.5 813 Z " /><path fill="rgb(0,0,0)" stroke="rgb(0,0,0)" stroke-width="1" opacity="0.7058823529411765" d="M 590.5 827 Q 593.5 831.6 592 840 L 594 840.5 Q 587.1 840.1 585.5 845 L 585 843.5 L 591 840 Q 589.1 835 590.5 827 Z " /><path fill="rgb(0,0,0)" stroke="rgb(0,0,0)" stroke-width="1" opacity="0.7058823529411765" d="M 595.5 841 L 598 842 L 599 845.5 L 598 845.5 L 595.5 841 Z " /><path fill="rgb(0,0,0)" stroke="rgb(0,0,0)" stroke-width="1" opacity="0.7058823529411765" d="M 584.5 846 L 585 849.5 L 584 849.5 L 584.5 846 Z " /><path fill="rgb(0,0,0)" stroke="rgb(0,0,0)" stroke-width="1" opacity="0.7058823529411765" d="M 598.5 850 L 599 851.5 L 594.5 855 L 594.5 854 L 598 851.5 L 598.5 850 Z " /><path fill="rgb(0,0,0)" stroke="rgb(0,0,0)" stroke-width="1" opacity="0.7058823529411765" d="M 585.5 851 Q 587.8 854.8 593 855.5 L 590.5 856 L 586 854 L 585.5 851 Z " /><path fill="rgb(0,0,0)" stroke="rgb(0,0,0)" stroke-width="1" opacity="1" d="M 585.5 332 Q 591.3 331.2 593 334.5 L 594 341.5 Q 591.9 345.9 585.5 346 L 582 343.5 L 580 338.5 L 583.5 333 L 585.5 332 Z " /><path fill="rgb(0,0,0)" stroke="rgb(0,0,0)" stroke-width="1" opacity="1" d="M 587.5 349 L 589 374.5 L 590 375.5 L 590 389.5 L 591 390.5 L 591 409 L 619.5 411 L 653.5 420 L 679.5 432 Q 698.5 442.5 713.5 457 L 716.5 457 L 754.5 423 L 749 429.5 L 721 461.5 L 721 464.5 Q 745.7 488.3 760 522.5 L 765 536.5 L 769 553.5 L 770 567.5 L 771 568.5 L 771 587 L 792.5 587 L 793.5 588 L 829 589.5 L 823.5 591 L 810.5 591 L 809.5 592 L 796.5 592 L 795.5 593 L 771 594 L 770 609.5 L 767.5 622 L 767 613.5 L 768 612.5 L 768 599.5 L 767 594 L 699.5 594 L 699 596.5 L 696.5 608 L 696 594 L 677.5 594 L 676.5 595 L 603 595 L 602 599.5 L 667.5 664 L 670.5 664 L 673 662.5 Q 670.3 663.3 671 667.5 L 720.5 716 L 723.5 716 L 729 711.5 L 724 717.5 L 724 719.5 L 760 758.5 L 754.5 754 L 724.5 728 Q 722.4 724.1 717 725 L 717 726.5 L 701.5 742 Q 681.9 759.9 655.5 771 L 623.5 780 L 610.5 781 L 609.5 782 L 596.5 782 L 594 783 L 591.5 830 L 590 826.5 L 588 785.5 L 587 782 L 573.5 782 L 572.5 781 L 554.5 779 L 520.5 768 L 492.5 753 Q 475.9 742.1 462.5 728 L 459.5 728 L 423.5 761 L 429 754.5 L 456 723.5 L 456 720.5 Q 433.9 697.1 421 664.5 L 411 629.5 L 408 597 L 346 593.5 L 357.5 593 L 358.5 592 L 371.5 592 L 372.5 591 L 386.5 591 L 387.5 590 L 408 590 Q 410.1 585.1 409 575.5 L 413 552.5 L 422 524.5 L 437 495.5 L 457 469.5 L 457 466.5 L 421 427.5 L 423.5 429 L 461.5 462 L 464.5 462 Q 487.2 438.2 519.5 424 L 553.5 413 L 584 409 L 587.5 349 Z M 592 420 L 592 477 L 612 479 L 629 484 L 646 492 L 666 507 L 668 507 L 707 468 L 707 466 Q 685 443 653 431 L 625 423 L 592 420 Z M 572 421 L 546 426 L 519 436 Q 492 449 473 468 L 471 472 L 510 509 L 515 508 Q 527 495 545 487 L 565 480 L 575 478 L 583 478 L 585 477 L 585 431 L 584 430 L 584 421 L 572 421 Z M 712 472 L 672 512 L 672 514 Q 684 526 692 543 L 698 561 L 699 574 L 700 575 L 700 587 L 701 587 L 766 587 L 766 580 L 763 564 L 757 544 L 749 524 Q 736 495 716 474 Q 715 471 712 472 Z M 465 477 Q 445 498 433 526 L 426 546 L 420 577 L 420 589 L 421 589 L 478 589 L 479 572 L 485 551 L 495 531 L 506 517 L 506 515 L 476 484 L 468 477 L 465 477 Z M 592 488 L 592 555 L 593 556 L 593 571 L 600 574 L 603 574 L 658 518 L 658 515 Q 647 504 633 497 L 616 491 L 592 488 Z M 576 489 L 553 495 Q 537 502 525 512 L 520 517 L 520 520 L 576 574 L 586 571 L 586 558 L 585 557 L 585 490 L 585 489 L 576 489 Z M 662 521 L 662 523 L 606 580 L 607 588 L 675 588 L 676 587 L 695 587 Q 689 550 669 526 L 665 521 L 662 521 Z M 514 524 Q 491 547 489 589 L 545 589 L 546 588 L 570 588 L 572 580 L 527 534 L 516 524 L 514 524 Z M 548 595 L 547 596 L 489 596 L 490 613 L 494 628 Q 501 646 513 660 Q 512 663 517 661 L 573 604 Q 574 598 571 597 L 571 595 L 548 595 Z M 421 596 L 419 598 L 421 624 L 425 643 L 432 664 Q 444 692 463 713 L 466 713 L 507 672 L 507 669 Q 495 656 487 639 L 481 622 L 478 607 L 478 597 L 478 596 L 421 596 Z M 579 607 L 521 666 L 521 669 Q 531 679 546 686 L 565 693 L 575 695 L 583 695 L 584 696 L 587 695 L 587 687 L 586 686 L 586 609 L 579 607 Z M 597 607 L 593 610 L 593 684 L 594 685 L 594 696 Q 599 694 607 695 L 626 690 L 651 679 L 662 671 Q 664 672 663 669 L 601 607 L 597 607 Z M 665 673 L 661 678 Q 649 691 632 699 L 617 704 L 607 706 L 600 706 L 599 707 Q 594 706 594 708 L 594 771 L 610 771 L 618 769 L 624 769 L 660 758 Q 690 746 714 726 Q 717 725 716 721 L 680 684 L 668 673 L 665 673 Z M 511 676 L 470 718 L 470 721 Q 491 743 522 757 L 547 766 L 574 771 L 587 771 L 587 771 L 587 707 L 569 705 L 547 698 Q 528 690 514 676 L 511 676 Z " /><path fill="rgb(0,0,0)" stroke="rgb(0,0,0)" stroke-width="1" opacity="1" d="M 764.5 404 L 768.5 404 L 773 408.5 Q 774 415 770.5 417 L 763.5 418 L 761 417 L 759 410.5 L 761 406 L 764.5 404 Z " /><path fill="rgb(0,0,0)" stroke="rgb(0,0,0)" stroke-width="1" opacity="1" d="M 407.5 407 Q 413.7 406.3 415 410.5 L 416 415.5 L 414 420 Q 411.9 421.6 406.5 421 Q 402.1 418.9 402 412.5 L 405.5 408 L 407.5 407 Z " /><path fill="rgb(0,0,0)" stroke="rgb(0,0,0)" stroke-width="1" opacity="1" d="M 839.5 583 Q 846 582 848 585.5 L 849 591.5 L 845.5 596 L 840.5 597 L 836 593.5 L 835 588.5 L 839.5 583 Z " /><path fill="rgb(0,0,0)" stroke="rgb(0,0,0)" stroke-width="1" opacity="1" d="M 332.5 587 Q 337.3 587.3 339 590.5 L 340 596.5 L 337.5 600 L 332.5 602 L 327 597.5 L 326 593.5 L 330.5 588 L 332.5 587 Z " /><path fill="rgb(0,0,0)" stroke="rgb(0,0,0)" stroke-width="1" opacity="1" d="M 772.5 765 L 779 769.5 L 780 772.5 L 775.5 779 L 771.5 780 L 766 775.5 L 765 772.5 L 768 766 L 772.5 765 Z " /><path fill="rgb(0,0,0)" stroke="rgb(0,0,0)" stroke-width="1" opacity="1" d="M 408.5 769 L 415 770 L 417 777.5 L 412.5 783 L 409.5 784 L 404 780.5 L 403 774.5 L 406.5 770 L 408.5 769 Z " /><path fill="rgb(0,0,0)" stroke="rgb(0,0,0)" stroke-width="1" opacity="1" d="M 589.5 841 Q 596.8 839.8 598 844.5 L 599 849.5 L 595.5 854 L 590.5 855 L 585 850.5 L 585 845.5 L 589.5 841 Z " /></svg>