<svg width="1181" height="1181" version="1.1" xmlns="http://www.w3.org/2000/svg" desc="Created with imagetracer.js version 1.2.6" ><path fill="rgb(0,0,0)" stroke="rgb(0,0,0)" stroke-width="1" opacity="0.8901960784313725" d="M 583.5 419 Q 589.8 418.2 592.5 421 L 878.5 584 L 887 590.5 L 888 593.5 L 884.5 599 L 735.5 686 L 595.5 761 L 596.5 759 L 732.5 673 L 869 593.5 L 859.5 588 L 842.5 584 L 829.5 583 L 828.5 582 L 802.5 581 L 801.5 582 L 789.5 582 L 788.5 583 L 768.5 585 L 749.5 590 L 736.5 595 Q 693.8 614.8 664 647.5 L 653.5 659 Q 638.7 672.7 616.5 679 L 599.5 682 L 583.5 682 L 563.5 678 L 545.5 670 Q 531.2 661.8 521 649.5 Q 511.7 638.3 507 622.5 L 505 613.5 L 505 590.5 Q 510.7 560.7 530.5 545 Q 544.7 531.7 571.5 531 L 572.5 532 L 584.5 533 L 593.5 536 Q 606.8 541.8 615 552.5 Q 624.4 563.6 625 583.5 L 620 607.5 Q 616.4 615.9 609.5 621 Q 601.2 629.2 582.5 627 Q 570.5 624 564 615.5 Q 556.5 607.5 557 591.5 L 557.5 590 Q 554.5 589.1 556 593.5 L 555 594.5 L 555 606.5 Q 557.9 623.1 568.5 632 Q 577.2 640.3 589.5 645 L 597.5 647 L 614.5 647 Q 635.6 642.6 647 628.5 Q 655.5 619 660 605.5 L 663 590.5 L 663 578.5 L 661 567.5 L 655 552.5 Q 648.1 540.4 637.5 532 Q 626.2 522.3 610.5 517 L 591.5 513 L 576.5 513 L 560.5 516 L 549.5 520 Q 532.6 527.6 521 540.5 L 506.5 556 Q 478.1 584.1 438.5 601 L 403.5 611 Q 398 609.5 396.5 612 L 363.5 612 L 326.5 605 L 327.5 607 L 435.5 671 L 576 762.5 L 574.5 762 L 430.5 683 L 288.5 598 L 283 593.5 L 282 589.5 L 286.5 584 L 583.5 419 Z M 586 432 L 301 591 L 316 599 L 349 605 L 386 605 L 387 604 L 401 603 L 423 598 L 444 590 Q 466 580 484 565 Q 506 547 526 525 L 536 518 L 559 508 L 575 505 L 594 505 L 609 508 Q 630 514 645 527 Q 654 535 661 547 L 668 563 L 671 577 L 671 594 L 668 608 L 663 620 L 650 638 L 635 649 L 617 655 L 597 655 L 592 654 Q 577 650 568 642 Q 555 631 551 611 L 551 600 L 553 591 L 560 578 L 575 566 L 583 563 L 597 563 L 610 569 Q 616 573 619 582 L 620 582 Q 619 569 613 562 Q 601 545 579 540 L 561 540 L 556 541 L 538 550 Q 518 564 513 593 L 513 612 L 515 621 L 526 643 Q 536 656 552 664 L 566 670 L 586 674 L 598 674 L 599 673 L 611 672 Q 625 669 636 662 L 646 655 Q 665 633 688 615 Q 706 601 728 590 Q 745 582 767 577 L 778 576 L 779 575 L 795 575 L 796 574 L 797 575 L 822 576 L 847 582 L 847 580 L 586 432 Z " /><path fill="rgb(0,0,0)" stroke="rgb(0,0,0)" stroke-width="1" opacity="0.8901960784313725" d="M 593.5 761 L 592.5 763 L 593.5 761 Z " /><path fill="rgb(0,0,0)" stroke="rgb(0,0,0)" stroke-width="1" opacity="0" d="M 0 0 L 1181 0 L 1181 1181 L 0 1181 L 0 0 Z M 584 419 L 287 584 L 282 590 L 283 594 L 289 598 L 431 683 L 569 759 L 570 759 L 436 671 L 328 607 L 327 605 L 364 612 L 397 612 Q 398 610 404 611 L 439 601 Q 478 584 507 556 L 521 541 Q 533 528 550 520 L 561 516 L 577 513 L 592 513 L 611 517 Q 626 522 638 532 Q 648 540 655 553 L 661 568 L 663 579 L 663 591 L 660 606 Q 655 619 647 629 Q 636 643 615 647 L 598 647 L 590 645 Q 577 640 569 632 Q 558 623 555 607 L 555 595 L 556 594 Q 554 589 558 590 L 557 592 Q 557 607 564 616 Q 571 624 583 627 Q 601 629 610 621 Q 616 616 620 608 L 625 584 Q 624 564 615 553 Q 607 542 594 536 L 585 533 L 573 532 L 572 531 Q 545 532 531 545 Q 511 561 505 591 L 505 614 L 507 623 Q 512 638 521 650 Q 531 662 546 670 L 564 678 L 584 682 L 600 682 L 617 679 Q 639 673 654 659 L 664 648 Q 694 615 737 595 L 750 590 L 769 585 L 789 583 L 790 582 L 802 582 L 803 581 L 829 582 L 830 583 L 843 584 L 860 588 L 869 594 L 733 673 L 600 757 L 599 759 L 736 686 L 885 599 L 888 594 L 887 591 L 879 584 L 593 421 Q 590 418 584 419 Z M 571 759 L 572 761 L 573 761 L 571 759 Z " /><path fill="rgb(0,0,0)" stroke="rgb(0,0,0)" stroke-width="1" opacity="0" d="M 585.5 432 L 847 580 L 846.5 582 L 821.5 576 L 796.5 575 L 795.5 574 L 794.5 575 L 778.5 575 L 777.5 576 L 766.5 577 Q 745.2 581.7 727.5 590 Q 705.6 600.6 687.5 615 Q 664.8 633.3 645.5 655 L 635.5 662 Q 624.7 668.7 610.5 672 L 598.5 673 L 597.5 674 L 585.5 674 L 565.5 670 L 551.5 664 Q 536.4 655.6 526 642.5 L 515 620.5 L 513 611.5 L 513 592.5 Q 518.4 564.4 537.5 550 L 555.5 541 L 560.5 540 L 578.5 540 Q 601 545.5 613 561.5 Q 619.2 568.8 620 581.5 L 619 581.5 Q 616.1 573.4 609.5 569 L 596.5 563 L 582.5 563 Q 568.9 566.9 561 576.5 L 561.5 578 L 560 577.5 L 553 590.5 L 551 599.5 L 551 610.5 Q 554.6 630.9 567.5 642 Q 577.2 650.3 591.5 654 L 596.5 655 L 616.5 655 L 634.5 649 L 650 638 L 663 619.5 L 668 607.5 L 671 593.5 L 671 576.5 L 668 562.5 L 661 546.5 Q 654.2 535.3 644.5 527 Q 629.8 514.2 608.5 508 L 593.5 505 L 574.5 505 L 558.5 508 L 535.5 518 L 525.5 525 Q 506.2 546.7 483.5 565 Q 465.6 579.6 443.5 590 L 422.5 598 L 400.5 603 L 386.5 604 L 385.5 605 L 348.5 605 L 315.5 599 L 301 590.5 L 585.5 432 Z " /></svg>