<svg width="1181" height="1181" version="1.1" xmlns="http://www.w3.org/2000/svg" desc="Created with imagetracer.js version 1.2.6" ><path fill="rgb(0,0,0)" stroke="rgb(0,0,0)" stroke-width="1" opacity="0.8784313725490196" d="M 585.5 276 L 586 284.5 L 587 285.5 L 587 302.5 L 588 303.5 L 589 343.5 L 590 344.5 L 590 386 L 602.5 386 L 603.5 387 L 611.5 387 L 628.5 390 L 662.5 401 Q 698.9 416.6 724.5 443 L 756.5 411 L 806.5 366 L 803 370.5 Q 768.7 411.7 731 449.5 Q 756.4 476.6 771 514.5 L 779 547.5 L 781 580.5 L 780 584 L 829.5 584 L 830.5 585 L 849.5 585 L 850.5 586 L 868.5 586 L 869.5 587 L 887.5 587 L 888.5 588 L 898 588.5 L 881.5 589 L 880.5 590 L 861.5 590 L 860.5 591 L 841.5 591 L 840.5 592 L 780 592 L 777 616.5 L 772.5 634 L 772 630.5 L 775 616.5 L 776 594.5 L 775 592 L 604.5 592 L 604 593.5 L 602 598.5 L 724.5 720 Q 739 706.5 749.5 689 L 749 690.5 L 727 723.5 Q 769.4 763.6 807 808.5 L 799.5 802 Q 758 768 721.5 729 Q 697 757 661.5 774 L 645.5 780 L 626.5 785 L 608.5 787 L 607.5 788 L 596.5 788 L 590 789 L 590 827.5 L 589 828.5 L 589 847.5 L 588 848.5 L 588 867.5 L 587 868.5 L 587 886.5 L 586 887.5 L 585.5 901 L 585 887.5 L 584 886.5 L 584 867.5 L 583 866.5 L 583 847.5 L 582 846.5 L 582 827.5 L 581 826.5 L 581 789 L 556.5 787 L 541.5 784 L 508.5 773 Q 473.3 757.2 447.5 732 L 420.5 760 L 366.5 808 L 373 800.5 Q 405.8 761.3 442 725.5 Q 417.6 699.9 403 664.5 L 393 632.5 L 390 615.5 L 390 608.5 L 389 607.5 L 389 593.5 L 387.5 592 L 334.5 592 L 333.5 591 L 314.5 591 L 313.5 590 L 294.5 590 L 293.5 589 L 277 588.5 L 279.5 587 L 336.5 585 L 337.5 584 L 388 584 L 389 581.5 L 389 566.5 L 390 565.5 L 391 552.5 L 396 530.5 L 401 515.5 Q 415.8 477.3 441 449.5 Q 400.7 411.3 365 368.5 L 372.5 375 Q 411.8 407.7 447.5 444 Q 472.9 416.9 509.5 401 L 539.5 391 L 560.5 387 L 580.5 386 L 582 384.5 L 582 332.5 L 583 331.5 L 583 312.5 L 584 311.5 L 584 293.5 L 585 292.5 L 585.5 276 Z M 574 398 L 573 399 L 564 399 L 547 402 L 518 411 Q 487 424 465 444 L 456 454 L 574 570 L 582 566 L 582 399 L 582 398 L 574 398 Z M 590 398 L 590 567 L 598 570 L 715 452 Q 692 427 660 413 L 626 402 L 609 399 L 590 398 Z M 722 458 L 603 577 L 605 582 L 606 584 L 775 584 Q 766 504 722 458 Z M 449 459 L 430 485 L 418 507 L 406 541 L 402 562 L 402 570 L 401 571 L 401 584 L 402 584 L 566 584 L 568 577 L 451 459 L 449 459 Z M 401 592 L 401 605 L 402 606 L 403 620 L 412 654 Q 424 686 444 710 L 452 717 L 569 600 Q 570 595 567 594 L 567 592 L 401 592 Z M 576 604 L 457 724 Q 482 748 517 763 L 549 773 L 567 775 L 568 776 L 581 776 L 581 706 L 582 705 L 582 607 Q 581 603 576 604 Z M 593 604 L 592 605 L 590 606 L 590 776 L 605 776 L 613 774 L 619 774 L 654 764 Q 691 750 718 726 L 596 604 L 593 604 Z " /><path fill="rgb(0,0,0)" stroke="rgb(0,0,0)" stroke-width="1" opacity="0.8784313725490196" d="M 540.5 469 Q 550.6 467.4 553 473.5 L 554 480.5 L 549.5 487 L 541.5 488 L 536 483.5 L 535 475.5 L 540.5 469 Z " /><path fill="rgb(0,0,0)" stroke="rgb(0,0,0)" stroke-width="1" opacity="0.8784313725490196" d="M 633.5 469 Q 639.4 469.6 642 473.5 L 643 482.5 L 638.5 488 L 631.5 489 L 626 485.5 Q 623.3 483.2 624 477.5 L 629.5 470 L 633.5 469 Z " /><path fill="rgb(0,0,0)" stroke="rgb(0,0,0)" stroke-width="1" opacity="0.8784313725490196" d="M 694.5 528 Q 704.6 526.4 707 532.5 L 708 538.5 L 702.5 546 L 695.5 547 L 689 541.5 Q 687.3 531.8 692.5 529 L 694.5 528 Z " /><path fill="rgb(0,0,0)" stroke="rgb(0,0,0)" stroke-width="1" opacity="0.8784313725490196" d="M 469.5 529 L 476.5 529 L 480 531 L 482 534.5 L 482 542.5 Q 479.9 549.4 469.5 548 L 465 544.5 Q 462.3 542.2 463 536.5 L 467.5 530 L 469.5 529 Z " /><path fill="rgb(0,0,0)" stroke="rgb(0,0,0)" stroke-width="1" opacity="0.8784313725490196" d="M 702.5 623 L 706.5 623 L 713 627.5 L 714 635.5 L 708.5 642 L 703.5 643 L 697 639.5 Q 694.2 636.8 695 630.5 L 698.5 625 L 702.5 623 Z " /><path fill="rgb(0,0,0)" stroke="rgb(0,0,0)" stroke-width="1" opacity="0.8784313725490196" d="M 461.5 630 Q 468.1 630.4 471 634.5 L 472 643.5 L 467.5 649 L 460.5 650 L 455 646.5 Q 452.3 644.2 453 638.5 L 458.5 631 L 461.5 630 Z " /><path fill="rgb(0,0,0)" stroke="rgb(0,0,0)" stroke-width="1" opacity="0.8784313725490196" d="M 771.5 635 L 772 637.5 L 771 637.5 L 771.5 635 Z " /><path fill="rgb(0,0,0)" stroke="rgb(0,0,0)" stroke-width="1" opacity="0.8784313725490196" d="M 628.5 697 Q 637.5 695.5 640 700.5 Q 642.3 703.7 641 710.5 L 634.5 716 L 629.5 716 L 624 712.5 L 622 705.5 L 626.5 698 L 628.5 697 Z " /><path fill="rgb(0,0,0)" stroke="rgb(0,0,0)" stroke-width="1" opacity="0.8784313725490196" d="M 532.5 705 Q 540.5 704 543 708.5 L 545 716.5 L 540.5 723 L 531.5 724 L 527 720.5 L 526 711.5 L 530.5 706 L 532.5 705 Z " /><path fill="rgb(0,0,0)" stroke="rgb(0,0,0)" stroke-width="1" opacity="0" d="M 0 0 L 1181 0 L 1181 1181 L 0 1181 L 0 0 Z M 586 276 L 585 293 L 584 294 L 584 312 L 583 313 L 583 332 L 582 333 L 582 385 L 581 386 L 561 387 L 540 391 L 510 401 Q 473 417 448 444 Q 412 408 373 375 L 367 371 Q 402 412 441 450 Q 416 477 401 516 L 396 531 L 391 553 L 390 566 L 389 567 L 389 582 L 388 584 L 338 584 L 337 585 L 280 587 L 277 589 L 294 589 L 295 590 L 314 590 L 315 591 L 334 591 L 335 592 L 388 592 L 389 594 L 389 608 L 390 609 L 390 616 L 393 633 L 403 665 Q 418 700 442 726 Q 406 761 373 801 L 367 808 L 421 760 L 448 732 Q 473 757 509 773 L 542 784 L 557 787 L 581 789 L 581 827 L 582 828 L 582 847 L 583 848 L 583 867 L 584 868 L 584 887 L 585 888 L 586 901 L 586 888 L 587 887 L 587 869 L 588 868 L 588 849 L 589 848 L 589 829 L 590 828 L 590 789 L 597 788 L 608 788 L 609 787 L 627 785 L 646 780 L 662 774 Q 697 757 722 729 Q 758 768 800 802 L 804 806 Q 768 762 727 724 L 744 700 L 744 698 L 725 720 L 602 599 L 604 594 L 605 592 L 775 592 L 776 595 L 775 617 L 773 626 L 774 630 L 777 617 L 780 592 L 841 592 L 842 591 L 861 591 L 862 590 L 881 590 L 882 589 L 898 589 L 889 588 L 888 587 L 870 587 L 869 586 L 851 586 L 850 585 L 831 585 L 830 584 L 780 584 L 781 581 L 779 548 L 771 515 Q 756 477 731 450 L 803 372 L 803 370 Q 761 404 725 443 Q 699 417 663 401 L 629 390 L 612 387 L 604 387 L 603 386 L 590 386 L 590 345 L 589 344 L 588 304 L 587 303 L 587 286 L 586 285 L 586 276 Z M 703 623 L 699 625 L 695 631 Q 694 637 697 640 L 704 643 L 709 642 L 714 636 L 713 628 L 707 623 L 703 623 Z M 773 630 L 772 634 L 773 634 L 773 630 Z M 772 635 L 771 638 L 772 638 L 772 635 Z M 746 695 L 744 698 L 746 697 L 746 695 Z " /><path fill="rgb(0,0,0)" stroke="rgb(0,0,0)" stroke-width="1" opacity="0" d="M 573.5 398 L 581.5 398 L 582 398.5 L 582 565.5 L 573.5 570 L 456 453.5 L 464.5 444 Q 487.2 423.7 517.5 411 L 546.5 402 L 563.5 399 L 572.5 399 L 573.5 398 Z M 541 469 L 535 476 L 536 484 L 542 488 L 550 487 L 554 481 L 553 474 Q 551 467 541 469 Z " /><path fill="rgb(0,0,0)" stroke="rgb(0,0,0)" stroke-width="1" opacity="0" d="M 590 398 L 608.5 399 L 625.5 402 L 659.5 413 Q 692.2 427.3 715 451.5 L 597.5 570 L 590 567 L 590 398 Z M 634 469 L 630 470 L 624 478 Q 623 483 626 486 L 632 489 L 639 488 L 643 483 L 642 474 Q 639 470 634 469 Z " /><path fill="rgb(0,0,0)" stroke="rgb(0,0,0)" stroke-width="1" opacity="0" d="M 721.5 458 Q 765.7 504.1 775 584 L 605.5 584 L 605 581.5 L 603 576.5 L 721.5 458 Z M 695 528 L 693 529 Q 687 532 689 542 L 696 547 L 703 546 L 708 539 L 707 533 Q 705 526 695 528 Z " /><path fill="rgb(0,0,0)" stroke="rgb(0,0,0)" stroke-width="1" opacity="0" d="M 449 459 L 450.5 459 L 568 576.5 L 566 584 L 401.5 584 L 401 583.5 L 401 570.5 L 402 569.5 L 402 561.5 L 406 540.5 L 418 506.5 L 430 484.5 L 449 459 Z M 470 529 L 468 530 L 463 537 Q 462 542 465 545 L 470 548 Q 480 549 482 543 L 482 535 L 480 531 L 477 529 L 470 529 Z " /><path fill="rgb(0,0,0)" stroke="rgb(0,0,0)" stroke-width="1" opacity="0" d="M 401 592 L 566.5 592 L 567 593.5 Q 569.6 594.9 569 599.5 L 451.5 717 L 444 709.5 Q 424 685.5 412 653.5 L 403 619.5 L 402 605.5 L 401 604.5 L 401 592 Z M 462 630 L 459 631 L 453 639 Q 452 644 455 647 L 461 650 L 468 649 L 472 644 L 471 635 Q 468 630 462 630 Z " /><path fill="rgb(0,0,0)" stroke="rgb(0,0,0)" stroke-width="1" opacity="0" d="M 575.5 604 Q 580.6 603.4 582 606.5 L 582 704.5 L 581 705.5 L 581 776 L 567.5 776 L 566.5 775 L 548.5 773 L 516.5 763 Q 481.6 748.4 457 723.5 L 575.5 604 Z M 533 705 L 531 706 L 526 712 L 527 721 L 532 724 L 541 723 L 545 717 L 543 709 Q 540 704 533 705 Z " /><path fill="rgb(0,0,0)" stroke="rgb(0,0,0)" stroke-width="1" opacity="0" d="M 592.5 604 L 595.5 604 L 718 725.5 Q 691.4 750.4 653.5 764 L 618.5 774 L 612.5 774 L 604.5 776 L 590 776 L 590 605.5 L 591.5 605 L 592.5 604 Z M 629 697 L 627 698 L 622 706 L 624 713 L 630 716 L 635 716 L 641 711 Q 642 704 640 701 Q 638 695 629 697 Z " /></svg>