<svg width="1181" height="1181" version="1.1" xmlns="http://www.w3.org/2000/svg" desc="Created with imagetracer.js version 1.2.6" ><path fill="rgb(0,0,0)" stroke="rgb(0,0,0)" stroke-width="1" opacity="0" d="M 0 0 L 1181 0 L 1181 1181 L 0 1181 L 0 0 Z M 581 315 L 566 318 L 555 322 Q 541 328 532 337 Q 510 356 504 391 L 505 419 L 510 438 L 510 440 L 502 426 Q 493 415 481 408 L 471 404 L 455 401 L 445 401 L 444 402 L 433 403 Q 417 407 407 416 Q 384 434 378 469 L 378 491 L 381 505 Q 387 523 398 536 Q 406 545 417 551 L 417 552 Q 412 553 411 551 L 391 553 Q 375 557 365 566 L 348 585 L 340 604 L 339 615 L 338 616 L 339 635 L 344 653 L 351 667 L 363 682 L 381 695 L 396 702 L 413 706 L 429 707 L 419 714 Q 408 723 403 738 L 399 754 L 399 772 L 401 782 Q 406 797 415 808 Q 433 828 466 834 L 490 834 L 503 831 Q 519 826 531 816 L 547 799 L 562 771 L 572 737 L 574 716 L 575 715 L 575 698 L 576 697 L 576 676 L 575 675 L 575 661 L 574 660 L 574 646 L 573 645 L 573 626 L 582 630 L 596 631 L 599 633 L 656 681 Q 676 698 690 722 L 699 740 L 705 763 L 705 787 L 703 796 Q 699 811 690 822 Q 680 835 665 843 L 650 849 L 641 851 L 633 851 L 632 852 L 618 851 L 610 849 Q 597 845 589 837 Q 573 824 568 801 L 568 782 L 569 778 L 578 761 Q 588 747 609 743 L 622 743 Q 631 745 638 750 Q 650 758 653 777 Q 653 791 647 799 Q 641 808 629 811 Q 613 813 607 806 Q 601 802 599 795 L 598 795 Q 599 801 602 805 Q 608 814 621 816 Q 640 817 650 807 Q 658 800 661 787 L 660 769 L 652 753 Q 642 739 624 735 L 606 735 L 598 737 L 580 747 L 567 762 L 561 776 L 559 786 L 559 797 L 563 815 Q 568 827 576 837 Q 584 846 596 852 L 611 858 L 622 860 L 637 860 L 656 856 Q 671 850 683 841 Q 696 831 704 816 L 711 799 L 714 782 L 713 760 L 706 735 Q 695 709 677 691 L 647 662 L 605 631 Q 602 632 603 629 L 614 623 L 618 624 L 694 624 L 695 623 L 728 624 L 729 625 L 744 626 L 763 630 Q 791 638 812 654 Q 832 671 838 703 L 838 724 L 835 737 Q 831 750 823 760 Q 814 770 802 777 L 791 781 L 780 783 L 770 783 L 759 781 L 740 772 Q 725 762 720 742 L 720 725 L 722 717 L 731 702 Q 738 693 752 690 L 767 690 Q 776 692 782 697 Q 790 703 793 715 L 793 729 L 788 740 Q 781 751 761 750 L 765 751 L 777 751 L 789 745 Q 797 738 800 725 Q 801 706 793 697 L 784 688 L 776 684 L 764 681 L 755 681 L 745 683 L 733 689 L 719 704 L 713 718 L 711 728 L 711 738 L 714 752 L 722 767 Q 737 786 766 791 L 784 791 L 794 789 Q 808 785 819 776 Q 833 764 841 745 L 845 732 L 846 720 L 847 719 L 846 699 L 842 684 Q 836 668 826 657 L 813 645 L 815 645 L 834 645 L 843 643 Q 857 639 867 631 Q 888 615 893 584 L 893 568 L 889 549 Q 883 533 874 522 Q 861 505 840 496 L 827 492 L 811 491 L 810 490 L 794 491 L 774 495 Q 753 501 737 510 Q 711 524 689 542 L 629 593 L 627 593 L 629 588 L 630 573 L 631 572 L 632 511 L 633 510 L 633 491 L 634 490 L 634 481 L 636 473 L 636 467 L 641 446 L 647 429 Q 654 410 666 396 Q 677 382 695 375 L 707 371 L 720 370 L 721 369 L 737 370 L 746 372 Q 761 377 773 386 Q 790 399 794 426 L 793 447 Q 790 459 783 469 Q 772 484 750 488 L 739 488 L 730 486 L 714 477 Q 704 469 701 454 Q 700 436 708 427 Q 716 417 730 414 Q 744 413 752 420 Q 759 425 761 437 Q 763 443 760 445 L 761 448 L 763 440 Q 763 425 756 419 Q 749 411 738 408 L 723 408 L 709 414 Q 697 423 693 441 L 693 457 L 694 462 Q 698 473 705 481 Q 716 492 736 496 L 753 496 L 758 495 Q 770 492 779 485 Q 797 471 802 444 L 802 423 L 800 414 Q 795 398 786 388 L 769 373 L 752 365 L 734 361 L 716 361 L 701 364 Q 681 370 668 382 L 661 390 L 658 391 L 659 386 L 658 373 L 654 359 Q 649 346 640 337 Q 629 325 614 319 L 598 315 L 581 315 Z M 598 791 L 597 794 L 598 794 L 598 791 Z " /><path fill="rgb(0,0,0)" stroke="rgb(0,0,0)" stroke-width="1" opacity="0" d="M 585.5 323 L 600.5 324 L 613.5 328 Q 626.2 333.8 635 343.5 Q 643.5 353 648 366.5 L 650 375.5 L 650 391.5 Q 646.4 409.9 634.5 420 L 617.5 430 L 608.5 432 L 597.5 432 L 589.5 430 L 575 421 L 567 407.5 L 565 400.5 L 565 390.5 Q 567.8 377.3 576.5 370 L 588.5 364 L 601.5 364 Q 609.3 366.3 614 371.5 L 619.5 382 L 620 378.5 Q 616.8 369.2 609.5 364 L 597.5 359 L 586.5 359 Q 571 362.5 563 373.5 L 557 386.5 L 557 402.5 Q 561.3 422.2 575.5 432 Q 583.3 437.7 594.5 440 L 611.5 440 Q 628.4 436.9 638.5 427 L 638 428.5 L 632 446.5 L 626 476.5 L 625 498.5 L 624 499.5 L 624 541.5 L 625 542.5 L 625 582.5 L 624 583.5 L 624 590 Q 621.3 591.1 622 588.5 L 620 583.5 Q 610.2 573.8 604 560.5 L 551 496.5 L 532 468.5 Q 522 451.5 516 430.5 L 513 415.5 L 512 394.5 L 515 378.5 L 523 360.5 L 538.5 342 Q 547.5 334 559.5 329 L 571.5 325 L 584.5 324 L 585.5 323 Z " /><path fill="rgb(0,0,0)" stroke="rgb(0,0,0)" stroke-width="1" opacity="0" d="M 440.5 410 L 459.5 410 L 470.5 413 Q 486.6 418.9 496 431.5 Q 505.5 443 505 464.5 Q 501.6 485.6 487.5 496 Q 478.9 503.9 461.5 503 L 446.5 498 L 438 490.5 L 432 479.5 L 431 465.5 Q 433.7 453.2 442.5 447 L 452.5 443 L 461.5 443 L 464.5 444 L 464.5 443 Q 459.1 439.9 449.5 441 Q 437.5 444 431 452.5 Q 423.9 460.9 424 476.5 L 429 492.5 L 437.5 502 L 453.5 510 Q 461.4 512.6 473.5 511 Q 493.2 506.7 503 492.5 Q 509.4 484.4 512 472.5 L 513 467.5 L 513 451.5 L 511 443.5 L 512 443.5 Q 516.3 459.2 524 471.5 L 539 494.5 L 557 517.5 L 594 556.5 L 604 569.5 L 602.5 569 L 591.5 567 L 590.5 568 L 573.5 568 L 572.5 567 L 556.5 567 L 555.5 568 L 501.5 569 L 500.5 568 L 488.5 568 L 487.5 567 L 480.5 567 L 470.5 565 L 442.5 556 Q 419.3 546.7 404 529.5 Q 393 517 388 498.5 L 387 487.5 L 386 486.5 L 386 472.5 L 389 457.5 L 397 439.5 L 412.5 422 Q 423.7 413.2 440.5 410 Z " /><path fill="rgb(0,0,0)" stroke="rgb(0,0,0)" stroke-width="1" opacity="0" d="M 797.5 499 L 817.5 499 L 836.5 504 Q 856 512 868 527.5 Q 877.3 538.7 882 554.5 L 885 571.5 L 885 579.5 L 884 580.5 L 883 591.5 L 878 604.5 Q 871.1 616.6 860.5 625 L 840.5 635 L 830.5 637 L 817.5 637 Q 795.8 632.8 785 617.5 L 778 604.5 L 776 596.5 L 776 583.5 Q 779.1 567.1 790.5 559 L 805.5 552 L 819.5 552 Q 832.2 555.3 839 564.5 L 844 575.5 L 844 587.5 Q 841.3 597.8 833.5 603 L 825 606.5 L 828.5 607 Q 837.7 604.2 843 597.5 L 849 584.5 L 849 573.5 Q 845.5 557 833.5 549 Q 824.8 542.2 808.5 543 Q 787.6 546.6 777 560.5 Q 770.4 568.4 768 580.5 L 768 599.5 Q 771.6 617.4 783 627.5 L 781.5 628 L 768.5 623 L 740.5 617 L 720.5 616 L 719.5 615 L 679.5 615 L 678.5 616 L 666.5 616 L 665.5 617 L 640.5 618 L 639.5 619 L 617.5 619 L 619 616.5 L 625 600 L 642.5 589 L 706.5 539 L 732.5 522 L 763.5 507 L 779.5 502 L 789.5 500 L 796.5 500 L 797.5 499 Z " /><path fill="rgb(0,0,0)" stroke="rgb(0,0,0)" stroke-width="1" opacity="0" d="M 398.5 560 L 415.5 560 L 423.5 562 Q 436.9 567.1 445 577.5 L 454 594.5 Q 456.7 602.8 455 615.5 Q 451.4 629.4 441.5 637 L 428.5 644 L 413.5 645 Q 398.9 642.1 392 631.5 L 387 619.5 L 387 609.5 Q 389.8 599.3 397.5 594 L 402 591.5 L 399.5 591 L 388 599.5 Q 381.4 606.9 382 621.5 Q 384.6 637.9 395.5 646 L 409.5 653 L 426.5 653 Q 444.6 649.1 454 636.5 Q 464.6 625.1 464 602.5 L 460 586.5 Q 455 574.5 446 566.5 L 447.5 567 L 467.5 573 L 484.5 576 L 493.5 576 L 494.5 577 L 529.5 577 L 530.5 576 L 539.5 576 L 540.5 575 L 549.5 575 L 560.5 573 L 572.5 573 L 565 581.5 L 560 593.5 L 560 604.5 L 505.5 663 Q 486.9 680.4 461.5 691 L 438.5 697 L 416.5 698 L 395.5 693 Q 378.4 686.1 367 673.5 Q 354.8 660.7 349 641.5 L 347 631.5 L 347 610.5 Q 352.5 585 370.5 572 Q 381.7 563.2 398.5 560 Z M 403 590 L 403 591 L 405 591 L 403 590 Z " /><path fill="rgb(0,0,0)" stroke="rgb(0,0,0)" stroke-width="1" opacity="0" d="M 561.5 611 L 568 620.5 L 568 628.5 L 567 629.5 L 567 709.5 L 566 710.5 L 566 720.5 L 565 721.5 L 563 738.5 Q 557.8 761.8 548 780.5 Q 538.9 798.9 523.5 811 Q 512.1 819.6 496.5 824 L 485.5 826 L 468.5 826 L 448.5 821 L 436.5 815 L 421 801.5 Q 412.7 792.3 409 778.5 L 407 768.5 L 407 756.5 L 413 735.5 L 424.5 720 Q 432.4 712.4 444.5 709 Q 452.8 706.3 465.5 708 Q 484.5 712 494 725.5 Q 498.5 731.5 500 740.5 L 500 753.5 Q 496.9 768.9 485.5 776 L 474.5 781 L 462.5 781 Q 450.7 778.8 445 770.5 L 441 762.5 L 440 753.5 L 441 748.5 L 440 748.5 Q 437.4 754.4 439 764.5 Q 441.4 774.6 448.5 780 Q 457.4 788.6 475.5 788 L 486.5 785 L 497 777.5 Q 508.4 766.4 509 744.5 L 507 733.5 L 502 722.5 L 489.5 709 Q 479.5 701.2 464 700 Q 462.8 697 466.5 698 L 492.5 684 Q 513.2 669.2 530 650.5 L 561.5 611 Z " /><path fill="rgb(0,0,0)" stroke="rgb(0,0,0)" stroke-width="1" opacity="1" d="M 578.5 316 L 598.5 316 L 613.5 320 Q 631 327 642 340.5 Q 651.5 351.5 656 367.5 L 658 378.5 L 658 391 L 660.5 391 L 675.5 377 L 691.5 368 L 713.5 362 L 734.5 362 Q 769 368 787 390.5 Q 795.8 401.2 800 416.5 L 802 427.5 L 802 438.5 L 797 458.5 Q 791.2 471.7 781.5 481 Q 773.3 488.8 761.5 493 L 741.5 496 L 730.5 494 L 714.5 487 L 703 476.5 Q 693.5 466 693 446.5 Q 695.5 445 694 439.5 L 698 428.5 L 710.5 414 Q 718.3 407.8 732.5 408 L 747.5 413 L 757 421.5 L 760 426.5 L 761 431.5 L 760 431.5 Q 758.1 421.9 750.5 418 Q 742.5 411.5 725.5 414 Q 712.7 417.7 706 427.5 L 701 439.5 L 700 451.5 Q 702.5 453 701 458.5 L 705 468.5 L 715.5 480 Q 723.3 485.7 734.5 488 L 754.5 488 Q 772.3 483.8 782 471.5 Q 789.5 462.5 793 449.5 L 795 438.5 L 795 427.5 L 792 412.5 L 787 401.5 L 771.5 384 Q 760.6 375.4 745.5 371 L 735.5 369 L 712.5 369 Q 679.8 375.3 663 397.5 Q 652.2 412.2 645 430.5 L 640 445.5 L 635 467.5 L 634 481.5 L 633 482.5 L 633 493.5 L 632 494.5 L 631 560.5 L 630 561.5 L 629 582.5 L 627 593 L 631.5 592 L 641.5 584 L 691.5 541 L 731.5 514 Q 751.6 502.1 776.5 495 L 791.5 492 L 799.5 492 L 800.5 491 L 815.5 491 L 830.5 494 L 849.5 502 L 870 518.5 Q 882.5 532 889 551.5 L 892 565.5 L 892 585.5 Q 886.5 613 868.5 628 Q 852 643.5 821.5 645 L 820.5 644 L 813 644 Q 811.5 647.8 814.5 647 Q 830.1 659.4 839 678.5 L 845 697.5 L 846 721.5 L 840 744.5 Q 833.6 760.1 822.5 771 Q 811 782.5 793.5 788 L 784.5 790 L 764.5 790 Q 738.9 785.1 725 768.5 Q 717.9 760.1 714 748.5 L 712 739.5 L 712 725.5 Q 716 703.5 730.5 692 L 744.5 684 L 752.5 682 L 765.5 682 Q 784.5 686 794 699.5 L 799 711.5 L 799 724.5 Q 795.9 738.9 785.5 746 L 777.5 750 L 774.5 750 L 774.5 749 L 781.5 747 L 790 738.5 L 794 727.5 L 794 715.5 Q 790.8 701.8 780.5 695 L 770.5 690 L 751.5 689 Q 736 692.5 728 703.5 L 720 720.5 L 719 725.5 L 719 740.5 Q 723 760.5 736.5 771 Q 747.2 779.8 763.5 783 L 785.5 783 Q 808.4 778.4 821 763.5 Q 830.8 752.3 836 736.5 L 839 721.5 L 839 704.5 L 838 703.5 L 837 692.5 L 828 671.5 Q 820.7 659.3 809.5 651 Q 784.6 632.9 748.5 626 L 735.5 625 L 734.5 624 L 725.5 624 L 724.5 623 L 664.5 623 L 663.5 624 L 627.5 624 L 626.5 623 L 611.5 623 Q 608.6 627.3 603 628 Q 602 631.8 604.5 633 L 648.5 665 L 680 695.5 Q 696.9 714.1 707 739.5 L 713 764.5 L 713 784.5 Q 706.8 819.3 684.5 838 Q 671.2 849.7 652.5 856 L 638.5 859 L 619.5 859 Q 589.9 853.6 575 833.5 Q 566.4 823.1 562 808.5 L 560 798.5 L 560 783.5 Q 564.9 758.4 582.5 746 L 600.5 737 L 611.5 735 L 619.5 735 Q 638.8 738.2 649 750.5 Q 655.9 757.6 659 768.5 Q 661.5 776 660 787.5 Q 656.5 801 646.5 808 L 635.5 814 L 619.5 815 Q 609.9 812.1 604 805.5 L 607.5 808 L 617.5 812 L 627.5 812 Q 640.4 809.4 647 800.5 L 653 787.5 L 653 771.5 Q 649.4 757.6 639.5 750 L 625.5 743 L 610.5 742 L 600.5 744 L 589.5 749 L 576 761.5 Q 569.3 769.8 567 782.5 L 567 799.5 Q 572 826.5 590.5 840 Q 600.1 847.4 613.5 851 L 618.5 852 L 639.5 852 Q 671.2 846.2 688 825.5 Q 698.9 813.4 704 795.5 L 706 784.5 L 706 764.5 L 705 763.5 L 704 752.5 L 700 739.5 L 690 719.5 Q 673.9 694.6 651.5 676 L 597.5 631 L 584.5 630 L 572 625 L 574 669.5 L 575 670.5 L 575 704.5 L 574 705.5 L 574 717.5 L 573 718.5 L 571 737.5 L 564 762.5 L 549 793.5 Q 542.2 804.7 532.5 813 Q 521.2 823.2 505.5 829 L 490.5 833 L 471.5 834 L 454.5 831 L 435.5 823 Q 422.8 815.8 414 804.5 Q 400.2 788.8 399 760.5 L 400 759.5 L 400 751.5 L 404 737.5 Q 410.4 721.9 422.5 712 L 430 708 L 430 705 L 423.5 705 L 421.5 706 L 420.5 705 L 405.5 704 L 390.5 699 Q 371.4 690.6 359 675.5 Q 346.6 661.4 341 640.5 L 339 629.5 L 339 612.5 Q 344.2 584.2 362.5 569 Q 379.4 551.9 413.5 552 L 417 553 L 415.5 549 L 410.5 546 L 396 531.5 Q 386.2 518.7 381 501.5 L 379 492.5 L 378 475.5 L 379 474.5 L 380 462.5 L 385 446.5 Q 391.7 430.7 403.5 420 Q 420.9 401.4 457.5 402 Q 484.5 406.5 499 423.5 L 506 433.5 L 508 440 Q 512.1 441.7 511 437.5 L 509 433.5 L 505 413.5 L 505 388.5 Q 511.8 353.3 535.5 335 Q 552 320.5 578.5 316 Z M 579 323 L 560 328 L 541 339 Q 518 355 512 388 L 512 414 Q 515 415 513 421 Q 517 442 526 460 L 543 488 L 602 560 L 621 588 Q 620 592 625 590 L 625 580 L 626 579 L 625 522 L 624 521 L 625 518 L 625 496 L 626 495 L 627 475 L 632 450 L 639 431 L 639 427 L 637 427 L 623 436 L 606 440 Q 584 440 574 429 L 563 417 L 559 408 L 557 398 L 559 383 L 566 372 Q 573 363 586 360 Q 601 358 608 364 L 610 367 L 601 363 L 590 363 L 578 368 L 568 379 L 564 392 L 565 405 L 572 419 L 585 429 L 600 433 L 614 432 Q 625 429 633 423 Q 647 412 651 391 L 651 378 L 648 364 L 638 346 Q 627 332 609 325 L 600 323 L 579 323 Z M 442 409 L 422 415 L 410 423 Q 399 432 393 445 L 387 462 L 386 477 L 385 478 L 386 493 L 388 502 Q 392 517 401 528 Q 417 547 443 557 L 467 565 L 483 568 L 491 568 L 492 569 L 545 569 L 546 568 L 578 568 L 579 569 L 587 569 L 588 568 L 597 568 L 604 570 L 603 566 L 598 560 L 562 522 L 541 496 Q 524 474 513 446 Q 514 441 510 443 L 512 451 L 512 469 L 511 474 Q 507 486 500 495 Q 493 502 484 507 L 475 510 Q 468 508 467 511 Q 449 510 440 502 Q 428 495 425 479 Q 424 463 431 455 Q 437 445 449 442 L 453 443 L 449 443 L 440 448 L 432 459 L 430 468 Q 429 482 436 490 Q 443 500 457 503 L 475 503 L 490 496 Q 501 487 505 470 L 505 451 L 504 446 L 495 429 Q 487 418 474 413 L 458 409 L 442 409 Z M 801 498 L 773 503 Q 752 509 736 519 L 708 537 L 656 578 L 627 598 L 623 603 L 622 609 L 617 618 L 617 620 L 650 619 L 651 618 L 675 617 L 676 616 L 725 616 L 726 617 L 735 617 L 762 622 L 783 629 L 783 627 Q 776 619 772 610 L 768 595 L 769 580 Q 771 569 777 563 Q 787 548 808 544 L 824 545 L 835 551 Q 844 559 848 573 L 848 585 L 843 596 L 839 599 L 842 596 L 845 588 Q 846 570 838 562 Q 831 554 820 551 Q 809 550 803 552 Q 793 555 787 561 Q 780 567 777 576 L 775 585 L 775 595 L 777 605 L 785 620 Q 792 628 802 633 L 814 637 Q 820 635 822 638 Q 849 638 864 624 Q 880 611 885 587 L 885 565 L 882 552 Q 877 535 866 524 Q 854 510 837 503 L 816 498 L 801 498 Z M 401 559 L 380 565 L 368 573 Q 350 586 346 613 L 346 630 L 349 645 Q 354 660 363 671 Q 379 692 411 698 L 438 698 L 462 692 Q 485 683 503 667 Q 533 638 561 606 Q 562 601 560 600 L 562 590 Q 566 580 573 575 L 573 572 L 553 573 L 543 575 L 534 575 L 533 576 L 518 576 L 517 577 L 512 576 L 492 576 L 491 575 L 477 574 L 446 566 L 446 569 Q 455 575 459 587 L 463 601 Q 465 624 454 635 Q 443 649 422 653 Q 407 653 399 647 Q 386 639 383 623 L 383 614 L 388 602 L 392 599 L 386 611 Q 385 626 392 634 Q 400 643 415 646 Q 435 646 445 636 Q 453 628 456 615 L 456 600 L 454 592 L 444 575 L 429 563 L 414 559 L 401 559 Z M 561 611 L 533 646 L 502 676 Q 486 689 467 697 Q 463 696 464 700 L 466 701 L 470 701 L 479 704 L 492 712 Q 504 722 508 742 L 507 757 L 499 774 Q 492 784 477 787 L 466 787 L 452 781 Q 444 776 440 766 L 441 762 L 443 770 Q 449 779 463 782 L 474 782 L 488 776 Q 498 768 501 753 Q 502 732 493 723 Q 483 711 466 707 L 450 707 L 445 708 L 428 716 Q 411 728 407 752 L 407 774 L 408 779 L 414 794 L 423 806 L 435 815 L 449 822 L 472 827 L 483 827 L 500 824 Q 516 819 528 809 Q 539 799 547 785 Q 558 766 563 743 L 566 727 L 567 705 L 568 704 L 568 625 L 569 624 L 569 621 L 564 613 L 561 611 Z " /><path fill="rgb(0,0,0)" stroke="rgb(0,0,0)" stroke-width="1" opacity="1" d="M 611.5 367 L 612.5 369 L 611.5 367 Z " /><path fill="rgb(0,0,0)" stroke="rgb(0,0,0)" stroke-width="1" opacity="1" d="M 761.5 433 L 762 441.5 L 761 441.5 L 761.5 433 Z " /><path fill="rgb(0,0,0)" stroke="rgb(0,0,0)" stroke-width="1" opacity="1" d="M 768.5 750 L 773 750.5 L 768.5 751 L 768.5 750 Z " /><path fill="rgb(0,0,0)" stroke="rgb(0,0,0)" stroke-width="1" opacity="1" d="M 439.5 755 L 440 760.5 L 439 760.5 L 439.5 755 Z " /><path fill="rgb(0,0,0)" stroke="rgb(0,0,0)" stroke-width="1" opacity="0.6862745098039216" d="M 580.5 315 L 598 315.5 L 580.5 316 L 580.5 315 Z " /><path fill="rgb(0,0,0)" stroke="rgb(0,0,0)" stroke-width="1" opacity="0.6862745098039216" d="M 573.5 316 L 578 316.5 L 569.5 318 L 569.5 317 L 573.5 316 Z " /><path fill="rgb(0,0,0)" stroke="rgb(0,0,0)" stroke-width="1" opacity="0.6862745098039216" d="M 599.5 316 Q 625.9 320.1 640 336.5 Q 652.6 349.4 657 370.5 L 656 370.5 Q 650.5 344.5 632.5 331 L 613.5 320 L 599.5 317 L 599.5 316 Z " /><path fill="rgb(0,0,0)" stroke="rgb(0,0,0)" stroke-width="1" opacity="0.6862745098039216" d="M 565.5 318 L 568 318.5 Q 540 326.5 524 346.5 Q 509.6 362.1 505.5 388 L 505 383.5 Q 512.1 354.1 531.5 337 Q 545.1 324.1 565.5 318 Z " /><path fill="rgb(0,0,0)" stroke="rgb(0,0,0)" stroke-width="1" opacity="0.6862745098039216" d="M 578.5 323 L 585 323.5 L 578.5 324 L 578.5 323 Z " /><path fill="rgb(0,0,0)" stroke="rgb(0,0,0)" stroke-width="1" opacity="0.6862745098039216" d="M 593.5 323 L 600 323.5 L 593.5 324 L 593.5 323 Z " /><path fill="rgb(0,0,0)" stroke="rgb(0,0,0)" stroke-width="1" opacity="0.6862745098039216" d="M 572.5 324 L 576 324.5 L 572.5 325 L 572.5 324 Z " /><path fill="rgb(0,0,0)" stroke="rgb(0,0,0)" stroke-width="1" opacity="0.6862745098039216" d="M 601.5 324 Q 625.8 328.7 638 345.5 Q 645 353.5 648 365.5 L 647 365.5 Q 642.1 348.9 630.5 339 L 619.5 331 L 608.5 326 L 601.5 325 L 601.5 324 Z " /><path fill="rgb(0,0,0)" stroke="rgb(0,0,0)" stroke-width="1" opacity="0.6862745098039216" d="M 568.5 325 L 571 325.5 L 565.5 327 L 565.5 326 L 568.5 325 Z " /><path fill="rgb(0,0,0)" stroke="rgb(0,0,0)" stroke-width="1" opacity="0.6862745098039216" d="M 562.5 327 L 564 327.5 Q 543.5 334.5 531 349.5 Q 522.4 359.4 517 372.5 L 513.5 386 L 513 382.5 Q 520.4 354.4 540.5 339 Q 549.8 331.3 562.5 327 Z " /><path fill="rgb(0,0,0)" stroke="rgb(0,0,0)" stroke-width="1" opacity="0.6862745098039216" d="M 586.5 359 L 598 359.5 L 586.5 360 L 586.5 359 Z " /><path fill="rgb(0,0,0)" stroke="rgb(0,0,0)" stroke-width="1" opacity="0.6862745098039216" d="M 582.5 360 L 585 360.5 Q 572.9 363.4 566 371.5 L 559.5 382 L 559 380.5 Q 563 371.5 570.5 366 L 582.5 360 Z " /><path fill="rgb(0,0,0)" stroke="rgb(0,0,0)" stroke-width="1" opacity="0.6862745098039216" d="M 599.5 360 Q 611.1 361.9 616 370.5 L 620 378.5 L 620 381.5 L 619 381.5 Q 617.5 373.9 612.5 370 L 602 364.5 L 604.5 364 L 608.5 366 L 607.5 364 L 599.5 361 L 599.5 360 Z " /><path fill="rgb(0,0,0)" stroke="rgb(0,0,0)" stroke-width="1" opacity="0.6862745098039216" d="M 715.5 361 L 734 361.5 L 715.5 362 L 715.5 361 Z " /><path fill="rgb(0,0,0)" stroke="rgb(0,0,0)" stroke-width="1" opacity="0.6862745098039216" d="M 708.5 362 L 713 362.5 L 708.5 363 L 708.5 362 Z " /><path fill="rgb(0,0,0)" stroke="rgb(0,0,0)" stroke-width="1" opacity="0.6862745098039216" d="M 735.5 362 L 740 362.5 L 735.5 363 L 735.5 362 Z " /><path fill="rgb(0,0,0)" stroke="rgb(0,0,0)" stroke-width="1" opacity="0.6862745098039216" d="M 589.5 363 L 601 363.5 L 589.5 364 L 589.5 363 Z " /><path fill="rgb(0,0,0)" stroke="rgb(0,0,0)" stroke-width="1" opacity="0.6862745098039216" d="M 704.5 363 L 707 363.5 L 704.5 364 L 704.5 363 Z " /><path fill="rgb(0,0,0)" stroke="rgb(0,0,0)" stroke-width="1" opacity="0.6862745098039216" d="M 741.5 363 Q 770.1 368.9 786 387.5 Q 795.8 398.7 800 415.5 L 799 415.5 Q 793 391.5 775.5 379 L 756.5 368 L 741.5 364 L 741.5 363 Z " /><path fill="rgb(0,0,0)" stroke="rgb(0,0,0)" stroke-width="1" opacity="0.6862745098039216" d="M 585.5 364 L 588 364.5 Q 577.8 367.3 572 374.5 Q 566.9 380.4 565.5 390 L 565 386.5 Q 568.3 374.3 577.5 368 L 585.5 364 Z " /><path fill="rgb(0,0,0)" stroke="rgb(0,0,0)" stroke-width="1" opacity="0.6862745098039216" d="M 700.5 364 L 703 364.5 Q 675.9 371.9 660.5 391 L 661 389.5 L 667.5 382 Q 680.9 369.9 700.5 364 Z " /><path fill="rgb(0,0,0)" stroke="rgb(0,0,0)" stroke-width="1" opacity="0.6862745098039216" d="M 648.5 367 L 649 369.5 L 648 369.5 L 648.5 367 Z " /><path fill="rgb(0,0,0)" stroke="rgb(0,0,0)" stroke-width="1" opacity="0.6862745098039216" d="M 712.5 369 L 720 369.5 L 712.5 370 L 712.5 369 Z " /><path fill="rgb(0,0,0)" stroke="rgb(0,0,0)" stroke-width="1" opacity="0.6862745098039216" d="M 728.5 369 L 736 369.5 L 728.5 370 L 728.5 369 Z " /><path fill="rgb(0,0,0)" stroke="rgb(0,0,0)" stroke-width="1" opacity="0.6862745098039216" d="M 707.5 370 L 711 370.5 L 707.5 371 L 707.5 370 Z " /><path fill="rgb(0,0,0)" stroke="rgb(0,0,0)" stroke-width="1" opacity="0.6862745098039216" d="M 737.5 370 Q 768 375 783 395.5 Q 789.5 403 792 414.5 L 791 414.5 Q 785.6 396.4 772.5 386 L 756.5 376 L 745.5 372 L 737.5 371 L 737.5 370 Z " /><path fill="rgb(0,0,0)" stroke="rgb(0,0,0)" stroke-width="1" opacity="0.6862745098039216" d="M 649.5 371 L 650 374.5 L 649 374.5 L 649.5 371 Z " /><path fill="rgb(0,0,0)" stroke="rgb(0,0,0)" stroke-width="1" opacity="0.6862745098039216" d="M 703.5 371 L 706 371.5 L 703.5 372 L 703.5 371 Z " /><path fill="rgb(0,0,0)" stroke="rgb(0,0,0)" stroke-width="1" opacity="0.6862745098039216" d="M 657.5 372 L 658 377.5 L 657 377.5 L 657.5 372 Z " /><path fill="rgb(0,0,0)" stroke="rgb(0,0,0)" stroke-width="1" opacity="0.6862745098039216" d="M 699.5 372 L 702 372.5 Q 679.4 379.4 666 395.5 Q 647.6 418.6 639.5 452 L 639 449.5 Q 644.3 428.3 654 411.5 Q 662.1 395.6 675.5 385 Q 685.7 376.7 699.5 372 Z " /><path fill="rgb(0,0,0)" stroke="rgb(0,0,0)" stroke-width="1" opacity="0.6862745098039216" d="M 650.5 377 L 651 390.5 L 650 390.5 L 650.5 377 Z " /><path fill="rgb(0,0,0)" stroke="rgb(0,0,0)" stroke-width="1" opacity="0.6862745098039216" d="M 658.5 382 L 659 385.5 L 658 385.5 L 658.5 382 Z " /><path fill="rgb(0,0,0)" stroke="rgb(0,0,0)" stroke-width="1" opacity="0.6862745098039216" d="M 558.5 383 L 559 385.5 L 557.5 391 L 557 386.5 L 558.5 383 Z " /><path fill="rgb(0,0,0)" stroke="rgb(0,0,0)" stroke-width="1" opacity="0.6862745098039216" d="M 512.5 387 L 513 393.5 L 512 393.5 L 512.5 387 Z " /><path fill="rgb(0,0,0)" stroke="rgb(0,0,0)" stroke-width="1" opacity="0.6862745098039216" d="M 504.5 390 L 505 410.5 L 504 410.5 L 504.5 390 Z " /><path fill="rgb(0,0,0)" stroke="rgb(0,0,0)" stroke-width="1" opacity="0.6862745098039216" d="M 564.5 391 L 565 398.5 L 564 398.5 L 564.5 391 Z " /><path fill="rgb(0,0,0)" stroke="rgb(0,0,0)" stroke-width="1" opacity="0.6862745098039216" d="M 649.5 392 L 650 395.5 L 649 395.5 L 649.5 392 Z " /><path fill="rgb(0,0,0)" stroke="rgb(0,0,0)" stroke-width="1" opacity="0.6862745098039216" d="M 648.5 397 L 649 399.5 Q 643.8 414.3 632.5 423 L 618.5 430 L 618.5 429 Q 630.8 425.3 638 416.5 Q 645.4 408.9 648.5 397 Z " /><path fill="rgb(0,0,0)" stroke="rgb(0,0,0)" stroke-width="1" opacity="0.6862745098039216" d="M 557.5 398 L 558 402.5 L 557 402.5 L 557.5 398 Z " /><path fill="rgb(0,0,0)" stroke="rgb(0,0,0)" stroke-width="1" opacity="0.6862745098039216" d="M 444.5 401 L 455 401.5 L 444.5 402 L 444.5 401 Z " /><path fill="rgb(0,0,0)" stroke="rgb(0,0,0)" stroke-width="1" opacity="0.6862745098039216" d="M 565.5 401 L 567 407.5 L 575 421 L 589.5 430 L 597 431.5 L 592.5 432 Q 579.1 428.4 572 418.5 L 566 407.5 L 565.5 401 Z " /><path fill="rgb(0,0,0)" stroke="rgb(0,0,0)" stroke-width="1" opacity="0.6862745098039216" d="M 437.5 402 L 442 402.5 L 437.5 403 L 437.5 402 Z " /><path fill="rgb(0,0,0)" stroke="rgb(0,0,0)" stroke-width="1" opacity="0.6862745098039216" d="M 458.5 402 L 463 402.5 L 458.5 403 L 458.5 402 Z " /><path fill="rgb(0,0,0)" stroke="rgb(0,0,0)" stroke-width="1" opacity="0.6862745098039216" d="M 432.5 403 L 436 403.5 Q 412.2 408.7 399 424.5 Q 383.8 440.3 379.5 467 L 379 462.5 Q 386 432.5 406.5 416 Q 417.2 407.2 432.5 403 Z " /><path fill="rgb(0,0,0)" stroke="rgb(0,0,0)" stroke-width="1" opacity="0.6862745098039216" d="M 464.5 403 L 467 403.5 L 464.5 404 L 464.5 403 Z " /><path fill="rgb(0,0,0)" stroke="rgb(0,0,0)" stroke-width="1" opacity="0.6862745098039216" d="M 468.5 404 Q 490.4 409.6 502 425.5 L 508.5 437 L 509.5 434 L 511 439.5 L 510 439.5 L 509.5 437 L 508.5 440 Q 503.1 425.9 492.5 417 Q 482.7 408.7 468.5 405 L 468.5 404 Z " /><path fill="rgb(0,0,0)" stroke="rgb(0,0,0)" stroke-width="1" opacity="0.6862745098039216" d="M 558.5 404 Q 562.2 420.3 573.5 429 L 586 436.5 L 584.5 437 Q 572.3 431.8 565 421.5 L 559 410.5 L 558.5 404 Z " /><path fill="rgb(0,0,0)" stroke="rgb(0,0,0)" stroke-width="1" opacity="0.6862745098039216" d="M 512.5 406 L 513 413.5 L 512 413.5 L 512.5 406 Z " /><path fill="rgb(0,0,0)" stroke="rgb(0,0,0)" stroke-width="1" opacity="0.6862745098039216" d="M 722.5 408 L 726 408.5 L 722.5 409 L 722.5 408 Z " /><path fill="rgb(0,0,0)" stroke="rgb(0,0,0)" stroke-width="1" opacity="0.6862745098039216" d="M 733.5 408 Q 748.7 409.3 756 418.5 Q 761.4 423.1 762 432.5 L 760.5 436 Q 759 425 751.5 420 Q 746.2 415.3 737 414.5 L 741.5 414 Q 752.1 416.9 757.5 425 L 758 423.5 L 750.5 415 Q 744.3 409.7 733.5 409 L 733.5 408 Z M 759 425 L 759 429 L 760 429 L 759 425 Z M 761 429 L 760 432 L 761 432 L 761 429 Z " /><path fill="rgb(0,0,0)" stroke="rgb(0,0,0)" stroke-width="1" opacity="0.6862745098039216" d="M 441.5 409 L 458 409.5 L 441.5 410 L 441.5 409 Z " /><path fill="rgb(0,0,0)" stroke="rgb(0,0,0)" stroke-width="1" opacity="0.6862745098039216" d="M 718.5 409 L 721 409.5 Q 708.3 412.8 702 422.5 Q 696.5 429 694.5 439 L 694 436.5 Q 698.1 422.1 708.5 414 L 718.5 409 Z " /><path fill="rgb(0,0,0)" stroke="rgb(0,0,0)" stroke-width="1" opacity="0.6862745098039216" d="M 435.5 410 L 440 410.5 L 432.5 412 L 432.5 411 L 435.5 410 Z " /><path fill="rgb(0,0,0)" stroke="rgb(0,0,0)" stroke-width="1" opacity="0.6862745098039216" d="M 460.5 410 L 464 410.5 L 460.5 411 L 460.5 410 Z " /><path fill="rgb(0,0,0)" stroke="rgb(0,0,0)" stroke-width="1" opacity="0.6862745098039216" d="M 465.5 411 Q 484.7 415.3 495 428.5 L 503 442.5 L 504 448.5 L 503 448.5 Q 499.1 429.9 485.5 421 Q 477.6 414.4 465.5 412 L 465.5 411 Z " /><path fill="rgb(0,0,0)" stroke="rgb(0,0,0)" stroke-width="1" opacity="0.6862745098039216" d="M 429.5 412 L 431 412.5 Q 411.9 418.9 401 433.5 Q 390.8 445.8 387.5 465 L 387 461.5 Q 393 437 409.5 423 Q 417.5 415.5 429.5 412 Z " /><path fill="rgb(0,0,0)" stroke="rgb(0,0,0)" stroke-width="1" opacity="0.6862745098039216" d="M 505.5 414 L 506 418.5 L 505 418.5 L 505.5 414 Z " /><path fill="rgb(0,0,0)" stroke="rgb(0,0,0)" stroke-width="1" opacity="0.6862745098039216" d="M 725.5 414 L 729 414.5 L 725.5 415 L 725.5 414 Z " /><path fill="rgb(0,0,0)" stroke="rgb(0,0,0)" stroke-width="1" opacity="0.6862745098039216" d="M 722.5 415 L 724 415.5 Q 713.9 418.9 708 426.5 Q 703 433 701.5 443 L 701 439.5 Q 704.3 425.8 714.5 419 L 722.5 415 Z " /><path fill="rgb(0,0,0)" stroke="rgb(0,0,0)" stroke-width="1" opacity="0.6862745098039216" d="M 513.5 416 L 514 420.5 L 513 420.5 L 513.5 416 Z " /><path fill="rgb(0,0,0)" stroke="rgb(0,0,0)" stroke-width="1" opacity="0.6862745098039216" d="M 792.5 416 L 793 418.5 L 792 418.5 L 792.5 416 Z " /><path fill="rgb(0,0,0)" stroke="rgb(0,0,0)" stroke-width="1" opacity="0.6862745098039216" d="M 800.5 417 L 801 419.5 L 800 419.5 L 800.5 417 Z " /><path fill="rgb(0,0,0)" stroke="rgb(0,0,0)" stroke-width="1" opacity="0.6862745098039216" d="M 506.5 420 L 508 428.5 L 507 428.5 L 506.5 420 Z " /><path fill="rgb(0,0,0)" stroke="rgb(0,0,0)" stroke-width="1" opacity="0.6862745098039216" d="M 793.5 420 L 794 424.5 L 793 424.5 L 793.5 420 Z " /><path fill="rgb(0,0,0)" stroke="rgb(0,0,0)" stroke-width="1" opacity="0.6862745098039216" d="M 514.5 422 L 515 425.5 L 514 425.5 L 514.5 422 Z " /><path fill="rgb(0,0,0)" stroke="rgb(0,0,0)" stroke-width="1" opacity="0.6862745098039216" d="M 801.5 422 L 802 426.5 L 801 426.5 L 801.5 422 Z " /><path fill="rgb(0,0,0)" stroke="rgb(0,0,0)" stroke-width="1" opacity="0.6862745098039216" d="M 515.5 427 L 516 429.5 L 515 429.5 L 515.5 427 Z " /><path fill="rgb(0,0,0)" stroke="rgb(0,0,0)" stroke-width="1" opacity="0.6862745098039216" d="M 636.5 427 L 639 428.5 L 634.5 442 L 634 439.5 L 638 428.5 L 635.5 430 L 622.5 437 L 613.5 439 L 613.5 438 Q 628.6 436.1 636.5 427 Z " /><path fill="rgb(0,0,0)" stroke="rgb(0,0,0)" stroke-width="1" opacity="0.6862745098039216" d="M 794.5 427 L 795 438.5 L 794 438.5 L 794.5 427 Z " /><path fill="rgb(0,0,0)" stroke="rgb(0,0,0)" stroke-width="1" opacity="0.6862745098039216" d="M 508.5 430 L 509 432.5 L 508 432.5 L 508.5 430 Z " /><path fill="rgb(0,0,0)" stroke="rgb(0,0,0)" stroke-width="1" opacity="0.6862745098039216" d="M 614.5 430 L 617 430.5 L 609.5 432 L 609.5 431 L 614.5 430 Z " /><path fill="rgb(0,0,0)" stroke="rgb(0,0,0)" stroke-width="1" opacity="0.6862745098039216" d="M 516.5 431 L 523 450.5 Q 532.2 471.3 545 488.5 L 601 556.5 L 621 586.5 L 620 586.5 L 602 559.5 L 552 499.5 L 535 475.5 L 522 450.5 L 516 433.5 L 516.5 431 Z " /><path fill="rgb(0,0,0)" stroke="rgb(0,0,0)" stroke-width="1" opacity="0.6862745098039216" d="M 599.5 432 L 606 432.5 L 599.5 433 L 599.5 432 Z " /><path fill="rgb(0,0,0)" stroke="rgb(0,0,0)" stroke-width="1" opacity="0.6862745098039216" d="M 762.5 434 L 763 439.5 L 762 439.5 L 762.5 434 Z " /><path fill="rgb(0,0,0)" stroke="rgb(0,0,0)" stroke-width="1" opacity="0.6862745098039216" d="M 590.5 438 L 593 438.5 L 590.5 439 L 590.5 438 Z " /><path fill="rgb(0,0,0)" stroke="rgb(0,0,0)" stroke-width="1" opacity="0.6862745098039216" d="M 594.5 439 L 599 439.5 L 594.5 440 L 594.5 439 Z " /><path fill="rgb(0,0,0)" stroke="rgb(0,0,0)" stroke-width="1" opacity="0.6862745098039216" d="M 606.5 439 L 612 439.5 L 606.5 440 L 606.5 439 Z " /><path fill="rgb(0,0,0)" stroke="rgb(0,0,0)" stroke-width="1" opacity="0.6862745098039216" d="M 801.5 439 L 802 443.5 L 801 443.5 L 801.5 439 Z " /><path fill="rgb(0,0,0)" stroke="rgb(0,0,0)" stroke-width="1" opacity="0.6862745098039216" d="M 693.5 440 L 694 445.5 L 693 445.5 L 693.5 440 Z " /><path fill="rgb(0,0,0)" stroke="rgb(0,0,0)" stroke-width="1" opacity="0.6862745098039216" d="M 449.5 441 Q 459.8 439.8 465 443.5 L 462.5 444 L 461.5 443 L 449.5 442 L 449.5 441 Z " /><path fill="rgb(0,0,0)" stroke="rgb(0,0,0)" stroke-width="1" opacity="0.6862745098039216" d="M 793.5 441 L 794 445.5 L 793 445.5 L 793.5 441 Z " /><path fill="rgb(0,0,0)" stroke="rgb(0,0,0)" stroke-width="1" opacity="0.6862745098039216" d="M 445.5 442 L 452 443.5 Q 441 445.5 436 453.5 L 431.5 465 L 431 461.5 Q 433.5 453 439.5 448 L 448 443.5 L 445.5 443 Q 436.1 446.6 431 454.5 Q 426.6 460.1 425.5 469 L 425 465.5 Q 428 453.5 436.5 447 L 445.5 442 Z " /><path fill="rgb(0,0,0)" stroke="rgb(0,0,0)" stroke-width="1" opacity="0.6862745098039216" d="M 761.5 442 L 762 444.5 L 759.5 450 L 759 448.5 L 761.5 442 Z " /><path fill="rgb(0,0,0)" stroke="rgb(0,0,0)" stroke-width="1" opacity="0.6862745098039216" d="M 510.5 443 L 511.5 446 L 512.5 443 Q 523.1 472.9 541 495.5 L 562 521.5 Q 584.7 542.8 604 567.5 L 600 564.5 L 557 517.5 L 539 494.5 Q 522.6 473.4 512.5 446 L 511.5 450 L 510.5 443 Z " /><path fill="rgb(0,0,0)" stroke="rgb(0,0,0)" stroke-width="1" opacity="0.6862745098039216" d="M 633.5 443 L 634 445.5 L 632.5 449 L 632 446.5 L 633.5 443 Z " /><path fill="rgb(0,0,0)" stroke="rgb(0,0,0)" stroke-width="1" opacity="0.6862745098039216" d="M 800.5 445 L 801 448.5 L 800 448.5 L 800.5 445 Z " /><path fill="rgb(0,0,0)" stroke="rgb(0,0,0)" stroke-width="1" opacity="0.6862745098039216" d="M 700.5 446 L 701 451.5 L 700 451.5 L 700.5 446 Z " /><path fill="rgb(0,0,0)" stroke="rgb(0,0,0)" stroke-width="1" opacity="0.6862745098039216" d="M 792.5 447 L 793 449.5 Q 788.1 467.6 775.5 478 L 761.5 486 L 750.5 488 L 750.5 487 Q 772.9 483.9 783 468.5 Q 789.7 459.7 792.5 447 Z " /><path fill="rgb(0,0,0)" stroke="rgb(0,0,0)" stroke-width="1" opacity="0.6862745098039216" d="M 504.5 450 L 505 454.5 L 504 454.5 L 504.5 450 Z " /><path fill="rgb(0,0,0)" stroke="rgb(0,0,0)" stroke-width="1" opacity="0.6862745098039216" d="M 631.5 450 L 632 452.5 L 631 452.5 L 631.5 450 Z " /><path fill="rgb(0,0,0)" stroke="rgb(0,0,0)" stroke-width="1" opacity="0.6862745098039216" d="M 799.5 450 L 800 452.5 Q 793.7 473.2 778.5 485 L 762.5 493 L 762.5 492 L 770.5 489 L 785 477.5 Q 795.2 466.7 799.5 450 Z " /><path fill="rgb(0,0,0)" stroke="rgb(0,0,0)" stroke-width="1" opacity="0.6862745098039216" d="M 512.5 451 L 513 467.5 L 512 467.5 L 512.5 451 Z " /><path fill="rgb(0,0,0)" stroke="rgb(0,0,0)" stroke-width="1" opacity="0.6862745098039216" d="M 693.5 452 L 694 456.5 L 693 456.5 L 693.5 452 Z " /><path fill="rgb(0,0,0)" stroke="rgb(0,0,0)" stroke-width="1" opacity="0.6862745098039216" d="M 638.5 453 L 639 456.5 L 637.5 461 L 637 457.5 L 638.5 453 Z " /><path fill="rgb(0,0,0)" stroke="rgb(0,0,0)" stroke-width="1" opacity="0.6862745098039216" d="M 630.5 454 L 631 457.5 L 629.5 462 L 629 458.5 L 630.5 454 Z " /><path fill="rgb(0,0,0)" stroke="rgb(0,0,0)" stroke-width="1" opacity="0.6862745098039216" d="M 701.5 454 Q 704 469 713.5 477 Q 719.8 482.8 729 485.5 L 727.5 486 Q 714.3 481.7 707 471.5 L 701 458.5 L 701.5 454 Z " /><path fill="rgb(0,0,0)" stroke="rgb(0,0,0)" stroke-width="1" opacity="0.6862745098039216" d="M 694.5 458 Q 698.4 475.1 710.5 484 Q 719.6 491.9 734 494.5 L 730.5 495 Q 714.7 490.8 705 480.5 L 695 464.5 L 694.5 458 Z " /><path fill="rgb(0,0,0)" stroke="rgb(0,0,0)" stroke-width="1" opacity="0.6862745098039216" d="M 636.5 462 L 637 465.5 L 636 465.5 L 636.5 462 Z " /><path fill="rgb(0,0,0)" stroke="rgb(0,0,0)" stroke-width="1" opacity="0.6862745098039216" d="M 628.5 463 L 629 467.5 L 628 467.5 L 628.5 463 Z " /><path fill="rgb(0,0,0)" stroke="rgb(0,0,0)" stroke-width="1" opacity="0.6862745098039216" d="M 504.5 465 L 505 469.5 L 504 469.5 L 504.5 465 Z " /><path fill="rgb(0,0,0)" stroke="rgb(0,0,0)" stroke-width="1" opacity="0.6862745098039216" d="M 386.5 466 L 387 471.5 L 386 471.5 L 386.5 466 Z " /><path fill="rgb(0,0,0)" stroke="rgb(0,0,0)" stroke-width="1" opacity="0.6862745098039216" d="M 430.5 467 L 431 474.5 L 430 474.5 L 430.5 467 Z " /><path fill="rgb(0,0,0)" stroke="rgb(0,0,0)" stroke-width="1" opacity="0.6862745098039216" d="M 635.5 467 L 636 472.5 L 635 472.5 L 635.5 467 Z " /><path fill="rgb(0,0,0)" stroke="rgb(0,0,0)" stroke-width="1" opacity="0.6862745098039216" d="M 378.5 468 L 379 474.5 L 378 474.5 L 378.5 468 Z " /><path fill="rgb(0,0,0)" stroke="rgb(0,0,0)" stroke-width="1" opacity="0.6862745098039216" d="M 511.5 469 L 512 472.5 L 511 472.5 L 511.5 469 Z " /><path fill="rgb(0,0,0)" stroke="rgb(0,0,0)" stroke-width="1" opacity="0.6862745098039216" d="M 627.5 469 L 628 473.5 L 627 473.5 L 627.5 469 Z " /><path fill="rgb(0,0,0)" stroke="rgb(0,0,0)" stroke-width="1" opacity="0.6862745098039216" d="M 424.5 471 L 425 476.5 L 424 476.5 L 424.5 471 Z " /><path fill="rgb(0,0,0)" stroke="rgb(0,0,0)" stroke-width="1" opacity="0.6862745098039216" d="M 503.5 471 L 504 473.5 Q 499.9 487.9 489.5 496 L 476.5 502 L 476.5 501 Q 489.3 497.3 496 487.5 L 503.5 471 Z " /><path fill="rgb(0,0,0)" stroke="rgb(0,0,0)" stroke-width="1" opacity="0.6862745098039216" d="M 510.5 474 L 511 476.5 Q 505.5 493.5 492.5 503 Q 485.9 508.4 475.5 510 L 475.5 509 L 485.5 506 L 500 494.5 Q 507.2 486.2 510.5 474 Z " /><path fill="rgb(0,0,0)" stroke="rgb(0,0,0)" stroke-width="1" opacity="0.6862745098039216" d="M 634.5 474 L 635 479.5 L 634 479.5 L 634.5 474 Z " /><path fill="rgb(0,0,0)" stroke="rgb(0,0,0)" stroke-width="1" opacity="0.6862745098039216" d="M 431.5 476 Q 433.9 489.6 443.5 496 Q 450.2 501.3 461 502.5 L 456.5 503 Q 442.8 499.8 436 489.5 Q 430.9 484.4 431.5 476 Z " /><path fill="rgb(0,0,0)" stroke="rgb(0,0,0)" stroke-width="1" opacity="0.6862745098039216" d="M 626.5 476 L 627 482.5 L 626 482.5 L 626.5 476 Z " /><path fill="rgb(0,0,0)" stroke="rgb(0,0,0)" stroke-width="1" opacity="0.6862745098039216" d="M 385.5 477 L 386 481.5 L 385 481.5 L 385.5 477 Z " /><path fill="rgb(0,0,0)" stroke="rgb(0,0,0)" stroke-width="1" opacity="0.6862745098039216" d="M 425.5 479 Q 428 495 439.5 502 Q 448.5 509.5 464 510.5 L 457.5 511 Q 440.2 507.3 431 495.5 Q 425.5 489 425.5 479 Z " /><path fill="rgb(0,0,0)" stroke="rgb(0,0,0)" stroke-width="1" opacity="0.6862745098039216" d="M 633.5 482 L 634 489.5 L 633 489.5 L 633.5 482 Z " /><path fill="rgb(0,0,0)" stroke="rgb(0,0,0)" stroke-width="1" opacity="0.6862745098039216" d="M 378.5 484 L 379 490.5 L 378 490.5 L 378.5 484 Z " /><path fill="rgb(0,0,0)" stroke="rgb(0,0,0)" stroke-width="1" opacity="0.6862745098039216" d="M 625.5 485 L 626 494.5 L 625 494.5 L 625.5 485 Z " /><path fill="rgb(0,0,0)" stroke="rgb(0,0,0)" stroke-width="1" opacity="0.6862745098039216" d="M 730.5 486 L 733 486.5 L 730.5 487 L 730.5 486 Z " /><path fill="rgb(0,0,0)" stroke="rgb(0,0,0)" stroke-width="1" opacity="0.6862745098039216" d="M 386.5 487 L 387 492.5 L 386 492.5 L 386.5 487 Z " /><path fill="rgb(0,0,0)" stroke="rgb(0,0,0)" stroke-width="1" opacity="0.6862745098039216" d="M 734.5 487 L 738 487.5 L 734.5 488 L 734.5 487 Z " /><path fill="rgb(0,0,0)" stroke="rgb(0,0,0)" stroke-width="1" opacity="0.6862745098039216" d="M 806.5 490 L 810 490.5 L 806.5 491 L 806.5 490 Z " /><path fill="rgb(0,0,0)" stroke="rgb(0,0,0)" stroke-width="1" opacity="0.6862745098039216" d="M 793.5 491 L 800 491.5 L 793.5 492 L 793.5 491 Z " /><path fill="rgb(0,0,0)" stroke="rgb(0,0,0)" stroke-width="1" opacity="0.6862745098039216" d="M 816.5 491 L 821 491.5 L 816.5 492 L 816.5 491 Z " /><path fill="rgb(0,0,0)" stroke="rgb(0,0,0)" stroke-width="1" opacity="0.6862745098039216" d="M 786.5 492 L 791 492.5 L 786.5 493 L 786.5 492 Z " /><path fill="rgb(0,0,0)" stroke="rgb(0,0,0)" stroke-width="1" opacity="0.6862745098039216" d="M 823.5 492 Q 856.8 498.7 874 521.5 Q 884 533.5 889 550.5 L 888 550.5 Q 881.2 527.8 865.5 514 L 849.5 502 Q 838.7 495.3 823.5 493 L 823.5 492 Z " /><path fill="rgb(0,0,0)" stroke="rgb(0,0,0)" stroke-width="1" opacity="0.6862745098039216" d="M 379.5 493 L 380 496.5 L 379 496.5 L 379.5 493 Z " /><path fill="rgb(0,0,0)" stroke="rgb(0,0,0)" stroke-width="1" opacity="0.6862745098039216" d="M 758.5 493 L 761 493.5 L 754.5 495 L 754.5 494 L 758.5 493 Z " /><path fill="rgb(0,0,0)" stroke="rgb(0,0,0)" stroke-width="1" opacity="0.6862745098039216" d="M 781.5 493 L 785 493.5 L 777.5 495 L 777.5 494 L 781.5 493 Z " /><path fill="rgb(0,0,0)" stroke="rgb(0,0,0)" stroke-width="1" opacity="0.6862745098039216" d="M 387.5 494 L 388 497.5 L 387 497.5 L 387.5 494 Z " /><path fill="rgb(0,0,0)" stroke="rgb(0,0,0)" stroke-width="1" opacity="0.6862745098039216" d="M 632.5 494 L 633 509.5 L 632 509.5 L 632.5 494 Z " /><path fill="rgb(0,0,0)" stroke="rgb(0,0,0)" stroke-width="1" opacity="0.6862745098039216" d="M 735.5 495 L 741 495.5 L 735.5 496 L 735.5 495 Z " /><path fill="rgb(0,0,0)" stroke="rgb(0,0,0)" stroke-width="1" opacity="0.6862745098039216" d="M 747.5 495 L 753 495.5 L 747.5 496 L 747.5 495 Z " /><path fill="rgb(0,0,0)" stroke="rgb(0,0,0)" stroke-width="1" opacity="0.6862745098039216" d="M 773.5 495 L 776 495.5 L 770.5 497 L 770.5 496 L 773.5 495 Z " /><path fill="rgb(0,0,0)" stroke="rgb(0,0,0)" stroke-width="1" opacity="0.6862745098039216" d="M 766.5 497 L 769 497.5 L 764.5 499 L 764.5 498 L 766.5 497 Z " /><path fill="rgb(0,0,0)" stroke="rgb(0,0,0)" stroke-width="1" opacity="0.6862745098039216" d="M 380.5 498 L 381 500.5 L 380 500.5 L 380.5 498 Z " /><path fill="rgb(0,0,0)" stroke="rgb(0,0,0)" stroke-width="1" opacity="0.6862745098039216" d="M 800.5 498 L 816 498.5 L 800.5 499 L 800.5 498 Z " /><path fill="rgb(0,0,0)" stroke="rgb(0,0,0)" stroke-width="1" opacity="0.6862745098039216" d="M 388.5 499 Q 395.4 524.6 413.5 539 Q 431.2 552.8 455 560.5 L 453.5 561 Q 420.6 550.9 401 527.5 L 391 510.5 L 388 501.5 L 388.5 499 Z " /><path fill="rgb(0,0,0)" stroke="rgb(0,0,0)" stroke-width="1" opacity="0.6862745098039216" d="M 624.5 499 L 625 517.5 L 624 517.5 L 624.5 499 Z " /><path fill="rgb(0,0,0)" stroke="rgb(0,0,0)" stroke-width="1" opacity="0.6862745098039216" d="M 761.5 499 L 763 499.5 Q 731.5 511.5 706.5 530 L 682.5 548 L 629.5 593 L 632.5 589 L 678.5 550 L 707.5 528 Q 731.3 510.3 761.5 499 Z " /><path fill="rgb(0,0,0)" stroke="rgb(0,0,0)" stroke-width="1" opacity="0.6862745098039216" d="M 791.5 499 L 797 499.5 L 791.5 500 L 791.5 499 Z " /><path fill="rgb(0,0,0)" stroke="rgb(0,0,0)" stroke-width="1" opacity="0.6862745098039216" d="M 818.5 499 L 823 499.5 L 818.5 500 L 818.5 499 Z " /><path fill="rgb(0,0,0)" stroke="rgb(0,0,0)" stroke-width="1" opacity="0.6862745098039216" d="M 785.5 500 L 789 500.5 L 785.5 501 L 785.5 500 Z " /><path fill="rgb(0,0,0)" stroke="rgb(0,0,0)" stroke-width="1" opacity="0.6862745098039216" d="M 824.5 500 L 827.5 500 L 843.5 506 Q 856.5 513 866 523.5 Q 877.3 535.2 882 553.5 L 881 553.5 Q 873.9 528.6 855.5 515 L 836.5 504 L 824.5 501 L 824.5 500 Z " /><path fill="rgb(0,0,0)" stroke="rgb(0,0,0)" stroke-width="1" opacity="0.6862745098039216" d="M 780.5 501 L 784 501.5 L 780.5 502 L 780.5 501 Z " /><path fill="rgb(0,0,0)" stroke="rgb(0,0,0)" stroke-width="1" opacity="0.6862745098039216" d="M 381.5 502 Q 389.7 530.3 410.5 546 L 417 550.5 L 415.5 551 L 398 535.5 L 386 517.5 L 381 504.5 L 381.5 502 Z " /><path fill="rgb(0,0,0)" stroke="rgb(0,0,0)" stroke-width="1" opacity="0.6862745098039216" d="M 471.5 502 L 475 502.5 L 471.5 503 L 471.5 502 Z " /><path fill="rgb(0,0,0)" stroke="rgb(0,0,0)" stroke-width="1" opacity="0.6862745098039216" d="M 776.5 502 L 779 502.5 L 751.5 512 L 719.5 530 L 642.5 589 L 625 600 L 622.5 608 L 622 605.5 L 626.5 598 L 643.5 587 L 695.5 546 L 725.5 525 Q 747.6 510.1 776.5 502 Z " /><path fill="rgb(0,0,0)" stroke="rgb(0,0,0)" stroke-width="1" opacity="0.6862745098039216" d="M 467.5 510 L 474 510.5 L 467.5 511 L 467.5 510 Z " /><path fill="rgb(0,0,0)" stroke="rgb(0,0,0)" stroke-width="1" opacity="0.6862745098039216" d="M 624.5 521 L 625 541.5 L 624 541.5 L 624.5 521 Z " /><path fill="rgb(0,0,0)" stroke="rgb(0,0,0)" stroke-width="1" opacity="0.6862745098039216" d="M 631.5 529 L 632 552.5 L 631 552.5 L 631.5 529 Z " /><path fill="rgb(0,0,0)" stroke="rgb(0,0,0)" stroke-width="1" opacity="0.6862745098039216" d="M 808.5 543 L 818 543.5 L 808.5 544 L 808.5 543 Z " /><path fill="rgb(0,0,0)" stroke="rgb(0,0,0)" stroke-width="1" opacity="0.6862745098039216" d="M 803.5 544 L 807 544.5 L 803.5 545 L 803.5 544 Z " /><path fill="rgb(0,0,0)" stroke="rgb(0,0,0)" stroke-width="1" opacity="0.6862745098039216" d="M 819.5 544 L 823 544.5 L 819.5 545 L 819.5 544 Z " /><path fill="rgb(0,0,0)" stroke="rgb(0,0,0)" stroke-width="1" opacity="0.6862745098039216" d="M 799.5 545 L 802 545.5 Q 785.5 550 777 562.5 Q 771.4 568.9 769.5 579 L 769 576.5 Q 773.4 561.4 784.5 553 L 799.5 545 Z " /><path fill="rgb(0,0,0)" stroke="rgb(0,0,0)" stroke-width="1" opacity="0.6862745098039216" d="M 824.5 545 Q 836.8 548.7 843 558.5 L 848 571.5 L 847 571.5 Q 844.1 557.9 834.5 551 L 824.5 546 L 824.5 545 Z " /><path fill="rgb(0,0,0)" stroke="rgb(0,0,0)" stroke-width="1" opacity="0.6862745098039216" d="M 403.5 551 L 411 551.5 L 403.5 552 L 403.5 551 Z " /><path fill="rgb(0,0,0)" stroke="rgb(0,0,0)" stroke-width="1" opacity="0.6862745098039216" d="M 806.5 551 L 819.5 551 Q 831.1 553.9 838 561.5 Q 843.1 565.9 844 574.5 L 843 574.5 Q 840.6 563.4 832.5 558 L 819.5 552 L 806.5 552 L 806.5 551 Z " /><path fill="rgb(0,0,0)" stroke="rgb(0,0,0)" stroke-width="1" opacity="0.6862745098039216" d="M 395.5 552 L 400 552.5 L 395.5 553 L 395.5 552 Z " /><path fill="rgb(0,0,0)" stroke="rgb(0,0,0)" stroke-width="1" opacity="0.6862745098039216" d="M 414.5 552 L 417 552.5 L 414.5 553 L 414.5 552 Z " /><path fill="rgb(0,0,0)" stroke="rgb(0,0,0)" stroke-width="1" opacity="0.6862745098039216" d="M 625.5 552 L 626 578.5 L 625 578.5 L 625.5 552 Z " /><path fill="rgb(0,0,0)" stroke="rgb(0,0,0)" stroke-width="1" opacity="0.6862745098039216" d="M 802.5 552 L 805 552.5 Q 790.5 556 783 566.5 L 777.5 578 L 777 575.5 Q 780.3 566.8 786.5 561 Q 792.9 554.9 802.5 552 Z " /><path fill="rgb(0,0,0)" stroke="rgb(0,0,0)" stroke-width="1" opacity="0.6862745098039216" d="M 889.5 552 L 891 558.5 L 890 558.5 L 889.5 552 Z " /><path fill="rgb(0,0,0)" stroke="rgb(0,0,0)" stroke-width="1" opacity="0.6862745098039216" d="M 390.5 553 L 394 553.5 Q 369.4 558.9 356 575.5 Q 342.9 588.9 339.5 612 L 339 607.5 Q 345.4 580.4 364.5 566 Q 375.2 557.2 390.5 553 Z " /><path fill="rgb(0,0,0)" stroke="rgb(0,0,0)" stroke-width="1" opacity="0.6862745098039216" d="M 882.5 555 L 883 557.5 L 882 557.5 L 882.5 555 Z " /><path fill="rgb(0,0,0)" stroke="rgb(0,0,0)" stroke-width="1" opacity="0.6862745098039216" d="M 400.5 559 L 414 559.5 L 400.5 560 L 400.5 559 Z " /><path fill="rgb(0,0,0)" stroke="rgb(0,0,0)" stroke-width="1" opacity="0.6862745098039216" d="M 883.5 559 L 884 562.5 L 883 562.5 L 883.5 559 Z " /><path fill="rgb(0,0,0)" stroke="rgb(0,0,0)" stroke-width="1" opacity="0.6862745098039216" d="M 394.5 560 L 398 560.5 L 394.5 561 L 394.5 560 Z " /><path fill="rgb(0,0,0)" stroke="rgb(0,0,0)" stroke-width="1" opacity="0.6862745098039216" d="M 416.5 560 L 423 561.5 L 420.5 562 L 416.5 561 L 416.5 560 Z " /><path fill="rgb(0,0,0)" stroke="rgb(0,0,0)" stroke-width="1" opacity="0.6862745098039216" d="M 891.5 560 L 892 564.5 L 891 564.5 L 891.5 560 Z " /><path fill="rgb(0,0,0)" stroke="rgb(0,0,0)" stroke-width="1" opacity="0.6862745098039216" d="M 390.5 561 L 393 561.5 L 390.5 562 L 390.5 561 Z " /><path fill="rgb(0,0,0)" stroke="rgb(0,0,0)" stroke-width="1" opacity="0.6862745098039216" d="M 456.5 561 L 470 564.5 L 466.5 565 L 456.5 562 L 456.5 561 Z " /><path fill="rgb(0,0,0)" stroke="rgb(0,0,0)" stroke-width="1" opacity="0.6862745098039216" d="M 630.5 561 L 631 571.5 L 630 571.5 L 630.5 561 Z " /><path fill="rgb(0,0,0)" stroke="rgb(0,0,0)" stroke-width="1" opacity="0.6862745098039216" d="M 387.5 562 L 389 562.5 Q 369.6 568.6 359 583.5 L 350 599.5 L 347.5 610 L 347 606.5 Q 352.4 584.9 367.5 573 Q 375.5 565.5 387.5 562 Z " /><path fill="rgb(0,0,0)" stroke="rgb(0,0,0)" stroke-width="1" opacity="0.6862745098039216" d="M 424.5 562 L 430.5 564 L 444 574.5 Q 451.3 581.7 454 593.5 L 453 593.5 Q 448.8 578.2 437.5 570 L 424.5 563 L 424.5 562 Z " /><path fill="rgb(0,0,0)" stroke="rgb(0,0,0)" stroke-width="1" opacity="0.6862745098039216" d="M 884.5 564 L 885 570.5 L 884 570.5 L 884.5 564 Z " /><path fill="rgb(0,0,0)" stroke="rgb(0,0,0)" stroke-width="1" opacity="0.6862745098039216" d="M 471.5 565 L 475 565.5 L 471.5 566 L 471.5 565 Z " /><path fill="rgb(0,0,0)" stroke="rgb(0,0,0)" stroke-width="1" opacity="0.6862745098039216" d="M 447.5 566 L 471 572.5 L 467.5 573 L 447.5 567 L 451 571.5 Q 459.5 580 462 594.5 L 461 594.5 Q 457.1 577.4 446 567.5 L 447.5 566 Z " /><path fill="rgb(0,0,0)" stroke="rgb(0,0,0)" stroke-width="1" opacity="0.6862745098039216" d="M 476.5 566 L 480 566.5 L 476.5 567 L 476.5 566 Z " /><path fill="rgb(0,0,0)" stroke="rgb(0,0,0)" stroke-width="1" opacity="0.6862745098039216" d="M 482.5 567 L 488 567.5 L 482.5 568 L 482.5 567 Z " /><path fill="rgb(0,0,0)" stroke="rgb(0,0,0)" stroke-width="1" opacity="0.6862745098039216" d="M 556.5 567 L 573 567.5 L 556.5 568 L 556.5 567 Z " /><path fill="rgb(0,0,0)" stroke="rgb(0,0,0)" stroke-width="1" opacity="0.6862745098039216" d="M 892.5 567 L 893 583.5 L 892 583.5 L 892.5 567 Z " /><path fill="rgb(0,0,0)" stroke="rgb(0,0,0)" stroke-width="1" opacity="0.6862745098039216" d="M 491.5 568 L 501 568.5 L 491.5 569 L 491.5 568 Z " /><path fill="rgb(0,0,0)" stroke="rgb(0,0,0)" stroke-width="1" opacity="0.6862745098039216" d="M 521.5 568 L 545 568.5 L 521.5 569 L 521.5 568 Z " /><path fill="rgb(0,0,0)" stroke="rgb(0,0,0)" stroke-width="1" opacity="0.6862745098039216" d="M 578.5 568 L 587 568.5 L 578.5 569 L 578.5 568 Z " /><path fill="rgb(0,0,0)" stroke="rgb(0,0,0)" stroke-width="1" opacity="0.6862745098039216" d="M 597.5 568 L 600 568.5 L 597.5 569 L 597.5 568 Z " /><path fill="rgb(0,0,0)" stroke="rgb(0,0,0)" stroke-width="1" opacity="0.6862745098039216" d="M 563.5 572 L 573 572.5 L 563.5 573 L 563.5 572 Z " /><path fill="rgb(0,0,0)" stroke="rgb(0,0,0)" stroke-width="1" opacity="0.6862745098039216" d="M 472.5 573 L 476 573.5 L 472.5 574 L 472.5 573 Z " /><path fill="rgb(0,0,0)" stroke="rgb(0,0,0)" stroke-width="1" opacity="0.6862745098039216" d="M 552.5 573 L 560 573.5 L 552.5 574 L 552.5 573 Z " /><path fill="rgb(0,0,0)" stroke="rgb(0,0,0)" stroke-width="1" opacity="0.6862745098039216" d="M 848.5 573 L 849 584.5 Q 846.5 595 839.5 601 Q 834.9 606.4 825.5 607 L 825.5 606 Q 835.5 604 840 596.5 Q 845.6 589.6 844.5 576 L 845 587.5 L 843 593.5 L 845 592.5 Q 849.4 585.4 848.5 573 Z " /><path fill="rgb(0,0,0)" stroke="rgb(0,0,0)" stroke-width="1" opacity="0.6862745098039216" d="M 477.5 574 L 483 574.5 L 477.5 575 L 477.5 574 Z " /><path fill="rgb(0,0,0)" stroke="rgb(0,0,0)" stroke-width="1" opacity="0.6862745098039216" d="M 543.5 574 L 550 574.5 L 543.5 575 L 543.5 574 Z " /><path fill="rgb(0,0,0)" stroke="rgb(0,0,0)" stroke-width="1" opacity="0.6862745098039216" d="M 572.5 574 L 567 580.5 L 562.5 589 L 562 587.5 Q 565.3 578.8 572.5 574 Z " /><path fill="rgb(0,0,0)" stroke="rgb(0,0,0)" stroke-width="1" opacity="0.6862745098039216" d="M 484.5 575 L 491 575.5 L 484.5 576 L 484.5 575 Z " /><path fill="rgb(0,0,0)" stroke="rgb(0,0,0)" stroke-width="1" opacity="0.6862745098039216" d="M 533.5 575 L 540 575.5 L 533.5 576 L 533.5 575 Z " /><path fill="rgb(0,0,0)" stroke="rgb(0,0,0)" stroke-width="1" opacity="0.6862745098039216" d="M 629.5 575 L 630 580.5 L 629 580.5 L 629.5 575 Z " /><path fill="rgb(0,0,0)" stroke="rgb(0,0,0)" stroke-width="1" opacity="0.6862745098039216" d="M 494.5 576 L 512 576.5 L 494.5 577 L 494.5 576 Z " /><path fill="rgb(0,0,0)" stroke="rgb(0,0,0)" stroke-width="1" opacity="0.6862745098039216" d="M 517.5 576 L 530 576.5 L 517.5 577 L 517.5 576 Z " /><path fill="rgb(0,0,0)" stroke="rgb(0,0,0)" stroke-width="1" opacity="0.6862745098039216" d="M 776.5 579 L 777 582.5 L 776 582.5 L 776.5 579 Z " /><path fill="rgb(0,0,0)" stroke="rgb(0,0,0)" stroke-width="1" opacity="0.6862745098039216" d="M 768.5 580 L 769 584.5 L 768 584.5 L 768.5 580 Z " /><path fill="rgb(0,0,0)" stroke="rgb(0,0,0)" stroke-width="1" opacity="0.6862745098039216" d="M 884.5 580 L 885 586.5 L 884 586.5 L 884.5 580 Z " /><path fill="rgb(0,0,0)" stroke="rgb(0,0,0)" stroke-width="1" opacity="0.6862745098039216" d="M 624.5 583 L 625 589.5 L 624 589.5 L 624.5 583 Z " /><path fill="rgb(0,0,0)" stroke="rgb(0,0,0)" stroke-width="1" opacity="0.6862745098039216" d="M 628.5 583 L 629 587.5 L 627.5 592 L 627 588.5 L 628.5 583 Z " /><path fill="rgb(0,0,0)" stroke="rgb(0,0,0)" stroke-width="1" opacity="0.6862745098039216" d="M 775.5 584 L 776 594.5 L 775 594.5 L 775.5 584 Z " /><path fill="rgb(0,0,0)" stroke="rgb(0,0,0)" stroke-width="1" opacity="0.6862745098039216" d="M 891.5 586 L 892 590.5 Q 885.2 616.7 866.5 631 L 851.5 640 L 840.5 643 L 840.5 642 Q 862.6 636.6 875 621.5 Q 883 612.5 888 600.5 L 891.5 586 Z " /><path fill="rgb(0,0,0)" stroke="rgb(0,0,0)" stroke-width="1" opacity="0.6862745098039216" d="M 883.5 588 L 884 591.5 Q 878.2 612.2 863.5 624 Q 854.7 631.7 841.5 635 L 841.5 634 Q 861.3 628.3 872 613.5 Q 880.6 603.6 883.5 588 Z " /><path fill="rgb(0,0,0)" stroke="rgb(0,0,0)" stroke-width="1" opacity="0.6862745098039216" d="M 402.5 590 L 405 590.5 Q 395.8 593.3 391 600.5 L 387.5 609 L 387 606.5 L 390 600.5 L 388 601.5 Q 384.3 605.8 383.5 613 L 383 609.5 Q 385.8 600.3 392.5 595 L 402.5 590 Z " /><path fill="rgb(0,0,0)" stroke="rgb(0,0,0)" stroke-width="1" opacity="0.6862745098039216" d="M 560.5 593 L 561 597.5 L 560 597.5 L 560.5 593 Z " /><path fill="rgb(0,0,0)" stroke="rgb(0,0,0)" stroke-width="1" opacity="0.6862745098039216" d="M 454.5 595 L 455 597.5 L 454 597.5 L 454.5 595 Z " /><path fill="rgb(0,0,0)" stroke="rgb(0,0,0)" stroke-width="1" opacity="0.6862745098039216" d="M 768.5 595 Q 771.2 615.3 783 626.5 L 778 622.5 Q 769.2 611.7 768.5 595 Z " /><path fill="rgb(0,0,0)" stroke="rgb(0,0,0)" stroke-width="1" opacity="0.6862745098039216" d="M 462.5 596 L 463 599.5 L 462 599.5 L 462.5 596 Z " /><path fill="rgb(0,0,0)" stroke="rgb(0,0,0)" stroke-width="1" opacity="0.6862745098039216" d="M 776.5 597 Q 780.2 618.3 795.5 628 L 812 635.5 L 809.5 636 Q 793.9 631.1 785 619.5 L 777 604.5 L 776.5 597 Z " /><path fill="rgb(0,0,0)" stroke="rgb(0,0,0)" stroke-width="1" opacity="0.6862745098039216" d="M 455.5 599 L 456 614.5 L 455 614.5 L 455.5 599 Z " /><path fill="rgb(0,0,0)" stroke="rgb(0,0,0)" stroke-width="1" opacity="0.6862745098039216" d="M 560.5 600 L 561 605.5 Q 533.2 637.7 502.5 667 Q 480.4 687.9 445.5 696 L 445.5 695 Q 466.8 691.3 481.5 681 Q 504.6 666.6 522 646.5 L 560 604.5 L 560.5 600 Z " /><path fill="rgb(0,0,0)" stroke="rgb(0,0,0)" stroke-width="1" opacity="0.6862745098039216" d="M 463.5 602 L 464 611.5 L 463 611.5 L 463.5 602 Z " /><path fill="rgb(0,0,0)" stroke="rgb(0,0,0)" stroke-width="1" opacity="0.6862745098039216" d="M 621.5 609 L 622 610.5 L 620.5 613 L 620 611.5 L 621.5 609 Z " /><path fill="rgb(0,0,0)" stroke="rgb(0,0,0)" stroke-width="1" opacity="0.6862745098039216" d="M 386.5 610 L 387 618.5 L 386 618.5 L 386.5 610 Z " /><path fill="rgb(0,0,0)" stroke="rgb(0,0,0)" stroke-width="1" opacity="0.6862745098039216" d="M 560.5 611 L 559 613.5 Q 538.6 643.6 512.5 668 Q 493 687.5 464.5 698 L 464.5 697 L 475.5 693 L 501.5 676 L 533 645.5 L 560.5 611 Z " /><path fill="rgb(0,0,0)" stroke="rgb(0,0,0)" stroke-width="1" opacity="0.6862745098039216" d="M 562.5 611 L 569 620.5 L 569 623.5 L 568 623.5 L 568 620.5 Q 563.3 617 562.5 611 Z " /><path fill="rgb(0,0,0)" stroke="rgb(0,0,0)" stroke-width="1" opacity="0.6862745098039216" d="M 346.5 612 L 347 629.5 L 346 629.5 L 346.5 612 Z " /><path fill="rgb(0,0,0)" stroke="rgb(0,0,0)" stroke-width="1" opacity="0.6862745098039216" d="M 382.5 614 L 383 621.5 L 382 621.5 L 382.5 614 Z " /><path fill="rgb(0,0,0)" stroke="rgb(0,0,0)" stroke-width="1" opacity="0.6862745098039216" d="M 462.5 614 L 463 617.5 L 462 617.5 L 462.5 614 Z " /><path fill="rgb(0,0,0)" stroke="rgb(0,0,0)" stroke-width="1" opacity="0.6862745098039216" d="M 619.5 614 L 619 615.5 L 617.5 618 L 618 616.5 L 619.5 614 Z " /><path fill="rgb(0,0,0)" stroke="rgb(0,0,0)" stroke-width="1" opacity="0.6862745098039216" d="M 338.5 615 L 339 626.5 L 338 626.5 L 338.5 615 Z " /><path fill="rgb(0,0,0)" stroke="rgb(0,0,0)" stroke-width="1" opacity="0.6862745098039216" d="M 679.5 615 L 720 615.5 L 679.5 616 L 679.5 615 Z " /><path fill="rgb(0,0,0)" stroke="rgb(0,0,0)" stroke-width="1" opacity="0.6862745098039216" d="M 454.5 616 L 455 618.5 Q 451.8 629.3 444.5 636 Q 438.7 641.7 429.5 644 L 429.5 643 Q 441.9 639.9 448 630.5 L 454.5 616 Z " /><path fill="rgb(0,0,0)" stroke="rgb(0,0,0)" stroke-width="1" opacity="0.6862745098039216" d="M 666.5 616 L 675 616.5 L 666.5 617 L 666.5 616 Z " /><path fill="rgb(0,0,0)" stroke="rgb(0,0,0)" stroke-width="1" opacity="0.6862745098039216" d="M 725.5 616 L 733 616.5 L 725.5 617 L 725.5 616 Z " /><path fill="rgb(0,0,0)" stroke="rgb(0,0,0)" stroke-width="1" opacity="0.6862745098039216" d="M 654.5 617 L 663 617.5 L 654.5 618 L 654.5 617 Z " /><path fill="rgb(0,0,0)" stroke="rgb(0,0,0)" stroke-width="1" opacity="0.6862745098039216" d="M 735.5 617 L 741 617.5 L 735.5 618 L 735.5 617 Z " /><path fill="rgb(0,0,0)" stroke="rgb(0,0,0)" stroke-width="1" opacity="0.6862745098039216" d="M 640.5 618 L 650 618.5 L 640.5 619 L 640.5 618 Z " /><path fill="rgb(0,0,0)" stroke="rgb(0,0,0)" stroke-width="1" opacity="0.6862745098039216" d="M 742.5 618 L 747 618.5 L 742.5 619 L 742.5 618 Z " /><path fill="rgb(0,0,0)" stroke="rgb(0,0,0)" stroke-width="1" opacity="0.6862745098039216" d="M 461.5 619 L 462 621.5 Q 457.5 635 447.5 643 L 436.5 650 L 428.5 652 L 428.5 651 Q 445.5 647 454 634.5 Q 459.6 628.6 461.5 619 Z " /><path fill="rgb(0,0,0)" stroke="rgb(0,0,0)" stroke-width="1" opacity="0.6862745098039216" d="M 617.5 619 L 634 619.5 L 617.5 620 L 617.5 619 Z " /><path fill="rgb(0,0,0)" stroke="rgb(0,0,0)" stroke-width="1" opacity="0.6862745098039216" d="M 748.5 619 L 757 620.5 L 753.5 621 L 748.5 620 L 748.5 619 Z " /><path fill="rgb(0,0,0)" stroke="rgb(0,0,0)" stroke-width="1" opacity="0.6862745098039216" d="M 387.5 620 Q 389.9 634.1 400.5 640 L 413 644.5 L 409.5 645 Q 398.4 641.6 392 633.5 Q 386.9 628.4 387.5 620 Z " /><path fill="rgb(0,0,0)" stroke="rgb(0,0,0)" stroke-width="1" opacity="0.6862745098039216" d="M 758.5 621 L 761 621.5 L 758.5 622 L 758.5 621 Z " /><path fill="rgb(0,0,0)" stroke="rgb(0,0,0)" stroke-width="1" opacity="0.6862745098039216" d="M 762.5 622 L 783 628.5 L 780.5 629 L 777.5 627 L 762.5 623 L 762.5 622 Z " /><path fill="rgb(0,0,0)" stroke="rgb(0,0,0)" stroke-width="1" opacity="0.6862745098039216" d="M 383.5 623 Q 386.6 639.4 398.5 647 Q 404.3 651.7 414 652.5 L 409.5 653 Q 396.9 649.6 390 640.5 Q 383.5 634 383.5 623 Z " /><path fill="rgb(0,0,0)" stroke="rgb(0,0,0)" stroke-width="1" opacity="0.6862745098039216" d="M 611.5 623 L 613 623.5 L 603.5 629 L 603.5 628 L 611.5 623 Z " /><path fill="rgb(0,0,0)" stroke="rgb(0,0,0)" stroke-width="1" opacity="0.6862745098039216" d="M 617.5 623 L 627 623.5 L 617.5 624 L 617.5 623 Z " /><path fill="rgb(0,0,0)" stroke="rgb(0,0,0)" stroke-width="1" opacity="0.6862745098039216" d="M 664.5 623 L 694 623.5 L 664.5 624 L 664.5 623 Z " /><path fill="rgb(0,0,0)" stroke="rgb(0,0,0)" stroke-width="1" opacity="0.6862745098039216" d="M 711.5 623 L 725 623.5 L 711.5 624 L 711.5 623 Z " /><path fill="rgb(0,0,0)" stroke="rgb(0,0,0)" stroke-width="1" opacity="0.6862745098039216" d="M 728.5 624 L 735 624.5 L 728.5 625 L 728.5 624 Z " /><path fill="rgb(0,0,0)" stroke="rgb(0,0,0)" stroke-width="1" opacity="0.6862745098039216" d="M 572 625 L 584 629.5 L 581.5 630 L 573 626 L 572.5 638 L 572 625 Z " /><path fill="rgb(0,0,0)" stroke="rgb(0,0,0)" stroke-width="1" opacity="0.6862745098039216" d="M 737.5 625 L 743 625.5 L 737.5 626 L 737.5 625 Z " /><path fill="rgb(0,0,0)" stroke="rgb(0,0,0)" stroke-width="1" opacity="0.6862745098039216" d="M 744.5 626 L 749 626.5 L 744.5 627 L 744.5 626 Z " /><path fill="rgb(0,0,0)" stroke="rgb(0,0,0)" stroke-width="1" opacity="0.6862745098039216" d="M 750.5 627 L 758 628.5 L 754.5 629 L 750.5 628 L 750.5 627 Z " /><path fill="rgb(0,0,0)" stroke="rgb(0,0,0)" stroke-width="1" opacity="0.6862745098039216" d="M 567.5 629 L 568 703.5 L 567 703.5 L 567.5 629 Z " /><path fill="rgb(0,0,0)" stroke="rgb(0,0,0)" stroke-width="1" opacity="0.6862745098039216" d="M 759.5 629 L 762 629.5 L 759.5 630 L 759.5 629 Z " /><path fill="rgb(0,0,0)" stroke="rgb(0,0,0)" stroke-width="1" opacity="0.6862745098039216" d="M 339.5 630 L 340 634.5 L 339 634.5 L 339.5 630 Z " /><path fill="rgb(0,0,0)" stroke="rgb(0,0,0)" stroke-width="1" opacity="0.6862745098039216" d="M 585.5 630 L 589 630.5 L 585.5 631 L 585.5 630 Z " /><path fill="rgb(0,0,0)" stroke="rgb(0,0,0)" stroke-width="1" opacity="0.6862745098039216" d="M 763.5 630 Q 802.3 639.2 824 665.5 L 834 683.5 L 837 695.5 L 836 695.5 Q 830.1 668.4 811.5 654 L 798.5 645 Q 783.3 635.7 763.5 631 L 763.5 630 Z " /><path fill="rgb(0,0,0)" stroke="rgb(0,0,0)" stroke-width="1" opacity="0.6862745098039216" d="M 596.5 631 L 651.5 676 L 676 700.5 Q 696.3 721.7 704 755.5 L 703 755.5 L 699 739.5 L 690 721.5 Q 675.6 698.4 655.5 681 L 597.5 633 L 596.5 631 Z " /><path fill="rgb(0,0,0)" stroke="rgb(0,0,0)" stroke-width="1" opacity="0.6862745098039216" d="M 603.5 631 L 646.5 662 L 677 690.5 Q 688.9 703.1 698 718.5 L 706 734.5 L 709 744.5 L 708 744.5 L 705 734.5 L 691 709.5 Q 675.9 688.6 656.5 672 L 643.5 661 L 604.5 633 L 603.5 631 Z " /><path fill="rgb(0,0,0)" stroke="rgb(0,0,0)" stroke-width="1" opacity="0.6862745098039216" d="M 347.5 632 L 348 636.5 L 347 636.5 L 347.5 632 Z " /><path fill="rgb(0,0,0)" stroke="rgb(0,0,0)" stroke-width="1" opacity="0.6862745098039216" d="M 837.5 635 L 840 635.5 L 837.5 636 L 837.5 635 Z " /><path fill="rgb(0,0,0)" stroke="rgb(0,0,0)" stroke-width="1" opacity="0.6862745098039216" d="M 340.5 636 L 341 639.5 L 340 639.5 L 340.5 636 Z " /><path fill="rgb(0,0,0)" stroke="rgb(0,0,0)" stroke-width="1" opacity="0.6862745098039216" d="M 813.5 636 L 817 636.5 L 813.5 637 L 813.5 636 Z " /><path fill="rgb(0,0,0)" stroke="rgb(0,0,0)" stroke-width="1" opacity="0.6862745098039216" d="M 831.5 636 L 836 636.5 L 831.5 637 L 831.5 636 Z " /><path fill="rgb(0,0,0)" stroke="rgb(0,0,0)" stroke-width="1" opacity="0.6862745098039216" d="M 821.5 637 L 827 637.5 L 821.5 638 L 821.5 637 Z " /><path fill="rgb(0,0,0)" stroke="rgb(0,0,0)" stroke-width="1" opacity="0.6862745098039216" d="M 348.5 638 L 349 640.5 L 348 640.5 L 348.5 638 Z " /><path fill="rgb(0,0,0)" stroke="rgb(0,0,0)" stroke-width="1" opacity="0.6862745098039216" d="M 341.5 641 Q 349.1 669.9 369.5 686 Q 382.4 697.1 401 702.5 L 398.5 703 L 380.5 695 L 363 682 L 351 666.5 L 344 652.5 L 341 643.5 L 341.5 641 Z " /><path fill="rgb(0,0,0)" stroke="rgb(0,0,0)" stroke-width="1" opacity="0.6862745098039216" d="M 349.5 642 Q 356.3 664.2 371.5 678 Q 384.4 690.1 404 695.5 L 401.5 696 Q 377.1 688.4 363 670.5 L 352 652.5 L 349 644.5 L 349.5 642 Z " /><path fill="rgb(0,0,0)" stroke="rgb(0,0,0)" stroke-width="1" opacity="0.6862745098039216" d="M 835.5 643 L 839 643.5 L 835.5 644 L 835.5 643 Z " /><path fill="rgb(0,0,0)" stroke="rgb(0,0,0)" stroke-width="1" opacity="0.6862745098039216" d="M 424.5 644 L 428 644.5 L 424.5 645 L 424.5 644 Z " /><path fill="rgb(0,0,0)" stroke="rgb(0,0,0)" stroke-width="1" opacity="0.6862745098039216" d="M 814.5 644 L 821 644.5 L 814 645.5 L 826 656.5 Q 834.6 665.9 840 678.5 L 844 689.5 L 845 696.5 L 844 696.5 Q 837.4 663.6 814.5 647 Q 812.3 647.8 813 645.5 L 814.5 644 Z " /><path fill="rgb(0,0,0)" stroke="rgb(0,0,0)" stroke-width="1" opacity="0.6862745098039216" d="M 827.5 644 L 834 644.5 L 827.5 645 L 827.5 644 Z " /><path fill="rgb(0,0,0)" stroke="rgb(0,0,0)" stroke-width="1" opacity="0.6862745098039216" d="M 414.5 645 L 423 645.5 L 414.5 646 L 414.5 645 Z " /><path fill="rgb(0,0,0)" stroke="rgb(0,0,0)" stroke-width="1" opacity="0.6862745098039216" d="M 573.5 645 L 574 654.5 L 573 654.5 L 573.5 645 Z " /><path fill="rgb(0,0,0)" stroke="rgb(0,0,0)" stroke-width="1" opacity="0.6862745098039216" d="M 422.5 652 L 427 652.5 L 422.5 653 L 422.5 652 Z " /><path fill="rgb(0,0,0)" stroke="rgb(0,0,0)" stroke-width="1" opacity="0.6862745098039216" d="M 574.5 660 L 575 669.5 L 574 669.5 L 574.5 660 Z " /><path fill="rgb(0,0,0)" stroke="rgb(0,0,0)" stroke-width="1" opacity="0.6862745098039216" d="M 575.5 675 L 576 696.5 L 575 696.5 L 575.5 675 Z " /><path fill="rgb(0,0,0)" stroke="rgb(0,0,0)" stroke-width="1" opacity="0.6862745098039216" d="M 754.5 681 L 764 681.5 L 754.5 682 L 754.5 681 Z " /><path fill="rgb(0,0,0)" stroke="rgb(0,0,0)" stroke-width="1" opacity="0.6862745098039216" d="M 748.5 682 L 752 682.5 Q 733.5 686 724 698.5 Q 716.3 706.8 713.5 720 L 713 717.5 Q 718.4 698.9 732.5 689 L 748.5 682 Z " /><path fill="rgb(0,0,0)" stroke="rgb(0,0,0)" stroke-width="1" opacity="0.6862745098039216" d="M 766.5 682 Q 784.1 684.9 793 696.5 Q 797.9 701.6 799 710.5 L 798 710.5 Q 795.2 696.3 784.5 690 Q 777.7 684.3 766.5 683 L 766.5 682 Z " /><path fill="rgb(0,0,0)" stroke="rgb(0,0,0)" stroke-width="1" opacity="0.6862745098039216" d="M 751.5 689 L 766 689.5 L 751.5 690 L 744.5 692 L 731 701.5 L 722.5 716 L 722 714.5 Q 726.4 702.9 735.5 696 Q 741.9 690.9 751.5 689 Z " /><path fill="rgb(0,0,0)" stroke="rgb(0,0,0)" stroke-width="1" opacity="0.6862745098039216" d="M 767.5 690 Q 782.6 692.4 789 703.5 L 793 713.5 L 792 713.5 Q 789.4 702.6 781.5 697 Q 776.5 692 767.5 691 L 767.5 690 Z " /><path fill="rgb(0,0,0)" stroke="rgb(0,0,0)" stroke-width="1" opacity="0.6862745098039216" d="M 405.5 696 L 409 696.5 L 405.5 697 L 405.5 696 Z " /><path fill="rgb(0,0,0)" stroke="rgb(0,0,0)" stroke-width="1" opacity="0.6862745098039216" d="M 439.5 696 L 444 696.5 L 439.5 697 L 439.5 696 Z " /><path fill="rgb(0,0,0)" stroke="rgb(0,0,0)" stroke-width="1" opacity="0.6862745098039216" d="M 410.5 697 L 416 697.5 L 410.5 698 L 410.5 697 Z " /><path fill="rgb(0,0,0)" stroke="rgb(0,0,0)" stroke-width="1" opacity="0.6862745098039216" d="M 431.5 697 L 438 697.5 L 431.5 698 L 431.5 697 Z " /><path fill="rgb(0,0,0)" stroke="rgb(0,0,0)" stroke-width="1" opacity="0.6862745098039216" d="M 837.5 697 L 838 701.5 L 837 701.5 L 837.5 697 Z " /><path fill="rgb(0,0,0)" stroke="rgb(0,0,0)" stroke-width="1" opacity="0.6862745098039216" d="M 845.5 698 L 846 703.5 L 845 703.5 L 845.5 698 Z " /><path fill="rgb(0,0,0)" stroke="rgb(0,0,0)" stroke-width="1" opacity="0.6862745098039216" d="M 465.5 700 L 469 700.5 L 465.5 701 L 465.5 700 Z " /><path fill="rgb(0,0,0)" stroke="rgb(0,0,0)" stroke-width="1" opacity="0.6862745098039216" d="M 470.5 701 Q 490.2 705.3 500 719.5 L 506 730.5 L 507 735.5 L 506 735.5 Q 502.4 720.1 491.5 712 Q 483.8 704.2 470.5 702 L 470.5 701 Z " /><path fill="rgb(0,0,0)" stroke="rgb(0,0,0)" stroke-width="1" opacity="0.6862745098039216" d="M 402.5 703 L 405 703.5 L 402.5 704 L 402.5 703 Z " /><path fill="rgb(0,0,0)" stroke="rgb(0,0,0)" stroke-width="1" opacity="0.6862745098039216" d="M 406.5 704 L 411 704.5 L 406.5 705 L 406.5 704 Z " /><path fill="rgb(0,0,0)" stroke="rgb(0,0,0)" stroke-width="1" opacity="0.6862745098039216" d="M 838.5 704 L 839 721.5 L 838 721.5 L 838.5 704 Z " /><path fill="rgb(0,0,0)" stroke="rgb(0,0,0)" stroke-width="1" opacity="0.6862745098039216" d="M 412.5 705 L 421 705.5 L 412.5 706 L 412.5 705 Z " /><path fill="rgb(0,0,0)" stroke="rgb(0,0,0)" stroke-width="1" opacity="0.6862745098039216" d="M 423.5 705 L 430 705 L 430 708 Q 420.2 711.8 414 720.5 Q 403.6 732.1 400.5 751 L 400 747.5 Q 405 726.5 418.5 714 L 429 706.5 L 423.5 706 L 423.5 705 Z " /><path fill="rgb(0,0,0)" stroke="rgb(0,0,0)" stroke-width="1" opacity="0.6862745098039216" d="M 574.5 705 L 575 714.5 L 574 714.5 L 574.5 705 Z " /><path fill="rgb(0,0,0)" stroke="rgb(0,0,0)" stroke-width="1" opacity="0.6862745098039216" d="M 449.5 707 L 465.5 707 L 470 708.5 L 466.5 709 L 465.5 708 L 449.5 708 L 449.5 707 Z " /><path fill="rgb(0,0,0)" stroke="rgb(0,0,0)" stroke-width="1" opacity="0.6862745098039216" d="M 846.5 707 L 847 718.5 L 846 718.5 L 846.5 707 Z " /><path fill="rgb(0,0,0)" stroke="rgb(0,0,0)" stroke-width="1" opacity="0.6862745098039216" d="M 444.5 708 L 448 708.5 Q 430.5 712 421 723.5 Q 411.6 733.6 408.5 750 L 408 746.5 Q 413.3 726.8 427.5 716 L 444.5 708 Z " /><path fill="rgb(0,0,0)" stroke="rgb(0,0,0)" stroke-width="1" opacity="0.6862745098039216" d="M 471.5 709 Q 485.4 712.6 493 722.5 Q 498.9 728.6 500 739.5 L 499 739.5 Q 496.3 723.3 484.5 716 L 471.5 710 L 471.5 709 Z " /><path fill="rgb(0,0,0)" stroke="rgb(0,0,0)" stroke-width="1" opacity="0.6862745098039216" d="M 566.5 710 L 567 718.5 L 566 718.5 L 566.5 710 Z " /><path fill="rgb(0,0,0)" stroke="rgb(0,0,0)" stroke-width="1" opacity="0.6862745098039216" d="M 799.5 712 L 800 724.5 Q 797.2 737.7 788.5 745 L 778.5 750 L 778.5 749 L 780 748.5 L 777.5 748 L 774 749.5 L 777 750.5 L 773.5 751 L 768.5 750 L 764.5 751 L 761 749.5 Q 780.7 750.7 788 739.5 L 792.5 729 L 793 731.5 Q 790.1 741.6 782 746.5 L 783.5 747 L 793 738.5 Q 800.6 729.6 799.5 712 Z " /><path fill="rgb(0,0,0)" stroke="rgb(0,0,0)" stroke-width="1" opacity="0.6862745098039216" d="M 793.5 715 L 794 727.5 L 793 727.5 L 793.5 715 Z " /><path fill="rgb(0,0,0)" stroke="rgb(0,0,0)" stroke-width="1" opacity="0.6862745098039216" d="M 721.5 717 L 722 719.5 L 720.5 724 L 720 720.5 L 721.5 717 Z " /><path fill="rgb(0,0,0)" stroke="rgb(0,0,0)" stroke-width="1" opacity="0.6862745098039216" d="M 573.5 718 L 574 723.5 L 573 723.5 L 573.5 718 Z " /><path fill="rgb(0,0,0)" stroke="rgb(0,0,0)" stroke-width="1" opacity="0.6862745098039216" d="M 565.5 721 L 566 726.5 L 565 726.5 L 565.5 721 Z " /><path fill="rgb(0,0,0)" stroke="rgb(0,0,0)" stroke-width="1" opacity="0.6862745098039216" d="M 712.5 721 L 713 724.5 L 712 724.5 L 712.5 721 Z " /><path fill="rgb(0,0,0)" stroke="rgb(0,0,0)" stroke-width="1" opacity="0.6862745098039216" d="M 845.5 722 L 846 726.5 L 845 726.5 L 845.5 722 Z " /><path fill="rgb(0,0,0)" stroke="rgb(0,0,0)" stroke-width="1" opacity="0.6862745098039216" d="M 837.5 724 L 838 728.5 Q 832.2 754.2 815.5 769 L 799.5 779 L 787.5 782 L 787.5 781 Q 810.9 775.9 823 759.5 Q 834.2 745.7 837.5 724 Z " /><path fill="rgb(0,0,0)" stroke="rgb(0,0,0)" stroke-width="1" opacity="0.6862745098039216" d="M 719.5 725 L 720 740.5 L 719 740.5 L 719.5 725 Z " /><path fill="rgb(0,0,0)" stroke="rgb(0,0,0)" stroke-width="1" opacity="0.6862745098039216" d="M 572.5 726 L 573 730.5 L 572 730.5 L 572.5 726 Z " /><path fill="rgb(0,0,0)" stroke="rgb(0,0,0)" stroke-width="1" opacity="0.6862745098039216" d="M 711.5 727 L 712 737.5 L 711 737.5 L 711.5 727 Z " /><path fill="rgb(0,0,0)" stroke="rgb(0,0,0)" stroke-width="1" opacity="0.6862745098039216" d="M 564.5 728 L 565 732.5 L 564 732.5 L 564.5 728 Z " /><path fill="rgb(0,0,0)" stroke="rgb(0,0,0)" stroke-width="1" opacity="0.6862745098039216" d="M 844.5 728 L 845 731.5 L 844 731.5 L 844.5 728 Z " /><path fill="rgb(0,0,0)" stroke="rgb(0,0,0)" stroke-width="1" opacity="0.6862745098039216" d="M 571.5 732 L 572 736.5 L 571 736.5 L 571.5 732 Z " /><path fill="rgb(0,0,0)" stroke="rgb(0,0,0)" stroke-width="1" opacity="0.6862745098039216" d="M 843.5 733 L 844 735.5 Q 836.5 761 818.5 776 L 799.5 787 L 785.5 790 L 785.5 789 Q 810.3 784.8 824 769.5 Q 837.7 755.2 843.5 733 Z " /><path fill="rgb(0,0,0)" stroke="rgb(0,0,0)" stroke-width="1" opacity="0.6862745098039216" d="M 563.5 734 L 564 737.5 L 563 737.5 L 563.5 734 Z " /><path fill="rgb(0,0,0)" stroke="rgb(0,0,0)" stroke-width="1" opacity="0.6862745098039216" d="M 605.5 735 L 611 735.5 L 605.5 736 L 605.5 735 Z " /><path fill="rgb(0,0,0)" stroke="rgb(0,0,0)" stroke-width="1" opacity="0.6862745098039216" d="M 620.5 735 L 624 735.5 L 620.5 736 L 620.5 735 Z " /><path fill="rgb(0,0,0)" stroke="rgb(0,0,0)" stroke-width="1" opacity="0.6862745098039216" d="M 601.5 736 L 604 736.5 L 601.5 737 L 601.5 736 Z " /><path fill="rgb(0,0,0)" stroke="rgb(0,0,0)" stroke-width="1" opacity="0.6862745098039216" d="M 625.5 736 L 628 736.5 L 625.5 737 L 625.5 736 Z " /><path fill="rgb(0,0,0)" stroke="rgb(0,0,0)" stroke-width="1" opacity="0.6862745098039216" d="M 507.5 737 L 508 740.5 L 507 740.5 L 507.5 737 Z " /><path fill="rgb(0,0,0)" stroke="rgb(0,0,0)" stroke-width="1" opacity="0.6862745098039216" d="M 597.5 737 L 600 737.5 Q 581.3 743.3 571 757.5 Q 564.1 765.6 561.5 778 L 561 775.5 Q 566.4 757.4 579.5 747 L 597.5 737 Z " /><path fill="rgb(0,0,0)" stroke="rgb(0,0,0)" stroke-width="1" opacity="0.6862745098039216" d="M 629.5 737 Q 644.4 741.1 652 752.5 Q 658.3 759.7 660 771.5 L 659 771.5 L 656 760.5 L 644.5 746 Q 638.7 740.3 629.5 738 L 629.5 737 Z " /><path fill="rgb(0,0,0)" stroke="rgb(0,0,0)" stroke-width="1" opacity="0.6862745098039216" d="M 570.5 738 L 571 741.5 L 567.5 753 L 567 750.5 L 570.5 738 Z " /><path fill="rgb(0,0,0)" stroke="rgb(0,0,0)" stroke-width="1" opacity="0.6862745098039216" d="M 562.5 739 L 563 742.5 Q 557.6 766.1 547 784.5 Q 539.4 798.9 527.5 809 Q 515.9 819.9 497.5 824 L 497.5 823 Q 524.1 816.1 538 796.5 Q 555.4 772.9 562.5 739 Z " /><path fill="rgb(0,0,0)" stroke="rgb(0,0,0)" stroke-width="1" opacity="0.6862745098039216" d="M 712.5 740 L 713 743.5 L 712 743.5 L 712.5 740 Z " /><path fill="rgb(0,0,0)" stroke="rgb(0,0,0)" stroke-width="1" opacity="0.6862745098039216" d="M 500.5 741 L 501 752.5 L 500 752.5 L 500.5 741 Z " /><path fill="rgb(0,0,0)" stroke="rgb(0,0,0)" stroke-width="1" opacity="0.6862745098039216" d="M 610.5 742 L 620 742.5 L 610.5 743 L 610.5 742 Z " /><path fill="rgb(0,0,0)" stroke="rgb(0,0,0)" stroke-width="1" opacity="0.6862745098039216" d="M 720.5 742 Q 724.7 762.3 739.5 772 L 758 780.5 L 755.5 781 Q 738.8 775.8 729 763.5 L 722 751.5 L 720 745.5 L 720.5 742 Z " /><path fill="rgb(0,0,0)" stroke="rgb(0,0,0)" stroke-width="1" opacity="0.6862745098039216" d="M 604.5 743 L 608 743.5 L 604.5 744 L 604.5 743 Z " /><path fill="rgb(0,0,0)" stroke="rgb(0,0,0)" stroke-width="1" opacity="0.6862745098039216" d="M 622.5 743 Q 637.3 745.7 645 755.5 Q 651.9 762.6 653 775.5 L 652 775.5 Q 649.9 757.6 637.5 750 Q 632.3 744.8 622.5 744 L 622.5 743 Z " /><path fill="rgb(0,0,0)" stroke="rgb(0,0,0)" stroke-width="1" opacity="0.6862745098039216" d="M 508.5 744 L 509 748.5 L 508 748.5 L 508.5 744 Z " /><path fill="rgb(0,0,0)" stroke="rgb(0,0,0)" stroke-width="1" opacity="0.6862745098039216" d="M 600.5 744 L 603 744.5 Q 586.8 748.8 578 760.5 L 569.5 777 L 569 774.5 Q 574.7 759.7 586.5 751 L 600.5 744 Z " /><path fill="rgb(0,0,0)" stroke="rgb(0,0,0)" stroke-width="1" opacity="0.6862745098039216" d="M 713.5 745 L 714 747.5 L 713 747.5 L 713.5 745 Z " /><path fill="rgb(0,0,0)" stroke="rgb(0,0,0)" stroke-width="1" opacity="0.6862745098039216" d="M 441.5 746 L 442 747.5 L 439.5 755 L 439 751.5 L 441.5 746 Z " /><path fill="rgb(0,0,0)" stroke="rgb(0,0,0)" stroke-width="1" opacity="0.6862745098039216" d="M 709.5 746 L 711 752.5 L 710 752.5 L 709.5 746 Z " /><path fill="rgb(0,0,0)" stroke="rgb(0,0,0)" stroke-width="1" opacity="0.6862745098039216" d="M 714.5 749 Q 719.7 765.3 731.5 775 Q 741 783.5 755 787.5 L 752.5 788 Q 733.2 781.3 722 766.5 Q 715.8 759.3 714.5 749 Z " /><path fill="rgb(0,0,0)" stroke="rgb(0,0,0)" stroke-width="1" opacity="0.6862745098039216" d="M 407.5 751 L 408 755.5 L 407 755.5 L 407.5 751 Z " /><path fill="rgb(0,0,0)" stroke="rgb(0,0,0)" stroke-width="1" opacity="0.6862745098039216" d="M 507.5 752 L 508 756.5 Q 504.3 771.3 494.5 780 Q 488.4 785.9 477.5 787 L 477.5 786 L 486.5 784 L 499 773.5 Q 505.7 765.2 507.5 752 Z " /><path fill="rgb(0,0,0)" stroke="rgb(0,0,0)" stroke-width="1" opacity="0.6862745098039216" d="M 399.5 753 L 400 759.5 L 399 759.5 L 399.5 753 Z " /><path fill="rgb(0,0,0)" stroke="rgb(0,0,0)" stroke-width="1" opacity="0.6862745098039216" d="M 499.5 754 L 500 756.5 L 499 756.5 L 499.5 754 Z " /><path fill="rgb(0,0,0)" stroke="rgb(0,0,0)" stroke-width="1" opacity="0.6862745098039216" d="M 566.5 754 L 567 756.5 Q 560.2 778.2 549 795.5 L 530.5 816 Q 518.3 826.3 500.5 831 L 500.5 830 Q 526.3 822.8 541 804.5 Q 558 783.5 566.5 754 Z " /><path fill="rgb(0,0,0)" stroke="rgb(0,0,0)" stroke-width="1" opacity="0.6862745098039216" d="M 711.5 754 L 712 757.5 L 711 757.5 L 711.5 754 Z " /><path fill="rgb(0,0,0)" stroke="rgb(0,0,0)" stroke-width="1" opacity="0.6862745098039216" d="M 440.5 757 L 441 761.5 L 439.5 765 L 439 761.5 L 440.5 757 Z " /><path fill="rgb(0,0,0)" stroke="rgb(0,0,0)" stroke-width="1" opacity="0.6862745098039216" d="M 704.5 757 L 705 761.5 L 704 761.5 L 704.5 757 Z " /><path fill="rgb(0,0,0)" stroke="rgb(0,0,0)" stroke-width="1" opacity="0.6862745098039216" d="M 498.5 758 L 499 760.5 Q 495.2 770.2 487.5 776 Q 483.2 780.2 475.5 781 L 475.5 780 Q 488.8 776.8 495 766.5 L 498.5 758 Z " /><path fill="rgb(0,0,0)" stroke="rgb(0,0,0)" stroke-width="1" opacity="0.6862745098039216" d="M 712.5 759 L 713 763.5 L 712 763.5 L 712.5 759 Z " /><path fill="rgb(0,0,0)" stroke="rgb(0,0,0)" stroke-width="1" opacity="0.6862745098039216" d="M 441.5 763 Q 444 771.5 450.5 776 Q 458.6 782.4 474 781.5 L 462.5 782 Q 449.4 779.6 443.5 770 L 443 771.5 L 451.5 781 L 465 786.5 L 462.5 787 Q 451.3 784.3 445 776.5 L 440 766.5 L 441 766.5 L 441.5 768 L 442 765.5 L 441.5 763 Z " /><path fill="rgb(0,0,0)" stroke="rgb(0,0,0)" stroke-width="1" opacity="0.6862745098039216" d="M 705.5 764 L 706 784.5 L 705 784.5 L 705.5 764 Z " /><path fill="rgb(0,0,0)" stroke="rgb(0,0,0)" stroke-width="1" opacity="0.6862745098039216" d="M 399.5 765 L 400 771.5 L 399 771.5 L 399.5 765 Z " /><path fill="rgb(0,0,0)" stroke="rgb(0,0,0)" stroke-width="1" opacity="0.6862745098039216" d="M 713.5 767 L 714 781.5 L 713 781.5 L 713.5 767 Z " /><path fill="rgb(0,0,0)" stroke="rgb(0,0,0)" stroke-width="1" opacity="0.6862745098039216" d="M 407.5 769 L 408 773.5 L 407 773.5 L 407.5 769 Z " /><path fill="rgb(0,0,0)" stroke="rgb(0,0,0)" stroke-width="1" opacity="0.6862745098039216" d="M 660.5 773 L 661 786.5 L 660 786.5 L 660.5 773 Z " /><path fill="rgb(0,0,0)" stroke="rgb(0,0,0)" stroke-width="1" opacity="0.6862745098039216" d="M 400.5 774 Q 406.3 802.7 426.5 817 Q 437.8 826.2 454 830.5 L 451.5 831 Q 428.8 823.7 415 807.5 Q 407.5 799 403 787.5 L 400 777.5 L 400.5 774 Z " /><path fill="rgb(0,0,0)" stroke="rgb(0,0,0)" stroke-width="1" opacity="0.6862745098039216" d="M 408.5 775 L 413 789.5 Q 419.4 801.6 429.5 810 Q 442 821 462 824.5 L 458.5 825 Q 444.8 821.7 434.5 815 L 423 806 L 411 787.5 L 408 778.5 L 408.5 775 Z " /><path fill="rgb(0,0,0)" stroke="rgb(0,0,0)" stroke-width="1" opacity="0.6862745098039216" d="M 568.5 778 L 569 780.5 L 568 780.5 L 568.5 778 Z " /><path fill="rgb(0,0,0)" stroke="rgb(0,0,0)" stroke-width="1" opacity="0.6862745098039216" d="M 560.5 779 L 561 782.5 L 560 782.5 L 560.5 779 Z " /><path fill="rgb(0,0,0)" stroke="rgb(0,0,0)" stroke-width="1" opacity="0.6862745098039216" d="M 759.5 781 L 762 781.5 L 759.5 782 L 759.5 781 Z " /><path fill="rgb(0,0,0)" stroke="rgb(0,0,0)" stroke-width="1" opacity="0.6862745098039216" d="M 567.5 782 L 568 799.5 L 567 799.5 L 567.5 782 Z " /><path fill="rgb(0,0,0)" stroke="rgb(0,0,0)" stroke-width="1" opacity="0.6862745098039216" d="M 763.5 782 L 769 782.5 L 763.5 783 L 763.5 782 Z " /><path fill="rgb(0,0,0)" stroke="rgb(0,0,0)" stroke-width="1" opacity="0.6862745098039216" d="M 780.5 782 L 786 782.5 L 780.5 783 L 780.5 782 Z " /><path fill="rgb(0,0,0)" stroke="rgb(0,0,0)" stroke-width="1" opacity="0.6862745098039216" d="M 652.5 784 L 653 787.5 Q 650 799.5 641.5 806 Q 637.2 810.2 629.5 811 L 629.5 810 Q 641.9 807.9 647 798.5 Q 651.4 792.9 652.5 784 Z " /><path fill="rgb(0,0,0)" stroke="rgb(0,0,0)" stroke-width="1" opacity="0.6862745098039216" d="M 559.5 785 L 560 796.5 L 559 796.5 L 559.5 785 Z " /><path fill="rgb(0,0,0)" stroke="rgb(0,0,0)" stroke-width="1" opacity="0.6862745098039216" d="M 712.5 785 L 713 789.5 L 712 789.5 L 712.5 785 Z " /><path fill="rgb(0,0,0)" stroke="rgb(0,0,0)" stroke-width="1" opacity="0.6862745098039216" d="M 467.5 787 L 476 787.5 L 467.5 788 L 467.5 787 Z " /><path fill="rgb(0,0,0)" stroke="rgb(0,0,0)" stroke-width="1" opacity="0.6862745098039216" d="M 704.5 787 L 705 791.5 Q 698.3 818.8 679.5 834 Q 668 844.5 650.5 849 L 650.5 848 Q 676 840.5 690 821.5 Q 701.3 808.3 704.5 787 Z " /><path fill="rgb(0,0,0)" stroke="rgb(0,0,0)" stroke-width="1" opacity="0.6862745098039216" d="M 659.5 788 L 660 791.5 Q 656.5 801 649.5 807 Q 644.7 812.2 636.5 814 L 636.5 813 Q 647.8 809.3 654 800.5 L 659 791.5 L 659.5 788 Z " /><path fill="rgb(0,0,0)" stroke="rgb(0,0,0)" stroke-width="1" opacity="0.6862745098039216" d="M 756.5 788 L 759 788.5 L 756.5 789 L 756.5 788 Z " /><path fill="rgb(0,0,0)" stroke="rgb(0,0,0)" stroke-width="1" opacity="0.6862745098039216" d="M 760.5 789 L 764 789.5 L 760.5 790 L 760.5 789 Z " /><path fill="rgb(0,0,0)" stroke="rgb(0,0,0)" stroke-width="1" opacity="0.6862745098039216" d="M 765.5 790 L 784 790.5 L 765.5 791 L 765.5 790 Z " /><path fill="rgb(0,0,0)" stroke="rgb(0,0,0)" stroke-width="1" opacity="0.6862745098039216" d="M 597.5 791 Q 600 800.5 606.5 806 L 616 810.5 L 613.5 811 L 609.5 809 L 610.5 811 L 619 814.5 L 616.5 815 Q 607.2 811.8 602 804.5 Q 597.5 799.2 597.5 791 Z " /><path fill="rgb(0,0,0)" stroke="rgb(0,0,0)" stroke-width="1" opacity="0.6862745098039216" d="M 711.5 791 L 712 794.5 Q 704 824.5 682.5 841 Q 670.5 851 653.5 856 L 653.5 855 Q 677.6 847.6 692 830.5 Q 702 819.5 708 804.5 L 711.5 791 Z " /><path fill="rgb(0,0,0)" stroke="rgb(0,0,0)" stroke-width="1" opacity="0.6862745098039216" d="M 560.5 799 L 561 803.5 L 560 803.5 L 560.5 799 Z " /><path fill="rgb(0,0,0)" stroke="rgb(0,0,0)" stroke-width="1" opacity="0.6862745098039216" d="M 568.5 801 L 569 804.5 L 568 804.5 L 568.5 801 Z " /><path fill="rgb(0,0,0)" stroke="rgb(0,0,0)" stroke-width="1" opacity="0.6862745098039216" d="M 561.5 805 Q 567.6 830.4 585.5 844 Q 598.1 855.4 619 858.5 L 614.5 859 Q 590 853 576 836.5 L 565 819.5 L 561 808.5 L 561.5 805 Z " /><path fill="rgb(0,0,0)" stroke="rgb(0,0,0)" stroke-width="1" opacity="0.6862745098039216" d="M 569.5 806 Q 574.6 825.9 588.5 837 Q 599.3 847.2 617 850.5 L 613.5 851 Q 591.2 844.8 579 828.5 L 571 814.5 L 569.5 806 Z " /><path fill="rgb(0,0,0)" stroke="rgb(0,0,0)" stroke-width="1" opacity="0.6862745098039216" d="M 617.5 811 L 628 811.5 L 617.5 812 L 617.5 811 Z " /><path fill="rgb(0,0,0)" stroke="rgb(0,0,0)" stroke-width="1" opacity="0.6862745098039216" d="M 632.5 814 L 635 814.5 L 632.5 815 L 632.5 814 Z " /><path fill="rgb(0,0,0)" stroke="rgb(0,0,0)" stroke-width="1" opacity="0.6862745098039216" d="M 620.5 815 L 631 815.5 L 620.5 816 L 620.5 815 Z " /><path fill="rgb(0,0,0)" stroke="rgb(0,0,0)" stroke-width="1" opacity="0.6862745098039216" d="M 492.5 824 L 496 824.5 L 492.5 825 L 492.5 824 Z " /><path fill="rgb(0,0,0)" stroke="rgb(0,0,0)" stroke-width="1" opacity="0.6862745098039216" d="M 463.5 825 L 468 825.5 L 463.5 826 L 463.5 825 Z " /><path fill="rgb(0,0,0)" stroke="rgb(0,0,0)" stroke-width="1" opacity="0.6862745098039216" d="M 486.5 825 L 491 825.5 L 486.5 826 L 486.5 825 Z " /><path fill="rgb(0,0,0)" stroke="rgb(0,0,0)" stroke-width="1" opacity="0.6862745098039216" d="M 471.5 826 L 483 826.5 L 471.5 827 L 471.5 826 Z " /><path fill="rgb(0,0,0)" stroke="rgb(0,0,0)" stroke-width="1" opacity="0.6862745098039216" d="M 455.5 831 L 458 831.5 L 455.5 832 L 455.5 831 Z " /><path fill="rgb(0,0,0)" stroke="rgb(0,0,0)" stroke-width="1" opacity="0.6862745098039216" d="M 496.5 831 L 499 831.5 L 496.5 832 L 496.5 831 Z " /><path fill="rgb(0,0,0)" stroke="rgb(0,0,0)" stroke-width="1" opacity="0.6862745098039216" d="M 459.5 832 L 463 832.5 L 459.5 833 L 459.5 832 Z " /><path fill="rgb(0,0,0)" stroke="rgb(0,0,0)" stroke-width="1" opacity="0.6862745098039216" d="M 491.5 832 L 495 832.5 L 491.5 833 L 491.5 832 Z " /><path fill="rgb(0,0,0)" stroke="rgb(0,0,0)" stroke-width="1" opacity="0.6862745098039216" d="M 465.5 833 L 471 833.5 L 465.5 834 L 465.5 833 Z " /><path fill="rgb(0,0,0)" stroke="rgb(0,0,0)" stroke-width="1" opacity="0.6862745098039216" d="M 483.5 833 L 490 833.5 L 483.5 834 L 483.5 833 Z " /><path fill="rgb(0,0,0)" stroke="rgb(0,0,0)" stroke-width="1" opacity="0.6862745098039216" d="M 646.5 849 L 649 849.5 L 646.5 850 L 646.5 849 Z " /><path fill="rgb(0,0,0)" stroke="rgb(0,0,0)" stroke-width="1" opacity="0.6862745098039216" d="M 641.5 850 L 645 850.5 L 641.5 851 L 641.5 850 Z " /><path fill="rgb(0,0,0)" stroke="rgb(0,0,0)" stroke-width="1" opacity="0.6862745098039216" d="M 618.5 851 L 626 851.5 L 618.5 852 L 618.5 851 Z " /><path fill="rgb(0,0,0)" stroke="rgb(0,0,0)" stroke-width="1" opacity="0.6862745098039216" d="M 632.5 851 L 640 851.5 L 632.5 852 L 632.5 851 Z " /><path fill="rgb(0,0,0)" stroke="rgb(0,0,0)" stroke-width="1" opacity="0.6862745098039216" d="M 649.5 856 L 652 856.5 L 645.5 858 L 645.5 857 L 649.5 856 Z " /><path fill="rgb(0,0,0)" stroke="rgb(0,0,0)" stroke-width="1" opacity="0.6862745098039216" d="M 639.5 858 L 644 858.5 L 639.5 859 L 639.5 858 Z " /><path fill="rgb(0,0,0)" stroke="rgb(0,0,0)" stroke-width="1" opacity="0.6862745098039216" d="M 621.5 859 L 637 859.5 L 621.5 860 L 621.5 859 Z " /></svg>