<svg width="1181" height="1181" version="1.1" xmlns="http://www.w3.org/2000/svg" desc="Created with imagetracer.js version 1.2.6" ><path fill="rgb(0,0,0)" stroke="rgb(0,0,0)" stroke-width="1" opacity="0.9019607843137255" d="M 793.5 439 L 808.5 439 L 827.5 444 Q 844.4 451.1 855 464.5 Q 863.6 474.9 868 489.5 L 870 499.5 L 870 518.5 Q 864 554 841.5 573 L 827.5 583 L 804 592.5 Q 832.9 599.6 849 619.5 Q 859.2 630.8 865 646.5 L 869 661.5 L 870 682.5 L 868 693.5 L 861 710.5 Q 854.6 722.1 844.5 730 Q 833.2 739.7 816.5 744 L 811.5 745 L 790.5 745 Q 767.1 739.9 755 723.5 L 745 703.5 L 744 698.5 L 744 679.5 Q 748 662.5 759.5 653 Q 767.2 646.2 778.5 643 L 796.5 642 Q 809.7 644.8 817 653.5 Q 827.1 662.9 826 683.5 Q 823.3 695.8 814.5 702 Q 810 705.5 802.5 706 L 802.5 705 Q 810.9 702.9 815 696.5 L 819 688.5 L 819 676.5 Q 816.4 667.6 810.5 662 Q 802.5 654 786.5 654 Q 770.1 657.1 762 668.5 L 756 682.5 L 756 695.5 Q 759.4 712.6 770.5 722 Q 777.7 728.8 788.5 732 L 793.5 733 L 808.5 733 Q 830.8 728.8 843 714.5 Q 856.4 700.9 858 675.5 L 857 674.5 L 857 664.5 L 853 649.5 Q 845 630 829.5 618 Q 820.2 610.3 807.5 606 L 793.5 603 L 775.5 603 L 744.5 609 L 708.5 623 L 681.5 637 L 644.5 660 L 599 685.5 Q 612.4 695 630.5 700 L 639.5 702 L 651.5 702 L 659.5 700 L 664.5 697 L 663.5 699 L 651.5 704 L 635.5 705 L 620.5 702 Q 604.5 697.5 591.5 690 L 588.5 690 Q 574.6 698.1 557.5 703 L 543.5 706 L 529.5 706 L 521.5 704 L 511 697.5 L 513.5 699 Q 522.5 705 539.5 703 Q 563.7 697.7 581 685.5 Q 536.2 661.8 494.5 635 L 453.5 615 L 417.5 604 L 405.5 603 L 404.5 602 L 382.5 602 Q 352.6 607.6 337 627.5 Q 327 639.5 322 656.5 L 320 667.5 L 320 681.5 Q 324.3 706.2 340.5 719 Q 350.2 727.2 364.5 731 L 383.5 732 Q 403.3 728.3 413 714.5 L 421 697.5 L 422 684.5 Q 419.7 683.3 421 678.5 L 417 669.5 L 408.5 660 Q 400.2 652.3 383.5 653 Q 369.9 655.9 363 665.5 Q 357.5 672 358 684.5 Q 360.4 695.6 368.5 701 L 376 704.5 L 372.5 705 Q 361.6 701.9 356 693.5 Q 349.5 685.5 352 668.5 Q 355.9 654.4 366.5 647 L 380.5 641 L 394.5 641 Q 415.9 645.1 426 660.5 Q 431.8 668.7 434 680.5 L 434 694.5 Q 430.1 717.6 415.5 730 Q 406.9 737.9 394.5 742 L 386.5 744 L 367.5 744 Q 337.1 738.4 322 717.5 Q 313.9 707.6 310 693.5 L 308 684.5 L 308 664.5 L 314 641.5 L 323 625.5 L 333 613 L 354.5 598 L 369 593 Q 370.3 590 366.5 591 Q 344.7 583.8 331 568.5 Q 319.6 556.4 313 539.5 L 308 517.5 L 308 503.5 L 312 485.5 Q 318.4 469.9 329.5 459 Q 339.6 449.6 353.5 444 L 371.5 440 L 383.5 440 L 401.5 445 L 419 457.5 Q 428.6 467.4 433 482.5 L 434 487.5 L 434 505.5 Q 429.7 525.2 415.5 535 Q 404.6 544.1 384.5 544 L 370.5 540 L 358 528.5 L 352 513.5 L 352 501.5 Q 354.9 488.9 364.5 483 L 377.5 479 L 377.5 480 Q 366.8 482.3 362 490.5 Q 357.2 496.7 359 509.5 Q 362.1 520.4 370.5 526 L 382.5 531 L 394.5 531 Q 407.3 528.3 414 519.5 Q 423.4 510.4 422 490.5 Q 418.5 471.5 405.5 462 L 393.5 455 L 376.5 452 L 375.5 453 L 367.5 453 L 354.5 457 Q 341.5 463 333 473.5 Q 326.5 481 323 491.5 L 321 499.5 L 320 512.5 L 321 513.5 L 321 521.5 L 323 530.5 L 330 546.5 Q 337.1 558.4 347.5 567 Q 358.8 576.7 375.5 581 L 386.5 582 L 387.5 583 L 397.5 583 L 398.5 582 L 408.5 582 L 428.5 578 L 466.5 564 L 497.5 548 Q 537.4 521.7 581 500 Q 582.1 497.3 579.5 498 L 565.5 490 L 550.5 484 L 536.5 481 L 528.5 481 L 519.5 483 L 512.5 487 L 513.5 485 L 527.5 479 L 547.5 479 Q 571.7 484.3 590.5 495 Q 603.5 487.5 619.5 483 L 632.5 480 L 650.5 480 Q 660.2 481.8 666 487.5 L 664.5 487 L 658.5 484 L 645.5 482 L 644.5 483 L 636.5 483 L 622.5 487 L 599 498 Q 597.9 500.7 600.5 500 Q 645.2 523.3 686.5 550 L 721.5 567 Q 740.9 575.6 764.5 580 Q 770 578.5 771.5 581 L 797.5 581 Q 826.6 574.6 842 554.5 Q 851.7 543.2 856 526.5 L 858 515.5 L 858 502.5 L 853 484.5 L 841 467 L 831.5 460 L 819.5 454 L 804.5 451 L 796.5 451 L 784.5 454 L 776.5 458 L 766 467.5 L 757 485.5 L 756 499.5 Q 758.8 516.2 770.5 524 L 784.5 530 L 795.5 530 Q 808.5 527 815 517.5 Q 820.3 511.3 820 499.5 Q 818 488.5 810.5 483 L 801 478.5 L 803.5 478 Q 815.3 480.2 821 488.5 L 826 499.5 L 826 514.5 Q 822.9 525.9 815.5 533 Q 809.4 539.4 799.5 542 L 781.5 542 Q 764.5 538 755 526.5 Q 748.2 518.8 745 507.5 L 744 502.5 L 744 487.5 Q 748.9 462.4 766.5 450 L 778.5 443 L 793.5 439 Z M 590 504 L 536 540 L 489 567 L 451 584 L 432 590 L 424 591 L 422 593 L 452 601 L 497 622 L 535 644 L 589 680 L 595 678 L 644 645 L 680 624 L 727 602 Q 743 596 762 593 L 761 591 L 748 589 L 721 580 L 685 563 L 642 538 L 598 508 L 590 504 Z " /><path fill="rgb(0,0,0)" stroke="rgb(0,0,0)" stroke-width="1" opacity="0.9019607843137255" d="M 584.5 565 Q 598.5 563.5 603 571.5 Q 607.5 576 606 586.5 Q 603.8 593.3 598.5 597 Q 594.2 600.7 584.5 599 L 575 592.5 Q 571 588 572 578.5 L 578.5 568 L 584.5 565 Z " /><path fill="rgb(0,0,0)" stroke="rgb(0,0,0)" stroke-width="1" opacity="0.9019607843137255" d="M 667.5 695 L 666.5 697 L 667.5 695 Z " /><path fill="rgb(0,0,0)" stroke="rgb(0,0,0)" stroke-width="1" opacity="0" d="M 0 0 L 1181 0 L 1181 1181 L 0 1181 L 0 0 Z M 794 439 L 779 443 L 767 450 Q 749 462 744 488 L 744 503 L 745 508 Q 748 519 755 527 Q 764 538 782 542 L 800 542 Q 809 539 816 533 Q 823 526 826 515 L 826 500 L 821 489 Q 816 482 808 479 L 804 480 L 811 483 Q 818 488 820 500 Q 820 511 815 518 Q 809 527 796 530 L 785 530 L 771 524 Q 759 516 756 500 L 757 486 L 766 468 L 777 458 L 785 454 L 797 451 L 805 451 L 820 454 L 832 460 L 841 467 L 853 485 L 858 503 L 858 516 L 856 527 Q 852 543 842 555 Q 827 575 798 581 L 772 581 Q 770 579 765 580 Q 741 576 722 567 L 687 550 Q 645 523 601 500 Q 598 501 599 498 L 623 487 L 637 483 L 645 483 L 646 482 L 659 484 L 662 486 L 663 486 Q 658 481 651 480 L 633 480 L 620 483 Q 604 488 591 495 Q 572 484 548 479 L 528 479 L 517 483 L 516 485 L 529 481 L 537 481 L 551 484 L 566 490 L 580 498 Q 582 497 581 500 Q 537 522 498 548 L 467 564 L 429 578 L 409 582 L 399 582 L 398 583 L 388 583 L 387 582 L 376 581 Q 359 577 348 567 Q 337 558 330 547 L 323 531 L 321 522 L 321 514 L 320 513 L 321 500 L 323 492 Q 327 481 333 474 Q 341 463 355 457 L 368 453 L 376 453 L 377 452 L 394 455 L 406 462 Q 418 472 422 491 Q 423 510 414 520 Q 407 528 395 531 L 383 531 L 371 526 Q 362 520 359 510 Q 357 497 362 491 Q 366 483 375 481 L 375 480 L 365 483 Q 355 489 352 502 L 352 514 L 358 529 L 371 540 L 385 544 Q 405 544 416 535 Q 430 525 434 506 L 434 488 L 433 483 Q 429 467 419 458 L 402 445 L 384 440 L 372 440 L 354 444 Q 340 450 330 459 Q 318 470 312 486 L 308 504 L 308 518 L 313 540 Q 320 556 331 569 Q 345 584 367 591 Q 370 590 369 593 L 355 598 L 333 613 L 323 626 L 314 642 L 308 665 L 308 685 L 310 694 Q 314 708 322 718 Q 337 738 368 744 L 387 744 L 395 742 Q 407 738 416 730 Q 430 718 434 695 L 434 681 Q 432 669 426 661 Q 416 645 395 641 L 381 641 L 367 647 Q 356 654 352 669 Q 350 685 356 694 Q 362 702 373 705 L 376 705 L 369 701 Q 360 696 358 685 Q 358 672 363 666 Q 370 656 384 653 Q 400 652 409 660 L 417 670 L 421 679 Q 420 683 422 685 L 421 698 L 413 715 Q 403 728 384 732 L 365 731 Q 350 727 341 719 Q 324 706 320 682 L 320 668 L 322 657 Q 327 639 337 628 Q 353 608 383 602 L 405 602 L 406 603 L 418 604 L 454 615 L 495 635 Q 536 662 581 686 Q 564 698 540 703 L 525 703 L 520 701 L 517 702 L 530 706 L 544 706 L 558 703 Q 575 698 589 690 L 592 690 Q 605 697 621 702 L 636 705 L 652 704 L 660 701 L 660 700 L 652 702 L 640 702 L 631 700 Q 612 695 599 686 L 645 660 L 682 637 L 709 623 L 745 609 L 776 603 L 794 603 L 808 606 Q 820 610 830 618 Q 845 630 853 650 L 857 665 L 857 675 L 858 676 Q 856 701 843 715 Q 831 729 809 733 L 794 733 L 789 732 Q 778 729 771 722 Q 759 713 756 696 L 756 683 L 762 669 Q 770 657 787 654 Q 803 654 811 662 Q 816 668 819 677 L 819 689 L 815 697 Q 811 703 803 705 L 803 706 Q 810 706 815 702 Q 823 696 826 684 Q 827 663 817 654 Q 810 645 797 642 L 779 643 Q 767 646 760 653 Q 748 662 744 680 L 744 699 L 745 704 L 755 724 Q 767 740 791 745 L 812 745 L 817 744 Q 833 740 845 730 Q 855 722 861 711 L 868 694 L 870 683 L 869 662 L 865 647 Q 859 631 849 620 Q 833 600 804 593 L 828 583 L 842 573 Q 864 554 870 519 L 870 500 L 868 490 Q 864 475 855 465 Q 844 451 828 444 L 809 439 L 794 439 Z M 802 478 L 802 479 L 804 479 L 802 478 Z M 376 479 L 376 480 L 378 480 L 376 479 Z " /><path fill="rgb(0,0,0)" stroke="rgb(0,0,0)" stroke-width="1" opacity="0" d="M 589.5 504 L 597.5 508 L 641.5 538 L 684.5 563 L 720.5 580 L 747.5 589 L 760.5 591 L 762 592.5 Q 742.7 595.7 726.5 602 L 679.5 624 L 643.5 645 L 594.5 678 L 588.5 680 L 534.5 644 L 496.5 622 L 451.5 601 L 422 592.5 L 423.5 591 L 431.5 590 L 450.5 584 L 488.5 567 L 535.5 540 L 589.5 504 Z M 585 565 L 579 568 L 572 579 Q 571 588 575 593 L 585 599 Q 594 601 599 597 Q 604 593 606 587 Q 608 576 603 572 Q 599 563 585 565 Z " /></svg>