<svg width="1181" height="1181" version="1.1" xmlns="http://www.w3.org/2000/svg" desc="Created with imagetracer.js version 1.2.6" ><path fill="rgb(0,0,0)" stroke="rgb(0,0,0)" stroke-width="1" opacity="0" d="M 0 0 L 1181 0 L 1181 1181 L 0 1181 L 0 0 Z M 559 325 L 553 329 Q 542 330 534 334 L 521 342 L 505 360 L 499 373 L 496 388 L 496 397 L 497 398 L 497 404 Q 486 393 471 387 L 456 383 L 447 383 L 446 382 L 430 383 L 421 385 Q 405 390 394 399 Q 375 412 370 439 L 370 460 L 371 465 Q 375 478 382 488 Q 393 503 416 508 L 433 508 L 441 506 Q 454 501 463 491 L 506 533 L 532 560 L 532 565 L 534 571 L 532 578 L 529 579 Q 522 580 519 577 L 478 544 L 446 524 L 418 512 L 388 506 L 371 506 L 354 509 Q 336 514 325 525 Q 304 542 298 575 L 298 595 L 300 604 Q 304 617 312 627 L 329 641 L 342 647 L 357 650 L 367 650 L 378 648 L 394 640 Q 405 631 411 618 Q 416 607 414 590 Q 412 588 415 587 L 526 587 L 534 591 L 535 594 L 519 601 L 478 613 L 419 634 L 392 647 L 376 658 Q 361 670 353 690 L 349 705 L 349 714 L 348 715 Q 349 750 367 769 Q 381 787 410 792 L 425 792 L 435 790 Q 449 786 459 777 Q 473 766 477 746 L 477 728 L 476 723 Q 473 711 466 704 L 457 696 L 545 605 L 557 611 L 557 624 L 520 662 L 495 697 L 485 718 L 479 742 L 479 767 L 481 778 Q 486 795 496 807 Q 509 822 529 830 L 543 834 L 559 835 L 563 838 Q 570 838 573 833 L 585 830 L 600 821 Q 618 807 623 780 L 622 758 Q 619 744 610 735 Q 601 725 589 720 L 581 718 L 568 718 L 566 717 L 566 621 L 575 608 L 579 605 L 597 624 L 598 667 L 599 668 L 601 690 L 605 708 Q 614 742 634 766 Q 651 787 685 793 L 703 793 L 714 791 Q 733 786 746 774 L 748 775 L 755 773 L 757 768 L 756 766 L 756 762 L 765 744 L 767 733 L 767 720 L 765 710 Q 762 697 755 689 Q 749 679 738 674 L 736 671 L 745 671 L 760 667 Q 772 663 781 655 Q 792 646 799 634 L 807 616 L 810 599 L 810 588 L 812 587 L 815 583 L 814 577 Q 812 573 808 573 Q 803 559 794 550 L 778 536 L 763 530 L 753 528 Q 741 527 734 530 L 733 529 L 736 527 Q 755 511 761 481 L 761 457 L 756 439 Q 750 423 738 413 L 740 410 L 739 404 L 734 400 L 727 403 L 712 397 L 701 395 L 689 395 L 678 397 Q 664 401 655 409 Q 644 417 639 431 L 638 431 L 639 417 L 640 416 L 639 395 L 636 382 Q 630 366 620 355 Q 608 341 591 334 L 578 330 L 567 329 L 559 325 Z " /><path fill="rgb(0,0,0)" stroke="rgb(0,0,0)" stroke-width="1" opacity="0" d="M 552.5 337 L 556.5 340 L 561.5 340 L 565.5 337 L 570.5 337 Q 600.6 342.4 616 362.5 Q 624.6 372.4 629 386.5 L 631 395.5 L 632 412.5 L 631 413.5 L 631 424.5 L 627 442.5 L 614 472.5 L 600 494.5 L 565.5 541 L 564 442 Q 575.2 438.3 582 429.5 L 590 413.5 L 591 397.5 Q 588.5 383 578.5 376 Q 572.4 370.2 562 370 L 559.5 341 L 559 350.5 L 558 351.5 L 558 366.5 L 557 369 L 547.5 371 L 537 378.5 L 533 387.5 L 534 387.5 L 541.5 378 L 550.5 374 L 557 374 L 557 384.5 L 556 385.5 L 556 436 Q 552.1 438.4 542.5 437 Q 521.9 433.1 512 418.5 L 506 406.5 L 504 389.5 L 508 371.5 Q 513.5 359.5 522.5 351 Q 533.6 340.1 552.5 337 Z M 533 388 L 532 391 L 533 391 L 533 388 Z " /><path fill="rgb(0,0,0)" stroke="rgb(0,0,0)" stroke-width="1" opacity="0" d="M 562 375 Q 570.6 377.1 576 383.5 L 582 394.5 L 583 407.5 Q 579.8 423.3 568.5 431 L 564 433 L 564 393.5 L 563 392.5 Q 564.1 381.4 562 375 Z " /><path fill="rgb(0,0,0)" stroke="rgb(0,0,0)" stroke-width="1" opacity="0" d="M 442.5 390 L 443.5 391 L 453.5 391 L 468.5 395 Q 486.9 402.6 498 417.5 Q 513.1 436.4 521 462.5 L 527 491.5 L 528 513.5 L 529 514.5 L 529 528.5 L 530 529.5 L 530 544.5 L 531 545.5 L 529.5 546 L 467 484.5 Q 472.5 475 472 459.5 Q 469.2 442.3 458.5 433 Q 450 423.5 429.5 426 L 413.5 434 L 397 419.5 L 398 410.5 L 396 408.5 L 400.5 404 L 416.5 395 L 431.5 391 L 441.5 391 L 442.5 390 Z " /><path fill="rgb(0,0,0)" stroke="rgb(0,0,0)" stroke-width="1" opacity="0" d="M 690.5 403 Q 713.9 402.6 726 413.5 L 701.5 435 L 698.5 433 L 687.5 432 L 683 433.5 Q 693.6 432.9 699 437.5 L 655.5 479 L 647 467.5 L 644 458.5 L 643 448.5 Q 645.7 446.8 644 440.5 L 647 431.5 L 656.5 418 L 673.5 407 L 690.5 403 Z M 681 434 L 681 435 L 683 435 L 681 434 Z " /><path fill="rgb(0,0,0)" stroke="rgb(0,0,0)" stroke-width="1" opacity="0" d="M 727.5 414 L 736 421.5 Q 746 432.5 751 448.5 L 753 457.5 L 753 478.5 Q 747.6 508.1 727.5 523 Q 707.1 539.6 678.5 548 L 666.5 551 L 645.5 553 L 644.5 554 L 630.5 554 L 629.5 555 L 592.5 557 L 631 517.5 L 656.5 491 L 666.5 496 L 682.5 498 L 692.5 496 L 701.5 492 L 713 481.5 L 718 469.5 L 718 456.5 Q 715.4 445.6 708.5 439 Q 706.3 439.8 707 437.5 L 727.5 414 Z " /><path fill="rgb(0,0,0)" stroke="rgb(0,0,0)" stroke-width="1" opacity="0" d="M 386.5 420 L 393.5 421 L 394.5 420 L 399 424.5 L 411 438.5 Q 404.8 444.8 407 459.5 L 408.5 463 L 409 458.5 L 408 454.5 L 410 446.5 L 413.5 442 L 416 443.5 Q 431 463 449.5 479 L 456 484.5 L 449.5 492 Q 442.2 497.7 431.5 500 L 416.5 500 Q 399.2 496.3 390 484.5 Q 382.6 475.9 379 463.5 L 378 458.5 L 378 439.5 L 382 426.5 L 386.5 420 Z " /><path fill="rgb(0,0,0)" stroke="rgb(0,0,0)" stroke-width="1" opacity="0" d="M 430.5 432 Q 449.6 431.9 457 443.5 L 463 455.5 L 464 466.5 L 460.5 478 L 418 437.5 Q 422.8 433.3 430.5 432 Z " /><path fill="rgb(0,0,0)" stroke="rgb(0,0,0)" stroke-width="1" opacity="0" d="M 520.5 437 L 535.5 444 L 554.5 445 L 556 444.5 L 557 551.5 L 542.5 558 L 537 552.5 L 537 511.5 L 536 510.5 L 536 497.5 L 535 496.5 L 533 477.5 L 528 457.5 L 520 439.5 L 520.5 437 Z " /><path fill="rgb(0,0,0)" stroke="rgb(0,0,0)" stroke-width="1" opacity="0" d="M 704.5 441 Q 711.8 447.8 712 461.5 L 710 469.5 L 702.5 481 L 693.5 487 L 678.5 490 L 668.5 488 L 663 484.5 L 704.5 441 Z " /><path fill="rgb(0,0,0)" stroke="rgb(0,0,0)" stroke-width="1" opacity="0" d="M 634 445 L 636 445.5 Q 633.5 447 635 452.5 L 639 469.5 Q 642.7 479.3 650 485.5 L 579.5 558 L 565 551.5 L 601 507.5 L 614 488.5 L 629 460.5 L 634 445 Z " /><path fill="rgb(0,0,0)" stroke="rgb(0,0,0)" stroke-width="1" opacity="0" d="M 371.5 514 L 385.5 514 L 386.5 515 L 394.5 515 L 405.5 517 L 435.5 528 L 461.5 543 L 497.5 569 L 511 577 L 510.5 579 L 410 579 Q 406.2 569.2 397.5 563 L 383.5 556 L 365.5 555 Q 351.9 557.9 345 567.5 L 337.5 583 Q 327.9 581.4 323 584.5 L 336.5 585 L 339 586 Q 338.2 601.1 346.5 608 Q 350.9 613.1 359.5 614 L 359.5 613 Q 351.2 611.8 348 605.5 L 344 598.5 L 343 588.5 L 344 586 L 353.5 586 L 354.5 587 L 371.5 587 L 372.5 588 L 405 588 L 406 590.5 L 406 605.5 Q 402.5 622 391.5 631 Q 380.5 642 358.5 642 Q 356.8 639.3 350.5 641 L 338.5 637 L 321 624.5 Q 308.5 613.2 307 592 Q 310.8 592.8 312 589.5 L 313 582.5 L 310.5 579 L 306 576.5 Q 311.5 545 332.5 529 L 349.5 519 L 358.5 516 L 370.5 515 L 371.5 514 Z " /><path fill="rgb(0,0,0)" stroke="rgb(0,0,0)" stroke-width="1" opacity="0" d="M 741.5 536 L 757.5 537 L 769.5 541 Q 781.8 547.2 790 557.5 Q 798 566.5 800 580 L 766 578 L 765 574.5 L 757.5 567 L 748.5 564 L 748.5 565 L 758 570.5 L 762 578 L 755.5 577 L 701 576.5 L 703 566.5 L 706 559.5 L 718.5 545 L 731.5 538 L 741.5 536 Z " /><path fill="rgb(0,0,0)" stroke="rgb(0,0,0)" stroke-width="1" opacity="0" d="M 702.5 547 Q 704.8 546.3 704 548.5 L 697 559.5 L 693 577 L 658.5 577 L 657.5 578 L 590 578 Q 589.3 569.8 585 564.5 L 586.5 563 Q 591.3 564.3 592.5 562 L 646.5 562 L 647.5 561 L 655.5 561 L 683.5 555 L 702.5 547 Z " /><path fill="rgb(0,0,0)" stroke="rgb(0,0,0)" stroke-width="1" opacity="0" d="M 367.5 563 Q 389.2 562.3 398 574.5 L 401 578.5 L 395.5 580 L 365.5 580 L 364.5 581 L 351.5 581 L 345 582 L 351 571 L 358.5 566 L 367.5 563 Z " /><path fill="rgb(0,0,0)" stroke="rgb(0,0,0)" stroke-width="1" opacity="0" d="M 792.5 581 L 799.5 581 L 800 582.5 L 802 589.5 L 802 596.5 L 801 597.5 L 801 605.5 L 797 619.5 Q 790.7 634.7 779.5 645 Q 770.2 653.7 757.5 659 L 743.5 663 L 725.5 664 L 724.5 663 L 715.5 663 L 701.5 660 L 674.5 648 L 654.5 634 L 603.5 588 L 602 588 L 602.5 586 L 668.5 586 L 669.5 585 L 692.5 585 L 699 602.5 L 706.5 612 Q 713.7 618.8 724.5 622 L 741.5 623 Q 756.1 620.1 763 609.5 Q 770.9 600.6 769 583 L 791.5 582 L 792.5 581 Z " /><path fill="rgb(0,0,0)" stroke="rgb(0,0,0)" stroke-width="1" opacity="0" d="M 751.5 584 L 764 584 L 764 592.5 Q 761.4 603.4 753.5 609 Q 746.1 615.6 731.5 615 Q 715.9 612.1 708 601.5 Q 702.2 595.4 702 585 L 750.5 585 L 751.5 584 Z " /><path fill="rgb(0,0,0)" stroke="rgb(0,0,0)" stroke-width="1" opacity="0" d="M 594.5 587 L 615 606.5 L 640.5 633 L 670.5 655 L 688.5 664 L 700 667 Q 701.3 670 697.5 669 Q 681.6 674.1 672.5 686 L 602 616.5 L 598 596.5 L 594 588.5 L 594.5 587 Z " /><path fill="rgb(0,0,0)" stroke="rgb(0,0,0)" stroke-width="1" opacity="0" d="M 589 588 Q 591.7 586.9 591 589.5 L 593 593.5 L 596 609.5 L 592.5 607 L 584 599.5 L 589 588 Z " /><path fill="rgb(0,0,0)" stroke="rgb(0,0,0)" stroke-width="1" opacity="0" d="M 535.5 598 Q 539.3 596.8 538 600.5 L 448.5 691 L 441.5 688 L 428.5 687 L 416.5 690 L 402 699 L 394 711.5 L 393 722.5 L 392 723.5 L 395 736.5 L 400 743.5 L 400 745.5 L 395 751.5 L 399.5 748 L 402.5 747 L 414.5 754 L 427.5 754 L 434 750.5 L 432.5 750 Q 428.5 753.5 419.5 752 Q 410.4 750.1 406 743.5 L 408.5 740 Q 431.1 722.1 450.5 701 L 461 710.5 Q 466.7 717.8 469 728.5 L 469 744.5 Q 464.3 763.3 450.5 773 Q 436.9 784.9 410.5 784 L 395.5 780 L 384 772.5 L 385 766.5 L 381.5 762 L 376.5 761 L 373.5 763 Q 364.5 754 360 740.5 L 357 728.5 L 357 706.5 Q 362.9 676.9 383.5 662 Q 400.1 650.1 420.5 642 L 494.5 616 L 535.5 598 Z " /><path fill="rgb(0,0,0)" stroke="rgb(0,0,0)" stroke-width="1" opacity="0" d="M 566.5 609 Q 569.8 607.9 569 610.5 L 566 612.5 L 565 610.5 L 566.5 609 Z " /><path fill="rgb(0,0,0)" stroke="rgb(0,0,0)" stroke-width="1" opacity="0" d="M 603.5 630 L 668 693.5 L 665 703.5 L 665 719.5 Q 668.4 734.6 678.5 743 Q 686.4 751.1 703.5 750 L 711.5 748 L 720.5 742 L 738.5 757 L 737 754.5 L 724 738.5 Q 731 732.5 730 718.5 L 728.5 714 Q 729.2 729.2 721.5 736 L 701.5 714 L 679 692.5 L 687.5 683 L 702.5 676 L 716.5 675 L 728.5 678 L 736.5 682 L 747 691.5 L 757 710.5 L 759 721.5 L 759 731.5 L 755 747.5 L 748 760 L 743 763.5 L 736.5 771 Q 727.7 778.2 715.5 782 L 701.5 785 L 686.5 785 L 675.5 783 L 664.5 779 Q 651.9 773.1 643 763.5 Q 623.6 741.4 614 709.5 L 608 681.5 L 604 632.5 L 603.5 630 Z " /><path fill="rgb(0,0,0)" stroke="rgb(0,0,0)" stroke-width="1" opacity="0" d="M 556.5 632 L 558 632.5 L 558 720 Q 545.9 722.1 539 730.5 Q 532.4 737.4 529 747.5 Q 526.4 755.4 528 767.5 Q 530.6 780.4 539.5 787 Q 547.4 794 561 794 L 562 817.5 L 563.5 820 L 565 794.5 L 566.5 793 Q 578.2 791.7 583 783.5 Q 586.7 779.7 587 772.5 L 586 772.5 Q 584.1 782.1 576.5 786 L 565 789 L 566 786.5 L 566 769.5 L 567 768.5 L 567 740.5 L 566 739.5 L 566 726 Q 578.4 724.4 586.5 728 Q 598.7 732.8 606 742.5 Q 616.4 754.1 615 777.5 Q 610.5 803.5 592.5 816 L 577.5 824 L 568.5 825 Q 567.3 821.8 561.5 823 L 556.5 827 L 551.5 827 L 550.5 826 L 539.5 825 L 520.5 817 L 501 799.5 Q 491.6 788.4 488 771.5 Q 489.3 766.8 487 765.5 L 487 742.5 Q 492.3 712.8 507 692.5 Q 529.8 660.3 556.5 632 Z M 588 768 L 587 772 L 588 772 L 588 768 Z " /><path fill="rgb(0,0,0)" stroke="rgb(0,0,0)" stroke-width="1" opacity="0" d="M 430.5 695 L 440.5 696 L 442 697.5 L 404.5 740 Q 402.3 740.8 403 738.5 Q 397.8 732.7 400 719.5 Q 403 708 411.5 702 L 418.5 698 L 430.5 695 Z " /><path fill="rgb(0,0,0)" stroke="rgb(0,0,0)" stroke-width="1" opacity="0" d="M 675.5 700 L 716 738.5 Q 716.8 740.8 714.5 740 Q 709 745 696.5 743 Q 684.8 740.2 679 731.5 L 673 718.5 L 673 704.5 L 675.5 700 Z " /><path fill="rgb(0,0,0)" stroke="rgb(0,0,0)" stroke-width="1" opacity="0" d="M 556.5 728 L 558 728.5 L 558 750.5 L 559 751.5 L 559 777.5 L 560 778.5 L 560 789 Q 547.4 787 541 777.5 L 536 766.5 L 536 753.5 Q 538.9 739.9 548.5 733 L 556.5 728 Z " /><path fill="rgb(0,0,0)" stroke="rgb(0,0,0)" stroke-width="1" opacity="0.9411764705882353" d="M 558.5 325 L 566.5 329 L 577.5 330 L 590.5 334 Q 608.3 341.2 620 354.5 Q 630.4 365.6 636 381.5 L 639 394.5 L 640 415.5 L 639 416.5 L 638 430.5 L 639 430.5 Q 644 417 654.5 409 Q 664 401 677.5 397 L 688.5 395 L 700.5 395 L 711.5 397 L 726.5 403 L 733.5 400 L 739 403.5 L 740 409.5 L 738 412.5 Q 749.8 422.7 756 438.5 L 761 456.5 L 761 480.5 Q 755 510.5 735.5 527 L 733 528.5 L 733.5 530 Q 740.7 526.7 752.5 528 L 762.5 530 L 777.5 536 L 794 549.5 Q 802.8 559.2 807.5 573 Q 812.3 573.3 814 576.5 L 815 582.5 L 811.5 587 L 810 587.5 L 810 598.5 L 807 615.5 L 799 633.5 Q 791.5 646 780.5 655 Q 771.5 662.5 759.5 667 L 744.5 671 L 736 671 L 737.5 674 Q 748.9 678.6 755 688.5 Q 761.7 697.3 765 709.5 L 767 719.5 L 767 732.5 L 765 743.5 L 756 761.5 L 756 765.5 L 757 767.5 L 755 773 L 747.5 775 L 745.5 774 Q 732.8 785.8 713.5 791 L 702.5 793 L 684.5 793 Q 651 787.5 634 765.5 Q 614.2 741.8 605 707.5 L 601 689.5 L 599 667.5 L 598 666.5 L 597 623.5 L 578.5 605 L 575 607.5 L 566 620.5 L 566 716.5 L 567.5 718 L 580.5 718 L 588.5 720 Q 601.4 725.1 610 734.5 Q 618.5 743.5 622 757.5 L 623 779.5 Q 617.8 806.8 599.5 821 L 584.5 830 L 572.5 833 Q 569.6 837.6 562.5 838 L 558.5 835 L 542.5 834 L 528.5 830 Q 508.8 821.8 496 806.5 Q 486 794.5 481 777.5 L 479 766.5 L 479 741.5 L 485 717.5 L 495 696.5 L 520 661.5 L 557 623.5 L 557 610.5 L 544.5 605 L 457 695.5 L 466 703.5 Q 472.7 711.3 476 722.5 L 477 727.5 L 477 745.5 Q 472.8 766.2 458.5 777 Q 448.6 785.6 434.5 790 L 424.5 792 L 409.5 792 Q 381.3 787.2 367 768.5 Q 349.2 749.8 348 714.5 L 349 713.5 L 349 704.5 L 353 689.5 Q 360.9 670.4 375.5 658 L 391.5 647 L 418.5 634 L 477.5 613 L 518.5 601 L 535 593.5 L 534 591 L 525.5 587 L 414.5 587 Q 411.8 588.3 414 589.5 Q 416.1 607.1 411 617.5 Q 404.9 631.4 393.5 640 L 377.5 648 L 366.5 650 L 356.5 650 L 341.5 647 L 328.5 641 L 312 626.5 Q 304 617 300 603.5 L 298 594.5 L 298 574.5 Q 303.9 542.4 324.5 525 Q 336.4 514.4 353.5 509 L 370.5 506 L 387.5 506 L 417.5 512 L 445.5 524 L 477.5 544 L 518.5 577 Q 521.5 580 528.5 579 L 532 578 L 534 570.5 L 532 564.5 L 532 559.5 L 505.5 533 L 462.5 491 Q 454.1 501.1 440.5 506 L 432.5 508 L 415.5 508 Q 393 503.5 382 487.5 Q 374.6 477.9 371 464.5 L 370 459.5 L 370 438.5 Q 375.5 412.5 393.5 399 Q 404.8 389.8 420.5 385 L 429.5 383 L 445.5 382 L 446.5 383 L 455.5 383 L 470.5 387 Q 485.8 393.2 496.5 404 L 497 397.5 L 496 396.5 L 496 387.5 L 499 372.5 L 505 359.5 L 520.5 342 L 533.5 334 Q 541.6 330.1 552.5 329 L 558.5 325 Z M 553 337 Q 534 340 523 351 Q 513 359 508 372 L 504 390 L 506 407 L 512 419 Q 522 433 543 437 Q 552 438 556 436 L 556 386 L 557 385 L 557 374 L 551 374 L 542 378 Q 535 382 533 391 L 532 391 Q 533 383 537 379 L 548 371 L 557 369 L 558 367 L 558 352 L 559 351 L 560 341 L 562 370 Q 572 370 579 376 Q 589 383 591 398 L 590 414 L 582 430 Q 575 438 564 442 L 566 541 L 600 495 L 614 473 L 627 443 L 631 425 L 631 414 L 632 413 L 631 396 L 629 387 Q 625 372 616 363 Q 601 342 571 337 L 566 337 L 562 340 L 557 340 L 553 337 Z M 562 375 Q 564 381 563 393 L 564 394 L 564 433 L 569 431 Q 580 423 583 408 L 582 395 L 576 384 Q 571 377 562 375 Z M 443 390 L 442 391 L 432 391 L 417 395 L 401 404 L 396 409 L 398 411 L 397 420 L 414 434 L 430 426 Q 450 424 459 433 Q 469 442 472 460 Q 473 475 467 485 L 530 546 L 531 546 L 530 545 L 530 530 L 529 529 L 529 515 L 528 514 L 527 492 L 521 463 Q 513 436 498 418 Q 487 403 469 395 L 454 391 L 444 391 L 443 390 Z M 691 403 L 674 407 L 657 418 L 647 432 L 644 441 Q 646 447 643 449 L 644 459 L 647 468 L 656 479 L 699 438 L 692 434 Q 683 433 680 436 L 678 436 L 688 432 L 699 433 L 702 435 L 726 414 Q 714 403 691 403 Z M 728 414 L 707 438 Q 706 440 709 439 Q 715 446 718 457 L 718 470 L 713 482 L 702 492 L 693 496 L 683 498 L 667 496 L 657 491 L 631 518 L 593 557 L 630 555 L 631 554 L 645 554 L 646 553 L 667 551 L 679 548 Q 707 540 728 523 Q 748 508 753 479 L 753 458 L 751 449 Q 746 433 736 422 L 728 414 Z M 387 420 L 382 427 L 378 440 L 378 459 L 379 464 Q 383 476 390 485 Q 399 496 417 500 L 432 500 Q 442 498 450 492 L 456 485 L 450 479 Q 431 463 416 444 L 414 442 L 410 447 L 408 455 L 410 464 L 410 465 L 407 460 Q 405 445 411 439 L 399 425 L 395 420 L 394 421 L 387 420 Z M 431 432 Q 423 433 418 438 L 461 478 L 464 467 L 463 456 L 457 444 Q 450 432 431 432 Z M 521 437 L 520 440 L 528 458 L 533 478 L 535 497 L 536 498 L 536 511 L 537 512 L 537 553 L 543 558 L 557 552 L 556 445 L 555 445 L 536 444 L 521 437 Z M 705 441 L 663 485 L 669 488 L 679 490 L 694 487 L 703 481 L 710 470 L 712 462 Q 712 448 705 441 Z M 634 445 L 629 461 L 614 489 L 601 508 L 565 552 L 580 558 L 650 486 Q 643 479 639 470 L 635 453 Q 634 447 636 446 L 634 445 Z M 372 514 L 371 515 L 359 516 L 350 519 L 333 529 Q 311 545 306 577 L 311 579 L 313 583 L 312 590 Q 311 593 307 592 Q 308 613 321 625 L 339 637 L 351 641 Q 357 639 359 642 Q 381 642 392 631 Q 403 622 406 606 L 406 591 L 405 588 L 373 588 L 372 587 L 355 587 L 354 586 L 344 586 L 343 589 L 344 599 L 348 606 Q 351 612 360 613 L 360 614 Q 351 613 347 608 Q 338 601 339 586 L 337 585 L 323 585 Q 328 581 338 583 L 345 568 Q 352 558 366 555 L 384 556 L 398 563 Q 406 569 410 579 L 511 579 L 511 577 L 498 569 L 462 543 L 436 528 L 406 517 L 395 515 L 387 515 L 386 514 L 372 514 Z M 742 536 L 732 538 L 719 545 L 706 560 L 703 567 L 701 577 L 756 577 L 762 578 L 758 571 L 749 565 L 749 564 L 758 567 L 765 575 L 766 578 L 800 580 Q 798 567 790 558 Q 782 547 770 541 L 758 537 L 742 536 Z M 703 547 L 684 555 L 656 561 L 648 561 L 647 562 L 593 562 Q 591 564 587 563 L 585 565 Q 589 570 590 578 L 658 578 L 659 577 L 693 577 L 697 560 L 704 549 Q 705 546 703 547 Z M 368 563 L 359 566 L 351 571 L 345 582 L 352 581 L 365 581 L 366 580 L 396 580 L 401 579 L 398 575 Q 389 562 368 563 Z M 793 581 L 792 582 L 769 583 Q 771 601 763 610 Q 756 620 742 623 L 725 622 Q 714 619 707 612 L 699 603 L 693 585 L 670 585 L 669 586 L 603 586 L 602 588 L 604 588 L 655 634 L 675 648 L 702 660 L 716 663 L 725 663 L 726 664 L 744 663 L 758 659 Q 770 654 780 645 Q 791 635 797 620 L 801 606 L 801 598 L 802 597 L 802 590 L 800 583 L 800 581 L 793 581 Z M 752 584 L 751 585 L 702 585 Q 702 595 708 602 Q 716 612 732 615 Q 746 616 754 609 Q 761 603 764 593 L 764 584 L 752 584 Z M 595 587 L 594 589 L 598 597 L 602 617 L 673 686 Q 682 674 698 669 Q 701 670 700 667 L 689 664 L 671 655 L 641 633 L 615 607 L 595 587 Z M 589 588 L 584 600 L 593 607 L 596 610 L 593 594 L 591 590 Q 592 587 589 588 Z M 536 598 L 495 616 L 421 642 Q 400 650 384 662 Q 363 677 357 707 L 357 729 L 360 741 Q 364 754 374 763 L 377 761 L 382 762 L 385 767 L 384 773 L 396 780 L 411 784 Q 437 785 451 773 Q 464 763 469 745 L 469 729 Q 467 718 461 711 L 451 701 Q 431 722 409 740 L 406 744 Q 410 750 420 752 Q 429 753 433 750 L 434 751 L 428 754 L 415 754 L 403 747 L 400 748 L 392 755 L 400 746 L 400 744 L 395 737 L 392 724 L 393 723 L 394 712 L 402 699 L 417 690 L 429 687 L 442 688 L 449 691 L 538 601 Q 539 597 536 598 Z M 567 609 L 565 611 L 566 613 L 569 611 Q 570 608 567 609 Z M 604 630 L 604 633 L 608 682 L 614 710 Q 624 741 643 764 Q 652 773 665 779 L 676 783 L 687 785 L 702 785 L 716 782 Q 728 778 737 771 L 743 764 L 748 760 L 755 748 L 759 732 L 759 722 L 757 711 L 747 692 L 737 682 L 729 678 L 717 675 L 703 676 L 688 683 L 679 693 L 702 714 L 722 736 Q 726 731 728 724 L 728 715 L 727 714 L 728 712 L 730 719 Q 731 733 724 739 L 737 755 L 742 760 L 721 742 L 712 748 L 704 750 Q 686 751 679 743 Q 668 735 665 720 L 665 704 L 668 694 L 604 630 Z M 557 632 Q 530 660 507 693 Q 492 713 487 743 L 487 766 Q 489 767 488 772 Q 492 788 501 800 L 521 817 L 540 825 L 551 826 L 552 827 L 557 827 L 562 823 Q 567 822 569 825 L 578 824 L 593 816 Q 610 803 615 778 Q 616 754 606 743 Q 599 733 587 728 Q 578 724 566 726 L 566 740 L 567 741 L 567 769 L 566 770 L 566 787 L 565 789 L 577 786 Q 586 781 587 769 L 588 769 Q 588 778 583 784 Q 578 792 567 793 L 565 795 L 564 820 L 562 818 L 561 794 Q 547 794 540 787 Q 531 780 528 768 Q 526 755 529 748 Q 532 737 539 731 Q 546 722 558 720 L 558 633 L 557 632 Z M 431 695 L 419 698 L 412 702 Q 403 708 400 720 Q 398 733 403 739 Q 402 741 405 740 L 442 698 L 441 696 L 431 695 Z M 676 700 L 673 705 L 673 719 L 679 732 Q 685 740 697 743 Q 709 745 715 740 Q 717 741 716 739 L 676 700 Z M 557 728 L 549 733 Q 539 740 536 754 L 536 767 L 541 778 Q 547 787 560 789 L 560 779 L 559 778 L 559 752 L 558 751 L 558 729 L 557 728 Z " /><path fill="rgb(0,0,0)" stroke="rgb(0,0,0)" stroke-width="1" opacity="0.9411764705882353" d="M 436.5 748 L 435.5 750 L 436.5 748 Z " /></svg>