<svg width="1181" height="1181" version="1.1" xmlns="http://www.w3.org/2000/svg" desc="Created with imagetracer.js version 1.2.6" ><path fill="rgb(0,0,0)" stroke="rgb(0,0,0)" stroke-width="1" opacity="0.8745098039215686" d="M 585.5 305 L 595.5 305 L 601 309.5 Q 604.3 312.7 604 319.5 L 601 327 L 599 327 Q 600.1 329.7 597.5 329 Q 594.3 332.8 585.5 331 L 578 324.5 Q 575.7 321.3 577 314.5 Q 578.4 308.4 583.5 306 L 585.5 305 Z " /><path fill="rgb(0,0,0)" stroke="rgb(0,0,0)" stroke-width="1" opacity="0.8745098039215686" d="M 585.5 382 L 586 384.5 L 578 400.5 L 578 403.5 L 576 405.5 L 572 417.5 L 551 454.5 L 549 462 L 630.5 462 L 631 460.5 L 606 414.5 L 593 382.5 L 597 385.5 L 599 390 Q 601.7 388.9 601 391.5 L 614 407.5 L 647 464 L 687.5 454 L 691.5 454 L 695.5 452 L 700.5 452 L 703.5 450 Q 709.8 450.8 712.5 448 L 724.5 448 L 728.5 446 L 740.5 446 L 741.5 445 L 742 447 L 728.5 452 L 725.5 452 L 723.5 454 L 720.5 454 L 718.5 456 L 715.5 456 L 703.5 462 L 699.5 462 L 683.5 468 L 659 474 L 659 477.5 L 714.5 533 L 718 531.5 L 720 520.5 L 722 517.5 L 724 507.5 L 726 504.5 L 726 500.5 L 730 491.5 L 730 487.5 L 732 485.5 L 732 482.5 L 734 480.5 L 743 455.5 L 745 453.5 L 745.5 449 L 746 460.5 L 744 465.5 L 744 477.5 Q 741 480.5 742 487.5 L 740 490.5 L 740 495.5 L 738 498.5 L 738 503.5 L 736 506.5 L 736 511.5 L 734 515.5 L 734 519.5 L 732 523.5 L 732 527.5 L 728 541.5 L 781.5 575 L 806 594.5 L 803.5 595 L 783.5 585 L 780.5 585 L 778.5 583 L 771.5 581 L 727.5 556 L 725 556 L 725 613.5 L 724 614.5 L 724 638 L 727.5 638 L 733.5 635 L 771.5 614 L 774.5 614 L 776.5 612 L 784.5 610 L 800.5 602 L 803.5 602 L 803.5 603 L 775.5 624 L 725 653 L 725 658.5 L 730 675.5 L 732 688.5 L 734 692.5 L 734 697.5 L 736 701.5 L 736 706.5 L 738 709.5 Q 736.7 718.8 740 723.5 L 740 737.5 Q 742.8 740.2 742 746.5 L 736.5 749 L 730.5 747 L 707.5 745 L 682.5 738 L 678.5 738 L 674.5 736 L 670.5 736 L 666.5 734 L 662.5 734 L 652.5 730 L 643.5 729 L 615 776.5 L 591.5 807 L 591 805.5 L 597 794.5 L 607 768.5 L 626 735.5 L 630 727.5 L 630 724 L 548.5 724 L 548 726.5 L 572 769.5 L 586 804.5 L 585 804.5 L 564 777.5 L 535 728 L 530.5 728 L 520.5 732 L 515.5 732 L 512.5 734 L 507.5 734 L 503.5 736 L 499.5 736 L 495.5 738 L 491.5 738 L 469.5 744 L 460.5 744 L 459.5 745 L 452.5 745 L 436.5 748 L 437.5 746 L 443.5 745 L 479.5 730 L 509.5 722 L 512.5 720 L 516.5 720 L 519.5 718 L 524 718 L 524 715.5 L 467.5 659 L 464 660.5 L 464 664.5 L 462 667.5 L 451 706.5 L 445 721.5 L 443 723.5 L 443 726.5 L 441 728.5 L 441 731.5 L 437 742 Q 434 743.3 435 739.5 L 437 732.5 L 439 709.5 L 446 684.5 L 446 680.5 L 448 676.5 L 448 672.5 L 450 668.5 L 450 664.5 L 452 661.5 L 452 656.5 L 454 653.5 L 454 647.5 L 402.5 616 L 376 594.5 L 377.5 594 Q 389.8 601.7 405.5 606 L 432.5 620 L 453.5 633 L 456 633 L 457 551 L 451.5 552 L 409.5 575 L 392.5 581 L 390.5 583 L 375.5 589 L 376.5 587 L 381 585 Q 379.9 582.3 382.5 583 L 407.5 564 L 454 536.5 L 454 530.5 L 452 527.5 L 452 522.5 L 450 519.5 L 450 514.5 L 448 510.5 L 448 506.5 L 446 502.5 L 446 498.5 L 440 475.5 L 437 443.5 L 439 444.5 L 439 448.5 L 441 450.5 L 441 453.5 L 443 455.5 L 443 458.5 L 453 481.5 L 462 512.5 L 462 516.5 L 464 519.5 L 464 523.5 L 466.5 527 L 468.5 527 L 504.5 491 L 506 491 L 506 489 L 508 489 L 508 487 L 510 487 L 510 485 L 512 485 L 512 483 L 514 483 Q 512.9 480.3 515.5 481 L 525 471.5 L 525 469 L 505.5 464 L 502.5 462 L 498.5 462 L 496.5 460 L 492.5 460 L 483.5 456 L 479.5 456 L 477.5 454 L 474.5 454 L 472.5 452 L 455.5 445 Q 449 444.5 445.5 441 L 442 441 L 442.5 439 L 443.5 440 L 455.5 440 L 459.5 442 L 470.5 442 L 474.5 444 L 479.5 444 L 482.5 446 L 487.5 446 L 490.5 448 L 495.5 448 L 498.5 450 L 503.5 450 L 506.5 452 L 518.5 454 L 529.5 458 L 534.5 458 L 539 452.5 L 539 450.5 L 564 409.5 L 583 384 Q 585.8 385 585.5 382 Z M 635 462 L 633 465 Q 634 468 640 467 L 642 464 Q 641 460 635 462 Z M 533 464 L 528 469 L 528 471 L 536 471 L 535 468 Q 537 463 533 464 Z M 648 470 L 647 474 Q 645 479 652 477 Q 654 477 654 473 Q 653 469 648 470 Z M 540 475 L 510 504 L 552 547 L 588 582 L 588 475 L 540 475 Z M 599 475 L 600 577 L 670 507 L 644 481 L 640 475 L 599 475 Z M 502 512 L 495 519 L 488 525 L 470 543 L 470 589 L 580 589 L 504 512 L 502 512 Z M 678 514 L 603 589 L 712 589 L 712 549 L 678 514 Z M 465 531 L 460 537 L 462 538 L 468 539 L 467 533 L 465 531 Z M 718 537 L 717 538 L 715 539 L 715 545 L 721 544 L 722 541 L 718 537 Z M 470 600 L 470 644 L 485 659 Q 484 661 487 660 L 487 662 L 489 662 L 489 664 L 491 664 L 491 666 L 493 666 L 493 668 L 495 668 L 495 670 L 497 670 L 497 672 L 499 672 L 499 674 L 501 674 L 502 675 L 576 601 L 470 600 Z M 607 600 L 680 673 L 711 642 L 711 622 L 712 621 L 712 601 L 712 600 L 607 600 Z M 588 604 L 509 683 L 510 684 Q 509 686 512 685 L 512 687 L 514 687 L 514 689 L 516 689 L 516 691 L 518 691 L 518 693 L 520 693 L 520 695 L 522 695 L 522 697 L 524 697 L 524 699 L 526 699 L 526 701 L 528 701 L 528 703 L 530 703 L 530 705 L 539 712 L 588 712 L 588 604 Z M 600 608 L 599 712 L 640 712 L 669 683 L 670 683 L 671 681 L 600 608 Z M 723 641 L 721 643 L 722 645 Q 721 647 724 646 L 724 641 L 723 641 Z M 465 647 L 462 649 Q 459 648 460 652 Q 461 656 466 655 L 467 652 Q 469 646 465 647 Z M 711 649 L 711 656 L 715 656 Q 719 656 718 651 Q 716 647 711 649 Z M 709 660 L 709 662 L 707 662 L 707 664 L 705 664 L 705 666 L 703 666 L 703 668 L 701 668 L 701 670 L 699 670 Q 700 673 698 672 L 688 683 L 680 690 L 653 717 L 653 718 L 701 732 L 715 739 L 728 743 L 730 745 L 733 745 L 735 747 L 741 747 L 741 744 L 739 742 L 736 731 L 726 708 L 713 663 Q 714 658 709 660 Z M 533 715 L 532 716 Q 526 714 528 720 L 533 723 Q 536 722 535 717 L 533 715 Z M 642 716 L 643 720 Q 641 725 647 723 Q 650 722 649 718 Q 647 714 642 716 Z " /><path fill="rgb(0,0,0)" stroke="rgb(0,0,0)" stroke-width="1" opacity="0.8745098039215686" d="M 398.5 383 L 403.5 384 L 410 389.5 L 412 393.5 L 412 399.5 L 404.5 409 Q 401 411.5 393.5 410 L 386 403.5 L 384 396.5 Q 385.2 388.2 391.5 385 L 398.5 383 Z " /><path fill="rgb(0,0,0)" stroke="rgb(0,0,0)" stroke-width="1" opacity="0.8745098039215686" d="M 790.5 397 L 796.5 398 L 800 400 L 804 406.5 L 804 414.5 L 798.5 422 L 790.5 425 L 782.5 422 L 780 419.5 Q 776.3 416.7 777 409.5 Q 777.9 402.9 782.5 400 L 790.5 397 Z " /><path fill="rgb(0,0,0)" stroke="rgb(0,0,0)" stroke-width="1" opacity="0.8745098039215686" d="M 436.5 438 L 441 438.5 L 436.5 439 L 436.5 438 Z " /><path fill="rgb(0,0,0)" stroke="rgb(0,0,0)" stroke-width="1" opacity="0.8745098039215686" d="M 744.5 444 L 748 445.5 L 747.5 447 L 747 445 Q 743.7 445.8 744.5 444 Z " /><path fill="rgb(0,0,0)" stroke="rgb(0,0,0)" stroke-width="1" opacity="0.8745098039215686" d="M 319.5 575 L 329 579 L 333 586.5 L 333 592.5 L 327.5 600 L 321.5 603 L 316.5 603 L 308 597.5 L 305 591.5 L 305 588.5 Q 306.5 581.6 311.5 578 L 319.5 575 Z " /><path fill="rgb(0,0,0)" stroke="rgb(0,0,0)" stroke-width="1" opacity="0.8745098039215686" d="M 866.5 585 L 873.5 587 L 879 592.5 L 881 599.5 Q 879.5 606.4 874.5 610 Q 871.3 613.3 864.5 613 Q 858 611.5 855 606.5 Q 852 603.5 853 596.5 L 857 589 L 866.5 585 Z " /><path fill="rgb(0,0,0)" stroke="rgb(0,0,0)" stroke-width="1" opacity="0.8745098039215686" d="M 372 590 Q 375 588.8 374 592.5 L 372 591.5 L 372 590 Z " /><path fill="rgb(0,0,0)" stroke="rgb(0,0,0)" stroke-width="1" opacity="0.8745098039215686" d="M 807.5 596 L 809 598.5 L 808 598.5 L 807.5 596 Z " /><path fill="rgb(0,0,0)" stroke="rgb(0,0,0)" stroke-width="1" opacity="0.8745098039215686" d="M 782.5 787 Q 792.6 786.9 796 793.5 Q 799.6 796.4 798 804.5 L 793.5 811 L 783.5 815 L 774 809.5 Q 770.2 806.3 771 798.5 L 776.5 790 L 782.5 787 Z " /><path fill="rgb(0,0,0)" stroke="rgb(0,0,0)" stroke-width="1" opacity="0.8745098039215686" d="M 384.5 788 L 391.5 788 L 399 793.5 Q 402.2 796.8 401 804.5 L 394.5 813 Q 391.5 816 384.5 815 L 377 811 L 373 801.5 L 376 794.5 L 380.5 790 L 384.5 788 Z " /><path fill="rgb(0,0,0)" stroke="rgb(0,0,0)" stroke-width="1" opacity="0.8745098039215686" d="M 587.5 806 L 588 808 L 590 808.5 L 588.5 809 L 587.5 806 Z " /><path fill="rgb(0,0,0)" stroke="rgb(0,0,0)" stroke-width="1" opacity="0.8745098039215686" d="M 587.5 868 L 594.5 868 L 603 874.5 L 605 882.5 Q 602.9 890.4 596.5 894 L 588.5 895 Q 582 893.5 579 888.5 Q 576.2 885.8 577 879.5 Q 578.5 873 583.5 870 L 587.5 868 Z " /><path fill="rgb(0,0,0)" stroke="rgb(0,0,0)" stroke-width="1" opacity="0" d="M 0 0 L 1181 0 L 1181 1181 L 0 1181 L 0 0 Z M 586 305 L 584 306 Q 578 308 577 315 Q 576 321 578 325 L 586 331 Q 594 333 598 329 Q 600 330 599 327 L 601 327 L 604 320 Q 604 313 601 310 L 596 305 L 586 305 Z M 586 382 Q 586 385 583 384 L 564 410 L 539 451 L 539 453 L 535 458 L 530 458 L 519 454 L 507 452 L 504 450 L 499 450 L 496 448 L 491 448 L 488 446 L 483 446 L 480 444 L 475 444 L 471 442 L 460 442 L 456 440 L 444 440 L 443 439 L 442 441 L 446 441 Q 449 444 456 445 L 473 452 L 475 454 L 478 454 L 480 456 L 484 456 L 493 460 L 497 460 L 499 462 L 503 462 L 506 464 L 525 469 L 525 472 L 516 481 Q 513 480 514 483 L 512 483 L 512 485 L 510 485 L 510 487 L 508 487 L 508 489 L 506 489 L 506 491 L 505 491 L 469 527 L 467 527 L 464 524 L 464 520 L 462 517 L 462 513 L 453 482 L 443 459 L 443 456 L 441 454 L 441 451 L 439 449 L 439 445 L 437 444 L 440 476 L 446 499 L 446 503 L 448 507 L 448 511 L 450 515 L 450 520 L 452 523 L 452 528 L 454 531 L 454 537 L 408 564 L 383 583 L 380 585 L 379 587 L 410 575 L 452 552 L 457 551 L 456 633 L 454 633 L 433 620 L 406 606 Q 390 602 378 594 L 376 595 L 403 616 L 454 648 L 454 654 L 452 657 L 452 662 L 450 665 L 450 669 L 448 673 L 448 677 L 446 681 L 446 685 L 439 710 L 437 733 L 435 740 Q 434 743 437 742 L 441 732 L 441 729 L 443 727 L 443 724 L 445 722 L 451 707 L 462 668 L 464 665 L 464 661 L 468 659 L 524 716 L 524 718 L 520 718 L 517 720 L 513 720 L 510 722 L 480 730 L 444 745 L 438 746 L 438 747 L 445 747 L 461 744 L 470 744 L 492 738 L 496 738 L 500 736 L 504 736 L 508 734 L 513 734 L 516 732 L 521 732 L 531 728 L 535 728 L 564 778 L 585 805 L 586 805 L 572 770 L 548 727 L 549 724 L 630 724 L 630 728 L 626 736 L 607 769 L 603 781 L 593 802 L 594 804 L 615 777 L 644 729 L 653 730 L 663 734 L 667 734 L 671 736 L 675 736 L 679 738 L 683 738 L 708 745 L 731 747 L 737 749 L 741 748 L 735 747 L 733 745 L 720 741 L 718 739 L 715 739 L 701 732 L 666 722 L 663 720 L 659 720 L 656 718 Q 652 719 653 717 L 681 690 L 698 672 Q 700 673 699 670 L 701 670 L 701 668 L 703 668 L 703 666 L 705 666 L 705 664 L 707 664 L 707 662 L 709 662 L 709 660 L 713 660 L 722 695 L 724 698 L 724 702 L 736 731 L 739 742 L 741 744 L 741 747 L 742 747 Q 743 740 740 738 L 740 724 Q 737 719 738 710 L 736 707 L 736 702 L 734 698 L 734 693 L 732 689 L 730 676 L 725 659 L 725 653 L 776 624 L 804 603 L 804 602 L 801 602 L 785 610 L 777 612 L 775 614 L 772 614 L 734 635 L 728 638 L 724 638 L 724 615 L 725 614 L 725 556 L 728 556 L 772 581 L 779 583 L 781 585 L 784 585 L 804 595 L 806 595 L 782 575 L 728 542 L 732 528 L 732 524 L 734 520 L 734 516 L 736 512 L 736 507 L 738 504 L 738 499 L 740 496 L 740 491 L 742 488 Q 741 481 744 478 L 744 466 L 746 461 L 746 449 L 745 454 L 743 456 L 734 481 L 732 483 L 732 486 L 730 488 L 730 492 L 726 501 L 726 505 L 724 508 L 722 518 L 720 521 L 718 532 L 715 533 L 659 478 L 659 474 L 684 468 L 700 462 L 704 462 L 716 456 L 719 456 L 721 454 L 724 454 L 726 452 L 729 452 L 742 447 L 742 445 L 741 446 L 729 446 L 725 448 L 713 448 Q 710 451 704 450 L 701 452 L 696 452 L 692 454 L 688 454 L 647 464 L 614 408 L 601 392 Q 602 389 599 390 L 597 386 L 593 383 L 606 415 L 631 461 L 631 462 L 549 462 L 551 455 L 572 418 L 576 406 L 578 404 L 578 401 L 586 385 L 586 382 Z M 399 383 L 392 385 Q 385 388 384 397 L 386 404 L 394 410 Q 401 412 405 409 L 412 400 L 412 394 L 410 390 L 404 384 L 399 383 Z M 791 397 L 783 400 Q 778 403 777 410 Q 776 417 780 420 L 783 422 L 791 425 L 799 422 L 804 415 L 804 407 L 800 400 L 797 398 L 791 397 Z M 437 438 L 437 439 L 441 439 L 437 438 Z M 745 444 L 745 445 L 747 445 L 745 444 Z M 320 575 L 312 578 Q 307 582 305 589 L 305 592 L 308 598 L 317 603 L 322 603 L 328 600 L 333 593 L 333 587 L 329 579 L 320 575 Z M 867 585 L 857 589 L 853 597 Q 852 604 855 607 Q 858 611 865 613 Q 871 613 875 610 Q 879 606 881 600 L 879 593 L 874 587 L 867 585 Z M 377 587 L 376 589 L 378 588 L 377 587 Z M 372 590 L 372 592 L 374 593 Q 375 589 372 590 Z M 783 787 L 777 790 L 771 799 Q 770 806 774 810 L 784 815 L 794 811 L 798 805 Q 800 796 796 794 Q 793 787 783 787 Z M 385 788 L 381 790 L 376 795 L 373 802 L 377 811 L 385 815 Q 392 816 395 813 L 401 805 Q 402 797 399 794 L 392 788 L 385 788 Z M 588 868 L 584 870 Q 579 873 577 880 Q 576 886 579 889 Q 582 893 589 895 L 597 894 Q 603 890 605 883 L 603 875 L 595 868 L 588 868 Z " /><path fill="rgb(0,0,0)" stroke="rgb(0,0,0)" stroke-width="1" opacity="0" d="M 634.5 462 Q 640.5 460.5 642 463.5 L 639.5 467 Q 634 468 633 464.5 L 634.5 462 Z " /><path fill="rgb(0,0,0)" stroke="rgb(0,0,0)" stroke-width="1" opacity="0" d="M 532.5 464 Q 536.7 462.7 535 467.5 L 536 471 L 528 471 L 528 468.5 L 532.5 464 Z " /><path fill="rgb(0,0,0)" stroke="rgb(0,0,0)" stroke-width="1" opacity="0" d="M 648 470 Q 652.7 469 654 472.5 Q 654.5 476.5 651.5 477 Q 645.2 479.2 647 473.5 L 648 470 Z " /><path fill="rgb(0,0,0)" stroke="rgb(0,0,0)" stroke-width="1" opacity="0" d="M 539.5 475 L 588 475 L 588 581.5 L 552 546.5 L 510 503.5 L 539.5 475 Z " /><path fill="rgb(0,0,0)" stroke="rgb(0,0,0)" stroke-width="1" opacity="0" d="M 599 475 L 639.5 475 L 644 480.5 L 670 506.5 L 599.5 577 L 599 475 Z " /><path fill="rgb(0,0,0)" stroke="rgb(0,0,0)" stroke-width="1" opacity="0" d="M 501.5 512 L 503.5 512 L 580 588.5 L 470 589 L 470 542.5 L 487.5 525 L 494.5 519 L 501.5 512 Z " /><path fill="rgb(0,0,0)" stroke="rgb(0,0,0)" stroke-width="1" opacity="0" d="M 677.5 514 L 712 548.5 L 712 589 L 603 588.5 L 677.5 514 Z " /><path fill="rgb(0,0,0)" stroke="rgb(0,0,0)" stroke-width="1" opacity="0" d="M 464.5 531 L 467 532.5 L 468 539 L 461.5 538 L 460 536.5 L 464.5 531 Z " /><path fill="rgb(0,0,0)" stroke="rgb(0,0,0)" stroke-width="1" opacity="0" d="M 717.5 537 L 722 540.5 L 720.5 544 L 715 545 L 715 538.5 L 716.5 538 L 717.5 537 Z " /><path fill="rgb(0,0,0)" stroke="rgb(0,0,0)" stroke-width="1" opacity="0" d="M 470 600 L 576 600.5 L 501.5 675 L 500.5 674 L 499 674 L 499 672 L 497 672 L 497 670 L 495 670 L 495 668 L 493 668 L 493 666 L 491 666 L 491 664 L 489 664 L 489 662 L 487 662 L 487 660 Q 484.3 661.1 485 658.5 L 470 643.5 L 470 600 Z " /><path fill="rgb(0,0,0)" stroke="rgb(0,0,0)" stroke-width="1" opacity="0" d="M 606.5 600 L 711.5 600 L 712 600.5 L 712 620.5 L 711 621.5 L 711 641.5 L 679.5 673 L 606.5 600 Z " /><path fill="rgb(0,0,0)" stroke="rgb(0,0,0)" stroke-width="1" opacity="0" d="M 587.5 604 L 588 712 L 538.5 712 L 530 704.5 L 530 703 L 528 703 L 528 701 L 526 701 L 526 699 L 524 699 L 524 697 L 522 697 L 522 695 L 520 695 L 520 693 L 518 693 L 518 691 L 516 691 L 516 689 L 514 689 L 514 687 L 512 687 L 512 685 Q 509.3 686.1 510 683.5 L 509 682.5 L 587.5 604 Z " /><path fill="rgb(0,0,0)" stroke="rgb(0,0,0)" stroke-width="1" opacity="0" d="M 599.5 608 L 671 680.5 L 670 683 L 668.5 683 L 639.5 712 L 599 712 L 599.5 608 Z " /><path fill="rgb(0,0,0)" stroke="rgb(0,0,0)" stroke-width="1" opacity="0" d="M 722.5 641 L 724 641 L 724 646 Q 721.3 647.1 722 644.5 L 721 642.5 L 722.5 641 Z " /><path fill="rgb(0,0,0)" stroke="rgb(0,0,0)" stroke-width="1" opacity="0" d="M 464.5 647 Q 469.1 645.6 467 651.5 L 466 655 Q 461.3 655.8 460 651.5 Q 458.9 648.2 461.5 649 L 464.5 647 Z " /><path fill="rgb(0,0,0)" stroke="rgb(0,0,0)" stroke-width="1" opacity="0" d="M 711 649 Q 716.4 647.5 718 650.5 Q 718.5 655.5 714.5 656 L 711 656 L 711 649 Z " /><path fill="rgb(0,0,0)" stroke="rgb(0,0,0)" stroke-width="1" opacity="0" d="M 532.5 715 L 535 716.5 Q 535.6 721.6 532.5 723 L 528 719.5 Q 526.3 714.3 531.5 716 L 532.5 715 Z " /><path fill="rgb(0,0,0)" stroke="rgb(0,0,0)" stroke-width="1" opacity="0" d="M 642 716 Q 647.4 714.5 649 717.5 Q 649.8 722.3 646.5 723 Q 641.3 724.8 643 719.5 L 642 716 Z " /></svg>