<svg width="1181" height="1181" version="1.1" xmlns="http://www.w3.org/2000/svg" desc="Created with imagetracer.js version 1.2.6" ><path fill="rgb(0,0,0)" stroke="rgb(0,0,0)" stroke-width="1" opacity="0" d="M 0 0 L 1181 0 L 1181 1181 L 0 1181 L 0 0 Z M 589 334 L 572 339 L 564 344 L 550 359 L 544 372 L 543 383 L 542 384 L 544 404 L 554 433 L 576 472 L 604 511 L 610 523 L 613 536 L 611 543 L 612 545 L 615 537 L 615 525 L 609 506 L 593 475 Q 576 451 563 423 L 555 397 L 555 378 L 562 363 Q 571 349 591 346 Q 606 346 615 353 Q 624 360 626 375 Q 626 385 622 391 Q 617 399 605 401 Q 597 401 593 398 L 585 389 L 585 380 L 589 371 L 599 367 L 607 369 L 610 374 L 612 375 Q 613 368 609 367 L 601 361 Q 588 359 583 364 L 575 372 L 572 382 Q 573 396 580 404 Q 586 411 599 413 Q 614 414 623 407 Q 635 399 638 382 L 637 367 L 629 351 Q 622 342 612 337 L 601 334 L 589 334 Z M 579 555 L 559 559 L 542 565 Q 522 574 507 587 Q 486 605 473 631 L 465 651 L 461 668 L 460 684 L 459 685 L 459 700 L 460 701 L 461 717 L 469 745 Q 478 766 492 783 Q 509 802 533 815 L 558 825 L 587 830 L 613 829 L 632 825 Q 656 818 673 803 Q 691 786 704 764 L 704 762 L 698 770 Q 678 793 648 806 L 622 815 L 611 817 L 601 817 L 600 818 L 573 816 L 552 810 Q 529 802 514 787 Q 493 769 481 742 L 474 720 L 473 709 L 472 708 L 472 697 L 471 696 L 473 670 L 479 648 Q 488 624 504 607 Q 517 592 535 582 L 561 571 L 581 567 L 608 567 L 628 571 Q 654 579 673 595 Q 689 609 700 628 L 714 658 L 720 679 L 721 692 L 722 693 L 722 710 L 721 711 L 722 717 L 725 700 L 725 691 L 726 690 L 725 663 L 719 639 Q 709 614 692 597 Q 671 574 640 562 L 610 555 L 579 555 Z M 590 655 Q 580 657 575 662 Q 565 669 563 684 Q 563 698 570 706 Q 577 714 590 717 L 602 717 L 616 711 Q 625 704 628 691 Q 629 675 622 668 Q 613 654 590 655 Z " /><path fill="rgb(0,0,0)" stroke="rgb(0,0,0)" stroke-width="1" opacity="0.9607843137254902" d="M 588.5 334 L 600.5 334 L 611.5 337 Q 622.2 341.8 629 350.5 L 637 366.5 L 638 381.5 Q 634.9 398.9 622.5 407 Q 614.1 413.6 598.5 413 Q 586.4 411.1 580 403.5 Q 572.5 396 572 381.5 L 575 371.5 L 582.5 364 Q 588.4 359.4 600.5 361 L 609 366.5 Q 612.5 370 613 376.5 L 612 376.5 L 606.5 369 L 598.5 367 L 589 371 L 585 379.5 L 585 388.5 L 592.5 398 Q 596.8 401.2 604.5 401 Q 616.5 399 622 390.5 Q 626.4 384.9 626 374.5 Q 623.6 360.4 614.5 353 Q 606.5 345.5 590.5 346 Q 571.4 349.4 562 362.5 L 555 377.5 L 555 396.5 L 563 422.5 Q 576 450.5 593 474.5 L 609 505.5 L 615 524.5 L 615 536.5 L 610.5 546 L 611 544.5 L 613 535.5 L 610 522.5 L 604 510.5 L 576 471.5 L 554 432.5 L 544 403.5 L 542 383.5 L 543 382.5 L 544 371.5 L 550 358.5 L 563.5 344 L 571.5 339 L 588.5 334 Z " /><path fill="rgb(0,0,0)" stroke="rgb(0,0,0)" stroke-width="1" opacity="0.9607843137254902" d="M 578.5 555 L 609.5 555 L 639.5 562 Q 671.2 573.8 692 596.5 Q 709 614 719 638.5 L 725 662.5 L 726 689.5 L 725 690.5 L 725 699.5 L 721.5 717 L 721 710.5 L 722 709.5 L 722 692.5 L 721 691.5 L 720 678.5 L 714 657.5 L 700 627.5 Q 688.8 608.7 672.5 595 Q 653.9 579.1 627.5 571 L 607.5 567 L 580.5 567 L 560.5 571 L 534.5 582 Q 517.2 592.2 504 606.5 Q 488 623.5 479 647.5 L 473 669.5 L 471 695.5 L 472 696.5 L 472 707.5 L 473 708.5 L 474 719.5 L 481 741.5 Q 492.8 768.8 513.5 787 Q 529.4 801.6 551.5 810 L 572.5 816 L 599.5 818 L 600.5 817 L 610.5 817 L 621.5 815 L 647.5 806 Q 678.2 793.2 698 769.5 L 705.5 759 L 705 760.5 Q 692.6 785.6 672.5 803 Q 656.3 818.3 631.5 825 L 612.5 829 L 586.5 830 L 557.5 825 L 532.5 815 Q 508.8 802.2 492 782.5 Q 477.9 766.1 469 744.5 L 461 716.5 L 460 700.5 L 459 699.5 L 459 684.5 L 460 683.5 L 461 667.5 L 465 650.5 L 473 630.5 Q 485.8 604.8 506.5 587 Q 521.6 573.6 541.5 565 L 558.5 559 L 578.5 555 Z " /><path fill="rgb(0,0,0)" stroke="rgb(0,0,0)" stroke-width="1" opacity="0.9607843137254902" d="M 589.5 655 Q 613.5 653.5 622 667.5 Q 628.8 675.2 628 690.5 Q 625.1 704.1 615.5 711 L 601.5 717 L 589.5 717 Q 576.7 714.3 570 705.5 Q 563 698 563 683.5 Q 565.4 669.4 574.5 662 Q 580.2 656.7 589.5 655 Z " /></svg>