<svg width="1181" height="1181" version="1.1" xmlns="http://www.w3.org/2000/svg" desc="Created with imagetracer.js version 1.2.6" ><path fill="rgb(0,0,0)" stroke="rgb(0,0,0)" stroke-width="1" opacity="0.9098039215686274" d="M 468.5 417 L 480.5 417 L 498.5 422 Q 511.7 428.3 520 439.5 L 529 456.5 L 531 464.5 L 531 481.5 Q 527.1 500.1 514.5 510 L 497.5 519 L 492.5 520 L 476.5 520 Q 463.8 516.7 457 507.5 Q 448.2 498.3 449 479.5 Q 451.6 466.1 461.5 460 Q 466.2 456.2 474.5 456 L 474.5 457 L 469.5 458 L 462 463 L 456 474.5 L 456 485.5 Q 458.6 496.4 466.5 502 L 476.5 507 L 490.5 508 Q 505.6 504.6 513 493.5 L 518 483.5 L 519 467.5 Q 515.5 448.5 502.5 439 Q 492 429.5 472.5 429 Q 470.7 431.7 464.5 430 L 451.5 434 Q 439.1 439.6 431 449.5 Q 422.7 458.7 419 472.5 L 418 477.5 L 418 496.5 Q 423.9 528.1 445.5 544 Q 455.9 552.6 470.5 557 L 480.5 559 L 500.5 559 L 501.5 558 L 508.5 558 L 518.5 556 L 541.5 549 L 574.5 534 Q 608.6 515.6 639.5 494 L 673.5 475 Q 685.3 464.3 700.5 457 L 719.5 451 L 743.5 450 L 744.5 451 L 755.5 452 L 779.5 462 L 797 477.5 Q 805.8 487.7 810 502.5 L 812 511.5 L 812 531.5 Q 807.1 559.1 788.5 573 Q 779.8 579.8 767.5 583 L 762.5 584 L 745.5 584 Q 725.1 580.4 714 567.5 Q 707.5 560 704 549.5 Q 701.2 540.8 703 527.5 Q 706.3 511.8 716.5 503 Q 725.2 495.2 741.5 495 L 751.5 497 L 765 505.5 L 772 518.5 L 772 530.5 L 769.5 536 L 769 534.5 L 770 533.5 L 770 524.5 Q 767.9 515.1 761.5 510 Q 754.4 503.1 738.5 505 Q 726.8 507.8 721 516.5 L 715 530.5 L 715 542.5 Q 718.1 556.9 728.5 564 L 743.5 571 L 759.5 572 Q 778 568.5 788 556.5 Q 801.2 542.7 800 514.5 Q 795.9 491.6 781.5 479 Q 764.3 462.2 730.5 462 L 714.5 465 L 696.5 473 L 678 489.5 L 667 508.5 L 658 536.5 L 655 552.5 L 655 559.5 L 654 560.5 L 653 596.5 L 652 600.5 L 653 601.5 L 653 632.5 L 654 633.5 L 654 656.5 L 655 657.5 L 655 719.5 L 654 720.5 L 654 731.5 L 653 732.5 L 652 744.5 L 646 764.5 L 632 788.5 L 616.5 805 Q 605.8 813.8 591.5 819 L 577.5 822 L 561.5 822 Q 533.3 817.3 518 799.5 Q 509 789.5 504 775.5 L 502 767.5 L 502 750.5 Q 506.4 727.4 521.5 715 Q 530.1 707.6 542.5 704 L 560.5 703 Q 579 706.5 589 718.5 L 598 733.5 Q 600.4 740.6 599 751.5 Q 595.4 765.4 585.5 773 L 574.5 779 L 562.5 780 Q 551.2 777.8 545 770.5 L 543 767.5 L 546.5 770 Q 552.8 776.2 566.5 775 Q 577.4 771.9 583 763.5 Q 589.2 756.2 587 740.5 Q 583.7 728.3 574.5 722 Q 566.5 714.5 550.5 715 Q 531.7 718.2 523 731.5 L 515 747.5 L 514 763.5 Q 516.3 764.8 515 769.5 L 520 781.5 L 534.5 798 L 554.5 808 L 565.5 810 L 574.5 810 L 585.5 808 L 597.5 803 L 617 787.5 Q 625.6 777.6 631 764.5 L 635 749.5 L 636 737.5 L 635 736.5 L 635 727.5 L 633 718.5 L 626 702.5 Q 613.6 681.9 596.5 666 L 558.5 636 L 502.5 602 L 457.5 572 Q 440.5 560 427 544.5 Q 415.4 531.1 409 512.5 L 406 499.5 L 405 482.5 L 406 481.5 L 407 469.5 L 415 450.5 L 432.5 431 L 453.5 420 L 468.5 417 Z M 659 495 Q 613 529 560 555 L 533 565 L 505 571 L 478 571 L 472 569 Q 469 568 470 571 L 520 597 L 551 616 Q 577 632 600 652 Q 617 667 630 686 L 641 705 L 646 722 L 647 722 L 647 703 L 646 702 L 646 689 L 645 688 L 643 658 L 642 657 L 641 618 L 640 617 L 640 584 L 641 583 L 641 567 L 642 566 L 643 550 L 650 519 L 660 496 L 659 495 Z " /><path fill="rgb(0,0,0)" stroke="rgb(0,0,0)" stroke-width="1" opacity="0.9098039215686274" d="M 591.5 426 Q 603.9 426.1 608 434.5 Q 611.7 438.8 610 448.5 L 603.5 458 Q 599 462.1 589.5 461 Q 582.3 459.2 579 453.5 Q 575.8 449.2 576 441.5 Q 577.7 433.2 583.5 429 L 591.5 426 Z " /><path fill="rgb(0,0,0)" stroke="rgb(0,0,0)" stroke-width="1" opacity="0.9098039215686274" d="M 588.5 558 L 602.5 560 Q 611.5 564 617 571.5 L 622 583.5 L 622 594.5 Q 619.5 606.5 611.5 613 Q 603.3 621.3 585.5 620 Q 572.8 616.7 566 607.5 Q 560 600 560 586.5 Q 562.4 572.4 571.5 565 Q 578.1 559.6 588.5 558 Z " /><path fill="rgb(0,0,0)" stroke="rgb(0,0,0)" stroke-width="1" opacity="0.9098039215686274" d="M 703.5 621 L 712.5 624 L 718 629.5 Q 721.7 633.8 720 643.5 Q 718.5 650 713.5 653 Q 709.3 657.3 699.5 656 Q 692.3 654.2 689 648.5 L 686 638.5 L 688 630.5 L 691 626 L 695.5 623 L 703.5 621 Z " /><path fill="rgb(0,0,0)" stroke="rgb(0,0,0)" stroke-width="1" opacity="0.9098039215686274" d="M 485.5 645 Q 500.2 642.8 504 651.5 Q 508.5 656 507 666.5 L 500.5 676 Q 496 680.5 485.5 679 L 477 673.5 Q 472.3 668.7 473 658.5 L 479.5 648 L 485.5 645 Z " /><path fill="rgb(0,0,0)" stroke="rgb(0,0,0)" stroke-width="1" opacity="0" d="M 0 0 L 1181 0 L 1181 1181 L 0 1181 L 0 0 Z M 469 417 L 454 420 L 433 431 L 415 451 L 407 470 L 406 482 L 405 483 L 406 500 L 409 513 Q 415 531 427 545 Q 441 560 458 572 L 503 602 L 559 636 L 597 666 Q 614 682 626 703 L 633 719 L 635 728 L 635 737 L 636 738 L 635 750 L 631 765 Q 626 778 617 788 L 598 803 L 586 808 L 575 810 L 566 810 L 555 808 L 535 798 L 520 782 L 515 770 Q 516 765 514 764 L 515 748 L 523 732 Q 532 718 551 715 Q 566 715 575 722 Q 584 728 587 741 Q 589 756 583 764 Q 577 772 567 775 Q 552 776 546 769 L 545 771 Q 551 778 563 780 L 575 779 L 586 773 Q 595 765 599 752 Q 600 741 598 734 L 589 719 Q 579 707 561 703 L 543 704 Q 530 708 522 715 Q 506 727 502 751 L 502 768 L 504 776 Q 509 790 518 800 Q 533 817 562 822 L 578 822 L 592 819 Q 606 814 617 805 L 632 789 L 646 765 L 652 745 L 653 733 L 654 732 L 654 721 L 655 720 L 655 658 L 654 657 L 654 634 L 653 633 L 653 602 L 652 601 L 653 597 L 654 561 L 655 560 L 655 553 L 658 537 L 667 509 L 678 490 L 697 473 L 715 465 L 731 462 Q 764 462 782 479 Q 796 492 800 515 Q 801 543 788 557 Q 778 568 760 572 L 744 571 L 729 564 Q 718 557 715 543 L 715 531 L 721 517 Q 727 508 739 505 Q 754 503 762 510 Q 771 517 771 534 L 772 531 L 772 519 L 765 506 L 752 497 L 742 495 Q 725 495 717 503 Q 706 512 703 528 Q 701 541 704 550 Q 708 560 714 568 Q 725 580 746 584 L 763 584 L 768 583 Q 780 580 789 573 Q 807 559 812 532 L 812 512 L 810 503 Q 806 488 797 478 L 780 462 L 756 452 L 745 451 L 744 450 L 720 451 L 701 457 Q 685 464 674 475 L 640 494 Q 609 516 575 534 L 542 549 L 519 556 L 509 558 L 502 558 L 501 559 L 481 559 L 471 557 Q 456 553 446 544 Q 424 528 418 497 L 418 478 L 419 473 Q 423 459 431 450 Q 439 440 452 434 L 465 430 Q 471 432 473 429 Q 492 429 503 439 Q 516 448 519 468 L 518 484 L 513 494 Q 506 505 491 508 L 477 507 L 467 502 Q 459 496 456 486 L 456 475 L 462 463 L 470 458 L 475 457 L 475 456 Q 466 456 462 460 Q 452 466 449 480 Q 448 498 457 508 Q 464 517 477 520 L 493 520 L 498 519 L 515 510 Q 527 500 531 482 L 531 465 L 529 457 L 520 440 Q 512 428 499 422 L 481 417 L 469 417 Z M 592 426 L 584 429 Q 578 433 576 442 Q 576 449 579 454 Q 582 459 590 461 Q 599 462 604 458 L 610 449 Q 612 439 608 435 Q 604 426 592 426 Z M 704 621 L 696 623 L 691 626 L 688 631 L 686 639 L 689 649 Q 692 654 700 656 Q 709 657 714 653 Q 718 650 720 644 Q 722 634 718 630 L 713 624 L 704 621 Z M 486 645 L 480 648 L 473 659 Q 472 669 477 674 L 486 679 Q 496 681 501 676 L 507 667 Q 509 656 504 652 Q 500 643 486 645 Z " /><path fill="rgb(0,0,0)" stroke="rgb(0,0,0)" stroke-width="1" opacity="0" d="M 658.5 495 L 660 495.5 L 650 518.5 L 643 549.5 L 642 565.5 L 641 566.5 L 641 582.5 L 640 583.5 L 640 616.5 L 641 617.5 L 642 656.5 L 643 657.5 L 645 687.5 L 646 688.5 L 646 701.5 L 647 702.5 L 647 721.5 L 646 721.5 L 641 704.5 L 630 685.5 Q 616.7 666.8 599.5 652 Q 576.8 632.2 550.5 616 L 519.5 597 L 470 571 Q 468.9 568.3 471.5 569 L 477.5 571 L 504.5 571 L 532.5 565 L 559.5 555 Q 613.5 529.5 658.5 495 Z M 589 558 Q 578 560 572 565 Q 562 572 560 587 Q 560 600 566 608 Q 573 617 586 620 Q 603 621 612 613 Q 620 607 622 595 L 622 584 L 617 572 Q 612 564 603 560 L 589 558 Z " /></svg>