<svg width="1181" height="1181" version="1.1" xmlns="http://www.w3.org/2000/svg" desc="Created with imagetracer.js version 1.2.6" ><path fill="rgb(0,0,0)" stroke="rgb(0,0,0)" stroke-width="1" opacity="0.8980392156862745" d="M 588.5 351 L 625.5 351 L 626.5 352 L 643.5 353 L 671.5 359 L 695.5 367 Q 747.4 388.1 783 425.5 Q 816.6 459.9 836 508.5 L 844 535.5 L 848 557.5 L 850 596.5 L 849 597.5 L 849 613.5 L 848 614.5 L 847 629.5 L 841.5 655 L 841 651.5 L 842 650.5 L 842 644.5 L 844 636.5 L 844 625.5 L 845 624.5 L 845 599.5 L 844 598.5 L 844 587.5 L 843 586.5 L 842 572.5 L 836 545.5 Q 827.8 517.7 816 493.5 Q 794.6 450.9 760.5 421 Q 728.7 392.3 684.5 376 L 656.5 368 L 633.5 364 L 623.5 364 L 622.5 363 L 592.5 363 L 591.5 364 L 581.5 364 L 580.5 365 L 573.5 365 L 557.5 368 L 535.5 374 L 512.5 383 Q 468.7 403.2 438 436.5 Q 405.1 471.1 387 520.5 L 379 548.5 L 375 571.5 L 375 579.5 L 374 580.5 L 374 621.5 L 375 622.5 L 375 631.5 L 376 632.5 L 377 644.5 L 383 669.5 Q 391.4 698.1 405 721.5 Q 425.9 757.6 456.5 784 Q 485.9 809.6 525.5 825 L 546.5 832 L 575.5 838 L 595.5 839 L 596.5 840 L 617.5 840 L 618.5 839 L 638.5 838 L 667.5 832 L 708.5 817 Q 753.2 796.7 785 763.5 Q 799.9 747.9 811.5 729 L 811 730.5 Q 789.7 768.2 758.5 796 Q 729.4 822.4 689.5 838 L 670.5 844 L 641.5 850 L 622.5 851 L 621.5 852 L 592.5 852 L 591.5 851 L 581.5 851 L 580.5 850 L 566.5 849 L 540.5 843 L 503.5 829 Q 459.3 807.7 428 773.5 Q 395.5 739 377 690.5 L 370 668.5 L 364 640.5 L 363 625.5 L 362 624.5 L 362 610.5 L 361 609.5 L 361 593.5 L 362 592.5 L 363 568.5 L 368 541.5 L 374 520.5 L 383 497.5 Q 405.9 447.4 444.5 413 Q 473.3 386.8 511.5 370 L 550.5 357 L 578.5 352 L 587.5 352 L 588.5 351 Z " /><path fill="rgb(0,0,0)" stroke="rgb(0,0,0)" stroke-width="1" opacity="0.8980392156862745" d="M 604.5 448 L 625.5 448 L 646.5 454 Q 663.9 462.1 675 476.5 Q 683.6 487.4 688 502.5 L 690 511.5 L 690 532.5 L 685 548.5 L 673 566 L 662.5 574 L 650.5 580 L 638.5 583 L 621.5 583 Q 600.7 578.8 590 564.5 L 581 546.5 Q 578.2 537.8 580 524.5 Q 583.4 511.4 592.5 504 L 607.5 496 Q 614.2 493.7 624.5 495 Q 637.2 498.3 644 507.5 Q 648 513.5 649 522.5 L 648 522.5 Q 646.1 510.9 637.5 506 Q 630.5 500 615.5 502 Q 605.9 504.9 600 511.5 L 592 527.5 L 592 540.5 Q 595.2 554.3 604.5 562 L 619.5 570 Q 626.2 572.3 636.5 571 Q 657.3 566.8 668 552.5 L 677 534.5 L 678 529.5 L 678 513.5 Q 673.1 487.4 655.5 474 Q 646 466 632.5 462 L 623.5 460 L 607.5 460 L 592.5 463 L 576.5 470 L 556 486.5 Q 545.6 497.6 540 513.5 L 536 532.5 L 536 545.5 L 537 546.5 L 537 555.5 L 538 556.5 L 539 567.5 L 542 579.5 L 555 614.5 L 573 649.5 Q 608.9 703.6 639 763.5 L 649 791.5 L 650 802.5 L 651 803.5 L 651 813.5 L 649 823.5 L 642.5 835 L 643 833.5 L 648 819.5 L 648 806.5 L 643 787.5 L 632 764.5 L 580 685.5 L 560 651.5 L 543 617.5 Q 532.9 595.6 527 569.5 L 525 558.5 L 525 550.5 L 524 549.5 L 524 529.5 L 528 510.5 L 534 496.5 Q 542.8 480.3 556.5 469 Q 567.2 459.7 581.5 454 L 604.5 448 Z " /><path fill="rgb(0,0,0)" stroke="rgb(0,0,0)" stroke-width="1" opacity="0.8980392156862745" d="M 630.5 521 Q 644.5 519.5 649 527.5 Q 653.3 531.7 652 541.5 Q 650.2 548.7 644.5 552 L 635.5 555 L 625.5 552 L 621 547.5 Q 617.1 543.4 618 534.5 L 624.5 524 L 630.5 521 Z " /><path fill="rgb(0,0,0)" stroke="rgb(0,0,0)" stroke-width="1" opacity="0.8980392156862745" d="M 840.5 656 L 841 658.5 L 840 658.5 L 840.5 656 Z " /><path fill="rgb(0,0,0)" stroke="rgb(0,0,0)" stroke-width="1" opacity="0.8980392156862745" d="M 839.5 660 L 840 662.5 L 839 662.5 L 839.5 660 Z " /><path fill="rgb(0,0,0)" stroke="rgb(0,0,0)" stroke-width="1" opacity="0" d="M 0 0 L 1181 0 L 1181 1181 L 0 1181 L 0 0 Z M 589 351 L 588 352 L 579 352 L 551 357 L 512 370 Q 473 387 445 413 Q 406 447 383 498 L 374 521 L 368 542 L 363 569 L 362 593 L 361 594 L 361 610 L 362 611 L 362 625 L 363 626 L 364 641 L 370 669 L 377 691 Q 395 739 428 774 Q 459 808 504 829 L 541 843 L 567 849 L 581 850 L 582 851 L 592 851 L 593 852 L 622 852 L 623 851 L 642 850 L 671 844 L 690 838 Q 729 822 759 796 Q 785 773 804 743 L 804 741 L 785 764 Q 753 797 709 817 L 668 832 L 639 838 L 619 839 L 618 840 L 597 840 L 596 839 L 576 838 L 547 832 L 526 825 Q 486 810 457 784 Q 426 758 405 722 Q 391 698 383 670 L 377 645 L 376 633 L 375 632 L 375 623 L 374 622 L 374 581 L 375 580 L 375 572 L 379 549 L 387 521 Q 405 471 438 437 Q 469 403 513 383 L 536 374 L 558 368 L 574 365 L 581 365 L 582 364 L 592 364 L 593 363 L 623 363 L 624 364 L 634 364 L 657 368 L 685 376 Q 729 392 761 421 Q 795 451 816 494 Q 828 518 836 546 L 842 573 L 843 587 L 844 588 L 844 599 L 845 600 L 845 625 L 844 626 L 843 644 L 842 645 L 843 651 L 848 623 L 849 598 L 850 597 L 848 558 L 844 536 L 836 509 Q 817 460 783 426 Q 747 388 696 367 L 672 359 L 644 353 L 627 352 L 626 351 L 589 351 Z M 605 448 L 582 454 Q 567 460 557 469 Q 543 480 534 497 L 528 511 L 524 530 L 524 550 L 525 551 L 525 559 L 527 570 Q 533 596 543 618 L 560 652 L 580 686 L 632 765 L 643 788 L 648 807 Q 650 821 645 829 L 646 830 L 649 824 L 651 814 L 651 804 L 650 803 L 649 792 L 639 764 Q 609 704 573 650 L 555 615 L 542 580 L 539 568 L 538 557 L 537 556 L 537 547 L 536 546 L 536 533 L 540 514 Q 546 498 556 487 L 577 470 L 593 463 L 608 460 L 624 460 L 633 462 Q 646 466 656 474 Q 673 487 678 514 L 678 530 L 677 535 L 668 553 Q 657 567 637 571 Q 626 572 620 570 L 605 562 Q 595 554 592 541 L 592 528 L 600 512 Q 606 505 616 502 Q 631 500 638 506 Q 645 510 647 520 L 648 520 Q 648 512 644 508 Q 637 498 625 495 Q 614 494 608 496 L 593 504 Q 583 511 580 525 Q 578 538 581 547 L 590 565 Q 601 579 622 583 L 639 583 L 651 580 L 663 574 L 673 566 L 685 549 L 690 533 L 690 512 L 688 503 Q 684 487 675 477 Q 664 462 647 454 L 626 448 L 605 448 Z M 649 520 L 648 523 L 649 523 L 649 520 Z M 631 521 L 625 524 L 618 535 Q 617 543 621 548 L 626 552 L 636 555 L 645 552 Q 650 549 652 542 Q 653 532 649 528 Q 645 519 631 521 Z M 842 651 L 841 655 L 842 655 L 842 651 Z M 841 656 L 840 659 L 841 659 L 841 656 Z M 840 660 L 839 663 L 840 663 L 840 660 Z M 808 735 L 806 738 L 808 737 L 808 735 Z M 806 738 L 804 741 L 806 740 L 806 738 Z " /></svg>