<svg width="1181" height="1181" version="1.1" xmlns="http://www.w3.org/2000/svg" desc="Created with imagetracer.js version 1.2.6" ><path fill="rgb(0,0,0)" stroke="rgb(0,0,0)" stroke-width="1" opacity="0.8941176470588236" d="M 585.5 304 L 596.5 304 L 610.5 308 Q 619.9 312.6 626 320.5 Q 636.9 332.1 635 356.5 L 629 379.5 L 615 408.5 L 594 439.5 L 584 457.5 Q 580.6 463.6 582 474.5 L 584 478.5 L 583 478.5 Q 576.8 472.2 579 457.5 L 587 434.5 L 617 376.5 L 622 359.5 L 623 343.5 Q 620.7 331.8 613.5 325 Q 605.5 316 588.5 316 Q 576.5 318 571 326.5 L 567 335.5 L 567 344.5 Q 569.1 352.4 575.5 356 L 585.5 359 L 595 355 L 598 349.5 L 598 342.5 L 593.5 335 Q 590.8 332.2 584.5 333 L 579 336.5 L 576.5 341 L 576 338.5 Q 576.9 331.9 581.5 329 Q 585.6 325.1 594.5 326 Q 603.6 327.9 608 334.5 L 610 338.5 L 611 346.5 Q 608.8 347.8 610 352.5 L 606 360.5 L 600.5 366 Q 594 371.5 581.5 371 Q 567.8 368.8 561 359.5 L 555 346.5 L 555 333.5 Q 557.8 321.3 565.5 314 Q 573.1 306.6 585.5 304 Z " /><path fill="rgb(0,0,0)" stroke="rgb(0,0,0)" stroke-width="1" opacity="0.8941176470588236" d="M 752.5 358 Q 776.8 358.8 786 374.5 Q 791.9 381.5 794 392.5 L 794 409.5 Q 788.3 429.3 773.5 440 L 755.5 452 L 730.5 464 L 685.5 479 Q 673.9 483.4 667 492.5 L 664.5 500 L 664 496.5 Q 667.2 483.2 677.5 477 Q 695.7 464.2 717.5 455 L 746.5 443 Q 762.5 435 774 422.5 Q 779.7 416.7 782 407.5 L 782 394.5 Q 778.7 381.8 769.5 375 L 761.5 371 L 748.5 371 Q 740.5 373.5 736 379.5 Q 730.8 383.8 732 394.5 Q 734.1 401.9 739.5 406 Q 742.8 409.2 750.5 408 Q 756.6 406.6 759 401.5 L 760 391.5 L 754.5 385 L 748.5 384 L 743.5 386 L 745.5 383 Q 749 379 757.5 380 Q 764.9 382.6 769 388.5 L 772 397.5 L 772 401.5 Q 769.5 410 763.5 415 Q 756.7 422.2 740.5 420 Q 730.5 416.5 725 408.5 L 720 396.5 L 720 385.5 Q 723.3 371.8 733.5 365 L 740.5 361 L 752.5 358 Z " /><path fill="rgb(0,0,0)" stroke="rgb(0,0,0)" stroke-width="1" opacity="0.8941176470588236" d="M 432.5 369 L 448.5 372 Q 458.9 376.6 466 384.5 Q 477.5 398.5 483 418.5 L 490 451.5 L 491 473.5 L 492 474.5 L 492 484.5 L 493 485.5 L 494 497.5 L 496 505.5 L 500 513.5 L 504.5 518 L 508 519.5 L 505.5 520 Q 498 517 494 510.5 L 488 498.5 L 483 482.5 L 478 460.5 L 474 432.5 L 468 412.5 L 459 395.5 L 450.5 387 L 439.5 382 L 426.5 382 Q 413.5 385 407 394.5 Q 402.2 400.7 404 413.5 Q 406.4 422.5 413.5 427 L 423.5 430 L 432.5 427 L 438 421.5 Q 440.3 418.3 439 411.5 L 434.5 405 Q 431.7 401.3 424.5 402 L 417 407.5 L 416 415.5 L 416.5 417 Q 411.6 413.9 413 404.5 L 420.5 395 Q 425.3 390.8 435.5 392 Q 444.1 394.4 448 401.5 L 451 408.5 L 452 416.5 Q 450 429.5 441.5 436 Q 434.1 442.6 419.5 442 Q 405.8 439.8 399 430.5 Q 390.6 421.9 391 404.5 L 393 395.5 L 397 387.5 L 403.5 380 L 419.5 371 L 431.5 370 L 432.5 369 Z " /><path fill="rgb(0,0,0)" stroke="rgb(0,0,0)" stroke-width="1" opacity="0.8941176470588236" d="M 596.5 483 Q 625 483 644.5 492 Q 670.4 503.6 687 524.5 Q 697 536.5 703.5 552 Q 708.2 546.7 719.5 548 Q 738.3 552.2 752.5 561 L 803.5 591 L 825.5 598 L 839.5 598 Q 851.5 595 858 586.5 Q 865 579 865 564.5 Q 862.8 551.8 853.5 546 Q 847.7 541.4 835.5 543 L 827 548 L 823 555.5 L 823 564.5 L 827.5 571 Q 830.3 574.7 837.5 574 Q 844 572.5 847 567.5 L 848 559.5 L 842.5 553 L 841 552.5 L 843.5 552 Q 850 553.5 853 558.5 L 855 564.5 L 855 569.5 Q 853 579.5 845.5 584 Q 840.8 587.3 831.5 586 Q 820.4 583.6 815 575.5 L 811 567.5 L 810 559.5 L 814 545.5 L 822.5 536 Q 829.7 530.2 842.5 530 L 852.5 532 L 860.5 536 L 869 543.5 Q 877.8 552.7 877 571.5 Q 873.6 592.1 859.5 602 Q 852.2 607.7 841.5 610 L 823.5 610 L 805.5 605 L 782.5 594 L 761.5 581 L 731.5 558 L 719.5 552 L 706.5 551 L 704 552 L 711 578.5 L 712 607.5 L 708 628.5 L 697 654.5 Q 687.3 670.8 673.5 683 Q 656.4 698.4 631.5 706 L 610.5 710 L 591.5 710 L 590.5 709 L 583.5 709 L 573.5 707 L 561.5 703 Q 542.7 694.8 530 680.5 Q 519 668.5 511 653.5 L 514 655.5 L 526.5 670 L 547.5 684 L 569.5 693 L 585.5 697 L 607.5 698 L 608.5 697 L 615.5 697 L 625.5 695 L 649.5 685 Q 666.4 675.4 678 660.5 Q 687.1 649.1 693 634.5 L 697 622.5 L 700 600 Q 696.7 598.7 698 603.5 Q 690 635.5 668.5 654 Q 657.6 663.6 642.5 669 L 630.5 672 L 611.5 673 L 594.5 670 L 581.5 665 Q 568.5 658.5 559 648.5 Q 550.7 639.8 546 627.5 L 543 617.5 L 542 599.5 L 544 588.5 L 547 580.5 Q 552.5 568.5 561.5 560 Q 569.3 552.8 580.5 549 L 589.5 547 L 604.5 547 Q 625.6 551.4 637 565.5 L 645 581.5 L 646 596.5 Q 642.9 613.9 631.5 623 Q 625.7 628.2 616.5 630 L 602.5 630 Q 589.4 626.6 582 617.5 L 577 606.5 L 577 593.5 Q 579.3 585.8 584.5 581 Q 590.2 574.2 603.5 575 Q 613.9 577.1 619 584.5 Q 622.3 589.2 621 598.5 L 615.5 607 Q 611.5 610.5 602.5 609 L 602.5 608 L 610.5 608 L 616 603.5 Q 619.3 599.8 618 591.5 L 612.5 584 Q 608.1 580 598.5 581 L 589 587.5 Q 583.3 592.8 585 605.5 Q 587.9 613.6 594.5 618 Q 601.2 623.8 615.5 622 Q 626.4 618.9 632 610.5 Q 638.2 602.7 638 588.5 L 634 575.5 L 622.5 563 L 607.5 556 L 590.5 555 Q 571.5 558.5 562 571.5 Q 555.3 579.3 552 590.5 L 550 600.5 L 550 609.5 L 554 625.5 L 559 635.5 L 570.5 648 Q 588 664.5 621.5 665 L 637.5 662 L 653.5 655 L 673 637.5 Q 682.7 625.7 688 609.5 L 691 596.5 L 692 574.5 L 691 573.5 L 690 560.5 L 684 542.5 Q 676.4 528.6 664.5 519 Q 649.2 505.8 627.5 499 L 613.5 496 L 588.5 496 Q 545.5 503.5 524 532.5 L 510 555.5 L 501 579.5 L 498 594.5 L 498 618.5 L 499 622.5 L 498 622.5 L 493 597.5 L 493 573.5 Q 500.8 532.8 527.5 511 Q 540.3 499.3 557.5 492 L 575.5 486 L 585.5 484 L 595.5 484 L 596.5 483 Z " /><path fill="rgb(0,0,0)" stroke="rgb(0,0,0)" stroke-width="1" opacity="0.8941176470588236" d="M 350.5 555 L 369.5 555 L 393.5 561 L 425.5 575 Q 443 587.5 463.5 597 L 472.5 600 L 483.5 600 L 488.5 597 L 486.5 600 L 480.5 603 L 464.5 603 L 441.5 596 Q 419.4 588.1 400.5 577 L 381.5 570 L 366.5 567 L 353.5 567 Q 340.6 569.1 334 577.5 Q 326 585.5 326 601.5 Q 328.3 614.3 337.5 620 Q 343.7 624.8 356.5 623 L 366 615.5 Q 369.9 611.4 369 602.5 Q 367.8 596.8 363.5 594 Q 360.2 590.8 352.5 592 L 345 597.5 L 343 604.5 L 346 611 L 352 613.5 L 346.5 614 L 339 608.5 Q 335.1 604.4 336 595.5 Q 337.9 586.4 344.5 582 L 356.5 579 L 367.5 582 L 377 590.5 Q 382.8 597.2 381 611.5 Q 378.3 622.8 370.5 629 Q 362.8 636.3 347.5 636 Q 330.7 633.3 322 622.5 Q 312.8 612.7 314 592.5 Q 317.5 573.5 330.5 564 Q 338.4 557.4 350.5 555 Z " /><path fill="rgb(0,0,0)" stroke="rgb(0,0,0)" stroke-width="1" opacity="0.8941176470588236" d="M 703.5 648 Q 717.7 649.3 723 659.5 L 738 688.5 L 753 731.5 L 762 749.5 L 774.5 765 L 786.5 772 L 801.5 773 Q 813.1 770.1 820 762.5 Q 826.6 756.1 826 742.5 Q 823.6 732.4 816.5 727 Q 811.7 722.3 800.5 724 L 792 729.5 Q 787.5 733 789 742.5 L 793.5 749 L 803.5 752 L 810 749 L 813 741.5 L 811 735.5 L 814 737.5 Q 817.3 741.2 816 749.5 L 809.5 759 Q 804.5 763 795.5 763 Q 785.6 760.9 781 753.5 Q 775.2 746.8 777 732.5 Q 779.8 722.3 787.5 717 Q 794.7 711.2 807.5 711 Q 808.7 713.3 813.5 712 L 822.5 716 L 832 725.5 L 838 740.5 L 838 752.5 Q 834.5 768 823.5 776 Q 812.2 786.7 788.5 785 Q 768.9 780.6 759 766.5 Q 748 752.5 741 734.5 L 732 709.5 L 723 671.5 L 717 658.5 L 711.5 652 Q 709.6 648.4 703.5 649 L 703.5 648 Z " /><path fill="rgb(0,0,0)" stroke="rgb(0,0,0)" stroke-width="1" opacity="0.8941176470588236" d="M 540.5 693 L 541 696.5 Q 538.5 704.5 532.5 709 L 521.5 716 L 501.5 724 L 446.5 740 L 427.5 750 L 416 760.5 Q 409.2 768.2 410 783.5 Q 412.8 796.7 421.5 804 Q 427.7 809.3 439.5 809 Q 449.8 807.3 455 800.5 Q 460.2 796.2 459 785.5 L 452.5 775 Q 449.3 771.7 442.5 772 Q 436 773.5 433 778.5 Q 430.2 781.2 431 787.5 L 436.5 795 L 443.5 796 L 446.5 795 L 446.5 796 Q 442.7 800.7 432.5 799 L 424 792.5 L 421 786.5 Q 422.3 781.7 420 780.5 L 422 772.5 L 428.5 765 Q 435.3 759.3 448.5 760 Q 460.4 762.6 466 771.5 L 471 783.5 L 471 794.5 Q 468 807.5 458.5 814 Q 449.3 822.3 430.5 821 Q 415 817.5 407 806.5 Q 396.5 795.5 398 772.5 Q 402.5 752 417.5 742 L 443.5 728 L 480.5 717 L 503.5 714 L 520.5 710 Q 531.3 706.8 538 699.5 L 540.5 693 Z " /><path fill="rgb(0,0,0)" stroke="rgb(0,0,0)" stroke-width="1" opacity="0.8941176470588236" d="M 634.5 710 Q 639.9 715.1 638 727.5 L 633 741.5 L 625 755.5 L 591 804.5 L 581 827.5 L 579 841.5 L 583 854.5 L 593.5 866 L 606.5 871 L 614.5 871 Q 623.9 868.9 629 862.5 L 634 852.5 L 634 842.5 L 627.5 833 L 616.5 829 L 607 833 L 604 838.5 L 604 846.5 L 608.5 853 L 616.5 855 L 624 849.5 L 624.5 848 L 625 850.5 Q 623.6 856.6 618.5 859 Q 614.8 862.3 606.5 861 Q 598.2 858.9 594 852.5 Q 591 848.5 591 841.5 L 594 830.5 L 601.5 822 Q 608 816.5 620.5 817 Q 634.4 819.6 641 829.5 Q 647.2 836.3 647 849.5 L 642 865.5 L 632.5 876 Q 626.1 881.1 616.5 883 L 603.5 883 Q 586.2 879.3 577 867.5 L 569 853.5 L 567 844.5 L 567 835.5 L 569 824.5 L 578 802.5 L 600 769.5 L 630 734.5 L 635 724.5 L 636 714.5 L 634.5 710 Z " /><path fill="rgb(0,0,0)" stroke="rgb(0,0,0)" stroke-width="1" opacity="0" d="M 0 0 L 1181 0 L 1181 1181 L 0 1181 L 0 0 Z M 586 304 Q 573 307 566 314 Q 558 321 555 334 L 555 347 L 561 360 Q 568 369 582 371 Q 594 372 601 366 L 606 361 L 610 353 Q 609 348 611 347 L 610 339 L 608 335 Q 604 328 595 326 Q 586 325 582 329 Q 577 332 576 339 L 577 341 L 579 337 L 585 333 Q 591 332 594 335 L 598 343 L 598 350 L 595 355 L 586 359 L 576 356 Q 569 352 567 345 L 567 336 L 571 327 Q 576 318 589 316 Q 605 316 614 325 Q 621 332 623 344 L 622 360 L 617 377 L 587 435 L 579 458 Q 577 469 581 476 L 583 477 L 582 475 Q 581 464 584 458 L 594 440 L 615 409 L 629 380 L 635 357 Q 637 332 626 321 Q 620 313 611 308 L 597 304 L 586 304 Z M 753 358 L 741 361 L 734 365 Q 723 372 720 386 L 720 397 L 725 409 Q 731 416 741 420 Q 757 422 764 415 Q 769 410 772 402 L 772 398 L 769 389 Q 765 383 758 380 Q 749 379 746 383 L 744 386 L 749 384 L 755 385 L 760 392 L 759 402 Q 757 407 751 408 Q 743 409 740 406 Q 734 402 732 395 Q 731 384 736 380 Q 740 374 749 371 L 762 371 L 770 375 Q 779 382 782 395 L 782 408 Q 780 417 774 423 Q 762 435 747 443 L 718 455 Q 696 464 678 477 Q 667 483 664 497 L 665 500 L 667 493 Q 674 483 686 479 L 731 464 L 756 452 L 774 440 Q 788 429 794 410 L 794 393 Q 792 382 786 375 Q 777 359 753 358 Z M 433 369 L 432 370 L 420 371 L 404 380 L 397 388 L 393 396 L 391 405 Q 391 422 399 431 Q 406 440 420 442 Q 434 443 442 436 Q 450 429 452 417 L 451 409 L 448 402 Q 444 394 436 392 Q 425 391 421 395 L 413 405 Q 412 413 416 416 L 417 408 L 425 402 Q 432 401 435 405 L 439 412 Q 440 418 438 422 L 433 427 L 424 430 L 414 427 Q 406 423 404 414 Q 402 401 407 395 Q 413 385 427 382 L 440 382 L 451 387 L 459 396 L 468 413 L 474 433 L 478 461 L 483 483 L 488 499 L 494 511 Q 498 517 506 520 L 508 520 L 505 518 L 500 514 L 496 506 L 494 498 L 493 486 L 492 485 L 492 475 L 491 474 L 490 452 L 483 419 Q 477 398 466 385 Q 459 377 449 372 L 433 369 Z M 597 483 L 596 484 L 586 484 L 576 486 L 558 492 Q 540 499 528 511 Q 501 533 493 574 L 493 598 L 498 619 L 498 595 L 501 580 L 510 556 L 524 533 Q 546 504 589 496 L 614 496 L 628 499 Q 649 506 665 519 Q 676 529 684 543 L 690 561 L 691 574 L 692 575 L 691 597 L 688 610 Q 683 626 673 638 L 654 655 L 638 662 L 622 665 Q 588 665 571 648 L 559 636 L 554 626 L 550 610 L 550 601 L 552 591 Q 555 579 562 572 Q 572 559 591 555 L 608 556 L 623 563 L 634 576 L 638 589 Q 638 603 632 611 Q 626 619 616 622 Q 601 624 595 618 Q 588 614 585 606 Q 583 593 589 588 L 599 581 Q 608 580 613 584 L 618 592 Q 619 600 616 604 L 611 608 L 603 608 L 603 609 Q 612 611 616 607 L 621 599 Q 622 589 619 585 Q 614 577 604 575 Q 590 574 585 581 Q 579 586 577 594 L 577 607 L 582 618 Q 589 627 603 630 L 617 630 Q 626 628 632 623 Q 643 614 646 597 L 645 582 L 637 566 Q 626 551 605 547 L 590 547 L 581 549 Q 569 553 562 560 Q 552 568 547 581 L 544 589 L 542 600 L 543 618 L 546 628 Q 551 640 559 649 Q 568 659 582 665 L 595 670 L 612 673 L 631 672 L 643 669 Q 658 664 669 654 Q 690 636 698 604 Q 697 599 700 600 L 697 623 L 693 635 Q 687 649 678 661 Q 666 675 650 685 L 626 695 L 616 697 L 609 697 L 608 698 L 586 697 L 570 693 L 548 684 L 527 670 L 517 660 L 514 658 Q 520 671 530 681 Q 543 695 562 703 L 574 707 L 584 709 L 591 709 L 592 710 L 611 710 L 632 706 Q 656 698 674 683 Q 687 671 697 655 L 708 629 L 712 608 L 712 587 L 707 562 Q 700 540 687 525 Q 670 504 645 492 Q 625 483 597 483 Z M 840 530 L 828 533 L 823 536 L 814 546 L 810 560 L 811 568 L 815 576 Q 820 584 832 586 Q 841 587 846 584 Q 853 579 855 570 L 855 565 L 853 559 Q 850 554 844 552 L 841 553 L 843 553 L 848 560 L 847 568 Q 844 572 838 574 Q 830 575 828 571 L 823 565 L 823 556 L 827 548 L 836 543 Q 848 541 854 546 Q 863 552 865 565 Q 865 579 858 587 Q 851 595 840 598 L 826 598 L 804 591 L 753 561 Q 738 552 720 548 Q 710 547 706 551 L 720 552 L 732 558 L 762 581 L 783 594 L 806 605 L 824 610 L 842 610 Q 852 608 860 602 Q 874 592 877 572 Q 878 553 869 544 Q 863 536 853 532 L 840 530 Z M 351 555 Q 338 557 331 564 Q 318 574 314 593 Q 313 613 322 623 Q 331 633 348 636 Q 363 636 371 629 Q 378 623 381 612 Q 383 597 377 591 L 368 582 L 357 579 L 345 582 Q 338 586 336 596 Q 335 604 339 609 L 347 614 L 352 614 L 346 611 L 343 605 L 345 598 L 353 592 Q 360 591 364 594 Q 368 597 369 603 Q 370 611 366 616 L 357 623 Q 344 625 338 620 Q 328 614 326 602 Q 326 586 334 578 Q 341 569 354 567 L 367 567 L 382 570 L 401 577 Q 419 588 442 596 L 465 603 L 481 603 L 487 600 L 488 598 L 484 600 L 473 600 L 464 597 Q 443 587 426 575 L 394 561 L 370 555 L 351 555 Z M 499 619 L 498 623 L 499 623 L 499 619 Z M 704 648 L 704 649 L 707 649 L 704 648 Z M 708 649 Q 707 651 712 652 L 717 659 L 723 672 L 732 710 L 741 735 Q 748 753 759 767 Q 769 781 789 785 Q 812 787 824 776 Q 834 768 838 753 L 838 741 L 832 726 L 823 716 L 814 712 Q 809 713 808 711 Q 795 711 788 717 Q 780 722 777 733 Q 775 747 781 754 Q 786 761 796 763 Q 805 763 810 759 L 816 750 Q 817 741 814 738 L 811 736 L 813 742 L 810 749 L 804 752 L 794 749 L 789 743 Q 788 733 792 730 L 801 724 Q 812 722 817 727 Q 824 732 826 743 Q 827 756 820 763 Q 813 770 802 773 L 787 772 L 775 765 L 762 750 L 753 732 L 738 689 L 723 660 L 715 651 L 708 649 Z M 513 654 L 512 656 L 514 657 L 513 654 Z M 541 693 L 538 700 Q 531 707 521 710 L 504 714 L 481 717 L 444 728 L 418 742 Q 403 752 398 773 Q 396 796 407 807 Q 415 817 431 821 Q 449 822 459 814 Q 468 808 471 795 L 471 784 L 466 772 Q 460 763 449 760 Q 435 759 429 765 L 422 773 L 420 781 Q 422 782 421 787 L 424 793 L 433 799 Q 443 801 447 796 L 447 795 L 444 796 L 437 795 L 431 788 Q 430 781 433 779 Q 436 774 443 772 Q 449 772 453 775 L 459 786 Q 460 796 455 801 Q 450 807 440 809 Q 428 809 422 804 Q 413 797 410 784 Q 409 768 416 761 L 428 750 L 447 740 L 502 724 L 522 716 L 533 709 Q 539 705 541 697 L 541 693 Z M 636 711 L 636 715 L 635 725 L 630 735 L 600 770 L 578 803 L 569 825 L 567 836 L 567 845 L 569 854 L 577 868 Q 586 879 604 883 L 617 883 Q 626 881 633 876 L 642 866 L 647 850 Q 647 836 641 830 Q 634 820 621 817 Q 608 817 602 822 L 594 831 L 591 842 Q 591 848 594 853 Q 598 859 607 861 Q 615 862 619 859 Q 624 857 625 851 L 625 848 L 624 850 L 617 855 L 609 853 L 604 847 L 604 839 L 607 833 L 617 829 L 628 833 L 634 843 L 634 853 L 629 863 Q 624 869 615 871 L 607 871 L 594 866 L 583 855 L 579 842 L 581 828 L 591 805 L 625 756 L 633 742 L 638 728 Q 640 716 636 711 Z " /></svg>