<svg width="1181" height="1181" version="1.1" xmlns="http://www.w3.org/2000/svg" desc="Created with imagetracer.js version 1.2.6" ><path fill="rgb(0,0,0)" stroke="rgb(0,0,0)" stroke-width="1" opacity="0.8980392156862745" d="M 579.5 351 L 612.5 351 L 613.5 352 L 631.5 353 L 657.5 358 L 691.5 369 Q 745.3 391.2 782 430.5 Q 813.5 463.5 832 509.5 L 838 528.5 L 843 552.5 L 844 569.5 L 845 570.5 L 845 605.5 L 844 606.5 L 844 615.5 L 843 616.5 L 841 635.5 L 835.5 657 L 835 654.5 L 837 649.5 L 839 630.5 L 840 629.5 L 841 602.5 L 840 601.5 L 840 587.5 L 839 586.5 L 838 571.5 L 833 548.5 L 826 526.5 L 814 498.5 Q 792.1 453.9 756.5 423 Q 725.4 395.6 683.5 379 L 662.5 372 L 635.5 366 L 621.5 365 L 620.5 364 L 609.5 364 L 608.5 363 L 583.5 363 L 582.5 364 L 562.5 365 L 540.5 369 Q 515.1 375.1 493.5 385 Q 446.4 406.9 414 443.5 Q 384.7 475.7 368 520.5 L 361 543.5 L 356 570.5 L 356 579.5 L 355 580.5 L 355 616.5 L 356 617.5 L 356 626.5 L 361 653.5 L 374 691.5 Q 395.7 739.3 432.5 772 Q 465.4 801.6 510.5 819 L 532.5 826 L 555.5 831 L 569.5 832 L 570.5 833 L 583.5 833 L 584.5 834 L 606.5 834 L 607.5 833 L 620.5 833 L 621.5 832 L 635.5 831 L 662.5 825 L 705.5 809 Q 755.3 786.3 789 747.5 L 804.5 727 L 804 728.5 Q 783.6 762.6 754.5 788 Q 719.5 820 668.5 836 L 631.5 844 L 612.5 845 L 611.5 846 L 579.5 846 L 578.5 845 L 567.5 845 L 538.5 840 L 519.5 835 L 490.5 824 Q 438.3 800.3 403 759.5 Q 371.1 723.9 354 673.5 L 348 651.5 L 344 628.5 L 344 620.5 L 343 619.5 L 343 577.5 L 344 576.5 L 346 555.5 L 351 533.5 L 359 509.5 L 370 485.5 Q 392.6 443.1 427.5 413 Q 455.8 388.3 492.5 372 L 519.5 362 L 542.5 356 L 547.5 356 L 560.5 353 L 567.5 353 L 568.5 352 L 578.5 352 L 579.5 351 Z " /><path fill="rgb(0,0,0)" stroke="rgb(0,0,0)" stroke-width="1" opacity="0.8980392156862745" d="M 578.5 442 L 609.5 442 Q 611.3 444.7 617.5 443 L 648.5 451 Q 685.6 465.4 710 492.5 Q 727.2 511.3 738 536.5 L 744 559.5 L 746 584.5 L 745 585.5 L 744 606.5 L 739.5 626 L 739 621.5 L 741 612.5 L 741 593.5 L 739 592.5 Q 731.9 613.9 715.5 626 Q 695.2 640.2 658.5 638 L 644.5 635 L 625.5 627 Q 602.7 612.3 585 592.5 L 551.5 556 Q 542.6 547.4 530.5 542 L 516.5 539 L 515.5 540 L 504.5 540 L 488.5 544 Q 473.3 549.8 464 561.5 Q 455.7 571.2 452 585.5 L 451 604.5 L 456 631.5 L 465 654.5 Q 476.7 677.3 494.5 694 Q 514.5 713 542.5 724 L 554.5 728 L 573.5 732 L 604.5 733 L 636.5 727 L 660.5 718 Q 689.8 705.3 710 683.5 L 720.5 670 L 719 672.5 Q 707.7 692.7 691.5 708 Q 671.6 727.6 642.5 738 L 616.5 744 L 608.5 744 L 607.5 745 L 579.5 745 L 548.5 739 L 519.5 727 Q 494.1 713.4 476 692.5 Q 457.6 671.9 447 643.5 L 441 621.5 L 440 608.5 L 439 607.5 L 439 592.5 L 438 591.5 L 439 590.5 L 439 579.5 L 440 578.5 L 442 560.5 L 451 533.5 Q 465.7 500.7 491.5 479 Q 510.7 462.2 536.5 452 L 555.5 446 L 578.5 442 Z M 582 454 L 581 455 L 563 457 L 540 464 Q 515 474 497 491 Q 471 513 459 548 L 470 540 L 481 534 L 497 529 L 511 528 L 512 527 L 521 527 L 537 531 L 557 544 L 587 577 L 615 604 L 632 616 L 655 626 L 664 628 L 675 628 L 676 629 L 700 626 Q 711 623 719 616 Q 732 605 739 588 L 738 574 L 729 547 Q 720 523 705 506 Q 682 477 646 463 L 634 459 L 615 455 L 582 454 Z " /><path fill="rgb(0,0,0)" stroke="rgb(0,0,0)" stroke-width="1" opacity="0.8980392156862745" d="M 694.5 579 Q 703.9 577.6 706 583.5 L 707 589.5 L 703.5 595 L 697.5 597 L 693.5 596 L 689 591.5 Q 687.5 582.5 692.5 580 L 694.5 579 Z " /><path fill="rgb(0,0,0)" stroke="rgb(0,0,0)" stroke-width="1" opacity="0.8980392156862745" d="M 488.5 591 Q 496.6 590.9 499 596.5 Q 500.8 606.3 494.5 608 L 488.5 609 L 482 604.5 L 481 597.5 L 485.5 592 L 488.5 591 Z " /><path fill="rgb(0,0,0)" stroke="rgb(0,0,0)" stroke-width="1" opacity="0.8980392156862745" d="M 806.5 724 L 805.5 726 L 806.5 724 Z " /><path fill="rgb(0,0,0)" stroke="rgb(0,0,0)" stroke-width="1" opacity="0" d="M 0 0 L 1181 0 L 1181 1181 L 0 1181 L 0 0 Z M 580 351 L 579 352 L 569 352 L 568 353 L 561 353 L 548 356 L 543 356 L 520 362 L 493 372 Q 456 388 428 413 Q 393 443 370 486 L 359 510 L 351 534 L 346 556 L 344 577 L 343 578 L 343 620 L 344 621 L 344 629 L 348 652 L 354 674 Q 371 724 403 760 Q 438 800 491 824 L 520 835 L 539 840 L 568 845 L 579 845 L 580 846 L 612 846 L 613 845 L 632 844 L 669 836 Q 720 820 755 788 Q 779 766 798 739 L 798 737 L 789 748 Q 755 786 706 809 L 663 825 L 636 831 L 622 832 L 621 833 L 608 833 L 607 834 L 585 834 L 584 833 L 571 833 L 570 832 L 556 831 L 533 826 L 511 819 Q 465 802 433 772 Q 396 739 374 692 L 361 654 L 356 627 L 356 618 L 355 617 L 355 581 L 356 580 L 356 571 L 361 544 L 368 521 Q 385 476 414 444 Q 446 407 494 385 Q 515 375 541 369 L 563 365 L 583 364 L 584 363 L 609 363 L 610 364 L 621 364 L 622 365 L 636 366 L 663 372 L 684 379 Q 725 396 757 423 Q 792 454 814 499 L 826 527 L 833 549 L 838 572 L 839 587 L 840 588 L 840 602 L 841 603 L 840 630 L 837 645 L 838 650 L 841 636 L 843 617 L 844 616 L 844 607 L 845 606 L 845 571 L 844 570 L 843 553 L 838 529 L 832 510 Q 814 463 782 431 Q 745 391 692 369 L 658 358 L 632 353 L 614 352 L 613 351 L 580 351 Z M 579 442 L 556 446 L 537 452 Q 511 462 492 479 Q 466 501 451 534 L 442 561 L 440 579 L 439 580 L 439 591 L 438 592 L 439 593 L 439 608 L 440 609 L 441 622 L 447 644 Q 458 672 476 693 Q 494 713 520 727 L 549 739 L 580 745 L 608 745 L 609 744 L 617 744 L 643 738 Q 672 728 692 708 Q 706 693 718 676 L 718 674 L 710 684 Q 690 705 661 718 L 637 727 L 605 733 L 574 732 L 555 728 L 543 724 Q 515 713 495 694 Q 477 677 465 655 L 456 632 L 451 605 L 452 586 Q 456 571 464 562 Q 473 550 489 544 L 505 540 L 516 540 L 517 539 L 531 542 Q 543 547 552 556 L 585 593 Q 603 612 626 627 L 645 635 L 659 638 Q 695 640 716 626 Q 732 614 739 593 L 741 594 L 741 613 L 739 622 L 740 626 L 744 607 L 745 586 L 746 585 L 744 560 L 738 537 Q 727 511 710 493 Q 686 465 649 451 L 618 443 Q 611 445 610 442 L 579 442 Z M 489 591 L 486 592 L 481 598 L 482 605 L 489 609 L 495 608 Q 501 606 499 597 Q 497 591 489 591 Z M 837 650 L 836 654 L 837 654 L 837 650 Z M 836 654 L 835 657 L 836 657 L 836 654 Z M 802 731 L 800 734 L 802 733 L 802 731 Z M 800 734 L 798 737 L 800 736 L 800 734 Z " /><path fill="rgb(0,0,0)" stroke="rgb(0,0,0)" stroke-width="1" opacity="0" d="M 581.5 454 L 614.5 455 L 633.5 459 L 645.5 463 Q 682 477.5 705 505.5 Q 719.7 523.3 729 546.5 L 738 573.5 L 739 587.5 Q 732 605 718.5 616 Q 710.8 622.8 699.5 626 L 675.5 629 L 674.5 628 L 663.5 628 L 654.5 626 L 631.5 616 L 614.5 604 L 587 576.5 L 556.5 544 L 536.5 531 L 520.5 527 L 511.5 527 L 510.5 528 L 496.5 529 L 480.5 534 L 469.5 540 L 459 548 Q 471 513.3 496.5 491 Q 514.8 474.3 539.5 464 L 562.5 457 L 580.5 455 L 581.5 454 Z M 695 579 L 693 580 Q 687 582 689 592 L 694 596 L 698 597 L 704 595 L 707 590 L 706 584 Q 704 578 695 579 Z " /></svg>