<svg width="1181" height="1181" version="1.1" xmlns="http://www.w3.org/2000/svg" desc="Created with imagetracer.js version 1.2.6" ><path fill="rgb(0,0,0)" stroke="rgb(0,0,0)" stroke-width="1" opacity="0.8862745098039215" d="M 598.5 303 L 606.5 303 L 620.5 307 Q 633.1 312.4 641 322.5 Q 649.8 333.7 654 349.5 L 656 359.5 L 656 370.5 Q 652.7 389.7 640.5 400 Q 628.6 410.6 612.5 417 L 573.5 428 Q 562.3 433.8 555 443.5 Q 548.5 451.5 546 463.5 L 545 468.5 L 545 486.5 L 548 498.5 L 555 512.5 Q 564.8 526.7 577.5 538 L 591.5 548 L 592 541.5 L 591 540.5 L 591 528.5 L 592 527.5 L 593 514.5 L 596 505.5 Q 603 488 616.5 477 Q 627.4 467.9 642.5 463 L 650.5 461 L 667.5 461 Q 692.3 466.3 706 482.5 Q 705.3 484.8 707.5 484 Q 720 498 738.5 506 L 753.5 510 L 763.5 510 L 777.5 505 L 792 491.5 Q 800.8 480.8 805 465.5 L 807 456.5 L 807 442.5 L 802 426.5 L 804 427.5 L 812 446.5 L 813 465.5 L 811 474.5 L 807 483.5 Q 799.6 497.1 788.5 507 Q 780.8 513.8 769.5 517 L 751.5 518 Q 732.4 514.6 719.5 505 Q 704.2 494.8 692.5 481 L 677.5 472 L 666.5 469 L 652.5 469 Q 625.6 474.6 612 493.5 L 604 507.5 L 598 525.5 L 595 540.5 L 595 552 L 601 556.5 Q 607.5 564.5 608.5 578 Q 615.7 563.2 627.5 553 Q 639.3 543.3 655.5 538 L 665.5 536 L 682.5 536 L 693.5 538 L 707.5 544 L 724 558.5 L 733 574.5 L 740 599.5 L 747 614.5 Q 753.8 626.6 764.5 635 Q 773.7 643.3 792.5 642 Q 821.2 636.2 836 616.5 Q 845.8 605.3 848.5 587 L 849 595.5 L 847 606.5 L 843 617.5 Q 837.2 628.7 827.5 636 Q 816.8 643.8 802.5 648 L 793.5 650 L 779.5 650 Q 758.8 645.2 748 630.5 Q 731.6 609.9 726 578.5 Q 720.9 565.6 711.5 557 Q 697.4 542.6 667.5 544 L 651.5 548 L 641.5 553 L 615 576.5 Q 606.4 585.3 602 597 L 598 599.5 L 598.5 601 Q 611.4 595.4 630.5 596 L 651.5 601 Q 667.3 607.7 678 619.5 Q 686.9 629.1 692 642.5 L 695 656.5 L 695 665.5 L 690 685.5 L 680 701.5 L 671 720.5 L 667 735.5 L 666 748.5 Q 668.5 750 667 755.5 L 672 767.5 L 680.5 777 Q 690.4 785.1 704.5 789 L 713.5 791 L 733.5 791 Q 748.9 788.4 758.5 780 L 752.5 787 L 733.5 797 L 724.5 799 L 711.5 799 Q 682.5 793.5 667 774.5 Q 657.5 763 658 741.5 L 659 740.5 L 660 728.5 L 665 713.5 L 684 678.5 L 686 671.5 L 687 657.5 Q 684.5 656 686 650.5 L 681 637.5 Q 674.3 626.2 664.5 618 Q 654.8 609.7 640.5 606 L 629.5 605 L 628.5 604 L 608.5 603 L 607.5 604 L 591.5 605 L 583.5 608 L 577.5 608 L 576 609.5 Q 588.9 616.6 598 627.5 L 609 646.5 L 613 660.5 L 614 675.5 L 613 676.5 L 612 689.5 L 608 701.5 Q 601.7 714.7 590.5 723 L 574.5 732 Q 566.5 735.5 555.5 736 L 538.5 742 Q 521.6 749.1 511 762.5 L 504 777.5 L 504 793.5 Q 509.8 818.7 526.5 833 Q 536.7 843.3 554 846.5 L 544.5 847 Q 523.8 842.7 512 829.5 Q 504.5 820.5 500 808.5 L 496 794.5 Q 497.3 787.7 495 784.5 L 496 783.5 L 497 772.5 L 501 762.5 L 514.5 747 Q 526.3 737.8 541.5 732 L 572.5 724 Q 585.5 718.5 594 708.5 L 602 694.5 L 605 683.5 Q 603.7 676.7 606 673.5 L 605 672.5 L 605 662.5 L 603 653.5 L 597 640.5 Q 586.9 625 573.5 613 L 561 605 L 563 613.5 L 563 631.5 L 561 642.5 L 555 657.5 Q 548.5 669.5 538.5 678 Q 528.8 686.8 514.5 691 L 509.5 692 L 490.5 692 L 475.5 688 L 468.5 684 L 452.5 679 L 441.5 677 L 421.5 677 Q 405.5 680 397 690.5 Q 390.2 699.2 387 711.5 L 385 720.5 L 385 736.5 Q 387.8 738.3 386 744.5 L 390 756.5 Q 394.4 766.6 402 773.5 L 400.5 773 L 387 760.5 Q 380 751.5 377 738.5 L 377 719.5 L 382 700.5 L 387 690.5 L 398.5 678 Q 413.3 665.8 443.5 669 L 461.5 673 L 486.5 683 L 491.5 684 L 507.5 684 Q 530.6 679.1 542 662.5 L 553 640.5 L 555 630.5 L 555 616.5 L 554 615.5 L 553 599.5 L 544.5 584 Q 538.1 604.1 523.5 616 Q 512.5 626 496.5 631 L 487.5 633 L 465.5 633 Q 441.2 628.3 429 611.5 L 424 604.5 L 412 578.5 Q 403.8 564.2 391.5 554 L 377.5 546 L 366.5 545 L 365.5 544 Q 363.8 546.8 357.5 545 L 346.5 549 L 326 563.5 Q 316.6 573.1 311 586.5 L 308 598.5 L 307.5 608 L 306 603.5 L 306 587.5 Q 310.3 563.8 326.5 552 Q 336.4 543.9 349.5 539 L 362.5 536 L 368.5 536 Q 370 538.5 375.5 537 L 388.5 542 L 407 557.5 L 423 581.5 L 430 598.5 L 440.5 612 Q 448.8 620.2 461.5 624 L 466.5 625 L 486.5 625 Q 513.4 619.4 527 600.5 L 541 581.5 L 548 561 L 532.5 565 L 513.5 565 Q 482.8 559.7 467 539.5 Q 459.9 531.1 456 519.5 L 454 510.5 L 454 493.5 L 466 456.5 L 468 445.5 L 468 427.5 L 464 413.5 L 455.5 402 Q 440.1 387.9 409.5 389 L 391.5 393 Q 379 398 370.5 407 L 372 404.5 L 384.5 391 L 403.5 382 Q 411.8 379.3 424.5 381 L 444.5 386 Q 458 391 466 401.5 Q 472.3 409.3 475 420.5 L 476 425.5 L 476 446.5 L 473 462.5 L 463 489.5 L 462 494.5 L 462 509.5 Q 466.8 532.7 483.5 544 Q 492.5 551.5 505.5 555 L 515.5 557 L 529.5 557 L 530.5 556 L 539.5 556 L 540.5 555 L 551.5 554 L 567.5 546 L 581 544.5 Q 564.4 536.6 553 523.5 Q 544.9 513.6 540 500.5 L 537 487.5 L 537 467.5 L 539 457.5 L 545 443.5 L 558.5 428 L 576.5 418 Q 584.5 414.5 595.5 414 L 610.5 409 Q 628.6 402.1 640 388.5 L 647 374.5 L 648 360.5 Q 642.4 329.6 621.5 314 L 607.5 306 L 598.5 304 L 598.5 303 Z " /><path fill="rgb(0,0,0)" stroke="rgb(0,0,0)" stroke-width="1" opacity="0.8862745098039215" d="M 607.5 346 Q 617.7 346.8 622 353.5 Q 625.8 358.2 624 368.5 L 617.5 377 L 610.5 380 L 605.5 380 Q 598.5 378.5 595 373.5 Q 590.5 369 592 358.5 L 597.5 350 L 602.5 347 L 607.5 346 Z " /><path fill="rgb(0,0,0)" stroke="rgb(0,0,0)" stroke-width="1" opacity="0.8862745098039215" d="M 424.5 420 Q 434.4 420.6 438 427.5 Q 441.5 431.5 440 440.5 L 433.5 450 Q 429.2 453.7 419.5 452 L 411 445.5 Q 407.3 441.2 409 431.5 L 415.5 423 L 424.5 420 Z " /><path fill="rgb(0,0,0)" stroke="rgb(0,0,0)" stroke-width="1" opacity="0.8862745098039215" d="M 763.5 451 Q 773.9 451.1 778 457.5 Q 782.5 462 781 472.5 L 774.5 481 Q 770.5 484.5 761.5 483 L 752 476.5 L 749 466.5 L 750 461.5 L 754.5 455 L 763.5 451 Z " /><path fill="rgb(0,0,0)" stroke="rgb(0,0,0)" stroke-width="1" opacity="0.8862745098039215" d="M 571.5 461 L 579.5 461 L 588 466.5 Q 592.9 470.6 591 481.5 L 584.5 490 Q 580.2 493.7 570.5 492 Q 563.6 490.4 561 484.5 Q 558.3 481.2 559 474.5 Q 560.2 466.2 566.5 463 L 571.5 461 Z " /><path fill="rgb(0,0,0)" stroke="rgb(0,0,0)" stroke-width="1" opacity="0.8862745098039215" d="M 644.5 487 Q 657.9 486.1 662 494.5 Q 665 498.5 664 506.5 Q 662.2 513.7 656.5 517 Q 652.9 519.9 645.5 519 L 636 513.5 Q 631.8 509.2 632 500.5 Q 633.4 492.4 639.5 489 L 644.5 487 Z " /><path fill="rgb(0,0,0)" stroke="rgb(0,0,0)" stroke-width="1" opacity="0.8862745098039215" d="M 497.5 493 Q 509.3 492.7 513 500.5 Q 516 504.5 515 512.5 Q 513.2 519.7 507.5 523 Q 503.5 526.5 494.5 525 L 485 517.5 L 483 508.5 Q 484.8 499.3 491.5 495 L 497.5 493 Z " /><path fill="rgb(0,0,0)" stroke="rgb(0,0,0)" stroke-width="1" opacity="0.8862745098039215" d="M 672.5 557 L 682.5 557 L 690 562.5 L 693 568.5 L 693 576.5 L 686.5 586 L 679.5 589 L 675.5 589 Q 667.4 587.6 664 581.5 Q 660.3 577.2 662 567.5 L 668.5 559 L 672.5 557 Z " /><path fill="rgb(0,0,0)" stroke="rgb(0,0,0)" stroke-width="1" opacity="0.8862745098039215" d="M 356.5 565 Q 369.8 563.8 374 571.5 L 377 581.5 L 375 588.5 L 370.5 594 L 364.5 597 L 357.5 597 Q 350.3 595.2 347 589.5 Q 344 585.5 345 577.5 Q 346.8 570.3 352.5 567 L 356.5 565 Z " /><path fill="rgb(0,0,0)" stroke="rgb(0,0,0)" stroke-width="1" opacity="0.8862745098039215" d="M 794.5 584 L 803.5 587 L 807 590.5 Q 811.3 594.7 810 604.5 Q 808.5 611 803.5 614 Q 799.5 617 792.5 617 Q 784.9 615.1 781 609.5 Q 777.3 605.2 779 595.5 L 785.5 587 L 794.5 584 Z " /><path fill="rgb(0,0,0)" stroke="rgb(0,0,0)" stroke-width="1" opacity="0.8862745098039215" d="M 470.5 585 Q 482 583.5 486 589.5 L 490 596.5 L 490 605.5 L 482.5 615 Q 478.9 617.9 471.5 617 Q 464.3 615.2 461 609.5 Q 457.3 605.2 459 595.5 L 465.5 587 L 470.5 585 Z " /><path fill="rgb(0,0,0)" stroke="rgb(0,0,0)" stroke-width="1" opacity="0.8862745098039215" d="M 644.5 633 Q 657.1 632.4 661 640.5 Q 663.9 644.1 663 651.5 Q 661.5 658.5 656.5 662 Q 652.3 666.3 642.5 665 L 633 657.5 Q 630.1 653.9 631 646.5 L 636.5 637 L 644.5 633 Z " /><path fill="rgb(0,0,0)" stroke="rgb(0,0,0)" stroke-width="1" opacity="0.8862745098039215" d="M 513.5 634 Q 528.2 631.8 532 640.5 Q 535.7 644.8 534 654.5 L 528.5 662 Q 524.3 666.3 514.5 665 L 505 658.5 L 502 651.5 L 502 647.5 Q 503.6 638.6 510.5 635 L 513.5 634 Z " /><path fill="rgb(0,0,0)" stroke="rgb(0,0,0)" stroke-width="1" opacity="0.8862745098039215" d="M 568.5 668 L 578.5 668 L 588 675.5 L 590 681.5 L 590 686.5 Q 588.4 693.4 583.5 697 L 573.5 700 L 566.5 698 L 560 691.5 Q 557.1 687.9 558 680.5 Q 559.5 673.5 564.5 670 L 568.5 668 Z " /><path fill="rgb(0,0,0)" stroke="rgb(0,0,0)" stroke-width="1" opacity="0.8862745098039215" d="M 418.5 697 L 427.5 697 L 436 703.5 Q 439 707.5 439 714.5 Q 437.8 722.3 432.5 726 L 425.5 729 L 421.5 729 Q 413.7 727.8 410 722.5 Q 406 718.1 407 708.5 L 412.5 700 L 418.5 697 Z " /><path fill="rgb(0,0,0)" stroke="rgb(0,0,0)" stroke-width="1" opacity="0.8862745098039215" d="M 716.5 726 L 723.5 728 L 729 732.5 L 732 739.5 L 732 744.5 Q 730.1 752.1 724.5 756 Q 720.2 759.7 710.5 758 L 703 752.5 Q 698.8 748.7 700 739.5 L 705.5 730 L 710.5 727 Q 715.3 728.3 716.5 726 Z " /><path fill="rgb(0,0,0)" stroke="rgb(0,0,0)" stroke-width="1" opacity="0.8862745098039215" d="M 544.5 777 Q 557.8 775.2 562 782.5 L 565 788.5 L 565 796.5 L 559.5 805 Q 555 809.5 544.5 808 L 535 800.5 Q 532 796.5 533 788.5 L 538.5 780 L 544.5 777 Z " /><path fill="rgb(0,0,0)" stroke="rgb(0,0,0)" stroke-width="1" opacity="0" d="M 0 0 L 1181 0 L 1181 1181 L 0 1181 L 0 0 Z M 599 303 L 599 304 L 608 306 L 622 314 Q 642 330 648 361 L 647 375 L 640 389 Q 629 402 611 409 L 596 414 Q 584 414 577 418 L 559 428 L 545 444 L 539 458 L 537 468 L 537 488 L 540 501 Q 545 514 553 524 Q 564 537 581 545 L 568 546 L 552 554 L 541 555 L 540 556 L 531 556 L 530 557 L 516 557 L 506 555 Q 492 552 484 544 Q 467 533 462 510 L 462 495 L 463 490 L 473 463 L 476 447 L 476 426 L 475 421 Q 472 409 466 402 Q 458 391 445 386 L 425 381 L 408 381 L 398 384 Q 381 390 372 404 L 373 405 Q 380 397 392 393 L 410 389 Q 440 388 456 402 L 464 414 L 468 428 L 468 446 L 466 457 L 454 494 L 454 511 L 456 520 Q 460 531 467 540 Q 483 560 514 565 L 533 565 L 548 561 L 549 561 L 546 566 L 544 576 L 541 582 L 527 601 Q 513 619 487 625 L 467 625 L 462 624 Q 449 620 441 612 L 430 599 L 423 582 L 407 558 L 389 542 L 376 537 Q 370 539 369 536 L 363 536 L 350 539 Q 336 544 327 552 Q 310 564 306 588 L 306 604 L 308 608 L 308 599 L 311 587 Q 317 573 326 564 L 347 549 L 358 545 Q 364 547 366 544 L 367 545 L 378 546 L 392 554 Q 404 564 412 579 L 424 605 L 429 612 Q 441 628 466 633 L 488 633 L 497 631 Q 512 626 524 616 Q 538 604 545 584 L 553 600 L 554 616 L 555 617 L 555 631 L 553 641 L 542 663 Q 531 679 508 684 L 492 684 L 487 683 L 462 673 L 444 669 Q 413 666 399 678 L 387 691 L 382 701 L 377 720 L 377 739 L 379 746 Q 386 763 400 773 L 401 773 L 390 757 L 386 745 Q 388 738 385 737 L 385 721 L 387 712 Q 390 699 397 691 Q 406 680 422 677 L 442 677 L 453 679 L 469 684 L 476 688 L 491 692 L 510 692 L 515 691 Q 529 687 539 678 Q 548 669 555 658 L 561 643 L 563 632 L 563 614 L 561 605 L 574 613 Q 587 625 597 641 L 603 654 L 605 663 L 605 673 L 606 674 Q 604 677 605 684 L 602 695 L 594 709 Q 586 719 573 724 L 542 732 Q 526 738 515 747 L 501 763 L 497 773 L 496 784 L 495 785 Q 497 788 496 795 L 500 809 Q 504 821 512 830 Q 524 843 545 847 L 554 847 Q 537 843 527 833 Q 510 819 504 794 L 504 778 L 511 763 Q 522 749 539 742 L 556 736 Q 567 736 575 732 L 591 723 Q 602 715 608 702 L 612 690 L 613 677 L 614 676 L 613 661 L 609 647 L 598 628 Q 589 617 576 610 L 578 608 L 584 608 L 592 605 L 608 604 L 609 603 L 629 604 L 630 605 L 641 606 Q 655 610 665 618 Q 674 626 681 638 L 686 651 Q 685 656 687 658 L 686 672 L 684 679 L 665 714 L 660 729 L 659 741 L 658 742 Q 658 763 667 775 Q 682 794 712 799 L 725 799 L 734 797 L 753 787 L 757 782 Q 747 788 734 791 L 714 791 L 705 789 Q 690 785 681 777 L 672 768 L 667 756 Q 669 750 666 749 L 667 736 L 671 721 L 680 702 L 690 686 L 695 666 L 695 657 L 692 643 Q 687 629 678 620 Q 667 608 652 601 L 631 596 Q 611 595 599 601 L 598 600 L 602 597 Q 606 585 615 577 L 642 553 L 652 548 L 668 544 Q 697 543 712 557 Q 721 566 726 579 Q 732 610 748 631 Q 759 645 780 650 L 794 650 L 803 648 Q 817 644 828 636 Q 837 629 843 618 L 847 607 L 849 596 L 849 587 Q 846 605 836 617 Q 821 636 793 642 Q 774 643 765 635 Q 754 627 747 615 L 740 600 L 733 575 L 724 559 L 708 544 L 694 538 L 683 536 L 666 536 L 656 538 Q 639 543 628 553 Q 616 563 609 578 Q 608 564 601 557 L 595 552 L 595 541 L 598 526 L 604 508 L 612 494 Q 626 475 653 469 L 667 469 L 678 472 L 693 481 Q 704 495 720 505 Q 732 515 752 518 L 770 517 Q 781 514 789 507 Q 800 497 807 484 L 811 475 L 813 466 L 812 447 L 804 428 L 803 428 L 807 443 L 807 457 L 805 466 Q 801 481 792 492 L 778 505 L 764 510 L 754 510 L 739 506 Q 720 498 708 484 Q 705 485 706 483 Q 692 466 668 461 L 651 461 L 643 463 Q 627 468 617 477 Q 603 488 596 506 L 593 515 L 592 528 L 591 529 L 591 541 L 592 542 L 592 548 L 578 538 Q 565 527 555 513 L 548 499 L 545 487 L 545 469 L 546 464 Q 549 452 555 444 Q 562 434 574 428 L 613 417 Q 629 411 641 400 Q 653 390 656 371 L 656 360 L 654 350 Q 650 334 641 323 Q 633 312 621 307 L 607 303 L 599 303 Z M 608 346 L 603 347 L 598 350 L 592 359 Q 591 369 595 374 Q 599 378 606 380 L 611 380 L 618 377 L 624 369 Q 626 358 622 354 Q 618 347 608 346 Z M 425 420 L 416 423 L 409 432 Q 407 441 411 446 L 420 452 Q 429 454 434 450 L 440 441 Q 441 431 438 428 Q 434 421 425 420 Z M 764 451 L 755 455 L 750 462 L 749 467 L 752 477 L 762 483 Q 771 485 775 481 L 781 473 Q 783 462 778 458 Q 774 451 764 451 Z M 572 461 L 567 463 Q 560 466 559 475 Q 558 481 561 485 Q 564 490 571 492 Q 580 494 585 490 L 591 482 Q 593 471 588 467 L 580 461 L 572 461 Z M 645 487 L 640 489 Q 633 492 632 501 Q 632 509 636 514 L 646 519 Q 653 520 657 517 Q 662 514 664 507 Q 665 499 662 495 Q 658 486 645 487 Z M 498 493 L 492 495 Q 485 499 483 509 L 485 518 L 495 525 Q 504 527 508 523 Q 513 520 515 513 Q 516 505 513 501 Q 509 493 498 493 Z M 673 557 L 669 559 L 662 568 Q 660 577 664 582 Q 667 588 676 589 L 680 589 L 687 586 L 693 577 L 693 569 L 690 563 L 683 557 L 673 557 Z M 357 565 L 353 567 Q 347 570 345 578 Q 344 586 347 590 Q 350 595 358 597 L 365 597 L 371 594 L 375 589 L 377 582 L 374 572 Q 370 564 357 565 Z M 795 584 L 786 587 L 779 596 Q 777 605 781 610 Q 785 615 793 617 Q 799 617 804 614 Q 808 611 810 605 Q 811 595 807 591 L 804 587 L 795 584 Z M 471 585 L 466 587 L 459 596 Q 457 605 461 610 Q 464 615 472 617 Q 479 618 483 615 L 490 606 L 490 597 L 486 590 Q 482 584 471 585 Z M 645 633 L 637 637 L 631 647 Q 630 654 633 658 L 643 665 Q 652 666 657 662 Q 661 658 663 652 Q 664 644 661 641 Q 657 632 645 633 Z M 514 634 L 511 635 Q 504 639 502 648 L 502 652 L 505 659 L 515 665 Q 524 666 529 662 L 534 655 Q 536 645 532 641 Q 528 632 514 634 Z M 569 668 L 565 670 Q 560 674 558 681 Q 557 688 560 692 L 567 698 L 574 700 L 584 697 Q 588 693 590 687 L 590 682 L 588 676 L 579 668 L 569 668 Z M 419 697 L 413 700 L 407 709 Q 406 718 410 723 Q 414 728 422 729 L 426 729 L 433 726 Q 438 722 439 715 Q 439 708 436 704 L 428 697 L 419 697 Z M 717 726 Q 715 728 711 727 L 706 730 L 700 740 Q 699 749 703 753 L 711 758 Q 720 760 725 756 Q 730 752 732 745 L 732 740 L 729 733 L 724 728 L 717 726 Z M 545 777 L 539 780 L 533 789 Q 532 797 535 801 L 545 808 Q 555 810 560 805 L 565 797 L 565 789 L 562 783 Q 558 775 545 777 Z " /></svg>