<svg width="1181" height="1181" version="1.1" xmlns="http://www.w3.org/2000/svg" desc="Created with imagetracer.js version 1.2.6" ><path fill="rgb(0,0,0)" stroke="rgb(0,0,0)" stroke-width="1" opacity="0.8823529411764706" d="M 674.5 351 L 678.5 353 L 691 365.5 L 697 379.5 L 698 401.5 L 696 411.5 L 690 425.5 L 676.5 440 L 661.5 448 L 652.5 450 L 635.5 458 Q 623.4 464.8 615 475.5 L 609 488.5 L 609 493.5 L 607 499.5 L 607 511.5 L 608 515 Q 634.9 522.3 650 542.5 Q 665.6 558.9 666 590.5 L 665 591.5 L 665 600.5 L 663.5 607 L 662 587.5 L 657 571.5 L 648 553.5 L 633.5 537 Q 622.8 528.2 608.5 523 L 594.5 520 L 578.5 520 L 567.5 522 L 552.5 528 Q 539.2 535.2 530 546.5 Q 520.9 557.4 516 572.5 L 513 587.5 L 513 602.5 L 515 613.5 L 522 631.5 L 538.5 652 Q 547.5 660 559.5 665 Q 572.7 670.8 592.5 670 L 593.5 669 L 604.5 668 L 618.5 663 Q 633.9 656.4 645 645.5 L 652.5 636 L 652 637.5 Q 645.2 651.7 634 661.5 Q 653 664 662 676.5 L 673 698.5 L 674 703.5 L 674 718.5 L 668 739.5 L 655 765.5 Q 652.6 772.6 654 783.5 Q 659.7 803.3 674.5 814 L 689.5 824 L 704 830.5 L 692.5 832 L 691.5 831 L 678.5 830 L 673.5 828 L 656 813.5 L 645 795.5 L 642 785.5 Q 643.3 778.7 641 775.5 L 642 774.5 L 642 766.5 L 645 756.5 L 656 736.5 L 660 725.5 L 662 716.5 L 662 705.5 Q 659.7 694.3 654 686.5 L 634.5 665 L 631.5 663 Q 614 679.5 578.5 678 L 563.5 675 L 556.5 672 L 558 674.5 L 564 688.5 L 565 702.5 Q 560.8 726.8 544.5 739 Q 527.2 752.2 500.5 756 Q 489.9 759.9 483 767.5 Q 475.9 775.4 473 787.5 L 472 806.5 L 474 812.5 L 475 824.5 L 480 838.5 L 468 827.5 L 461 814.5 L 460 809.5 L 460 790.5 Q 462.4 775.9 469 765.5 L 479.5 754 L 492.5 746 L 521.5 738 Q 534.4 732.9 543 723.5 L 551 708.5 L 555 679.5 Q 552.3 677.8 554 671.5 L 552.5 670 Q 534.1 662.4 523 647.5 L 515.5 636 L 508 655.5 L 499.5 664 L 477.5 675 L 458.5 676 L 441.5 672 L 416.5 660 L 407.5 658 L 397.5 658 Q 379.1 662.1 369 674.5 L 357 692.5 L 349.5 711 L 348 706.5 L 348 688.5 Q 353.1 669.1 367.5 659 Q 377 651 390.5 647 Q 398.4 644.4 410.5 646 L 424.5 650 Q 436 657.5 450.5 662 L 461.5 664 L 469.5 664 L 486.5 658 L 508 639.5 L 513 632.5 L 513 630.5 L 506 610.5 L 505 585.5 L 507 574.5 L 509 570.5 L 507.5 570 L 506 573 L 498.5 579 L 485.5 584 L 480.5 585 L 459.5 585 Q 439.1 581.4 428 568.5 L 419 555.5 Q 414.4 539.6 406 527.5 L 393.5 513 L 378.5 504 L 365.5 503 L 364.5 502 L 355.5 502 L 345.5 504 L 348.5 500 L 366.5 491 L 377.5 491 Q 398.7 496.8 410 512.5 L 421 528.5 L 432 553.5 L 442.5 565 Q 454.2 574.8 477.5 573 L 501.5 566 L 513 559.5 Q 519 544 530.5 534 L 543 524.5 Q 543.9 521.1 538.5 523 Q 524.9 520.1 517 511.5 L 509 495.5 L 508 490.5 L 508 467.5 L 515 442.5 L 523 424.5 L 524 410.5 Q 519.6 388.4 503.5 378 L 482.5 366 L 469 361.5 L 486.5 359 L 487.5 360 L 495.5 360 L 504.5 364 L 522 378.5 Q 530.8 388.2 535 402.5 L 536 421.5 L 532 436.5 L 527 445.5 L 521 464.5 Q 522.3 469.3 520 470.5 L 520 488.5 L 525 501.5 L 540.5 519 L 544.5 522 L 547.5 522 L 559.5 516 L 570.5 513 Q 575.3 514.3 576.5 512 L 595.5 512 L 604 514 L 598 500.5 L 597 485.5 Q 602.1 467.1 615.5 457 L 637.5 443 L 666.5 432 L 677 422.5 Q 686.7 410.7 686 388.5 L 682 374.5 L 682 369.5 L 674.5 351 Z " /><path fill="rgb(0,0,0)" stroke="rgb(0,0,0)" stroke-width="1" opacity="0.8823529411764706" d="M 651.5 392 Q 657.7 391.4 660 394 L 662 397.5 L 662 403.5 L 658.5 408 L 651.5 409 L 646 404.5 L 645 398.5 L 647 394 L 651.5 392 Z " /><path fill="rgb(0,0,0)" stroke="rgb(0,0,0)" stroke-width="1" opacity="0.8823529411764706" d="M 489.5 402 Q 497.4 401.1 499 406.5 L 500 413.5 L 498 417 L 494.5 419 L 488.5 419 L 484 415.5 L 483 408.5 L 487.5 403 L 489.5 402 Z " /><path fill="rgb(0,0,0)" stroke="rgb(0,0,0)" stroke-width="1" opacity="0.8823529411764706" d="M 816.5 467 L 819 473.5 L 820 488.5 Q 815.4 510.4 800.5 522 Q 792 529.5 780.5 534 L 771.5 536 L 756.5 536 L 720.5 524 L 708.5 523 L 707.5 522 L 698.5 522 L 688.5 524 L 679.5 528 L 663 543.5 L 658.5 551 L 658 544.5 L 662 530.5 L 668.5 521 Q 682.3 508.3 710.5 510 L 734.5 515 L 754.5 523 L 769.5 524 Q 790 519.5 800 504.5 L 813 480.5 L 816.5 467 Z " /><path fill="rgb(0,0,0)" stroke="rgb(0,0,0)" stroke-width="1" opacity="0.8823529411764706" d="M 545.5 471 L 549.5 472 L 553 475.5 L 554 482.5 L 550.5 487 L 542.5 488 L 538 484.5 L 537 477.5 L 541.5 472 L 545.5 471 Z " /><path fill="rgb(0,0,0)" stroke="rgb(0,0,0)" stroke-width="1" opacity="0.8823529411764706" d="M 635.5 479 Q 643.5 477.5 646 481.5 Q 648.7 483.8 648 489.5 L 643.5 495 L 639.5 496 L 635.5 495 L 631 490.5 Q 629.3 480.8 635.5 479 Z " /><path fill="rgb(0,0,0)" stroke="rgb(0,0,0)" stroke-width="1" opacity="0.8823529411764706" d="M 765.5 483 Q 773.8 481.7 776 486.5 L 777 494.5 L 773.5 499 L 766.5 500 L 761 495.5 L 760 489.5 L 762 485 L 765.5 483 Z " /><path fill="rgb(0,0,0)" stroke="rgb(0,0,0)" stroke-width="1" opacity="0.8823529411764706" d="M 370.5 528 Q 378.8 526.7 381 531.5 L 382 539.5 L 380 543 L 372.5 545 L 366 540.5 L 365 535.5 L 370.5 528 Z " /><path fill="rgb(0,0,0)" stroke="rgb(0,0,0)" stroke-width="1" opacity="0.8823529411764706" d="M 463.5 540 Q 472.5 538.5 475 543.5 L 476 549.5 L 471.5 556 L 466.5 557 L 460 552.5 L 459 545.5 L 463.5 540 Z " /><path fill="rgb(0,0,0)" stroke="rgb(0,0,0)" stroke-width="1" opacity="0.8823529411764706" d="M 697.5 540 Q 707 538 709 543.5 L 710 550.5 L 705.5 556 L 701.5 557 L 694 552.5 L 693 546.5 L 697.5 540 Z " /><path fill="rgb(0,0,0)" stroke="rgb(0,0,0)" stroke-width="1" opacity="0.8823529411764706" d="M 688.5 605 L 696.5 605 L 704.5 607 L 712.5 611 Q 724.1 617.9 732 628.5 L 740 640.5 L 753 668.5 L 762.5 679 Q 774.4 689.6 799.5 687 L 822.5 680 L 835.5 673 L 835 674.5 Q 829.6 685.1 820.5 692 L 806.5 698 L 787.5 700 L 770.5 697 L 759.5 692 L 745 678.5 L 738 666.5 L 730 647.5 Q 723 635 712.5 626 L 698.5 618 L 680.5 616 L 679.5 617 L 665.5 618 L 666.5 616 Q 675.3 608.3 688.5 605 Z " /><path fill="rgb(0,0,0)" stroke="rgb(0,0,0)" stroke-width="1" opacity="0.8823529411764706" d="M 662.5 608 L 663 610.5 L 662 610.5 L 662.5 608 Z " /><path fill="rgb(0,0,0)" stroke="rgb(0,0,0)" stroke-width="1" opacity="0.8823529411764706" d="M 467.5 629 Q 475.4 628.1 477 633.5 L 478 640.5 L 474.5 645 L 466.5 646 Q 460.9 643.6 461 635.5 L 465.5 630 L 467.5 629 Z " /><path fill="rgb(0,0,0)" stroke="rgb(0,0,0)" stroke-width="1" opacity="0.8823529411764706" d="M 694.5 639 Q 702.8 637.7 705 642.5 L 706 649.5 L 701.5 655 L 695.5 656 L 691 654 Q 688.4 651.7 689 645.5 L 692.5 640 L 694.5 639 Z " /><path fill="rgb(0,0,0)" stroke="rgb(0,0,0)" stroke-width="1" opacity="0.8823529411764706" d="M 782.5 647 Q 790.1 645.9 792 650.5 L 793 658.5 L 789.5 663 L 782.5 664 L 777 659.5 L 776 655.5 L 780.5 648 L 782.5 647 Z " /><path fill="rgb(0,0,0)" stroke="rgb(0,0,0)" stroke-width="1" opacity="0.8823529411764706" d="M 396.5 678 Q 404.4 677.1 406 682.5 L 407 689.5 L 403.5 694 L 395.5 695 L 392 693 Q 389.4 690.7 390 684.5 L 392 680 L 396.5 678 Z " /><path fill="rgb(0,0,0)" stroke="rgb(0,0,0)" stroke-width="1" opacity="0.8823529411764706" d="M 521.5 697 Q 528.4 696.3 531 699 Q 533.6 701.3 533 707.5 L 528.5 713 L 522.5 714 L 516 708.5 Q 514.7 700.2 519.5 698 L 521.5 697 Z " /><path fill="rgb(0,0,0)" stroke="rgb(0,0,0)" stroke-width="1" opacity="0.8823529411764706" d="M 633.5 699 Q 642.1 697.9 644 703.5 Q 645.5 711.5 641.5 714 Q 639.2 716.7 633.5 716 L 628 711.5 L 627 706.5 L 631.5 700 L 633.5 699 Z " /><path fill="rgb(0,0,0)" stroke="rgb(0,0,0)" stroke-width="1" opacity="0.8823529411764706" d="M 679.5 772 Q 688.5 770.5 690 776.5 L 691 781.5 L 687.5 787 L 680.5 789 L 675 785.5 L 674 777.5 L 677.5 773 L 679.5 772 Z " /><path fill="rgb(0,0,0)" stroke="rgb(0,0,0)" stroke-width="1" opacity="0.8823529411764706" d="M 500.5 780 Q 507.1 779.4 509 783.5 L 511 789.5 L 505.5 797 Q 496.1 798.4 494 792.5 L 493 788.5 L 497.5 781 L 500.5 780 Z " /><path fill="rgb(0,0,0)" stroke="rgb(0,0,0)" stroke-width="1" opacity="0" d="M 0 0 L 1181 0 L 1181 1181 L 0 1181 L 0 0 Z M 675 351 L 682 370 L 682 375 L 686 389 Q 687 411 677 423 L 667 432 L 638 443 L 616 457 Q 602 467 597 486 L 598 501 L 604 514 L 596 512 L 577 512 Q 575 514 571 513 L 560 516 L 548 522 L 545 522 L 541 519 L 525 502 L 520 489 L 520 471 Q 522 469 521 465 L 527 446 L 532 437 L 536 422 L 535 403 Q 531 388 522 379 L 505 364 L 496 360 L 488 360 L 487 359 L 469 362 L 483 366 L 504 378 Q 520 388 524 411 L 523 425 L 515 443 L 508 468 L 508 491 L 509 496 L 517 512 Q 525 520 539 523 Q 544 521 543 525 L 531 534 Q 519 544 513 560 L 502 566 L 478 573 Q 454 575 443 565 L 432 554 L 421 529 L 410 513 Q 399 497 378 491 L 367 491 L 349 500 L 346 504 L 356 502 L 365 502 L 366 503 L 379 504 L 394 513 L 406 528 Q 414 540 419 556 L 428 569 Q 439 581 460 585 L 481 585 L 486 584 L 499 579 L 506 573 L 508 570 L 509 571 L 507 575 L 505 586 L 506 611 L 513 631 L 513 633 L 508 640 L 487 658 L 470 664 L 462 664 L 451 662 Q 436 658 425 650 L 411 646 Q 398 644 391 647 Q 377 651 368 659 Q 353 669 348 689 L 348 707 L 350 711 L 357 693 L 369 675 Q 379 662 398 658 L 408 658 L 417 660 L 442 672 L 459 676 L 478 675 L 500 664 L 508 656 L 516 636 L 523 648 Q 534 662 553 670 L 554 672 Q 552 678 555 680 L 551 709 L 543 724 Q 534 733 522 738 L 493 746 L 480 754 L 469 766 Q 462 776 460 791 L 460 810 L 461 815 L 468 828 L 480 839 L 475 825 L 474 813 L 472 807 L 473 788 Q 476 775 483 768 Q 490 760 501 756 Q 527 752 545 739 Q 561 727 565 703 L 564 689 L 558 675 L 557 672 L 564 675 L 579 678 Q 614 680 632 663 L 635 665 L 654 687 Q 660 694 662 706 L 662 717 L 660 726 L 656 737 L 645 757 L 642 767 L 642 775 L 641 776 Q 643 779 642 786 L 645 796 L 656 814 L 674 828 L 679 830 L 692 831 L 693 832 L 704 831 L 690 824 L 675 814 Q 660 803 654 784 Q 653 773 655 766 L 668 740 L 674 719 L 674 704 L 673 699 L 662 677 Q 653 664 634 662 L 650 642 L 650 640 L 645 646 Q 634 656 619 663 L 605 668 L 594 669 L 593 670 Q 573 671 560 665 Q 548 660 539 652 L 522 632 L 515 614 L 513 603 L 513 588 L 516 573 Q 521 557 530 547 Q 539 535 553 528 L 568 522 L 579 520 L 595 520 L 609 523 Q 623 528 634 537 L 648 554 L 657 572 L 662 588 L 664 607 L 665 601 L 665 592 L 666 591 Q 666 559 650 543 Q 635 522 608 515 L 607 512 L 607 500 L 609 494 L 609 489 L 615 476 Q 623 465 636 458 L 653 450 L 662 448 L 677 440 L 690 426 L 696 412 L 698 402 L 697 380 L 691 366 L 679 353 L 675 351 Z M 652 392 L 647 394 L 645 399 L 646 405 L 652 409 L 659 408 L 662 404 L 662 398 L 660 394 Q 658 391 652 392 Z M 490 402 L 488 403 L 483 409 L 484 416 L 489 419 L 495 419 L 498 417 L 500 414 L 499 407 Q 497 401 490 402 Z M 817 467 L 813 481 L 800 505 Q 790 519 770 524 L 755 523 L 735 515 L 711 510 Q 682 508 669 521 L 662 531 L 658 545 L 659 551 L 663 544 L 680 528 L 689 524 L 699 522 L 708 522 L 709 523 L 721 524 L 757 536 L 772 536 L 781 534 Q 792 530 801 522 Q 815 510 820 489 L 819 474 L 817 467 Z M 546 471 L 542 472 L 537 478 L 538 485 L 543 488 L 551 487 L 554 483 L 553 476 L 550 472 L 546 471 Z M 636 479 Q 629 481 631 491 L 636 495 L 640 496 L 644 495 L 648 490 Q 649 484 646 482 Q 643 478 636 479 Z M 766 483 L 762 485 L 760 490 L 761 496 L 767 500 L 774 499 L 777 495 L 776 487 Q 774 482 766 483 Z M 371 528 L 365 536 L 366 541 L 373 545 L 380 543 L 382 540 L 381 532 Q 379 527 371 528 Z M 464 540 L 459 546 L 460 553 L 467 557 L 472 556 L 476 550 L 475 544 Q 473 538 464 540 Z M 698 540 L 693 547 L 694 553 L 702 557 L 706 556 L 710 551 L 709 544 Q 707 538 698 540 Z M 689 605 Q 675 608 667 616 L 666 618 L 680 617 L 681 616 L 699 618 L 713 626 Q 723 635 730 648 L 738 667 L 745 679 L 760 692 L 771 697 L 788 700 L 807 698 L 821 692 Q 830 685 835 675 L 836 673 L 823 680 L 800 687 Q 774 690 763 679 L 753 669 L 740 641 L 732 629 Q 724 618 713 611 L 705 607 L 697 605 L 689 605 Z M 663 608 L 662 611 L 663 611 L 663 608 Z M 468 629 L 466 630 L 461 636 Q 461 644 467 646 L 475 645 L 478 641 L 477 634 Q 475 628 468 629 Z M 695 639 L 693 640 L 689 646 Q 688 652 691 654 L 696 656 L 702 655 L 706 650 L 705 643 Q 703 638 695 639 Z M 783 647 L 781 648 L 776 656 L 777 660 L 783 664 L 790 663 L 793 659 L 792 651 Q 790 646 783 647 Z M 397 678 L 392 680 L 390 685 Q 389 691 392 693 L 396 695 L 404 694 L 407 690 L 406 683 Q 404 677 397 678 Z M 522 697 L 520 698 Q 515 700 516 709 L 523 714 L 529 713 L 533 708 Q 534 701 531 699 Q 528 696 522 697 Z M 634 699 L 632 700 L 627 707 L 628 712 L 634 716 Q 639 717 642 714 Q 645 711 644 704 Q 642 698 634 699 Z M 680 772 L 678 773 L 674 778 L 675 786 L 681 789 L 688 787 L 691 782 L 690 777 Q 689 771 680 772 Z M 501 780 L 498 781 L 493 789 L 494 793 Q 496 798 506 797 L 511 790 L 509 784 Q 507 779 501 780 Z " /></svg>