<svg width="1181" height="1181" version="1.1" xmlns="http://www.w3.org/2000/svg" desc="Created with imagetracer.js version 1.2.6" ><path fill="rgb(0,0,0)" stroke="rgb(0,0,0)" stroke-width="1" opacity="0.8784313725490196" d="M 578.5 447 L 602.5 447 Q 604.2 449.8 610.5 448 L 625.5 451 L 643.5 457 Q 675.1 470.4 696 494.5 Q 712.1 512.9 722 537.5 L 728 564.5 L 728 587 L 732 584.5 L 741.5 574 Q 751.6 565.1 766.5 561 L 777.5 559 L 798.5 559 Q 813 561.5 823.5 568 Q 839.2 577.8 851 591.5 L 865 610.5 L 874.5 620 Q 883.5 628 896.5 632 L 905.5 634 L 922.5 634 L 937.5 631 L 953.5 624 Q 970.4 614.4 983 600.5 L 989.5 592 L 990 593.5 Q 982.1 611.6 968.5 624 Q 954.8 634.8 935.5 640 L 924.5 642 L 903.5 642 Q 876 636.5 861 618.5 Q 848.1 598.4 830.5 583 Q 819.8 574.2 805.5 569 L 796.5 567 L 779.5 567 L 768.5 569 L 748.5 576 L 733.5 585 L 728 590.5 L 726 607.5 L 722.5 621 L 722 615.5 L 723 614.5 L 723 586.5 L 720 569.5 L 714 550.5 L 701 522.5 Q 689 502.5 671.5 488 Q 653.9 473.1 629.5 465 L 607.5 460 L 583.5 459 L 582.5 460 L 573.5 460 L 558.5 463 L 530.5 474 Q 508.5 486 493 504.5 Q 475.9 524.4 467 552.5 L 462 578.5 L 462 603.5 L 466 625.5 L 475 649.5 Q 485.8 671.2 502.5 687 Q 522 706 550.5 716 L 565.5 720 L 578.5 721 L 579.5 722 L 602.5 722 L 627.5 717 L 648.5 709 Q 675.3 697.3 694 677.5 L 704.5 664 L 704 665.5 Q 690.6 690.6 669.5 708 L 648.5 722 L 623.5 731 L 613.5 733 L 606.5 733 L 605.5 734 L 574.5 734 L 547.5 728 L 520.5 716 Q 499.5 703.5 484 685.5 Q 470 669.5 461 648.5 L 454 628.5 L 449.5 604 Q 442.1 611.6 431.5 616 L 420.5 619 L 406.5 619 Q 384.8 615.2 369.5 605 Q 350.7 592.8 336 576.5 L 321.5 561 Q 311.6 552.9 297.5 549 L 276.5 548 L 261.5 551 L 243.5 559 Q 227.9 568.9 216 582.5 L 206.5 596 L 206 594.5 Q 212.5 575 225.5 562 Q 238.4 550.4 256.5 544 L 274.5 540 L 293.5 540 Q 324.1 546.4 340 567.5 L 356.5 585 Q 370.5 598 389.5 606 L 402.5 610 L 418.5 611 L 433.5 607 L 450 599 L 451 566.5 L 459 537.5 Q 472.3 504.8 496.5 483 Q 513.9 466.9 537.5 457 L 559.5 450 L 577.5 448 L 578.5 447 Z " /><path fill="rgb(0,0,0)" stroke="rgb(0,0,0)" stroke-width="1" opacity="0.8784313725490196" d="M 578.5 501 L 600.5 501 L 622.5 507 Q 642.9 516.1 656 532.5 Q 664.8 543.2 670 557.5 L 673 573.5 L 673 587.5 L 669.5 605 L 669 599.5 L 670 598.5 L 670 590.5 L 666 569.5 L 660 554.5 Q 652.6 538.9 640.5 528 Q 629.1 517.4 612.5 512 L 598.5 509 L 580.5 509 L 566.5 512 L 556.5 516 L 535 531 L 524 545.5 L 517 559.5 L 513 574.5 L 512 592.5 L 515 609.5 L 523 628.5 Q 530.5 641 541.5 650 Q 552.7 659.3 568.5 664 L 584.5 667 L 594.5 667 L 595.5 666 L 607.5 665 L 634.5 654 Q 647 646.5 656 635.5 L 657.5 633 L 657 634.5 Q 650 648.5 638.5 658 Q 627 668.5 609.5 673 L 597.5 674 L 596.5 675 L 582.5 675 L 566.5 672 L 547.5 664 Q 535.1 656.9 526 646.5 Q 516 635.5 510 620.5 L 505 602.5 L 504 580.5 L 507 563.5 L 515 544.5 Q 523.6 529.6 536.5 519 L 556.5 507 L 578.5 501 Z " /><path fill="rgb(0,0,0)" stroke="rgb(0,0,0)" stroke-width="1" opacity="0.8784313725490196" d="M 402.5 554 Q 410 554 413 558.5 Q 416.3 561.7 416 568.5 Q 414.5 575 409.5 578 L 400.5 579 L 393 573.5 L 391 565.5 L 392 561.5 L 395.5 557 L 402.5 554 Z " /><path fill="rgb(0,0,0)" stroke="rgb(0,0,0)" stroke-width="1" opacity="0.8784313725490196" d="M 908.5 578 L 916.5 578 L 922 581 L 925 587.5 L 925 592.5 L 920.5 600 Q 917.3 603.8 908.5 602 L 902 596.5 Q 899.5 593 901 585.5 L 906.5 579 L 908.5 578 Z " /><path fill="rgb(0,0,0)" stroke="rgb(0,0,0)" stroke-width="1" opacity="0.8784313725490196" d="M 278.5 585 Q 288.9 583.6 292 589.5 Q 295.2 592.8 294 600.5 L 288.5 608 L 282.5 610 L 275.5 608 L 272 604.5 Q 268.8 601.2 270 593.5 L 274.5 587 L 278.5 585 Z " /><path fill="rgb(0,0,0)" stroke="rgb(0,0,0)" stroke-width="1" opacity="0.8784313725490196" d="M 787.5 596 Q 797.9 594.6 801 600.5 Q 804.2 603.8 803 611.5 L 797.5 619 L 790.5 621 Q 783.9 620.1 781 615.5 Q 777.8 612.2 779 604.5 L 783.5 598 L 787.5 596 Z " /><path fill="rgb(0,0,0)" stroke="rgb(0,0,0)" stroke-width="1" opacity="0.8784313725490196" d="M 721.5 622 L 722 624.5 L 721 624.5 L 721.5 622 Z " /><path fill="rgb(0,0,0)" stroke="rgb(0,0,0)" stroke-width="1" opacity="0" d="M 0 0 L 1181 0 L 1181 1181 L 0 1181 L 0 0 Z M 579 447 L 578 448 L 560 450 L 538 457 Q 514 467 497 483 Q 472 505 459 538 L 451 567 L 450 599 L 434 607 L 419 611 L 403 610 L 390 606 Q 371 598 357 585 L 340 568 Q 324 546 294 540 L 275 540 L 257 544 Q 238 550 226 562 Q 212 575 206 595 L 207 596 L 216 583 Q 228 569 244 559 L 262 551 L 277 548 L 298 549 Q 312 553 322 561 L 336 577 Q 351 593 370 605 Q 385 615 407 619 L 421 619 L 432 616 Q 442 612 450 604 L 454 629 L 461 649 Q 470 670 484 686 Q 499 704 521 716 L 548 728 L 575 734 L 606 734 L 607 733 L 614 733 L 624 731 L 649 722 L 670 708 Q 689 692 702 670 L 702 668 L 694 678 Q 675 697 649 709 L 628 717 L 603 722 L 580 722 L 579 721 L 566 720 L 551 716 Q 522 706 503 687 Q 486 671 475 650 L 466 626 L 462 604 L 462 579 L 467 553 Q 476 524 493 505 Q 509 486 531 474 L 559 463 L 574 460 L 583 460 L 584 459 L 608 460 L 630 465 Q 654 473 672 488 Q 689 502 701 523 L 714 551 L 720 570 L 723 587 L 723 615 L 722 616 L 723 621 L 726 608 L 728 591 L 728 589 L 730 589 L 734 585 L 749 576 L 769 569 L 780 567 L 797 567 L 806 569 Q 820 574 831 583 Q 848 598 861 619 Q 876 636 904 642 L 925 642 L 936 640 Q 955 635 969 624 Q 982 612 990 594 L 990 592 L 983 601 Q 970 614 954 624 L 938 631 L 923 634 L 906 634 L 897 632 Q 884 628 875 620 L 865 611 L 851 592 Q 839 578 824 568 Q 813 562 799 559 L 778 559 L 767 561 Q 752 565 742 574 L 732 585 L 728 587 L 728 565 L 722 538 Q 712 513 696 495 Q 675 470 644 457 L 626 451 L 611 448 Q 604 450 603 447 L 579 447 Z M 579 501 L 557 507 L 537 519 Q 524 530 515 545 L 507 564 L 504 581 L 505 603 L 510 621 Q 516 636 526 647 Q 535 657 548 664 L 567 672 L 583 675 L 597 675 L 598 674 L 610 673 Q 627 669 639 658 L 655 639 L 655 637 Q 643 651 625 659 L 608 665 L 596 666 L 595 667 L 585 667 L 569 664 Q 553 659 542 650 Q 530 641 523 629 L 515 610 L 512 593 L 513 575 L 517 560 L 524 546 L 535 531 L 557 516 L 567 512 L 581 509 L 599 509 L 613 512 Q 629 517 641 528 Q 653 539 660 555 L 666 570 L 670 591 L 670 599 L 669 600 L 670 605 L 673 588 L 673 574 L 670 558 Q 665 543 656 533 Q 643 516 623 507 L 601 501 L 579 501 Z M 403 554 L 396 557 L 392 562 L 391 566 L 393 574 L 401 579 L 410 578 Q 414 575 416 569 Q 416 562 413 559 Q 410 554 403 554 Z M 909 578 L 907 579 L 901 586 Q 900 593 902 597 L 909 602 Q 917 604 921 600 L 925 593 L 925 588 L 922 581 L 917 578 L 909 578 Z M 279 585 L 275 587 L 270 594 Q 269 601 272 605 L 276 608 L 283 610 L 289 608 L 294 601 Q 295 593 292 590 Q 289 584 279 585 Z M 788 596 L 784 598 L 779 605 Q 778 612 781 616 Q 784 620 791 621 L 798 619 L 803 612 Q 804 604 801 601 Q 798 595 788 596 Z M 722 622 L 721 625 L 722 625 L 722 622 Z " /></svg>