<svg width="1181" height="1181" version="1.1" xmlns="http://www.w3.org/2000/svg" desc="Created with imagetracer.js version 1.2.6" ><path fill="rgb(0,0,0)" stroke="rgb(0,0,0)" stroke-width="1" opacity="0.9098039215686274" d="M 595.5 378 L 659 481 L 799.5 481 L 800 482.5 L 731 601.5 L 803 725.5 L 656 726 L 592.5 829 L 593 827.5 L 647 726 L 524 726.5 L 578 826.5 L 576 825.5 L 515 726 L 375.5 726 L 375 724.5 L 441 611.5 L 443 604.5 L 371 481.5 L 517.5 481 L 519 479.5 L 581.5 379 L 581 380.5 L 535 465.5 L 528 481 L 649.5 481 L 650 479.5 L 595.5 378 Z M 394 494 L 396 501 L 451 594 L 509 496 L 509 494 L 394 494 Z M 520 494 L 512 511 L 457 607 L 507 694 L 516 712 L 519 714 L 653 714 L 657 709 L 662 698 L 717 602 L 717 600 L 665 510 L 659 497 L 657 494 L 520 494 Z M 669 494 L 724 589 L 778 496 L 778 494 L 669 494 Z M 724 613 L 665 713 L 666 714 L 781 714 L 780 710 L 724 613 Z M 451 618 L 396 713 L 397 714 L 506 714 L 504 709 L 451 618 Z " /><path fill="rgb(0,0,0)" stroke="rgb(0,0,0)" stroke-width="1" opacity="0.9098039215686274" d="M 587.5 561 Q 607.9 562.1 616 575.5 L 621 588.5 L 621 598.5 Q 617.9 612.9 607.5 620 L 595.5 625 L 582.5 625 Q 569.8 621.7 563 612.5 Q 556.2 604.8 557 589.5 Q 559.7 574.2 570.5 567 L 575.5 564 L 587.5 561 Z " /><path fill="rgb(0,0,0)" stroke="rgb(0,0,0)" stroke-width="1" opacity="0.9098039215686274" d="M 578.5 828 L 579.5 830 L 578.5 828 Z " /><path fill="rgb(0,0,0)" stroke="rgb(0,0,0)" stroke-width="1" opacity="0" d="M 0 0 L 1181 0 L 1181 1181 L 0 1181 L 0 0 Z M 579 384 L 577 387 L 579 386 L 579 384 Z M 577 387 L 519 480 L 518 481 L 371 482 L 443 605 L 441 612 L 375 725 L 376 726 L 515 726 L 570 816 L 572 817 L 524 727 L 647 726 L 597 820 L 598 821 L 656 726 L 803 726 L 731 602 L 800 483 L 800 481 L 659 481 L 603 390 L 601 389 L 650 480 L 650 481 L 528 481 L 535 466 L 577 389 L 577 387 Z M 573 817 L 573 821 L 575 822 L 573 817 Z " /><path fill="rgb(0,0,0)" stroke="rgb(0,0,0)" stroke-width="1" opacity="0" d="M 393.5 494 L 508.5 494 L 509 495.5 L 450.5 594 L 396 500.5 L 393.5 494 Z " /><path fill="rgb(0,0,0)" stroke="rgb(0,0,0)" stroke-width="1" opacity="0" d="M 520 494 L 656.5 494 L 659 496.5 L 665 509.5 L 717 599.5 L 717 601.5 L 662 697.5 L 657 708.5 L 652.5 714 L 518.5 714 L 516 711.5 L 507 693.5 L 457 606.5 L 512 510.5 L 520 494 Z M 588 561 L 576 564 L 571 567 Q 560 574 557 590 Q 556 605 563 613 Q 570 622 583 625 L 596 625 L 608 620 Q 618 613 621 599 L 621 589 L 616 576 Q 608 562 588 561 Z " /><path fill="rgb(0,0,0)" stroke="rgb(0,0,0)" stroke-width="1" opacity="0" d="M 668.5 494 L 777.5 494 L 778 495.5 L 723.5 589 L 668.5 494 Z " /><path fill="rgb(0,0,0)" stroke="rgb(0,0,0)" stroke-width="1" opacity="0" d="M 723.5 613 L 780 709.5 L 781 714 L 665.5 714 L 665 712.5 L 723.5 613 Z " /><path fill="rgb(0,0,0)" stroke="rgb(0,0,0)" stroke-width="1" opacity="0" d="M 450.5 618 L 504 708.5 L 506 714 L 396.5 714 L 396 712.5 L 450.5 618 Z " /></svg>