<svg width="1181" height="1181" version="1.1" xmlns="http://www.w3.org/2000/svg" desc="Created with imagetracer.js version 1.2.6" ><path fill="rgb(0,0,0)" stroke="rgb(0,0,0)" stroke-width="1" opacity="0.8392156862745098" d="M 588.5 280 Q 598.6 278.4 602 283.5 Q 606.3 286.7 605 295.5 L 600.5 302 Q 596.8 305.3 588.5 304 L 582 298.5 L 580 291.5 Q 581.1 284.1 586.5 281 L 588.5 280 Z " /><path fill="rgb(0,0,0)" stroke="rgb(0,0,0)" stroke-width="1" opacity="0.8392156862745098" d="M 591.5 345 L 593 411 L 627.5 413 L 658 419 Q 674.8 393.7 698.5 374 L 732.5 349 L 730.5 352 Q 705.3 368.3 686 390.5 L 670 409.5 L 663 421 Q 713.9 434.9 746 468.5 Q 764.5 487.5 778 511.5 L 794 546.5 L 799 561.5 L 800 568.5 L 802.5 573 Q 820.9 559.9 836 543.5 Q 857.5 521 870.5 490 L 871 491.5 Q 854.4 533.9 823.5 562 L 803 578.5 L 809 610.5 L 810 631 L 870 632.5 L 868.5 634 L 825.5 634 L 824.5 635 L 674 636.5 L 718.5 646 L 745.5 655 L 783.5 673 L 800 683 L 805 662.5 L 807.5 643 L 808 651.5 L 807 652.5 L 805 673.5 L 802 686 Q 822.3 698.3 838 716.5 Q 862.2 742.3 875 779.5 L 874 779.5 Q 866.8 760.2 856 744.5 Q 842.1 724.9 824.5 709 L 801.5 691 L 791 724.5 L 778 752.5 Q 762.3 781.3 739.5 803 Q 710.3 831.6 666 844 Q 676.1 861.4 692.5 874 Q 716.4 896.6 751 908.5 L 748.5 909 Q 697 890.5 665 852.5 L 660.5 847 L 623.5 854 L 592.5 855 L 591 856.5 L 589.5 908 L 588 901.5 L 588 858.5 L 587 855 L 559.5 854 L 530.5 849 L 522.5 846 Q 506.7 866.7 487.5 884 Q 470.7 899.7 450.5 912 L 452.5 909 Q 472.8 895.8 489 878.5 L 517 845.5 L 496.5 838 L 469.5 824 Q 445.9 809.1 428 788.5 Q 397.9 754.1 382.5 705 L 348 735.5 Q 329 754.5 314.5 778 L 315 776.5 Q 334.1 742.6 361.5 717 L 381 700.5 L 381 696.5 L 379 692.5 L 374 670.5 L 371 642.5 L 372 642.5 Q 374.8 673.7 384.5 698 Q 414.1 674.1 451.5 658 L 495.5 643 L 526 637 L 525.5 635 L 449.5 635 L 448.5 634 L 395.5 634 L 394.5 633 L 355.5 633 L 354.5 632 L 322.5 632 L 321.5 631 L 302 630.5 L 372 629 L 376 593.5 L 382 569.5 L 347 537.5 Q 326.9 516.6 312 490.5 L 314 491.5 Q 331.9 520.1 356.5 542 L 383.5 564 Q 402.8 499.3 447.5 460 Q 476.4 433.7 519 422 Q 510.2 407.6 497.5 396 Q 470.8 368.2 431 353.5 L 432.5 353 Q 480.5 369.5 511 403.5 L 524.5 420 L 534.5 417 L 557.5 413 L 589 411 L 589 400.5 L 590 399.5 L 590 367.5 L 591 366.5 L 591.5 345 Z M 585 419 L 584 420 L 558 421 L 530 426 L 553 466 L 568 504 L 580 553 L 586 594 L 586 584 L 587 583 L 587 496 L 588 495 L 588 441 L 589 440 L 589 420 Q 589 418 585 419 Z M 595 419 L 593 421 L 593 434 L 594 435 L 594 585 L 596 585 L 598 565 L 603 538 L 616 494 Q 630 456 652 427 L 651 425 L 628 421 L 595 419 Z M 657 427 Q 632 464 617 513 L 607 556 L 605 577 L 604 578 L 604 588 L 603 589 L 603 604 L 602 605 L 602 627 L 604 628 L 609 627 L 631 627 L 632 626 L 662 624 L 696 618 L 716 613 Q 764 600 799 575 Q 784 521 752 485 Q 734 464 711 449 Q 687 434 657 427 Z M 523 428 Q 477 441 447 470 Q 406 507 387 567 L 416 585 L 444 599 L 476 611 L 506 619 L 533 624 L 548 625 L 549 626 L 559 626 L 560 627 L 577 627 Q 578 629 579 627 L 578 599 L 577 598 L 575 570 L 565 520 L 556 491 L 548 471 Q 539 449 526 431 L 523 428 Z M 386 572 L 382 580 L 378 595 L 374 615 L 373 629 L 397 629 L 398 628 L 506 628 L 506 626 L 484 621 L 439 604 Q 410 590 386 572 Z M 800 581 Q 775 599 745 611 L 718 620 L 689 627 Q 684 626 685 629 L 753 629 L 754 630 L 801 630 L 802 631 L 809 631 L 807 608 L 801 584 Q 802 580 800 581 Z M 571 639 L 570 640 L 557 640 L 556 641 L 540 642 L 511 647 L 466 660 L 429 676 L 386 702 Q 401 749 431 783 Q 448 801 469 815 Q 491 830 522 838 L 537 815 L 551 787 L 561 761 L 566 745 L 574 710 L 576 691 L 577 690 L 577 681 L 578 680 L 578 669 L 579 668 L 579 640 L 579 639 L 571 639 Z M 603 639 Q 606 764 661 838 Q 703 827 732 801 Q 779 760 798 690 L 788 682 L 769 672 Q 744 661 717 653 L 686 646 L 661 643 L 660 642 L 640 641 L 639 640 L 624 640 L 623 639 L 603 639 Z M 594 663 L 593 794 L 592 795 L 592 841 L 591 847 L 623 846 L 624 845 L 643 843 L 655 840 Q 632 810 618 772 L 608 740 L 603 718 L 599 695 L 598 681 L 597 680 L 597 671 L 596 670 Q 597 662 594 663 Z M 586 681 L 579 723 L 567 765 Q 551 806 527 840 L 552 845 L 570 846 L 571 847 L 587 847 L 586 681 Z " /><path fill="rgb(0,0,0)" stroke="rgb(0,0,0)" stroke-width="1" opacity="0.8392156862745098" d="M 257.5 620 Q 268.3 618.2 271 624.5 L 273 631.5 Q 271.8 637.3 267.5 640 L 260.5 642 Q 254.8 640.8 252 636.5 L 250 630.5 Q 250.9 623.9 255.5 621 L 257.5 620 Z " /><path fill="rgb(0,0,0)" stroke="rgb(0,0,0)" stroke-width="1" opacity="0.8392156862745098" d="M 921.5 620 Q 931.3 618.3 934 623.5 Q 937.2 626.8 936 634.5 L 931.5 640 L 923.5 642 L 917 639 L 914 632.5 L 914 628.5 L 919.5 621 L 921.5 620 Z " /><path fill="rgb(0,0,0)" stroke="rgb(0,0,0)" stroke-width="1" opacity="0.8392156862745098" d="M 808.5 636 L 809 638.5 L 808 638.5 L 808.5 636 Z " /><path fill="rgb(0,0,0)" stroke="rgb(0,0,0)" stroke-width="1" opacity="0.8392156862745098" d="M 448.5 912 L 447.5 914 L 448.5 912 Z " /><path fill="rgb(0,0,0)" stroke="rgb(0,0,0)" stroke-width="1" opacity="0.8392156862745098" d="M 589.5 957 Q 598.9 955.6 601 961.5 L 603 968.5 L 598.5 976 Q 596.2 978.7 590.5 978 L 584 975 Q 581 971.8 582 963.5 L 585.5 959 L 589.5 957 Z " /><path fill="rgb(0,0,0)" stroke="rgb(0,0,0)" stroke-width="1" opacity="0" d="M 0 0 L 1181 0 L 1181 1181 L 0 1181 L 0 0 Z M 589 280 L 587 281 Q 581 284 580 292 L 582 299 L 589 304 Q 597 305 601 302 L 605 296 Q 606 287 602 284 Q 599 278 589 280 Z M 592 345 L 591 367 L 590 368 L 590 400 L 589 401 L 589 411 L 558 413 L 535 417 L 525 420 L 511 404 Q 482 372 439 355 L 436 356 Q 473 370 498 396 Q 510 408 519 422 Q 476 434 448 460 Q 403 499 384 564 L 357 542 Q 336 524 321 502 L 318 500 Q 331 520 347 538 L 382 570 L 377 589 L 374 612 L 373 613 L 374 621 L 378 595 L 384 574 L 386 572 Q 410 590 439 604 Q 468 618 503 626 Q 507 625 506 628 L 398 628 L 397 629 L 373 629 L 373 621 L 372 629 L 302 631 L 322 631 L 323 632 L 355 632 L 356 633 L 395 633 L 396 634 L 449 634 L 450 635 L 526 635 L 526 637 L 496 643 L 452 658 Q 414 674 385 698 Q 375 674 372 643 L 371 643 L 374 671 L 379 693 L 381 697 L 381 701 L 362 717 Q 338 739 320 768 L 321 769 Q 333 751 348 736 L 383 705 Q 398 754 428 789 Q 446 809 470 824 L 497 838 L 517 846 L 489 879 Q 476 893 460 904 L 458 907 Q 474 897 488 884 Q 507 867 523 846 L 531 849 L 560 854 L 587 855 L 588 859 L 588 902 L 590 908 L 591 857 L 593 855 L 624 854 L 661 847 L 665 853 Q 695 888 743 907 L 745 907 Q 715 894 693 874 Q 676 861 666 844 Q 710 832 740 803 Q 762 781 778 753 L 791 725 L 802 691 L 825 709 Q 842 725 856 745 L 872 775 L 873 775 Q 861 740 838 717 Q 822 698 802 686 L 805 674 L 807 653 L 808 652 L 808 643 L 805 663 L 800 683 L 784 673 L 746 655 L 719 646 L 674 637 L 825 635 L 826 634 L 869 634 L 870 633 L 810 631 L 809 611 L 803 579 L 824 562 Q 853 535 870 495 L 870 492 Q 857 522 836 544 Q 821 560 803 573 L 800 569 L 799 562 L 794 547 L 778 512 Q 765 487 746 469 Q 714 435 663 421 L 670 410 L 686 391 Q 703 372 724 357 L 726 354 L 699 374 Q 675 394 658 419 L 628 413 L 593 411 L 592 345 Z M 728 352 L 727 354 L 729 353 L 728 352 Z M 434 354 L 434 355 L 436 355 L 434 354 Z M 317 496 L 316 498 L 318 499 L 317 496 Z M 258 620 L 256 621 Q 251 624 250 631 L 252 637 Q 255 641 261 642 L 268 640 Q 272 637 273 632 L 271 625 Q 268 618 258 620 Z M 922 620 L 920 621 L 914 629 L 914 633 L 917 639 L 924 642 L 932 640 L 936 635 Q 937 627 934 624 Q 931 618 922 620 Z M 809 636 L 808 639 L 809 639 L 809 636 Z M 320 769 L 318 772 L 320 771 L 320 769 Z M 874 775 L 873 778 L 874 778 L 874 775 Z M 456 907 L 455 909 L 457 908 L 456 907 Z M 746 907 L 746 908 L 748 908 L 746 907 Z M 749 908 L 749 909 L 751 909 L 749 908 Z M 453 909 L 452 911 L 454 910 L 453 909 Z M 590 957 L 586 959 L 582 964 Q 581 972 584 975 L 591 978 Q 596 979 599 976 L 603 969 L 601 962 Q 599 956 590 957 Z " /><path fill="rgb(0,0,0)" stroke="rgb(0,0,0)" stroke-width="1" opacity="0" d="M 584.5 419 Q 589 418.5 589 419.5 L 589 439.5 L 588 440.5 L 588 494.5 L 587 495.5 L 587 582.5 L 586 583.5 L 585.5 594 L 580 552.5 L 568 503.5 L 553 465.5 L 530 426 L 557.5 421 L 583.5 420 L 584.5 419 Z " /><path fill="rgb(0,0,0)" stroke="rgb(0,0,0)" stroke-width="1" opacity="0" d="M 594.5 419 L 627.5 421 L 650.5 425 L 652 426.5 Q 630.2 456.2 616 493.5 L 603 537.5 L 598 564.5 L 596 585 L 594 584.5 L 594 434.5 L 593 433.5 L 593 420.5 L 594.5 419 Z " /><path fill="rgb(0,0,0)" stroke="rgb(0,0,0)" stroke-width="1" opacity="0" d="M 657 427 Q 687 434.2 710.5 449 Q 734 464 752 484.5 Q 783.9 521.1 799 574.5 Q 763.7 600.2 715.5 613 L 695.5 618 L 661.5 624 L 631.5 626 L 630.5 627 L 608.5 627 L 603.5 628 L 602 626.5 L 602 604.5 L 603 603.5 L 603 588.5 L 604 587.5 L 604 577.5 L 605 576.5 L 607 555.5 L 617 512.5 Q 632 464.3 657 427 Z " /><path fill="rgb(0,0,0)" stroke="rgb(0,0,0)" stroke-width="1" opacity="0" d="M 522.5 428 L 526 430.5 Q 538.6 448.9 548 470.5 L 556 490.5 L 565 519.5 L 575 569.5 L 577 597.5 L 578 598.5 L 579 626.5 Q 577.8 629.3 576.5 627 L 559.5 627 L 558.5 626 L 548.5 626 L 547.5 625 L 532.5 624 L 505.5 619 L 475.5 611 L 443.5 599 L 415.5 585 L 387 566.5 Q 405.5 507 446.5 470 Q 476.9 441.4 522.5 428 Z " /><path fill="rgb(0,0,0)" stroke="rgb(0,0,0)" stroke-width="1" opacity="0" d="M 799.5 581 Q 802.1 580.2 801 583.5 L 807 607.5 L 809 631 L 801.5 631 L 800.5 630 L 753.5 630 L 752.5 629 L 685 629 Q 683.7 625.7 688.5 627 L 717.5 620 L 744.5 611 Q 775.1 599.1 799.5 581 Z " /><path fill="rgb(0,0,0)" stroke="rgb(0,0,0)" stroke-width="1" opacity="0" d="M 570.5 639 L 578.5 639 L 579 639.5 L 579 667.5 L 578 668.5 L 578 679.5 L 577 680.5 L 577 689.5 L 576 690.5 L 574 709.5 L 566 744.5 L 561 760.5 L 551 786.5 L 537 814.5 L 521.5 838 Q 491.2 830.3 468.5 815 Q 447.6 800.9 431 782.5 Q 401 749.2 386 702 L 428.5 676 L 465.5 660 L 510.5 647 L 539.5 642 L 555.5 641 L 556.5 640 L 569.5 640 L 570.5 639 Z " /><path fill="rgb(0,0,0)" stroke="rgb(0,0,0)" stroke-width="1" opacity="0" d="M 603 639 L 622.5 639 L 623.5 640 L 638.5 640 L 639.5 641 L 659.5 642 L 660.5 643 L 685.5 646 L 716.5 653 Q 744.3 660.7 768.5 672 L 787.5 682 L 798 689.5 Q 779.3 759.8 731.5 801 Q 703.1 826.6 660.5 838 Q 606 763.7 603 639 Z " /><path fill="rgb(0,0,0)" stroke="rgb(0,0,0)" stroke-width="1" opacity="0" d="M 594 663 Q 597.5 661.9 596 669.5 L 597 670.5 L 597 679.5 L 598 680.5 L 599 694.5 L 603 717.5 L 608 739.5 L 618 771.5 Q 632 810 655 839.5 L 642.5 843 L 623.5 845 L 622.5 846 L 591 847 L 592 840.5 L 592 794.5 L 593 793.5 L 594 663 Z " /><path fill="rgb(0,0,0)" stroke="rgb(0,0,0)" stroke-width="1" opacity="0" d="M 585.5 681 L 587 847 L 570.5 847 L 569.5 846 L 551.5 845 L 527 839.5 Q 551.5 806.5 567 764.5 L 579 722.5 L 585.5 681 Z " /></svg>