<svg width="1181" height="1181" version="1.1" xmlns="http://www.w3.org/2000/svg" desc="Created with imagetracer.js version 1.2.6" ><path fill="rgb(0,0,0)" stroke="rgb(0,0,0)" stroke-width="1" opacity="0" d="M 0 0 L 1181 0 L 1181 1181 L 0 1181 L 0 0 Z M 627 325 L 612 329 L 600 336 Q 591 343 585 354 L 581 364 L 580 375 L 579 376 Q 579 398 591 409 Q 600 419 618 422 Q 638 423 648 413 Q 656 406 659 393 Q 661 376 654 369 Q 648 360 636 358 L 628 358 L 620 361 Q 613 365 610 374 L 611 378 L 612 374 Q 616 367 624 365 L 631 365 L 641 370 L 647 382 Q 648 394 643 400 Q 638 408 627 410 Q 612 411 605 404 Q 595 398 592 386 L 592 370 L 601 352 L 613 342 L 629 337 Q 655 337 668 350 Q 680 361 685 381 L 685 402 Q 683 403 684 408 L 675 438 L 659 471 L 646 492 L 628 527 L 618 551 L 615 562 L 615 567 L 609 570 L 601 579 L 596 572 L 590 552 L 580 494 L 572 463 L 561 432 Q 553 413 541 399 Q 531 386 516 379 L 507 376 L 493 375 L 492 374 Q 463 375 448 390 Q 433 402 429 424 L 429 438 L 431 447 L 439 463 Q 449 477 470 481 L 487 480 Q 497 477 504 471 L 513 460 L 517 446 Q 517 430 510 422 Q 504 412 491 409 Q 478 409 471 414 L 464 421 L 461 427 Q 462 431 460 433 L 463 444 L 465 445 L 464 442 Q 463 433 466 429 Q 470 422 478 420 L 488 420 L 496 424 Q 502 429 504 437 L 504 450 L 499 459 Q 492 466 480 469 Q 464 470 457 463 Q 444 454 441 436 L 442 421 L 449 407 Q 460 391 482 387 L 500 387 L 508 389 L 525 399 Q 542 416 552 442 L 563 476 L 568 501 L 580 545 L 590 571 L 598 583 L 596 591 Q 595 598 597 602 L 589 600 L 573 592 L 522 557 L 477 532 L 451 522 L 425 517 L 412 517 L 401 519 Q 387 523 378 531 Q 367 539 361 551 L 355 566 L 354 577 L 353 578 L 353 586 L 355 597 Q 358 608 365 616 Q 377 631 401 635 L 412 635 L 421 633 L 435 625 Q 447 615 450 597 Q 451 578 443 570 Q 435 558 419 555 L 410 555 L 398 560 Q 388 567 386 581 Q 386 589 389 595 Q 393 602 402 604 L 405 604 L 399 600 L 393 591 L 393 585 L 396 577 Q 401 569 413 567 Q 423 567 429 572 Q 436 577 438 589 Q 438 601 433 609 Q 426 620 410 623 L 403 623 L 394 621 L 380 613 Q 370 605 366 591 L 366 573 L 368 565 L 377 549 L 392 536 L 404 531 L 414 529 L 423 529 L 424 530 L 437 531 L 465 540 L 491 553 L 544 585 L 572 599 Q 583 605 599 606 Q 601 614 609 619 Q 611 618 610 621 L 586 631 L 515 646 L 474 659 Q 445 669 426 688 Q 410 701 406 726 L 406 745 L 408 754 Q 413 770 424 781 Q 435 792 454 796 L 472 796 Q 485 793 495 786 Q 509 776 513 755 L 512 740 L 505 725 L 493 713 L 483 709 Q 477 711 476 708 L 463 710 L 451 717 Q 444 722 441 732 L 441 745 L 447 757 Q 452 763 462 765 L 468 765 L 476 762 L 477 760 L 475 761 Q 464 763 460 759 Q 453 755 451 746 Q 451 736 455 731 Q 459 723 469 721 Q 483 719 489 725 L 497 735 L 501 748 Q 501 762 494 770 Q 485 780 470 784 Q 448 786 438 776 Q 422 764 418 742 L 419 723 Q 422 711 428 704 Q 445 684 472 673 L 503 662 L 537 654 L 584 639 L 605 629 L 614 622 Q 619 625 629 624 L 627 633 L 617 652 L 580 705 L 562 736 Q 552 753 546 775 L 542 796 L 542 812 L 544 822 Q 548 836 557 846 Q 571 863 599 868 L 614 868 L 623 866 L 640 857 L 653 842 L 658 830 L 660 819 L 659 806 L 651 789 Q 642 776 625 772 L 609 772 L 593 780 Q 583 788 580 803 Q 579 818 586 826 Q 592 832 603 835 L 613 835 L 623 830 L 629 820 L 629 816 L 626 822 L 617 828 Q 605 830 600 824 Q 594 819 592 811 Q 592 800 596 795 Q 601 787 611 784 L 623 784 L 637 791 Q 644 797 647 809 Q 649 820 646 828 L 639 841 Q 630 853 612 856 L 601 856 L 592 854 L 576 846 Q 558 834 554 810 L 554 798 L 555 797 L 556 785 L 565 758 L 581 727 Q 601 698 618 666 L 627 647 L 633 623 L 641 621 L 649 615 L 657 639 L 662 668 L 665 696 L 675 740 L 687 773 Q 694 787 704 800 L 721 814 L 734 820 L 748 823 L 761 823 L 775 820 L 794 810 Q 810 798 815 775 L 815 760 L 813 751 Q 809 740 803 733 Q 794 721 777 717 Q 753 715 742 726 Q 731 734 728 749 L 728 762 L 734 776 Q 740 785 752 788 Q 768 789 776 782 Q 782 777 784 767 L 782 756 L 780 755 L 781 760 L 778 770 Q 774 776 766 778 L 759 778 L 750 774 Q 742 769 740 760 Q 739 745 746 739 Q 752 731 764 729 L 779 730 L 791 737 Q 800 746 803 762 Q 804 782 794 793 L 781 804 L 769 809 L 758 811 L 740 809 Q 728 806 721 799 Q 702 782 693 756 L 682 718 L 678 693 L 666 645 Q 661 626 651 612 Q 656 604 656 593 L 664 595 L 677 602 L 720 633 L 759 657 L 791 672 L 807 677 L 817 679 L 824 679 L 825 680 L 838 680 L 849 678 Q 862 674 872 666 Q 882 657 889 645 L 893 635 L 896 618 Q 895 593 882 580 Q 874 571 863 566 L 846 562 Q 828 562 818 570 Q 803 580 799 601 Q 798 619 806 628 Q 814 639 831 642 L 845 641 L 852 637 L 859 629 L 863 616 L 862 608 L 859 602 Q 855 596 848 593 L 844 594 L 848 595 Q 854 599 856 607 L 856 613 L 853 621 Q 848 628 838 630 Q 826 630 821 625 Q 813 620 811 609 Q 811 595 817 588 Q 823 578 836 575 L 851 575 Q 860 577 867 582 Q 879 591 883 608 Q 885 620 882 629 Q 878 641 871 650 L 856 662 L 846 666 L 836 668 L 827 668 L 826 667 L 819 667 L 809 665 L 784 656 L 759 643 Q 727 622 694 603 L 673 593 L 655 588 Q 653 576 644 571 L 664 563 L 696 556 L 722 552 L 775 537 Q 802 527 823 510 Q 840 496 845 470 L 845 452 L 843 443 L 832 421 Q 820 404 796 399 L 777 400 Q 763 403 755 411 L 745 422 L 740 433 L 738 444 L 740 459 Q 743 469 750 476 Q 758 484 773 487 Q 790 488 799 480 Q 806 474 810 465 L 810 451 L 803 437 L 793 431 Q 780 429 775 434 L 774 436 L 778 434 Q 788 433 793 437 Q 798 441 800 450 L 800 456 L 795 467 L 789 472 L 779 475 Q 769 475 764 471 Q 754 465 751 453 L 751 439 Q 753 429 759 424 L 771 415 L 785 411 L 799 412 L 815 420 Q 829 432 833 454 L 833 468 L 831 477 L 823 492 Q 807 511 782 521 L 751 532 L 712 541 L 669 554 L 641 568 Q 633 563 619 565 L 629 542 L 659 496 L 677 463 L 688 438 L 693 423 L 697 404 L 697 379 Q 694 361 684 350 Q 674 337 659 330 L 640 325 L 627 325 Z M 632 430 L 629 431 Q 624 434 622 441 L 624 448 L 630 452 Q 636 453 640 451 L 644 446 Q 645 439 643 436 Q 640 430 632 430 Z M 520 471 L 517 472 L 511 479 Q 510 485 512 489 L 518 493 Q 524 494 528 492 Q 532 489 533 483 L 532 478 Q 529 471 520 471 Z M 740 483 L 733 486 L 729 492 Q 728 499 731 502 L 739 506 L 747 504 L 751 497 L 750 490 Q 748 483 740 483 Z M 603 518 L 601 519 L 596 525 Q 595 531 597 535 L 604 540 L 610 540 L 615 537 L 617 533 Q 618 526 616 523 Q 613 516 603 518 Z M 654 527 L 650 529 L 645 536 L 646 544 Q 649 551 661 549 L 667 542 Q 668 535 665 532 L 659 527 L 654 527 Z M 558 546 L 556 547 L 550 554 L 551 563 L 558 568 L 567 567 L 572 560 Q 573 553 570 551 Q 568 544 558 546 Z M 685 568 L 681 570 L 677 576 L 678 585 L 685 590 Q 692 591 695 588 L 697 586 L 699 580 L 697 573 Q 694 567 685 568 Z M 467 582 L 465 583 L 459 591 L 460 599 L 467 604 L 476 603 L 481 596 Q 482 589 479 587 Q 477 580 467 582 Z M 777 596 L 775 597 Q 770 600 769 606 L 771 614 L 778 618 L 786 617 L 791 611 Q 792 603 789 600 Q 786 595 777 596 Z M 553 602 L 548 604 L 543 611 Q 542 618 545 621 L 553 625 Q 559 625 562 622 L 565 616 L 564 609 Q 561 602 553 602 Z M 680 619 L 676 621 L 671 629 L 673 637 L 679 641 Q 687 643 690 639 L 693 634 L 692 625 Q 689 618 680 619 Z M 586 645 L 582 647 L 577 655 Q 576 660 579 663 L 585 667 L 594 666 L 599 660 L 598 651 Q 595 644 586 645 Z M 635 651 L 633 652 L 628 659 L 629 668 L 637 673 L 641 673 L 647 670 L 650 663 L 648 656 Q 645 649 635 651 Z M 513 697 L 511 698 L 505 705 L 506 714 L 513 719 L 522 718 Q 526 715 527 710 L 525 702 Q 522 696 513 697 Z M 723 701 L 718 703 L 713 710 Q 712 717 715 720 L 723 724 Q 729 724 732 721 L 735 715 L 735 711 L 732 704 Q 729 701 723 701 Z M 611 741 L 609 742 L 603 750 Q 602 756 605 759 L 612 763 Q 618 764 621 761 L 625 755 L 624 747 Q 622 739 611 741 Z " /><path fill="rgb(0,0,0)" stroke="rgb(0,0,0)" stroke-width="1" opacity="0.9568627450980393" d="M 626.5 325 L 639.5 325 L 658.5 330 Q 674.1 336.9 684 349.5 Q 693.5 361 697 378.5 L 697 403.5 L 693 422.5 L 688 437.5 L 677 462.5 L 659 495.5 L 629 541.5 L 619 565 Q 632.7 563.1 640.5 568 L 668.5 554 L 711.5 541 L 750.5 532 L 781.5 521 Q 806.7 510.7 823 491.5 L 831 476.5 L 833 467.5 L 833 453.5 Q 829 431.5 814.5 420 L 798.5 412 L 784.5 411 L 770.5 415 L 759 423.5 Q 753.3 429.3 751 438.5 L 751 452.5 Q 754.3 464.7 763.5 471 Q 768.8 475.2 778.5 475 L 788.5 472 L 795 466.5 L 800 455.5 L 800 449.5 Q 798.3 441.2 792.5 437 Q 788 432.5 777.5 434 L 773.5 436 L 774.5 434 Q 780 429 792.5 431 L 803 437 L 810 450.5 L 810 464.5 Q 806.2 474.2 798.5 480 Q 789.5 487.5 772.5 487 Q 758.1 484.4 750 475.5 Q 743.4 468.6 740 458.5 L 738 443.5 L 740 432.5 L 745 421.5 L 754.5 411 Q 763.3 403.3 776.5 400 L 795.5 399 Q 820 403.5 832 420.5 L 843 442.5 L 845 451.5 L 845 469.5 Q 840.1 496.1 822.5 510 Q 802.1 527.1 774.5 537 L 721.5 552 L 695.5 556 L 663.5 563 L 644 570.5 Q 652.9 576.4 655 588 L 672.5 593 L 693.5 603 Q 727.4 621.6 758.5 643 L 783.5 656 L 808.5 665 L 818.5 667 L 825.5 667 L 826.5 668 L 835.5 668 L 845.5 666 L 855.5 662 L 871 649.5 Q 878.4 640.9 882 628.5 Q 884.7 620.2 883 607.5 Q 879 590.5 866.5 582 Q 860.1 576.9 850.5 575 L 835.5 575 Q 823.3 578.3 817 587.5 Q 810.6 594.6 811 608.5 Q 813 619.5 820.5 625 Q 826.4 630.1 837.5 630 Q 847.9 627.9 853 620.5 L 856 612.5 L 856 606.5 Q 853.9 598.6 847.5 595 L 844 593.5 L 847.5 593 Q 854.9 595.6 859 601.5 L 862 607.5 L 863 615.5 L 859 628.5 L 851.5 637 L 844.5 641 L 830.5 642 Q 814.1 638.9 806 627.5 Q 797.9 618.6 799 600.5 Q 802.9 579.9 817.5 570 Q 827.5 562 845.5 562 L 862.5 566 Q 874.2 570.8 882 579.5 Q 895 592.5 896 617.5 L 893 634.5 L 889 644.5 Q 882.4 657.4 871.5 666 Q 862 674 848.5 678 L 837.5 680 L 824.5 680 L 823.5 679 L 816.5 679 L 806.5 677 L 790.5 672 L 758.5 657 L 719.5 633 L 676.5 602 L 663.5 595 L 656 593 Q 656.1 604.3 651 611.5 Q 660.9 625.6 666 644.5 L 678 692.5 L 682 717.5 L 693 755.5 Q 702.4 781.6 720.5 799 Q 728.3 805.7 739.5 809 L 757.5 811 L 768.5 809 L 780.5 804 L 794 792.5 Q 804 782.5 803 761.5 Q 800.3 745.7 790.5 737 L 778.5 730 L 763.5 729 Q 752.3 731.3 746 738.5 Q 738.8 744.8 740 759.5 Q 742.1 769.4 749.5 774 L 758.5 778 L 765.5 778 Q 773.9 775.9 778 769.5 L 781 759.5 L 778 751.5 L 780 752.5 Q 784 757.5 784 766.5 Q 782.3 776.8 775.5 782 Q 767.9 789.4 751.5 788 Q 739.9 784.6 734 775.5 L 728 761.5 L 728 748.5 Q 731.3 733.8 741.5 726 Q 752.8 715.3 776.5 717 Q 793.8 720.7 803 732.5 Q 809.5 740 813 750.5 L 815 759.5 L 815 774.5 Q 810.1 798.1 793.5 810 L 774.5 820 L 760.5 823 L 747.5 823 L 733.5 820 L 720.5 814 L 704 799.5 Q 694 787.5 687 772.5 L 675 739.5 L 665 695.5 L 662 667.5 L 657 638.5 L 649 615 L 640.5 621 L 633 623 L 627 646.5 L 618 665.5 Q 601.2 697.7 581 726.5 L 565 757.5 L 556 784.5 L 555 796.5 L 554 797.5 L 554 809.5 Q 558.1 834.4 575.5 846 L 591.5 854 L 600.5 856 L 611.5 856 Q 629.9 852.9 639 840.5 L 646 827.5 Q 648.5 820 647 808.5 Q 644.3 797.3 636.5 791 L 622.5 784 L 610.5 784 Q 600.8 786.8 596 794.5 Q 591.6 800.1 592 810.5 Q 593.9 819.1 599.5 824 Q 604.5 829.5 616.5 828 L 626 821.5 L 628.5 816 L 629 819.5 L 622.5 830 L 612.5 835 L 602.5 835 Q 592 832.5 586 825.5 Q 578.8 818.2 580 802.5 Q 582.8 787.8 592.5 780 L 608.5 772 L 624.5 772 Q 641.9 776.1 651 788.5 L 659 805.5 L 660 818.5 L 658 829.5 L 653 841.5 L 639.5 857 L 622.5 866 L 613.5 868 L 598.5 868 Q 571.3 863.3 557 845.5 Q 548.4 835.6 544 821.5 L 542 811.5 L 542 795.5 L 546 774.5 Q 552.3 753.3 562 735.5 L 580 704.5 L 617 651.5 L 627 632.5 L 629 624 Q 619.5 625.3 613.5 622 L 604.5 629 L 583.5 639 L 536.5 654 L 502.5 662 L 471.5 673 Q 445.3 683.8 428 703.5 Q 421.8 711.3 419 722.5 L 418 741.5 Q 422 764.5 437.5 776 Q 447.9 785.6 469.5 784 Q 485.4 780.4 494 769.5 Q 501 762 501 747.5 L 497 734.5 L 488.5 725 Q 482.5 719 468.5 721 Q 459.4 723.4 455 730.5 Q 450.8 735.8 451 745.5 Q 452.9 754.6 459.5 759 Q 464.2 762.8 474.5 761 L 477.5 759 L 475.5 762 L 467.5 765 L 461.5 765 Q 452.1 762.9 447 756.5 L 441 744.5 L 441 731.5 Q 443.8 722.3 450.5 717 L 462.5 710 L 475.5 708 Q 477 710.5 482.5 709 L 492.5 713 L 505 724.5 L 512 739.5 L 513 754.5 Q 509.4 775.9 494.5 786 Q 485.3 793.3 471.5 796 L 453.5 796 Q 434.9 792.1 424 780.5 Q 413.2 769.8 408 753.5 L 406 744.5 L 406 725.5 Q 410.5 701.5 425.5 688 Q 445.5 669.5 473.5 659 L 514.5 646 L 585.5 631 L 610 621 Q 611.1 618.3 608.5 619 Q 601.5 614.2 599 606 Q 583.4 604.9 571.5 599 L 543.5 585 L 490.5 553 L 464.5 540 L 436.5 531 L 423.5 530 L 422.5 529 L 413.5 529 L 403.5 531 L 391.5 536 L 377 548.5 L 368 564.5 L 366 572.5 L 366 590.5 Q 369.7 604.8 379.5 613 L 393.5 621 L 402.5 623 L 409.5 623 Q 425.8 620.3 433 608.5 Q 438.3 601.3 438 588.5 Q 436 577.5 428.5 572 Q 422.8 567.2 412.5 567 Q 401.2 568.7 396 576.5 L 393 584.5 L 393 590.5 L 398.5 600 L 405 603.5 L 401.5 604 Q 392.9 601.6 389 594.5 Q 385.9 589.1 386 580.5 Q 388.3 566.8 397.5 560 L 409.5 555 L 418.5 555 Q 434.9 558.1 443 569.5 Q 451.1 578.4 450 596.5 Q 446.7 615.2 434.5 625 L 420.5 633 L 411.5 635 L 400.5 635 Q 376.9 631.1 365 615.5 Q 358.3 607.7 355 596.5 L 353 585.5 L 353 577.5 L 354 576.5 L 355 565.5 L 361 550.5 Q 367.5 539 377.5 531 Q 387 523 400.5 519 L 411.5 517 L 424.5 517 L 450.5 522 L 476.5 532 L 521.5 557 L 572.5 592 L 588.5 600 L 597 602 Q 595.2 598.2 596 590.5 L 598 582.5 L 590 570.5 L 580 544.5 L 568 500.5 L 563 475.5 L 552 441.5 Q 542.2 416.3 524.5 399 L 507.5 389 L 499.5 387 L 481.5 387 Q 459.9 391.4 449 406.5 L 442 420.5 L 441 435.5 Q 444.1 453.9 456.5 463 Q 464.2 469.8 479.5 469 Q 492 466.5 499 458.5 L 504 449.5 L 504 436.5 Q 501.5 428.5 495.5 424 L 487.5 420 L 477.5 420 Q 469.6 422.1 466 428.5 Q 462.5 432.5 464 441.5 L 466 445.5 L 463 443.5 L 460 432.5 Q 462.2 431.3 461 426.5 L 464 420.5 L 470.5 414 Q 477.7 408.7 490.5 409 Q 504 411.5 510 421.5 Q 517.1 429.9 517 445.5 L 513 459.5 L 503.5 471 Q 496.7 477.2 486.5 480 L 469.5 481 Q 448.9 477.1 439 462.5 L 431 446.5 L 429 437.5 L 429 423.5 Q 433.1 401.6 447.5 390 Q 463 375.5 491.5 374 L 492.5 375 L 506.5 376 L 515.5 379 Q 531.1 385.9 541 398.5 Q 552.9 413.1 561 431.5 L 572 462.5 L 580 493.5 L 590 551.5 L 596 571.5 L 600.5 579 L 608.5 570 L 615 567 L 615 561.5 L 618 550.5 L 628 526.5 L 646 491.5 L 659 470.5 L 675 437.5 L 684 407.5 Q 682.8 402.8 685 401.5 L 685 380.5 Q 680.5 361 667.5 350 Q 654.5 337 628.5 337 L 612.5 342 L 601 351.5 L 592 369.5 L 592 385.5 Q 595.3 397.7 604.5 404 Q 611.9 410.6 626.5 410 Q 637.6 407.6 643 399.5 Q 648.4 393.9 647 381.5 L 641 370 L 630.5 365 L 623.5 365 Q 615.6 367.1 612 373.5 L 610.5 378 L 610 373.5 Q 612.9 365.4 619.5 361 L 627.5 358 L 635.5 358 Q 647.6 360.4 654 368.5 Q 661 376 659 392.5 Q 656 405.5 647.5 413 Q 638.1 423.1 617.5 422 Q 600.3 419.2 591 408.5 Q 579.3 397.7 579 375.5 L 580 374.5 L 581 363.5 L 585 353.5 Q 590.6 343.1 599.5 336 L 611.5 329 L 626.5 325 Z " /><path fill="rgb(0,0,0)" stroke="rgb(0,0,0)" stroke-width="1" opacity="0.9568627450980393" d="M 631.5 430 Q 640.4 429.6 643 435.5 Q 645.3 438.7 644 445.5 L 639.5 451 Q 636.3 453.3 629.5 452 L 624 447.5 L 622 440.5 Q 623.5 434 628.5 431 L 631.5 430 Z " /><path fill="rgb(0,0,0)" stroke="rgb(0,0,0)" stroke-width="1" opacity="0.9568627450980393" d="M 519.5 471 Q 529.3 470.7 532 477.5 L 533 482.5 Q 532.1 489.1 527.5 492 Q 524.3 494.3 517.5 493 L 512 488.5 Q 509.7 485.3 511 478.5 L 516.5 472 L 519.5 471 Z " /><path fill="rgb(0,0,0)" stroke="rgb(0,0,0)" stroke-width="1" opacity="0.9568627450980393" d="M 739.5 483 Q 747.6 483.4 750 489.5 L 751 496.5 L 746.5 504 L 738.5 506 L 731 501.5 Q 728 498.5 729 491.5 L 732.5 486 L 739.5 483 Z " /><path fill="rgb(0,0,0)" stroke="rgb(0,0,0)" stroke-width="1" opacity="0.9568627450980393" d="M 602.5 518 Q 613.3 516.2 616 522.5 Q 618.3 525.7 617 532.5 L 615 537 L 609.5 540 L 603.5 540 L 597 534.5 Q 594.7 531.3 596 524.5 L 600.5 519 L 602.5 518 Z " /><path fill="rgb(0,0,0)" stroke="rgb(0,0,0)" stroke-width="1" opacity="0.9568627450980393" d="M 653.5 527 L 658.5 527 L 665 531.5 Q 668 534.5 667 541.5 L 660.5 549 Q 648.7 550.8 646 543.5 L 645 535.5 L 649.5 529 L 653.5 527 Z " /><path fill="rgb(0,0,0)" stroke="rgb(0,0,0)" stroke-width="1" opacity="0.9568627450980393" d="M 557.5 546 Q 567.6 544.4 570 550.5 Q 572.8 553.2 572 559.5 L 566.5 567 L 557.5 568 L 551 562.5 L 550 553.5 L 555.5 547 L 557.5 546 Z " /><path fill="rgb(0,0,0)" stroke="rgb(0,0,0)" stroke-width="1" opacity="0.9568627450980393" d="M 684.5 568 Q 694.2 566.8 697 572.5 L 699 579.5 L 697 585.5 L 694.5 588 Q 691.5 591 684.5 590 L 678 584.5 L 677 575.5 L 680.5 570 L 684.5 568 Z " /><path fill="rgb(0,0,0)" stroke="rgb(0,0,0)" stroke-width="1" opacity="0.9568627450980393" d="M 466.5 582 Q 476.6 580.4 479 586.5 Q 481.8 589.2 481 595.5 L 475.5 603 L 466.5 604 L 460 598.5 L 459 590.5 L 464.5 583 L 466.5 582 Z " /><path fill="rgb(0,0,0)" stroke="rgb(0,0,0)" stroke-width="1" opacity="0.9568627450980393" d="M 776.5 596 Q 785.9 594.6 789 599.5 Q 792.2 602.8 791 610.5 L 785.5 617 L 777.5 618 L 771 613.5 L 769 605.5 Q 770.3 599.8 774.5 597 L 776.5 596 Z " /><path fill="rgb(0,0,0)" stroke="rgb(0,0,0)" stroke-width="1" opacity="0.9568627450980393" d="M 552.5 602 Q 561.5 602 564 608.5 L 565 615.5 L 562 622 Q 559 624.7 552.5 625 L 545 620.5 Q 542 617.5 543 610.5 L 547.5 604 L 552.5 602 Z " /><path fill="rgb(0,0,0)" stroke="rgb(0,0,0)" stroke-width="1" opacity="0.9568627450980393" d="M 679.5 619 Q 689.3 618.3 692 624.5 L 693 633.5 L 689.5 639 Q 686.6 642.6 678.5 641 L 673 636.5 L 671 628.5 L 675.5 621 L 679.5 619 Z " /><path fill="rgb(0,0,0)" stroke="rgb(0,0,0)" stroke-width="1" opacity="0.9568627450980393" d="M 585.5 645 Q 595.3 644.3 598 650.5 L 599 659.5 L 593.5 666 L 584.5 667 L 579 662.5 Q 576.3 660.2 577 654.5 L 581.5 647 L 585.5 645 Z " /><path fill="rgb(0,0,0)" stroke="rgb(0,0,0)" stroke-width="1" opacity="0.9568627450980393" d="M 634.5 651 Q 645.3 649.2 648 655.5 L 650 662.5 L 647 670 L 640.5 673 L 636.5 673 L 629 667.5 L 628 658.5 L 632.5 652 L 634.5 651 Z " /><path fill="rgb(0,0,0)" stroke="rgb(0,0,0)" stroke-width="1" opacity="0.9568627450980393" d="M 512.5 697 Q 522.2 695.8 525 701.5 L 527 709.5 Q 525.8 715.3 521.5 718 L 512.5 719 L 506 713.5 L 505 704.5 L 510.5 698 L 512.5 697 Z " /><path fill="rgb(0,0,0)" stroke="rgb(0,0,0)" stroke-width="1" opacity="0.9568627450980393" d="M 722.5 701 Q 729 701.3 732 704 L 735 710.5 L 735 714.5 L 732 721 Q 729 723.7 722.5 724 L 715 719.5 Q 712 716.5 713 709.5 L 717.5 703 L 722.5 701 Z " /><path fill="rgb(0,0,0)" stroke="rgb(0,0,0)" stroke-width="1" opacity="0.9568627450980393" d="M 610.5 741 Q 621.6 739.4 624 746.5 L 625 754.5 L 620.5 761 Q 617.8 763.8 611.5 763 L 605 758.5 Q 602.2 755.8 603 749.5 L 608.5 742 L 610.5 741 Z " /></svg>