<svg width="1181" height="1181" version="1.1" xmlns="http://www.w3.org/2000/svg" desc="Created with imagetracer.js version 1.2.6" ><path fill="rgb(0,0,0)" stroke="rgb(0,0,0)" stroke-width="1" opacity="0.9568627450980393" d="M 404.5 354 L 430.5 354 L 449.5 358 L 461.5 362 L 483.5 373 Q 506.3 392.2 534.5 406 L 549.5 412 L 564.5 416 L 585.5 418 L 586.5 417 L 595.5 417 L 604.5 415 L 631.5 404 L 646.5 393 L 665.5 382 L 682 367.5 L 692.5 355 L 693 357.5 Q 685.4 395.9 661.5 418 Q 641.7 432.7 615.5 441 L 597.5 445 L 568.5 445 L 552.5 442 L 526.5 433 Q 503.8 423.2 485.5 409 L 485 410.5 Q 492.9 417.6 495 430.5 L 497 441.5 L 497 462.5 L 490 492.5 L 478 518.5 Q 458.6 551.6 431.5 577 L 407 599.5 Q 396.4 611.9 390 628.5 L 385 649.5 L 385 665.5 L 390 691.5 L 402 718.5 L 427 752.5 L 447.5 774 L 458 782.5 L 452.5 783 Q 427.8 778.2 409.5 767 Q 399.1 761.4 392 752.5 Q 376.5 734.5 367 710.5 L 359 681.5 L 358 666.5 L 357 665.5 L 357 650.5 L 358 649.5 L 358 640.5 L 360 630.5 L 370 604.5 Q 381.7 582.7 399.5 567 L 425 543.5 Q 447 520.5 461 489.5 L 468 467.5 Q 466.8 462.7 469 461.5 L 469 443.5 L 460 408.5 L 452 390.5 L 448.5 387 L 428.5 382 L 406.5 382 Q 359.5 392 334 423.5 L 328 432.5 L 308 455.5 L 292.5 484 L 292 459.5 L 293 458.5 L 293 451.5 L 295 441.5 L 303 418.5 Q 313.1 403 326.5 391 Q 344.4 374.4 368.5 364 L 385.5 358 L 404.5 354 Z " /><path fill="rgb(0,0,0)" stroke="rgb(0,0,0)" stroke-width="1" opacity="0.9568627450980393" d="M 718.5 393 Q 759.2 398.8 783 421.5 Q 799.8 440.2 810 465.5 L 815 480.5 L 819 499.5 Q 817.2 505.7 820 507.5 L 820 529.5 L 816 550.5 L 807 572.5 Q 796.1 593.1 779.5 608 L 750 635.5 Q 729.2 657.7 716 687.5 L 709 710.5 L 708 731.5 L 717 767.5 L 726 787.5 L 729.5 792 L 750.5 797 L 768.5 797 Q 816.5 788 842 756.5 L 869 723.5 Q 878.3 710.3 884.5 694 L 885 721.5 L 881 741.5 L 874 760.5 Q 864.3 775.3 851.5 787 Q 829.2 807.7 797.5 819 L 777.5 824 L 749.5 825 L 728.5 821 L 711.5 815 L 697.5 808 L 658.5 781 L 631.5 768 L 608.5 762 L 587.5 761 L 586.5 762 L 575.5 763 L 562.5 767 L 543.5 776 Q 531.2 786.7 515.5 794 L 494 812.5 L 484.5 824 L 485 822.5 L 485 816.5 L 487 808.5 L 493 792.5 Q 501.8 774.3 515.5 761 Q 536.2 745.2 564.5 737 L 586.5 733 L 601.5 733 L 629.5 738 L 651.5 746 Q 675.7 756.8 695.5 772 L 694 769.5 Q 686.5 761.5 683 749.5 L 680 732.5 L 680 716.5 L 684 694.5 Q 689.6 674.6 699 658.5 Q 718.7 624.7 746.5 599 L 770 577.5 Q 783.6 562.1 790 539.5 L 792 529.5 L 792 508.5 L 787 484.5 L 776 459.5 L 749 422.5 L 733.5 406 L 719.5 395 L 718.5 393 Z " /><path fill="rgb(0,0,0)" stroke="rgb(0,0,0)" stroke-width="1" opacity="0.9568627450980393" d="M 584.5 540 Q 614.4 539.6 627 556.5 Q 634.4 565.1 638 577.5 L 639 595.5 Q 635 618.5 619.5 630 L 601.5 639 L 596.5 640 L 581.5 640 Q 562.3 636.3 552 623.5 Q 540.4 611.1 540 587.5 L 542 576.5 L 545 568.5 L 556.5 553 L 572.5 543 L 584.5 540 Z " /><path fill="rgb(0,0,0)" stroke="rgb(0,0,0)" stroke-width="1" opacity="0" d="M 0 0 L 1181 0 L 1181 1181 L 0 1181 L 0 0 Z M 405 354 L 386 358 L 369 364 Q 344 374 327 391 Q 313 403 303 419 L 295 442 L 293 452 L 293 459 L 292 460 L 293 484 L 308 456 L 328 433 L 334 424 Q 359 392 407 382 L 429 382 L 449 387 L 452 391 L 460 409 L 469 444 L 469 462 Q 467 463 468 468 L 461 490 Q 447 521 425 544 L 400 567 Q 382 583 370 605 L 360 631 L 358 641 L 358 650 L 357 651 L 357 666 L 358 667 L 359 682 L 367 711 Q 377 734 392 753 Q 399 761 410 767 Q 428 778 453 783 L 458 783 L 448 774 L 427 753 L 402 719 L 390 692 L 385 666 L 385 650 L 390 629 Q 396 612 407 600 L 432 577 Q 459 552 478 519 L 490 493 L 497 463 L 497 442 L 495 431 Q 493 418 485 411 L 486 409 Q 504 423 527 433 L 553 442 L 569 445 L 598 445 L 616 441 Q 642 433 662 418 Q 685 396 693 358 L 693 355 L 682 368 L 666 382 L 647 393 L 632 404 L 605 415 L 596 417 L 587 417 L 586 418 L 565 416 L 550 412 L 535 406 Q 506 392 484 373 L 462 362 L 450 358 L 431 354 L 405 354 Z M 719 393 L 720 395 L 734 406 L 749 423 L 776 460 L 787 485 L 792 509 L 792 530 L 790 540 Q 784 562 770 578 L 747 599 Q 719 625 699 659 Q 690 675 684 695 L 680 717 L 680 733 L 683 750 Q 687 761 694 770 L 696 772 Q 676 757 652 746 L 630 738 L 602 733 L 587 733 L 565 737 Q 536 745 516 761 Q 493 782 485 817 L 486 823 L 494 813 L 516 794 Q 531 787 544 776 L 563 767 L 576 763 L 587 762 L 588 761 L 609 762 L 632 768 L 659 781 L 698 808 L 712 815 L 729 821 L 750 825 L 778 824 L 798 819 Q 829 808 852 787 Q 864 775 874 761 L 881 742 L 885 722 L 885 694 Q 878 710 869 724 L 842 757 Q 816 788 769 797 L 751 797 L 730 792 L 726 788 L 717 768 L 708 732 L 709 711 L 716 688 Q 729 658 750 636 L 780 608 Q 796 593 807 573 L 816 551 L 820 530 L 820 508 Q 817 506 819 500 L 815 481 L 810 466 Q 800 440 783 422 Q 759 399 719 393 Z M 585 540 L 573 543 L 557 553 L 545 569 L 542 577 L 540 588 Q 540 611 552 624 Q 562 636 582 640 L 597 640 L 602 639 L 620 630 Q 635 618 639 596 L 638 578 Q 634 565 627 557 Q 614 540 585 540 Z " /></svg>