<svg width="1181" height="1181" version="1.1" xmlns="http://www.w3.org/2000/svg" desc="Created with imagetracer.js version 1.2.6" ><path fill="rgb(0,0,0)" stroke="rgb(0,0,0)" stroke-width="1" opacity="0.9019607843137255" d="M 577.5 349 L 608.5 349 L 609.5 350 L 626.5 351 L 647.5 355 L 673.5 363 Q 727.3 383.7 763 422.5 Q 788.1 449.4 805 484.5 L 811 498.5 L 818 521.5 L 823 549.5 L 823 559 Q 827.1 557.3 826 561.5 L 827 562.5 L 827 578.5 L 823 593.5 L 822 611.5 L 815.5 642 L 815 638.5 L 818 625.5 L 819 601.5 L 818 601.5 L 807.5 615 Q 797.5 624 783.5 629 L 771.5 632 L 753.5 633 L 736.5 630 L 720.5 624 L 693.5 609 L 679.5 599 L 661.5 590 L 646.5 586 L 626.5 585 L 622.5 586 L 622.5 585 L 635.5 582 L 656.5 582 L 670.5 585 L 686.5 591 Q 702 597.5 714.5 607 L 735.5 617 L 747.5 620 L 769.5 620 Q 793.8 615.3 806 598.5 L 814 581.5 L 815 564.5 L 814 561 Q 817.3 562.3 816 557.5 Q 796.9 466.1 737.5 415 Q 709.1 389.9 670.5 375 L 652.5 369 L 624.5 363 L 605.5 362 L 604.5 361 L 581.5 361 L 580.5 362 L 569.5 362 L 568.5 363 L 545.5 366 Q 522.8 371.3 503.5 380 Q 461.5 399.5 432 431.5 Q 405.6 459.6 389 497.5 Q 380.9 516.4 376 538.5 L 373 555.5 L 373 562.5 L 372 563.5 L 372 572.5 L 382.5 563 Q 393.5 554 409.5 550 L 421.5 549 L 422.5 548 L 435.5 548 L 436.5 549 L 447.5 550 L 464.5 556 L 493.5 572 L 507.5 582 L 523.5 590 L 540.5 595 L 555.5 596 Q 557.3 593.2 563.5 595 L 563.5 596 L 548.5 599 L 531.5 599 L 513.5 595 L 498.5 589 L 472.5 574 L 451.5 564 L 439.5 561 L 425.5 560 L 405.5 564 Q 391.9 569.4 383 579.5 Q 372 590.5 372 612.5 L 380 652.5 Q 387.2 676.3 398 696.5 Q 418.4 734.1 449.5 761 Q 483.4 791.1 532.5 806 L 558.5 812 L 573.5 813 L 574.5 814 L 611.5 814 L 612.5 813 L 633.5 811 L 653.5 806 Q 681.7 797.7 705.5 785 Q 743.1 764.6 770 733.5 L 786.5 711 L 786 712.5 Q 766.3 747.3 737.5 773 Q 710.1 798.1 672.5 813 L 653.5 819 L 630.5 824 L 615.5 825 L 614.5 826 L 589.5 827 L 588.5 826 L 571.5 826 L 570.5 825 L 563.5 825 L 562.5 824 L 545.5 822 L 529.5 818 L 499.5 807 Q 454.3 786.7 423 752.5 Q 390.9 718.6 373 670.5 L 365 643.5 L 362 623.5 L 360 620.5 L 360 610.5 L 359 609.5 L 359 571.5 L 360 570.5 L 361 552.5 L 366 527.5 L 371 510.5 L 381 485.5 Q 403 439 439.5 407 Q 468.5 381 507.5 365 L 543.5 354 L 559.5 351 L 566.5 351 L 567.5 350 L 576.5 350 L 577.5 349 Z " /><path fill="rgb(0,0,0)" stroke="rgb(0,0,0)" stroke-width="1" opacity="0.9019607843137255" d="M 585.5 560 L 598.5 560 Q 608.6 562.4 614 569.5 Q 621 576 619 591.5 Q 616.3 601.8 608.5 607 L 596.5 612 L 587.5 612 Q 577 609.5 571 602.5 Q 564.4 596.1 565 582.5 Q 567.2 570.7 575.5 565 L 585.5 560 Z " /><path fill="rgb(0,0,0)" stroke="rgb(0,0,0)" stroke-width="1" opacity="0.9019607843137255" d="M 748.5 564 Q 759.3 564.3 763 571.5 L 764 583.5 L 757.5 591 Q 754.2 593.7 747.5 593 Q 741 591.5 738 586.5 Q 734.8 583.2 736 575.5 Q 737.3 569.8 741.5 567 L 748.5 564 Z " /><path fill="rgb(0,0,0)" stroke="rgb(0,0,0)" stroke-width="1" opacity="0.9019607843137255" d="M 428.5 584 Q 440 583 444 589.5 Q 447.5 593.5 446 602.5 L 440.5 610 Q 436.5 613.5 427.5 612 L 421 607.5 Q 416.8 603.7 418 594.5 L 424.5 586 L 428.5 584 Z " /><path fill="rgb(0,0,0)" stroke="rgb(0,0,0)" stroke-width="1" opacity="0.9019607843137255" d="M 814.5 643 L 815 645.5 L 814 645.5 L 814.5 643 Z " /><path fill="rgb(0,0,0)" stroke="rgb(0,0,0)" stroke-width="1" opacity="0.9019607843137255" d="M 788.5 708 L 787.5 710 L 788.5 708 Z " /><path fill="rgb(0,0,0)" stroke="rgb(0,0,0)" stroke-width="1" opacity="0" d="M 0 0 L 1181 0 L 1181 1181 L 0 1181 L 0 0 Z M 578 349 L 577 350 L 568 350 L 567 351 L 560 351 L 544 354 L 508 365 Q 469 381 440 407 Q 403 439 381 486 L 371 511 L 366 528 L 361 553 L 360 571 L 359 572 L 359 610 L 360 611 L 360 621 L 362 624 L 365 644 L 373 671 Q 391 719 423 753 Q 454 787 500 807 L 530 818 L 546 822 L 563 824 L 564 825 L 571 825 L 572 826 L 589 826 L 590 827 L 615 826 L 616 825 L 631 824 L 654 819 L 673 813 Q 710 798 738 773 Q 762 750 781 722 L 781 720 L 770 734 Q 743 765 706 785 Q 682 798 654 806 L 634 811 L 613 813 L 612 814 L 575 814 L 574 813 L 559 812 L 533 806 Q 483 791 450 761 Q 418 734 398 697 Q 387 676 380 653 L 372 613 Q 372 590 383 580 Q 392 569 406 564 L 426 560 L 440 561 L 452 564 L 473 574 L 499 589 L 514 595 L 532 599 L 549 599 L 564 596 L 564 595 Q 557 593 556 596 L 541 595 L 524 590 L 508 582 L 494 572 L 465 556 L 448 550 L 437 549 L 436 548 L 423 548 L 422 549 L 410 550 Q 394 554 383 563 L 372 573 L 372 564 L 373 563 L 373 556 L 376 539 Q 381 516 389 498 Q 406 460 432 432 Q 462 400 504 380 Q 523 371 546 366 L 569 363 L 570 362 L 581 362 L 582 361 L 605 361 L 606 362 L 625 363 L 653 369 L 671 375 Q 709 390 738 415 Q 797 466 816 558 Q 817 562 814 561 L 815 565 L 814 582 L 806 599 Q 794 615 770 620 L 748 620 L 736 617 L 715 607 Q 702 598 687 591 L 671 585 L 657 582 L 636 582 L 626 585 L 647 586 L 662 590 L 680 599 L 694 609 L 721 624 L 737 630 L 754 633 L 772 632 L 784 629 Q 798 624 808 615 L 818 602 L 819 602 L 819 616 L 816 633 L 817 638 L 822 612 L 823 594 L 827 579 L 827 563 L 826 562 Q 827 557 823 559 L 823 550 L 818 522 L 811 499 L 805 485 Q 788 449 763 423 Q 727 384 674 363 L 648 355 L 627 351 L 610 350 L 609 349 L 578 349 Z M 586 560 L 576 565 Q 567 571 565 583 Q 564 596 571 603 Q 577 609 588 612 L 597 612 L 609 607 Q 616 602 619 592 Q 621 576 614 570 Q 609 562 599 560 L 586 560 Z M 749 564 L 742 567 Q 737 570 736 576 Q 735 583 738 587 Q 741 591 748 593 Q 754 594 758 591 L 764 584 L 763 572 Q 759 564 749 564 Z M 429 584 L 425 586 L 418 595 Q 417 604 421 608 L 428 612 Q 437 614 441 610 L 446 603 Q 448 594 444 590 Q 440 583 429 584 Z M 623 585 L 623 586 L 626 586 L 623 585 Z M 816 638 L 815 642 L 816 642 L 816 638 Z M 815 643 L 814 646 L 815 646 L 815 643 Z M 783 717 L 781 720 L 783 719 L 783 717 Z " /></svg>