<svg width="1181" height="1181" version="1.1" xmlns="http://www.w3.org/2000/svg" desc="Created with imagetracer.js version 1.2.6" ><path fill="rgb(0,0,0)" stroke="rgb(0,0,0)" stroke-width="1" opacity="0.9098039215686274" d="M 582.5 379 L 599.5 379 L 612.5 382 Q 629.3 388.7 640 401.5 Q 648.1 411.4 652 425.5 L 653 430.5 L 653 449.5 Q 648.2 470.2 633.5 481 L 617.5 489 L 607.5 491 L 598.5 491 Q 581.3 488.2 572 477.5 Q 561.8 467.2 561 447.5 Q 563.5 446 562 440.5 L 565 433.5 L 573.5 424 Q 581.8 415.8 600.5 418 Q 610.3 420.8 615 428.5 L 618 434.5 L 618 437.5 L 617 437.5 L 616 434.5 L 608.5 427 Q 604 422.9 594.5 424 Q 583.4 426.4 578 434.5 L 574 444.5 L 574 455.5 Q 576.9 467.1 585.5 473 L 595.5 478 L 604.5 479 L 617.5 476 Q 626.4 472.4 632 465.5 Q 642.7 455.2 641 432.5 Q 636.9 414.6 625.5 404 Q 617.7 396.8 606.5 393 L 597.5 391 L 585.5 391 L 575.5 393 L 560.5 399 L 544 412.5 Q 535.5 422 531 435.5 L 529 444.5 L 529 464.5 L 534 488.5 L 543 512.5 L 554 534.5 L 589 591.5 L 612 634.5 L 620 656.5 L 622 674.5 L 620 684.5 L 615.5 692 L 616 690.5 L 619 681.5 L 619 670.5 Q 614.9 651.6 606 637.5 L 559 567.5 L 531 515.5 Q 522.5 497 518 474.5 Q 519.5 469 517 467.5 L 517 441.5 Q 523.2 411.7 543.5 396 L 563.5 384 L 582.5 379 Z " /><path fill="rgb(0,0,0)" stroke="rgb(0,0,0)" stroke-width="1" opacity="0.9098039215686274" d="M 600.5 728 L 613.5 728 Q 625.1 730.9 632 738.5 Q 640.5 746.5 640 763.5 Q 637.7 777.2 628.5 784 L 614.5 791 L 599.5 791 Q 585.8 787.8 579 777.5 L 574 765.5 L 574 754.5 Q 576.6 741.6 585.5 735 Q 591.4 729.9 600.5 728 Z " /><path fill="rgb(0,0,0)" stroke="rgb(0,0,0)" stroke-width="1" opacity="0" d="M 0 0 L 1181 0 L 1181 1181 L 0 1181 L 0 0 Z M 583 379 L 564 384 L 544 396 Q 523 412 517 442 L 517 468 Q 520 469 518 475 Q 522 497 531 516 L 559 568 L 606 638 Q 615 652 619 671 Q 621 681 617 687 L 618 689 L 621 682 Q 620 676 622 675 L 620 657 L 612 635 L 589 592 L 554 535 L 543 513 L 534 489 L 529 465 L 529 445 L 531 436 Q 536 422 544 413 L 561 399 L 576 393 L 586 391 L 598 391 L 607 393 Q 618 397 626 404 Q 637 415 641 433 Q 643 455 632 466 Q 626 472 618 476 L 605 479 L 596 478 L 586 473 Q 577 467 574 456 L 574 445 L 578 435 Q 583 426 595 424 Q 604 423 609 427 L 616 435 L 617 438 L 618 438 L 618 435 L 615 429 Q 610 421 601 418 Q 582 416 574 424 L 565 434 L 562 441 Q 564 446 561 448 Q 562 467 572 478 Q 581 488 599 491 L 608 491 L 618 489 L 634 481 Q 648 470 653 450 L 653 431 L 652 426 Q 648 411 640 402 Q 629 389 613 382 L 600 379 L 583 379 Z M 601 728 Q 591 730 586 735 Q 577 742 574 755 L 574 766 L 579 778 Q 586 788 600 791 L 615 791 L 629 784 Q 638 777 640 764 Q 641 746 632 739 Q 625 731 614 728 L 601 728 Z " /></svg>