<svg width="1181" height="1181" version="1.1" xmlns="http://www.w3.org/2000/svg" desc="Created with imagetracer.js version 1.2.6" ><path fill="rgb(0,0,0)" stroke="rgb(0,0,0)" stroke-width="1" opacity="0.9137254901960784" d="M 687.5 350 Q 712.9 376.6 729 412.5 L 734 427.5 L 738 447.5 L 739 475.5 L 738 476.5 L 738 484.5 L 736 494.5 L 729 514.5 Q 718.2 537.2 700.5 553 L 677.5 571 Q 657.1 584.1 633 593.5 Q 634.4 605.4 630 611.5 L 644.5 617 L 660.5 621 L 674.5 622 L 675.5 623 L 687.5 623 L 688.5 622 L 696.5 622 L 706.5 620 L 726.5 612 Q 746.4 600.8 760 583.5 L 784 546.5 Q 798.6 521.1 807.5 490 L 808 495.5 L 800 531.5 L 789 561.5 Q 774.8 589.3 752.5 609 Q 735.9 623.4 712.5 631 L 691.5 635 L 671.5 635 L 670.5 634 L 663.5 634 L 653.5 632 L 623.5 623 L 613 631.5 Q 627.2 662.3 651.5 683 Q 664.4 693.1 681.5 699 L 701.5 703 L 720.5 703 L 747.5 698 L 775.5 689 L 816.5 670 L 830.5 661 L 825.5 667 Q 798.5 690.5 763.5 706 L 732.5 714 Q 726.3 712.3 724.5 715 L 698.5 715 L 678.5 711 L 659.5 703 Q 641.7 693.3 629 678.5 Q 611.9 659.8 602 635 Q 597.5 637 588.5 636 L 586.5 635 L 585 636.5 L 582 649.5 L 581 661.5 L 580 662.5 L 580 676.5 L 579 678.5 L 580 679.5 L 581 699.5 L 588 721.5 Q 595.5 737.5 607.5 749 Q 618.9 760.1 633.5 768 L 664.5 782 L 700.5 793 L 728 797.5 L 701.5 798 L 700.5 797 L 689.5 797 L 688.5 796 L 675.5 795 L 644.5 787 Q 612.8 774.2 592 750.5 Q 577.9 734.1 571 710.5 L 568 695.5 L 567 671.5 L 568 670.5 L 568 659.5 L 569 658.5 L 570 646.5 L 574 631.5 L 562 621.5 L 560.5 619 Q 528.6 631.1 508 654.5 Q 497.4 666.4 491 682.5 L 486 701.5 L 485 723.5 L 486 724.5 L 486 733.5 L 488 744.5 L 500 785.5 L 512 812.5 L 523 830.5 L 519 827.5 Q 496 800.5 481 765.5 L 474 736.5 Q 475.8 730.2 473 728.5 L 473 706.5 L 477 685.5 L 487 662.5 Q 497.9 644.9 513.5 632 Q 531.5 616.7 555 608 Q 552.6 602.1 554 590.5 L 555 587 L 531.5 578 L 503.5 571 Q 497.2 572.8 495.5 570 L 468.5 570 L 449.5 574 L 431.5 582 Q 415 591.5 403 605.5 L 385 631.5 L 369 663.5 L 358 693.5 L 353.5 712 L 353 703.5 L 354 702.5 L 354 694.5 L 358 671.5 L 369 635.5 Q 383.9 603.4 409.5 582 Q 424 570 443.5 563 L 464.5 558 L 484.5 557 L 485.5 558 L 506.5 559 L 520.5 562 Q 542 567.5 560.5 576 L 566.5 569 L 572 566 Q 558.1 532.7 532.5 510 Q 518 496.5 497.5 489 L 473.5 484 L 456.5 484 L 429.5 489 L 397.5 501 Q 366.6 514.1 341.5 533 L 351.5 522 Q 377.1 497.6 411.5 482 L 430.5 476 L 445.5 473 Q 451 474.5 452.5 472 L 477.5 472 L 500.5 477 L 520.5 486 Q 536.6 495.4 549 508.5 Q 570.1 530.9 584.5 560 L 596.5 559 L 599 560 L 604 542.5 L 608 520.5 L 608 512.5 L 609 511.5 L 609 485.5 L 608 484.5 L 607 471.5 L 600 449.5 Q 590.6 428.9 574.5 415 L 553.5 400 L 519.5 385 L 486.5 375 L 465.5 371 L 459.5 371 L 456 369.5 L 486.5 369 L 487.5 370 L 497.5 370 L 498.5 371 L 505.5 371 L 521.5 374 L 547.5 383 Q 576.7 396.3 596 419.5 Q 609.9 436.6 617 460.5 L 621 481.5 L 621 515.5 L 620 516.5 L 620 523.5 L 617 540.5 L 611 564 Q 620.5 567 626 575.5 L 629.5 581 Q 674.4 564.9 703 532.5 Q 714.2 519.2 721 501.5 L 726 481.5 L 727 462.5 L 726 461.5 L 726 450.5 L 723 434.5 L 715 407.5 Q 703.7 375.4 687.5 350 Z " /><path fill="rgb(0,0,0)" stroke="rgb(0,0,0)" stroke-width="1" opacity="0.9137254901960784" d="M 564.5 453 Q 578.8 451.8 584 459.5 L 589 469.5 L 589 477.5 Q 587.2 485.7 581.5 490 Q 576.5 495.5 564.5 494 Q 556.2 491.9 552 485.5 Q 547.5 480 549 468.5 Q 551.2 460.1 557.5 456 L 564.5 453 Z " /><path fill="rgb(0,0,0)" stroke="rgb(0,0,0)" stroke-width="1" opacity="0.9137254901960784" d="M 666.5 477 L 674.5 477 L 686 483.5 L 691 493.5 L 691 501.5 Q 688.8 509.3 683.5 514 Q 678.5 519.5 666.5 518 Q 658.2 515.9 654 509.5 Q 649 504 651 491.5 Q 653.6 484.1 659.5 480 L 666.5 477 Z " /><path fill="rgb(0,0,0)" stroke="rgb(0,0,0)" stroke-width="1" opacity="0.9137254901960784" d="M 481.5 504 Q 496.7 502.8 502 511.5 L 506 520.5 L 506 528.5 Q 503.8 536.3 498.5 541 Q 493.2 546.2 481.5 545 Q 473.5 542.5 469 536.5 Q 464.5 531 466 519.5 Q 468.1 511.2 474.5 507 L 481.5 504 Z " /><path fill="rgb(0,0,0)" stroke="rgb(0,0,0)" stroke-width="1" opacity="0.9137254901960784" d="M 727.5 558 Q 743.1 557.4 748 567.5 Q 752.2 572.3 751 582.5 Q 749.3 590.8 743.5 595 Q 738.2 600.7 725.5 599 Q 718.1 596.4 714 590.5 Q 709.2 585.3 711 573.5 Q 713.1 566.1 718.5 562 L 727.5 558 Z " /><path fill="rgb(0,0,0)" stroke="rgb(0,0,0)" stroke-width="1" opacity="0.9137254901960784" d="M 469.5 593 Q 483.6 592.4 489 600.5 L 493 609.5 L 493 618.5 Q 490.9 625.9 485.5 630 Q 480.5 635.5 468.5 634 Q 460.1 631.9 456 625.5 Q 451.5 620 453 608.5 Q 455.1 601.1 460.5 597 L 469.5 593 Z " /><path fill="rgb(0,0,0)" stroke="rgb(0,0,0)" stroke-width="1" opacity="0.9137254901960784" d="M 734.5 649 Q 746.1 649.4 751 656.5 L 755 663.5 Q 753.7 668.3 756 669.5 L 754 678.5 L 748.5 686 L 741.5 690 Q 736.8 688.8 735.5 691 Q 734.3 688.8 729.5 690 L 723.5 687 L 719 682.5 Q 714.6 676.9 715 666.5 Q 716.9 657.4 723.5 653 L 734.5 649 Z " /><path fill="rgb(0,0,0)" stroke="rgb(0,0,0)" stroke-width="1" opacity="0.9137254901960784" d="M 525.5 685 Q 537.1 685.4 542 692.5 L 546 699.5 L 547 706.5 Q 544.8 707.7 546 712.5 L 539.5 722 Q 534.8 726.8 525.5 727 L 514.5 723 L 510 718.5 Q 505.8 713.2 506 703.5 Q 507.5 693.5 514.5 689 L 525.5 685 Z " /><path fill="rgb(0,0,0)" stroke="rgb(0,0,0)" stroke-width="1" opacity="0.9137254901960784" d="M 633.5 712 Q 645.9 712.1 651 719.5 Q 656.8 725.2 655 738.5 L 650 748 L 641.5 753 L 629.5 753 Q 622.8 750.8 619 745.5 L 615 736.5 L 615 729.5 Q 616.8 720.3 623.5 716 L 633.5 712 Z " /><path fill="rgb(0,0,0)" stroke="rgb(0,0,0)" stroke-width="1" opacity="0" d="M 0 0 L 1181 0 L 1181 1181 L 0 1181 L 0 0 Z M 690 352 L 689 354 L 705 383 L 715 408 L 723 435 L 726 451 L 726 462 L 727 463 L 726 482 L 721 502 Q 714 519 703 533 Q 674 565 630 581 L 626 576 Q 621 567 611 564 L 617 541 L 620 524 L 620 517 L 621 516 L 621 482 L 617 461 Q 610 437 596 420 Q 577 396 548 383 L 522 374 L 506 371 L 499 371 L 498 370 L 488 370 L 487 369 L 456 370 L 460 371 L 466 371 L 487 375 L 520 385 L 554 400 L 575 415 Q 591 429 600 450 L 607 472 L 608 485 L 609 486 L 609 512 L 608 513 L 608 521 L 604 543 L 599 560 L 597 559 L 585 560 Q 570 531 549 509 Q 537 495 521 486 L 501 477 L 478 472 L 453 472 Q 451 475 446 473 L 431 476 L 412 482 Q 377 498 352 522 L 342 533 Q 367 514 398 501 L 430 489 L 457 484 L 474 484 L 498 489 Q 518 497 533 510 Q 558 533 572 566 L 567 569 L 561 576 Q 542 568 521 562 L 507 559 L 486 558 L 485 557 L 465 558 L 444 563 Q 424 570 410 582 Q 384 603 369 636 L 358 672 L 354 695 L 354 703 L 353 704 L 354 712 L 358 694 L 369 664 L 385 632 L 403 606 Q 415 592 432 582 L 450 574 L 469 570 L 496 570 Q 497 573 504 571 L 532 578 L 555 587 L 554 591 Q 553 602 555 608 Q 531 617 514 632 Q 498 645 487 663 L 477 686 L 473 707 L 473 729 Q 476 730 474 737 L 481 766 Q 496 801 519 828 L 521 829 Q 509 809 500 786 L 488 745 L 486 734 L 486 725 L 485 724 L 486 702 L 491 683 Q 497 666 508 655 Q 529 631 561 619 L 562 622 L 574 632 L 570 647 L 569 659 L 568 660 L 568 671 L 567 672 L 568 696 L 571 711 Q 578 734 592 751 Q 613 774 645 787 L 676 795 L 689 796 L 690 797 L 701 797 L 702 798 L 728 798 L 701 793 L 665 782 L 634 768 Q 619 760 608 749 Q 595 738 588 722 L 581 700 L 580 680 L 579 679 L 580 677 L 580 663 L 581 662 L 582 650 L 585 637 L 587 635 L 589 636 Q 597 637 602 635 Q 612 660 629 679 Q 642 693 660 703 L 679 711 L 699 715 L 725 715 Q 726 712 733 714 L 764 706 Q 799 691 826 667 L 830 662 Q 805 678 776 689 L 748 698 L 721 703 L 702 703 L 682 699 Q 664 693 652 683 Q 627 662 613 632 L 624 623 L 654 632 L 664 634 L 671 634 L 672 635 L 692 635 L 713 631 Q 736 623 753 609 Q 775 589 789 562 L 800 532 L 808 496 L 808 490 Q 799 521 784 547 L 760 584 Q 746 601 727 612 L 707 620 L 697 622 L 689 622 L 688 623 L 676 623 L 675 622 L 661 621 L 645 617 L 630 612 Q 634 605 633 594 Q 657 584 678 571 L 701 553 Q 718 537 729 515 L 736 495 L 738 485 L 738 477 L 739 476 L 738 448 L 734 428 L 729 413 Q 714 378 690 352 Z M 565 453 L 558 456 Q 551 460 549 469 Q 548 480 552 486 Q 556 492 565 494 Q 577 496 582 490 Q 587 486 589 478 L 589 470 L 584 460 Q 579 452 565 453 Z M 667 477 L 660 480 Q 654 484 651 492 Q 649 504 654 510 Q 658 516 667 518 Q 679 520 684 514 Q 689 509 691 502 L 691 494 L 686 484 L 675 477 L 667 477 Z M 482 504 L 475 507 Q 468 511 466 520 Q 465 531 469 537 Q 474 543 482 545 Q 493 546 499 541 Q 504 536 506 529 L 506 521 L 502 512 Q 497 503 482 504 Z M 728 558 L 719 562 Q 713 566 711 574 Q 709 585 714 591 Q 718 596 726 599 Q 738 601 744 595 Q 749 591 751 583 Q 752 572 748 568 Q 743 557 728 558 Z M 470 593 L 461 597 Q 455 601 453 609 Q 452 620 456 626 Q 460 632 469 634 Q 481 636 486 630 Q 491 626 493 619 L 493 610 L 489 601 Q 484 592 470 593 Z M 735 649 L 724 653 Q 717 657 715 667 Q 715 677 719 683 L 724 687 L 730 690 Q 734 689 736 691 Q 737 689 742 690 L 749 686 L 754 679 L 756 670 Q 754 668 755 664 L 751 657 Q 746 649 735 649 Z M 526 685 L 515 689 Q 507 693 506 704 Q 506 713 510 719 L 515 723 L 526 727 Q 535 727 540 722 L 546 713 Q 545 708 547 707 L 546 700 L 542 693 Q 537 685 526 685 Z M 634 712 L 624 716 Q 617 720 615 730 L 615 737 L 619 746 Q 623 751 630 753 L 642 753 L 650 748 L 655 739 Q 657 725 651 720 Q 646 712 634 712 Z " /></svg>