<svg width="1181" height="1181" version="1.1" xmlns="http://www.w3.org/2000/svg" desc="Created with imagetracer.js version 1.2.6" ><path fill="rgb(0,0,0)" stroke="rgb(0,0,0)" stroke-width="1" opacity="0.807843137254902" d="M 589.5 238 Q 600 236.9 603 243.5 Q 605.8 246.2 605 252.5 L 600.5 260 Q 596.8 263.3 588.5 262 L 582 256.5 Q 579.5 253 581 245.5 L 585.5 240 L 589.5 238 Z " /><path fill="rgb(0,0,0)" stroke="rgb(0,0,0)" stroke-width="1" opacity="0.807843137254902" d="M 591.5 305 L 592 343.5 L 593 344.5 L 593 400.5 L 594 401.5 L 594 584.5 L 595.5 586 L 614.5 586 L 615.5 585 L 645.5 584 L 676.5 576 Q 720.1 559.1 749 527.5 Q 796.3 475.8 808.5 389 L 809 396.5 L 808 397.5 L 806 416.5 L 799 446.5 L 788 476.5 Q 769.9 518.4 738.5 547 Q 720.9 563.9 697 574.5 L 700.5 575 Q 743.2 565.2 777.5 547 Q 813.9 527.4 840 497.5 Q 859 476.5 870.5 448 L 871 449.5 Q 854.1 492.6 822.5 521 Q 770.7 569.6 687 585 L 687.5 587 L 737.5 587 L 738.5 588 L 786.5 588 L 787.5 589 L 824.5 589 L 825.5 590 L 857.5 590 L 858.5 591 L 874 591.5 L 832.5 592 L 831.5 593 L 775.5 593 L 774.5 594 L 678 594 Q 676.7 597.3 681.5 596 Q 784.5 614 841 678.5 Q 861.3 701.2 873 732.5 L 872 732.5 Q 855.5 694.5 826.5 669 Q 777.8 624.2 700.5 608 L 700.5 609 Q 734.9 625.6 758 653.5 Q 781.7 681.8 796 719.5 L 807 757.5 L 811 780.5 L 812 795.5 L 811 795.5 L 809 777.5 L 804 755.5 L 790 715.5 Q 770.8 670.8 736.5 641 Q 709.2 616.3 669.5 604 L 646.5 599 L 595.5 597 L 594 598.5 L 594 690.5 L 593 691.5 L 593 748.5 L 592 749.5 L 592 793.5 L 591 794.5 L 591 830.5 L 590 831.5 L 589.5 862 L 588 854.5 L 588 810.5 L 587 809.5 L 586 597 L 541.5 600 L 524.5 603 L 511.5 607 Q 467.8 623.3 439 654.5 Q 390.2 706.2 376.5 793 L 376 785.5 L 385 742.5 L 390 726.5 L 400 702.5 Q 417.5 665.5 445.5 639 Q 458.6 625.2 476 617 L 475.5 615 Q 438.1 627.1 407.5 646 Q 367.5 671 337 705.5 L 316.5 733 L 317 731.5 Q 337.8 696.3 367.5 670 Q 402.2 638.7 447.5 618 L 492.5 602 L 527 594.5 L 499.5 594 L 498.5 593 L 434.5 593 L 433.5 592 L 350.5 591 L 349.5 590 L 318.5 590 L 315 588.5 L 359.5 588 L 360.5 587 L 421.5 587 L 422.5 586 L 508 585.5 Q 459.9 575.1 422.5 554 Q 377.9 529.6 345 493.5 Q 328.3 475.2 315 453.5 L 317 454.5 Q 335.6 482.4 360.5 504 Q 406.4 546.6 473.5 568 L 472.5 566 Q 452.3 554.7 437 538.5 Q 410.4 511.1 394 473.5 L 388 458.5 L 379 428.5 L 374 402.5 L 373 389.5 L 374 389.5 Q 389 489 450.5 542 Q 478.1 566.4 517.5 579 L 546.5 584 L 586 586 L 588 402.5 L 589 401.5 L 589 362.5 L 590 361.5 L 590 328.5 L 591 327.5 L 591.5 305 Z " /><path fill="rgb(0,0,0)" stroke="rgb(0,0,0)" stroke-width="1" opacity="0.807843137254902" d="M 809.5 380 L 810 385.5 L 809 385.5 L 809.5 380 Z " /><path fill="rgb(0,0,0)" stroke="rgb(0,0,0)" stroke-width="1" opacity="0.807843137254902" d="M 372.5 381 L 373 385.5 L 372 385.5 L 372.5 381 Z " /><path fill="rgb(0,0,0)" stroke="rgb(0,0,0)" stroke-width="1" opacity="0.807843137254902" d="M 313.5 450 L 314.5 452 L 313.5 450 Z " /><path fill="rgb(0,0,0)" stroke="rgb(0,0,0)" stroke-width="1" opacity="0.807843137254902" d="M 258.5 578 Q 267.2 576.8 270 581.5 Q 273.6 584.4 272 592.5 L 266.5 599 L 259.5 600 L 252 594.5 Q 249.7 591.3 251 584.5 L 254.5 580 L 258.5 578 Z " /><path fill="rgb(0,0,0)" stroke="rgb(0,0,0)" stroke-width="1" opacity="0.807843137254902" d="M 922.5 578 Q 932.9 576.6 935 583.5 L 936 592.5 L 931.5 598 Q 929.2 600.7 923.5 600 L 916 595.5 Q 913.4 592.6 914 586.5 L 919.5 579 L 922.5 578 Z " /><path fill="rgb(0,0,0)" stroke="rgb(0,0,0)" stroke-width="1" opacity="0.807843137254902" d="M 375.5 794 L 376 799.5 L 375 799.5 L 375.5 794 Z " /><path fill="rgb(0,0,0)" stroke="rgb(0,0,0)" stroke-width="1" opacity="0.807843137254902" d="M 590.5 915 Q 597 915 600 918.5 Q 603.6 921.4 602 929.5 L 597.5 935 L 589.5 936 L 584 932.5 Q 581 929.5 582 922.5 L 587.5 916 L 590.5 915 Z " /><path fill="rgb(0,0,0)" stroke="rgb(0,0,0)" stroke-width="1" opacity="0" d="M 0 0 L 1181 0 L 1181 1181 L 0 1181 L 0 0 Z M 590 238 L 586 240 L 581 246 Q 580 253 582 257 L 589 262 Q 597 263 601 260 L 605 253 Q 606 246 603 244 Q 600 237 590 238 Z M 592 305 L 591 328 L 590 329 L 590 362 L 589 363 L 589 402 L 588 403 L 586 586 L 547 584 L 518 579 Q 478 566 451 542 Q 389 489 374 390 L 373 390 L 374 403 L 379 429 L 388 459 L 394 474 Q 410 511 437 539 Q 452 555 473 566 L 474 568 Q 406 547 361 504 Q 339 486 323 463 L 320 461 Q 331 479 345 494 Q 378 530 423 554 Q 460 575 508 586 L 423 586 L 422 587 L 361 587 L 360 588 L 315 589 L 319 590 L 350 590 L 351 591 L 434 592 L 435 593 L 499 593 L 500 594 L 527 595 L 493 602 L 448 618 Q 402 639 368 670 Q 342 693 322 723 L 323 724 L 337 706 Q 367 671 408 646 Q 438 627 476 615 L 476 617 Q 459 625 446 639 Q 417 665 400 703 L 390 727 L 385 743 L 376 786 L 377 793 Q 390 706 439 655 Q 468 623 512 607 L 525 603 L 542 600 L 586 597 L 587 810 L 588 811 L 588 855 L 590 862 L 590 832 L 591 831 L 591 795 L 592 794 L 592 750 L 593 749 L 593 692 L 594 691 L 594 599 L 596 597 L 647 599 L 670 604 Q 709 616 737 641 Q 796 692 810 789 L 811 789 L 811 781 L 807 758 L 796 720 Q 782 682 758 654 Q 735 626 701 609 L 701 608 Q 778 624 827 669 Q 854 693 870 729 L 871 729 Q 860 700 841 679 Q 785 614 682 596 Q 677 597 678 594 L 775 594 L 776 593 L 832 593 L 833 592 L 874 592 L 859 591 L 858 590 L 826 590 L 825 589 L 788 589 L 787 588 L 739 588 L 738 587 L 688 587 L 687 585 Q 771 570 823 521 Q 851 495 868 458 L 868 455 Q 857 479 840 498 Q 814 527 778 547 Q 743 565 701 575 L 697 575 Q 721 564 739 547 Q 770 518 788 477 L 799 447 L 806 417 L 808 398 L 809 397 L 809 389 Q 796 476 749 528 Q 720 559 677 576 L 646 584 L 616 585 L 615 586 L 596 586 L 594 585 L 594 402 L 593 401 L 593 345 L 592 344 L 592 305 Z M 810 380 L 809 386 L 810 386 L 810 380 Z M 373 381 L 372 386 L 373 386 L 373 381 Z M 870 450 L 869 453 L 870 453 L 870 450 Z M 319 457 L 318 459 L 320 460 L 319 457 Z M 259 578 L 255 580 L 251 585 Q 250 591 252 595 L 260 600 L 267 599 L 272 593 Q 274 584 270 582 Q 267 577 259 578 Z M 923 578 L 920 579 L 914 587 Q 913 593 916 596 L 924 600 Q 929 601 932 598 L 936 593 L 935 584 Q 933 577 923 578 Z M 322 724 L 320 727 L 322 726 L 322 724 Z M 812 789 L 811 796 L 812 796 L 812 789 Z M 376 794 L 375 800 L 376 800 L 376 794 Z M 591 915 L 588 916 L 582 923 Q 581 930 584 933 L 590 936 L 598 935 L 602 930 Q 604 921 600 919 Q 597 915 591 915 Z " /></svg>