<svg width="1181" height="1181" version="1.1" xmlns="http://www.w3.org/2000/svg" desc="Created with imagetracer.js version 1.2.6" ><path fill="rgb(0,0,0)" stroke="rgb(0,0,0)" stroke-width="1" opacity="0" d="M 0 0 L 1181 0 L 1181 1181 L 0 1181 L 0 0 Z M 572 349 L 570 352 L 572 351 L 572 349 Z M 608 349 L 607 351 L 610 353 L 608 349 Z M 570 352 L 568 355 L 570 354 L 570 352 Z M 568 355 L 565 356 L 564 360 L 549 382 L 532 416 L 524 440 L 519 468 L 514 467 Q 493 451 466 441 L 431 431 L 410 427 L 398 428 L 407 428 L 410 430 L 427 433 L 464 445 Q 490 456 512 472 L 517 478 L 517 510 L 523 543 Q 532 573 547 596 L 543 596 L 527 587 L 505 579 L 491 575 L 473 573 L 472 572 L 464 572 L 463 571 L 440 571 Q 438 574 433 572 Q 419 559 409 542 L 394 513 L 394 510 L 390 502 L 390 499 L 382 478 L 379 463 L 377 460 Q 378 453 375 450 L 375 443 L 374 443 L 375 460 L 379 474 L 379 479 L 388 509 L 392 517 L 392 520 L 407 549 L 423 571 L 423 574 L 397 579 L 373 587 Q 336 603 308 626 L 306 629 Q 334 609 369 594 L 389 587 L 422 580 L 430 580 Q 449 602 475 618 L 506 633 L 531 640 Q 535 639 533 643 L 529 643 L 519 647 L 515 647 L 482 662 L 466 672 L 450 685 L 431 705 L 403 702 L 368 692 L 335 677 L 304 658 L 302 659 Q 328 680 362 695 L 390 705 L 406 709 L 423 711 L 424 713 L 410 734 L 398 756 L 386 789 L 377 828 L 379 833 L 379 826 L 381 823 L 386 801 L 400 763 Q 413 735 433 713 L 446 713 L 447 714 L 475 712 L 499 707 L 519 699 L 522 699 L 546 686 L 549 686 L 549 690 L 536 716 L 536 719 L 532 727 L 532 731 L 528 741 Q 529 747 526 750 L 525 764 L 524 765 L 524 781 L 523 782 L 524 783 L 524 803 L 509 816 L 491 828 L 470 839 L 428 854 L 400 860 L 400 861 L 413 860 L 417 858 L 432 856 L 467 845 L 498 830 L 522 813 L 526 812 L 532 843 L 534 846 L 540 866 L 555 896 L 572 922 L 576 925 L 562 901 L 544 862 L 535 829 L 535 823 L 533 817 L 533 805 L 542 797 L 563 772 L 574 754 L 585 730 L 592 707 Q 590 700 595 702 Q 607 750 635 782 L 660 806 L 659 824 Q 656 827 657 835 L 653 849 L 653 853 L 651 856 L 648 868 L 630 908 L 616 930 L 617 931 L 621 926 Q 620 923 623 924 L 624 920 L 628 916 L 642 892 L 656 860 L 664 830 L 666 812 L 670 812 L 696 829 L 720 840 L 744 848 L 780 856 L 788 856 L 753 847 L 722 836 Q 695 825 674 808 L 668 803 L 668 774 L 662 740 L 651 710 L 640 691 L 638 684 L 641 684 L 662 695 L 682 702 L 702 707 L 714 708 L 715 709 L 727 709 L 728 710 L 743 710 L 744 709 Q 752 707 756 710 L 779 743 L 790 764 L 790 767 L 794 774 L 794 777 L 804 805 L 807 821 L 809 824 L 809 832 Q 812 834 811 841 L 812 841 L 811 825 L 807 809 L 807 804 L 796 767 L 784 741 Q 775 724 763 710 L 763 707 L 778 705 L 782 703 L 787 703 L 790 701 L 794 701 L 817 693 Q 844 681 868 664 Q 870 665 869 662 L 877 658 L 880 654 Q 854 672 824 685 L 795 695 L 763 701 L 756 700 L 746 689 Q 743 690 744 687 L 710 662 L 682 649 L 657 642 Q 654 643 655 641 L 657 639 L 661 639 L 675 635 L 704 622 Q 722 612 737 599 L 761 574 L 772 576 L 780 576 L 817 586 L 854 603 L 886 623 L 887 623 L 856 600 L 826 584 L 795 573 L 766 568 L 767 564 L 782 541 L 790 522 L 792 520 L 792 517 L 794 514 L 802 488 L 809 453 L 808 447 L 807 456 L 805 459 L 800 483 L 786 522 L 771 549 L 761 563 L 758 566 L 723 566 L 694 571 L 666 581 L 644 593 L 640 593 L 640 591 L 650 573 L 658 552 L 663 533 L 664 521 L 665 520 L 665 510 L 666 509 L 665 476 L 685 460 L 716 443 L 760 428 L 772 426 L 776 424 L 786 423 L 786 422 L 777 422 L 772 424 L 765 424 Q 762 427 756 426 L 719 437 L 695 448 Q 679 456 666 467 L 663 467 L 658 441 L 648 413 Q 634 383 616 359 L 612 356 L 628 383 L 645 419 L 653 446 L 657 473 L 650 479 Q 610 514 594 574 Q 596 579 591 577 Q 579 529 550 498 L 534 481 L 529 478 L 525 474 L 529 443 L 531 440 L 531 435 L 533 432 L 534 425 L 539 411 L 558 372 L 568 357 L 568 355 Z M 787 421 L 787 422 L 792 422 L 787 421 Z M 390 425 L 390 426 L 394 426 L 390 425 Z M 395 426 L 395 427 L 398 427 L 395 426 Z M 591 435 L 582 439 L 580 444 Q 579 451 582 454 L 589 458 Q 595 459 598 456 L 602 451 Q 603 442 600 439 L 591 435 Z M 810 439 L 808 444 L 809 447 L 810 445 L 810 439 Z M 452 496 L 446 499 L 442 505 Q 441 511 444 514 L 450 518 Q 458 520 461 516 L 465 511 L 465 504 L 463 503 L 462 499 L 456 496 L 452 496 Z M 731 496 L 728 497 L 721 505 L 721 510 L 725 516 L 729 518 Q 735 519 739 517 L 744 511 Q 745 503 742 501 Q 739 496 731 496 Z M 407 627 L 402 629 L 396 636 Q 395 642 398 645 Q 401 649 407 650 Q 415 650 417 645 Q 416 642 419 643 L 419 635 L 417 634 L 417 633 Q 414 628 407 627 Z M 772 629 L 767 631 L 761 638 Q 760 644 763 647 L 771 652 Q 776 653 779 650 L 784 644 Q 785 637 782 635 Q 779 630 772 629 Z M 880 652 L 881 654 L 883 653 L 880 652 Z M 453 773 L 448 775 L 442 782 Q 441 788 444 791 Q 447 795 453 796 L 460 794 L 465 788 Q 466 781 463 779 Q 460 774 453 773 Z M 732 773 L 727 775 L 721 782 Q 720 788 723 791 Q 726 795 733 796 L 738 795 L 744 789 L 744 781 L 742 777 L 738 774 L 732 773 Z M 589 829 L 580 833 L 577 840 L 579 847 L 587 852 Q 593 853 596 850 L 600 845 Q 601 836 598 833 L 589 829 Z M 378 833 L 377 836 L 378 836 L 378 833 Z M 377 836 L 376 843 L 377 843 L 377 836 Z M 789 856 L 789 857 L 792 857 L 789 856 Z M 577 925 L 576 927 L 579 929 L 577 925 Z " /><path fill="rgb(0,0,0)" stroke="rgb(0,0,0)" stroke-width="1" opacity="0" d="M 654.5 484 L 658 484.5 L 658 505.5 L 657 506.5 L 657 516.5 L 655 522.5 L 655 529.5 Q 652.3 531.8 653 537.5 L 642 568.5 L 622 602.5 L 606.5 620 L 601.5 624 L 599 624 L 598 618.5 L 598 601.5 L 605 565.5 L 613 543.5 Q 628.3 508.3 654.5 484 Z " /><path fill="rgb(0,0,0)" stroke="rgb(0,0,0)" stroke-width="1" opacity="0" d="M 524 485 L 527.5 485 L 542 499.5 Q 564.5 524 577 558.5 L 582 574.5 L 582 578.5 L 587 597.5 L 588 616.5 L 587 617.5 L 587 624 L 583.5 624 L 570 611.5 Q 547 585.5 534 549.5 L 529 533.5 L 527 517.5 L 525 511.5 L 524 485 Z " /><path fill="rgb(0,0,0)" stroke="rgb(0,0,0)" stroke-width="1" opacity="0" d="M 739.5 573 L 748.5 573 L 750 574.5 L 732.5 593 L 705.5 612 L 674.5 626 L 639.5 635 L 614.5 636 L 610 635 L 610 632.5 L 623.5 618 Q 647.6 597.6 679.5 585 L 693.5 580 L 697.5 580 L 700.5 578 L 705.5 578 L 710.5 576 L 717.5 576 L 724.5 574 L 738.5 574 L 739.5 573 Z " /><path fill="rgb(0,0,0)" stroke="rgb(0,0,0)" stroke-width="1" opacity="0" d="M 441 579 L 460.5 579 L 461.5 580 L 471.5 580 L 472.5 581 L 483.5 582 L 518.5 593 L 531.5 599 L 561.5 618 L 577 633.5 L 575.5 636 L 546.5 635 L 516.5 628 L 483.5 614 L 457 597 Q 458.1 594.3 455.5 595 L 441 581.5 L 441 579 Z " /><path fill="rgb(0,0,0)" stroke="rgb(0,0,0)" stroke-width="1" opacity="0" d="M 559.5 646 L 571.5 646 L 577 647 L 577 649.5 L 562.5 664 L 533.5 683 L 498.5 698 L 472.5 704 L 463.5 704 L 454.5 706 L 440 706 L 440 704.5 L 453.5 691 L 476.5 674 L 508.5 658 L 511.5 658 L 520.5 654 L 524.5 654 L 527.5 652 L 532.5 652 L 536.5 650 L 559.5 646 Z " /><path fill="rgb(0,0,0)" stroke="rgb(0,0,0)" stroke-width="1" opacity="0" d="M 615.5 646 L 639.5 647 L 676.5 656 L 707.5 670 L 724.5 681 L 742 695 Q 740.9 697.7 743.5 697 Q 746.8 698.2 746 702 L 725.5 702 L 724.5 701 L 708.5 700 L 680.5 693 L 650.5 680 Q 631 669.2 615 656 L 610 649.5 L 610 647 L 615.5 646 Z " /><path fill="rgb(0,0,0)" stroke="rgb(0,0,0)" stroke-width="1" opacity="0" d="M 584.5 658 L 588 658.5 L 588 680.5 L 581 715.5 L 569 745.5 Q 555.2 773.2 534.5 794 L 531 793.5 L 531 777.5 L 532 776.5 L 533 759.5 L 537 740.5 L 550 705.5 L 569 674.5 L 584.5 658 Z " /><path fill="rgb(0,0,0)" stroke="rgb(0,0,0)" stroke-width="1" opacity="0" d="M 599 658 L 602.5 658 L 615 669.5 L 638 702.5 L 651 732.5 L 655 744.5 Q 654.3 750.2 657 752.5 L 657 758.5 L 659 763.5 L 661 795 L 658.5 795 L 643 779.5 L 622 749.5 L 610 723.5 L 601 691.5 L 599 681.5 L 599 666.5 L 598 664.5 L 599 658 Z " /><path fill="rgb(0,0,0)" stroke="rgb(0,0,0)" stroke-width="1" opacity="0.9725490196078431" d="M 605.5 346 Q 630.9 375.1 648 412.5 L 658 440.5 L 663 467 L 665.5 467 Q 678.6 456.1 694.5 448 L 718.5 437 L 743.5 429 L 764.5 424 L 791.5 421 L 791.5 422 L 775.5 424 L 771.5 426 L 759.5 428 L 715.5 443 L 684.5 460 L 665 475.5 L 666 508.5 L 665 509.5 L 665 519.5 L 664 520.5 L 663 532.5 L 658 551.5 L 650 572.5 L 640 590.5 L 640 593 L 643.5 593 L 665.5 581 L 693.5 571 L 722.5 566 L 757.5 566 L 761 562.5 Q 780.2 538.2 792 506.5 L 792 503.5 L 800 482.5 L 805 458.5 L 807 455.5 L 807 447.5 L 809.5 439 L 810 444.5 L 808 449.5 L 809 452.5 L 802 487.5 L 794 513.5 L 792 516.5 L 792 519.5 L 790 521.5 L 782 540.5 L 767 563.5 L 766 568 L 794.5 573 L 825.5 584 L 855.5 600 L 890 625.5 L 886.5 623 L 853.5 603 L 816.5 586 L 779.5 576 L 771.5 576 L 760.5 574 L 736.5 599 Q 721.7 612.2 703.5 622 L 674.5 635 L 660.5 639 L 656.5 639 L 655 640.5 Q 654.3 642.8 656.5 642 L 681.5 649 L 709.5 662 L 744 687 Q 742.9 689.7 745.5 689 L 755.5 700 L 762.5 701 L 794.5 695 L 823.5 685 Q 854 671.2 880 654 Q 878.8 651 882.5 652 L 885 650.5 L 872.5 661 L 869 662 Q 870.1 664.7 867.5 664 Q 844.5 681 816.5 693 L 793.5 701 L 789.5 701 L 786.5 703 L 781.5 703 L 777.5 705 L 763 707 L 763 709.5 Q 774.9 723.6 784 740.5 L 796 766.5 L 807 803.5 L 807 808.5 L 811 824.5 L 812 840.5 L 811 840.5 Q 811.8 834.2 809 831.5 L 809 823.5 L 807 820.5 L 804 804.5 L 794 776.5 L 794 773.5 L 790 766.5 L 790 763.5 L 779 742.5 L 755.5 710 Q 751.7 707.3 743.5 709 L 742.5 710 L 727.5 710 L 726.5 709 L 714.5 709 L 713.5 708 L 701.5 707 L 681.5 702 L 661.5 695 L 640.5 684 L 638 684 L 640 690.5 L 651 709.5 L 662 739.5 L 668 773.5 L 668 802.5 L 673.5 808 Q 694.8 824.7 721.5 836 L 752.5 847 L 792 856.5 L 788.5 857 L 759.5 852 L 719.5 840 L 695.5 829 L 669.5 812 L 666 812 L 664 829.5 L 656 859.5 L 642 891.5 L 628 915.5 L 624 919.5 L 623 924 Q 620.3 922.9 621 925.5 L 615.5 932 L 616 930.5 L 630 907.5 L 648 867.5 L 651 855.5 L 653 852.5 L 653 848.5 L 657 834.5 Q 656.1 827.1 659 823.5 L 660 805.5 L 635 781.5 Q 606.7 749.7 595 702 Q 590.1 700.2 592 706.5 L 585 729.5 L 574 753.5 L 563 771.5 L 542 797 L 533 804.5 L 533 816.5 L 535 822.5 L 535 828.5 L 544 861.5 L 562 900.5 L 581 931.5 L 579 930.5 L 555 895.5 L 540 865.5 L 534 845.5 L 532 842.5 L 526 812 L 521.5 813 L 497.5 830 L 466.5 845 L 431.5 856 L 416.5 858 L 412.5 860 L 399.5 861 L 399.5 860 L 427.5 854 L 469.5 839 L 490.5 828 L 508.5 816 L 524 802.5 L 524 782.5 L 523 781.5 L 524 780.5 L 524 764.5 L 525 763.5 L 526 749.5 Q 528.6 746.6 528 740.5 L 532 730.5 L 532 726.5 L 536 718.5 L 536 715.5 L 549 689.5 L 549 686 L 545.5 686 L 521.5 699 L 518.5 699 L 498.5 707 L 474.5 712 L 446.5 714 L 445.5 713 L 432.5 713 Q 413.3 734.8 400 762.5 L 386 800.5 L 381 822.5 L 379 825.5 L 379 832.5 Q 376 836 376.5 843 L 376 836.5 L 378 831.5 L 377 827.5 L 386 788.5 L 398 755.5 L 410 733.5 L 424 712.5 L 422.5 711 L 405.5 709 L 389.5 705 L 361.5 695 Q 325.6 678.9 298 654.5 L 302.5 658 Q 332 678 367.5 692 L 402.5 702 L 430.5 705 L 449.5 685 L 465.5 672 L 481.5 662 L 514.5 647 L 518.5 647 L 528.5 643 L 533 643 Q 534.7 638.9 530.5 640 L 505.5 633 L 474.5 618 Q 448.8 602.2 429.5 580 L 421.5 580 L 388.5 587 L 361.5 597 L 325.5 616 L 299.5 634 L 300.5 632 L 306 629 L 307.5 626 Q 336.5 603 372.5 587 L 396.5 579 L 423 574 L 423 570.5 L 407 548.5 L 392 519.5 L 392 516.5 L 388 508.5 L 379 478.5 L 379 473.5 L 375 459.5 L 374 442.5 L 375 442.5 L 375 449.5 Q 378 452.5 377 459.5 L 379 462.5 L 382 477.5 L 390 498.5 L 390 501.5 L 394 509.5 L 394 512.5 L 409 541.5 Q 419 558.5 432.5 572 Q 438 573.5 439.5 571 L 462.5 571 L 463.5 572 L 471.5 572 L 472.5 573 L 490.5 575 L 504.5 579 L 526.5 587 L 542.5 596 L 547 596 Q 532.2 572.5 523 542.5 L 517 509.5 L 517 477.5 L 511.5 472 Q 490.1 455.9 463.5 445 L 426.5 433 L 409.5 430 L 406.5 428 L 398.5 428 L 389 425.5 L 393.5 425 L 398.5 427 L 409.5 427 L 410.5 428 L 421.5 429 L 465.5 441 Q 492.7 450.8 513.5 467 L 519 468 L 524 439.5 L 532 415.5 L 549 381.5 L 564 359.5 L 565 356 L 568 354.5 L 572.5 348 L 572 349.5 L 558 371.5 L 539 410.5 L 534 424.5 L 533 431.5 L 531 434.5 L 531 439.5 L 529 442.5 L 525 473.5 L 528.5 478 L 533.5 481 L 550 497.5 Q 579.2 529.1 591 577 Q 595.5 578.8 594 573.5 Q 609.7 514.2 649.5 479 L 657 472.5 L 653 445.5 L 645 418.5 L 622 371.5 L 612 355.5 L 607 350.5 L 605.5 346 Z M 655 484 Q 628 508 613 544 L 605 566 L 598 602 L 598 619 L 599 624 L 602 624 L 607 620 L 622 603 L 642 569 L 653 538 Q 652 532 655 530 L 655 523 L 657 517 L 657 507 L 658 506 L 658 485 L 655 484 Z M 524 485 L 525 512 L 527 518 L 529 534 L 534 550 Q 547 585 570 612 L 584 624 L 587 624 L 587 618 L 588 617 L 587 598 L 582 579 L 582 575 L 577 559 Q 565 524 542 500 L 528 485 L 524 485 Z M 740 573 L 739 574 L 725 574 L 718 576 L 711 576 L 706 578 L 701 578 L 698 580 L 694 580 L 680 585 Q 648 598 624 618 L 610 633 L 610 635 L 615 636 L 640 635 L 675 626 L 706 612 L 733 593 L 750 575 L 749 573 L 740 573 Z M 441 579 L 441 582 L 456 595 Q 458 594 457 597 L 484 614 L 517 628 L 547 635 L 576 636 L 577 634 L 562 618 L 532 599 L 519 593 L 484 582 L 473 581 L 472 580 L 462 580 L 461 579 L 441 579 Z M 560 646 L 537 650 L 533 652 L 528 652 L 525 654 L 521 654 L 512 658 L 509 658 L 477 674 L 454 691 L 440 705 L 440 706 L 455 706 L 464 704 L 473 704 L 499 698 L 534 683 L 563 664 L 577 650 L 577 647 L 572 646 L 560 646 Z M 616 646 L 610 647 L 610 650 L 615 656 Q 631 669 651 680 L 681 693 L 709 700 L 725 701 L 726 702 L 746 702 Q 747 698 744 697 Q 741 698 742 695 L 725 681 L 708 670 L 677 656 L 640 647 L 616 646 Z M 585 658 L 569 675 L 550 706 L 537 741 L 533 760 L 532 777 L 531 778 L 531 794 L 535 794 Q 555 773 569 746 L 581 716 L 588 681 L 588 659 L 585 658 Z M 599 658 L 598 665 L 599 667 L 599 682 L 601 692 L 610 724 L 622 750 L 643 780 L 659 795 L 661 795 L 659 764 L 657 759 L 657 753 Q 654 750 655 745 L 651 733 L 638 703 L 615 670 L 603 658 L 599 658 Z " /><path fill="rgb(0,0,0)" stroke="rgb(0,0,0)" stroke-width="1" opacity="0.9725490196078431" d="M 590.5 435 L 600 439 Q 603 442.3 602 450.5 L 597.5 456 Q 594.8 458.8 588.5 458 L 582 453.5 Q 579 450.5 580 443.5 L 582 439 L 590.5 435 Z " /><path fill="rgb(0,0,0)" stroke="rgb(0,0,0)" stroke-width="1" opacity="0.9725490196078431" d="M 451.5 496 L 455.5 496 L 462 499 L 463 503 L 465 503.5 L 465 510.5 L 460.5 516 Q 457.6 519.6 449.5 518 L 444 513.5 Q 440.8 511.2 442 504.5 L 445.5 499 L 451.5 496 Z " /><path fill="rgb(0,0,0)" stroke="rgb(0,0,0)" stroke-width="1" opacity="0.9725490196078431" d="M 730.5 496 Q 738.8 495.8 742 500.5 Q 745.4 503.1 744 510.5 L 738.5 517 Q 735.3 519.3 728.5 518 L 725 516 L 721 509.5 L 721 504.5 L 727.5 497 L 730.5 496 Z " /><path fill="rgb(0,0,0)" stroke="rgb(0,0,0)" stroke-width="1" opacity="0.9725490196078431" d="M 406.5 627 Q 414 627.5 417 632.5 L 417 634 L 419 634.5 L 419 643 Q 416.3 641.9 417 644.5 Q 414.6 650.1 406.5 650 Q 400.8 648.8 398 644.5 Q 394.8 642.2 396 635.5 L 401.5 629 L 406.5 627 Z " /><path fill="rgb(0,0,0)" stroke="rgb(0,0,0)" stroke-width="1" opacity="0.9725490196078431" d="M 771.5 629 Q 779 629.5 782 634.5 Q 785.2 636.8 784 643.5 L 778.5 650 Q 776.2 652.7 770.5 652 L 763 646.5 Q 759.8 644.2 761 637.5 L 766.5 631 L 771.5 629 Z " /><path fill="rgb(0,0,0)" stroke="rgb(0,0,0)" stroke-width="1" opacity="0.9725490196078431" d="M 887.5 648 L 886.5 650 L 887.5 648 Z " /><path fill="rgb(0,0,0)" stroke="rgb(0,0,0)" stroke-width="1" opacity="0.9725490196078431" d="M 452.5 773 Q 460 773.5 463 778.5 Q 466.2 780.8 465 787.5 L 459.5 794 L 452.5 796 Q 446.8 794.8 444 790.5 Q 440.8 788.2 442 781.5 L 447.5 775 L 452.5 773 Z " /><path fill="rgb(0,0,0)" stroke="rgb(0,0,0)" stroke-width="1" opacity="0.9725490196078431" d="M 731.5 773 L 737.5 774 L 742 777 L 744 780.5 L 744 788.5 L 737.5 795 L 732.5 796 Q 725.9 795.1 723 790.5 Q 720.2 787.8 721 781.5 L 726.5 775 L 731.5 773 Z " /><path fill="rgb(0,0,0)" stroke="rgb(0,0,0)" stroke-width="1" opacity="0.9725490196078431" d="M 588.5 829 L 598 833 Q 601 836.3 600 844.5 L 595.5 850 Q 592.8 852.8 586.5 852 L 579 846.5 L 577 839.5 L 580 833 L 588.5 829 Z " /><path fill="rgb(0,0,0)" stroke="rgb(0,0,0)" stroke-width="1" opacity="0.9725490196078431" d="M 614.5 933 L 612.5 936 L 614.5 933 Z " /></svg>