<svg width="1181" height="1181" version="1.1" xmlns="http://www.w3.org/2000/svg" desc="Created with imagetracer.js version 1.2.6" ><path fill="rgb(0,0,0)" stroke="rgb(0,0,0)" stroke-width="1" opacity="0.8901960784313725" d="M 702.5 343 L 714 352.5 Q 721.5 359 725 369.5 L 728 384.5 L 728 396.5 L 723 417.5 Q 717.6 431.6 706.5 440 L 689.5 450 Q 671.9 453.9 658.5 462 Q 646 469 637 479.5 L 629 494.5 L 629 500.5 L 627 506.5 L 627 522.5 L 628 527.5 L 625 525.5 L 617 507.5 L 616 497.5 Q 618.3 496.2 617 491.5 L 622 479.5 L 639.5 460 L 660.5 447 L 690.5 436 L 704 425.5 Q 715.8 412.8 716 388.5 L 711 363.5 L 702.5 343 Z " /><path fill="rgb(0,0,0)" stroke="rgb(0,0,0)" stroke-width="1" opacity="0.8901960784313725" d="M 499.5 365 L 514.5 365 L 523.5 367 Q 538.1 373.4 548 384.5 Q 556.1 392.9 561 404.5 L 565 419.5 L 565 432.5 L 561 448.5 Q 553.3 461.8 549 478.5 L 547 489.5 L 547 507.5 L 551 520.5 L 567.5 540 L 575.5 546 L 577.5 546 Q 589.2 532.7 616.5 535 Q 636.8 539.8 648 553.5 Q 656 562.5 660 575.5 L 662 584.5 L 662 600.5 Q 657.3 625.8 640.5 639 Q 627.3 650.8 607.5 656 L 591.5 659 L 576 659.5 L 585 674.5 L 588 690.5 L 587 691.5 L 586 702.5 L 578 721.5 L 564.5 736 L 542.5 748 L 525.5 753 L 521.5 753 L 510.5 757 Q 500.5 762 494 770.5 Q 487.6 778.6 485 790.5 L 484 795.5 L 484 811.5 L 485 812.5 L 487 829.5 L 494 847.5 L 482 836.5 L 475 825.5 L 473 819.5 L 472 814.5 L 472 793.5 L 477 775.5 Q 481.8 763.8 490.5 756 L 509.5 744 L 530.5 739 L 551.5 730 L 565 718.5 Q 572.3 709.3 575 695.5 L 575 687.5 L 577 680.5 L 577 666.5 Q 574.7 665.3 576 660.5 L 573.5 658 L 560.5 656 L 535.5 643 Q 532.6 661.6 520.5 671 Q 509.5 680.5 493.5 685 L 474.5 686 L 453.5 681 L 431.5 670 L 422.5 667 L 404.5 666 Q 383.5 671 372 685.5 L 359 705.5 L 351.5 725 Q 348.5 717.5 350 705.5 L 352 694.5 L 355 688.5 Q 361.9 676.3 372.5 668 Q 382.7 659.2 397.5 655 L 401.5 654 L 420.5 654 L 434.5 658 Q 448.1 666.9 465.5 672 L 483.5 674 L 494.5 672 L 506.5 666 L 529 645.5 L 532 640.5 Q 517.5 630.5 506 617.5 L 481 584.5 L 466 558.5 L 449 523.5 L 430.5 500 Q 421.5 491 408.5 486 L 395.5 483 L 385.5 483 L 368.5 487 L 349.5 497 L 350.5 495 L 373.5 482 L 384.5 479 L 399.5 478 L 410.5 480 L 423.5 485 Q 436.3 492.3 446 502.5 L 463 524.5 Q 477.2 555.8 495 583.5 Q 510.6 606.9 531.5 625 Q 545.2 636.8 563.5 644 L 577.5 647 L 587.5 647 L 588.5 646 L 601.5 645 L 618.5 639 Q 632 632 641 620.5 L 649 603.5 L 650 587.5 Q 646.1 564.9 630.5 554 Q 621.3 545.7 602.5 547 Q 586 550.5 578 562.5 L 573 573.5 L 573 583.5 Q 575.4 596.1 584.5 602 Q 591.4 607.6 605.5 606 Q 613.5 603.5 618 597.5 Q 622 592.5 622 583.5 L 620 576.5 L 615 570.5 L 617.5 572 L 621 574.5 L 626 584.5 L 626 594.5 Q 623.1 606.1 614.5 612 Q 606.5 619 590.5 618 Q 575.8 613.8 568 602.5 Q 562.9 596.1 561 586.5 L 561 571.5 Q 564.7 556.2 575 547.5 Q 555.6 544.9 545 533.5 Q 531.8 518.2 535 486.5 L 541 462.5 L 552 436.5 L 553 421.5 L 548 405.5 Q 541.6 394 531.5 386 L 504.5 371 L 492 367.5 L 493.5 366 Q 498.2 367.3 499.5 365 Z " /><path fill="rgb(0,0,0)" stroke="rgb(0,0,0)" stroke-width="1" opacity="0.8901960784313725" d="M 676.5 389 Q 685.4 388.6 688 394.5 L 689 399.5 L 685.5 406 Q 682.8 408.8 676.5 408 L 670 402.5 L 669 397.5 L 672 391 L 676.5 389 Z " /><path fill="rgb(0,0,0)" stroke="rgb(0,0,0)" stroke-width="1" opacity="0.8901960784313725" d="M 514.5 412 Q 522.6 411.9 525 417.5 L 526 422.5 L 523 429 Q 520.4 431.7 513.5 431 L 508 427.5 L 506 421.5 Q 507.3 415.8 511.5 413 L 514.5 412 Z " /><path fill="rgb(0,0,0)" stroke="rgb(0,0,0)" stroke-width="1" opacity="0.8901960784313725" d="M 837.5 477 L 840 486.5 L 840 503.5 Q 833.4 526.4 816.5 539 Q 802.7 551.7 777.5 553 L 776.5 552 L 763.5 551 L 749.5 545 L 729.5 539 L 717.5 538 L 716.5 537 L 705.5 537 L 694.5 539 L 685.5 543 L 669 557.5 L 660.5 570 L 660 568.5 L 661 567.5 L 662 556.5 L 665 548.5 Q 669 539.5 676.5 534 Q 691.7 523.2 719.5 525 L 740.5 529 L 770.5 540 L 787.5 540 Q 806.4 534.9 817 521.5 L 824 511.5 L 831 497.5 L 837.5 477 Z " /><path fill="rgb(0,0,0)" stroke="rgb(0,0,0)" stroke-width="1" opacity="0.8901960784313725" d="M 659.5 486 Q 668.5 484.5 671 489.5 L 673 496.5 L 668.5 503 L 659.5 504 L 655 500.5 L 653 494.5 L 657.5 487 L 659.5 486 Z " /><path fill="rgb(0,0,0)" stroke="rgb(0,0,0)" stroke-width="1" opacity="0.8901960784313725" d="M 574.5 489 Q 581 489 584 492.5 Q 586.7 494.8 586 500.5 L 581.5 507 L 573.5 508 L 569 506 L 567 502.5 L 567 495.5 L 570.5 491 L 574.5 489 Z " /><path fill="rgb(0,0,0)" stroke="rgb(0,0,0)" stroke-width="1" opacity="0.8901960784313725" d="M 781.5 494 Q 790.1 492.9 792 498.5 L 793 507.5 L 786.5 513 L 781.5 513 L 777 511 L 774 502.5 L 777.5 496 L 781.5 494 Z " /><path fill="rgb(0,0,0)" stroke="rgb(0,0,0)" stroke-width="1" opacity="0.8901960784313725" d="M 393.5 516 Q 402.5 514.5 405 519.5 L 406 528.5 L 401.5 534 L 394.5 535 L 388 529.5 Q 386.3 519.8 391.5 517 L 393.5 516 Z " /><path fill="rgb(0,0,0)" stroke="rgb(0,0,0)" stroke-width="1" opacity="0.8901960784313725" d="M 706.5 557 L 711.5 557 L 718 562.5 L 719 567.5 L 714.5 575 L 706.5 576 L 701 571.5 L 700 562.5 L 706.5 557 Z " /><path fill="rgb(0,0,0)" stroke="rgb(0,0,0)" stroke-width="1" opacity="0.8901960784313725" d="M 517.5 560 Q 523.4 560.6 526 564.5 L 527 573.5 L 523.5 578 L 517.5 580 L 513.5 579 L 509 574.5 L 508 569.5 L 509 565.5 L 513.5 561 L 517.5 560 Z " /><path fill="rgb(0,0,0)" stroke="rgb(0,0,0)" stroke-width="1" opacity="0.8901960784313725" d="M 691.5 603 L 703.5 603 L 720.5 610 L 740 627.5 Q 754.3 645.2 762 669.5 L 776.5 686 Q 789.8 696.7 816.5 694 L 839.5 687 L 856.5 678 L 856 679.5 Q 851 689.5 842.5 696 Q 828.6 707.6 802.5 707 L 785.5 704 L 775.5 700 L 759 686.5 L 752 676.5 L 737 644.5 L 721.5 626 Q 714.6 619.4 704.5 616 L 681.5 614 L 667.5 617 L 670.5 613 Q 679.2 606.2 691.5 603 Z " /><path fill="rgb(0,0,0)" stroke="rgb(0,0,0)" stroke-width="1" opacity="0.8901960784313725" d="M 483.5 634 Q 490 634 493 637.5 Q 495.8 640.2 495 646.5 L 489.5 653 Q 479.4 654.6 477 648.5 L 476 641.5 L 479.5 636 L 483.5 634 Z " /><path fill="rgb(0,0,0)" stroke="rgb(0,0,0)" stroke-width="1" opacity="0.8901960784313725" d="M 699.5 640 Q 708.5 638.5 711 643.5 L 712 652.5 L 707.5 658 L 701.5 659 L 695 654.5 L 694 645.5 L 697.5 641 L 699.5 640 Z " /><path fill="rgb(0,0,0)" stroke="rgb(0,0,0)" stroke-width="1" opacity="0.8901960784313725" d="M 797.5 649 Q 806.9 647.6 809 653.5 L 810 660.5 L 806.5 666 Q 803.8 668.8 797.5 668 L 792 663.5 L 791 655.5 L 795.5 650 L 797.5 649 Z " /><path fill="rgb(0,0,0)" stroke="rgb(0,0,0)" stroke-width="1" opacity="0.8901960784313725" d="M 628.5 650 Q 649.5 652 661 663.5 Q 669 672.5 674 684.5 L 677 694.5 L 678 709.5 L 673 731.5 L 657 763.5 L 655 772.5 L 655 784.5 Q 660.5 808 677.5 820 L 692.5 830 L 712 838.5 L 691.5 839 L 679.5 836 Q 667.6 829.4 659 819.5 Q 648.7 808.3 644 791.5 Q 641.2 782.8 643 769.5 L 647 755.5 L 659 733.5 L 664 719.5 L 665 714.5 L 665 696.5 L 657 678.5 L 643 661 L 628.5 651 L 628.5 650 Z " /><path fill="rgb(0,0,0)" stroke="rgb(0,0,0)" stroke-width="1" opacity="0.8901960784313725" d="M 403.5 689 Q 411.8 687.7 414 692.5 Q 416.7 694.8 416 700.5 L 411.5 707 L 404.5 708 L 398 703.5 L 397 695.5 L 401.5 690 L 403.5 689 Z " /><path fill="rgb(0,0,0)" stroke="rgb(0,0,0)" stroke-width="1" opacity="0.8901960784313725" d="M 541.5 689 Q 548.1 689.4 551 693.5 L 552 702.5 L 548.5 707 L 539.5 708 L 535 704.5 L 533 697.5 L 538.5 690 L 541.5 689 Z " /><path fill="rgb(0,0,0)" stroke="rgb(0,0,0)" stroke-width="1" opacity="0.8901960784313725" d="M 633.5 692 L 638.5 692 L 645 697.5 Q 646.6 707.6 640.5 710 L 633.5 711 L 628 707.5 Q 625.3 705.2 626 699.5 L 629.5 694 L 633.5 692 Z " /><path fill="rgb(0,0,0)" stroke="rgb(0,0,0)" stroke-width="1" opacity="0.8901960784313725" d="M 685.5 773 Q 692.8 772.2 695 776.5 Q 697.7 778.8 697 784.5 L 692.5 791 L 684.5 792 L 678 786.5 Q 676.5 777.5 681.5 775 L 685.5 773 Z " /><path fill="rgb(0,0,0)" stroke="rgb(0,0,0)" stroke-width="1" opacity="0.8901960784313725" d="M 516.5 782 Q 524.6 781.9 527 787.5 L 528 792.5 L 523.5 800 L 515.5 801 L 509 795.5 L 508 791.5 L 509 787.5 L 513.5 783 L 516.5 782 Z " /><path fill="rgb(0,0,0)" stroke="rgb(0,0,0)" stroke-width="1" opacity="0" d="M 0 0 L 1181 0 L 1181 1181 L 0 1181 L 0 0 Z M 704 344 L 703 346 L 711 364 L 716 389 Q 716 413 704 426 L 691 436 L 661 447 L 640 460 L 622 480 L 617 492 Q 618 496 616 498 L 617 508 L 625 526 L 628 528 L 627 523 L 627 507 L 629 501 L 629 495 L 637 480 Q 646 469 659 462 Q 672 454 690 450 L 707 440 Q 718 432 723 418 L 728 397 L 728 385 L 725 370 Q 722 359 714 353 L 704 344 Z M 500 365 Q 498 367 494 366 L 492 368 L 505 371 L 532 386 Q 542 394 548 406 L 553 422 L 552 437 L 541 463 L 535 487 Q 532 518 545 534 Q 556 545 575 548 Q 565 556 561 572 L 561 587 Q 563 596 568 603 Q 576 614 591 618 Q 607 619 615 612 Q 623 606 626 595 Q 627 578 619 572 L 617 573 L 620 577 L 622 584 Q 622 593 618 598 Q 614 604 606 606 Q 591 608 585 602 Q 575 596 573 584 L 573 574 L 578 563 Q 586 550 603 547 Q 621 546 631 554 Q 646 565 650 588 L 649 604 L 641 621 Q 632 632 619 639 L 602 645 L 589 646 L 588 647 L 578 647 L 564 644 Q 545 637 532 625 Q 511 607 495 584 Q 477 556 463 525 L 446 503 Q 436 492 424 485 L 411 480 L 400 478 L 392 478 L 377 481 L 357 491 L 356 493 L 375 485 L 386 483 L 396 483 L 409 486 Q 422 491 431 500 L 449 524 L 466 559 L 481 585 L 506 618 Q 517 631 532 641 L 529 646 L 507 666 L 495 672 L 484 674 L 466 672 Q 448 667 435 658 L 421 654 L 402 654 L 398 655 Q 383 659 373 668 Q 362 676 355 689 L 352 695 L 350 706 Q 348 717 352 725 L 359 706 L 372 686 Q 383 671 405 666 L 423 667 L 432 670 L 454 681 L 475 686 L 494 685 Q 509 680 521 671 Q 533 662 536 643 L 556 654 L 569 658 L 574 658 L 576 660 L 577 659 L 592 659 L 608 656 Q 627 651 641 639 Q 657 626 662 601 L 662 585 L 660 576 Q 656 563 648 554 Q 637 540 617 535 Q 589 533 578 546 L 576 546 L 568 540 L 551 521 L 547 508 L 547 490 L 549 479 Q 553 462 561 449 L 565 433 L 565 420 L 561 405 Q 556 393 548 385 Q 538 373 524 367 L 515 365 L 500 365 Z M 677 389 L 672 391 L 669 398 L 670 403 L 677 408 Q 683 409 686 406 L 689 400 L 688 395 Q 685 389 677 389 Z M 515 412 L 512 413 Q 507 416 506 422 L 508 428 L 514 431 Q 520 432 523 429 L 526 423 L 525 418 Q 523 412 515 412 Z M 838 477 L 831 498 L 824 512 L 817 522 Q 806 535 788 540 L 771 540 L 741 529 L 720 525 Q 692 523 677 534 Q 669 539 665 549 L 662 557 L 661 568 L 660 569 L 661 570 L 669 558 L 686 543 L 695 539 L 706 537 L 717 537 L 718 538 L 730 539 L 750 545 L 764 551 L 777 552 L 778 553 Q 803 552 817 539 Q 833 526 840 504 L 840 487 L 838 477 Z M 660 486 L 658 487 L 653 495 L 655 501 L 660 504 L 669 503 L 673 497 L 671 490 Q 669 484 660 486 Z M 575 489 L 571 491 L 567 496 L 567 503 L 569 506 L 574 508 L 582 507 L 586 501 Q 587 495 584 493 Q 581 489 575 489 Z M 782 494 L 778 496 L 774 503 L 777 511 L 782 513 L 787 513 L 793 508 L 792 499 Q 790 493 782 494 Z M 394 516 L 392 517 Q 386 520 388 530 L 395 535 L 402 534 L 406 529 L 405 520 Q 403 514 394 516 Z M 707 557 L 700 563 L 701 572 L 707 576 L 715 575 L 719 568 L 718 563 L 712 557 L 707 557 Z M 518 560 L 514 561 L 509 566 L 508 570 L 509 575 L 514 579 L 518 580 L 524 578 L 527 574 L 526 565 Q 523 561 518 560 Z M 692 603 Q 679 606 671 613 L 668 617 L 682 614 L 705 616 Q 715 619 722 626 L 737 645 L 752 677 L 759 687 L 776 700 L 786 704 L 803 707 Q 829 708 843 696 Q 851 689 856 680 L 857 678 L 840 687 L 817 694 Q 790 697 777 686 L 762 670 Q 754 645 740 628 L 721 610 L 704 603 L 692 603 Z M 484 634 L 480 636 L 476 642 L 477 649 Q 479 655 490 653 L 495 647 Q 496 640 493 638 Q 490 634 484 634 Z M 700 640 L 698 641 L 694 646 L 695 655 L 702 659 L 708 658 L 712 653 L 711 644 Q 709 638 700 640 Z M 798 649 L 796 650 L 791 656 L 792 664 L 798 668 Q 804 669 807 666 L 810 661 L 809 654 Q 807 648 798 649 Z M 629 650 L 629 651 L 643 661 L 657 679 L 665 697 L 665 715 L 664 720 L 659 734 L 647 756 L 643 770 Q 641 783 644 792 Q 649 808 659 820 Q 668 829 680 836 L 692 839 L 712 839 L 693 830 L 678 820 Q 661 808 655 785 L 655 773 L 657 764 L 673 732 L 678 710 L 677 695 L 674 685 Q 669 673 661 664 Q 649 652 629 650 Z M 577 660 Q 574 665 577 667 L 577 681 L 575 688 L 575 696 Q 572 709 565 719 L 552 730 L 531 739 L 510 744 L 491 756 Q 482 764 477 776 L 472 794 L 472 815 L 473 820 L 475 826 L 482 837 L 494 848 L 487 830 L 485 813 L 484 812 L 484 796 L 485 791 Q 488 779 494 771 Q 501 762 511 757 L 522 753 L 526 753 L 543 748 L 565 736 L 578 722 L 586 703 L 587 692 L 588 691 L 585 675 L 577 660 Z M 404 689 L 402 690 L 397 696 L 398 704 L 405 708 L 412 707 L 416 701 Q 417 695 414 693 Q 412 688 404 689 Z M 542 689 L 539 690 L 533 698 L 535 705 L 540 708 L 549 707 L 552 703 L 551 694 Q 548 689 542 689 Z M 634 692 L 630 694 L 626 700 Q 625 705 628 708 L 634 711 L 641 710 Q 647 708 645 698 L 639 692 L 634 692 Z M 686 773 L 682 775 Q 676 777 678 787 L 685 792 L 693 791 L 697 785 Q 698 779 695 777 Q 693 772 686 773 Z M 517 782 L 514 783 L 509 788 L 508 792 L 509 796 L 516 801 L 524 800 L 528 793 L 527 788 Q 525 782 517 782 Z " /></svg>